<?xml version="1.0" encoding="UTF-8" standalone="no"?>
<svg
   xmlns:dc="http://purl.org/dc/elements/1.1/"
   xmlns:cc="http://creativecommons.org/ns#"
   xmlns:rdf="http://www.w3.org/1999/02/22-rdf-syntax-ns#"
   xmlns:svg="http://www.w3.org/2000/svg"
   xmlns="http://www.w3.org/2000/svg"
   xmlns:sodipodi="http://sodipodi.sourceforge.net/DTD/sodipodi-0.dtd"
   xmlns:inkscape="http://www.inkscape.org/namespaces/inkscape"
   width="210mm"
   height="297mm"
   viewBox="0 0 210 297"
   version="1.1"
   id="svg1968"
   inkscape:version="1.0.2 (e86c870879, 2021-01-15, custom)"
   sodipodi:docname="Panel6 Ground Radio Bottom.svg">
  <defs
     id="defs1962" />
  <sodipodi:namedview
     id="base"
     pagecolor="#ffffff"
     bordercolor="#666666"
     borderopacity="1.0"
     inkscape:pageopacity="0.0"
     inkscape:pageshadow="2"
     inkscape:zoom="1.5"
     inkscape:cx="400"
     inkscape:cy="560"
     inkscape:document-units="mm"
     inkscape:current-layer="layer1"
     inkscape:document-rotation="0"
     showgrid="false"
     inkscape:window-width="2560"
     inkscape:window-height="1361"
     inkscape:window-x="2551"
     inkscape:window-y="-9"
     inkscape:window-maximized="1" />
  <metadata
     id="metadata1965">
    <rdf:RDF>
      <cc:Work
         rdf:about="">
        <dc:format>image/svg+xml</dc:format>
        <dc:type
           rdf:resource="http://purl.org/dc/dcmitype/StillImage" />
        <dc:title />
      </cc:Work>
    </rdf:RDF>
  </metadata>
  <g
     inkscape:label="Layer 1"
     inkscape:groupmode="layer"
     id="layer1">
    <rect
       style="fill:none;stroke:#000000;stroke-width:0.25;stroke-miterlimit:4;stroke-dasharray:none"
       id="rect1071-3-3-2-2"
       width="152.14926"
       height="126.74926"
       x="32.051758"
       y="64.330925" />
    <path
       id="path1133-0-6-6"
       style="fill:#ff0000;stroke:none;stroke-width:0.25;stroke-miterlimit:4;stroke-dasharray:none"
       d="m 177.61525,178.79637 a 3.175,3.175 0 0 1 -3.08462,3.17371 3.175,3.175 0 0 1 -3.26024,-2.99302 3.175,3.175 0 0 1 2.899,-3.34411 3.175,3.175 0 0 1 3.42529,2.80262" />
    <path
       id="path1133-8-3-3-2"
       style="fill:#ff0000;stroke:none;stroke-width:0.25;stroke-miterlimit:4;stroke-dasharray:none"
       transform="scale(-1,1)"
       d="m -38.86489,178.79637 a 3.175,3.175 0 0 1 -3.084618,3.17371 3.175,3.175 0 0 1 -3.260236,-2.99302 3.175,3.175 0 0 1 2.899,-3.34411 3.175,3.175 0 0 1 3.425287,2.80262" />
    <path
       id="path1133-9-0-4-6"
       style="fill:#ff0000;stroke:none;stroke-width:0.25;stroke-miterlimit:4;stroke-dasharray:none"
       transform="scale(1,-1)"
       d="m 177.59553,-76.861931 a 3.175,3.175 0 0 1 -3.08462,3.173713 3.175,3.175 0 0 1 -3.26023,-2.993022 3.175,3.175 0 0 1 2.899,-3.344117 3.175,3.175 0 0 1 3.42529,2.80263" />
    <path
       id="path1133-3-2-0-2"
       style="fill:#ff0000;stroke:none;stroke-width:0.25;stroke-miterlimit:4;stroke-dasharray:none"
       transform="scale(-1)"
       d="m -38.884605,-76.861931 a 3.175,3.175 0 0 1 -3.084617,3.173713 3.175,3.175 0 0 1 -3.260237,-2.993022 3.175,3.175 0 0 1 2.899001,-3.344117 3.175,3.175 0 0 1 3.425287,2.80263" />
    <path
       id="path3035-90"
       style="fill:#ff0000;stroke:none;stroke-width:0.0671917"
       d="m 78.676559,114.65354 a 8,8 0 0 1 -7.772265,7.99676 8,8 0 0 1 -8.214769,-7.54147 8,8 0 0 1 7.304569,-8.42613 8,8 0 0 1 8.630644,7.06175" />
    <path
       id="path3035-2-9"
       style="fill:#ff0000;stroke:none;stroke-width:0.0671915"
       d="m 151.35878,114.94852 a 8,8 0 0 1 -7.77227,7.99675 8,8 0 0 1 -8.21476,-7.54147 8,8 0 0 1 7.30456,-8.42612 8,8 0 0 1 8.63065,7.06174" />
    <path
       id="path3377-71"
       style="fill:#ff0000;stroke:none;stroke-width:0.0553847"
       d="m 155.54615,73.721962 a 3.175,3.175 0 0 1 -3.08461,3.173713 3.175,3.175 0 0 1 -3.26024,-2.993022 3.175,3.175 0 0 1 2.899,-3.344117 3.175,3.175 0 0 1 3.42529,2.802629" />
    <path
       id="path3377-5-4"
       style="fill:#ff0000;stroke:none;stroke-width:0.0553846"
       d="m 67.704312,73.721962 a 3.175,3.175 0 0 1 -3.084618,3.173713 3.175,3.175 0 0 1 -3.260236,-2.993022 3.175,3.175 0 0 1 2.899001,-3.344117 3.175,3.175 0 0 1 3.425287,2.802629" />
    <path
       id="path3377-7-1"
       style="fill:#ff0000;stroke:none;stroke-width:0.0553846"
       d="m 111.42627,182.73839 a 3.175,3.175 0 0 1 -3.08462,3.17371 3.175,3.175 0 0 1 -3.26024,-2.99302 3.175,3.175 0 0 1 2.899,-3.34412 3.175,3.175 0 0 1 3.42529,2.80263" />
    <path
       id="path3035-9-5"
       style="fill:#ff0000;stroke:none;stroke-width:0.0671917"
       d="m 78.676559,159.645 a 8,8 0 0 1 -7.772265,7.99676 8,8 0 0 1 -8.214769,-7.54147 8,8 0 0 1 7.304569,-8.42612 8,8 0 0 1 8.630644,7.06174" />
    <path
       id="path3035-2-1-5"
       style="fill:#ff0000;stroke:none;stroke-width:0.0671915"
       d="m 151.35878,159.93996 a 8,8 0 0 1 -7.77227,7.99675 8,8 0 0 1 -8.21476,-7.54147 8,8 0 0 1 7.30456,-8.42612 8,8 0 0 1 8.63065,7.06174" />
  </g>
</svg>
