<?xml version="1.0" encoding="UTF-8" standalone="no"?>
<svg
   xmlns:dc="http://purl.org/dc/elements/1.1/"
   xmlns:cc="http://creativecommons.org/ns#"
   xmlns:rdf="http://www.w3.org/1999/02/22-rdf-syntax-ns#"
   xmlns:svg="http://www.w3.org/2000/svg"
   xmlns="http://www.w3.org/2000/svg"
   xmlns:sodipodi="http://sodipodi.sourceforge.net/DTD/sodipodi-0.dtd"
   xmlns:inkscape="http://www.inkscape.org/namespaces/inkscape"
   width="210mm"
   height="297mm"
   viewBox="0 0 210 297"
   version="1.1"
   id="svg2901"
   inkscape:version="1.0.2 (e86c870879, 2021-01-15, custom)"
   sodipodi:docname="Panel6 Ground Radio Top.svg">
  <defs
     id="defs2895">
    <rect
       x="199.31944"
       y="66.145833"
       width="189.61806"
       height="163.33611"
       id="rect917" />
  </defs>
  <sodipodi:namedview
     id="base"
     pagecolor="#ffffff"
     bordercolor="#666666"
     borderopacity="1.0"
     inkscape:pageopacity="0.0"
     inkscape:pageshadow="2"
     inkscape:zoom="1.5"
     inkscape:cx="400"
     inkscape:cy="293.33333"
     inkscape:document-units="mm"
     inkscape:current-layer="text2366"
     inkscape:document-rotation="0"
     showgrid="false"
     inkscape:window-width="2560"
     inkscape:window-height="1361"
     inkscape:window-x="2551"
     inkscape:window-y="-9"
     inkscape:window-maximized="1" />
  <metadata
     id="metadata2898">
    <rdf:RDF>
      <cc:Work
         rdf:about="">
        <dc:format>image/svg+xml</dc:format>
        <dc:type
           rdf:resource="http://purl.org/dc/dcmitype/StillImage" />
        <dc:title />
      </cc:Work>
    </rdf:RDF>
  </metadata>
  <g
     inkscape:label="Layer 1"
     inkscape:groupmode="layer"
     id="layer1">
    <g
       aria-label="crew chief"
       id="text2366"
       style="font-size:10.5833px;line-height:1.25;font-family:'MS 33558';-inkscape-font-specification:'MS 33558, ';letter-spacing:0px;word-spacing:0px;fill:#00ff00;stroke-width:0.264583">
      <path
         id="rect2248"
         style="fill:none;stroke:#000002;stroke-width:0.24965;stroke-miterlimit:4;stroke-dasharray:none"
         d="m 55.017386,24.81884 v 0.004 8.92221 0.99119 c 0.0015,0.0728 0.0052,0.14505 0.0052,0.21825 v 4.48071 c 0,5.61479 -4.406877,10.13475 -9.88135,10.13475 -0.02009,0 -0.03982,-10e-4 -0.05986,-10e-4 v 0.0475 h -9.821998 v -0.0475 h -0.20954 v 77.20506 h 0.07793 v -0.0785 h 9.821998 v 0.0474 c 0.02005,-1.2e-4 0.03979,-0.002 0.05986,-0.002 5.474475,0 9.88135,4.51995 9.88135,10.13474 v 0.27914 c 0.08021,0.51141 0.12283,1.0355 0.12283,1.5701 v 2.86625 9.97891 H 167.26357 v -9.95208 -2.86625 c 0,-0.4663 0.0342,-0.92405 0.0955,-1.373 v -0.50307 c 0,-5.61479 4.40689,-10.13474 9.88135,-10.13474 0.0201,0 0.04,0.002 0.0598,0.002 v -0.0474 h 1.97567 c 0.0263,-2.1e-4 0.0521,-0.002 0.0784,-0.002 0.0201,0 0.0399,0.002 0.0599,0.002 v -0.0474 h 7.78597 V 49.69429 h -0.0779 -8.23653 -1.58549 v -0.0475 c -0.0201,1.2e-4 -0.0397,0.002 -0.0598,0.002 -5.47446,0 -9.88135,-4.51995 -9.88135,-10.13474 v -0.50308 c -0.0613,-0.44894 -0.0955,-0.9067 -0.0955,-1.373 v -2.86623 -9.95209 z" />
      <g
         id="g1265">
        <g
           aria-label="Ground radio"
           id="text2366-2"
           style="font-size:10.5833px;line-height:1.25;font-family:'MS 33558';-inkscape-font-specification:'MS 33558, ';letter-spacing:0px;word-spacing:-2.64583px;fill:#00ff00;stroke-width:0.264583">
          <path
             d="m 85.700009,37.32843 -0.0279,-0.0031 q -0.378272,-0.04651 -0.378272,-0.430982 0,-0.384472 0.378272,-0.430981 l 0.0279,-0.0062 h 0.02791 1.144117 q 0.179834,0 0.306958,0.130224 0.130224,0.127124 0.130224,0.306958 v 1.571997 l -0.03721,0.08062 -0.0217,0.04961 -0.0217,0.04651 -0.02481,0.04651 -0.0248,0.04651 -0.0217,0.04651 -0.0248,0.04651 -0.02791,0.04651 q -0.601514,1.023193 -1.494483,1.001489 -0.892969,-0.0248 -1.500683,-1.010791 -0.288355,-0.468189 -0.427881,-1.172022 -0.139527,-0.706933 -0.08372,-1.441772 0.05581,-0.73794 0.341064,-1.401465 0.288355,-0.666626 0.858863,-1.0573 0.713134,-0.483691 1.389062,-0.111621 0.675928,0.36897 1.010791,1.038696 l 0.02481,0.04961 0.0186,0.04341 0.02481,0.04651 q 0.10542,0.294556 -0.08061,0.480591 -0.179834,0.176733 -0.390674,0.133325 -0.21084,-0.04651 -0.325562,-0.251148 -0.362768,-0.89917 -0.936377,-0.784448 -0.570507,0.114722 -0.855761,0.936377 -0.279053,0.79375 -0.220142,1.708423 0.05891,0.911572 0.595313,1.5906 0.368969,0.47439 0.750341,0.303858 0.381373,-0.170532 0.601514,-0.63562 l 0.03411,-0.06821 V 37.32843 Z"
             style="font-size:6.35px;fill:#00ff00;stroke-width:0.264583"
             id="path1034" />
          <path
             d="m 92.236044,39.213586 q 0.198437,0.350367 -0.111621,0.589112 -0.148828,0.10542 -0.344165,0.07131 -0.192236,-0.03411 -0.282153,-0.192236 l -1.528589,-2.415357 h -0.775147 v 2.182813 q 0,0.269751 -0.244946,0.390674 -0.244946,0.117822 -0.458887,-0.04651 -0.170532,-0.127124 -0.170532,-0.344165 v -5.478735 q 0,-0.179834 0.124023,-0.306958 0.127124,-0.127124 0.310059,-0.127124 h 1.925464 q 0.694531,0 1.206128,0.443383 0.511596,0.440284 0.63562,1.119312 0.130224,0.728638 -0.310059,1.364258 -0.437182,0.632519 -1.162719,0.768945 l -0.05891,0.0093 z M 90.67955,36.395154 q 0.31626,0 0.58291,-0.192236 0.269751,-0.192237 0.362769,-0.502295 0.145727,-0.477491 -0.133326,-0.861963 -0.279052,-0.387573 -0.768945,-0.427881 h -1.528589 v 1.984375 z"
             style="font-size:6.35px;fill:#00ff00;stroke-width:0.264583"
             id="path1036" />
          <path
             d="m 97.497738,35.362659 q 0.285254,0.858862 0.21394,1.782837 -0.06821,0.923974 -0.505395,1.686718 -0.275952,0.47439 -0.753443,0.806153 -0.47749,0.331762 -1.054199,0.232544 -0.939477,-0.164331 -1.438672,-0.979785 -0.499194,-0.815455 -0.573608,-1.813843 -0.07131,-1.001489 0.269751,-1.950269 0.344165,-0.948779 1.094507,-1.37976 0.365869,-0.21084 0.765844,-0.21084 0.762745,0 1.246436,0.576709 0.483691,0.573608 0.734839,1.249536 z m -1.95647,-0.945679 q -0.570508,0 -0.865063,0.613916 -0.291455,0.613916 -0.36897,1.047998 -0.05891,0.31626 -0.04341,0.765845 0.0155,0.449585 0.130224,0.889868 0.114722,0.437183 0.344165,0.790649 0.229444,0.350367 0.601514,0.465088 0.434082,0.136426 0.747241,-0.170532 0.31626,-0.310059 0.47749,-0.657324 0.164332,-0.356568 0.223243,-0.936377 0.06201,-0.57981 -0.02791,-1.156519 -0.08682,-0.579809 -0.344165,-1.041797 -0.257348,-0.465087 -0.731738,-0.592211 -0.06201,-0.0186 -0.142627,-0.0186 z"
             style="font-size:6.35px;fill:#00ff00;stroke-width:0.264583"
             id="path1038" />
          <path
             d="m 102.72533,37.793518 v 0.06201 q -0.009,0.155029 -0.0124,0.186035 -0.13022,0.948779 -0.77824,1.401465 -0.64803,0.449585 -1.38286,0.421679 -0.734843,-0.03101 -1.345659,-0.536401 -0.607715,-0.505395 -0.660425,-1.472778 v -0.06201 -3.823022 q 0,-0.09302 0.03411,-0.167432 0.148828,-0.325561 0.492993,-0.257349 0.347266,0.06821 0.347266,0.424781 v 3.823022 q 0.04651,0.713135 0.626318,1.066602 0.58291,0.353466 1.22473,-0.03101 0.28836,-0.170532 0.42168,-0.440283 0.13643,-0.269751 0.16123,-0.595313 v -3.823022 q 0,-0.05581 0.006,-0.08372 0.0713,-0.381372 0.46819,-0.344165 0.39688,0.03721 0.39688,0.427881 z"
             style="font-size:6.35px;fill:#00ff00;stroke-width:0.264583"
             id="path1040" />
          <path
             d="m 107.76378,39.458533 q 0,0.325561 -0.31626,0.415478 -0.31316,0.08682 -0.48679,-0.186035 l -2.6045,-4.176489 v 3.947046 q -0.0682,0.434082 -0.44028,0.434082 -0.36897,0 -0.43408,-0.434082 v -5.475635 q 0.0465,-0.322461 0.32866,-0.42478 0.28525,-0.10232 0.47439,0.192236 l 2.60449,4.18269 v -3.950146 q 0.0589,-0.443384 0.44959,-0.437183 0.39377,0.0031 0.42478,0.437183 z"
             style="font-size:6.35px;fill:#00ff00;stroke-width:0.264583"
             id="path1042" />
          <path
             d="m 109.08773,33.536414 h 1.46037 q 1.08831,0 1.63091,0.992187 0.54261,0.992188 0.54261,2.182813 0,1.190625 -0.54571,2.182812 -0.5426,0.992188 -1.62781,0.992188 h -1.46037 0.006 -0.006 q -0.10232,-0.0155 -0.11162,-0.0186 -0.32246,-0.07751 -0.31936,-0.42168 h -0.003 l 0.003,-5.475634 q -0.003,-0.0093 -0.003,-0.02481 0.009,-0.170532 0.13332,-0.288354 0.12713,-0.120923 0.30386,-0.120923 z m 1.46037,5.475634 q 0.006,0 0.0124,0 0.006,0 0.0155,0 0.006,0 0.009,0 0.006,-0.0031 0.0155,-0.0031 0.006,0 0.0124,0 0.009,-0.0031 0.0186,-0.0031 0.006,0 0.0124,0 0.006,-0.0031 0.0155,-0.0031 0.006,0 0.0124,0 0.006,-0.0031 0.0155,-0.0031 0.0124,-0.0062 0.0248,-0.0062 0.006,0 0.0124,-0.0031 0.006,-0.0062 0.0155,-0.0093 0.006,0 0.0124,0 0.009,-0.0031 0.0186,-0.0062 0.006,0 0.0124,-0.0031 0.006,-0.0031 0.0155,-0.0062 0.0186,-0.0062 0.0279,-0.0124 0.0558,-0.0186 0.031,-0.0124 0.006,0 0.0124,-0.0031 0.006,-0.0062 0.0155,-0.0093 0.0279,-0.0186 0.0248,-0.0155 0.031,-0.0155 0.031,-0.0155 0.006,-0.0031 0.0124,-0.0062 0.006,-0.0062 0.0155,-0.0124 0.0279,-0.0186 0.0279,-0.0186 0.006,-0.0031 0.0124,-0.0062 0.009,-0.0062 0.0186,-0.0124 0.006,-0.0031 0.0124,-0.0093 0.006,-0.0062 0.0155,-0.0124 0.006,-0.0031 0.0124,-0.0062 0.006,-0.0062 0.0155,-0.0124 0.006,-0.0062 0.031,-0.02481 0.0248,-0.02481 0.0248,-0.02481 0.006,-0.0062 0.0124,-0.0124 0.006,-0.0062 0.0155,-0.0155 0.006,-0.0062 0.0124,-0.0124 0.006,-0.0062 0.0155,-0.0155 0.009,-0.0062 0.0279,-0.02481 0.006,-0.0062 0.0124,-0.0124 0.006,-0.0062 0.0155,-0.0155 0.006,-0.0062 0.0124,-0.0124 0.006,-0.0093 0.0155,-0.0186 0.0372,-0.04961 0.0248,-0.03101 0.0217,-0.0217 0.0279,-0.03411 0.0279,-0.03721 0.0248,-0.03411 0.006,-0.0093 0.0124,-0.0155 0.006,-0.0093 0.0155,-0.0186 0.006,-0.0093 0.009,-0.0186 0.006,-0.0093 0.0155,-0.0186 0.003,-0.0093 0.009,-0.0186 0.009,-0.0124 0.0155,-0.0217 0.0186,-0.02481 0.0248,-0.03721 0.006,-0.0093 0.009,-0.0186 0.006,-0.0124 0.0155,-0.0217 0.006,-0.0093 0.009,-0.0186 0.006,-0.0124 0.0155,-0.0217 0.006,-0.0155 0.0186,-0.04031 0.006,-0.0093 0.009,-0.0217 0.006,-0.0124 0.0155,-0.02481 0.006,-0.0093 0.009,-0.0186 0.006,-0.0124 0.0155,-0.02481 0.003,-0.0093 0.006,-0.0217 0.006,-0.0124 0.0124,-0.02481 0.009,-0.0155 0.0217,-0.04651 0.031,-0.07751 0.0217,-0.04961 0.003,-0.0093 0.006,-0.0217 0.006,-0.0155 0.0124,-0.02791 0.003,-0.0124 0.006,-0.0248 0.006,-0.0124 0.0124,-0.02791 0.009,-0.0279 0.0155,-0.04961 0.003,-0.0124 0.006,-0.0248 0.006,-0.0124 0.0124,-0.02791 -0.0124,0.03101 0.0155,-0.05271 0.006,-0.0155 0.0186,-0.05271 0,-0.0124 0.003,-0.02481 0.006,-0.0155 0.009,-0.03101 0.003,-0.0124 0.006,-0.02481 0.003,-0.0155 0.009,-0.03101 0,-0.0093 0.003,-0.0217 0.006,-0.0155 0.009,-0.03101 0.003,-0.0217 0.009,-0.05891 0,-0.0124 0.003,-0.0248 0.006,-0.0155 0.009,-0.03101 0,-0.0124 0.003,-0.02481 0.003,-0.0155 0.006,-0.03101 0.003,-0.0217 0.009,-0.05891 0,-0.0124 0.003,-0.0279 0.006,-0.0155 0.009,-0.03101 0,-0.0217 0.006,-0.05891 0,-0.0124 0,-0.02481 0.003,-0.0155 0.006,-0.03411 0.006,-0.03721 0.006,-0.05891 0.003,-0.0217 0.003,-0.05891 0.003,-0.0217 0.003,-0.06201 0.003,-0.0217 0.003,-0.05891 0,-0.0155 0,-0.02791 0.003,-0.0155 0.006,-0.03411 0,-0.0124 0,-0.02481 0.003,-0.0155 0.003,-0.03411 0,-0.0124 0,-0.02791 0,-0.0155 0,-0.03101 0,-0.0155 0,-0.02791 0,-0.0155 0,-0.03101 0,-0.0155 -0.003,-0.0279 0,-0.0155 0,-0.03411 0,-0.0124 0,-0.02791 0,-0.0155 0,-0.03101 0,-0.0186 -0.006,-0.06201 0,-0.03721 -0.003,-0.05581 0,-0.0217 -0.006,-0.06511 0,-0.03721 -0.003,-0.05581 0,-0.0217 -0.006,-0.05891 -0.003,-0.0124 -0.006,-0.0279 0,-0.0155 0,-0.03101 -0.006,-0.03721 -0.0124,-0.05891 -0.003,-0.0124 -0.006,-0.02481 -0.003,-0.0155 -0.003,-0.03101 -0.003,-0.0217 -0.009,-0.05891 -0.003,-0.0217 -0.009,-0.05891 -0.0124,-0.03721 -0.0155,-0.05581 -0.006,-0.03721 -0.009,-0.05271 -0.006,-0.0124 -0.009,-0.02481 -0.003,-0.0155 -0.006,-0.03101 -0.003,-0.0124 -0.009,-0.0248 -0.006,-0.0155 -0.006,-0.03101 -0.0279,-0.08372 -0.0155,-0.05271 -0.006,-0.0217 -0.0155,-0.05271 -0.006,-0.0093 -0.0124,-0.0217 -0.003,-0.0155 -0.006,-0.02791 -0.003,-0.0093 -0.0186,-0.05271 -0.0124,-0.03101 -0.0186,-0.04961 -0.006,-0.0093 -0.0124,-0.0217 -0.003,-0.0155 -0.006,-0.02791 -0.006,-0.0093 -0.0124,-0.0217 -0.006,-0.0124 -0.009,-0.02481 -0.0124,-0.03101 -0.0217,-0.04651 -0.0124,-0.03101 -0.0186,-0.04341 -0.0124,-0.03101 -0.0217,-0.04651 -0.006,-0.0093 -0.0124,-0.0186 -0.006,-0.0124 -0.009,-0.0217 -0.0186,-0.03101 -0.0248,-0.04341 -0.0279,-0.04341 -0.0248,-0.04031 -0.009,-0.0093 -0.0155,-0.0186 -0.003,-0.0124 -0.009,-0.0217 -0.006,-0.0124 -0.0248,-0.03721 -0.006,-0.0093 -0.0124,-0.0186 -0.006,-0.0093 -0.009,-0.0186 -0.0155,-0.02791 -0.0527,-0.07131 -0.006,-0.0062 -0.0496,-0.06821 -0.0372,-0.04341 -0.0558,-0.06201 -0.0186,-0.0217 -0.0558,-0.05891 -0.0248,-0.02791 -0.0527,-0.05271 -0.0217,-0.0155 -0.0589,-0.04651 -0.031,-0.0248 -0.0589,-0.04651 -0.0713,-0.04651 -0.0589,-0.04031 -0.062,-0.03721 -0.0558,-0.03411 0,0 -0.0558,-0.0279 -0.0124,-0.0062 -0.0589,-0.0217 -0.0403,-0.0155 -0.0589,-0.0217 -0.0155,-0.0031 -0.0279,-0.0062 -0.0124,-0.0062 -0.0248,-0.0124 -0.0558,-0.0093 -0.0558,-0.0093 -0.0186,-0.0031 -0.0558,-0.0031 -0.009,0 -0.0155,0 -0.006,0 -0.0124,0 h -1.02319 v 4.601269 0 z"
             style="font-size:6.35px;fill:#00ff00;stroke-width:0.264583"
             id="path1044" />
          <path
             d="m 121.13247,39.213586 q 0.19844,0.350367 -0.11162,0.589112 -0.14882,0.10542 -0.34416,0.07131 -0.19224,-0.03411 -0.28215,-0.192236 l -1.52859,-2.415357 h -0.77515 v 2.182813 q 0,0.269751 -0.24495,0.390674 -0.24494,0.117822 -0.45888,-0.04651 -0.17054,-0.127124 -0.17054,-0.344165 v -5.478735 q 0,-0.179834 0.12403,-0.306958 0.12712,-0.127124 0.31006,-0.127124 h 1.92546 q 0.69453,0 1.20613,0.443383 0.51159,0.440284 0.63562,1.119312 0.13022,0.728638 -0.31006,1.364258 -0.43718,0.632519 -1.16272,0.768945 l -0.0589,0.0093 z m -1.55649,-2.818432 q 0.31626,0 0.58291,-0.192236 0.26975,-0.192237 0.36277,-0.502295 0.14573,-0.477491 -0.13333,-0.861963 -0.27905,-0.387573 -0.76894,-0.427881 h -1.52859 v 1.984375 z"
             style="font-size:6.35px;fill:#00ff00;stroke-width:0.264583"
             id="path1046" />
          <path
             d="m 125.62832,37.849329 -0.94257,-2.604493 -0.94878,2.604493 z m -0.94257,-2.604493 0.94257,2.604493 z M 122.29209,39.288 q 0.4961,-1.367358 0.99219,-2.731616 0.4992,-1.367358 0.99839,-2.734716 0.10232,-0.282154 0.40618,-0.285254 0.30385,-0.0031 0.40927,0.285254 l 1.98748,5.481835 q 0.093,0.437183 -0.26665,0.564307 -0.35967,0.127124 -0.55501,-0.260449 l -0.31936,-0.886768 h -2.52697 l -0.31006,0.865064 q -0.19844,0.390674 -0.56431,0.257348 -0.36587,-0.136425 -0.25115,-0.555005 z"
             style="font-size:6.35px;fill:#00ff00;stroke-width:0.264583"
             id="path1048" />
          <path
             d="m 128.1305,33.536414 h 1.46037 q 1.08831,0 1.63091,0.992187 0.5426,0.992188 0.5426,2.182813 0,1.190625 -0.5457,2.182812 -0.5426,0.992188 -1.62781,0.992188 h -1.46037 0.006 -0.006 q -0.10232,-0.0155 -0.11162,-0.0186 -0.32247,-0.07751 -0.31936,-0.42168 h -0.003 l 0.003,-5.475634 q -0.003,-0.0093 -0.003,-0.02481 0.009,-0.170532 0.13333,-0.288354 0.12712,-0.120923 0.30386,-0.120923 z m 1.46037,5.475634 q 0.006,0 0.0124,0 0.006,0 0.0155,0 0.006,0 0.009,0 0.006,-0.0031 0.0155,-0.0031 0.006,0 0.0124,0 0.009,-0.0031 0.0186,-0.0031 0.006,0 0.0124,0 0.006,-0.0031 0.0155,-0.0031 0.006,0 0.0124,0 0.006,-0.0031 0.0155,-0.0031 0.0124,-0.0062 0.0248,-0.0062 0.006,0 0.0124,-0.0031 0.006,-0.0062 0.0155,-0.0093 0.006,0 0.0124,0 0.009,-0.0031 0.0186,-0.0062 0.006,0 0.0124,-0.0031 0.006,-0.0031 0.0155,-0.0062 0.0186,-0.0062 0.0279,-0.0124 0.0558,-0.0186 0.031,-0.0124 0.006,0 0.0124,-0.0031 0.006,-0.0062 0.0155,-0.0093 0.0279,-0.0186 0.0248,-0.0155 0.031,-0.0155 0.031,-0.0155 0.006,-0.0031 0.0124,-0.0062 0.006,-0.0062 0.0155,-0.0124 0.0279,-0.0186 0.0279,-0.0186 0.006,-0.0031 0.0124,-0.0062 0.009,-0.0062 0.0186,-0.0124 0.006,-0.0031 0.0124,-0.0093 0.006,-0.0062 0.0155,-0.0124 0.006,-0.0031 0.0124,-0.0062 0.006,-0.0062 0.0155,-0.0124 0.006,-0.0062 0.031,-0.02481 0.0248,-0.02481 0.0248,-0.02481 0.006,-0.0062 0.0124,-0.0124 0.006,-0.0062 0.0155,-0.0155 0.006,-0.0062 0.0124,-0.0124 0.006,-0.0062 0.0155,-0.0155 0.009,-0.0062 0.0279,-0.02481 0.006,-0.0062 0.0124,-0.0124 0.006,-0.0062 0.0155,-0.0155 0.006,-0.0062 0.0124,-0.0124 0.006,-0.0093 0.0155,-0.0186 0.0372,-0.04961 0.0248,-0.03101 0.0217,-0.0217 0.0279,-0.03411 0.0279,-0.03721 0.0248,-0.03411 0.006,-0.0093 0.0124,-0.0155 0.006,-0.0093 0.0155,-0.0186 0.006,-0.0093 0.009,-0.0186 0.006,-0.0093 0.0155,-0.0186 0.003,-0.0093 0.009,-0.0186 0.009,-0.0124 0.0155,-0.0217 0.0186,-0.02481 0.0248,-0.03721 0.006,-0.0093 0.009,-0.0186 0.006,-0.0124 0.0155,-0.0217 0.006,-0.0093 0.009,-0.0186 0.006,-0.0124 0.0155,-0.0217 0.006,-0.0155 0.0186,-0.04031 0.006,-0.0093 0.009,-0.0217 0.006,-0.0124 0.0155,-0.02481 0.006,-0.0093 0.009,-0.0186 0.006,-0.0124 0.0155,-0.02481 0.003,-0.0093 0.006,-0.0217 0.006,-0.0124 0.0124,-0.02481 0.009,-0.0155 0.0217,-0.04651 0.031,-0.07751 0.0217,-0.04961 0.003,-0.0093 0.006,-0.0217 0.006,-0.0155 0.0124,-0.02791 0.003,-0.0124 0.006,-0.0248 0.006,-0.0124 0.0124,-0.02791 0.009,-0.0279 0.0155,-0.04961 0.003,-0.0124 0.006,-0.0248 0.006,-0.0124 0.0124,-0.02791 -0.0124,0.03101 0.0155,-0.05271 0.006,-0.0155 0.0186,-0.05271 0,-0.0124 0.003,-0.02481 0.006,-0.0155 0.009,-0.03101 0.003,-0.0124 0.006,-0.02481 0.003,-0.0155 0.009,-0.03101 0,-0.0093 0.003,-0.0217 0.006,-0.0155 0.009,-0.03101 0.003,-0.0217 0.009,-0.05891 0,-0.0124 0.003,-0.0248 0.006,-0.0155 0.009,-0.03101 0,-0.0124 0.003,-0.02481 0.003,-0.0155 0.006,-0.03101 0.003,-0.0217 0.009,-0.05891 0,-0.0124 0.003,-0.0279 0.006,-0.0155 0.009,-0.03101 0,-0.0217 0.006,-0.05891 0,-0.0124 0,-0.02481 0.003,-0.0155 0.006,-0.03411 0.006,-0.03721 0.006,-0.05891 0.003,-0.0217 0.003,-0.05891 0.003,-0.0217 0.003,-0.06201 0.003,-0.0217 0.003,-0.05891 0,-0.0155 0,-0.02791 0.003,-0.0155 0.006,-0.03411 0,-0.0124 0,-0.02481 0.003,-0.0155 0.003,-0.03411 0,-0.0124 0,-0.02791 0,-0.0155 0,-0.03101 0,-0.0155 0,-0.02791 0,-0.0155 0,-0.03101 0,-0.0155 -0.003,-0.0279 0,-0.0155 0,-0.03411 0,-0.0124 0,-0.02791 0,-0.0155 0,-0.03101 0,-0.0186 -0.006,-0.06201 0,-0.03721 -0.003,-0.05581 0,-0.0217 -0.006,-0.06511 0,-0.03721 -0.003,-0.05581 0,-0.0217 -0.006,-0.05891 -0.003,-0.0124 -0.006,-0.0279 0,-0.0155 0,-0.03101 -0.006,-0.03721 -0.0124,-0.05891 -0.003,-0.0124 -0.006,-0.02481 -0.003,-0.0155 -0.003,-0.03101 -0.003,-0.0217 -0.009,-0.05891 -0.003,-0.0217 -0.009,-0.05891 -0.0124,-0.03721 -0.0155,-0.05581 -0.006,-0.03721 -0.009,-0.05271 -0.006,-0.0124 -0.009,-0.02481 -0.003,-0.0155 -0.006,-0.03101 -0.003,-0.0124 -0.009,-0.0248 -0.006,-0.0155 -0.006,-0.03101 -0.0279,-0.08372 -0.0155,-0.05271 -0.006,-0.0217 -0.0155,-0.05271 -0.006,-0.0093 -0.0124,-0.0217 -0.003,-0.0155 -0.006,-0.02791 -0.003,-0.0093 -0.0186,-0.05271 -0.0124,-0.03101 -0.0186,-0.04961 -0.006,-0.0093 -0.0124,-0.0217 -0.003,-0.0155 -0.006,-0.02791 -0.006,-0.0093 -0.0124,-0.0217 -0.006,-0.0124 -0.009,-0.02481 -0.0124,-0.03101 -0.0217,-0.04651 -0.0124,-0.03101 -0.0186,-0.04341 -0.0124,-0.03101 -0.0217,-0.04651 -0.006,-0.0093 -0.0124,-0.0186 -0.006,-0.0124 -0.009,-0.0217 -0.0186,-0.03101 -0.0248,-0.04341 -0.0279,-0.04341 -0.0248,-0.04031 -0.009,-0.0093 -0.0155,-0.0186 -0.003,-0.0124 -0.009,-0.0217 -0.006,-0.0124 -0.0248,-0.03721 -0.006,-0.0093 -0.0124,-0.0186 -0.006,-0.0093 -0.009,-0.0186 -0.0155,-0.02791 -0.0527,-0.07131 -0.006,-0.0062 -0.0496,-0.06821 -0.0372,-0.04341 -0.0558,-0.06201 -0.0186,-0.0217 -0.0558,-0.05891 -0.0248,-0.02791 -0.0527,-0.05271 -0.0217,-0.0155 -0.0589,-0.04651 -0.031,-0.0248 -0.0589,-0.04651 -0.0713,-0.04651 -0.0589,-0.04031 -0.062,-0.03721 -0.0558,-0.03411 0,0 -0.0558,-0.0279 -0.0124,-0.0062 -0.0589,-0.0217 -0.0403,-0.0155 -0.0589,-0.0217 -0.0155,-0.0031 -0.0279,-0.0062 -0.0124,-0.0062 -0.0248,-0.0124 -0.0558,-0.0093 -0.0558,-0.0093 -0.0186,-0.0031 -0.0558,-0.0031 -0.009,0 -0.0155,0 -0.006,0 -0.0124,0 h -1.02319 v 4.601269 0 z"
             style="font-size:6.35px;fill:#00ff00;stroke-width:0.264583"
             id="path1050" />
          <path
             d="m 133.4356,39.458533 q -0.0682,0.437182 -0.44338,0.434082 -0.37207,0 -0.43719,-0.434082 v -5.481836 q 0.0651,-0.437183 0.43719,-0.437183 0.37517,-0.0031 0.44338,0.437183 z"
             style="font-size:6.35px;fill:#00ff00;stroke-width:0.264583"
             id="path1052" />
          <path
             d="m 138.43995,35.362659 q 0.28525,0.858862 0.21394,1.782837 -0.0682,0.923974 -0.5054,1.686718 -0.27595,0.47439 -0.75344,0.806153 -0.47749,0.331762 -1.0542,0.232544 -0.93948,-0.164331 -1.43867,-0.979785 -0.4992,-0.815455 -0.57361,-1.813843 -0.0713,-1.001489 0.26975,-1.950269 0.34416,-0.948779 1.09451,-1.37976 0.36587,-0.21084 0.76584,-0.21084 0.76274,0 1.24644,0.576709 0.48369,0.573608 0.73484,1.249536 z m -1.95647,-0.945679 q -0.57051,0 -0.86507,0.613916 -0.29145,0.613916 -0.36897,1.047998 -0.0589,0.31626 -0.0434,0.765845 0.0155,0.449585 0.13023,0.889868 0.11472,0.437183 0.34416,0.790649 0.22945,0.350367 0.60152,0.465088 0.43408,0.136426 0.74724,-0.170532 0.31626,-0.310059 0.47749,-0.657324 0.16433,-0.356568 0.22324,-0.936377 0.062,-0.57981 -0.0279,-1.156519 -0.0868,-0.579809 -0.34417,-1.041797 -0.25735,-0.465087 -0.73174,-0.592211 -0.062,-0.0186 -0.14262,-0.0186 z"
             style="font-size:6.35px;fill:#00ff00;stroke-width:0.264583"
             id="path1054" />
        </g>
        <g
           aria-label="ground power"
           id="text2370"
           style="font-size:10.5833px;line-height:1.25;font-family:'MS 33558';-inkscape-font-specification:'MS 33558, ';letter-spacing:0px;word-spacing:0px;fill:#00ff00;stroke-width:0.264583">
          <path
             d="m 91.868036,50.88109 -0.0186,-0.0021 q -0.252181,-0.03101 -0.252181,-0.287321 0,-0.256315 0.252181,-0.287321 l 0.0186,-0.0041 h 0.0186 0.762743 q 0.119889,0 0.204639,0.08682 0.08682,0.08475 0.08682,0.204639 v 1.047997 l -0.02481,0.05374 -0.01447,0.03307 -0.01447,0.03101 -0.01654,0.03101 -0.01654,0.03101 -0.01447,0.03101 -0.01654,0.03101 -0.0186,0.03101 q -0.401008,0.682129 -0.99632,0.667659 -0.595312,-0.01654 -1.000455,-0.67386 -0.192236,-0.312125 -0.285254,-0.781347 -0.09302,-0.471288 -0.05581,-0.961181 0.03721,-0.491959 0.227376,-0.934309 0.192236,-0.444417 0.572574,-0.704866 0.475423,-0.32246 0.926041,-0.07441 0.450618,0.24598 0.67386,0.692464 l 0.01654,0.03307 0.0124,0.02894 0.01654,0.03101 q 0.07028,0.196371 -0.05374,0.320394 -0.119889,0.117822 -0.260449,0.08888 -0.14056,-0.03101 -0.217041,-0.167431 -0.241845,-0.599446 -0.624251,-0.522965 -0.380338,0.07648 -0.570507,0.624251 -0.186035,0.529166 -0.146761,1.138947 0.03927,0.607715 0.396875,1.0604 0.245979,0.316259 0.500227,0.202571 0.254248,-0.113688 0.401009,-0.423746 l 0.02274,-0.04548 V 50.88109 Z"
             style="font-size:4.23333px;fill:#00ff00;stroke-width:0.264583"
             id="path1057" />
          <path
             d="m 96.225389,52.137859 q 0.132292,0.233578 -0.07441,0.392741 -0.09922,0.07028 -0.229443,0.04754 -0.128157,-0.02274 -0.188102,-0.128157 l -1.019058,-1.610236 h -0.516764 v 1.455207 q 0,0.179834 -0.163298,0.260449 -0.163297,0.07855 -0.305924,-0.03101 -0.113688,-0.08475 -0.113688,-0.229443 v -3.652487 q 0,-0.11989 0.08268,-0.204639 0.08475,-0.08475 0.206706,-0.08475 h 1.283641 q 0.463021,0 0.804085,0.295589 0.341064,0.293522 0.423746,0.746207 0.08682,0.485758 -0.206705,0.909504 -0.291455,0.42168 -0.775146,0.51263 l -0.03927,0.0062 z m -1.037662,-1.878953 q 0.21084,0 0.388607,-0.128157 0.179834,-0.128158 0.241845,-0.334863 0.09715,-0.318327 -0.08888,-0.574642 -0.186035,-0.258382 -0.51263,-0.285254 h -1.019058 v 1.322916 z"
             style="font-size:4.23333px;fill:#00ff00;stroke-width:0.264583"
             id="path1059" />
          <path
             d="m 99.733183,49.570576 q 0.190169,0.572575 0.142626,1.188557 -0.04548,0.615983 -0.33693,1.124479 -0.183968,0.316259 -0.502294,0.537434 -0.318327,0.221175 -0.702799,0.155029 -0.626318,-0.109554 -0.959114,-0.653189 -0.332796,-0.543636 -0.382405,-1.209228 -0.04754,-0.667659 0.179834,-1.300178 0.229443,-0.632519 0.72967,-0.919839 0.243913,-0.14056 0.510563,-0.14056 0.508496,0 0.830956,0.384472 0.322461,0.382405 0.489893,0.833023 z m -1.304312,-0.630451 q -0.380339,0 -0.576709,0.409277 -0.194303,0.409277 -0.24598,0.698664 -0.03927,0.21084 -0.02894,0.510563 0.01034,0.299723 0.08682,0.593245 0.07648,0.291455 0.229443,0.527099 0.152962,0.233577 0.401009,0.310058 0.289388,0.09095 0.49816,-0.113688 0.21084,-0.206705 0.318327,-0.438215 0.109554,-0.237712 0.148828,-0.624251 0.04134,-0.38654 -0.0186,-0.771012 -0.05788,-0.386539 -0.229443,-0.694531 -0.171565,-0.310058 -0.487825,-0.394807 -0.04134,-0.0124 -0.09508,-0.0124 z"
             style="font-size:4.23333px;fill:#00ff00;stroke-width:0.264583"
             id="path1061" />
          <path
             d="m 103.21824,51.191148 v 0.04134 q -0.006,0.103353 -0.008,0.124023 -0.0868,0.632519 -0.51883,0.93431 -0.43202,0.299723 -0.92191,0.281119 -0.48989,-0.02067 -0.8971,-0.3576 -0.40514,-0.336931 -0.44028,-0.981852 v -0.04134 -2.548679 q 0,-0.06201 0.0227,-0.111621 0.0992,-0.217041 0.32866,-0.171566 0.23151,0.04547 0.23151,0.283187 v 2.548679 q 0.031,0.475423 0.41754,0.711067 0.38861,0.235644 0.81649,-0.02067 0.19224,-0.113688 0.28112,-0.293522 0.0909,-0.179834 0.10749,-0.396875 v -2.548679 q 0,-0.03721 0.004,-0.05581 0.0475,-0.254248 0.31213,-0.229443 0.26458,0.02481 0.26458,0.285254 z"
             style="font-size:4.23333px;fill:#00ff00;stroke-width:0.264583"
             id="path1063" />
          <path
             d="m 106.5772,52.301157 q 0,0.217041 -0.21084,0.276985 -0.20877,0.05788 -0.32452,-0.124023 l -1.73633,-2.784324 v 2.631362 q -0.0455,0.289388 -0.29352,0.289388 -0.24598,0 -0.28939,-0.289388 v -3.65042 q 0.031,-0.214974 0.21911,-0.283187 0.19017,-0.06821 0.31626,0.128158 l 1.73632,2.788458 v -2.633429 q 0.0393,-0.295589 0.29973,-0.291455 0.26251,0.0021 0.28318,0.291455 z"
             style="font-size:4.23333px;fill:#00ff00;stroke-width:0.264583"
             id="path1065" />
          <path
             d="m 107.45984,48.353081 h 0.97358 q 0.72554,0 1.08727,0.661458 0.36174,0.661457 0.36174,1.455207 0,0.793749 -0.36381,1.455207 -0.36173,0.661458 -1.0852,0.661458 h -0.97358 0.004 -0.004 q -0.0682,-0.01034 -0.0744,-0.0124 -0.21497,-0.05168 -0.2129,-0.281119 h -0.002 l 0.002,-3.65042 q -0.002,-0.0062 -0.002,-0.01654 0.006,-0.113688 0.0889,-0.192236 0.0847,-0.08061 0.20257,-0.08061 z m 0.97358,3.65042 q 0.004,0 0.008,0 0.004,0 0.0103,0 0.004,0 0.006,0 0.004,-0.0021 0.0103,-0.0021 0.004,0 0.008,0 0.006,-0.0021 0.0124,-0.0021 0.004,0 0.008,0 0.004,-0.0021 0.0103,-0.0021 0.004,0 0.008,0 0.004,-0.0021 0.0103,-0.0021 0.008,-0.0041 0.0165,-0.0041 0.004,0 0.008,-0.0021 0.004,-0.0041 0.0103,-0.0062 0.004,0 0.008,0 0.006,-0.0021 0.0124,-0.0041 0.004,0 0.008,-0.0021 0.004,-0.0021 0.0103,-0.0041 0.0124,-0.0041 0.0186,-0.0083 0.0372,-0.0124 0.0207,-0.0083 0.004,0 0.008,-0.0021 0.004,-0.0041 0.0103,-0.0062 0.0186,-0.0124 0.0165,-0.01034 0.0207,-0.01033 0.0207,-0.01033 0.004,-0.0021 0.008,-0.0041 0.004,-0.0041 0.0103,-0.0083 0.0186,-0.0124 0.0186,-0.0124 0.004,-0.0021 0.008,-0.0041 0.006,-0.0041 0.0124,-0.0083 0.004,-0.0021 0.008,-0.0062 0.004,-0.0041 0.0103,-0.0083 0.004,-0.0021 0.008,-0.0041 0.004,-0.0041 0.0103,-0.0083 0.004,-0.0041 0.0207,-0.01654 0.0165,-0.01654 0.0165,-0.01654 0.004,-0.0041 0.008,-0.0083 0.004,-0.0041 0.0103,-0.01033 0.004,-0.0041 0.008,-0.0083 0.004,-0.0041 0.0103,-0.01033 0.006,-0.0041 0.0186,-0.01654 0.004,-0.0041 0.008,-0.0083 0.004,-0.0041 0.0103,-0.01034 0.004,-0.0041 0.008,-0.0083 0.004,-0.0062 0.0103,-0.0124 0.0248,-0.03307 0.0165,-0.02067 0.0145,-0.01447 0.0186,-0.02274 0.0186,-0.02481 0.0165,-0.02274 0.004,-0.0062 0.008,-0.01033 0.004,-0.0062 0.0103,-0.0124 0.004,-0.0062 0.006,-0.0124 0.004,-0.0062 0.0103,-0.0124 0.002,-0.0062 0.006,-0.0124 0.006,-0.0083 0.0103,-0.01447 0.0124,-0.01654 0.0165,-0.02481 0.004,-0.0062 0.006,-0.0124 0.004,-0.0083 0.0103,-0.01447 0.004,-0.0062 0.006,-0.0124 0.004,-0.0083 0.0103,-0.01447 0.004,-0.01034 0.0124,-0.02687 0.004,-0.0062 0.006,-0.01447 0.004,-0.0083 0.0103,-0.01654 0.004,-0.0062 0.006,-0.0124 0.004,-0.0083 0.0103,-0.01654 0.002,-0.0062 0.004,-0.01447 0.004,-0.0083 0.008,-0.01654 0.006,-0.01034 0.0145,-0.03101 0.0207,-0.05168 0.0145,-0.03307 0.002,-0.0062 0.004,-0.01447 0.004,-0.01034 0.008,-0.0186 0.002,-0.0083 0.004,-0.01654 0.004,-0.0083 0.008,-0.0186 0.006,-0.0186 0.0103,-0.03307 0.002,-0.0083 0.004,-0.01654 0.004,-0.0083 0.008,-0.0186 -0.008,0.02067 0.0103,-0.03514 0.004,-0.01033 0.0124,-0.03514 0,-0.0083 0.002,-0.01654 0.004,-0.01033 0.006,-0.02067 0.002,-0.0083 0.004,-0.01654 0.002,-0.01033 0.006,-0.02067 0,-0.0062 0.002,-0.01447 0.004,-0.01033 0.006,-0.02067 0.002,-0.01447 0.006,-0.03927 0,-0.0083 0.002,-0.01654 0.004,-0.01033 0.006,-0.02067 0,-0.0083 0.002,-0.01654 0.002,-0.01033 0.004,-0.02067 0.002,-0.01447 0.006,-0.03927 0,-0.0083 0.002,-0.0186 0.004,-0.01033 0.006,-0.02067 0,-0.01447 0.004,-0.03927 0,-0.0083 0,-0.01654 0.002,-0.01034 0.004,-0.02274 0.004,-0.02481 0.004,-0.03927 0.002,-0.01447 0.002,-0.03927 0.002,-0.01447 0.002,-0.04134 0.002,-0.01447 0.002,-0.03927 0,-0.01033 0,-0.0186 0.002,-0.01033 0.004,-0.02274 0,-0.0083 0,-0.01654 0.002,-0.01033 0.002,-0.02274 0,-0.0083 0,-0.0186 0,-0.01034 0,-0.02067 0,-0.01034 0,-0.0186 0,-0.01033 0,-0.02067 0,-0.01034 -0.002,-0.0186 0,-0.01033 0,-0.02274 0,-0.0083 0,-0.0186 0,-0.01034 0,-0.02067 0,-0.0124 -0.004,-0.04134 0,-0.0248 -0.002,-0.03721 0,-0.01447 -0.004,-0.04341 0,-0.02481 -0.002,-0.03721 0,-0.01447 -0.004,-0.03927 -0.002,-0.0083 -0.004,-0.0186 0,-0.01034 0,-0.02067 -0.004,-0.02481 -0.008,-0.03927 -0.002,-0.0083 -0.004,-0.01654 -0.002,-0.01034 -0.002,-0.02067 -0.002,-0.01447 -0.006,-0.03927 -0.002,-0.01447 -0.006,-0.03927 -0.008,-0.02481 -0.0103,-0.03721 -0.004,-0.0248 -0.006,-0.03514 -0.004,-0.0083 -0.006,-0.01654 -0.002,-0.01033 -0.004,-0.02067 -0.002,-0.0083 -0.006,-0.01654 -0.004,-0.01033 -0.004,-0.02067 -0.0186,-0.05581 -0.0103,-0.03514 -0.004,-0.01447 -0.0103,-0.03514 -0.004,-0.0062 -0.008,-0.01447 -0.002,-0.01034 -0.004,-0.0186 -0.002,-0.0062 -0.0124,-0.03514 -0.008,-0.02067 -0.0124,-0.03307 -0.004,-0.0062 -0.008,-0.01447 -0.002,-0.01033 -0.004,-0.0186 -0.004,-0.0062 -0.008,-0.01447 -0.004,-0.0083 -0.006,-0.01654 -0.008,-0.02067 -0.0145,-0.03101 -0.008,-0.02067 -0.0124,-0.02894 -0.008,-0.02067 -0.0145,-0.03101 -0.004,-0.0062 -0.008,-0.0124 -0.004,-0.0083 -0.006,-0.01447 -0.0124,-0.02067 -0.0165,-0.02894 -0.0186,-0.02894 -0.0165,-0.02687 -0.006,-0.0062 -0.0103,-0.0124 -0.002,-0.0083 -0.006,-0.01447 -0.004,-0.0083 -0.0165,-0.0248 -0.004,-0.0062 -0.008,-0.0124 -0.004,-0.0062 -0.006,-0.0124 -0.0103,-0.0186 -0.0351,-0.04754 -0.004,-0.0041 -0.0331,-0.04548 -0.0248,-0.02894 -0.0372,-0.04134 -0.0124,-0.01447 -0.0372,-0.03927 -0.0165,-0.0186 -0.0351,-0.03514 -0.0145,-0.01034 -0.0393,-0.03101 -0.0207,-0.01654 -0.0393,-0.03101 -0.0475,-0.03101 -0.0393,-0.02687 -0.0413,-0.02481 -0.0372,-0.02274 0,0 -0.0372,-0.0186 -0.008,-0.0041 -0.0393,-0.01447 -0.0269,-0.01034 -0.0393,-0.01447 -0.0103,-0.0021 -0.0186,-0.0041 -0.008,-0.0041 -0.0165,-0.0083 -0.0372,-0.0062 -0.0372,-0.0062 -0.0124,-0.0021 -0.0372,-0.0021 -0.006,0 -0.0103,0 -0.004,0 -0.008,0 h -0.68213 v 3.067511 0 z"
             style="font-size:4.23333px;fill:#00ff00;stroke-width:0.264583"
             id="path1067" />
          <path
             d="m 116.23242,48.353081 h 0.0393 q 0.26459,0.0186 0.48783,0.119889 0.42788,0.200504 0.60565,0.659391 0.17776,0.458886 -0.004,0.895035 -0.14676,0.345198 -0.43408,0.541568 -0.28732,0.194304 -0.65526,0.217041 l -0.0393,0.0021 h -1.00459 v 1.506884 q -0.0372,0.291455 -0.29352,0.291455 -0.25632,0 -0.29146,-0.291455 v -3.652487 q 0.031,-0.256315 0.27286,-0.289388 h 0.0186 z m 0,0.582909 h -1.00459 v 1.267105 h 1.00459 q 0.23564,0 0.41548,-0.157096 0.1819,-0.157096 0.21291,-0.39274 0.0372,-0.285254 -0.15297,-0.500228 -0.19017,-0.217041 -0.47542,-0.217041 z"
             style="font-size:4.23333px;fill:#00ff00;stroke-width:0.264583"
             id="path1069" />
          <path
             d="m 120.78821,49.570576 q 0.19017,0.572575 0.14263,1.188557 -0.0455,0.615983 -0.33693,1.124479 -0.18397,0.316259 -0.5023,0.537434 -0.31832,0.221175 -0.7028,0.155029 -0.62631,-0.109554 -0.95911,-0.653189 -0.3328,-0.543636 -0.38241,-1.209228 -0.0475,-0.667659 0.17984,-1.300178 0.22944,-0.632519 0.72967,-0.919839 0.24391,-0.14056 0.51056,-0.14056 0.5085,0 0.83096,0.384472 0.32246,0.382405 0.48989,0.833023 z m -1.30431,-0.630451 q -0.38034,0 -0.57671,0.409277 -0.1943,0.409277 -0.24598,0.698664 -0.0393,0.21084 -0.0289,0.510563 0.0103,0.299723 0.0868,0.593245 0.0765,0.291455 0.22944,0.527099 0.15296,0.233577 0.40101,0.310058 0.28939,0.09095 0.49816,-0.113688 0.21084,-0.206705 0.31833,-0.438215 0.10955,-0.237712 0.14882,-0.624251 0.0413,-0.38654 -0.0186,-0.771012 -0.0579,-0.386539 -0.22944,-0.694531 -0.17157,-0.310058 -0.48783,-0.394807 -0.0413,-0.0124 -0.0951,-0.0124 z"
             style="font-size:4.23333px;fill:#00ff00;stroke-width:0.264583"
             id="path1071" />
          <path
             d="m 123.82678,48.588725 0.72347,2.472199 0.48369,-2.472199 q 0.0868,-0.279052 0.339,-0.227376 0.25425,0.05168 0.23358,0.33693 l -0.7152,3.65042 q -0.0661,0.229443 -0.27079,0.237712 -0.20257,0.0083 -0.29352,-0.208773 l -0.78135,-2.666502 -0.77514,2.666502 q -0.0951,0.223242 -0.29146,0.208773 -0.19637,-0.01447 -0.27698,-0.237712 l -0.7152,-3.65042 q 0,-0.295589 0.23564,-0.338997 0.23564,-0.04548 0.34313,0.229443 l 0.47749,2.476333 0.72347,-2.476333 q 0.0889,-0.204638 0.28319,-0.21084 0.19637,-0.0062 0.27698,0.21084 z"
             style="font-size:4.23333px;fill:#00ff00;stroke-width:0.264583"
             id="path1073" />
          <path
             d="m 128.30196,48.929789 h -1.71359 v 1.13068 h 1.30638 q 0.29352,0.04341 0.29145,0.295589 0,0.250113 -0.29145,0.291454 h -1.30638 v 1.358056 h 1.71359 q 0.29145,0.04341 0.29145,0.291455 0,0.248046 -0.29145,0.289388 h -2.00091 q -0.25838,-0.03307 -0.29352,-0.293522 v -3.65042 q 0.0393,-0.272852 0.29352,-0.289388 h 2.00091 q 0.29145,0.02274 0.28939,0.291455 0,0.26665 -0.28939,0.285253 z"
             style="font-size:4.23333px;fill:#00ff00;stroke-width:0.264583"
             id="path1075" />
          <path
             d="m 131.77874,52.137859 q 0.1323,0.233578 -0.0744,0.392741 -0.0992,0.07028 -0.22944,0.04754 -0.12816,-0.02274 -0.18811,-0.128157 l -1.01905,-1.610236 h -0.51677 v 1.455207 q 0,0.179834 -0.1633,0.260449 -0.16329,0.07855 -0.30592,-0.03101 -0.11369,-0.08475 -0.11369,-0.229443 v -3.652487 q 0,-0.11989 0.0827,-0.204639 0.0847,-0.08475 0.20671,-0.08475 h 1.28364 q 0.46302,0 0.80409,0.295589 0.34106,0.293522 0.42374,0.746207 0.0868,0.485758 -0.2067,0.909504 -0.29146,0.42168 -0.77515,0.51263 l -0.0393,0.0062 z m -1.03766,-1.878953 q 0.21084,0 0.38861,-0.128157 0.17983,-0.128158 0.24184,-0.334863 0.0972,-0.318327 -0.0889,-0.574642 -0.18603,-0.258382 -0.51263,-0.285254 h -1.01906 v 1.322916 z"
             style="font-size:4.23333px;fill:#00ff00;stroke-width:0.264583"
             id="path1077" />
        </g>
        <path
           id="path3035"
           style="fill:#ff0000;stroke:none;stroke-width:0.0671917"
           d="m 81.675171,75.141983 a 8,8 0 0 1 -7.772265,7.996758 8,8 0 0 1 -8.214769,-7.541473 8,8 0 0 1 7.304568,-8.426122 8,8 0 0 1 8.630645,7.061743" />
        <path
           id="path3035-2"
           style="fill:#ff0000;stroke:none;stroke-width:0.0671915"
           d="m 154.35739,75.436966 a 8,8 0 0 1 -7.77226,7.996758 8,8 0 0 1 -8.21477,-7.541473 8,8 0 0 1 7.30457,-8.426122 8,8 0 0 1 8.63064,7.061743" />
        <g
           aria-label="connect"
           id="text2370-6"
           style="font-size:10.5833px;line-height:1.25;font-family:'MS 33558';-inkscape-font-specification:'MS 33558, ';letter-spacing:0px;word-spacing:0px;fill:#00ff00;stroke-width:0.264583">
          <path
             d="m 64.976306,61.45103 -0.0186,0.02687 q -0.0062,0.0083 -0.01033,0.01447 -0.0041,0.0062 -0.0083,0.0124 -0.283187,0.382406 -0.74414,0.545703 -0.458887,0.16123 -0.905371,-0.05994 -0.518831,-0.258382 -0.762743,-0.876432 -0.241846,-0.61805 -0.208773,-1.283642 0.03514,-0.667658 0.3514,-1.225763 0.318326,-0.558105 0.921906,-0.698665 0.347266,-0.08062 0.692464,0.06821 0.345198,0.146761 0.566373,0.413411 0.0021,0 0.01034,0.01447 0.09508,0.124023 0.03927,0.272851 -0.05581,0.146761 -0.204639,0.183968 -0.159163,0.04134 -0.293522,-0.09508 -0.276985,-0.322461 -0.5333,-0.310059 -0.256315,0.0124 -0.458886,0.21084 -0.202572,0.198437 -0.33693,0.508496 -0.134359,0.310058 -0.165365,0.580842 -0.03721,0.301791 0.0062,0.607715 0.04547,0.303857 0.188102,0.572574 0.248047,0.471289 0.624251,0.591178 0.378271,0.117822 0.737939,-0.361735 0.01654,-0.02067 0.03927,-0.05374 0.194303,-0.214974 0.409277,-0.04341 0.217041,0.169498 0.06408,0.384472 z"
             style="font-size:4.23333px;fill:#00ff00;stroke-width:0.264583"
             id="path1082" />
          <path
             d="m 68.302198,59.096654 q 0.190169,0.572574 0.142627,1.188557 -0.04547,0.615982 -0.33693,1.124478 -0.183968,0.316259 -0.502295,0.537434 -0.318326,0.221175 -0.702798,0.15503 -0.626318,-0.109554 -0.959114,-0.65319 -0.332796,-0.543636 -0.382405,-1.209228 -0.04754,-0.667658 0.179833,-1.300177 0.229444,-0.632519 0.729671,-0.91984 0.243912,-0.14056 0.510563,-0.14056 0.508495,0 0.830956,0.384472 0.322461,0.382406 0.489892,0.833024 z m -1.304312,-0.630452 q -0.380338,0 -0.576708,0.409277 -0.194304,0.409277 -0.24598,0.698665 -0.03927,0.210839 -0.02894,0.510562 0.01033,0.299723 0.08682,0.593245 0.07648,0.291455 0.229443,0.527099 0.152962,0.233578 0.401008,0.310059 0.289388,0.09095 0.498161,-0.113688 0.21084,-0.206706 0.318326,-0.438216 0.109554,-0.237711 0.148828,-0.624251 0.04134,-0.386539 -0.0186,-0.771012 -0.05788,-0.386539 -0.229443,-0.69453 -0.171566,-0.310059 -0.487825,-0.394808 -0.04134,-0.0124 -0.09509,-0.0124 z"
             style="font-size:4.23333px;fill:#00ff00;stroke-width:0.264583"
             id="path1084" />
          <path
             d="m 71.855467,61.827234 q 0,0.217041 -0.21084,0.276986 -0.208772,0.05788 -0.324528,-0.124024 l -1.736326,-2.784324 v 2.631362 q -0.04547,0.289388 -0.293522,0.289388 -0.24598,0 -0.289388,-0.289388 v -3.65042 q 0.03101,-0.214974 0.219108,-0.283187 0.190169,-0.06821 0.316259,0.128158 l 1.736327,2.788458 v -2.633429 q 0.03927,-0.295589 0.299723,-0.291455 0.262516,0.0021 0.283187,0.291455 z"
             style="font-size:4.23333px;fill:#00ff00;stroke-width:0.264583"
             id="path1086" />
          <path
             d="m 75.303315,61.827234 q 0,0.217041 -0.21084,0.276986 -0.208772,0.05788 -0.324527,-0.124024 l -1.736327,-2.784324 v 2.631362 q -0.04547,0.289388 -0.293522,0.289388 -0.245979,0 -0.289388,-0.289388 v -3.65042 q 0.03101,-0.214974 0.219108,-0.283187 0.190169,-0.06821 0.31626,0.128158 l 1.736326,2.788458 v -2.633429 q 0.03928,-0.295589 0.299724,-0.291455 0.262516,0.0021 0.283186,0.291455 z"
             style="font-size:4.23333px;fill:#00ff00;stroke-width:0.264583"
             id="path1088" />
          <path
             d="m 78.190991,58.455867 h -1.713589 v 1.130679 h 1.306379 q 0.293522,0.04341 0.291455,0.295589 0,0.250114 -0.291455,0.291455 h -1.306379 v 1.358055 h 1.713589 q 0.291455,0.04341 0.291455,0.291455 0,0.248047 -0.291455,0.289388 H 76.190082 Q 75.9317,62.079415 75.89656,61.818966 v -3.65042 q 0.03927,-0.272852 0.293522,-0.289388 h 2.000909 q 0.291455,0.02274 0.289388,0.291455 0,0.26665 -0.289388,0.285254 z"
             style="font-size:4.23333px;fill:#00ff00;stroke-width:0.264583"
             id="path1090" />
          <path
             d="m 81.719454,61.45103 -0.0186,0.02687 q -0.0062,0.0083 -0.01033,0.01447 -0.0041,0.0062 -0.0083,0.0124 -0.283186,0.382406 -0.74414,0.545703 -0.458886,0.16123 -0.90537,-0.05994 -0.518831,-0.258382 -0.762743,-0.876432 -0.241846,-0.61805 -0.208773,-1.283642 0.03514,-0.667658 0.351399,-1.225763 0.318327,-0.558105 0.921907,-0.698665 0.347266,-0.08062 0.692464,0.06821 0.345198,0.146761 0.566373,0.413411 0.0021,0 0.01034,0.01447 0.09508,0.124023 0.03927,0.272851 -0.05581,0.146761 -0.204638,0.183968 -0.159163,0.04134 -0.293522,-0.09508 -0.276985,-0.322461 -0.5333,-0.310059 -0.256315,0.0124 -0.458887,0.21084 -0.202571,0.198437 -0.33693,0.508496 -0.134358,0.310058 -0.165364,0.580842 -0.03721,0.301791 0.0062,0.607715 0.04548,0.303857 0.188102,0.572574 0.248047,0.471289 0.624251,0.591178 0.378271,0.117822 0.737939,-0.361735 0.01654,-0.02067 0.03927,-0.05374 0.194303,-0.214974 0.409277,-0.04341 0.217041,0.169498 0.06408,0.384472 z"
             style="font-size:4.23333px;fill:#00ff00;stroke-width:0.264583"
             id="path1092" />
          <path
             d="m 83.344161,61.8231 v -3.361032 h -0.75861 q -0.289387,-0.02274 -0.289387,-0.289388 0.0021,-0.268717 0.289387,-0.293522 h 2.098062 q 0.285253,0.02274 0.285253,0.293522 0.0021,0.268717 -0.285253,0.289388 H 83.92707 V 61.8231 q -0.04754,0.293522 -0.305924,0.289388 -0.256315,-0.0041 -0.276985,-0.289388 z"
             style="font-size:4.23333px;fill:#00ff00;stroke-width:0.264583"
             id="path1094" />
        </g>
        <g
           aria-label="disconnect"
           id="text2370-6-3"
           style="font-size:10.5833px;line-height:1.25;font-family:'MS 33558';-inkscape-font-specification:'MS 33558, ';letter-spacing:0px;word-spacing:0px;fill:#00ff00;stroke-width:0.264583">
          <path
             d="m 131.43367,57.346642 h 0.97359 q 0.72553,0 1.08727,0.661457 0.36173,0.661458 0.36173,1.455207 0,0.79375 -0.3638,1.455208 -0.36173,0.661457 -1.0852,0.661457 h -0.97359 0.004 -0.004 q -0.0682,-0.01033 -0.0744,-0.0124 -0.21497,-0.05168 -0.21291,-0.28112 h -0.002 l 0.002,-3.65042 q -0.002,-0.0062 -0.002,-0.01654 0.006,-0.113688 0.0889,-0.192236 0.0847,-0.08061 0.20257,-0.08061 z m 0.97359,3.65042 q 0.004,0 0.008,0 0.004,0 0.0103,0 0.004,0 0.006,0 0.004,-0.0021 0.0103,-0.0021 0.004,0 0.008,0 0.006,-0.0021 0.0124,-0.0021 0.004,0 0.008,0 0.004,-0.0021 0.0103,-0.0021 0.004,0 0.008,0 0.004,-0.0021 0.0103,-0.0021 0.008,-0.0041 0.0165,-0.0041 0.004,0 0.008,-0.0021 0.004,-0.0041 0.0103,-0.0062 0.004,0 0.008,0 0.006,-0.0021 0.0124,-0.0041 0.004,0 0.008,-0.0021 0.004,-0.0021 0.0103,-0.0041 0.0124,-0.0041 0.0186,-0.0083 0.0372,-0.0124 0.0207,-0.0083 0.004,0 0.008,-0.0021 0.004,-0.0041 0.0103,-0.0062 0.0186,-0.0124 0.0165,-0.01033 0.0207,-0.01034 0.0207,-0.01034 0.004,-0.0021 0.008,-0.0041 0.004,-0.0041 0.0103,-0.0083 0.0186,-0.0124 0.0186,-0.0124 0.004,-0.0021 0.008,-0.0041 0.006,-0.0041 0.0124,-0.0083 0.004,-0.0021 0.008,-0.0062 0.004,-0.0041 0.0103,-0.0083 0.004,-0.0021 0.008,-0.0041 0.004,-0.0041 0.0103,-0.0083 0.004,-0.0041 0.0207,-0.01654 0.0165,-0.01654 0.0165,-0.01654 0.004,-0.0041 0.008,-0.0083 0.004,-0.0041 0.0103,-0.01034 0.004,-0.0041 0.008,-0.0083 0.004,-0.0041 0.0103,-0.01033 0.006,-0.0041 0.0186,-0.01654 0.004,-0.0041 0.008,-0.0083 0.004,-0.0041 0.0103,-0.01034 0.004,-0.0041 0.008,-0.0083 0.004,-0.0062 0.0103,-0.0124 0.0248,-0.03307 0.0165,-0.02067 0.0145,-0.01447 0.0186,-0.02274 0.0186,-0.0248 0.0165,-0.02274 0.004,-0.0062 0.008,-0.01034 0.004,-0.0062 0.0103,-0.0124 0.004,-0.0062 0.006,-0.0124 0.004,-0.0062 0.0103,-0.0124 0.002,-0.0062 0.006,-0.0124 0.006,-0.0083 0.0103,-0.01447 0.0124,-0.01654 0.0165,-0.02481 0.004,-0.0062 0.006,-0.0124 0.004,-0.0083 0.0103,-0.01447 0.004,-0.0062 0.006,-0.0124 0.004,-0.0083 0.0103,-0.01447 0.004,-0.01034 0.0124,-0.02687 0.004,-0.0062 0.006,-0.01447 0.004,-0.0083 0.0103,-0.01654 0.004,-0.0062 0.006,-0.0124 0.004,-0.0083 0.0103,-0.01654 0.002,-0.0062 0.004,-0.01447 0.004,-0.0083 0.008,-0.01654 0.006,-0.01033 0.0145,-0.03101 0.0207,-0.05168 0.0145,-0.03307 0.002,-0.0062 0.004,-0.01447 0.004,-0.01034 0.008,-0.0186 0.002,-0.0083 0.004,-0.01654 0.004,-0.0083 0.008,-0.0186 0.006,-0.0186 0.0103,-0.03307 0.002,-0.0083 0.004,-0.01654 0.004,-0.0083 0.008,-0.0186 -0.008,0.02067 0.0103,-0.03514 0.004,-0.01033 0.0124,-0.03514 0,-0.0083 0.002,-0.01654 0.004,-0.01034 0.006,-0.02067 0.002,-0.0083 0.004,-0.01654 0.002,-0.01034 0.006,-0.02067 0,-0.0062 0.002,-0.01447 0.004,-0.01034 0.006,-0.02067 0.002,-0.01447 0.006,-0.03927 0,-0.0083 0.002,-0.01654 0.004,-0.01034 0.006,-0.02067 0,-0.0083 0.002,-0.01654 0.002,-0.01034 0.004,-0.02067 0.002,-0.01447 0.006,-0.03927 0,-0.0083 0.002,-0.0186 0.004,-0.01034 0.006,-0.02067 0,-0.01447 0.004,-0.03927 0,-0.0083 0,-0.01654 0.002,-0.01034 0.004,-0.02274 0.004,-0.02481 0.004,-0.03927 0.002,-0.01447 0.002,-0.03927 0.002,-0.01447 0.002,-0.04134 0.002,-0.01447 0.002,-0.03927 0,-0.01034 0,-0.0186 0.002,-0.01033 0.004,-0.02274 0,-0.0083 0,-0.01654 0.002,-0.01033 0.002,-0.02274 0,-0.0083 0,-0.0186 0,-0.01034 0,-0.02067 0,-0.01034 0,-0.0186 0,-0.01033 0,-0.02067 0,-0.01033 -0.002,-0.0186 0,-0.01033 0,-0.02274 0,-0.0083 0,-0.0186 0,-0.01034 0,-0.02067 0,-0.0124 -0.004,-0.04134 0,-0.02481 -0.002,-0.03721 0,-0.01447 -0.004,-0.04341 0,-0.02481 -0.002,-0.03721 0,-0.01447 -0.004,-0.03927 -0.002,-0.0083 -0.004,-0.0186 0,-0.01033 0,-0.02067 -0.004,-0.02481 -0.008,-0.03927 -0.002,-0.0083 -0.004,-0.01654 -0.002,-0.01033 -0.002,-0.02067 -0.002,-0.01447 -0.006,-0.03927 -0.002,-0.01447 -0.006,-0.03927 -0.008,-0.02481 -0.0103,-0.03721 -0.004,-0.0248 -0.006,-0.03514 -0.004,-0.0083 -0.006,-0.01654 -0.002,-0.01033 -0.004,-0.02067 -0.002,-0.0083 -0.006,-0.01654 -0.004,-0.01033 -0.004,-0.02067 -0.0186,-0.05581 -0.0103,-0.03514 -0.004,-0.01447 -0.0103,-0.03514 -0.004,-0.0062 -0.008,-0.01447 -0.002,-0.01033 -0.004,-0.0186 -0.002,-0.0062 -0.0124,-0.03514 -0.008,-0.02067 -0.0124,-0.03307 -0.004,-0.0062 -0.008,-0.01447 -0.002,-0.01034 -0.004,-0.0186 -0.004,-0.0062 -0.008,-0.01447 -0.004,-0.0083 -0.006,-0.01654 -0.008,-0.02067 -0.0145,-0.03101 -0.008,-0.02067 -0.0124,-0.02894 -0.008,-0.02067 -0.0145,-0.03101 -0.004,-0.0062 -0.008,-0.0124 -0.004,-0.0083 -0.006,-0.01447 -0.0124,-0.02067 -0.0165,-0.02894 -0.0186,-0.02894 -0.0165,-0.02687 -0.006,-0.0062 -0.0103,-0.0124 -0.002,-0.0083 -0.006,-0.01447 -0.004,-0.0083 -0.0165,-0.02481 -0.004,-0.0062 -0.008,-0.0124 -0.004,-0.0062 -0.006,-0.0124 -0.0103,-0.0186 -0.0351,-0.04754 -0.004,-0.0041 -0.0331,-0.04547 -0.0248,-0.02894 -0.0372,-0.04134 -0.0124,-0.01447 -0.0372,-0.03927 -0.0165,-0.0186 -0.0351,-0.03514 -0.0145,-0.01034 -0.0393,-0.03101 -0.0207,-0.01654 -0.0393,-0.03101 -0.0475,-0.03101 -0.0393,-0.02687 -0.0413,-0.02481 -0.0372,-0.02274 0,0 -0.0372,-0.0186 -0.008,-0.0041 -0.0393,-0.01447 -0.0269,-0.01034 -0.0393,-0.01447 -0.0103,-0.0021 -0.0186,-0.0041 -0.008,-0.0041 -0.0165,-0.0083 -0.0372,-0.0062 -0.0372,-0.0062 -0.0124,-0.0021 -0.0372,-0.0021 -0.006,0 -0.0103,0 -0.004,0 -0.008,0 h -0.68213 v 3.067511 0 z"
             style="font-size:4.23333px;fill:#00ff00;stroke-width:0.264583"
             id="path1097" />
          <path
             d="m 134.97041,61.294718 q -0.0455,0.291454 -0.29559,0.289387 -0.24805,0 -0.29146,-0.289387 v -3.654555 q 0.0434,-0.291454 0.29146,-0.291454 0.25011,-0.0021 0.29559,0.291454 z"
             style="font-size:4.23333px;fill:#00ff00;stroke-width:0.264583"
             id="path1099" />
          <path
             d="m 137.63691,59.326881 0.0331,0.01447 0.0372,0.0186 0.0331,0.0186 q 0.0145,0.01033 0.031,0.02067 0.0186,0.0083 0.0351,0.0186 0.40927,0.268717 0.50643,0.74414 0.0372,0.186035 0.0165,0.382405 -0.0331,0.28112 -0.19844,0.520898 -0.16329,0.237712 -0.41134,0.367936 -0.26665,0.14056 -0.5519,0.14056 -0.47956,0 -0.91571,-0.121956 -0.43615,-0.124023 -0.62218,-0.659391 -0.0248,-0.06821 -0.0372,-0.14056 -0.0124,-0.07235 -0.0289,-0.144694 -0.031,-0.148828 0.0724,-0.262516 0.10542,-0.113688 0.26045,-0.08682 0.1633,0.03307 0.22737,0.202572 l 0.006,0.0186 q 0.0992,0.448551 0.34519,0.535367 0.24805,0.08682 0.68833,0.07855 0.40515,0 0.55604,-0.380339 0.0661,-0.169498 0.0207,-0.351399 -0.0455,-0.183968 -0.17983,-0.305924 -0.0599,-0.05168 -0.1571,-0.09715 l -0.95705,-0.419612 -0.031,-0.01654 q -0.46922,-0.248046 -0.58291,-0.704866 -0.13849,-0.529166 0.19224,-0.948778 0.33279,-0.421679 0.87229,-0.421679 l 0.22738,0.0062 q 0.11162,0.02067 0.21497,0.04134 0.10336,0.0186 0.20878,0.06615 0.26044,0.121956 0.39894,0.334863 0.13849,0.212906 0.25011,0.460953 0.0103,0.02274 0.0186,0.05374 0.0227,0.101286 -0.0207,0.183968 -0.0248,0.05168 -0.0517,0.07855 -0.0269,0.02687 -0.0434,0.03721 -0.10749,0.07648 -0.23565,0.04548 -0.12815,-0.02894 -0.19637,-0.165365 -0.0537,-0.119889 -0.11575,-0.243912 -0.0599,-0.126091 -0.1695,-0.208773 -0.0455,-0.03307 -0.0889,-0.04754 -0.0413,-0.01654 -0.093,-0.03514 l -0.13436,-0.02274 -0.19017,-0.0062 q -0.27698,0.0041 -0.42374,0.239779 -0.0992,0.150895 -0.0744,0.33693 0.0289,0.229443 0.21498,0.355533 0.008,0.0062 0.0186,0.01447 0.0103,0.0062 0.0227,0.0124 l 0.0227,0.01033 0.0248,0.01033 z"
             style="font-size:4.23333px;fill:#00ff00;stroke-width:0.264583"
             id="path1101" />
          <path
             d="m 141.51057,60.918514 -0.0186,0.02687 q -0.006,0.0083 -0.0103,0.01447 -0.004,0.0062 -0.008,0.0124 -0.28318,0.382405 -0.74414,0.545703 -0.45888,0.16123 -0.90537,-0.05994 -0.51883,-0.258382 -0.76274,-0.876432 -0.24185,-0.618049 -0.20877,-1.283641 0.0351,-0.667659 0.3514,-1.225764 0.31832,-0.558105 0.9219,-0.698665 0.34727,-0.08062 0.69247,0.06821 0.3452,0.146761 0.56637,0.413411 0.002,0 0.0103,0.01447 0.0951,0.124023 0.0393,0.272851 -0.0558,0.146761 -0.20464,0.183968 -0.15916,0.04134 -0.29352,-0.09508 -0.27699,-0.32246 -0.5333,-0.310058 -0.25632,0.0124 -0.45889,0.21084 -0.20257,0.198437 -0.33693,0.508495 -0.13436,0.310059 -0.16536,0.580843 -0.0372,0.30179 0.006,0.607714 0.0455,0.303857 0.1881,0.572575 0.24805,0.471288 0.62425,0.591178 0.37827,0.117822 0.73794,-0.361735 0.0165,-0.02067 0.0393,-0.05374 0.1943,-0.214973 0.40927,-0.04341 0.21704,0.169499 0.0641,0.384473 z"
             style="font-size:4.23333px;fill:#00ff00;stroke-width:0.264583"
             id="path1103" />
          <path
             d="m 144.83646,58.564137 q 0.19017,0.572575 0.14263,1.188557 -0.0455,0.615983 -0.33693,1.124478 -0.18397,0.31626 -0.50229,0.537435 -0.31833,0.221175 -0.7028,0.155029 -0.62632,-0.109554 -0.95912,-0.65319 -0.33279,-0.543635 -0.3824,-1.209227 -0.0475,-0.667659 0.17983,-1.300178 0.22944,-0.632519 0.72967,-0.91984 0.24391,-0.140559 0.51056,-0.140559 0.5085,0 0.83096,0.384472 0.32246,0.382405 0.48989,0.833023 z m -1.30431,-0.630452 q -0.38034,0 -0.57671,0.409277 -0.1943,0.409277 -0.24598,0.698665 -0.0393,0.21084 -0.0289,0.510563 0.0103,0.299723 0.0868,0.593245 0.0765,0.291455 0.22944,0.527099 0.15297,0.233577 0.40101,0.310058 0.28939,0.09095 0.49816,-0.113688 0.21084,-0.206705 0.31833,-0.438216 0.10955,-0.237711 0.14883,-0.62425 0.0413,-0.38654 -0.0186,-0.771012 -0.0579,-0.386539 -0.22944,-0.694531 -0.17156,-0.310058 -0.48782,-0.394807 -0.0413,-0.0124 -0.0951,-0.0124 z"
             style="font-size:4.23333px;fill:#00ff00;stroke-width:0.264583"
             id="path1105" />
          <path
             d="m 148.38973,61.294718 q 0,0.21704 -0.21084,0.276985 -0.20877,0.05788 -0.32453,-0.124023 l -1.73632,-2.784324 v 2.631362 q -0.0455,0.289387 -0.29352,0.289387 -0.24598,0 -0.28939,-0.289387 v -3.65042 q 0.031,-0.214974 0.21911,-0.283187 0.19016,-0.06821 0.31626,0.128157 l 1.73632,2.788458 v -2.633428 q 0.0393,-0.295589 0.29972,-0.291455 0.26252,0.0021 0.28319,0.291455 z"
             style="font-size:4.23333px;fill:#00ff00;stroke-width:0.264583"
             id="path1107" />
          <path
             d="m 151.83758,61.294718 q 0,0.21704 -0.21084,0.276985 -0.20877,0.05788 -0.32453,-0.124023 l -1.73632,-2.784324 v 2.631362 q -0.0455,0.289387 -0.29353,0.289387 -0.24597,0 -0.28938,-0.289387 v -3.65042 q 0.031,-0.214974 0.2191,-0.283187 0.19017,-0.06821 0.31626,0.128157 l 1.73633,2.788458 v -2.633428 q 0.0393,-0.295589 0.29972,-0.291455 0.26252,0.0021 0.28319,0.291455 z"
             style="font-size:4.23333px;fill:#00ff00;stroke-width:0.264583"
             id="path1109" />
          <path
             d="m 154.72526,57.92335 h -1.71359 v 1.130679 h 1.30638 q 0.29352,0.04341 0.29145,0.295589 0,0.250114 -0.29145,0.291455 h -1.30638 v 1.358056 h 1.71359 q 0.29145,0.04341 0.29145,0.291455 0,0.248046 -0.29145,0.289387 h -2.00091 q -0.25839,-0.03307 -0.29353,-0.293522 v -3.65042 q 0.0393,-0.272851 0.29353,-0.289387 h 2.00091 q 0.29145,0.02274 0.28938,0.291454 0,0.266651 -0.28938,0.285254 z"
             style="font-size:4.23333px;fill:#00ff00;stroke-width:0.264583"
             id="path1111" />
          <path
             d="m 158.25372,60.918514 -0.0186,0.02687 q -0.006,0.0083 -0.0103,0.01447 -0.004,0.0062 -0.008,0.0124 -0.28318,0.382405 -0.74414,0.545703 -0.45888,0.16123 -0.90537,-0.05994 -0.51883,-0.258382 -0.76274,-0.876432 -0.24185,-0.618049 -0.20877,-1.283641 0.0351,-0.667659 0.3514,-1.225764 0.31832,-0.558105 0.9219,-0.698665 0.34727,-0.08062 0.69247,0.06821 0.34519,0.146761 0.56637,0.413411 0.002,0 0.0103,0.01447 0.0951,0.124023 0.0393,0.272851 -0.0558,0.146761 -0.20464,0.183968 -0.15916,0.04134 -0.29352,-0.09508 -0.27699,-0.32246 -0.5333,-0.310058 -0.25632,0.0124 -0.45889,0.21084 -0.20257,0.198437 -0.33693,0.508495 -0.13436,0.310059 -0.16536,0.580843 -0.0372,0.30179 0.006,0.607714 0.0455,0.303857 0.1881,0.572575 0.24805,0.471288 0.62425,0.591178 0.37827,0.117822 0.73794,-0.361735 0.0165,-0.02067 0.0393,-0.05374 0.19431,-0.214973 0.40928,-0.04341 0.21704,0.169499 0.0641,0.384473 z"
             style="font-size:4.23333px;fill:#00ff00;stroke-width:0.264583"
             id="path1113" />
          <path
             d="m 159.87843,61.290584 v -3.361033 h -0.75861 q -0.28939,-0.02274 -0.28939,-0.289388 0.002,-0.268717 0.28939,-0.293521 h 2.09806 q 0.28525,0.02274 0.28525,0.293521 0.002,0.268718 -0.28525,0.289388 h -0.75654 v 3.361033 q -0.0476,0.293521 -0.30593,0.289387 -0.25631,-0.0041 -0.27698,-0.289387 z"
             style="font-size:4.23333px;fill:#00ff00;stroke-width:0.264583"
             id="path1115" />
        </g>
        <path
           id="rect3342"
           style="fill:#00ff00;stroke:none;stroke-width:0.0319619"
           d="m 134.69803,49.902893 h 25.36804 v 1.13153 h -25.36804 z" />
        <path
           id="rect3342-3"
           style="fill:#00ff00;stroke:none;stroke-width:0.0319619"
           d="m 60.95747,49.902893 h 25.368038 v 1.13153 H 60.95747 Z" />
        <path
           id="path3377"
           style="fill:#ff0000;stroke:none;stroke-width:0.0553847"
           d="m 158.54477,34.210403 a 3.175,3.175 0 0 1 -3.08462,3.173714 3.175,3.175 0 0 1 -3.26024,-2.993022 3.175,3.175 0 0 1 2.899,-3.344117 3.175,3.175 0 0 1 3.42529,2.802629" />
        <path
           id="path3377-5"
           style="fill:#ff0000;stroke:none;stroke-width:0.0553846"
           d="m 70.702931,34.210403 a 3.175,3.175 0 0 1 -3.084618,3.173714 3.175,3.175 0 0 1 -3.260236,-2.993022 3.175,3.175 0 0 1 2.899001,-3.344117 3.175,3.175 0 0 1 3.425287,2.802629" />
        <path
           id="path3377-7"
           style="fill:#ff0000;stroke:none;stroke-width:0.0553846"
           d="m 114.42488,139.28482 a 3.175,3.175 0 0 1 -3.08462,3.17371 3.175,3.175 0 0 1 -3.26024,-2.99302 3.175,3.175 0 0 1 2.899,-3.34412 3.175,3.175 0 0 1 3.42529,2.80263" />
        <g
           aria-label="ground air"
           id="text2370-2"
           style="font-size:10.5833px;line-height:1.25;font-family:'MS 33558';-inkscape-font-specification:'MS 33558, ';letter-spacing:0px;word-spacing:0px;fill:#00ff00;stroke-width:0.264583">
          <path
             d="m 96.734919,95.87253 -0.0186,-0.0021 q -0.252181,-0.03101 -0.252181,-0.28732 0,-0.256315 0.252181,-0.287321 l 0.0186,-0.0041 h 0.0186 0.762744 q 0.119889,0 0.204638,0.08682 0.08682,0.08475 0.08682,0.204639 v 1.047997 l -0.0248,0.05374 -0.01447,0.03307 -0.01447,0.03101 -0.01654,0.03101 -0.01654,0.03101 -0.01447,0.03101 -0.01654,0.03101 -0.0186,0.03101 q -0.401009,0.682129 -0.996321,0.667659 -0.595312,-0.01654 -1.000455,-0.67386 -0.192236,-0.312125 -0.285254,-0.781347 -0.09302,-0.471289 -0.05581,-0.961181 0.03721,-0.491959 0.227376,-0.934309 0.192236,-0.444417 0.572574,-0.704866 0.475423,-0.32246 0.926041,-0.07441 0.450618,0.24598 0.67386,0.692464 l 0.01654,0.03307 0.0124,0.02894 0.01654,0.03101 q 0.07028,0.196371 -0.05374,0.320394 -0.119889,0.117822 -0.260449,0.08888 -0.14056,-0.03101 -0.217041,-0.167431 -0.241845,-0.599446 -0.62425,-0.522965 -0.380339,0.07648 -0.570508,0.624251 -0.186035,0.529166 -0.146761,1.138947 0.03927,0.607714 0.396875,1.0604 0.24598,0.316259 0.500227,0.202571 0.254248,-0.113688 0.401009,-0.423746 l 0.02274,-0.04548 V 95.87253 Z"
             style="font-size:4.23333px;fill:#00ff00;stroke-width:0.264583"
             id="path1123" />
          <path
             d="m 101.09227,97.129299 q 0.13229,0.233578 -0.0744,0.392741 -0.0992,0.07028 -0.22945,0.04754 -0.12815,-0.02274 -0.1881,-0.128157 L 99.581254,95.831188 H 99.06449 v 1.455208 q 0,0.179833 -0.163297,0.260449 -0.163298,0.07855 -0.305924,-0.03101 -0.113689,-0.08475 -0.113689,-0.229443 v -3.652488 q 0,-0.119889 0.08268,-0.204638 0.08475,-0.08475 0.206705,-0.08475 h 1.283642 q 0.46302,0 0.80408,0.295589 0.34107,0.293521 0.42375,0.746207 0.0868,0.485758 -0.2067,0.909504 -0.29146,0.421679 -0.77515,0.51263 l -0.0393,0.0062 z m -1.03766,-1.878953 q 0.21084,0 0.38861,-0.128158 0.17983,-0.128157 0.24184,-0.334863 0.0972,-0.318326 -0.0889,-0.574641 -0.18604,-0.258382 -0.51263,-0.285254 h -1.01906 v 1.322916 z"
             style="font-size:4.23333px;fill:#00ff00;stroke-width:0.264583"
             id="path1125" />
          <path
             d="m 104.60006,94.562016 q 0.19017,0.572575 0.14263,1.188557 -0.0455,0.615983 -0.33693,1.124478 -0.18397,0.31626 -0.50229,0.537435 -0.31833,0.221175 -0.7028,0.155029 -0.62632,-0.109554 -0.95912,-0.653189 -0.33279,-0.543636 -0.3824,-1.209228 -0.0475,-0.667659 0.17983,-1.300178 0.22945,-0.632519 0.72967,-0.91984 0.24392,-0.140559 0.51057,-0.140559 0.50849,0 0.83095,0.384472 0.32246,0.382405 0.48989,0.833023 z m -1.30431,-0.630452 q -0.38034,0 -0.57671,0.409277 -0.1943,0.409277 -0.24598,0.698665 -0.0393,0.21084 -0.0289,0.510563 0.0103,0.299723 0.0868,0.593245 0.0765,0.291455 0.22945,0.527099 0.15296,0.233577 0.401,0.310058 0.28939,0.09095 0.49816,-0.113688 0.21084,-0.206705 0.31833,-0.438216 0.10956,-0.237711 0.14883,-0.62425 0.0413,-0.38654 -0.0186,-0.771012 -0.0579,-0.386539 -0.22945,-0.694531 -0.17156,-0.310058 -0.48782,-0.394807 -0.0413,-0.0124 -0.0951,-0.0124 z"
             style="font-size:4.23333px;fill:#00ff00;stroke-width:0.264583"
             id="path1127" />
          <path
             d="m 108.08512,96.182588 v 0.04134 q -0.006,0.103353 -0.008,0.124023 -0.0868,0.632519 -0.51883,0.934309 -0.43201,0.299723 -0.92191,0.28112 -0.48989,-0.02067 -0.8971,-0.357601 -0.40514,-0.33693 -0.44028,-0.981851 v -0.04134 -2.54868 q 0,-0.06201 0.0227,-0.111621 0.0992,-0.21704 0.32866,-0.171565 0.23151,0.04547 0.23151,0.283186 v 2.54868 q 0.031,0.475423 0.41754,0.711067 0.38861,0.235644 0.81649,-0.02067 0.19224,-0.113688 0.28112,-0.293521 0.091,-0.179834 0.10749,-0.396875 v -2.54868 q 0,-0.03721 0.004,-0.05581 0.0475,-0.254248 0.31213,-0.229443 0.26458,0.0248 0.26458,0.285253 z"
             style="font-size:4.23333px;fill:#00ff00;stroke-width:0.264583"
             id="path1129" />
          <path
             d="m 111.44409,97.292597 q 0,0.217041 -0.21084,0.276985 -0.20878,0.05788 -0.32453,-0.124023 l -1.73633,-2.784324 v 2.631362 q -0.0455,0.289387 -0.29352,0.289387 -0.24598,0 -0.28939,-0.289387 v -3.65042 q 0.031,-0.214974 0.21911,-0.283187 0.19017,-0.06821 0.31626,0.128157 l 1.73633,2.788458 v -2.633428 q 0.0393,-0.295589 0.29972,-0.291455 0.26252,0.0021 0.28319,0.291455 z"
             style="font-size:4.23333px;fill:#00ff00;stroke-width:0.264583"
             id="path1131" />
          <path
             d="m 112.32672,93.344521 h 0.97358 q 0.72554,0 1.08727,0.661457 0.36174,0.661458 0.36174,1.455207 0,0.79375 -0.3638,1.455208 -0.36174,0.661457 -1.08521,0.661457 h -0.97358 0.004 -0.004 q -0.0682,-0.01033 -0.0744,-0.0124 -0.21497,-0.05168 -0.2129,-0.28112 h -0.002 l 0.002,-3.65042 q -0.002,-0.0062 -0.002,-0.01654 0.006,-0.113688 0.0889,-0.192236 0.0847,-0.08061 0.20258,-0.08061 z m 0.97358,3.65042 q 0.004,0 0.008,0 0.004,0 0.0103,0 0.004,0 0.006,0 0.004,-0.0021 0.0103,-0.0021 0.004,0 0.008,0 0.006,-0.0021 0.0124,-0.0021 0.004,0 0.008,0 0.004,-0.0021 0.0103,-0.0021 0.004,0 0.008,0 0.004,-0.0021 0.0103,-0.0021 0.008,-0.0041 0.0165,-0.0041 0.004,0 0.008,-0.0021 0.004,-0.0041 0.0103,-0.0062 0.004,0 0.008,0 0.006,-0.0021 0.0124,-0.0041 0.004,0 0.008,-0.0021 0.004,-0.0021 0.0103,-0.0041 0.0124,-0.0041 0.0186,-0.0083 0.0372,-0.0124 0.0207,-0.0083 0.004,0 0.008,-0.0021 0.004,-0.0041 0.0103,-0.0062 0.0186,-0.0124 0.0165,-0.01034 0.0207,-0.01033 0.0207,-0.01033 0.004,-0.0021 0.008,-0.0041 0.004,-0.0041 0.0103,-0.0083 0.0186,-0.0124 0.0186,-0.0124 0.004,-0.0021 0.008,-0.0041 0.006,-0.0041 0.0124,-0.0083 0.004,-0.0021 0.008,-0.0062 0.004,-0.0041 0.0103,-0.0083 0.004,-0.0021 0.008,-0.0041 0.004,-0.0041 0.0103,-0.0083 0.004,-0.0041 0.0207,-0.01654 0.0165,-0.01654 0.0165,-0.01654 0.004,-0.0041 0.008,-0.0083 0.004,-0.0041 0.0103,-0.01033 0.004,-0.0041 0.008,-0.0083 0.004,-0.0041 0.0103,-0.01033 0.006,-0.0041 0.0186,-0.01654 0.004,-0.0041 0.008,-0.0083 0.004,-0.0041 0.0103,-0.01034 0.004,-0.0041 0.008,-0.0083 0.004,-0.0062 0.0103,-0.0124 0.0248,-0.03307 0.0165,-0.02067 0.0145,-0.01447 0.0186,-0.02274 0.0186,-0.0248 0.0165,-0.02274 0.004,-0.0062 0.008,-0.01034 0.004,-0.0062 0.0103,-0.0124 0.004,-0.0062 0.006,-0.0124 0.004,-0.0062 0.0103,-0.0124 0.002,-0.0062 0.006,-0.0124 0.006,-0.0083 0.0103,-0.01447 0.0124,-0.01654 0.0165,-0.02481 0.004,-0.0062 0.006,-0.0124 0.004,-0.0083 0.0103,-0.01447 0.004,-0.0062 0.006,-0.0124 0.004,-0.0083 0.0103,-0.01447 0.004,-0.01034 0.0124,-0.02687 0.004,-0.0062 0.006,-0.01447 0.004,-0.0083 0.0103,-0.01654 0.004,-0.0062 0.006,-0.0124 0.004,-0.0083 0.0103,-0.01654 0.002,-0.0062 0.004,-0.01447 0.004,-0.0083 0.008,-0.01654 0.006,-0.01034 0.0145,-0.03101 0.0207,-0.05168 0.0145,-0.03307 0.002,-0.0062 0.004,-0.01447 0.004,-0.01033 0.008,-0.0186 0.002,-0.0083 0.004,-0.01654 0.004,-0.0083 0.008,-0.0186 0.006,-0.0186 0.0103,-0.03307 0.002,-0.0083 0.004,-0.01654 0.004,-0.0083 0.008,-0.0186 -0.008,0.02067 0.0103,-0.03514 0.004,-0.01033 0.0124,-0.03514 0,-0.0083 0.002,-0.01654 0.004,-0.01034 0.006,-0.02067 0.002,-0.0083 0.004,-0.01654 0.002,-0.01034 0.006,-0.02067 0,-0.0062 0.002,-0.01447 0.004,-0.01033 0.006,-0.02067 0.002,-0.01447 0.006,-0.03927 0,-0.0083 0.002,-0.01654 0.004,-0.01034 0.006,-0.02067 0,-0.0083 0.002,-0.01654 0.002,-0.01034 0.004,-0.02067 0.002,-0.01447 0.006,-0.03927 0,-0.0083 0.002,-0.0186 0.004,-0.01034 0.006,-0.02067 0,-0.01447 0.004,-0.03927 0,-0.0083 0,-0.01654 0.002,-0.01034 0.004,-0.02274 0.004,-0.02481 0.004,-0.03927 0.002,-0.01447 0.002,-0.03927 0.002,-0.01447 0.002,-0.04134 0.002,-0.01447 0.002,-0.03927 0,-0.01034 0,-0.0186 0.002,-0.01033 0.004,-0.02274 0,-0.0083 0,-0.01654 0.002,-0.01033 0.002,-0.02274 0,-0.0083 0,-0.0186 0,-0.01033 0,-0.02067 0,-0.01033 0,-0.0186 0,-0.01033 0,-0.02067 0,-0.01033 -0.002,-0.0186 0,-0.01033 0,-0.02274 0,-0.0083 0,-0.0186 0,-0.01034 0,-0.02067 0,-0.0124 -0.004,-0.04134 0,-0.02481 -0.002,-0.03721 0,-0.01447 -0.004,-0.04341 0,-0.02481 -0.002,-0.03721 0,-0.01447 -0.004,-0.03927 -0.002,-0.0083 -0.004,-0.0186 0,-0.01034 0,-0.02067 -0.004,-0.02481 -0.008,-0.03927 -0.002,-0.0083 -0.004,-0.01654 -0.002,-0.01033 -0.002,-0.02067 -0.002,-0.01447 -0.006,-0.03927 -0.002,-0.01447 -0.006,-0.03927 -0.008,-0.02481 -0.0103,-0.03721 -0.004,-0.02481 -0.006,-0.03514 -0.004,-0.0083 -0.006,-0.01654 -0.002,-0.01033 -0.004,-0.02067 -0.002,-0.0083 -0.006,-0.01654 -0.004,-0.01033 -0.004,-0.02067 -0.0186,-0.05581 -0.0103,-0.03514 -0.004,-0.01447 -0.0103,-0.03514 -0.004,-0.0062 -0.008,-0.01447 -0.002,-0.01033 -0.004,-0.0186 -0.002,-0.0062 -0.0124,-0.03514 -0.008,-0.02067 -0.0124,-0.03307 -0.004,-0.0062 -0.008,-0.01447 -0.002,-0.01034 -0.004,-0.0186 -0.004,-0.0062 -0.008,-0.01447 -0.004,-0.0083 -0.006,-0.01654 -0.008,-0.02067 -0.0145,-0.031 -0.008,-0.02067 -0.0124,-0.02894 -0.008,-0.02067 -0.0145,-0.03101 -0.004,-0.0062 -0.008,-0.0124 -0.004,-0.0083 -0.006,-0.01447 -0.0124,-0.02067 -0.0165,-0.02894 -0.0186,-0.02894 -0.0165,-0.02687 -0.006,-0.0062 -0.0103,-0.0124 -0.002,-0.0083 -0.006,-0.01447 -0.004,-0.0083 -0.0165,-0.02481 -0.004,-0.0062 -0.008,-0.0124 -0.004,-0.0062 -0.006,-0.0124 -0.0103,-0.0186 -0.0351,-0.04754 -0.004,-0.0041 -0.0331,-0.04548 -0.0248,-0.02894 -0.0372,-0.04134 -0.0124,-0.01447 -0.0372,-0.03927 -0.0165,-0.0186 -0.0351,-0.03514 -0.0145,-0.01033 -0.0393,-0.03101 -0.0207,-0.01654 -0.0393,-0.03101 -0.0476,-0.03101 -0.0393,-0.02687 -0.0413,-0.02481 -0.0372,-0.02274 0,0 -0.0372,-0.0186 -0.008,-0.0041 -0.0393,-0.01447 -0.0269,-0.01033 -0.0393,-0.01447 -0.0103,-0.0021 -0.0186,-0.0041 -0.008,-0.0041 -0.0165,-0.0083 -0.0372,-0.0062 -0.0372,-0.0062 -0.0124,-0.0021 -0.0372,-0.0021 -0.006,0 -0.0103,0 -0.004,0 -0.008,0 h -0.68213 v 3.067511 0 z"
             style="font-size:4.23333px;fill:#00ff00;stroke-width:0.264583"
             id="path1133" />
          <path
             d="m 121.74836,96.219795 -0.62839,-1.736327 -0.63252,1.736327 z m -0.62839,-1.736327 0.62839,1.736327 z m -1.59576,2.695441 q 0.33073,-0.911572 0.66145,-1.821076 0.3328,-0.911572 0.6656,-1.823143 0.0682,-0.188102 0.27078,-0.190169 0.20257,-0.0021 0.27285,0.190169 l 1.32498,3.654554 q 0.062,0.291455 -0.17776,0.376204 -0.23978,0.08475 -0.37001,-0.173633 l -0.2129,-0.591178 h -1.68465 l -0.20671,0.576709 q -0.13229,0.260449 -0.3762,0.171566 -0.24391,-0.09095 -0.16743,-0.370003 z"
             style="font-size:4.23333px;fill:#00ff00;stroke-width:0.264583"
             id="path1135" />
          <path
             d="m 123.71413,97.292597 q -0.0455,0.291455 -0.29559,0.289387 -0.24805,0 -0.29146,-0.289387 v -3.654555 q 0.0434,-0.291454 0.29146,-0.291454 0.25011,-0.0021 0.29559,0.291454 z"
             style="font-size:4.23333px;fill:#00ff00;stroke-width:0.264583"
             id="path1137" />
          <path
             d="m 126.91186,97.129299 q 0.13229,0.233578 -0.0744,0.392741 -0.0992,0.07028 -0.22945,0.04754 -0.12815,-0.02274 -0.1881,-0.128157 l -1.01906,-1.610237 h -0.51676 v 1.455208 q 0,0.179833 -0.1633,0.260449 -0.16329,0.07855 -0.30592,-0.03101 -0.11369,-0.08475 -0.11369,-0.229443 v -3.652488 q 0,-0.119889 0.0827,-0.204638 0.0847,-0.08475 0.20671,-0.08475 h 1.28364 q 0.46302,0 0.80408,0.295589 0.34107,0.293521 0.42375,0.746207 0.0868,0.485758 -0.2067,0.909504 -0.29146,0.421679 -0.77515,0.51263 l -0.0393,0.0062 z m -1.03766,-1.878953 q 0.21084,0 0.38861,-0.128158 0.17983,-0.128157 0.24184,-0.334863 0.0971,-0.318326 -0.0889,-0.574641 -0.18604,-0.258382 -0.51263,-0.285254 h -1.01906 v 1.322916 z"
             style="font-size:4.23333px;fill:#00ff00;stroke-width:0.264583"
             id="path1139" />
        </g>
        <path
           id="path3035-9"
           style="fill:#ff0000;stroke:none;stroke-width:0.0671917"
           d="m 81.675171,120.13344 a 8,8 0 0 1 -7.772265,7.99676 8,8 0 0 1 -8.214769,-7.54148 8,8 0 0 1 7.304568,-8.42612 8,8 0 0 1 8.630645,7.06174" />
        <path
           id="path3035-2-1"
           style="fill:#ff0000;stroke:none;stroke-width:0.0671915"
           d="m 154.35739,120.42839 a 8,8 0 0 1 -7.77226,7.99676 8,8 0 0 1 -8.21477,-7.54147 8,8 0 0 1 7.30457,-8.42613 8,8 0 0 1 8.63064,7.06175" />
        <g
           aria-label="connect"
           id="text2370-6-7"
           style="font-size:10.5833px;line-height:1.25;font-family:'MS 33558';-inkscape-font-specification:'MS 33558, ';letter-spacing:0px;word-spacing:0px;fill:#00ff00;stroke-width:0.264583">
          <path
             d="m 64.976306,106.44247 -0.0186,0.0269 q -0.0062,0.008 -0.01033,0.0145 -0.0041,0.006 -0.0083,0.0124 -0.283187,0.38241 -0.74414,0.54571 -0.458887,0.16123 -0.905371,-0.06 -0.518831,-0.25838 -0.762743,-0.87643 -0.241846,-0.61805 -0.208773,-1.28364 0.03514,-0.66766 0.3514,-1.22577 0.318326,-0.5581 0.921906,-0.69866 0.347266,-0.0806 0.692464,0.0682 0.345198,0.14676 0.566373,0.41341 0.0021,0 0.01034,0.0145 0.09508,0.12403 0.03927,0.27285 -0.05581,0.14677 -0.204639,0.18397 -0.159163,0.0413 -0.293522,-0.0951 -0.276985,-0.32246 -0.5333,-0.31006 -0.256315,0.0124 -0.458886,0.21084 -0.202572,0.19844 -0.33693,0.50849 -0.134359,0.31006 -0.165365,0.58085 -0.03721,0.30179 0.0062,0.60771 0.04547,0.30386 0.188102,0.57258 0.248047,0.47128 0.624251,0.59117 0.378271,0.11783 0.737939,-0.36173 0.01654,-0.0207 0.03927,-0.0537 0.194303,-0.21498 0.409277,-0.0434 0.217041,0.1695 0.06408,0.38447 z"
             style="font-size:4.23333px;fill:#00ff00;stroke-width:0.264583"
             id="path1144" />
          <path
             d="m 68.302198,104.08809 q 0.190169,0.57258 0.142627,1.18856 -0.04547,0.61598 -0.33693,1.12448 -0.183968,0.31626 -0.502295,0.53743 -0.318326,0.22118 -0.702798,0.15503 -0.626318,-0.10955 -0.959114,-0.65319 -0.332796,-0.54363 -0.382405,-1.20922 -0.04754,-0.66766 0.179833,-1.30018 0.229444,-0.63252 0.729671,-0.91984 0.243912,-0.14056 0.510563,-0.14056 0.508495,0 0.830956,0.38447 0.322461,0.38241 0.489892,0.83302 z m -1.304312,-0.63045 q -0.380338,0 -0.576708,0.40928 -0.194304,0.40928 -0.24598,0.69866 -0.03927,0.21084 -0.02894,0.51057 0.01033,0.29972 0.08682,0.59324 0.07648,0.29146 0.229443,0.5271 0.152962,0.23358 0.401008,0.31006 0.289388,0.0909 0.498161,-0.11369 0.21084,-0.20671 0.318326,-0.43822 0.109554,-0.23771 0.148828,-0.62425 0.04134,-0.38654 -0.0186,-0.77101 -0.05788,-0.38654 -0.229443,-0.69453 -0.171566,-0.31006 -0.487825,-0.39481 -0.04134,-0.0124 -0.09509,-0.0124 z"
             style="font-size:4.23333px;fill:#00ff00;stroke-width:0.264583"
             id="path1146" />
          <path
             d="m 71.855467,106.81867 q 0,0.21704 -0.21084,0.27699 -0.208772,0.0579 -0.324528,-0.12402 l -1.736326,-2.78433 v 2.63136 q -0.04547,0.28939 -0.293522,0.28939 -0.24598,0 -0.289388,-0.28939 v -3.65042 q 0.03101,-0.21497 0.219108,-0.28318 0.190169,-0.0682 0.316259,0.12815 l 1.736327,2.78846 v -2.63343 q 0.03927,-0.29559 0.299723,-0.29145 0.262516,0.002 0.283187,0.29145 z"
             style="font-size:4.23333px;fill:#00ff00;stroke-width:0.264583"
             id="path1148" />
          <path
             d="m 75.303315,106.81867 q 0,0.21704 -0.21084,0.27699 -0.208772,0.0579 -0.324527,-0.12402 l -1.736327,-2.78433 v 2.63136 q -0.04547,0.28939 -0.293522,0.28939 -0.245979,0 -0.289388,-0.28939 v -3.65042 q 0.03101,-0.21497 0.219108,-0.28318 0.190169,-0.0682 0.31626,0.12815 l 1.736326,2.78846 v -2.63343 q 0.03928,-0.29559 0.299724,-0.29145 0.262516,0.002 0.283186,0.29145 z"
             style="font-size:4.23333px;fill:#00ff00;stroke-width:0.264583"
             id="path1150" />
          <path
             d="m 78.190991,103.44731 h -1.713589 v 1.13068 h 1.306379 q 0.293522,0.0434 0.291455,0.29558 0,0.25012 -0.291455,0.29146 h -1.306379 v 1.35806 h 1.713589 q 0.291455,0.0434 0.291455,0.29145 0,0.24805 -0.291455,0.28939 h -2.000909 q -0.258382,-0.0331 -0.293522,-0.29352 v -3.65042 q 0.03927,-0.27286 0.293522,-0.28939 h 2.000909 q 0.291455,0.0227 0.289388,0.29145 0,0.26665 -0.289388,0.28526 z"
             style="font-size:4.23333px;fill:#00ff00;stroke-width:0.264583"
             id="path1152" />
          <path
             d="m 81.719454,106.44247 -0.0186,0.0269 q -0.0062,0.008 -0.01033,0.0145 -0.0041,0.006 -0.0083,0.0124 -0.283186,0.38241 -0.74414,0.54571 -0.458886,0.16123 -0.90537,-0.06 -0.518831,-0.25838 -0.762743,-0.87643 -0.241846,-0.61805 -0.208773,-1.28364 0.03514,-0.66766 0.351399,-1.22577 0.318327,-0.5581 0.921907,-0.69866 0.347266,-0.0806 0.692464,0.0682 0.345198,0.14676 0.566373,0.41341 0.0021,0 0.01034,0.0145 0.09508,0.12403 0.03927,0.27285 -0.05581,0.14677 -0.204638,0.18397 -0.159163,0.0413 -0.293522,-0.0951 -0.276985,-0.32246 -0.5333,-0.31006 -0.256315,0.0124 -0.458887,0.21084 -0.202571,0.19844 -0.33693,0.50849 -0.134358,0.31006 -0.165364,0.58085 -0.03721,0.30179 0.0062,0.60771 0.04548,0.30386 0.188102,0.57258 0.248047,0.47128 0.624251,0.59117 0.378271,0.11783 0.737939,-0.36173 0.01654,-0.0207 0.03927,-0.0537 0.194303,-0.21498 0.409277,-0.0434 0.217041,0.1695 0.06408,0.38447 z"
             style="font-size:4.23333px;fill:#00ff00;stroke-width:0.264583"
             id="path1154" />
          <path
             d="m 83.344161,106.81454 v -3.36103 h -0.75861 q -0.289387,-0.0227 -0.289387,-0.28939 0.0021,-0.26872 0.289387,-0.29352 h 2.098062 q 0.285253,0.0227 0.285253,0.29352 0.0021,0.26872 -0.285253,0.28939 H 83.92707 v 3.36103 q -0.04754,0.29352 -0.305924,0.28939 -0.256315,-0.004 -0.276985,-0.28939 z"
             style="font-size:4.23333px;fill:#00ff00;stroke-width:0.264583"
             id="path1156" />
        </g>
        <g
           aria-label="disconnect"
           id="text2370-6-3-3"
           style="font-size:10.5833px;line-height:1.25;font-family:'MS 33558';-inkscape-font-specification:'MS 33558, ';letter-spacing:0px;word-spacing:0px;fill:#00ff00;stroke-width:0.264583">
          <path
             d="m 131.43367,102.33808 h 0.97359 q 0.72553,0 1.08727,0.66146 0.36173,0.66146 0.36173,1.45521 0,0.79375 -0.3638,1.4552 -0.36173,0.66146 -1.0852,0.66146 h -0.97359 0.004 -0.004 q -0.0682,-0.0103 -0.0744,-0.0124 -0.21497,-0.0517 -0.21291,-0.28112 h -0.002 l 0.002,-3.65042 q -0.002,-0.006 -0.002,-0.0165 0.006,-0.11369 0.0889,-0.19223 0.0847,-0.0806 0.20257,-0.0806 z m 0.97359,3.65042 q 0.004,0 0.008,0 0.004,0 0.0103,0 0.004,0 0.006,0 0.004,-0.002 0.0103,-0.002 0.004,0 0.008,0 0.006,-0.002 0.0124,-0.002 0.004,0 0.008,0 0.004,-0.002 0.0103,-0.002 0.004,0 0.008,0 0.004,-0.002 0.0103,-0.002 0.008,-0.004 0.0165,-0.004 0.004,0 0.008,-0.002 0.004,-0.004 0.0103,-0.006 0.004,0 0.008,0 0.006,-0.002 0.0124,-0.004 0.004,0 0.008,-0.002 0.004,-0.002 0.0103,-0.004 0.0124,-0.004 0.0186,-0.008 0.0372,-0.0124 0.0207,-0.008 0.004,0 0.008,-0.002 0.004,-0.004 0.0103,-0.006 0.0186,-0.0124 0.0165,-0.0103 0.0207,-0.0103 0.0207,-0.0103 0.004,-0.002 0.008,-0.004 0.004,-0.004 0.0103,-0.008 0.0186,-0.0124 0.0186,-0.0124 0.004,-0.002 0.008,-0.004 0.006,-0.004 0.0124,-0.008 0.004,-0.002 0.008,-0.006 0.004,-0.004 0.0103,-0.008 0.004,-0.002 0.008,-0.004 0.004,-0.004 0.0103,-0.008 0.004,-0.004 0.0207,-0.0165 0.0165,-0.0165 0.0165,-0.0165 0.004,-0.004 0.008,-0.008 0.004,-0.004 0.0103,-0.0103 0.004,-0.004 0.008,-0.008 0.004,-0.004 0.0103,-0.0103 0.006,-0.004 0.0186,-0.0165 0.004,-0.004 0.008,-0.008 0.004,-0.004 0.0103,-0.0103 0.004,-0.004 0.008,-0.008 0.004,-0.006 0.0103,-0.0124 0.0248,-0.0331 0.0165,-0.0207 0.0145,-0.0145 0.0186,-0.0227 0.0186,-0.0248 0.0165,-0.0227 0.004,-0.006 0.008,-0.0103 0.004,-0.006 0.0103,-0.0124 0.004,-0.006 0.006,-0.0124 0.004,-0.006 0.0103,-0.0124 0.002,-0.006 0.006,-0.0124 0.006,-0.008 0.0103,-0.0145 0.0124,-0.0165 0.0165,-0.0248 0.004,-0.006 0.006,-0.0124 0.004,-0.008 0.0103,-0.0145 0.004,-0.006 0.006,-0.0124 0.004,-0.008 0.0103,-0.0145 0.004,-0.0103 0.0124,-0.0269 0.004,-0.006 0.006,-0.0145 0.004,-0.008 0.0103,-0.0165 0.004,-0.006 0.006,-0.0124 0.004,-0.008 0.0103,-0.0165 0.002,-0.006 0.004,-0.0145 0.004,-0.008 0.008,-0.0165 0.006,-0.0103 0.0145,-0.031 0.0207,-0.0517 0.0145,-0.0331 0.002,-0.006 0.004,-0.0145 0.004,-0.0103 0.008,-0.0186 0.002,-0.008 0.004,-0.0165 0.004,-0.008 0.008,-0.0186 0.006,-0.0186 0.0103,-0.0331 0.002,-0.008 0.004,-0.0165 0.004,-0.008 0.008,-0.0186 -0.008,0.0207 0.0103,-0.0351 0.004,-0.0103 0.0124,-0.0351 0,-0.008 0.002,-0.0165 0.004,-0.0103 0.006,-0.0207 0.002,-0.008 0.004,-0.0165 0.002,-0.0103 0.006,-0.0207 0,-0.006 0.002,-0.0145 0.004,-0.0103 0.006,-0.0207 0.002,-0.0145 0.006,-0.0393 0,-0.008 0.002,-0.0165 0.004,-0.0103 0.006,-0.0207 0,-0.008 0.002,-0.0165 0.002,-0.0103 0.004,-0.0207 0.002,-0.0145 0.006,-0.0393 0,-0.008 0.002,-0.0186 0.004,-0.0103 0.006,-0.0207 0,-0.0145 0.004,-0.0393 0,-0.008 0,-0.0165 0.002,-0.0103 0.004,-0.0227 0.004,-0.0248 0.004,-0.0393 0.002,-0.0145 0.002,-0.0393 0.002,-0.0145 0.002,-0.0413 0.002,-0.0145 0.002,-0.0393 0,-0.0103 0,-0.0186 0.002,-0.0103 0.004,-0.0227 0,-0.008 0,-0.0165 0.002,-0.0103 0.002,-0.0227 0,-0.008 0,-0.0186 0,-0.0103 0,-0.0207 0,-0.0103 0,-0.0186 0,-0.0103 0,-0.0207 0,-0.0103 -0.002,-0.0186 0,-0.0103 0,-0.0227 0,-0.008 0,-0.0186 0,-0.0103 0,-0.0207 0,-0.0124 -0.004,-0.0413 0,-0.0248 -0.002,-0.0372 0,-0.0145 -0.004,-0.0434 0,-0.0248 -0.002,-0.0372 0,-0.0145 -0.004,-0.0393 -0.002,-0.008 -0.004,-0.0186 0,-0.0103 0,-0.0207 -0.004,-0.0248 -0.008,-0.0393 -0.002,-0.008 -0.004,-0.0165 -0.002,-0.0103 -0.002,-0.0207 -0.002,-0.0145 -0.006,-0.0393 -0.002,-0.0145 -0.006,-0.0393 -0.008,-0.0248 -0.0103,-0.0372 -0.004,-0.0248 -0.006,-0.0351 -0.004,-0.008 -0.006,-0.0165 -0.002,-0.0103 -0.004,-0.0207 -0.002,-0.008 -0.006,-0.0165 -0.004,-0.0103 -0.004,-0.0207 -0.0186,-0.0558 -0.0103,-0.0351 -0.004,-0.0145 -0.0103,-0.0351 -0.004,-0.006 -0.008,-0.0145 -0.002,-0.0103 -0.004,-0.0186 -0.002,-0.006 -0.0124,-0.0351 -0.008,-0.0207 -0.0124,-0.0331 -0.004,-0.006 -0.008,-0.0145 -0.002,-0.0103 -0.004,-0.0186 -0.004,-0.006 -0.008,-0.0145 -0.004,-0.008 -0.006,-0.0165 -0.008,-0.0207 -0.0145,-0.031 -0.008,-0.0207 -0.0124,-0.0289 -0.008,-0.0207 -0.0145,-0.031 -0.004,-0.006 -0.008,-0.0124 -0.004,-0.008 -0.006,-0.0145 -0.0124,-0.0207 -0.0165,-0.0289 -0.0186,-0.0289 -0.0165,-0.0269 -0.006,-0.006 -0.0103,-0.0124 -0.002,-0.008 -0.006,-0.0145 -0.004,-0.008 -0.0165,-0.0248 -0.004,-0.006 -0.008,-0.0124 -0.004,-0.006 -0.006,-0.0124 -0.0103,-0.0186 -0.0351,-0.0475 -0.004,-0.004 -0.0331,-0.0455 -0.0248,-0.0289 -0.0372,-0.0413 -0.0124,-0.0145 -0.0372,-0.0393 -0.0165,-0.0186 -0.0351,-0.0351 -0.0145,-0.0103 -0.0393,-0.031 -0.0207,-0.0165 -0.0393,-0.031 -0.0475,-0.031 -0.0393,-0.0269 -0.0413,-0.0248 -0.0372,-0.0227 0,0 -0.0372,-0.0186 -0.008,-0.004 -0.0393,-0.0145 -0.0269,-0.0103 -0.0393,-0.0145 -0.0103,-0.002 -0.0186,-0.004 -0.008,-0.004 -0.0165,-0.008 -0.0372,-0.006 -0.0372,-0.006 -0.0124,-0.002 -0.0372,-0.002 -0.006,0 -0.0103,0 -0.004,0 -0.008,0 h -0.68213 v 3.06751 0 z"
             style="font-size:4.23333px;fill:#00ff00;stroke-width:0.264583"
             id="path1159" />
          <path
             d="m 134.97041,106.28616 q -0.0455,0.29145 -0.29559,0.28939 -0.24805,0 -0.29146,-0.28939 v -3.65456 q 0.0434,-0.29145 0.29146,-0.29145 0.25011,-0.002 0.29559,0.29145 z"
             style="font-size:4.23333px;fill:#00ff00;stroke-width:0.264583"
             id="path1161" />
          <path
             d="m 137.63691,104.31832 0.0331,0.0145 0.0372,0.0186 0.0331,0.0186 q 0.0145,0.0103 0.031,0.0207 0.0186,0.008 0.0351,0.0186 0.40927,0.26872 0.50643,0.74414 0.0372,0.18604 0.0165,0.38241 -0.0331,0.28112 -0.19844,0.52089 -0.16329,0.23772 -0.41134,0.36794 -0.26665,0.14056 -0.5519,0.14056 -0.47956,0 -0.91571,-0.12196 -0.43615,-0.12402 -0.62218,-0.65939 -0.0248,-0.0682 -0.0372,-0.14056 -0.0124,-0.0723 -0.0289,-0.14469 -0.031,-0.14883 0.0724,-0.26252 0.10542,-0.11368 0.26045,-0.0868 0.1633,0.0331 0.22737,0.20257 l 0.006,0.0186 q 0.0992,0.44855 0.34519,0.53537 0.24805,0.0868 0.68833,0.0785 0.40515,0 0.55604,-0.38034 0.0661,-0.1695 0.0207,-0.3514 -0.0455,-0.18397 -0.17983,-0.30592 -0.0599,-0.0517 -0.1571,-0.0972 l -0.95705,-0.41961 -0.031,-0.0165 q -0.46922,-0.24805 -0.58291,-0.70487 -0.13849,-0.52917 0.19224,-0.94878 0.33279,-0.42168 0.87229,-0.42168 l 0.22738,0.006 q 0.11162,0.0207 0.21497,0.0413 0.10336,0.0186 0.20878,0.0661 0.26044,0.12196 0.39894,0.33486 0.13849,0.21291 0.25011,0.46096 0.0103,0.0227 0.0186,0.0537 0.0227,0.10128 -0.0207,0.18397 -0.0248,0.0517 -0.0517,0.0786 -0.0269,0.0269 -0.0434,0.0372 -0.10749,0.0765 -0.23565,0.0455 -0.12815,-0.0289 -0.19637,-0.16537 -0.0537,-0.11989 -0.11575,-0.24391 -0.0599,-0.12609 -0.1695,-0.20877 -0.0455,-0.0331 -0.0889,-0.0475 -0.0413,-0.0165 -0.093,-0.0351 l -0.13436,-0.0227 -0.19017,-0.006 q -0.27698,0.004 -0.42374,0.23978 -0.0992,0.15089 -0.0744,0.33693 0.0289,0.22944 0.21498,0.35553 0.008,0.006 0.0186,0.0145 0.0103,0.006 0.0227,0.0124 l 0.0227,0.0103 0.0248,0.0103 z"
             style="font-size:4.23333px;fill:#00ff00;stroke-width:0.264583"
             id="path1163" />
          <path
             d="m 141.51057,105.90995 -0.0186,0.0269 q -0.006,0.008 -0.0103,0.0145 -0.004,0.006 -0.008,0.0124 -0.28318,0.3824 -0.74414,0.5457 -0.45888,0.16123 -0.90537,-0.06 -0.51883,-0.25838 -0.76274,-0.87643 -0.24185,-0.61805 -0.20877,-1.28364 0.0351,-0.66766 0.3514,-1.22576 0.31832,-0.55811 0.9219,-0.69867 0.34727,-0.0806 0.69247,0.0682 0.3452,0.14676 0.56637,0.41341 0.002,0 0.0103,0.0145 0.0951,0.12402 0.0393,0.27285 -0.0558,0.14676 -0.20464,0.18397 -0.15916,0.0413 -0.29352,-0.0951 -0.27699,-0.32246 -0.5333,-0.31006 -0.25632,0.0124 -0.45889,0.21084 -0.20257,0.19844 -0.33693,0.5085 -0.13436,0.31006 -0.16536,0.58084 -0.0372,0.30179 0.006,0.60772 0.0455,0.30385 0.1881,0.57257 0.24805,0.47129 0.62425,0.59118 0.37827,0.11782 0.73794,-0.36174 0.0165,-0.0207 0.0393,-0.0537 0.1943,-0.21497 0.40927,-0.0434 0.21704,0.1695 0.0641,0.38447 z"
             style="font-size:4.23333px;fill:#00ff00;stroke-width:0.264583"
             id="path1165" />
          <path
             d="m 144.83646,103.55558 q 0.19017,0.57257 0.14263,1.18855 -0.0455,0.61599 -0.33693,1.12448 -0.18397,0.31626 -0.50229,0.53744 -0.31833,0.22117 -0.7028,0.15503 -0.62632,-0.10956 -0.95912,-0.65319 -0.33279,-0.54364 -0.3824,-1.20923 -0.0475,-0.66766 0.17983,-1.30018 0.22944,-0.63252 0.72967,-0.91984 0.24391,-0.14056 0.51056,-0.14056 0.5085,0 0.83096,0.38447 0.32246,0.38241 0.48989,0.83303 z m -1.30431,-0.63045 q -0.38034,0 -0.57671,0.40927 -0.1943,0.40928 -0.24598,0.69867 -0.0393,0.21084 -0.0289,0.51056 0.0103,0.29972 0.0868,0.59324 0.0765,0.29146 0.22944,0.5271 0.15297,0.23358 0.40101,0.31006 0.28939,0.091 0.49816,-0.11369 0.21084,-0.2067 0.31833,-0.43821 0.10955,-0.23771 0.14883,-0.62425 0.0413,-0.38654 -0.0186,-0.77101 -0.0579,-0.38654 -0.22944,-0.69453 -0.17156,-0.31006 -0.48782,-0.39481 -0.0413,-0.0124 -0.0951,-0.0124 z"
             style="font-size:4.23333px;fill:#00ff00;stroke-width:0.264583"
             id="path1167" />
          <path
             d="m 148.38973,106.28616 q 0,0.21704 -0.21084,0.27698 -0.20877,0.0579 -0.32453,-0.12402 l -1.73632,-2.78432 v 2.63136 q -0.0455,0.28939 -0.29352,0.28939 -0.24598,0 -0.28939,-0.28939 v -3.65042 q 0.031,-0.21498 0.21911,-0.28319 0.19016,-0.0682 0.31626,0.12816 l 1.73632,2.78846 v -2.63343 q 0.0393,-0.29559 0.29972,-0.29146 0.26252,0.002 0.28319,0.29146 z"
             style="font-size:4.23333px;fill:#00ff00;stroke-width:0.264583"
             id="path1169" />
          <path
             d="m 151.83758,106.28616 q 0,0.21704 -0.21084,0.27698 -0.20877,0.0579 -0.32453,-0.12402 l -1.73632,-2.78432 v 2.63136 q -0.0455,0.28939 -0.29353,0.28939 -0.24597,0 -0.28938,-0.28939 v -3.65042 q 0.031,-0.21498 0.2191,-0.28319 0.19017,-0.0682 0.31626,0.12816 l 1.73633,2.78846 v -2.63343 q 0.0393,-0.29559 0.29972,-0.29146 0.26252,0.002 0.28319,0.29146 z"
             style="font-size:4.23333px;fill:#00ff00;stroke-width:0.264583"
             id="path1171" />
          <path
             d="m 154.72526,102.91479 h -1.71359 v 1.13068 h 1.30638 q 0.29352,0.0434 0.29145,0.29559 0,0.25011 -0.29145,0.29145 h -1.30638 v 1.35806 h 1.71359 q 0.29145,0.0434 0.29145,0.29145 0,0.24805 -0.29145,0.28939 h -2.00091 q -0.25839,-0.0331 -0.29353,-0.29352 v -3.65042 q 0.0393,-0.27285 0.29353,-0.28939 h 2.00091 q 0.29145,0.0227 0.28938,0.29146 0,0.26665 -0.28938,0.28525 z"
             style="font-size:4.23333px;fill:#00ff00;stroke-width:0.264583"
             id="path1173" />
          <path
             d="m 158.25372,105.90995 -0.0186,0.0269 q -0.006,0.008 -0.0103,0.0145 -0.004,0.006 -0.008,0.0124 -0.28318,0.3824 -0.74414,0.5457 -0.45888,0.16123 -0.90537,-0.06 -0.51883,-0.25838 -0.76274,-0.87643 -0.24185,-0.61805 -0.20877,-1.28364 0.0351,-0.66766 0.3514,-1.22576 0.31832,-0.55811 0.9219,-0.69867 0.34727,-0.0806 0.69247,0.0682 0.34519,0.14676 0.56637,0.41341 0.002,0 0.0103,0.0145 0.0951,0.12402 0.0393,0.27285 -0.0558,0.14676 -0.20464,0.18397 -0.15916,0.0413 -0.29352,-0.0951 -0.27699,-0.32246 -0.5333,-0.31006 -0.25632,0.0124 -0.45889,0.21084 -0.20257,0.19844 -0.33693,0.5085 -0.13436,0.31006 -0.16536,0.58084 -0.0372,0.30179 0.006,0.60772 0.0455,0.30385 0.1881,0.57257 0.24805,0.47129 0.62425,0.59118 0.37827,0.11782 0.73794,-0.36174 0.0165,-0.0207 0.0393,-0.0537 0.19431,-0.21497 0.40928,-0.0434 0.21704,0.1695 0.0641,0.38447 z"
             style="font-size:4.23333px;fill:#00ff00;stroke-width:0.264583"
             id="path1175" />
          <path
             d="m 159.87843,106.28202 v -3.36103 h -0.75861 q -0.28939,-0.0227 -0.28939,-0.28939 0.002,-0.26871 0.28939,-0.29352 h 2.09806 q 0.28525,0.0227 0.28525,0.29352 0.002,0.26872 -0.28525,0.28939 h -0.75654 v 3.36103 q -0.0476,0.29353 -0.30593,0.28939 -0.25631,-0.004 -0.27698,-0.28939 z"
             style="font-size:4.23333px;fill:#00ff00;stroke-width:0.264583"
             id="path1177" />
        </g>
        <path
           id="rect3342-9"
           style="fill:#00ff00;stroke:none;stroke-width:0.0319619"
           d="m 133.63969,94.894333 h 25.36804 v 1.13153 h -25.36804 z" />
        <path
           id="rect3342-3-0"
           style="fill:#00ff00;stroke:none;stroke-width:0.0319619"
           d="m 60.95747,94.894333 h 25.368038 v 1.13153 H 60.95747 Z" />
      </g>
      <text
         xml:space="preserve"
         id="text915"
         style="line-height:1.25;font-family:'MS 33558';font-size:3.52777778px;-inkscape-font-specification:'MS 33558, ';white-space:pre;shape-inside:url(#rect917);" />
    </g>
  </g>
</svg>
