<?xml version="1.0" encoding="UTF-8" standalone="no"?>
<svg
   xmlns:dc="http://purl.org/dc/elements/1.1/"
   xmlns:cc="http://creativecommons.org/ns#"
   xmlns:rdf="http://www.w3.org/1999/02/22-rdf-syntax-ns#"
   xmlns:svg="http://www.w3.org/2000/svg"
   xmlns="http://www.w3.org/2000/svg"
   xmlns:sodipodi="http://sodipodi.sourceforge.net/DTD/sodipodi-0.dtd"
   xmlns:inkscape="http://www.inkscape.org/namespaces/inkscape"
   width="210mm"
   height="297mm"
   viewBox="0 0 210 297"
   version="1.1"
   id="svg3329"
   inkscape:version="1.0.2 (e86c870879, 2021-01-15, custom)"
   sodipodi:docname="Panel1 Engine Bottom.svg">
  <defs
     id="defs3323" />
  <sodipodi:namedview
     id="base"
     pagecolor="#ffffff"
     bordercolor="#666666"
     borderopacity="1.0"
     inkscape:pageopacity="0.0"
     inkscape:pageshadow="2"
     inkscape:zoom="0.35"
     inkscape:cx="400"
     inkscape:cy="560"
     inkscape:document-units="mm"
     inkscape:current-layer="layer1"
     inkscape:document-rotation="0"
     showgrid="false"
     inkscape:window-width="1431"
     inkscape:window-height="1208"
     inkscape:window-x="2889"
     inkscape:window-y="172"
     inkscape:window-maximized="0" />
  <metadata
     id="metadata3326">
    <rdf:RDF>
      <cc:Work
         rdf:about="">
        <dc:format>image/svg+xml</dc:format>
        <dc:type
           rdf:resource="http://purl.org/dc/dcmitype/StillImage" />
        <dc:title></dc:title>
      </cc:Work>
    </rdf:RDF>
  </metadata>
  <g
     inkscape:label="Layer 1"
     inkscape:groupmode="layer"
     id="layer1">
    <rect
       style="fill:none;stroke:#000002;stroke-width:0.249651;stroke-miterlimit:4;stroke-dasharray:none;stroke-opacity:1"
       id="rect140-1-0"
       width="152.15034"
       height="215.65034"
       x="35.049831"
       y="38.829582" />
    <circle
       style="fill:#ff0000;stroke:none;stroke-width:0.15875"
       id="path146-2-1-6"
       cx="177.46529"
       cy="51.329765"
       r="3.175" />
    <circle
       style="fill:#ff0000;stroke:none;stroke-width:0.15875"
       id="path146-0-2-5"
       cx="45.065243"
       cy="51.329765"
       r="3.175" />
    <circle
       style="fill:#ff0000;stroke:none;stroke-width:0.15875"
       id="path146-0-9-2-1"
       cx="45.065243"
       cy="242.22977"
       r="3.175" />
    <circle
       style="fill:#ff0000;stroke:none;stroke-width:0.15875"
       id="path146-0-1-3-1"
       cx="177.46529"
       cy="242.22977"
       r="3.175" />
    <path
       style="fill:#ff0000;stroke:none;stroke-width:0.0615931;stroke-miterlimit:4;stroke-dasharray:none;stroke-opacity:1"
       id="path958-4-5-4"
       sodipodi:type="arc"
       sodipodi:cx="45.065243"
       sodipodi:cy="146.81042"
       sodipodi:rx="3.175"
       sodipodi:ry="3.175"
       sodipodi:start="0"
       sodipodi:end="6.1693026"
       sodipodi:open="true"
       sodipodi:arc-type="arc"
       d="m 48.240243,146.81042 a 3.175,3.175 0 0 1 -3.084618,3.17372 3.175,3.175 0 0 1 -3.260236,-2.99302 3.175,3.175 0 0 1 2.899,-3.34412 3.175,3.175 0 0 1 3.425287,2.80263" />
    <path
       style="fill:#ff0000;stroke:none;stroke-width:0.0612955;stroke-miterlimit:4;stroke-dasharray:none;stroke-opacity:1"
       id="path958-4-0-2-0"
       sodipodi:type="arc"
       sodipodi:cx="-177.46529"
       sodipodi:cy="146.77982"
       sodipodi:rx="3.175"
       sodipodi:ry="3.1443951"
       sodipodi:start="0"
       sodipodi:end="6.1693026"
       sodipodi:open="true"
       sodipodi:arc-type="arc"
       transform="scale(-1,1)"
       d="m -174.29029,146.77982 a 3.175,3.1443951 0 0 1 -3.08461,3.14312 3.175,3.1443951 0 0 1 -3.26024,-2.96417 3.175,3.1443951 0 0 1 2.899,-3.31189 3.175,3.1443951 0 0 1 3.42529,2.77562" />
    <path
       style="fill:#ff0000;stroke:none;stroke-width:0.253999;stroke-opacity:1"
       id="path103-5"
       sodipodi:type="arc"
       sodipodi:cx="80.310211"
       sodipodi:cy="73.997169"
       sodipodi:rx="6.3499999"
       sodipodi:ry="6.3499999"
       sodipodi:start="0"
       sodipodi:end="6.1693026"
       sodipodi:open="true"
       sodipodi:arc-type="arc"
       d="m 86.660211,73.997169 a 6.3499999,6.3499999 0 0 1 -6.169235,6.347427 6.3499999,6.3499999 0 0 1 -6.520473,-5.986044 6.3499999,6.3499999 0 0 1 5.798001,-6.688234 6.3499999,6.3499999 0 0 1 6.850574,5.605258" />
    <path
       style="fill:#ff0000;stroke:none;stroke-width:0.253999;stroke-opacity:1"
       id="path103-1-8"
       sodipodi:type="arc"
       sodipodi:cx="122.11381"
       sodipodi:cy="73.997169"
       sodipodi:rx="6.3499999"
       sodipodi:ry="6.3499999"
       sodipodi:start="0"
       sodipodi:end="6.1693026"
       sodipodi:open="true"
       sodipodi:arc-type="arc"
       d="m 128.46381,73.997169 a 6.3499999,6.3499999 0 0 1 -6.16924,6.347427 6.3499999,6.3499999 0 0 1 -6.52047,-5.986044 6.3499999,6.3499999 0 0 1 5.798,-6.688234 6.3499999,6.3499999 0 0 1 6.85057,5.605258" />
    <path
       style="fill:#ff0000;stroke:none;stroke-width:0.253999;stroke-opacity:1"
       id="path103-8-5"
       sodipodi:type="arc"
       sodipodi:cx="101.47655"
       sodipodi:cy="117.91801"
       sodipodi:rx="6.3499999"
       sodipodi:ry="6.3499999"
       sodipodi:start="0"
       sodipodi:end="6.1693026"
       sodipodi:open="true"
       sodipodi:arc-type="arc"
       d="m 107.82655,117.91801 a 6.3499999,6.3499999 0 0 1 -6.16924,6.34742 6.3499999,6.3499999 0 0 1 -6.520471,-5.98604 6.3499999,6.3499999 0 0 1 5.798001,-6.68823 6.3499999,6.3499999 0 0 1 6.85057,5.60525" />
    <path
       style="fill:#ff0000;stroke:none;stroke-width:0.253999;stroke-opacity:1"
       id="path103-8-4-22"
       sodipodi:type="arc"
       sodipodi:cx="73.170044"
       sodipodi:cy="168.71796"
       sodipodi:rx="6.3499999"
       sodipodi:ry="6.3499999"
       sodipodi:start="0"
       sodipodi:end="6.1693026"
       sodipodi:open="true"
       sodipodi:arc-type="arc"
       d="m 79.520044,168.71796 a 6.3499999,6.3499999 0 0 1 -6.169236,6.34742 6.3499999,6.3499999 0 0 1 -6.520472,-5.98604 6.3499999,6.3499999 0 0 1 5.798001,-6.68824 6.3499999,6.3499999 0 0 1 6.850574,5.60526" />
    <path
       style="fill:#ff0000;stroke:none;stroke-width:0.253999;stroke-opacity:1"
       id="path103-8-4-5-1"
       sodipodi:type="arc"
       sodipodi:cx="136.82155"
       sodipodi:cy="165.54291"
       sodipodi:rx="6.3499999"
       sodipodi:ry="6.3499999"
       sodipodi:start="0"
       sodipodi:end="6.1693026"
       sodipodi:open="true"
       sodipodi:arc-type="arc"
       d="m 143.17155,165.54291 a 6.3499999,6.3499999 0 0 1 -6.16924,6.34742 6.3499999,6.3499999 0 0 1 -6.52047,-5.98604 6.3499999,6.3499999 0 0 1 5.798,-6.68823 6.3499999,6.3499999 0 0 1 6.85058,5.60525" />
    <rect
       style="fill:#ff0000;stroke:none;stroke-width:0.370416;stroke-opacity:1"
       id="rect298-0"
       width="44.450001"
       height="22.225"
       x="116.54816"
       y="-224.48428"
       transform="scale(1,-1)" />
    <path
       style="fill:#ff0000;stroke:none;stroke-width:0.253999;stroke-opacity:1"
       id="path103-8-4-2-2"
       sodipodi:type="arc"
       sodipodi:cx="73.321564"
       sodipodi:cy="209.99295"
       sodipodi:rx="6.3499999"
       sodipodi:ry="6.3499999"
       sodipodi:start="0"
       sodipodi:end="6.1693026"
       sodipodi:open="true"
       sodipodi:arc-type="arc"
       d="m 79.671564,209.99295 a 6.3499999,6.3499999 0 0 1 -6.169236,6.34743 6.3499999,6.3499999 0 0 1 -6.520473,-5.98605 6.3499999,6.3499999 0 0 1 5.798002,-6.68823 6.3499999,6.3499999 0 0 1 6.850574,5.60526" />
    <path
       style="fill:#ff0000;stroke:none;stroke-width:0.0615931;stroke-miterlimit:4;stroke-dasharray:none;stroke-opacity:1"
       id="path958-9"
       sodipodi:type="arc"
       sodipodi:cx="155.65646"
       sodipodi:cy="51.317772"
       sodipodi:rx="3.175"
       sodipodi:ry="3.175"
       sodipodi:start="0"
       sodipodi:end="6.1693026"
       sodipodi:open="true"
       sodipodi:arc-type="arc"
       d="m 158.83146,51.317772 a 3.175,3.175 0 0 1 -3.08461,3.173713 3.175,3.175 0 0 1 -3.26024,-2.993022 3.175,3.175 0 0 1 2.899,-3.344117 3.175,3.175 0 0 1 3.42529,2.802629" />
    <path
       style="fill:#ff0000;stroke:none;stroke-width:0.0615931;stroke-miterlimit:4;stroke-dasharray:none;stroke-opacity:1"
       id="path958-8-5"
       sodipodi:type="arc"
       sodipodi:cx="62.523144"
       sodipodi:cy="115.87614"
       sodipodi:rx="3.175"
       sodipodi:ry="3.175"
       sodipodi:start="0"
       sodipodi:end="6.1693026"
       sodipodi:open="true"
       sodipodi:arc-type="arc"
       d="m 65.698144,115.87614 a 3.175,3.175 0 0 1 -3.084618,3.17371 3.175,3.175 0 0 1 -3.260236,-2.99302 3.175,3.175 0 0 1 2.899,-3.34412 3.175,3.175 0 0 1 3.425287,2.80263" />
    <path
       style="fill:#ff0000;stroke:none;stroke-width:0.061593;stroke-miterlimit:4;stroke-dasharray:none;stroke-opacity:1"
       id="path958-80-6"
       sodipodi:type="arc"
       sodipodi:cx="153.53983"
       sodipodi:cy="141.8053"
       sodipodi:rx="3.175"
       sodipodi:ry="3.175"
       sodipodi:start="0"
       sodipodi:end="6.1693026"
       sodipodi:open="true"
       sodipodi:arc-type="arc"
       d="m 156.71483,141.8053 a 3.175,3.175 0 0 1 -3.08462,3.17371 3.175,3.175 0 0 1 -3.26024,-2.99302 3.175,3.175 0 0 1 2.899,-3.34412 3.175,3.175 0 0 1 3.42529,2.80263" />
    <path
       style="fill:#ff0000;stroke:none;stroke-width:0.0615931;stroke-miterlimit:4;stroke-dasharray:none;stroke-opacity:1"
       id="path958-80-1-6"
       sodipodi:type="arc"
       sodipodi:cx="59.877331"
       sodipodi:cy="182.02191"
       sodipodi:rx="3.175"
       sodipodi:ry="3.175"
       sodipodi:start="0"
       sodipodi:end="6.1693026"
       sodipodi:open="true"
       sodipodi:arc-type="arc"
       d="m 63.052331,182.02191 a 3.175,3.175 0 0 1 -3.084618,3.17371 3.175,3.175 0 0 1 -3.260236,-2.99302 3.175,3.175 0 0 1 2.899,-3.34411 3.175,3.175 0 0 1 3.425287,2.80263" />
    <path
       style="fill:#ff0000;stroke:none;stroke-width:0.0615931;stroke-miterlimit:4;stroke-dasharray:none;stroke-opacity:1"
       id="path958-80-7-8"
       sodipodi:type="arc"
       sodipodi:cx="157.24394"
       sodipodi:cy="240.23026"
       sodipodi:rx="3.175"
       sodipodi:ry="3.175"
       sodipodi:start="0"
       sodipodi:end="6.1693026"
       sodipodi:open="true"
       sodipodi:arc-type="arc"
       d="m 160.41894,240.23026 a 3.175,3.175 0 0 1 -3.08462,3.17371 3.175,3.175 0 0 1 -3.26023,-2.99302 3.175,3.175 0 0 1 2.899,-3.34412 3.175,3.175 0 0 1 3.42529,2.80263" />
  </g>
</svg>
