<?xml version="1.0" encoding="UTF-8" standalone="no"?>
<svg
   xmlns:dc="http://purl.org/dc/elements/1.1/"
   xmlns:cc="http://creativecommons.org/ns#"
   xmlns:rdf="http://www.w3.org/1999/02/22-rdf-syntax-ns#"
   xmlns:svg="http://www.w3.org/2000/svg"
   xmlns="http://www.w3.org/2000/svg"
   xmlns:sodipodi="http://sodipodi.sourceforge.net/DTD/sodipodi-0.dtd"
   xmlns:inkscape="http://www.inkscape.org/namespaces/inkscape"
   width="210mm"
   height="297mm"
   viewBox="0 0 210 297"
   version="1.1"
   id="svg1114"
   inkscape:version="1.0.2 (e86c870879, 2021-01-15, custom)"
   sodipodi:docname="Panel9 Oxygen Top.svg">
  <defs
     id="defs1108" />
  <sodipodi:namedview
     id="base"
     pagecolor="#ffffff"
     bordercolor="#666666"
     borderopacity="1.0"
     inkscape:pageopacity="0.0"
     inkscape:pageshadow="2"
     inkscape:zoom="1"
     inkscape:cx="400"
     inkscape:cy="560"
     inkscape:document-units="mm"
     inkscape:current-layer="layer1"
     inkscape:document-rotation="0"
     showgrid="false"
     inkscape:window-width="1431"
     inkscape:window-height="1208"
     inkscape:window-x="256"
     inkscape:window-y="135"
     inkscape:window-maximized="0" />
  <metadata
     id="metadata1111">
    <rdf:RDF>
      <cc:Work
         rdf:about="">
        <dc:format>image/svg+xml</dc:format>
        <dc:type
           rdf:resource="http://purl.org/dc/dcmitype/StillImage" />
        <dc:title />
      </cc:Work>
    </rdf:RDF>
  </metadata>
  <g
     inkscape:label="Layer 1"
     inkscape:groupmode="layer"
     id="layer1">
    <path
       id="rect7320"
       style="fill:none;stroke:#000000;stroke-width:0.25;stroke-miterlimit:4;stroke-dasharray:none;stroke-opacity:1"
       d="m 41.820443,50.660213 v 7.72718 4.77283 4.77284 c 0,4.28091 -3.44628,7.72718 -7.72718,7.72718 h -2.27273 -2.27273 -7.72717 V 190.63513 h 7.60263 2.27273 2.27273 c 4.2809,0 7.72718,3.44627 7.72718,7.72717 v 4.77284 4.77284 7.60263 H 173.14576 v -7.60263 -4.77284 -4.77284 c 0,-4.2809 3.44627,-7.72717 7.72717,-7.72717 h 2.27273 2.27273 7.60264 V 75.535703 h -7.60264 -2.27273 -2.27273 c -4.2809,0 -7.72717,-3.44627 -7.72717,-7.72718 v -4.77284 -4.77283 -7.60264 z" />
    <g
       aria-label="VENT AIRFLOW"
       id="text1898"
       style="font-size:9.87777px;line-height:1.25;font-family:'MS 33558';-inkscape-font-specification:'MS 33558, ';fill:#00ff00;stroke-width:0.264583">
      <path
         d="m 60.709978,80.31413 q -0.04582,-0.342443 0.243568,-0.419613 0.2918,-0.07717 0.414789,0.243568 l 0.812699,3.009636 0.817521,-3.038574 q 0.12299,-0.325562 0.424436,-0.236334 0.301446,0.08682 0.23151,0.412378 l -1.147906,4.26124 q -0.09646,0.248391 -0.32315,0.250803 -0.226687,0 -0.330385,-0.241157 z"
         style="font-size:4.93889px;fill:#00ff00;stroke-width:0.264583"
         id="path864" />
      <path
         d="m 67.008991,80.531171 h -1.999189 v 1.319127 h 1.524111 q 0.342442,0.05064 0.340031,0.344854 0,0.2918 -0.340031,0.340031 h -1.524111 v 1.5844 h 1.999189 q 0.340031,0.05064 0.340031,0.340031 0,0.289388 -0.340031,0.33762 h -2.334397 q -0.301446,-0.03858 -0.342442,-0.342443 v -4.258828 q 0.04582,-0.318327 0.342442,-0.337619 h 2.334397 q 0.340031,0.02653 0.33762,0.340031 0,0.311092 -0.33762,0.332796 z"
         style="font-size:4.93889px;fill:#00ff00;stroke-width:0.264583"
         id="path866" />
      <path
         d="m 71.349813,84.464437 q 0,0.253215 -0.24598,0.32315 -0.243568,0.06752 -0.378616,-0.144694 L 68.6995,81.394512 v 3.069925 q -0.05305,0.33762 -0.342442,0.33762 -0.286977,0 -0.33762,-0.33762 v -4.258828 q 0.03617,-0.250803 0.255626,-0.330384 0.221865,-0.07958 0.36897,0.149517 l 2.025717,3.253204 v -3.072337 q 0.04582,-0.344854 0.349677,-0.340031 0.306269,0.0024 0.330385,0.340031 z"
         style="font-size:4.93889px;fill:#00ff00;stroke-width:0.264583"
         id="path868" />
      <path
         d="m 73.264598,84.459614 v -3.921208 h -0.885046 q -0.337619,-0.02653 -0.337619,-0.33762 0.0024,-0.313504 0.337619,-0.342442 h 2.447741 q 0.332797,0.02653 0.332797,0.342442 0.0024,0.313504 -0.332797,0.33762 H 73.94466 v 3.921208 q -0.05547,0.342443 -0.356912,0.33762 -0.299035,-0.0048 -0.32315,-0.33762 z"
         style="font-size:4.93889px;fill:#00ff00;stroke-width:0.264583"
         id="path870" />
      <path
         d="m 83.431765,83.212834 -0.733116,-2.025717 -0.73794,2.025717 z m -0.733116,-2.025717 0.733116,2.025717 z m -1.86173,3.144684 Q 81.22277,83.2683 81.60862,82.20721 q 0.388263,-1.063501 0.776525,-2.127002 0.07958,-0.219453 0.315915,-0.221864 0.236334,-0.0024 0.318327,0.221864 l 1.545815,4.263651 q 0.07235,0.340031 -0.207395,0.438905 -0.279742,0.09887 -0.43167,-0.202571 l -0.248392,-0.689709 h -1.965427 l -0.241157,0.672828 q -0.15434,0.303857 -0.438905,0.20016 -0.284565,-0.106109 -0.195337,-0.431671 z"
         style="font-size:4.93889px;fill:#00ff00;stroke-width:0.264583"
         id="path872" />
      <path
         d="m 85.725166,84.464437 q -0.05305,0.340031 -0.344854,0.33762 -0.289388,0 -0.340031,-0.33762 v -4.263651 q 0.05064,-0.340031 0.340031,-0.340031 0.2918,-0.0024 0.344854,0.340031 z"
         style="font-size:4.93889px;fill:#00ff00;stroke-width:0.264583"
         id="path874" />
      <path
         d="m 89.455861,84.273923 q 0.15434,0.272508 -0.08682,0.458198 -0.115756,0.08199 -0.267684,0.05547 -0.149518,-0.02653 -0.219453,-0.149517 l -1.188903,-1.878611 h -0.602892 v 1.697744 q 0,0.209806 -0.190513,0.303857 -0.190514,0.09164 -0.356912,-0.03617 -0.132637,-0.09887 -0.132637,-0.267684 v -4.26124 q 0,-0.139871 0.09646,-0.238745 0.09887,-0.09887 0.241157,-0.09887 h 1.497583 q 0.540191,0 0.9381,0.344854 0.397908,0.342442 0.494371,0.870576 0.101286,0.566718 -0.241157,1.061089 -0.340031,0.49196 -0.904337,0.598069 l -0.04582,0.0072 z m -1.210607,-2.192114 q 0.24598,0 0.453375,-0.149517 0.209806,-0.149518 0.282153,-0.390674 0.113344,-0.371382 -0.103697,-0.670416 -0.217041,-0.301446 -0.598069,-0.332796 h -1.188903 v 1.543403 z"
         style="font-size:4.93889px;fill:#00ff00;stroke-width:0.264583"
         id="path876" />
      <path
         d="m 90.340906,84.454791 v -4.254005 q 0.04341,-0.318327 0.342443,-0.342442 h 2.334397 q 0.335208,0.02653 0.335208,0.342442 0,0.313504 -0.340031,0.335208 h -1.994366 v 1.319127 h 1.555461 q 0.332796,0.02412 0.337619,0.325562 0.0048,0.301446 -0.337619,0.352089 h -1.555461 v 1.922019 q -0.02412,0.332796 -0.327974,0.337619 -0.301446,0.0048 -0.349677,-0.337619 z"
         style="font-size:4.93889px;fill:#00ff00;stroke-width:0.264583"
         id="path878" />
      <path
         d="m 94.370633,84.799645 q -0.296623,-0.01929 -0.342442,-0.335208 v -4.263651 q 0.05064,-0.347266 0.352088,-0.340031 0.301446,0.0048 0.327974,0.340031 v 3.926032 l 2.225876,-0.0024 q 0.342443,0.03859 0.33762,0.347266 -0.0024,0.306269 -0.340031,0.327973 z"
         style="font-size:4.93889px;fill:#00ff00;stroke-width:0.264583"
         id="path880" />
      <path
         d="m 101.16643,81.278757 q 0.22186,0.668004 0.1664,1.386651 -0.0531,0.718647 -0.39309,1.311893 -0.21463,0.368969 -0.58601,0.627007 -0.37138,0.258038 -0.819931,0.180868 -0.730705,-0.127813 -1.118967,-0.762056 -0.388263,-0.634242 -0.44614,-1.410766 -0.05547,-0.778937 0.209806,-1.516876 0.267684,-0.73794 0.851283,-1.073148 0.284565,-0.163986 0.595657,-0.163986 0.593242,0 0.969452,0.448551 0.3762,0.44614 0.57154,0.971862 z m -1.521699,-0.735528 q -0.443728,0 -0.672827,0.47749 -0.226688,0.47749 -0.286977,0.81511 -0.04582,0.24598 -0.03376,0.595657 0.01206,0.349677 0.101286,0.69212 0.08923,0.340031 0.267684,0.61495 0.178456,0.272507 0.467844,0.361735 0.33762,0.106109 0.581191,-0.132637 0.24598,-0.241156 0.37138,-0.511252 0.12781,-0.27733 0.17363,-0.728293 0.0482,-0.450963 -0.0217,-0.899515 -0.0675,-0.450963 -0.26769,-0.810286 -0.20016,-0.361736 -0.569127,-0.46061 -0.04823,-0.01447 -0.110932,-0.01447 z"
         style="font-size:4.93889px;fill:#00ff00;stroke-width:0.264583"
         id="path882" />
      <path
         d="m 104.71143,80.133262 0.84405,2.884235 0.56431,-2.884235 q 0.10129,-0.325561 0.3955,-0.265272 0.29662,0.06029 0.2725,0.393085 l -0.8344,4.258828 q -0.0772,0.267684 -0.31591,0.277331 -0.23634,0.0096 -0.34245,-0.243569 l -0.91157,-3.110922 -0.90434,3.110922 q -0.11093,0.26045 -0.34003,0.243569 -0.2291,-0.01688 -0.32315,-0.277331 l -0.8344,-4.258828 q 0,-0.344854 0.27492,-0.395497 0.27492,-0.05305 0.40032,0.267684 l 0.55707,2.889058 0.84405,-2.889058 q 0.1037,-0.238745 0.33038,-0.24598 0.2291,-0.0072 0.32315,0.24598 z"
         style="font-size:4.93889px;fill:#00ff00;stroke-width:0.264583"
         id="path884" />
    </g>
    <path
       id="path1900"
       style="fill:#00ff00;stroke-width:0.25;stroke-miterlimit:4;stroke-dasharray:none"
       inkscape:transform-center-y="1.190624"
       d="m 83.746666,95.607295 -2.062223,-3.571875 -2.062223,-3.571875 4.124446,0 4.124446,0 -2.062223,3.571875 z" />
    <g
       aria-label="HIGH"
       id="text1904"
       style="font-size:9.87777px;line-height:1.25;font-family:'MS 33558';-inkscape-font-specification:'MS 33558, ';fill:#00ff00;stroke-width:0.264583">
      <path
         d="m 47.234016,96.64702 v -3.654554 q 0.04341,-0.297656 0.301791,-0.291455 0.258381,0.0041 0.281119,0.291455 v 1.366324 h 1.66398 v -1.366324 q 0.04341,-0.291455 0.291455,-0.291455 0.250113,-0.0021 0.295589,0.291455 v 3.654554 q -0.04548,0.291455 -0.295589,0.289388 -0.248047,0 -0.291455,-0.289388 v -1.701187 h -1.66398 v 1.701187 q -0.02274,0.285254 -0.281119,0.289388 -0.258382,0.0041 -0.301791,-0.289388 z"
         style="font-size:4.23333px;fill:#00ff00;stroke-width:0.264583"
         id="path888" />
      <path
         d="m 51.217232,96.64702 q -0.04548,0.291455 -0.295588,0.289388 -0.248047,0 -0.291455,-0.289388 v -3.654554 q 0.04341,-0.291455 0.291455,-0.291455 0.250113,-0.0021 0.295588,0.291455 z"
         style="font-size:4.23333px;fill:#00ff00;stroke-width:0.264583"
         id="path890" />
      <path
         d="m 53.218142,95.226953 -0.0186,-0.0021 q -0.252181,-0.03101 -0.252181,-0.287321 0,-0.256315 0.252181,-0.28732 l 0.0186,-0.0041 h 0.0186 0.762743 q 0.11989,0 0.204639,0.08682 0.08682,0.08475 0.08682,0.204638 v 1.047997 l -0.0248,0.05374 -0.01447,0.03307 -0.01447,0.03101 -0.01654,0.031 -0.01654,0.03101 -0.01447,0.03101 -0.01654,0.03101 -0.0186,0.03101 q -0.401009,0.682128 -0.996321,0.667659 -0.595312,-0.01654 -1.000455,-0.67386 -0.192236,-0.312126 -0.285254,-0.781347 -0.09302,-0.471289 -0.05581,-0.961181 0.03721,-0.491959 0.227376,-0.934309 0.192236,-0.444417 0.572574,-0.704866 0.475423,-0.322461 0.926041,-0.07441 0.450618,0.245979 0.67386,0.692463 l 0.01654,0.03307 0.0124,0.02894 0.01654,0.03101 q 0.07028,0.19637 -0.05374,0.320393 -0.119889,0.117823 -0.260449,0.08888 -0.14056,-0.03101 -0.217041,-0.167432 -0.241845,-0.599446 -0.624251,-0.522965 -0.380338,0.07648 -0.570507,0.624251 -0.186035,0.529166 -0.146761,1.138948 0.03927,0.607714 0.396875,1.060399 0.245979,0.31626 0.500227,0.202572 0.254248,-0.113688 0.401009,-0.423747 l 0.02274,-0.04547 v -0.630452 z"
         style="font-size:4.23333px;fill:#00ff00;stroke-width:0.264583"
         id="path892" />
      <path
         d="m 54.964804,96.64702 v -3.654554 q 0.04341,-0.297656 0.30179,-0.291455 0.258382,0.0041 0.28112,0.291455 v 1.366324 h 1.66398 v -1.366324 q 0.04341,-0.291455 0.291454,-0.291455 0.250114,-0.0021 0.295589,0.291455 v 3.654554 q -0.04548,0.291455 -0.295589,0.289388 -0.248046,0 -0.291454,-0.289388 v -1.701187 h -1.66398 v 1.701187 q -0.02274,0.285254 -0.28112,0.289388 -0.258382,0.0041 -0.30179,-0.289388 z"
         style="font-size:4.23333px;fill:#00ff00;stroke-width:0.264583"
         id="path894" />
    </g>
    <path
       id="rect1894"
       style="fill:#ff0000;stroke-width:0.106749;stroke-miterlimit:4;stroke-dasharray:none"
       d="m 61.52166,106.30909 h 44.45 v 12.7 h -44.45 z" />
    <g
       aria-label="LOW"
       id="text1904-3"
       style="font-size:9.87777px;line-height:1.25;font-family:'MS 33558';-inkscape-font-specification:'MS 33558, ';fill:#00ff00;stroke-width:0.264583">
      <path
         d="m 109.61423,96.928787 q -0.25425,-0.01654 -0.29352,-0.287321 v -3.654554 q 0.0434,-0.297656 0.30179,-0.291455 0.25838,0.0041 0.28112,0.291455 v 3.365166 l 1.90789,-0.0021 q 0.29352,0.03307 0.28939,0.297656 -0.002,0.262516 -0.29146,0.28112 z"
         style="font-size:4.23333px;fill:#00ff00;stroke-width:0.264583"
         id="path857" />
      <path
         d="m 115.43919,93.910886 q 0.19017,0.572574 0.14263,1.188557 -0.0455,0.615982 -0.33693,1.124478 -0.18397,0.316259 -0.50229,0.537434 -0.31833,0.221175 -0.7028,0.155029 -0.62632,-0.109554 -0.95912,-0.653189 -0.33279,-0.543636 -0.3824,-1.209228 -0.0475,-0.667659 0.17983,-1.300178 0.22945,-0.632519 0.72967,-0.919839 0.24392,-0.14056 0.51057,-0.14056 0.50849,0 0.83095,0.384472 0.32246,0.382406 0.48989,0.833024 z m -1.30431,-0.630452 q -0.38034,0 -0.57671,0.409277 -0.1943,0.409277 -0.24598,0.698664 -0.0393,0.21084 -0.0289,0.510563 0.0103,0.299723 0.0868,0.593245 0.0765,0.291455 0.22944,0.527099 0.15297,0.233578 0.40101,0.310059 0.28939,0.09095 0.49816,-0.113688 0.21084,-0.206706 0.31833,-0.438216 0.10955,-0.237712 0.14883,-0.624251 0.0413,-0.386539 -0.0186,-0.771012 -0.0579,-0.386539 -0.22944,-0.69453 -0.17156,-0.310059 -0.48782,-0.394808 -0.0413,-0.0124 -0.0951,-0.0124 z"
         style="font-size:4.23333px;fill:#00ff00;stroke-width:0.264583"
         id="path859" />
      <path
         d="m 118.47777,92.929034 0.72346,2.472199 0.4837,-2.472199 q 0.0868,-0.279052 0.33899,-0.227376 0.25425,0.05168 0.23358,0.33693 l -0.7152,3.65042 q -0.0661,0.229443 -0.27079,0.237712 -0.20257,0.0083 -0.29352,-0.208773 l -0.78134,-2.666502 -0.77515,2.666502 q -0.0951,0.223242 -0.29145,0.208773 -0.19638,-0.01447 -0.27699,-0.237712 l -0.7152,-3.65042 q 0,-0.295589 0.23564,-0.338997 0.23565,-0.04547 0.34313,0.229443 l 0.47749,2.476333 0.72347,-2.476333 q 0.0889,-0.204638 0.28319,-0.210839 0.19637,-0.0062 0.27699,0.210839 z"
         style="font-size:4.23333px;fill:#00ff00;stroke-width:0.264583"
         id="path861" />
    </g>
    <circle
       style="fill:#ff0000;stroke-width:0.210559;stroke-miterlimit:4;stroke-dasharray:none"
       id="path1945"
       cx="142.19952"
       cy="173.39485"
       r="6.3499999" />
    <g
       aria-label="OXYGEN"
       id="text1898-0"
       style="font-size:9.87777px;line-height:1.25;font-family:'MS 33558';-inkscape-font-specification:'MS 33558, ';fill:#00ff00;stroke-width:0.264583">
      <path
         d="m 133.98931,153.82245 q 0.22186,0.668 0.16639,1.38665 -0.053,0.71865 -0.39308,1.31189 -0.21463,0.36897 -0.58601,0.62701 -0.37138,0.25804 -0.81994,0.18087 -0.7307,-0.12781 -1.11896,-0.76206 -0.38826,-0.63424 -0.44614,-1.41076 -0.0555,-0.77894 0.2098,-1.51688 0.26769,-0.73794 0.85129,-1.07315 0.28456,-0.16398 0.59565,-0.16398 0.59325,0 0.96945,0.44855 0.37621,0.44614 0.57155,0.97186 z m -1.5217,-0.73553 q -0.44373,0 -0.67283,0.47749 -0.22669,0.47749 -0.28698,0.81511 -0.0458,0.24598 -0.0338,0.59566 0.0121,0.34968 0.10129,0.69212 0.0892,0.34003 0.26768,0.61495 0.17846,0.27251 0.46785,0.36173 0.33761,0.10611 0.58118,-0.13263 0.24598,-0.24116 0.37138,-0.51125 0.12782,-0.27733 0.17364,-0.7283 0.0482,-0.45096 -0.0217,-0.89951 -0.0675,-0.45097 -0.26768,-0.81029 -0.20016,-0.36173 -0.56913,-0.46061 -0.0482,-0.0145 -0.11093,-0.0145 z"
         style="font-size:4.93889px;fill:#00ff00;stroke-width:0.264583"
         id="path940" />
      <path
         d="m 134.84059,156.8345 1.30466,-2.3344 -0.88987,-1.59405 q -0.12781,-0.31591 0.13264,-0.4606 0.26044,-0.14711 0.46302,0.13022 l 0.68006,1.22749 0.68488,-1.22749 q 0.20257,-0.27733 0.46061,-0.13264 0.25804,0.1447 0.13505,0.46544 l -0.88746,1.59163 1.30225,2.3344 q 0.13022,0.31832 -0.13505,0.46543 -0.26527,0.14469 -0.45578,-0.13746 l -1.1045,-1.96784 -1.09244,1.96784 q -0.20981,0.27492 -0.47026,0.13264 -0.25804,-0.14229 -0.12781,-0.46061 z"
         style="font-size:4.93889px;fill:#00ff00;stroke-width:0.264583"
         id="path942" />
      <path
         d="m 141.68703,152.57808 q 0.1881,-0.28215 0.45337,-0.13505 0.26769,0.14711 0.13746,0.46061 l -1.38665,2.47668 v 1.61334 q -0.0217,0.34244 -0.33762,0.34244 -0.3135,0 -0.33521,-0.34244 v -1.61334 l -1.38423,-2.47668 q -0.12782,-0.31109 0.13022,-0.45578 0.25804,-0.14711 0.46061,0.13022 l 1.13102,2.0209 z"
         style="font-size:4.93889px;fill:#00ff00;stroke-width:0.264583"
         id="path944" />
      <path
         d="m 144.56162,155.35138 -0.0217,-0.002 q -0.29421,-0.0362 -0.29421,-0.33521 0,-0.29903 0.29421,-0.3352 l 0.0217,-0.005 h 0.0217 0.88987 q 0.13987,0 0.23875,0.10129 0.10128,0.0989 0.10128,0.23874 v 1.22267 l -0.0289,0.0627 -0.0169,0.0386 -0.0169,0.0362 -0.0193,0.0362 -0.0193,0.0362 -0.0169,0.0362 -0.0193,0.0362 -0.0217,0.0362 q -0.46785,0.79581 -1.16238,0.77893 -0.69453,-0.0193 -1.1672,-0.78617 -0.22427,-0.36415 -0.33279,-0.91157 -0.10852,-0.54984 -0.0651,-1.12138 0.0434,-0.57395 0.26528,-1.09003 0.22427,-0.51849 0.668,-0.82234 0.55466,-0.37621 1.08038,-0.0868 0.52573,0.28698 0.78617,0.80788 l 0.0193,0.0386 0.0145,0.0338 0.0193,0.0362 q 0.082,0.2291 -0.0627,0.37379 -0.13987,0.13746 -0.30386,0.1037 -0.16399,-0.0362 -0.25321,-0.19534 -0.28216,-0.69935 -0.7283,-0.61013 -0.44373,0.0892 -0.66559,0.7283 -0.21704,0.61736 -0.17122,1.32877 0.0458,0.709 0.46302,1.23713 0.28698,0.36897 0.5836,0.23634 0.29662,-0.13264 0.46784,-0.49437 l 0.0265,-0.0531 v -0.73553 z"
         style="font-size:4.93889px;fill:#00ff00;stroke-width:0.264583"
         id="path946" />
      <path
         d="m 149.27623,153.07486 h -1.99919 v 1.31913 h 1.52411 q 0.34245,0.0506 0.34003,0.34486 0,0.2918 -0.34003,0.34003 h -1.52411 v 1.5844 h 1.99919 q 0.34003,0.0506 0.34003,0.34003 0,0.28939 -0.34003,0.33762 h -2.3344 q -0.30144,-0.0386 -0.34244,-0.34245 v -4.25882 q 0.0458,-0.31833 0.34244,-0.33762 h 2.3344 q 0.34003,0.0265 0.33762,0.34003 0,0.31109 -0.33762,0.33279 z"
         style="font-size:4.93889px;fill:#00ff00;stroke-width:0.264583"
         id="path948" />
      <path
         d="m 153.61705,157.00813 q 0,0.25322 -0.24598,0.32315 -0.24357,0.0675 -0.37861,-0.14469 l -2.02572,-3.24838 v 3.06992 q -0.053,0.33762 -0.34244,0.33762 -0.28698,0 -0.33762,-0.33762 v -4.25883 q 0.0362,-0.2508 0.25562,-0.33038 0.22187,-0.0796 0.36897,0.14952 l 2.02572,3.2532 v -3.07234 q 0.0458,-0.34485 0.34968,-0.34003 0.30627,0.002 0.33038,0.34003 z"
         style="font-size:4.93889px;fill:#00ff00;stroke-width:0.264583"
         id="path950" />
    </g>
    <g
       aria-label="ON"
       id="text1973"
       style="font-size:9.87777px;line-height:1.25;font-family:'MS 33558';-inkscape-font-specification:'MS 33558, ';fill:#00ff00;stroke-width:0.264583">
      <path
         d="m 123.09143,166.14571 q 0.19017,0.57258 0.14263,1.18856 -0.0455,0.61598 -0.33693,1.12448 -0.18397,0.31626 -0.5023,0.53743 -0.31832,0.22118 -0.7028,0.15503 -0.62631,-0.10955 -0.95911,-0.65319 -0.3328,-0.54364 -0.3824,-1.20923 -0.0476,-0.66766 0.17983,-1.30018 0.22944,-0.63251 0.72967,-0.91984 0.24391,-0.14055 0.51056,-0.14055 0.5085,0 0.83096,0.38447 0.32246,0.3824 0.48989,0.83302 z m -1.30431,-0.63045 q -0.38034,0 -0.57671,0.40928 -0.1943,0.40927 -0.24598,0.69866 -0.0393,0.21084 -0.0289,0.51056 0.0103,0.29973 0.0868,0.59325 0.0765,0.29145 0.22944,0.5271 0.15296,0.23357 0.40101,0.31006 0.28939,0.091 0.49816,-0.11369 0.21084,-0.20671 0.31833,-0.43822 0.10955,-0.23771 0.14883,-0.62425 0.0413,-0.38654 -0.0186,-0.77101 -0.0579,-0.38654 -0.22944,-0.69453 -0.17157,-0.31006 -0.48783,-0.39481 -0.0413,-0.0124 -0.0951,-0.0124 z"
         style="font-size:4.23333px;fill:#00ff00;stroke-width:0.264583"
         id="path935" />
      <path
         d="m 126.6447,168.87629 q 0,0.21704 -0.21084,0.27699 -0.20877,0.0579 -0.32453,-0.12403 l -1.73632,-2.78432 v 2.63136 q -0.0455,0.28939 -0.29353,0.28939 -0.24598,0 -0.28938,-0.28939 v -3.65042 q 0.031,-0.21497 0.2191,-0.28319 0.19017,-0.0682 0.31626,0.12816 l 1.73633,2.78846 v -2.63343 q 0.0393,-0.29559 0.29972,-0.29145 0.26252,0.002 0.28319,0.29145 z"
         style="font-size:4.23333px;fill:#00ff00;stroke-width:0.264583"
         id="path937" />
    </g>
    <g
       aria-label="OFF"
       id="text1973-5"
       style="font-size:9.87777px;line-height:1.25;font-family:'MS 33558';-inkscape-font-specification:'MS 33558, ';fill:#00ff00;stroke-width:0.264583">
      <path
         d="m 122.1768,180.96105 q 0.19017,0.57257 0.14262,1.18856 -0.0455,0.61598 -0.33693,1.12447 -0.18396,0.31626 -0.50229,0.53744 -0.31833,0.22117 -0.7028,0.15503 -0.62632,-0.10956 -0.95911,-0.65319 -0.3328,-0.54364 -0.38241,-1.20923 -0.0475,-0.66766 0.17983,-1.30018 0.22945,-0.63252 0.72967,-0.91984 0.24392,-0.14056 0.51057,-0.14056 0.50849,0 0.83095,0.38448 0.32246,0.3824 0.4899,0.83302 z m -1.30432,-0.63045 q -0.38033,0 -0.5767,0.40927 -0.19431,0.40928 -0.24598,0.69867 -0.0393,0.21084 -0.0289,0.51056 0.0103,0.29972 0.0868,0.59325 0.0765,0.29145 0.22945,0.5271 0.15296,0.23357 0.40101,0.31005 0.28938,0.0909 0.49816,-0.11368 0.21084,-0.20671 0.31832,-0.43822 0.10956,-0.23771 0.14883,-0.62425 0.0413,-0.38654 -0.0186,-0.77101 -0.0579,-0.38654 -0.22945,-0.69453 -0.17156,-0.31006 -0.48782,-0.39481 -0.0413,-0.0124 -0.0951,-0.0124 z"
         style="font-size:4.23333px;fill:#00ff00;stroke-width:0.264583"
         id="path928" />
      <path
         d="m 122.87546,183.68336 v -3.64628 q 0.0372,-0.27286 0.29352,-0.29353 h 2.00091 q 0.28732,0.0227 0.28732,0.29353 0,0.26871 -0.29145,0.28732 h -1.70946 v 1.13068 h 1.33325 q 0.28526,0.0207 0.28939,0.27905 0.004,0.25838 -0.28939,0.30179 h -1.33325 v 1.64744 q -0.0207,0.28525 -0.28112,0.28939 -0.25838,0.004 -0.29972,-0.28939 z"
         style="font-size:4.23333px;fill:#00ff00;stroke-width:0.264583"
         id="path930" />
      <path
         d="m 126.03599,183.68336 v -3.64628 q 0.0372,-0.27286 0.29352,-0.29353 h 2.00091 q 0.28732,0.0227 0.28732,0.29353 0,0.26871 -0.29145,0.28732 h -1.70946 v 1.13068 h 1.33325 q 0.28526,0.0207 0.28939,0.27905 0.004,0.25838 -0.28939,0.30179 h -1.33325 v 1.64744 q -0.0207,0.28525 -0.28112,0.28939 -0.25838,0.004 -0.29972,-0.28939 z"
         style="font-size:4.23333px;fill:#00ff00;stroke-width:0.264583"
         id="path932" />
    </g>
    <circle
       style="fill:#ff0000;stroke-width:0.1875;stroke-miterlimit:4;stroke-dasharray:none"
       id="path2093"
       cx="62.80677"
       cy="63.857368"
       r="3.175" />
    <circle
       style="fill:#ff0000;stroke-width:0.1875;stroke-miterlimit:4;stroke-dasharray:none"
       id="path2093-4"
       cx="62.80677"
       cy="197.73653"
       r="3.175" />
    <circle
       style="fill:#ff0000;stroke-width:0.1875;stroke-miterlimit:4;stroke-dasharray:none"
       id="path2093-5"
       cx="158.79764"
       cy="128.62726"
       r="3.175" />
    <g
       aria-label="northrop
  grumman"
       id="text887"
       style="font-size:3.52777px;line-height:1.25;font-family:'MS 33558';-inkscape-font-specification:'MS 33558, ';fill:#00ff00;stroke-width:0.264583">
      <path
         d="m 48.30714,176.45005 q 0,0.18087 -0.1757,0.23082 -0.173977,0.0482 -0.270439,-0.10335 l -1.446937,-2.32027 v 2.1928 q -0.0379,0.24115 -0.244601,0.24115 -0.204983,0 -0.241156,-0.24115 v -3.04201 q 0.02584,-0.17915 0.182589,-0.23599 0.158474,-0.0569 0.263549,0.10679 l 1.446937,2.32372 v -2.19452 q 0.03273,-0.24633 0.249769,-0.24288 0.218763,0.002 0.235989,0.24288 z"
         style="fill:#00ff00;stroke-width:0.264583"
         id="path897" />
      <path
         d="m 51.092493,174.17457 q 0.158474,0.47714 0.118856,0.99046 -0.0379,0.51332 -0.280775,0.93706 -0.153306,0.26355 -0.418578,0.44787 -0.265272,0.18431 -0.585665,0.12919 -0.521931,-0.0913 -0.79926,-0.54433 -0.27733,-0.45303 -0.318671,-1.00769 -0.03962,-0.55638 0.149861,-1.08348 0.191203,-0.52709 0.608058,-0.76653 0.203261,-0.11713 0.425469,-0.11713 0.423746,0 0.692462,0.32039 0.268717,0.31867 0.408243,0.69419 z m -1.086925,-0.52538 q -0.316948,0 -0.48059,0.34107 -0.161919,0.34106 -0.204982,0.58222 -0.03273,0.17569 -0.02412,0.42546 0.0086,0.24977 0.07235,0.49437 0.06373,0.24288 0.191202,0.43925 0.127468,0.19465 0.334174,0.25838 0.241156,0.0758 0.415133,-0.0947 0.175699,-0.17225 0.265272,-0.36518 0.09129,-0.19809 0.124023,-0.5202 0.03445,-0.32212 -0.0155,-0.64251 -0.04823,-0.32212 -0.191203,-0.57878 -0.142971,-0.25838 -0.40652,-0.329 -0.03445,-0.0103 -0.07924,-0.0103 z"
         style="fill:#00ff00;stroke-width:0.264583"
         id="path899" />
      <path
         d="m 53.850286,176.31397 q 0.110243,0.19464 -0.06201,0.32728 -0.08268,0.0586 -0.191203,0.0396 -0.106798,-0.0189 -0.156751,-0.1068 l -0.849214,-1.34186 h -0.430636 v 1.21267 q 0,0.14986 -0.136081,0.21704 -0.136081,0.0655 -0.254937,-0.0258 -0.09474,-0.0706 -0.09474,-0.1912 v -3.04373 q 0,-0.0999 0.0689,-0.17054 0.07062,-0.0706 0.172254,-0.0706 h 1.0697 q 0.38585,0 0.67007,0.24632 0.284219,0.2446 0.353121,0.62184 0.07235,0.4048 -0.172254,0.75792 -0.242879,0.3514 -0.645954,0.42719 l -0.03273,0.005 z m -0.864717,-1.5658 q 0.1757,0 0.323838,-0.10679 0.149862,-0.1068 0.201538,-0.27905 0.08096,-0.26528 -0.07407,-0.47887 -0.155029,-0.21532 -0.427191,-0.23771 h -0.849214 v 1.10242 z"
         style="fill:#00ff00;stroke-width:0.264583"
         id="path901" />
      <path
         d="m 55.35579,176.4466 v -2.80085 h -0.632174 q -0.241156,-0.0189 -0.241156,-0.24116 0.0017,-0.22393 0.241156,-0.2446 h 1.748382 q 0.237711,0.019 0.237711,0.2446 0.0017,0.22393 -0.237711,0.24116 h -0.630451 v 2.80085 q -0.03962,0.2446 -0.254936,0.24116 -0.213596,-0.003 -0.230821,-0.24116 z"
         style="fill:#00ff00;stroke-width:0.264583"
         id="path903" />
      <path
         d="m 57.22475,176.45005 v -3.04546 q 0.03617,-0.24805 0.251491,-0.24288 0.215318,0.003 0.234266,0.24288 v 1.1386 h 1.386648 v -1.1386 q 0.03617,-0.24288 0.242879,-0.24288 0.208427,-0.002 0.246323,0.24288 v 3.04546 q -0.0379,0.24288 -0.246323,0.24115 -0.206706,0 -0.242879,-0.24115 v -1.41766 h -1.386648 v 1.41766 q -0.01895,0.23771 -0.234266,0.24115 -0.215318,0.003 -0.251491,-0.24115 z"
         style="fill:#00ff00;stroke-width:0.264583"
         id="path905" />
      <path
         d="m 62.230463,176.31397 q 0.110243,0.19464 -0.06201,0.32728 -0.08268,0.0586 -0.191202,0.0396 -0.106798,-0.0189 -0.156752,-0.1068 l -0.849214,-1.34186 h -0.430636 v 1.21267 q 0,0.14986 -0.136081,0.21704 -0.136081,0.0655 -0.254936,-0.0258 -0.09474,-0.0706 -0.09474,-0.1912 v -3.04373 q 0,-0.0999 0.0689,-0.17054 0.07062,-0.0706 0.172255,-0.0706 h 1.0697 q 0.385849,0 0.670069,0.24632 0.28422,0.2446 0.353122,0.62184 0.07235,0.4048 -0.172255,0.75792 -0.242878,0.3514 -0.645954,0.42719 l -0.03273,0.005 z m -0.864717,-1.5658 q 0.175699,0 0.323838,-0.10679 0.149861,-0.1068 0.201538,-0.27905 0.08096,-0.26528 -0.07407,-0.47887 -0.155029,-0.21532 -0.427191,-0.23771 h -0.849214 v 1.10242 z"
         style="fill:#00ff00;stroke-width:0.264583"
         id="path907" />
      <path
         d="m 65.15362,174.17457 q 0.158474,0.47714 0.118856,0.99046 -0.0379,0.51332 -0.280775,0.93706 -0.153307,0.26355 -0.418578,0.44787 -0.265272,0.18431 -0.585665,0.12919 -0.521931,-0.0913 -0.799261,-0.54433 -0.277329,-0.45303 -0.31867,-1.00769 -0.03962,-0.55638 0.149861,-1.08348 0.191202,-0.52709 0.608058,-0.76653 0.20326,-0.11713 0.425468,-0.11713 0.423746,0 0.692463,0.32039 0.268717,0.31867 0.408243,0.69419 z m -1.086925,-0.52538 q -0.316948,0 -0.48059,0.34107 -0.161919,0.34106 -0.204983,0.58222 -0.03273,0.17569 -0.02411,0.42546 0.0086,0.24977 0.07235,0.49437 0.06373,0.24288 0.191202,0.43925 0.127468,0.19465 0.334173,0.25838 0.241157,0.0758 0.415134,-0.0947 0.175699,-0.17225 0.265271,-0.36518 0.0913,-0.19809 0.124023,-0.5202 0.03445,-0.32212 -0.0155,-0.64251 -0.04823,-0.32212 -0.191203,-0.57878 -0.142971,-0.25838 -0.40652,-0.329 -0.03445,-0.0103 -0.07924,-0.0103 z"
         style="fill:#00ff00;stroke-width:0.264583"
         id="path909" />
      <path
         d="m 67.060476,173.15999 h 0.03273 q 0.220486,0.0155 0.406521,0.0999 0.356566,0.16708 0.504705,0.54949 0.148139,0.3824 -0.0034,0.74586 -0.1223,0.28766 -0.361734,0.45131 -0.239434,0.16192 -0.546047,0.18086 l -0.03273,0.002 H 66.22332 v 1.25573 q -0.03101,0.24288 -0.244601,0.24288 -0.213596,0 -0.242879,-0.24288 v -3.04373 q 0.02584,-0.2136 0.227376,-0.24116 h 0.0155 z m 0,0.48576 H 66.22332 v 1.05592 h 0.837156 q 0.19637,0 0.346231,-0.13092 0.151584,-0.13091 0.177423,-0.32728 0.031,-0.23771 -0.127469,-0.41686 -0.158474,-0.18086 -0.396185,-0.18086 z"
         style="fill:#00ff00;stroke-width:0.264583"
         id="path911" />
      <path
         d="m 54.162067,179.67637 -0.0155,-0.002 q -0.210151,-0.0258 -0.210151,-0.23943 0,-0.2136 0.210151,-0.23944 l 0.0155,-0.003 h 0.0155 0.635618 q 0.09991,0 0.170532,0.0724 0.07235,0.0706 0.07235,0.17053 v 0.87333 l -0.02067,0.0448 -0.01206,0.0276 -0.01206,0.0258 -0.01378,0.0258 -0.01378,0.0258 -0.01206,0.0258 -0.01378,0.0258 -0.0155,0.0258 q -0.334173,0.56844 -0.830266,0.55638 -0.496093,-0.0138 -0.833711,-0.56155 -0.160197,-0.2601 -0.237711,-0.65112 -0.07752,-0.39274 -0.04651,-0.80098 0.03101,-0.40997 0.18948,-0.77859 0.160196,-0.37035 0.477144,-0.58739 0.396186,-0.26871 0.7717,-0.062 0.375515,0.20498 0.561549,0.57705 l 0.01378,0.0276 0.01034,0.0241 0.01378,0.0258 q 0.05857,0.16364 -0.04479,0.26699 -0.09991,0.0982 -0.21704,0.0741 -0.117133,-0.0258 -0.180867,-0.13952 -0.201538,-0.49954 -0.520209,-0.43581 -0.316948,0.0637 -0.475422,0.52021 -0.155029,0.44097 -0.1223,0.94912 0.03273,0.50643 0.330728,0.88367 0.204983,0.26355 0.416856,0.16881 0.211873,-0.0947 0.334173,-0.35312 l 0.01895,-0.0379 v -0.52538 z"
         style="fill:#00ff00;stroke-width:0.264583"
         id="path913" />
      <path
         d="m 57.79319,180.72368 q 0.110242,0.19465 -0.06201,0.32728 -0.08268,0.0586 -0.191202,0.0396 -0.106798,-0.0189 -0.156752,-0.1068 l -0.849214,-1.34186 h -0.430636 v 1.21267 q 0,0.14986 -0.136081,0.21704 -0.136081,0.0655 -0.254936,-0.0258 -0.09474,-0.0706 -0.09474,-0.19121 v -3.04373 q 0,-0.0999 0.0689,-0.17053 0.07062,-0.0706 0.172255,-0.0706 h 1.0697 q 0.385849,0 0.670069,0.24633 0.28422,0.2446 0.353122,0.62183 0.07235,0.4048 -0.172255,0.75792 -0.242878,0.3514 -0.645954,0.42719 l -0.03273,0.005 z m -0.864717,-1.56579 q 0.175699,0 0.323838,-0.1068 0.149861,-0.1068 0.201538,-0.27905 0.08096,-0.26527 -0.07407,-0.47887 -0.155029,-0.21532 -0.427191,-0.23771 h -0.849214 v 1.10243 z"
         style="fill:#00ff00;stroke-width:0.264583"
         id="path915" />
      <path
         d="m 60.747353,179.93475 v 0.0345 q -0.0052,0.0861 -0.0069,0.10335 -0.07235,0.5271 -0.432359,0.77859 -0.360012,0.24977 -0.768255,0.23426 -0.408242,-0.0172 -0.747584,-0.298 -0.337618,-0.28077 -0.366901,-0.8182 v -0.0345 -2.12389 q 0,-0.0517 0.01895,-0.093 0.08268,-0.18087 0.273884,-0.14297 0.192925,0.0379 0.192925,0.23599 v 2.12389 q 0.02584,0.39619 0.347954,0.59256 0.323838,0.19637 0.680405,-0.0172 0.160196,-0.0947 0.234266,-0.2446 0.07579,-0.14986 0.08957,-0.33073 v -2.12389 q 0,-0.031 0.0034,-0.0465 0.03962,-0.21187 0.260104,-0.1912 0.220486,0.0207 0.220486,0.23771 z"
         style="fill:#00ff00;stroke-width:0.264583"
         id="path917" />
      <path
         d="m 63.735966,180.85632 q -0.0379,0.24115 -0.244601,0.24115 -0.204983,-0.002 -0.241156,-0.24115 v -2.15146 l -0.590833,1.01113 q -0.09474,0.11369 -0.211873,0.11886 -0.11541,0.005 -0.206705,-0.11886 l -0.587388,-1.00596 0.0017,2.14629 q -0.02756,0.23943 -0.249769,0.23943 -0.220485,-0.002 -0.237711,-0.23943 v -3.04202 q 0.01378,-0.19809 0.173977,-0.23599 0.160197,-0.0396 0.279052,0.10852 l 0.828544,1.42455 0.837156,-1.42455 q 0.118856,-0.14813 0.275607,-0.10852 0.158474,0.0396 0.173977,0.23599 z"
         style="fill:#00ff00;stroke-width:0.264583"
         id="path919" />
      <path
         d="m 66.717689,180.85632 q -0.0379,0.24115 -0.244601,0.24115 -0.204983,-0.002 -0.241156,-0.24115 v -2.15146 l -0.590833,1.01113 q -0.09474,0.11369 -0.211873,0.11886 -0.11541,0.005 -0.206705,-0.11886 l -0.587388,-1.00596 0.0017,2.14629 q -0.02756,0.23943 -0.249769,0.23943 -0.220486,-0.002 -0.237711,-0.23943 v -3.04202 q 0.01378,-0.19809 0.173977,-0.23599 0.160196,-0.0396 0.279052,0.10852 l 0.828544,1.42455 0.837156,-1.42455 q 0.118856,-0.14813 0.275607,-0.10852 0.158474,0.0396 0.173977,0.23599 z"
         style="fill:#00ff00;stroke-width:0.264583"
         id="path921" />
      <path
         d="m 68.996615,179.96576 -0.523654,-1.44694 -0.527098,1.44694 z m -0.523654,-1.44694 0.523654,1.44694 z m -1.329803,2.2462 q 0.275607,-0.75964 0.551214,-1.51756 0.277329,-0.75964 0.554659,-1.51928 0.05684,-0.15676 0.225653,-0.15848 0.168809,-0.002 0.227376,0.15848 l 1.10415,3.04545 q 0.05168,0.24288 -0.148138,0.31351 -0.199815,0.0706 -0.308336,-0.1447 l -0.177422,-0.49264 h -1.403873 l -0.172254,0.48059 q -0.110243,0.21704 -0.313503,0.14297 -0.203261,-0.0758 -0.139526,-0.30834 z"
         style="fill:#00ff00;stroke-width:0.264583"
         id="path923" />
      <path
         d="m 72.524385,180.85976 q 0,0.18087 -0.1757,0.23082 -0.173977,0.0482 -0.270439,-0.10335 l -1.446937,-2.32027 v 2.1928 q -0.0379,0.24116 -0.244601,0.24116 -0.204983,0 -0.241156,-0.24116 v -3.04201 q 0.02584,-0.17915 0.182589,-0.23599 0.158474,-0.0568 0.26355,0.1068 l 1.446937,2.32371 v -2.19452 q 0.03273,-0.24633 0.249768,-0.24288 0.218763,0.002 0.235989,0.24288 z"
         style="fill:#00ff00;stroke-width:0.264583"
         id="path925" />
    </g>
    <path
       id="rect891"
       style="fill:#00ff00;stroke-width:0.18081"
       d="m 68.947053,173.15767 v 1.05834 h 7.9375 v 6.8156 h 1.05834 v -6.8156 -1.05834 h -1.05834 z" />
    <path
       id="path1945-0"
       style="fill:#ff0000;stroke-width:0.210559;stroke-miterlimit:4;stroke-dasharray:none"
       d="m 148.54952,173.39485 a 6.3499999,6.3499999 0 0 1 -6.35,6.35 6.3499999,6.3499999 0 0 1 -6.35,-6.35 6.3499999,6.3499999 0 0 1 6.35,-6.35 6.3499999,6.3499999 0 0 1 6.35,6.35 z" />
    <path
       id="path2093-3"
       style="fill:#ff0000;stroke-width:0.1875;stroke-miterlimit:4;stroke-dasharray:none"
       d="m 65.981774,63.857353 a 3.175,3.175 0 0 1 -3.175,3.175 3.175,3.175 0 0 1 -3.175,-3.175 3.175,3.175 0 0 1 3.175,-3.175 3.175,3.175 0 0 1 3.175,3.175 z" />
    <path
       id="path2093-4-2"
       style="fill:#ff0000;stroke-width:0.1875;stroke-miterlimit:4;stroke-dasharray:none"
       d="m 65.981774,197.73653 a 3.175,3.175 0 0 1 -3.175,3.175 3.175,3.175 0 0 1 -3.175,-3.175 3.175,3.175 0 0 1 3.175,-3.175 3.175,3.175 0 0 1 3.175,3.175 z" />
    <path
       id="path2093-5-6"
       style="fill:#ff0000;stroke-width:0.1875;stroke-miterlimit:4;stroke-dasharray:none"
       d="m 161.97264,128.62726 a 3.175,3.175 0 0 1 -3.175,3.175 3.175,3.175 0 0 1 -3.175,-3.175 3.175,3.175 0 0 1 3.175,-3.175 3.175,3.175 0 0 1 3.175,3.175 z" />
  </g>
</svg>
