<?xml version="1.0" encoding="UTF-8" standalone="no"?>
<svg
   xmlns:dc="http://purl.org/dc/elements/1.1/"
   xmlns:cc="http://creativecommons.org/ns#"
   xmlns:rdf="http://www.w3.org/1999/02/22-rdf-syntax-ns#"
   xmlns:svg="http://www.w3.org/2000/svg"
   xmlns="http://www.w3.org/2000/svg"
   xmlns:sodipodi="http://sodipodi.sourceforge.net/DTD/sodipodi-0.dtd"
   xmlns:inkscape="http://www.inkscape.org/namespaces/inkscape"
   width="210mm"
   height="297mm"
   viewBox="0 0 210 297"
   version="1.1"
   id="svg1329"
   inkscape:version="1.0.2 (e86c870879, 2021-01-15, custom)"
   sodipodi:docname="Panel8 TACAN Bottom.svg">
  <defs
     id="defs1323" />
  <sodipodi:namedview
     id="base"
     pagecolor="#ffffff"
     bordercolor="#666666"
     borderopacity="1.0"
     inkscape:pageopacity="0.0"
     inkscape:pageshadow="2"
     inkscape:zoom="0.35"
     inkscape:cx="400"
     inkscape:cy="560"
     inkscape:document-units="mm"
     inkscape:current-layer="layer1"
     inkscape:document-rotation="0"
     showgrid="false"
     inkscape:window-width="1500"
     inkscape:window-height="938"
     inkscape:window-x="-6"
     inkscape:window-y="-6"
     inkscape:window-maximized="1" />
  <metadata
     id="metadata1326">
    <rdf:RDF>
      <cc:Work
         rdf:about="">
        <dc:format>image/svg+xml</dc:format>
        <dc:type
           rdf:resource="http://purl.org/dc/dcmitype/StillImage" />
        <dc:title />
      </cc:Work>
    </rdf:RDF>
  </metadata>
  <g
     inkscape:label="Layer 1"
     inkscape:groupmode="layer"
     id="layer1">
    <g
       id="g990">
      <rect
         style="fill:none;stroke:#000000;stroke-width:0.264044;stroke-miterlimit:4;stroke-dasharray:none;stroke-opacity:1"
         id="rect7314-3-4-9-8-6-7-7"
         width="171.18596"
         height="126.73595"
         x="20.996309"
         y="88.578453" />
      <path
         id="path2776-4-3-0-4-8-1"
         style="fill:#ff0000;stroke-width:0.250195;stroke-miterlimit:4;stroke-dasharray:none"
         d="m 33.925584,102.95039 a 3.1799762,3.175 0 0 1 -3.179977,3.175 3.1799762,3.175 0 0 1 -3.179976,-3.175 3.1799762,3.175 0 0 1 3.179976,-3.174996 3.1799762,3.175 0 0 1 3.179977,3.174996 z" />
      <path
         id="path2776-7-6-6-9-6-8-7"
         style="fill:#ff0000;stroke-width:0.250195;stroke-miterlimit:4;stroke-dasharray:none"
         d="m 185.61294,102.95037 a 3.1799762,3.175 0 0 1 -3.17997,3.175 3.1799762,3.175 0 0 1 -3.17998,-3.175 3.1799762,3.175 0 0 1 3.17998,-3.174999 3.1799762,3.175 0 0 1 3.17997,3.174999 z" />
      <path
         id="path2776-3-5-7-3-3-3-7"
         style="fill:#ff0000;stroke-width:0.250195;stroke-miterlimit:4;stroke-dasharray:none"
         d="m 185.61294,200.92746 a 3.1799762,3.175 0 0 1 -3.17997,3.175 3.1799762,3.175 0 0 1 -3.17998,-3.175 3.1799762,3.175 0 0 1 3.17998,-3.175 3.1799762,3.175 0 0 1 3.17997,3.175 z" />
      <path
         id="path2776-8-9-8-2-9-6-7"
         style="fill:#ff0000;stroke-width:0.250195;stroke-miterlimit:4;stroke-dasharray:none"
         d="m 33.925584,200.92746 a 3.1799762,3.175 0 0 1 -3.179977,3.175 3.1799762,3.175 0 0 1 -3.179976,-3.175 3.1799762,3.175 0 0 1 3.179976,-3.175 3.1799762,3.175 0 0 1 3.179977,3.175 z" />
      <path
         id="path2195-88-6-5"
         style="fill:#ff0000;stroke-width:0.105033"
         d="m 125.02068,123.90171 a 6.3499999,6.3499999 0 0 1 -6.35,6.35 6.3499999,6.3499999 0 0 1 -6.35,-6.35 6.3499999,6.3499999 0 0 1 6.35,-6.35 6.3499999,6.3499999 0 0 1 6.35,6.35 z" />
      <path
         id="path8-04-7-7-4-1-9"
         style="fill:#ff0000;stroke-width:0.172385"
         d="m 158.13457,129.67248 a 4.8260002,4.8260002 0 0 1 -4.826,4.826 4.8260002,4.8260002 0 0 1 -4.826,-4.826 4.8260002,4.8260002 0 0 1 4.826,-4.826 4.8260002,4.8260002 0 0 1 4.826,4.826 z" />
      <path
         id="path8-04-7-7-9-3-7-1"
         style="fill:#ff0000;stroke-width:0.114319"
         d="m 59.418836,107.1574 a 3.2004002,3.2004002 0 0 1 -3.2004,3.2004 3.2004002,3.2004002 0 0 1 -3.2004,-3.2004 3.2004002,3.2004002 0 0 1 3.2004,-3.2004 3.2004002,3.2004002 0 0 1 3.2004,3.2004 z" />
      <path
         id="path8-04-7-7-3-6-5-4"
         style="fill:#ff0000;stroke-width:0.114319"
         d="m 75.665416,107.1574 a 3.2004002,3.2004002 0 0 1 -3.2004,3.2004 3.2004002,3.2004002 0 0 1 -3.2004,-3.2004 3.2004002,3.2004002 0 0 1 3.2004,-3.2004 3.2004002,3.2004002 0 0 1 3.2004,3.2004 z" />
      <path
         id="path2195-8-8-4-8"
         style="fill:#ff0000;stroke-width:0.105033"
         d="m 101.85343,111.55482 a 6.3499999,6.3499999 0 0 1 -6.349997,6.35 6.3499999,6.3499999 0 0 1 -6.35,-6.35 6.3499999,6.3499999 0 0 1 6.35,-6.35 6.3499999,6.3499999 0 0 1 6.349997,6.35 z" />
      <path
         id="path2659-3-1-7-9"
         style="fill:#ff0000;stroke-width:0.268926"
         d="m 159.53257,103.08816 a 3.175,3.175 0 0 1 -3.175,3.175 3.175,3.175 0 0 1 -3.175,-3.175 3.175,3.175 0 0 1 3.175,-3.175002 3.175,3.175 0 0 1 3.175,3.175002 z" />
      <path
         id="path2659-7-5-2-7-2"
         style="fill:#ff0000;stroke-width:0.268926"
         d="m 107.85066,203.62978 a 3.175,3.175 0 0 1 -3.175,3.175 3.175,3.175 0 0 1 -3.175,-3.175 3.175,3.175 0 0 1 3.175,-3.175 3.175,3.175 0 0 1 3.175,3.175 z" />
      <path
         id="path8-2-1-3-6-5"
         style="fill:#ff0000;stroke-width:0.1786"
         d="m 155.38205,175.99927 a 5,5 0 0 1 -5,5 5,5 0 0 1 -5,-5 5,5 0 0 1 5,-5 5,5 0 0 1 5,5 z" />
      <path
         id="path933-6-9-9-2-7"
         style="fill:#ff0000;stroke-width:0.25;stroke-miterlimit:4;stroke-dasharray:none"
         d="m 57.921113,193.56778 a 3.175,3.175 0 0 1 -3.084618,3.17371 3.175,3.175 0 0 1 -3.260236,-2.99302 3.175,3.175 0 0 1 2.899,-3.34412 3.175,3.175 0 0 1 3.425287,2.80263" />
      <path
         id="path933-1-1-6-7-0-5"
         style="fill:#ff0000;stroke-width:0.25;stroke-miterlimit:4;stroke-dasharray:none"
         d="m 88.348126,146.96503 a 3.175,3.175 0 0 1 -3.084618,3.17371 3.175,3.175 0 0 1 -3.260236,-2.99302 3.175,3.175 0 0 1 2.899001,-3.34412 3.175,3.175 0 0 1 3.425287,2.80263" />
      <path
         id="path933-9-8-7-3-4-4"
         style="fill:#ff0000;stroke-width:0.25;stroke-miterlimit:4;stroke-dasharray:none"
         d="m 88.348141,193.56778 a 3.175,3.175 0 0 1 -3.084617,3.17371 3.175,3.175 0 0 1 -3.260237,-2.99302 3.175,3.175 0 0 1 2.899001,-3.34412 3.175,3.175 0 0 1 3.425287,2.80263" />
      <path
         id="path933-0-0-6-7-1-7"
         style="fill:#ff0000;stroke-width:0.25;stroke-miterlimit:4;stroke-dasharray:none"
         d="m 57.921113,146.96503 a 3.175,3.175 0 0 1 -3.084618,3.17371 3.175,3.175 0 0 1 -3.260236,-2.99302 3.175,3.175 0 0 1 2.899,-3.34412 3.175,3.175 0 0 1 3.425287,2.80263" />
      <path
         id="path2195-9-9-4-0-8-4-2"
         style="fill:#ff0000;stroke-width:0.19685;stroke-miterlimit:4;stroke-dasharray:none"
         d="m 74.806976,170.25816 a 5,5 0 0 1 -5,5 5,5 0 0 1 -5,-5 5,5 0 0 1 5,-5 5,5 0 0 1 5,5 z" />
      <path
         id="path1589-5-9-7-9"
         style="fill:#ff0000;stroke:none;stroke-width:0.177252"
         d="m 117.6365,179.19854 a 3,3 0 0 1 -2.9146,2.99878 3,3 0 0 1 -3.08054,-2.82806 3,3 0 0 1 2.73922,-3.15978 3,3 0 0 1 3.23649,2.64814" />
    </g>
  </g>
</svg>
