<?xml version="1.0" encoding="UTF-8" standalone="no"?>
<svg
   xmlns:dc="http://purl.org/dc/elements/1.1/"
   xmlns:cc="http://creativecommons.org/ns#"
   xmlns:rdf="http://www.w3.org/1999/02/22-rdf-syntax-ns#"
   xmlns:svg="http://www.w3.org/2000/svg"
   xmlns="http://www.w3.org/2000/svg"
   xmlns:sodipodi="http://sodipodi.sourceforge.net/DTD/sodipodi-0.dtd"
   xmlns:inkscape="http://www.inkscape.org/namespaces/inkscape"
   width="210mm"
   height="297mm"
   viewBox="0 0 210 297"
   version="1.1"
   id="svg1964"
   inkscape:version="1.0.1 (3bc2e813f5, 2020-09-07)"
   sodipodi:docname="Panel8 TACAN Top.svg">
  <defs
     id="defs1958" />
  <sodipodi:namedview
     id="base"
     pagecolor="#ffffff"
     bordercolor="#666666"
     borderopacity="1.0"
     inkscape:pageopacity="0.0"
     inkscape:pageshadow="2"
     inkscape:zoom="1"
     inkscape:cx="340.59579"
     inkscape:cy="560"
     inkscape:document-units="mm"
     inkscape:current-layer="layer1"
     inkscape:document-rotation="0"
     showgrid="false"
     inkscape:window-width="3440"
     inkscape:window-height="1377"
     inkscape:window-x="-8"
     inkscape:window-y="-8"
     inkscape:window-maximized="1" />
  <metadata
     id="metadata1961">
    <rdf:RDF>
      <cc:Work
         rdf:about="">
        <dc:format>image/svg+xml</dc:format>
        <dc:type
           rdf:resource="http://purl.org/dc/dcmitype/StillImage" />
        <dc:title />
      </cc:Work>
    </rdf:RDF>
  </metadata>
  <g
     inkscape:label="Layer 1"
     inkscape:groupmode="layer"
     id="layer1">
    <g
       id="g1131">
      <path
         id="rect7314-7-2"
         style="fill:none;stroke:#000000;stroke-width:0.264044;stroke-miterlimit:4;stroke-dasharray:none;stroke-opacity:1"
         d="m 38.68721,80.036228 v 10.84946 2.78475 2.78475 c 0,6.170742 -4.46655,11.138422 -10.01479,11.138422 h -9.75497 v 71.33219 h 10.01478 c 5.54824,0 10.01478,4.96767 10.01478,11.13841 v 2.78474 2.78475 11.13841 h 131.38663 v -10.84946 -2.78475 -2.78475 c 0,-6.17074 4.46653,-11.13841 10.01477,-11.13841 h 9.75498 v -71.33218 h -10.01478 c -5.54824,0 -10.01478,-4.96768 -10.01478,-11.138422 v -2.78475 -2.78475 -11.13841 z" />
      <g
         aria-label="t a c a n"
         id="text2185-8-9"
         style="font-size:4.93889px;line-height:1.25;font-family:'MS 33558';-inkscape-font-specification:'MS 33558, ';text-align:center;text-anchor:middle;fill:#00ff00;stroke-width:0.264583"
         transform="translate(-1.58748,-62.836662)">
        <path
           d="m 26.974854,196.02211 v -3.92121 h -0.885045 q -0.33762,-0.0265 -0.33762,-0.33762 0.0024,-0.31351 0.33762,-0.34244 h 2.44774 q 0.332797,0.0265 0.332797,0.34244 0.0024,0.3135 -0.332797,0.33762 h -0.882633 v 3.92121 q -0.05547,0.34244 -0.356912,0.33762 -0.299034,-0.005 -0.32315,-0.33762 z"
           style="font-size:4.93889px;text-align:center;text-anchor:middle;fill:#00ff00;stroke-width:0.264583"
           id="path919-8-3" />
        <path
           d="m 28.173403,200.94894 -0.733117,-2.02572 -0.737939,2.02572 z m -0.733117,-2.02572 0.733117,2.02572 z m -1.86173,3.14469 q 0.385851,-1.06351 0.771702,-2.12459 0.388262,-1.06351 0.776525,-2.12701 0.07958,-0.21945 0.315915,-0.22186 0.236334,-0.002 0.318327,0.22186 l 1.545814,4.26365 q 0.07235,0.34003 -0.207394,0.43891 -0.279742,0.0989 -0.431671,-0.20257 l -0.248391,-0.68971 h -1.965428 l -0.241156,0.67283 q -0.154341,0.30385 -0.438906,0.20016 -0.284565,-0.10611 -0.195337,-0.43167 z"
           style="font-size:4.93889px;text-align:center;text-anchor:middle;fill:#00ff00;stroke-width:0.264583"
           id="path921-9-1" />
        <path
           d="m 28.888433,207.93525 -0.02171,0.0314 q -0.0072,0.01 -0.01206,0.0169 -0.0048,0.007 -0.0096,0.0145 -0.330384,0.44614 -0.868164,0.63665 -0.535368,0.18811 -1.056266,-0.0699 -0.605304,-0.30145 -0.889869,-1.02251 -0.282153,-0.72105 -0.243568,-1.49758 0.041,-0.77894 0.409966,-1.43006 0.371382,-0.65112 1.075559,-0.81511 0.405144,-0.094 0.807875,0.0796 0.402732,0.17122 0.66077,0.48232 0.0024,0 0.01206,0.0169 0.110932,0.14469 0.04582,0.31832 -0.06511,0.17123 -0.238746,0.21463 -0.18569,0.0482 -0.342442,-0.11093 -0.32315,-0.3762 -0.622185,-0.36173 -0.299034,0.0145 -0.535368,0.24598 -0.236333,0.23151 -0.393085,0.59324 -0.156752,0.36174 -0.192925,0.67765 -0.04341,0.35209 0.0072,0.709 0.05306,0.3545 0.219453,0.66801 0.289388,0.54983 0.728293,0.68971 0.441317,0.13746 0.86093,-0.42203 0.01929,-0.0241 0.04582,-0.0627 0.226687,-0.2508 0.47749,-0.0506 0.253215,0.19775 0.07476,0.44855 z"
           style="font-size:4.93889px;text-align:center;text-anchor:middle;fill:#00ff00;stroke-width:0.264583"
           id="path923-4-8" />
        <path
           d="m 28.173403,213.29616 -0.733117,-2.02571 -0.737939,2.02571 z m -0.733117,-2.02571 0.733117,2.02571 z m -1.86173,3.14468 q 0.385851,-1.0635 0.771702,-2.12459 0.388262,-1.0635 0.776525,-2.127 0.07958,-0.21946 0.315915,-0.22187 0.236334,-0.002 0.318327,0.22187 l 1.545814,4.26365 q 0.07235,0.34003 -0.207394,0.4389 -0.279742,0.0989 -0.431671,-0.20257 l -0.248391,-0.68971 h -1.965428 l -0.241156,0.67283 q -0.154341,0.30386 -0.438906,0.20016 -0.284565,-0.10611 -0.195337,-0.43167 z"
           style="font-size:4.93889px;text-align:center;text-anchor:middle;fill:#00ff00;stroke-width:0.264583"
           id="path925-9-5" />
        <path
           d="m 28.990924,220.72138 q 0,0.25321 -0.24598,0.32315 -0.243568,0.0675 -0.378616,-0.14469 l -2.025716,-3.24839 v 3.06993 q -0.05306,0.33762 -0.342443,0.33762 -0.286976,0 -0.337619,-0.33762 v -4.25883 q 0.03617,-0.2508 0.255626,-0.33038 0.221864,-0.0796 0.36897,0.14951 l 2.025716,3.25321 v -3.07234 q 0.04582,-0.34485 0.349677,-0.34003 0.306269,0.002 0.330385,0.34003 z"
           style="font-size:4.93889px;text-align:center;text-anchor:middle;fill:#00ff00;stroke-width:0.264583"
           id="path927-5-8" />
      </g>
      <path
         id="path2195-7-0"
         style="fill:#ff0000;stroke-width:0.105033"
         d="m 123.07598,115.49389 a 6.3499999,6.3499999 0 0 1 -6.34999,6.35 6.3499999,6.3499999 0 0 1 -6.35,-6.35 6.3499999,6.3499999 0 0 1 6.35,-6.35 6.3499999,6.3499999 0 0 1 6.34999,6.35 z" />
      <path
         id="path8-04-7-7-1-7"
         style="fill:#ff0000;stroke-width:0.172385"
         d="m 156.18989,121.26456 a 4.8260002,4.8260002 0 0 1 -4.82601,4.826 4.8260002,4.8260002 0 0 1 -4.82599,-4.826 4.8260002,4.8260002 0 0 1 4.82599,-4.826 4.8260002,4.8260002 0 0 1 4.82601,4.826 z" />
      <path
         id="path8-04-7-7-9-2-4"
         style="fill:#ff0000;stroke-width:0.114319"
         d="m 57.47416,98.749478 a 3.2004002,3.2004002 0 0 1 -3.2004,3.200402 3.2004002,3.2004002 0 0 1 -3.2004,-3.200402 3.2004002,3.2004002 0 0 1 3.2004,-3.2004 3.2004002,3.2004002 0 0 1 3.2004,3.2004 z" />
      <path
         id="path8-04-7-7-3-1-0"
         style="fill:#ff0000;stroke-width:0.114319"
         d="m 73.72075,98.749478 a 3.2004002,3.2004002 0 0 1 -3.2004,3.200402 3.2004002,3.2004002 0 0 1 -3.2004,-3.200402 3.2004002,3.2004002 0 0 1 3.2004,-3.2004 3.2004002,3.2004002 0 0 1 3.2004,3.2004 z" />
      <g
         aria-label="status"
         id="text2257-6-9"
         style="font-size:9.87777px;line-height:1.25;font-family:'MS 33558';-inkscape-font-specification:'MS 33558, ';fill:#00ff00;stroke-width:0.264583"
         transform="translate(-1.58748,-58.737462)">
        <path
           d="m 56.604849,149.04497 0.03307,0.0145 0.03721,0.0186 0.03307,0.0186 q 0.01447,0.0103 0.03101,0.0207 0.0186,0.008 0.03514,0.0186 0.409277,0.26871 0.506429,0.74414 0.03721,0.18603 0.01654,0.3824 -0.03307,0.28112 -0.198437,0.5209 -0.163298,0.23771 -0.411344,0.36793 -0.26665,0.14056 -0.551904,0.14056 -0.479557,0 -0.915706,-0.12195 -0.436148,-0.12403 -0.622183,-0.65939 -0.02481,-0.0682 -0.03721,-0.14056 -0.0124,-0.0724 -0.02894,-0.1447 -0.03101,-0.14882 0.07235,-0.26251 0.10542,-0.11369 0.260449,-0.0868 0.163297,0.0331 0.227376,0.20257 l 0.0062,0.0186 q 0.09922,0.44855 0.345198,0.53536 0.248047,0.0868 0.68833,0.0785 0.405143,0 0.556038,-0.38034 0.06615,-0.1695 0.02067,-0.3514 -0.04548,-0.18396 -0.179834,-0.30592 -0.05994,-0.0517 -0.157096,-0.0971 l -0.957046,-0.41961 -0.03101,-0.0165 q -0.469222,-0.24805 -0.58291,-0.70487 -0.138493,-0.52916 0.192236,-0.94878 0.332796,-0.42167 0.872298,-0.42167 l 0.227376,0.006 q 0.111621,0.0207 0.214974,0.0413 0.103352,0.0186 0.208772,0.0661 0.260449,0.12196 0.398942,0.33487 0.138493,0.2129 0.250114,0.46095 0.01033,0.0227 0.0186,0.0537 0.02274,0.10129 -0.02067,0.18397 -0.02481,0.0517 -0.05168,0.0786 -0.02687,0.0269 -0.04341,0.0372 -0.107487,0.0765 -0.235644,0.0455 -0.128158,-0.0289 -0.196371,-0.16536 -0.05374,-0.11989 -0.115755,-0.24392 -0.05994,-0.12609 -0.169498,-0.20877 -0.04548,-0.0331 -0.08888,-0.0475 -0.04134,-0.0165 -0.09302,-0.0351 l -0.134359,-0.0227 -0.190169,-0.006 q -0.276985,0.004 -0.423746,0.23978 -0.09922,0.15089 -0.07441,0.33693 0.02894,0.22944 0.214973,0.35553 0.0083,0.006 0.0186,0.0145 0.01034,0.006 0.02274,0.0124 l 0.02274,0.0103 0.02481,0.0103 z"
           style="font-size:4.23333px;fill:#00ff00;stroke-width:0.264583"
           id="path932-5-0" />
        <path
           d="m 58.86414,151.00868 v -3.36103 h -0.758609 q -0.289388,-0.0227 -0.289388,-0.28939 0.0021,-0.26872 0.289388,-0.29352 h 2.098061 q 0.285254,0.0227 0.285254,0.29352 0.0021,0.26871 -0.285254,0.28939 H 59.44705 v 3.36103 q -0.04754,0.29352 -0.305924,0.28939 -0.256315,-0.004 -0.276986,-0.28939 z"
           style="font-size:4.23333px;fill:#00ff00;stroke-width:0.264583"
           id="path934-9-5" />
        <path
           d="m 63.345517,149.94001 -0.628385,-1.73633 -0.632519,1.73633 z m -0.628385,-1.73633 0.628385,1.73633 z m -1.595767,2.69544 q 0.330729,-0.91157 0.661458,-1.82107 0.332796,-0.91157 0.665592,-1.82315 0.06821,-0.1881 0.270784,-0.19016 0.202571,-0.002 0.272851,0.19016 l 1.324983,3.65456 q 0.06201,0.29145 -0.177767,0.3762 -0.239779,0.0847 -0.370003,-0.17363 l -0.212907,-0.59118 h -1.68465 L 61.665,151.09756 q -0.132291,0.26045 -0.376204,0.17157 -0.243912,-0.0909 -0.167431,-0.37001 z"
           style="font-size:4.23333px;fill:#00ff00;stroke-width:0.264583"
           id="path936-2-9" />
        <path
           d="m 65.77224,151.00868 v -3.36103 h -0.758609 q -0.289388,-0.0227 -0.289388,-0.28939 0.0021,-0.26872 0.289388,-0.29352 h 2.098061 q 0.285254,0.0227 0.285254,0.29352 0.0021,0.26871 -0.285254,0.28939 H 66.35515 v 3.36103 q -0.04754,0.29352 -0.305924,0.28939 -0.256315,-0.004 -0.276986,-0.28939 z"
           style="font-size:4.23333px;fill:#00ff00;stroke-width:0.264583"
           id="path938-1-1" />
        <path
           d="m 70.801386,149.9028 v 0.0413 q -0.0062,0.10336 -0.0083,0.12403 -0.08682,0.63252 -0.518831,0.93431 -0.432014,0.29972 -0.921906,0.28112 -0.489893,-0.0207 -0.897103,-0.3576 -0.405142,-0.33693 -0.440282,-0.98186 v -0.0413 -2.54868 q 0,-0.062 0.02274,-0.11162 0.09922,-0.21704 0.328662,-0.17156 0.23151,0.0455 0.23151,0.28318 v 2.54868 q 0.03101,0.47543 0.417545,0.71107 0.388607,0.23564 0.816487,-0.0207 0.192237,-0.11369 0.28112,-0.29352 0.09095,-0.17984 0.107487,-0.39688 v -2.54868 q 0,-0.0372 0.0041,-0.0558 0.04754,-0.25425 0.312125,-0.22944 0.264583,0.0248 0.264583,0.28525 z"
           style="font-size:4.23333px;fill:#00ff00;stroke-width:0.264583"
           id="path940-6-1" />
        <path
           d="m 73.385206,149.04497 0.03307,0.0145 0.03721,0.0186 0.03307,0.0186 q 0.01447,0.0103 0.03101,0.0207 0.0186,0.008 0.03514,0.0186 0.409277,0.26871 0.506429,0.74414 0.03721,0.18603 0.01654,0.3824 -0.03307,0.28112 -0.198437,0.5209 -0.163297,0.23771 -0.411344,0.36793 -0.26665,0.14056 -0.551904,0.14056 -0.479557,0 -0.915705,-0.12195 -0.436149,-0.12403 -0.622184,-0.65939 -0.02481,-0.0682 -0.03721,-0.14056 -0.0124,-0.0724 -0.02894,-0.1447 -0.03101,-0.14882 0.07235,-0.26251 0.10542,-0.11369 0.260449,-0.0868 0.163297,0.0331 0.227376,0.20257 l 0.0062,0.0186 q 0.09922,0.44855 0.345199,0.53536 0.248046,0.0868 0.688329,0.0785 0.405143,0 0.556038,-0.38034 0.06615,-0.1695 0.02067,-0.3514 -0.04548,-0.18396 -0.179834,-0.30592 -0.05994,-0.0517 -0.157096,-0.0971 l -0.957047,-0.41961 -0.03101,-0.0165 q -0.469222,-0.24805 -0.58291,-0.70487 -0.138492,-0.52916 0.192237,-0.94878 0.332795,-0.42167 0.872297,-0.42167 l 0.227376,0.006 q 0.111621,0.0207 0.214974,0.0413 0.103353,0.0186 0.208772,0.0661 0.260449,0.12196 0.398942,0.33487 0.138493,0.2129 0.250114,0.46095 0.01033,0.0227 0.0186,0.0537 0.02274,0.10129 -0.02067,0.18397 -0.02481,0.0517 -0.05168,0.0786 -0.02687,0.0269 -0.04341,0.0372 -0.107487,0.0765 -0.235644,0.0455 -0.128157,-0.0289 -0.19637,-0.16536 -0.05374,-0.11989 -0.115755,-0.24392 -0.05994,-0.12609 -0.169499,-0.20877 -0.04548,-0.0331 -0.08888,-0.0475 -0.04134,-0.0165 -0.09302,-0.0351 l -0.134358,-0.0227 -0.19017,-0.006 q -0.276985,0.004 -0.423746,0.23978 -0.09922,0.15089 -0.07441,0.33693 0.02894,0.22944 0.214974,0.35553 0.0083,0.006 0.0186,0.0145 0.01034,0.006 0.02274,0.0124 l 0.02274,0.0103 0.0248,0.0103 z"
           style="font-size:4.23333px;fill:#00ff00;stroke-width:0.264583"
           id="path942-4-2" />
      </g>
      <g
         aria-label="go"
         id="text2257-4-36-3"
         style="font-size:9.87777px;line-height:1.25;font-family:'MS 33558';-inkscape-font-specification:'MS 33558, ';fill:#00ff00;stroke-width:0.264583"
         transform="translate(-1.58748,-58.737462)">
        <path
           d="m 54.243303,167.00447 -0.0186,-0.002 q -0.252181,-0.031 -0.252181,-0.28733 0,-0.25631 0.252181,-0.28732 l 0.0186,-0.004 h 0.0186 0.762743 q 0.119889,0 0.204639,0.0868 0.08682,0.0848 0.08682,0.20463 v 1.048 l -0.02481,0.0538 -0.01447,0.0331 -0.01447,0.031 -0.01654,0.031 -0.01654,0.031 -0.01447,0.031 -0.01654,0.031 -0.0186,0.031 q -0.401008,0.68213 -0.99632,0.66766 -0.595312,-0.0165 -1.000455,-0.67386 -0.192236,-0.31212 -0.285254,-0.78135 -0.09302,-0.47128 -0.05581,-0.96118 0.03721,-0.49196 0.227376,-0.93431 0.192236,-0.44441 0.572574,-0.70486 0.475423,-0.32246 0.926041,-0.0744 0.450618,0.24598 0.67386,0.69247 l 0.01654,0.0331 0.0124,0.0289 0.01654,0.031 q 0.07028,0.19637 -0.05374,0.32039 -0.119889,0.11782 -0.260449,0.0889 -0.14056,-0.031 -0.217041,-0.16743 -0.241845,-0.59944 -0.624251,-0.52296 -0.380338,0.0765 -0.570507,0.62425 -0.186035,0.52916 -0.146761,1.13894 0.03927,0.60772 0.396875,1.0604 0.245979,0.31626 0.500227,0.20258 0.254248,-0.11369 0.401009,-0.42375 l 0.02274,-0.0455 v -0.63045 z"
           style="font-size:4.23333px;fill:#00ff00;stroke-width:0.264583"
           id="path945-0-5" />
        <path
           d="m 58.739149,165.69396 q 0.190169,0.57257 0.142627,1.18856 -0.04548,0.61598 -0.33693,1.12447 -0.183968,0.31626 -0.502295,0.53744 -0.318326,0.22117 -0.702799,0.15503 -0.626317,-0.10956 -0.959113,-0.65319 -0.332796,-0.54364 -0.382406,-1.20923 -0.04754,-0.66766 0.179834,-1.30018 0.229443,-0.63252 0.729671,-0.91984 0.243912,-0.14056 0.510563,-0.14056 0.508495,0 0.830956,0.38448 0.322461,0.3824 0.489892,0.83302 z m -1.304312,-0.63045 q -0.380338,0 -0.576708,0.40927 -0.194304,0.40928 -0.24598,0.69867 -0.03927,0.21084 -0.02894,0.51056 0.01033,0.29972 0.08682,0.59325 0.07648,0.29145 0.229444,0.5271 0.152962,0.23357 0.401008,0.31005 0.289388,0.0909 0.498161,-0.11368 0.210839,-0.20671 0.318326,-0.43822 0.109554,-0.23771 0.148828,-0.62425 0.04134,-0.38654 -0.0186,-0.77101 -0.05788,-0.38654 -0.229443,-0.69453 -0.171566,-0.31006 -0.487825,-0.39481 -0.04134,-0.0124 -0.09508,-0.0124 z"
           style="font-size:4.23333px;fill:#00ff00;stroke-width:0.264583"
           id="path947-5-6" />
      </g>
      <g
         aria-label="no go"
         id="text2257-4-3-0-5"
         style="font-size:9.87777px;line-height:1.25;font-family:'MS 33558';-inkscape-font-specification:'MS 33558, ';word-spacing:-2.64583px;fill:#00ff00;stroke-width:0.264583"
         transform="translate(-1.58748,-58.737462)">
        <path
           d="m 67.689916,168.50646 q 0,0.21704 -0.21084,0.27699 -0.208773,0.0579 -0.324528,-0.12402 l -1.736326,-2.78433 v 2.63136 q -0.04548,0.28939 -0.293522,0.28939 -0.24598,0 -0.289388,-0.28939 v -3.65042 q 0.03101,-0.21497 0.219108,-0.28318 0.190169,-0.0682 0.316259,0.12815 l 1.736327,2.78846 v -2.63343 q 0.03927,-0.29559 0.299723,-0.29145 0.262516,0.002 0.283187,0.29145 z"
           style="font-size:4.23333px;fill:#00ff00;stroke-width:0.264583"
           id="path950-5-9" />
        <path
           d="m 71.032344,165.77588 q 0.190169,0.57258 0.142627,1.18856 -0.04547,0.61598 -0.33693,1.12448 -0.183968,0.31626 -0.502294,0.53743 -0.318327,0.22118 -0.702799,0.15503 -0.626318,-0.10955 -0.959114,-0.65319 -0.332796,-0.54363 -0.382405,-1.20922 -0.04754,-0.66766 0.179834,-1.30018 0.229443,-0.63252 0.72967,-0.91984 0.243913,-0.14056 0.510563,-0.14056 0.508496,0 0.830956,0.38447 0.322461,0.38241 0.489892,0.83302 z m -1.304312,-0.63045 q -0.380338,0 -0.576708,0.40928 -0.194303,0.40928 -0.24598,0.69866 -0.03927,0.21084 -0.02894,0.51057 0.01034,0.29972 0.08682,0.59324 0.07648,0.29146 0.229443,0.5271 0.152962,0.23358 0.401009,0.31006 0.289387,0.0909 0.49816,-0.11369 0.21084,-0.20671 0.318327,-0.43822 0.109554,-0.23771 0.148828,-0.62425 0.04134,-0.38654 -0.0186,-0.77101 -0.05788,-0.38654 -0.229443,-0.69453 -0.171566,-0.31006 -0.487825,-0.39481 -0.04134,-0.0124 -0.09508,-0.0124 z"
           style="font-size:4.23333px;fill:#00ff00;stroke-width:0.264583"
           id="path952-1-0" />
        <path
           d="m 74.732375,167.0864 -0.0186,-0.002 q -0.252181,-0.031 -0.252181,-0.28732 0,-0.25632 0.252181,-0.28732 l 0.0186,-0.004 h 0.0186 0.762743 q 0.119889,0 0.204639,0.0868 0.08682,0.0848 0.08682,0.20464 v 1.048 l -0.02481,0.0537 -0.01447,0.0331 -0.01447,0.031 -0.01654,0.031 -0.01654,0.031 -0.01447,0.031 -0.01654,0.031 -0.0186,0.031 q -0.401009,0.68213 -0.996321,0.66766 -0.595312,-0.0165 -1.000454,-0.67386 -0.192237,-0.31213 -0.285254,-0.78135 -0.09302,-0.47129 -0.05581,-0.96118 0.03721,-0.49196 0.227377,-0.93431 0.192236,-0.44442 0.572574,-0.70487 0.475423,-0.32246 0.926041,-0.0744 0.450618,0.24598 0.67386,0.69246 l 0.01654,0.0331 0.0124,0.0289 0.01654,0.031 q 0.07028,0.19637 -0.05374,0.32039 -0.11989,0.11783 -0.260449,0.0889 -0.14056,-0.031 -0.217041,-0.16743 -0.241846,-0.59945 -0.624251,-0.52297 -0.380338,0.0765 -0.570507,0.62425 -0.186035,0.52917 -0.146761,1.13895 0.03927,0.60771 0.396874,1.0604 0.24598,0.31626 0.500228,0.20257 0.254248,-0.11369 0.401009,-0.42375 l 0.02274,-0.0455 v -0.63045 z"
           style="font-size:4.23333px;fill:#00ff00;stroke-width:0.264583"
           id="path954-5-6" />
        <path
           d="m 79.22822,165.77588 q 0.190169,0.57258 0.142627,1.18856 -0.04547,0.61598 -0.33693,1.12448 -0.183968,0.31626 -0.502295,0.53743 -0.318326,0.22118 -0.702798,0.15503 -0.626318,-0.10955 -0.959114,-0.65319 -0.332796,-0.54363 -0.382405,-1.20922 -0.04754,-0.66766 0.179833,-1.30018 0.229444,-0.63252 0.729671,-0.91984 0.243913,-0.14056 0.510563,-0.14056 0.508495,0 0.830956,0.38447 0.322461,0.38241 0.489892,0.83302 z m -1.304312,-0.63045 q -0.380338,0 -0.576708,0.40928 -0.194304,0.40928 -0.24598,0.69866 -0.03927,0.21084 -0.02894,0.51057 0.01034,0.29972 0.08682,0.59324 0.07648,0.29146 0.229443,0.5271 0.152962,0.23358 0.401009,0.31006 0.289387,0.0909 0.49816,-0.11369 0.21084,-0.20671 0.318326,-0.43822 0.109554,-0.23771 0.148828,-0.62425 0.04134,-0.38654 -0.0186,-0.77101 -0.05788,-0.38654 -0.229443,-0.69453 -0.171566,-0.31006 -0.487825,-0.39481 -0.04134,-0.0124 -0.09508,-0.0124 z"
           style="font-size:4.23333px;fill:#00ff00;stroke-width:0.264583"
           id="path956-8-8" />
      </g>
      <path
         id="path2195-8-6-8"
         style="fill:#ff0000;stroke-width:0.105033"
         d="m 99.90874,103.14701 a 6.3499999,6.3499999 0 0 1 -6.34999,6.35 6.3499999,6.3499999 0 0 1 -6.35,-6.35 6.3499999,6.3499999 0 0 1 6.35,-6.350002 6.3499999,6.3499999 0 0 1 6.34999,6.350002 z" />
      <g
         aria-label="bit"
         id="text2257-1-3-4"
         style="font-size:9.87777px;line-height:1.25;font-family:'MS 33558';-inkscape-font-specification:'MS 33558, ';fill:#00ff00;stroke-width:0.264583"
         transform="translate(-1.58748,-58.737462)">
        <path
           d="m 93.180458,147.06609 q 0.39274,0.0331 0.65939,0.23771 0.268718,0.20464 0.37207,0.49403 0.103353,0.28732 0.02687,0.61392 -0.07441,0.32452 -0.363802,0.59738 0.318327,0.33486 0.396875,0.72347 0.07855,0.3886 -0.04961,0.7276 -0.126091,0.33693 -0.440283,0.57257 -0.314193,0.23565 -0.77928,0.26665 h -0.0062 -1.099674 q -0.254248,-0.0351 -0.293522,-0.28732 v -3.65248 q 0.03514,-0.25632 0.293522,-0.29353 z m -0.183968,3.64836 q 0.351399,-0.0145 0.535367,-0.22738 0.183968,-0.21291 0.190169,-0.47129 0.0083,-0.26045 -0.165364,-0.48782 -0.173633,-0.22738 -0.535368,-0.27492 h -0.833023 v 1.46141 z m 0.183968,-3.06131 h -0.992187 v 1.01906 h 0.998388 q 0.256315,-0.0269 0.380338,-0.18397 0.126091,-0.15917 0.121956,-0.339 -0.0021,-0.1819 -0.130224,-0.33073 -0.128158,-0.15089 -0.378271,-0.16536 z"
           style="font-size:4.23333px;fill:#00ff00;stroke-width:0.264583"
           id="path960-3-5" />
        <path
           d="m 95.429414,151.01417 q -0.04547,0.29145 -0.295589,0.28939 -0.248046,0 -0.291454,-0.28939 v -3.65455 q 0.04341,-0.29146 0.291454,-0.29146 0.250114,-0.002 0.295589,0.29146 z"
           style="font-size:4.23333px;fill:#00ff00;stroke-width:0.264583"
           id="path962-7-4" />
        <path
           d="M 97.064455,151.01004 V 147.649 h -0.758609 q -0.289388,-0.0227 -0.289388,-0.28938 0.0021,-0.26872 0.289388,-0.29353 h 2.098061 q 0.285254,0.0227 0.285254,0.29353 0.0021,0.26871 -0.285254,0.28938 h -0.756542 v 3.36104 q -0.04754,0.29352 -0.305924,0.28938 -0.256315,-0.004 -0.276986,-0.28938 z"
           style="font-size:4.23333px;fill:#00ff00;stroke-width:0.264583"
           id="path964-6-3" />
      </g>
      <g
         aria-label="mode"
         id="text2257-1-8-45-3"
         style="font-size:9.87777px;line-height:1.25;font-family:'MS 33558';-inkscape-font-specification:'MS 33558, ';fill:#00ff00;stroke-width:0.264583"
         transform="translate(-1.58748,-58.737462)">
        <path
           d="m 114.97005,151.00967 q -0.0455,0.28939 -0.29352,0.28939 -0.24598,-0.002 -0.28939,-0.28939 v -2.58175 l -0.709,1.21336 q -0.11369,0.13642 -0.25425,0.14263 -0.13849,0.006 -0.24805,-0.14263 l -0.70486,-1.20716 0.002,2.57555 q -0.0331,0.28732 -0.29973,0.28732 -0.26458,-0.002 -0.28525,-0.28732 v -3.65042 q 0.0165,-0.23771 0.20877,-0.28319 0.19224,-0.0475 0.33486,0.13023 l 0.99426,1.70945 1.00459,-1.70945 q 0.14262,-0.17777 0.33073,-0.13023 0.19017,0.0475 0.20877,0.28319 z"
           style="font-size:4.23333px;fill:#00ff00;stroke-width:0.264583"
           id="path967-7-6" />
        <path
           d="m 118.21533,148.28322 q 0.19017,0.57258 0.14262,1.18856 -0.0455,0.61598 -0.33693,1.12448 -0.18396,0.31626 -0.50229,0.53743 -0.31833,0.22118 -0.7028,0.15503 -0.62632,-0.10955 -0.95911,-0.65319 -0.3328,-0.54363 -0.38241,-1.20923 -0.0475,-0.66765 0.17983,-1.30017 0.22945,-0.63252 0.72968,-0.91984 0.24391,-0.14056 0.51056,-0.14056 0.50849,0 0.83095,0.38447 0.32246,0.3824 0.4899,0.83302 z m -1.30432,-0.63045 q -0.38033,0 -0.5767,0.40928 -0.19431,0.40928 -0.24598,0.69866 -0.0393,0.21084 -0.0289,0.51057 0.0103,0.29972 0.0868,0.59324 0.0765,0.29146 0.22945,0.5271 0.15296,0.23358 0.40101,0.31006 0.28938,0.0909 0.49816,-0.11369 0.21084,-0.20671 0.31832,-0.43822 0.10956,-0.23771 0.14883,-0.62425 0.0413,-0.38654 -0.0186,-0.77101 -0.0579,-0.38654 -0.22945,-0.69453 -0.17156,-0.31006 -0.48782,-0.39481 -0.0413,-0.0124 -0.0951,-0.0124 z"
           style="font-size:4.23333px;fill:#00ff00;stroke-width:0.264583"
           id="path969-9-5" />
        <path
           d="m 119.20338,147.06573 h 0.97358 q 0.72554,0 1.08727,0.66146 0.36174,0.66145 0.36174,1.4552 0,0.79375 -0.3638,1.45521 -0.36174,0.66146 -1.08521,0.66146 h -0.97358 0.004 -0.004 q -0.0682,-0.0103 -0.0744,-0.0124 -0.21497,-0.0517 -0.2129,-0.28111 h -0.002 l 0.002,-3.65042 q -0.002,-0.006 -0.002,-0.0165 0.006,-0.11369 0.0889,-0.19224 0.0847,-0.0806 0.20258,-0.0806 z m 0.97358,3.65042 q 0.004,0 0.008,0 0.004,0 0.0103,0 0.004,0 0.006,0 0.004,-0.002 0.0103,-0.002 0.004,0 0.008,0 0.006,-0.002 0.0124,-0.002 0.004,0 0.008,0 0.004,-0.002 0.0103,-0.002 0.004,0 0.008,0 0.004,-0.002 0.0103,-0.002 0.008,-0.004 0.0165,-0.004 0.004,0 0.008,-0.002 0.004,-0.004 0.0103,-0.006 0.004,0 0.008,0 0.006,-0.002 0.0124,-0.004 0.004,0 0.008,-0.002 0.004,-0.002 0.0103,-0.004 0.0124,-0.004 0.0186,-0.008 0.0372,-0.0124 0.0207,-0.008 0.004,0 0.008,-0.002 0.004,-0.004 0.0103,-0.006 0.0186,-0.0124 0.0165,-0.0103 0.0207,-0.0103 0.0207,-0.0103 0.004,-0.002 0.008,-0.004 0.004,-0.004 0.0103,-0.008 0.0186,-0.0124 0.0186,-0.0124 0.004,-0.002 0.008,-0.004 0.006,-0.004 0.0124,-0.008 0.004,-0.002 0.008,-0.006 0.004,-0.004 0.0103,-0.008 0.004,-0.002 0.008,-0.004 0.004,-0.004 0.0103,-0.008 0.004,-0.004 0.0207,-0.0165 0.0165,-0.0165 0.0165,-0.0165 0.004,-0.004 0.008,-0.008 0.004,-0.004 0.0103,-0.0103 0.004,-0.004 0.008,-0.008 0.004,-0.004 0.0103,-0.0103 0.006,-0.004 0.0186,-0.0165 0.004,-0.004 0.008,-0.008 0.004,-0.004 0.0103,-0.0103 0.004,-0.004 0.008,-0.008 0.004,-0.006 0.0103,-0.0124 0.0248,-0.0331 0.0165,-0.0207 0.0145,-0.0145 0.0186,-0.0227 0.0186,-0.0248 0.0165,-0.0227 0.004,-0.006 0.008,-0.0103 0.004,-0.006 0.0103,-0.0124 0.004,-0.006 0.006,-0.0124 0.004,-0.006 0.0103,-0.0124 0.002,-0.006 0.006,-0.0124 0.006,-0.008 0.0103,-0.0145 0.0124,-0.0165 0.0165,-0.0248 0.004,-0.006 0.006,-0.0124 0.004,-0.008 0.0103,-0.0145 0.004,-0.006 0.006,-0.0124 0.004,-0.008 0.0103,-0.0145 0.004,-0.0103 0.0124,-0.0269 0.004,-0.006 0.006,-0.0145 0.004,-0.008 0.0103,-0.0165 0.004,-0.006 0.006,-0.0124 0.004,-0.008 0.0103,-0.0165 0.002,-0.006 0.004,-0.0145 0.004,-0.008 0.008,-0.0165 0.006,-0.0103 0.0145,-0.031 0.0207,-0.0517 0.0145,-0.0331 0.002,-0.006 0.004,-0.0145 0.004,-0.0103 0.008,-0.0186 0.002,-0.008 0.004,-0.0165 0.004,-0.008 0.008,-0.0186 0.006,-0.0186 0.0103,-0.0331 0.002,-0.008 0.004,-0.0165 0.004,-0.008 0.008,-0.0186 -0.008,0.0207 0.0103,-0.0351 0.004,-0.0103 0.0124,-0.0351 0,-0.008 0.002,-0.0165 0.004,-0.0103 0.006,-0.0207 0.002,-0.008 0.004,-0.0165 0.002,-0.0103 0.006,-0.0207 0,-0.006 0.002,-0.0145 0.004,-0.0103 0.006,-0.0207 0.002,-0.0145 0.006,-0.0393 0,-0.008 0.002,-0.0165 0.004,-0.0103 0.006,-0.0207 0,-0.008 0.002,-0.0165 0.002,-0.0103 0.004,-0.0207 0.002,-0.0145 0.006,-0.0393 0,-0.008 0.002,-0.0186 0.004,-0.0103 0.006,-0.0207 0,-0.0145 0.004,-0.0393 0,-0.008 0,-0.0165 0.002,-0.0103 0.004,-0.0227 0.004,-0.0248 0.004,-0.0393 0.002,-0.0145 0.002,-0.0393 0.002,-0.0145 0.002,-0.0413 0.002,-0.0145 0.002,-0.0393 0,-0.0103 0,-0.0186 0.002,-0.0103 0.004,-0.0227 0,-0.008 0,-0.0165 0.002,-0.0103 0.002,-0.0227 0,-0.008 0,-0.0186 0,-0.0103 0,-0.0207 0,-0.0103 0,-0.0186 0,-0.0103 0,-0.0207 0,-0.0103 -0.002,-0.0186 0,-0.0103 0,-0.0227 0,-0.008 0,-0.0186 0,-0.0103 0,-0.0207 0,-0.0124 -0.004,-0.0413 0,-0.0248 -0.002,-0.0372 0,-0.0145 -0.004,-0.0434 0,-0.0248 -0.002,-0.0372 0,-0.0145 -0.004,-0.0393 -0.002,-0.008 -0.004,-0.0186 0,-0.0103 0,-0.0207 -0.004,-0.0248 -0.008,-0.0393 -0.002,-0.008 -0.004,-0.0165 -0.002,-0.0103 -0.002,-0.0207 -0.002,-0.0145 -0.006,-0.0393 -0.002,-0.0145 -0.006,-0.0393 -0.008,-0.0248 -0.0103,-0.0372 -0.004,-0.0248 -0.006,-0.0351 -0.004,-0.008 -0.006,-0.0165 -0.002,-0.0103 -0.004,-0.0207 -0.002,-0.008 -0.006,-0.0165 -0.004,-0.0103 -0.004,-0.0207 -0.0186,-0.0558 -0.0103,-0.0351 -0.004,-0.0145 -0.0103,-0.0351 -0.004,-0.006 -0.008,-0.0145 -0.002,-0.0103 -0.004,-0.0186 -0.002,-0.006 -0.0124,-0.0351 -0.008,-0.0207 -0.0124,-0.0331 -0.004,-0.006 -0.008,-0.0145 -0.002,-0.0103 -0.004,-0.0186 -0.004,-0.006 -0.008,-0.0145 -0.004,-0.008 -0.006,-0.0165 -0.008,-0.0207 -0.0145,-0.031 -0.008,-0.0207 -0.0124,-0.0289 -0.008,-0.0207 -0.0145,-0.031 -0.004,-0.006 -0.008,-0.0124 -0.004,-0.008 -0.006,-0.0145 -0.0124,-0.0207 -0.0165,-0.0289 -0.0186,-0.0289 -0.0165,-0.0269 -0.006,-0.006 -0.0103,-0.0124 -0.002,-0.008 -0.006,-0.0145 -0.004,-0.008 -0.0165,-0.0248 -0.004,-0.006 -0.008,-0.0124 -0.004,-0.006 -0.006,-0.0124 -0.0103,-0.0186 -0.0351,-0.0475 -0.004,-0.004 -0.0331,-0.0455 -0.0248,-0.0289 -0.0372,-0.0413 -0.0124,-0.0145 -0.0372,-0.0393 -0.0165,-0.0186 -0.0351,-0.0351 -0.0145,-0.0103 -0.0393,-0.031 -0.0207,-0.0165 -0.0393,-0.031 -0.0476,-0.031 -0.0393,-0.0269 -0.0413,-0.0248 -0.0372,-0.0227 0,0 -0.0372,-0.0186 -0.008,-0.004 -0.0393,-0.0145 -0.0269,-0.0103 -0.0393,-0.0145 -0.0103,-0.002 -0.0186,-0.004 -0.008,-0.004 -0.0165,-0.008 -0.0372,-0.006 -0.0372,-0.006 -0.0124,-0.002 -0.0372,-0.002 -0.006,0 -0.0103,0 -0.004,0 -0.008,0 h -0.68213 v 3.06751 0 z"
           style="font-size:4.23333px;fill:#00ff00;stroke-width:0.264583"
           id="path971-6-4" />
        <path
           d="m 124.4475,147.64244 h -1.71359 v 1.13068 h 1.30638 q 0.29352,0.0434 0.29145,0.29558 0,0.25012 -0.29145,0.29146 h -1.30638 v 1.35805 h 1.71359 q 0.29145,0.0434 0.29145,0.29146 0,0.24805 -0.29145,0.28939 h -2.00091 q -0.25838,-0.0331 -0.29352,-0.29352 v -3.65042 q 0.0393,-0.27286 0.29352,-0.28939 h 2.00091 q 0.29145,0.0227 0.28939,0.29145 0,0.26665 -0.28939,0.28526 z"
           style="font-size:4.23333px;fill:#00ff00;stroke-width:0.264583"
           id="path973-0-8" />
      </g>
      <g
         aria-label="inverse"
         id="text2257-1-8-4-65-8"
         style="font-size:9.87777px;line-height:1.25;font-family:'MS 33558';-inkscape-font-specification:'MS 33558, ';fill:#00ff00;stroke-width:0.264583"
         transform="translate(-1.58748,-58.737462)">
        <path
           d="m 108.83192,162.65508 q -0.0455,0.29146 -0.29559,0.28939 -0.24805,0 -0.29146,-0.28939 v -3.65455 q 0.0434,-0.29145 0.29146,-0.29145 0.25011,-0.002 0.29559,0.29145 z"
           style="font-size:4.23333px;fill:#00ff00;stroke-width:0.264583"
           id="path976-6-2" />
        <path
           d="m 112.27356,162.65508 q 0,0.21705 -0.21084,0.27699 -0.20877,0.0579 -0.32452,-0.12402 l -1.73633,-2.78433 v 2.63136 q -0.0455,0.28939 -0.29352,0.28939 -0.24598,0 -0.28939,-0.28939 v -3.65042 q 0.031,-0.21497 0.21911,-0.28318 0.19017,-0.0682 0.31626,0.12816 l 1.73632,2.78845 v -2.63343 q 0.0393,-0.29558 0.29973,-0.29145 0.26251,0.002 0.28318,0.29145 z"
           style="font-size:4.23333px;fill:#00ff00;stroke-width:0.264583"
           id="path978-0-9" />
        <path
           d="m 112.87094,159.09768 q -0.0393,-0.29352 0.20878,-0.35967 0.25011,-0.0661 0.35553,0.20878 l 0.6966,2.57968 0.70073,-2.60449 q 0.10542,-0.27905 0.3638,-0.20257 0.25838,0.0744 0.19844,0.35347 l -0.98392,3.65248 q -0.0827,0.21291 -0.27699,0.21498 -0.1943,0 -0.28318,-0.20671 z"
           style="font-size:4.23333px;fill:#00ff00;stroke-width:0.264583"
           id="path980-9-9" />
        <path
           d="m 118.27009,159.28372 h -1.71359 v 1.13068 h 1.30638 q 0.29352,0.0434 0.29146,0.29559 0,0.25011 -0.29146,0.29145 h -1.30638 v 1.35806 h 1.71359 q 0.29146,0.0434 0.29146,0.29145 0,0.24805 -0.29146,0.28939 h -2.00091 q -0.25838,-0.0331 -0.29352,-0.29352 v -3.65042 q 0.0393,-0.27286 0.29352,-0.28939 h 2.00091 q 0.29146,0.0227 0.28939,0.29145 0,0.26665 -0.28939,0.28526 z"
           style="font-size:4.23333px;fill:#00ff00;stroke-width:0.264583"
           id="path982-0-9" />
        <path
           d="m 121.74688,162.49179 q 0.13229,0.23357 -0.0744,0.39274 -0.0992,0.0703 -0.22945,0.0475 -0.12815,-0.0227 -0.1881,-0.12816 l -1.01906,-1.61023 h -0.51676 v 1.4552 q 0,0.17984 -0.1633,0.26045 -0.1633,0.0785 -0.30592,-0.031 -0.11369,-0.0848 -0.11369,-0.22945 v -3.65248 q 0,-0.11989 0.0827,-0.20464 0.0847,-0.0848 0.20671,-0.0848 h 1.28364 q 0.46302,0 0.80408,0.29559 0.34107,0.29352 0.42375,0.7462 0.0868,0.48576 -0.20671,0.90951 -0.29145,0.42168 -0.77514,0.51263 l -0.0393,0.006 z m -1.03766,-1.87896 q 0.21084,0 0.3886,-0.12815 0.17984,-0.12816 0.24185,-0.33487 0.0971,-0.31832 -0.0889,-0.57464 -0.18604,-0.25838 -0.51263,-0.28525 h -1.01906 v 1.32291 z"
           style="font-size:4.23333px;fill:#00ff00;stroke-width:0.264583"
           id="path984-7-0" />
        <path
           d="m 124.58495,160.68725 0.0331,0.0145 0.0372,0.0186 0.0331,0.0186 q 0.0145,0.0103 0.031,0.0207 0.0186,0.008 0.0351,0.0186 0.40927,0.26872 0.50642,0.74414 0.0372,0.18603 0.0165,0.3824 -0.0331,0.28112 -0.19844,0.5209 -0.16329,0.23771 -0.41134,0.36794 -0.26665,0.14056 -0.5519,0.14056 -0.47956,0 -0.91571,-0.12196 -0.43615,-0.12402 -0.62218,-0.65939 -0.0248,-0.0682 -0.0372,-0.14056 -0.0124,-0.0724 -0.0289,-0.14469 -0.031,-0.14883 0.0724,-0.26252 0.10542,-0.11369 0.26045,-0.0868 0.16329,0.0331 0.22737,0.20258 l 0.006,0.0186 q 0.0992,0.44855 0.3452,0.53537 0.24805,0.0868 0.68833,0.0785 0.40514,0 0.55604,-0.38033 0.0661,-0.1695 0.0207,-0.3514 -0.0455,-0.18397 -0.17983,-0.30593 -0.06,-0.0517 -0.1571,-0.0971 l -0.95705,-0.41961 -0.031,-0.0165 q -0.46922,-0.24804 -0.58291,-0.70486 -0.13849,-0.52917 0.19223,-0.94878 0.3328,-0.42168 0.8723,-0.42168 l 0.22738,0.006 q 0.11162,0.0207 0.21497,0.0413 0.10335,0.0186 0.20877,0.0661 0.26045,0.12195 0.39895,0.33486 0.13849,0.21291 0.25011,0.46095 0.0103,0.0227 0.0186,0.0538 0.0227,0.10128 -0.0207,0.18396 -0.0248,0.0517 -0.0517,0.0786 -0.0269,0.0269 -0.0434,0.0372 -0.10749,0.0765 -0.23565,0.0455 -0.12815,-0.0289 -0.19637,-0.16536 -0.0537,-0.11989 -0.11575,-0.24391 -0.06,-0.12609 -0.1695,-0.20878 -0.0455,-0.0331 -0.0889,-0.0475 -0.0414,-0.0165 -0.093,-0.0351 l -0.13436,-0.0227 -0.19017,-0.006 q -0.27698,0.004 -0.42375,0.23978 -0.0992,0.1509 -0.0744,0.33693 0.0289,0.22945 0.21497,0.35554 0.008,0.006 0.0186,0.0145 0.0103,0.006 0.0227,0.0124 l 0.0227,0.0103 0.0248,0.0103 z"
           style="font-size:4.23333px;fill:#00ff00;stroke-width:0.264583"
           id="path986-7-4" />
        <path
           d="m 128.09067,159.28372 h -1.71359 v 1.13068 h 1.30638 q 0.29353,0.0434 0.29146,0.29559 0,0.25011 -0.29146,0.29145 h -1.30638 v 1.35806 h 1.71359 q 0.29146,0.0434 0.29146,0.29145 0,0.24805 -0.29146,0.28939 h -2.00091 q -0.25838,-0.0331 -0.29352,-0.29352 v -3.65042 q 0.0393,-0.27286 0.29352,-0.28939 h 2.00091 q 0.29146,0.0227 0.28939,0.29145 0,0.26665 -0.28939,0.28526 z"
           style="font-size:4.23333px;fill:#00ff00;stroke-width:0.264583"
           id="path988-7-8" />
      </g>
      <g
         aria-label="norm"
         id="text2257-1-8-4-6-9-5"
         style="font-size:9.87777px;line-height:1.25;font-family:'MS 33558';-inkscape-font-specification:'MS 33558, ';fill:#00ff00;stroke-width:0.264583"
         transform="translate(-1.58748,-58.737462)">
        <path
           d="m 114.49461,189.46781 q 0,0.21704 -0.21084,0.27699 -0.20877,0.0579 -0.32453,-0.12402 l -1.73632,-2.78433 v 2.63136 q -0.0455,0.28939 -0.29353,0.28939 -0.24597,0 -0.28938,-0.28939 v -3.65042 q 0.031,-0.21497 0.2191,-0.28318 0.19017,-0.0682 0.31626,0.12815 l 1.73633,2.78846 v -2.63343 q 0.0393,-0.29559 0.29972,-0.29145 0.26252,0.002 0.28319,0.29145 z"
           style="font-size:4.23333px;fill:#00ff00;stroke-width:0.264583"
           id="path991-6-7" />
        <path
           d="m 117.83704,186.73723 q 0.19017,0.57258 0.14263,1.18856 -0.0455,0.61598 -0.33693,1.12448 -0.18397,0.31626 -0.5023,0.53743 -0.31832,0.22118 -0.7028,0.15503 -0.62631,-0.10955 -0.95911,-0.65319 -0.3328,-0.54363 -0.38241,-1.20923 -0.0475,-0.66765 0.17984,-1.30017 0.22944,-0.63252 0.72967,-0.91984 0.24391,-0.14056 0.51056,-0.14056 0.5085,0 0.83096,0.38447 0.32246,0.3824 0.48989,0.83302 z m -1.30431,-0.63045 q -0.38034,0 -0.57671,0.40928 -0.1943,0.40928 -0.24598,0.69866 -0.0393,0.21084 -0.0289,0.51057 0.0103,0.29972 0.0868,0.59324 0.0765,0.29146 0.22944,0.5271 0.15296,0.23358 0.40101,0.31006 0.28939,0.091 0.49816,-0.11369 0.21084,-0.20671 0.31833,-0.43822 0.10955,-0.23771 0.14882,-0.62425 0.0413,-0.38654 -0.0186,-0.77101 -0.0579,-0.38654 -0.22944,-0.69453 -0.17157,-0.31006 -0.48783,-0.39481 -0.0413,-0.0124 -0.0951,-0.0124 z"
           style="font-size:4.23333px;fill:#00ff00;stroke-width:0.264583"
           id="path993-6-4" />
        <path
           d="m 121.1464,189.30452 q 0.13229,0.23357 -0.0744,0.39274 -0.0992,0.0703 -0.22944,0.0475 -0.12816,-0.0227 -0.1881,-0.12816 l -1.01906,-1.61023 h -0.51677 v 1.4552 q 0,0.17984 -0.16329,0.26045 -0.1633,0.0786 -0.30593,-0.031 -0.11369,-0.0847 -0.11369,-0.22945 v -3.65248 q 0,-0.11989 0.0827,-0.20464 0.0847,-0.0847 0.2067,-0.0847 h 1.28364 q 0.46302,0 0.80409,0.29559 0.34106,0.29352 0.42374,0.7462 0.0868,0.48576 -0.2067,0.90951 -0.29146,0.42168 -0.77515,0.51263 l -0.0393,0.006 z m -1.03767,-1.87896 q 0.21084,0 0.38861,-0.12815 0.17983,-0.12816 0.24185,-0.33487 0.0972,-0.31832 -0.0889,-0.57464 -0.18603,-0.25838 -0.51263,-0.28525 h -1.01906 v 1.32291 z"
           style="font-size:4.23333px;fill:#00ff00;stroke-width:0.264583"
           id="path995-9-1" />
        <path
           d="m 124.98698,189.46368 q -0.0455,0.28939 -0.29352,0.28939 -0.24598,-0.002 -0.28939,-0.28939 v -2.58175 l -0.709,1.21336 q -0.11368,0.13642 -0.25424,0.14263 -0.1385,0.006 -0.24805,-0.14263 l -0.70487,-1.20716 0.002,2.57555 q -0.0331,0.28732 -0.29972,0.28732 -0.26458,-0.002 -0.28526,-0.28732 v -3.65042 q 0.0165,-0.23771 0.20878,-0.28319 0.19223,-0.0475 0.33486,0.13023 l 0.99425,1.70945 1.00459,-1.70945 q 0.14263,-0.17777 0.33073,-0.13023 0.19017,0.0475 0.20877,0.28319 z"
           style="font-size:4.23333px;fill:#00ff00;stroke-width:0.264583"
           id="path997-2-7" />
      </g>
      <g
         aria-label="y"
         id="text2257-1-8-4-6-1-0-2"
         style="font-size:9.87777px;line-height:1.25;font-family:'MS 33558';-inkscape-font-specification:'MS 33558, ';fill:#00ff00;stroke-width:0.264583"
         transform="translate(1.5875287,-53.974959)">
        <path
           d="m 111.93943,212.83398 q 0.16123,-0.24185 0.38861,-0.11576 0.22944,0.12609 0.11782,0.39481 l -1.18856,2.12287 v 1.38286 q -0.0186,0.29352 -0.28939,0.29352 -0.26871,0 -0.28732,-0.29352 v -1.38286 l -1.18649,-2.12287 q -0.10955,-0.26665 0.11162,-0.39067 0.22118,-0.12609 0.39481,0.11162 l 0.96945,1.73219 z"
           style="font-size:4.23333px;fill:#00ff00;stroke-width:0.264583"
           id="path1000-9-7" />
      </g>
      <g
         aria-label="x"
         id="text2257-1-8-4-6-1-1-4-7"
         style="font-size:9.87777px;line-height:1.25;font-family:'MS 33558';-inkscape-font-specification:'MS 33558, ';fill:#00ff00;stroke-width:0.264583"
         transform="translate(1.58752,-59.266629)">
        <path
           d="m 109.51938,241.88965 1.11828,-2.00091 -0.76275,-1.36632 q -0.10955,-0.27079 0.11369,-0.39481 0.22324,-0.12609 0.39687,0.11162 l 0.58291,1.05213 0.58705,-1.05213 q 0.17363,-0.23771 0.39481,-0.11369 0.22117,0.12402 0.11575,0.39894 l -0.76068,1.36426 1.11621,2.00091 q 0.11163,0.27285 -0.11575,0.39894 -0.22738,0.12402 -0.39067,-0.11782 l -0.94672,-1.68672 -0.93637,1.68672 q -0.17984,0.23564 -0.40308,0.11369 -0.22117,-0.12196 -0.10955,-0.39481 z"
           style="font-size:4.23333px;fill:#00ff00;stroke-width:0.264583"
           id="path1003-1-8" />
      </g>
      <g
         aria-label="off"
         id="text2257-4-6-9-2"
         style="font-size:9.87777px;line-height:1.25;font-family:'MS 33558';-inkscape-font-specification:'MS 33558, ';fill:#00ff00;stroke-width:0.264583"
         transform="translate(-3.28206,-69.671413)">
        <path
           d="m 129.78864,227.30216 q 0.19017,0.57257 0.14263,1.18856 -0.0455,0.61598 -0.33693,1.12447 -0.18397,0.31626 -0.50229,0.53744 -0.31833,0.22117 -0.7028,0.15503 -0.62632,-0.10956 -0.95912,-0.65319 -0.33279,-0.54364 -0.3824,-1.20923 -0.0475,-0.66766 0.17983,-1.30018 0.22944,-0.63252 0.72967,-0.91984 0.24391,-0.14056 0.51056,-0.14056 0.5085,0 0.83096,0.38448 0.32246,0.3824 0.48989,0.83302 z m -1.30431,-0.63045 q -0.38034,0 -0.57671,0.40927 -0.1943,0.40928 -0.24598,0.69867 -0.0393,0.21084 -0.0289,0.51056 0.0103,0.29972 0.0868,0.59325 0.0765,0.29145 0.22944,0.5271 0.15297,0.23357 0.40101,0.31005 0.28939,0.0909 0.49816,-0.11368 0.21084,-0.20671 0.31833,-0.43822 0.10955,-0.23771 0.14883,-0.62425 0.0413,-0.38654 -0.0186,-0.77101 -0.0579,-0.38654 -0.22944,-0.69453 -0.17156,-0.31006 -0.48782,-0.39481 -0.0413,-0.0124 -0.0951,-0.0124 z"
           style="font-size:4.23333px;fill:#00ff00;stroke-width:0.264583"
           id="path1006-2-8" />
        <path
           d="m 130.48731,230.02447 v -3.64628 q 0.0372,-0.27286 0.29352,-0.29353 h 2.00091 q 0.28732,0.0227 0.28732,0.29353 0,0.26871 -0.29145,0.28732 h -1.70946 v 1.13068 h 1.33325 q 0.28525,0.0207 0.28939,0.27905 0.004,0.25838 -0.28939,0.30179 h -1.33325 v 1.64744 q -0.0207,0.28525 -0.28112,0.28939 -0.25838,0.004 -0.29972,-0.28939 z"
           style="font-size:4.23333px;fill:#00ff00;stroke-width:0.264583"
           id="path1008-5-5" />
        <path
           d="m 133.64784,230.02447 v -3.64628 q 0.0372,-0.27286 0.29352,-0.29353 h 2.00091 q 0.28732,0.0227 0.28732,0.29353 0,0.26871 -0.29146,0.28732 h -1.70945 v 1.13068 h 1.33325 q 0.28525,0.0207 0.28939,0.27905 0.004,0.25838 -0.28939,0.30179 h -1.33325 v 1.64744 q -0.0207,0.28525 -0.28112,0.28939 -0.25838,0.004 -0.29972,-0.28939 z"
           style="font-size:4.23333px;fill:#00ff00;stroke-width:0.264583"
           id="path1010-5-4" />
      </g>
      <g
         aria-label="bcn"
         id="text2257-4-6-4-2-0-5-3-3"
         style="font-size:9.87777px;line-height:1.25;font-family:'MS 33558';-inkscape-font-specification:'MS 33558, ';fill:#00ff00;stroke-width:0.264583"
         transform="translate(-0.59382,-69.671452)">
        <path
           d="m 165.61841,226.08569 q 0.39274,0.0331 0.65939,0.23771 0.26872,0.20464 0.37207,0.49402 0.10335,0.28732 0.0269,0.61392 -0.0744,0.32453 -0.3638,0.59738 0.31833,0.33486 0.39687,0.72347 0.0786,0.3886 -0.0496,0.7276 -0.12609,0.33693 -0.44028,0.57258 -0.31419,0.23564 -0.77928,0.26665 h -0.006 -1.09967 q -0.25425,-0.0351 -0.29353,-0.28733 v -3.65248 q 0.0351,-0.25632 0.29353,-0.29352 z m -0.18397,3.64835 q 0.3514,-0.0145 0.53537,-0.22738 0.18397,-0.2129 0.19017,-0.47129 0.008,-0.26044 -0.16537,-0.48782 -0.17363,-0.22738 -0.53537,-0.27492 h -0.83302 v 1.46141 z m 0.18397,-3.06131 h -0.99219 v 1.01906 h 0.99839 q 0.25631,-0.0269 0.38034,-0.18397 0.12609,-0.15916 0.12195,-0.339 -0.002,-0.1819 -0.13022,-0.33073 -0.12816,-0.15089 -0.37827,-0.16536 z"
           style="font-size:4.23333px;fill:#00ff00;stroke-width:0.264583"
           id="path1034-2-2" />
        <path
           d="m 169.94269,229.65756 -0.0186,0.0269 q -0.006,0.008 -0.0103,0.0145 -0.004,0.006 -0.008,0.0124 -0.28319,0.38241 -0.74414,0.5457 -0.45889,0.16123 -0.90537,-0.0599 -0.51883,-0.25838 -0.76274,-0.87643 -0.24185,-0.61805 -0.20878,-1.28364 0.0351,-0.66766 0.3514,-1.22577 0.31833,-0.5581 0.92191,-0.69866 0.34727,-0.0806 0.69246,0.0682 0.3452,0.14676 0.56638,0.41341 0.002,0 0.0103,0.0145 0.0951,0.12402 0.0393,0.27285 -0.0558,0.14676 -0.20464,0.18397 -0.15916,0.0413 -0.29352,-0.0951 -0.27699,-0.32247 -0.5333,-0.31006 -0.25632,0.0124 -0.45889,0.21084 -0.20257,0.19843 -0.33693,0.50849 -0.13436,0.31006 -0.16536,0.58085 -0.0372,0.30179 0.006,0.60771 0.0455,0.30386 0.1881,0.57257 0.24805,0.47129 0.62425,0.59118 0.37827,0.11782 0.73794,-0.36173 0.0165,-0.0207 0.0393,-0.0538 0.19431,-0.21497 0.40928,-0.0434 0.21704,0.16949 0.0641,0.38447 z"
           style="font-size:4.23333px;fill:#00ff00;stroke-width:0.264583"
           id="path1036-7-3" />
        <path
           d="m 173.374,230.03376 q 0,0.21704 -0.21084,0.27699 -0.20877,0.0579 -0.32453,-0.12403 l -1.73632,-2.78432 v 2.63136 q -0.0455,0.28939 -0.29353,0.28939 -0.24598,0 -0.28938,-0.28939 v -3.65042 q 0.031,-0.21497 0.2191,-0.28318 0.19017,-0.0682 0.31626,0.12815 l 1.73633,2.78846 v -2.63343 q 0.0393,-0.29559 0.29972,-0.29145 0.26252,0.002 0.28319,0.29145 z"
           style="font-size:4.23333px;fill:#00ff00;stroke-width:0.264583"
           id="path1038-8-3" />
      </g>
      <g
         id="g1509"
         transform="translate(206.81696,21.166676)">
        <g
           aria-label="rec"
           id="text2257-4-6-4-3-2"
           style="font-size:9.87777px;line-height:1.25;font-family:'MS 33558';-inkscape-font-specification:'MS 33558, ';fill:#00ff00;stroke-width:0.264583"
           transform="translate(-205.63044,-84.962259)">
          <path
             d="m 131.73418,216.82306 q 0.13229,0.23357 -0.0744,0.39274 -0.0992,0.0703 -0.22945,0.0475 -0.12815,-0.0227 -0.1881,-0.12816 l -1.01906,-1.61024 h -0.51676 v 1.45521 q 0,0.17984 -0.1633,0.26045 -0.1633,0.0786 -0.30592,-0.031 -0.11369,-0.0847 -0.11369,-0.22944 v -3.65249 q 0,-0.11988 0.0827,-0.20463 0.0848,-0.0848 0.20671,-0.0848 h 1.28364 q 0.46302,0 0.80408,0.29559 0.34107,0.29352 0.42375,0.7462 0.0868,0.48576 -0.20671,0.90951 -0.29145,0.42168 -0.77514,0.51263 l -0.0393,0.006 z m -1.03766,-1.87896 q 0.21084,0 0.38861,-0.12816 0.17983,-0.12815 0.24184,-0.33486 0.0971,-0.31833 -0.0889,-0.57464 -0.18604,-0.25838 -0.51263,-0.28525 h -1.01906 v 1.32291 z"
             style="font-size:4.23333px;fill:#00ff00;stroke-width:0.264583"
             id="path1013-5-1" />
          <path
             d="m 134.78722,213.61499 h -1.71359 v 1.13067 h 1.30638 q 0.29352,0.0434 0.29146,0.29559 0,0.25012 -0.29146,0.29146 h -1.30638 v 1.35805 h 1.71359 q 0.29146,0.0434 0.29146,0.29146 0,0.24805 -0.29146,0.28939 h -2.00091 q -0.25838,-0.0331 -0.29352,-0.29353 v -3.65042 q 0.0393,-0.27285 0.29352,-0.28938 h 2.00091 q 0.29146,0.0227 0.28939,0.29145 0,0.26665 -0.28939,0.28526 z"
             style="font-size:4.23333px;fill:#00ff00;stroke-width:0.264583"
             id="path1015-9-6" />
          <path
             d="m 138.31569,216.61015 -0.0186,0.0269 q -0.006,0.008 -0.0103,0.0145 -0.004,0.006 -0.008,0.0124 -0.28319,0.38241 -0.74414,0.5457 -0.45889,0.16124 -0.90537,-0.0599 -0.51883,-0.25838 -0.76275,-0.87643 -0.24184,-0.61805 -0.20877,-1.28364 0.0351,-0.66766 0.3514,-1.22577 0.31833,-0.5581 0.92191,-0.69866 0.34726,-0.0806 0.69246,0.0682 0.3452,0.14676 0.56638,0.41341 0.002,0 0.0103,0.0145 0.0951,0.12403 0.0393,0.27285 -0.0558,0.14676 -0.20463,0.18397 -0.15917,0.0413 -0.29353,-0.0951 -0.27698,-0.32246 -0.5333,-0.31006 -0.25631,0.0124 -0.45888,0.21084 -0.20257,0.19844 -0.33693,0.50849 -0.13436,0.31006 -0.16537,0.58085 -0.0372,0.30179 0.006,0.60771 0.0455,0.30386 0.18811,0.57257 0.24804,0.47129 0.62425,0.59118 0.37827,0.11782 0.73794,-0.36173 0.0165,-0.0207 0.0393,-0.0538 0.1943,-0.21497 0.40928,-0.0434 0.21704,0.16949 0.0641,0.38447 z"
             style="font-size:4.23333px;fill:#00ff00;stroke-width:0.264583"
             id="path1017-5-4" />
        </g>
        <g
           aria-label="t/r"
           id="text2257-4-6-4-2-2-8"
           style="font-size:9.87777px;line-height:1.25;font-family:'MS 33558';-inkscape-font-specification:'MS 33558, ';fill:#00ff00;stroke-width:0.264583"
           transform="translate(-208.79238,-84.666647)">
          <path
             d="m 146.42345,211.5108 v -3.36103 h -0.7586 q -0.28939,-0.0227 -0.28939,-0.28939 0.002,-0.26872 0.28939,-0.29352 h 2.09806 q 0.28525,0.0227 0.28525,0.29352 0.002,0.26872 -0.28525,0.28939 h -0.75655 v 3.36103 q -0.0475,0.29352 -0.30592,0.28939 -0.25631,-0.004 -0.27699,-0.28939 z"
             style="font-size:4.23333px;fill:#00ff00;stroke-width:0.264583"
             id="path1020-1-8" />
          <path
             d="m 150.65678,207.71775 q 0.062,-0.11162 0.14883,-0.13022 0.0889,-0.0207 0.0992,-0.0207 0.14883,0 0.24598,0.12815 0.0971,0.12816 0.0103,0.30179 l -1.9513,3.65456 q -0.0248,0.0475 -0.0889,0.0992 -0.0641,0.0496 -0.1695,0.0496 -0.14882,0 -0.23771,-0.12816 -0.0868,-0.12816 -0.0165,-0.30799 z"
             style="font-size:4.23333px;fill:#00ff00;stroke-width:0.264583"
             id="path1022-6-7" />
          <path
             d="m 154.4643,211.35164 q 0.13229,0.23357 -0.0744,0.39274 -0.0992,0.0703 -0.22945,0.0475 -0.12815,-0.0227 -0.1881,-0.12816 l -1.01906,-1.61024 h -0.51676 v 1.45521 q 0,0.17984 -0.1633,0.26045 -0.1633,0.0786 -0.30592,-0.031 -0.11369,-0.0847 -0.11369,-0.22944 v -3.65249 q 0,-0.11989 0.0827,-0.20463 0.0847,-0.0848 0.20671,-0.0848 h 1.28364 q 0.46302,0 0.80408,0.29559 0.34107,0.29352 0.42375,0.7462 0.0868,0.48576 -0.20671,0.90951 -0.29145,0.42168 -0.77514,0.51263 l -0.0393,0.006 z m -1.03766,-1.87896 q 0.21084,0 0.38861,-0.12816 0.17983,-0.12815 0.24184,-0.33486 0.0971,-0.31833 -0.0889,-0.57464 -0.18604,-0.25838 -0.51263,-0.28525 h -1.01906 v 1.32291 z"
             style="font-size:4.23333px;fill:#00ff00;stroke-width:0.264583"
             id="path1024-9-4" />
        </g>
        <g
           aria-label="a/a"
           id="text2257-4-6-4-2-0-6-9"
           style="font-size:9.87777px;line-height:1.25;font-family:'MS 33558';-inkscape-font-specification:'MS 33558, ';fill:#00ff00;stroke-width:0.264583"
           transform="translate(-211.85891,-84.96216)">
          <path
             d="m 163.81769,215.91155 -0.62838,-1.73632 -0.63252,1.73632 z m -0.62838,-1.73632 0.62838,1.73632 z m -1.59577,2.69544 q 0.33073,-0.91158 0.66146,-1.82108 0.33279,-0.91157 0.66559,-1.82314 0.0682,-0.18811 0.27078,-0.19017 0.20258,-0.002 0.27286,0.19017 l 1.32498,3.65455 q 0.062,0.29146 -0.17777,0.37621 -0.23978,0.0847 -0.37,-0.17364 l -0.21291,-0.59118 h -1.68465 l -0.2067,0.57671 q -0.1323,0.26045 -0.37621,0.17157 -0.24391,-0.0909 -0.16743,-0.37 z"
             style="font-size:4.23333px;fill:#00ff00;stroke-width:0.264583"
             id="path1027-5-2" />
          <path
             d="m 167.18699,213.18717 q 0.062,-0.11162 0.14883,-0.13022 0.0889,-0.0207 0.0992,-0.0207 0.14883,0 0.24598,0.12816 0.0971,0.12815 0.0103,0.30179 l -1.9513,3.65455 q -0.0248,0.0475 -0.0889,0.0992 -0.0641,0.0496 -0.1695,0.0496 -0.14883,0 -0.23771,-0.12816 -0.0868,-0.12816 -0.0165,-0.30799 z"
             style="font-size:4.23333px;fill:#00ff00;stroke-width:0.264583"
             id="path1029-6-0" />
          <path
             d="m 170.62244,215.91155 -0.62839,-1.73632 -0.63252,1.73632 z m -0.62839,-1.73632 0.62839,1.73632 z m -1.59576,2.69544 q 0.33073,-0.91158 0.66145,-1.82108 0.3328,-0.91157 0.6656,-1.82314 0.0682,-0.18811 0.27078,-0.19017 0.20257,-0.002 0.27285,0.19017 l 1.32498,3.65455 q 0.062,0.29146 -0.17776,0.37621 -0.23978,0.0847 -0.37,-0.17364 l -0.21291,-0.59118 h -1.68465 l -0.20671,0.57671 q -0.13229,0.26045 -0.3762,0.17157 -0.24391,-0.0909 -0.16743,-0.37 z"
             style="font-size:4.23333px;fill:#00ff00;stroke-width:0.264583"
             id="path1031-8-0" />
        </g>
      </g>
      <g
         aria-label="chan"
         id="text2257-1-8-5-2-5"
         style="font-size:9.87777px;line-height:1.25;font-family:'MS 33558';-inkscape-font-specification:'MS 33558, ';fill:#00ff00;stroke-width:0.264583"
         transform="translate(-1.58748,-58.737462)">
        <path
           d="m 65.424292,185.20938 -0.0186,0.0269 q -0.0062,0.008 -0.01033,0.0145 -0.0041,0.006 -0.0083,0.0124 -0.283186,0.38241 -0.74414,0.5457 -0.458886,0.16123 -0.90537,-0.0599 -0.518831,-0.25838 -0.762744,-0.87643 -0.241845,-0.61805 -0.208772,-1.28364 0.03514,-0.66766 0.351399,-1.22577 0.318327,-0.5581 0.921907,-0.69866 0.347265,-0.0806 0.692464,0.0682 0.345198,0.14676 0.566373,0.41341 0.0021,0 0.01033,0.0145 0.09508,0.12402 0.03927,0.27285 -0.05581,0.14676 -0.204638,0.18397 -0.159164,0.0413 -0.293522,-0.0951 -0.276986,-0.32246 -0.5333,-0.31005 -0.256315,0.0124 -0.458887,0.21084 -0.202571,0.19843 -0.33693,0.50849 -0.134358,0.31006 -0.165364,0.58084 -0.03721,0.30179 0.0062,0.60772 0.04548,0.30386 0.188102,0.57257 0.248047,0.47129 0.624251,0.59118 0.378271,0.11782 0.737939,-0.36173 0.01654,-0.0207 0.03927,-0.0537 0.194303,-0.21497 0.409277,-0.0434 0.21704,0.1695 0.06408,0.38448 z"
           style="font-size:4.23333px;fill:#00ff00;stroke-width:0.264583"
           id="path1041-1-5" />
        <path
           d="m 66.001001,185.58558 v -3.65455 q 0.04341,-0.29766 0.30179,-0.29146 0.258382,0.004 0.28112,0.29146 v 1.36632 h 1.663979 v -1.36632 q 0.04341,-0.29146 0.291455,-0.29146 0.250114,-0.002 0.295589,0.29146 v 3.65455 q -0.04548,0.29146 -0.295589,0.28939 -0.248047,0 -0.291455,-0.28939 v -1.70119 h -1.663979 v 1.70119 q -0.02274,0.28525 -0.28112,0.28939 -0.258382,0.004 -0.30179,-0.28939 z"
           style="font-size:4.23333px;fill:#00ff00;stroke-width:0.264583"
           id="path1043-3-3" />
        <path
           d="m 71.635794,184.51278 -0.628385,-1.73633 -0.632519,1.73633 z m -0.628385,-1.73633 0.628385,1.73633 z m -1.595767,2.69544 q 0.330729,-0.91157 0.661458,-1.82107 0.332796,-0.91157 0.665592,-1.82315 0.06821,-0.1881 0.270784,-0.19017 0.202572,-0.002 0.272852,0.19017 l 1.324982,3.65456 q 0.06201,0.29145 -0.177767,0.3762 -0.239778,0.0848 -0.370003,-0.17363 l -0.212906,-0.59118 h -1.684651 l -0.206705,0.57671 q -0.132292,0.26045 -0.376204,0.17157 -0.243913,-0.091 -0.167432,-0.37001 z"
           style="font-size:4.23333px;fill:#00ff00;stroke-width:0.264583"
           id="path1045-7-7" />
        <path
           d="m 75.869124,185.58558 q 0,0.21704 -0.210839,0.27699 -0.208773,0.0579 -0.324528,-0.12403 l -1.736327,-2.78432 v 2.63136 q -0.04547,0.28939 -0.293522,0.28939 -0.245979,0 -0.289387,-0.28939 v -3.65042 q 0.031,-0.21497 0.219108,-0.28319 0.190169,-0.0682 0.316259,0.12816 l 1.736327,2.78846 v -2.63343 q 0.03927,-0.29559 0.299723,-0.29145 0.262516,0.002 0.283186,0.29145 z"
           style="font-size:4.23333px;fill:#00ff00;stroke-width:0.264583"
           id="path1047-5-4" />
      </g>
      <path
         id="path2659-3-14-6"
         style="fill:#ff0000;stroke-width:0.268926"
         d="m 157.58791,94.680338 a 3.175,3.175 0 0 1 -3.175,3.175 3.175,3.175 0 0 1 -3.17501,-3.175 3.175,3.175 0 0 1 3.17501,-3.175 3.175,3.175 0 0 1 3.175,3.175 z" />
      <g
         aria-label="vol"
         id="text2257-1-5-2-0"
         style="font-size:9.87777px;line-height:1.25;font-family:'MS 33558';-inkscape-font-specification:'MS 33558, ';fill:#00ff00;stroke-width:0.264583"
         transform="translate(-1.58748,-58.737462)">
        <path
           d="m 148.28766,164.74249 q -0.0393,-0.29352 0.20877,-0.35967 0.25011,-0.0662 0.35553,0.20877 l 0.6966,2.57969 0.70073,-2.60449 q 0.10542,-0.27905 0.36381,-0.20257 0.25838,0.0744 0.19843,0.35346 l -0.98392,3.65249 q -0.0827,0.21291 -0.27698,0.21497 -0.1943,0 -0.28319,-0.2067 z"
           style="font-size:4.23333px;fill:#00ff00;stroke-width:0.264583"
           id="path1051-4-7" />
        <path
           d="m 154.14156,165.56931 q 0.19017,0.57257 0.14263,1.18856 -0.0455,0.61598 -0.33693,1.12448 -0.18397,0.31625 -0.5023,0.53743 -0.31833,0.22117 -0.7028,0.15503 -0.62632,-0.10956 -0.95911,-0.65319 -0.3328,-0.54364 -0.38241,-1.20923 -0.0475,-0.66766 0.17984,-1.30018 0.22944,-0.63252 0.72967,-0.91984 0.24391,-0.14056 0.51056,-0.14056 0.5085,0 0.83096,0.38448 0.32246,0.3824 0.48989,0.83302 z m -1.30431,-0.63045 q -0.38034,0 -0.57671,0.40928 -0.1943,0.40927 -0.24598,0.69866 -0.0393,0.21084 -0.0289,0.51056 0.0103,0.29973 0.0868,0.59325 0.0765,0.29145 0.22944,0.5271 0.15296,0.23357 0.40101,0.31005 0.28939,0.091 0.49816,-0.11368 0.21084,-0.20671 0.31833,-0.43822 0.10955,-0.23771 0.14882,-0.62425 0.0413,-0.38654 -0.0186,-0.77101 -0.0579,-0.38654 -0.22944,-0.69453 -0.17157,-0.31006 -0.48783,-0.39481 -0.0413,-0.0124 -0.0951,-0.0124 z"
           style="font-size:4.23333px;fill:#00ff00;stroke-width:0.264583"
           id="path1053-9-9" />
        <path
           d="m 155.13375,168.58721 q -0.25425,-0.0165 -0.29353,-0.28732 v -3.65455 q 0.0434,-0.29766 0.30179,-0.29146 0.25839,0.004 0.28112,0.29146 v 3.36516 l 1.9079,-0.002 q 0.29352,0.0331 0.28938,0.29765 -0.002,0.26252 -0.29145,0.28112 z"
           style="font-size:4.23333px;fill:#00ff00;stroke-width:0.264583"
           id="path1055-4-8" />
      </g>
      <path
         id="path2659-7-5-0-8"
         style="fill:#ff0000;stroke-width:0.268926"
         d="m 105.90598,195.22188 a 3.175,3.175 0 0 1 -3.175,3.175 3.175,3.175 0 0 1 -3.175,-3.175 3.175,3.175 0 0 1 3.175,-3.175 3.175,3.175 0 0 1 3.175,3.175 z" />
      <path
         id="path8-2-1-5-6"
         style="fill:#ff0000;stroke-width:0.1786"
         d="m 153.43738,167.59138 a 5,5 0 0 1 -5.00001,4.99999 5,5 0 0 1 -4.99999,-4.99999 5,5 0 0 1 4.99999,-5 5,5 0 0 1 5.00001,5 z" />
      <path
         id="path933-67"
         style="fill:#ff0000;stroke-width:0.219578"
         d="m 55.84224,185.02551 a 3.175,3.175 0 0 1 -3.08462,3.17371 3.175,3.175 0 0 1 -3.26023,-2.99302 3.175,3.175 0 0 1 2.899,-3.34412 3.175,3.175 0 0 1 3.42529,2.80263" />
      <path
         id="path933-1-0"
         style="fill:#ff0000;stroke-width:0.219578"
         d="m 86.26927,138.42282 a 3.175,3.175 0 0 1 -3.08462,3.17371 3.175,3.175 0 0 1 -3.26024,-2.99302 3.175,3.175 0 0 1 2.899,-3.34412 3.175,3.175 0 0 1 3.42529,2.80263" />
      <path
         id="path933-9-5"
         style="fill:#ff0000;stroke-width:0.219578"
         d="m 86.26928,185.02551 a 3.175,3.175 0 0 1 -3.08462,3.17371 3.175,3.175 0 0 1 -3.26023,-2.99302 3.175,3.175 0 0 1 2.899,-3.34412 3.175,3.175 0 0 1 3.42529,2.80263" />
      <path
         id="path933-0-06"
         style="fill:#ff0000;stroke-width:0.219578"
         d="m 55.84224,138.42282 a 3.175,3.175 0 0 1 -3.08462,3.17371 3.175,3.175 0 0 1 -3.26023,-2.99302 3.175,3.175 0 0 1 2.899,-3.34412 3.175,3.175 0 0 1 3.42529,2.80263" />
      <path
         id="path2195-9-9-4-0-8"
         style="fill:#ff0000;stroke-width:0.19685;stroke-miterlimit:4;stroke-dasharray:none"
         d="m 72.728127,161.71591 a 5,5 0 0 1 -5,5 5,5 0 0 1 -5,-5 5,5 0 0 1 5,-5 5,5 0 0 1 5,5 z" />
      <path
         id="path1589-5-9-7"
         style="fill:#ff0000;stroke:none;stroke-width:0.177252"
         d="m 115.55763,170.65625 a 3,3 0 0 1 -2.9146,2.99878 3,3 0 0 1 -3.08054,-2.82806 3,3 0 0 1 2.73922,-3.15978 3,3 0 0 1 3.23649,2.64814" />
    </g>
  </g>
</svg>
