<?xml version="1.0" encoding="UTF-8" standalone="no"?>
<svg
   xmlns:dc="http://purl.org/dc/elements/1.1/"
   xmlns:cc="http://creativecommons.org/ns#"
   xmlns:rdf="http://www.w3.org/1999/02/22-rdf-syntax-ns#"
   xmlns:svg="http://www.w3.org/2000/svg"
   xmlns="http://www.w3.org/2000/svg"
   xmlns:sodipodi="http://sodipodi.sourceforge.net/DTD/sodipodi-0.dtd"
   xmlns:inkscape="http://www.inkscape.org/namespaces/inkscape"
   width="210mm"
   height="297mm"
   viewBox="0 0 210 297"
   version="1.1"
   id="svg926"
   inkscape:version="1.0.2 (e86c870879, 2021-01-15, custom)"
   sodipodi:docname="Master Gen Panel Top.svg">
  <defs
     id="defs920" />
  <sodipodi:namedview
     id="base"
     pagecolor="#ffffff"
     bordercolor="#666666"
     borderopacity="1.0"
     inkscape:pageopacity="0.0"
     inkscape:pageshadow="2"
     inkscape:zoom="0.35"
     inkscape:cx="400"
     inkscape:cy="560"
     inkscape:document-units="mm"
     inkscape:current-layer="layer1"
     inkscape:document-rotation="0"
     showgrid="false"
     inkscape:window-width="1431"
     inkscape:window-height="1208"
     inkscape:window-x="2848"
     inkscape:window-y="135"
     inkscape:window-maximized="0" />
  <metadata
     id="metadata923">
    <rdf:RDF>
      <cc:Work
         rdf:about="">
        <dc:format>image/svg+xml</dc:format>
        <dc:type
           rdf:resource="http://purl.org/dc/dcmitype/StillImage" />
        <dc:title></dc:title>
      </cc:Work>
    </rdf:RDF>
  </metadata>
  <g
     inkscape:label="Layer 1"
     inkscape:groupmode="layer"
     id="layer1">
    <g
       id="g1805">
      <rect
         style="fill:none;stroke:#000000;stroke-width:0.240623;stroke-miterlimit:4;stroke-dasharray:none"
         id="rect984"
         width="107.70937"
         height="69.609375"
         x="48.198883"
         y="92.195312" />
      <g
         aria-label="master Gen"
         transform="scale(0.99922789,1.0007727)"
         id="text79-8-7-4"
         style="font-style:normal;font-variant:normal;font-weight:normal;font-stretch:normal;font-size:4.23007px;line-height:1.25;font-family:'MS 33558';-inkscape-font-specification:'MS 33558, ';letter-spacing:0px;word-spacing:0px;fill:#00ff00;fill-opacity:1;stroke:none;stroke-width:0.264379">
        <path
           d="m 87.889024,99.608883 q -0.04544,0.289165 -0.293295,0.289165 -0.245791,-0.0021 -0.289165,-0.289165 v -2.579764 l -0.708455,1.212427 q -0.1136,0.136321 -0.254052,0.142517 -0.138386,0.0062 -0.247855,-0.142517 l -0.704323,-1.206231 0.0021,2.573568 q -0.03305,0.2871 -0.299492,0.2871 -0.26438,-0.0021 -0.285034,-0.2871 v -3.647609 q 0.01652,-0.237528 0.208612,-0.282968 0.192088,-0.04751 0.334605,0.130124 l 0.993488,1.708138 1.003815,-1.708138 q 0.142517,-0.17763 0.330475,-0.130124 0.190022,0.0475 0.208611,0.282968 z"
           style="font-style:normal;font-variant:normal;font-weight:normal;font-stretch:normal;font-size:4.23007px;font-family:'MS 33558';-inkscape-font-specification:'MS 33558, ';fill:#00ff00;stroke-width:0.264379"
           id="path1630" />
        <path
           d="m 90.621633,98.541039 -0.627901,-1.73499 -0.632032,1.73499 z m -0.627901,-1.73499 0.627901,1.73499 z m -1.594538,2.693365 q 0.330474,-0.91087 0.660949,-1.819674 0.332539,-0.910869 0.665079,-1.821739 0.06816,-0.187957 0.270576,-0.190023 0.202415,-0.0021 0.272641,0.190023 l 1.323962,3.65174 q 0.06196,0.291231 -0.17763,0.375915 -0.239593,0.08468 -0.369718,-0.173499 l -0.212742,-0.590723 h -1.683354 l -0.206546,0.576264 q -0.13219,0.260249 -0.375914,0.171434 -0.243725,-0.09088 -0.167303,-0.369718 z"
           style="font-style:normal;font-variant:normal;font-weight:normal;font-stretch:normal;font-size:4.23007px;font-family:'MS 33558';-inkscape-font-specification:'MS 33558, ';fill:#00ff00;stroke-width:0.264379"
           id="path1632" />
        <path
           d="m 94.077154,97.646693 0.03305,0.01446 0.03718,0.01859 0.03305,0.01859 q 0.01446,0.01033 0.03098,0.02066 0.01859,0.0083 0.03511,0.01859 0.408962,0.26851 0.506039,0.743567 0.03718,0.185892 0.01652,0.382111 -0.03305,0.280903 -0.198285,0.520497 -0.163171,0.237528 -0.411027,0.367652 -0.266445,0.140452 -0.551479,0.140452 -0.479188,0 -0.915001,-0.121862 -0.435812,-0.123928 -0.621704,-0.658883 -0.02479,-0.06816 -0.03718,-0.140452 -0.01239,-0.07229 -0.02892,-0.144582 -0.03098,-0.148714 0.07229,-0.262314 0.105339,-0.113601 0.260249,-0.08675 0.163171,0.03305 0.227201,0.202416 l 0.0062,0.01859 q 0.09914,0.448206 0.344933,0.534955 0.247855,0.08675 0.687799,0.07849 0.404831,0 0.55561,-0.380046 0.0661,-0.169368 0.02066,-0.351129 -0.04544,-0.183826 -0.179696,-0.305688 -0.0599,-0.05164 -0.156975,-0.09708 l -0.95631,-0.419289 -0.03098,-0.01652 q -0.46886,-0.247856 -0.582461,-0.704323 -0.138386,-0.528759 0.192088,-0.948048 0.33254,-0.421355 0.871626,-0.421355 l 0.227201,0.0062 q 0.111535,0.02065 0.214809,0.04131 0.103273,0.01859 0.208611,0.06609 0.260249,0.121862 0.398635,0.334605 0.138386,0.212743 0.249921,0.460598 0.01033,0.02272 0.01859,0.0537 0.02272,0.101208 -0.02065,0.183827 -0.02479,0.05164 -0.05164,0.07849 -0.02685,0.02685 -0.04337,0.03718 -0.107404,0.07642 -0.235463,0.04544 -0.128058,-0.02892 -0.196219,-0.165237 -0.0537,-0.119797 -0.115666,-0.243725 -0.0599,-0.125993 -0.169368,-0.208612 -0.04544,-0.03305 -0.08882,-0.04751 -0.04131,-0.01652 -0.09295,-0.03511 l -0.134255,-0.02272 -0.190022,-0.0062 q -0.276773,0.0041 -0.423421,0.239594 -0.09914,0.150779 -0.07436,0.336671 0.02892,0.229266 0.214808,0.355259 0.0083,0.0062 0.01859,0.01446 0.01033,0.0062 0.02272,0.01239 l 0.02272,0.01033 0.02479,0.01033 z"
           style="font-style:normal;font-variant:normal;font-weight:normal;font-stretch:normal;font-size:4.23007px;font-family:'MS 33558';-inkscape-font-specification:'MS 33558, ';fill:#00ff00;stroke-width:0.264379"
           id="path1634" />
        <path
           d="m 96.334706,99.608883 v -3.358444 h -0.758025 q -0.289165,-0.02272 -0.289165,-0.289165 0.0021,-0.26851 0.289165,-0.293296 h 2.096445 q 0.285034,0.02272 0.285034,0.293296 0.0021,0.26851 -0.285034,0.289165 h -0.755959 v 3.358444 q -0.04751,0.293296 -0.305689,0.289165 -0.256118,-0.0041 -0.276772,-0.289165 z"
           style="font-style:normal;font-variant:normal;font-weight:normal;font-stretch:normal;font-size:4.23007px;font-family:'MS 33558';-inkscape-font-specification:'MS 33558, ';fill:#00ff00;stroke-width:0.264379"
           id="path1636" />
        <path
           d="m 100.8684,96.244243 h -1.71227 v 1.129808 h 1.30537 q 0.2933,0.04338 0.29123,0.295362 0,0.249921 -0.29123,0.29123 h -1.30537 v 1.35701 h 1.71227 q 0.29123,0.04337 0.29123,0.29123 0,0.247856 -0.29123,0.289165 h -1.999369 q -0.258183,-0.03305 -0.293296,-0.293295 v -3.64761 q 0.03924,-0.272641 0.293296,-0.289165 h 1.999369 q 0.29123,0.02272 0.28916,0.291231 0,0.266445 -0.28916,0.285034 z"
           style="font-style:normal;font-variant:normal;font-weight:normal;font-stretch:normal;font-size:4.23007px;font-family:'MS 33558';-inkscape-font-specification:'MS 33558, ';fill:#00ff00;stroke-width:0.264379"
           id="path1638" />
        <path
           d="m 104.34251,99.449843 q 0.13219,0.233397 -0.0744,0.392438 -0.0991,0.07023 -0.22926,0.04751 -0.12806,-0.02272 -0.18796,-0.128059 l -1.01827,-1.608997 h -0.51637 v 1.454087 q 0,0.179695 -0.16317,0.260248 -0.16317,0.07849 -0.30569,-0.03098 -0.1136,-0.08468 -0.1136,-0.229266 v -3.649675 q 0,-0.119797 0.0826,-0.204481 0.0847,-0.08468 0.20654,-0.08468 h 1.28266 q 0.46266,0 0.80346,0.295362 0.3408,0.293296 0.42342,0.745632 0.0868,0.485384 -0.20654,0.908804 -0.29123,0.421355 -0.77455,0.512235 l -0.0392,0.0062 z m -1.03686,-1.877507 q 0.21067,0 0.3883,-0.128059 0.1797,-0.128059 0.24166,-0.334605 0.0971,-0.318081 -0.0888,-0.574199 -0.18589,-0.258183 -0.51224,-0.285034 h -1.01827 v 1.321897 z"
           style="font-style:normal;font-variant:normal;font-weight:normal;font-stretch:normal;font-size:4.23007px;font-family:'MS 33558';-inkscape-font-specification:'MS 33558, ';fill:#00ff00;stroke-width:0.264379"
           id="path1640" />
        <path
           d="m 110.74338,98.194041 -0.0186,-0.0021 q -0.25198,-0.03098 -0.25198,-0.287099 0,-0.256118 0.25198,-0.2871 l 0.0186,-0.0041 h 0.0186 0.76216 q 0.11979,0 0.20448,0.08675 0.0867,0.08468 0.0867,0.204481 v 1.04719 l -0.0248,0.0537 -0.0145,0.03305 -0.0144,0.03098 -0.0165,0.03098 -0.0165,0.03098 -0.0145,0.03098 -0.0165,0.03098 -0.0186,0.03098 q -0.4007,0.681603 -0.99556,0.667145 -0.59485,-0.01652 -0.99968,-0.673341 -0.19209,-0.311885 -0.28504,-0.780746 -0.0929,-0.470925 -0.0558,-0.96044 0.0372,-0.491581 0.2272,-0.93359 0.19209,-0.444075 0.57213,-0.704323 0.47506,-0.322213 0.92533,-0.07436 0.45027,0.24579 0.67334,0.691931 l 0.0165,0.03305 0.0124,0.02892 0.0165,0.03098 q 0.0702,0.196219 -0.0537,0.320147 -0.1198,0.117732 -0.26025,0.08881 -0.14045,-0.03098 -0.21687,-0.167302 -0.24166,-0.598985 -0.62377,-0.522563 -0.38005,0.07642 -0.57007,0.62377 -0.18589,0.528759 -0.14665,1.138071 0.0392,0.607246 0.39657,1.059583 0.24579,0.316016 0.49984,0.202415 0.25405,-0.1136 0.4007,-0.42342 l 0.0227,-0.04544 v -0.629966 z"
           style="font-style:normal;font-variant:normal;font-weight:normal;font-stretch:normal;font-size:4.23007px;font-family:'MS 33558';-inkscape-font-specification:'MS 33558, ';fill:#00ff00;stroke-width:0.264379"
           id="path1642" />
        <path
           d="m 114.78136,96.244243 h -1.71227 v 1.129808 h 1.30538 q 0.29329,0.04338 0.29123,0.295362 0,0.249921 -0.29123,0.29123 h -1.30538 v 1.35701 h 1.71227 q 0.29123,0.04337 0.29123,0.29123 0,0.247856 -0.29123,0.289165 h -1.99937 q -0.25818,-0.03305 -0.29329,-0.293295 v -3.64761 q 0.0392,-0.272641 0.29329,-0.289165 h 1.99937 q 0.29123,0.02272 0.28917,0.291231 0,0.266445 -0.28917,0.285034 z"
           style="font-style:normal;font-variant:normal;font-weight:normal;font-stretch:normal;font-size:4.23007px;font-family:'MS 33558';-inkscape-font-specification:'MS 33558, ';fill:#00ff00;stroke-width:0.264379"
           id="path1644" />
        <path
           d="m 118.4992,99.613014 q 0,0.216874 -0.21068,0.276773 -0.20861,0.05783 -0.32428,-0.123928 l -1.73499,-2.78218 v 2.629335 q -0.0454,0.289165 -0.29329,0.289165 -0.24579,0 -0.28917,-0.289165 v -3.647609 q 0.031,-0.214808 0.21894,-0.282968 0.19003,-0.06816 0.31602,0.128058 l 1.73499,2.786311 v -2.631401 q 0.0392,-0.295361 0.29949,-0.29123 0.26231,0.0021 0.28297,0.29123 z"
           style="font-style:normal;font-variant:normal;font-weight:normal;font-stretch:normal;font-size:4.23007px;font-family:'MS 33558';-inkscape-font-specification:'MS 33558, ';fill:#00ff00;stroke-width:0.264379"
           id="path1646" />
      </g>
      <path
         id="path664"
         style="fill:#ff0000;stroke-width:0.322548;stroke-dasharray:7.74117, 0.322548"
         d="m 73.73559,130.10959 a 6.3499999,6.3500185 0 0 1 -6.169236,6.34744 6.3499999,6.3500185 0 0 1 -6.520473,-5.98606 6.3499999,6.3500185 0 0 1 5.798001,-6.68825 6.3499999,6.3500185 0 0 1 6.850575,5.60527" />
      <path
         id="path664-8-1"
         style="fill:#ff0000;stroke-width:0.322549;stroke-dasharray:7.74117, 0.322549"
         d="m 113.68775,130.10959 a 6.3499999,6.3500185 0 0 1 -6.16923,6.34744 6.3499999,6.3500185 0 0 1 -6.52048,-5.98606 6.3499999,6.3500185 0 0 1 5.79801,-6.68825 6.3499999,6.3500185 0 0 1 6.85057,5.60527" />
      <path
         id="rect336"
         style="fill:#00ff00;stroke-width:0.243511"
         d="m 127.45345,111.87918 3.47885,3.175 h 3.7574 l -3.47886,-3.175 z m 8.46666,0 3.47886,3.175 h 3.98012 l -3.47886,-3.175 z m 8.68991,0 3.47938,3.175 h 3.75636 l -3.47886,-3.175 z m 8.46667,0 1.88619,1.72083 v -1.72083 z m -29.86381,0.42737 v 2.5833 l 3.175,2.89698 v -2.58279 z m 0,6.88123 v 4.00234 l 3.175,2.8975 v -4.00234 z m 0,8.30027 v 0.8909 2.48305 0.0997 l 3.175,2.8975 v -0.0997 -2.48305 -0.8909 z m 0,7.6724 v 0.0997 4.00234 0.53744 l 3.175,2.8975 v -0.53744 -4.00234 -0.14728 l -0.0238,0.0258 z m 0,8.4 v 0.53744 2.80138 0.0351 l 3.175,2.89749 v -0.0346 -2.8019 -0.53743 z m 0,7.6724 v 4.63951 l 3.175,2.8975 v -4.68705 l -0.0238,0.0258 z" />
      <g
         aria-label="emer"
         transform="scale(0.99922789,1.0007727)"
         id="text83-6"
         style="font-style:normal;font-variant:normal;font-weight:normal;font-stretch:normal;font-size:4.23007px;line-height:1.25;font-family:'MS 33558';-inkscape-font-specification:'MS 33558, ';letter-spacing:0px;word-spacing:0px;fill:#00ff00;fill-opacity:1;stroke:none;stroke-width:0.264379">
        <path
           d="m 135.13287,105.49309 h -1.71226 v 1.12981 h 1.30537 q 0.29329,0.0434 0.29123,0.29536 0,0.24992 -0.29123,0.29123 h -1.30537 v 1.35701 h 1.71226 q 0.29124,0.0434 0.29124,0.29123 0,0.24786 -0.29124,0.28917 h -1.99936 q -0.25819,-0.0331 -0.2933,-0.2933 v -3.64761 q 0.0392,-0.27264 0.2933,-0.28916 h 1.99936 q 0.29124,0.0227 0.28917,0.29123 0,0.26644 -0.28917,0.28503 z"
           style="font-style:normal;font-variant:normal;font-weight:normal;font-stretch:normal;font-size:4.23007px;font-family:'MS 33558';-inkscape-font-specification:'MS 33558, ';fill:#00ff00;stroke-width:0.264379"
           id="path1651" />
        <path
           d="m 139.07791,108.85773 q -0.0454,0.28917 -0.29329,0.28917 -0.2458,-0.002 -0.28917,-0.28917 v -2.57976 l -0.70845,1.21242 q -0.1136,0.13632 -0.25406,0.14252 -0.13838,0.006 -0.24785,-0.14252 l -0.70432,-1.20623 0.002,2.57357 q -0.0331,0.2871 -0.29949,0.2871 -0.26438,-0.002 -0.28504,-0.2871 v -3.64761 q 0.0165,-0.23753 0.20862,-0.28297 0.19208,-0.0475 0.3346,0.13013 l 0.99349,1.70814 1.00381,-1.70814 q 0.14252,-0.17763 0.33048,-0.13013 0.19002,0.0475 0.20861,0.28297 z"
           style="font-style:normal;font-variant:normal;font-weight:normal;font-stretch:normal;font-size:4.23007px;font-family:'MS 33558';-inkscape-font-specification:'MS 33558, ';fill:#00ff00;stroke-width:0.264379"
           id="path1653" />
        <path
           d="m 141.86629,105.49309 h -1.71227 v 1.12981 h 1.30537 q 0.2933,0.0434 0.29123,0.29536 0,0.24992 -0.29123,0.29123 h -1.30537 v 1.35701 h 1.71227 q 0.29123,0.0434 0.29123,0.29123 0,0.24786 -0.29123,0.28917 h -1.99937 q -0.25818,-0.0331 -0.2933,-0.2933 v -3.64761 q 0.0392,-0.27264 0.2933,-0.28916 h 1.99937 q 0.29123,0.0227 0.28916,0.29123 0,0.26644 -0.28916,0.28503 z"
           style="font-style:normal;font-variant:normal;font-weight:normal;font-stretch:normal;font-size:4.23007px;font-family:'MS 33558';-inkscape-font-specification:'MS 33558, ';fill:#00ff00;stroke-width:0.264379"
           id="path1655" />
        <path
           d="m 145.3404,108.69869 q 0.13219,0.2334 -0.0744,0.39244 -0.0991,0.0702 -0.22927,0.0475 -0.12805,-0.0227 -0.18795,-0.12805 l -1.01828,-1.609 h -0.51636 v 1.45409 q 0,0.17969 -0.16317,0.26024 -0.16318,0.0785 -0.30569,-0.031 -0.1136,-0.0847 -0.1136,-0.22926 v -3.64968 q 0,-0.1198 0.0826,-0.20448 0.0847,-0.0847 0.20654,-0.0847 h 1.28266 q 0.46266,0 0.80346,0.29536 0.3408,0.29329 0.42342,0.74563 0.0867,0.48538 -0.20655,0.9088 -0.29123,0.42136 -0.77454,0.51224 l -0.0393,0.006 z m -1.03686,-1.87751 q 0.21067,0 0.3883,-0.12805 0.1797,-0.12806 0.24166,-0.33461 0.0971,-0.31808 -0.0888,-0.5742 -0.1859,-0.25818 -0.51224,-0.28503 h -1.01827 v 1.32189 z"
           style="font-style:normal;font-variant:normal;font-weight:normal;font-stretch:normal;font-size:4.23007px;font-family:'MS 33558';-inkscape-font-specification:'MS 33558, ';fill:#00ff00;stroke-width:0.264379"
           id="path1657" />
      </g>
      <g
         aria-label="L"
         transform="scale(0.99922789,1.0007727)"
         id="text79-8-78"
         style="font-style:normal;font-variant:normal;font-weight:normal;font-stretch:normal;font-size:4.23007px;line-height:1.25;font-family:'MS 33558';-inkscape-font-specification:'MS 33558, ';letter-spacing:0px;word-spacing:0px;fill:#00ff00;fill-opacity:1;stroke:none;stroke-width:0.264379">
        <path
           d="m 66.341895,113.86677 q -0.254052,-0.0165 -0.293296,-0.2871 v -3.65174 q 0.04337,-0.29742 0.301558,-0.29123 0.258183,0.004 0.280903,0.29123 v 3.36258 l 1.906423,-0.002 q 0.293296,0.0331 0.289165,0.29743 -0.0021,0.26231 -0.29123,0.2809 z"
           style="font-style:normal;font-variant:normal;font-weight:normal;font-stretch:normal;font-size:4.23007px;font-family:'MS 33558';-inkscape-font-specification:'MS 33558, ';fill:#00ff00;stroke-width:0.264379"
           id="path1660" />
      </g>
      <g
         aria-label="r"
         transform="scale(0.99922789,1.0007727)"
         id="text79-8-78-0"
         style="font-style:normal;font-variant:normal;font-weight:normal;font-stretch:normal;font-size:4.23007px;line-height:1.25;font-family:'MS 33558';-inkscape-font-specification:'MS 33558, ';letter-spacing:0px;word-spacing:0px;fill:#00ff00;fill-opacity:1;stroke:none;stroke-width:0.264379">
        <path
           d="m 108.62011,113.4176 q 0.13219,0.2334 -0.0744,0.39244 -0.0991,0.0702 -0.22926,0.0475 -0.12806,-0.0227 -0.18796,-0.12805 l -1.01827,-1.609 h -0.51637 v 1.45409 q 0,0.17969 -0.16317,0.26024 -0.16317,0.0785 -0.30569,-0.031 -0.1136,-0.0847 -0.1136,-0.22926 v -3.64968 q 0,-0.1198 0.0826,-0.20448 0.0847,-0.0847 0.20654,-0.0847 h 1.28266 q 0.46266,0 0.80346,0.29536 0.3408,0.29329 0.42342,0.74563 0.0867,0.48538 -0.20654,0.9088 -0.29123,0.42136 -0.77455,0.51224 l -0.0393,0.006 z m -1.03686,-1.87751 q 0.21067,0 0.3883,-0.12805 0.1797,-0.12806 0.24166,-0.33461 0.0971,-0.31808 -0.0888,-0.5742 -0.18589,-0.25818 -0.51224,-0.28503 h -1.01827 v 1.32189 z"
           style="font-style:normal;font-variant:normal;font-weight:normal;font-stretch:normal;font-size:4.23007px;font-family:'MS 33558';-inkscape-font-specification:'MS 33558, ';fill:#00ff00;stroke-width:0.264379"
           id="path1663" />
      </g>
      <g
         aria-label="norm"
         transform="scale(0.99922789,1.0007727)"
         id="text79-8-795"
         style="font-style:normal;font-variant:normal;font-weight:normal;font-stretch:normal;font-size:4.23007px;line-height:1.25;font-family:'MS 33558';-inkscape-font-specification:'MS 33558, ';letter-spacing:0px;word-spacing:0px;fill:#00ff00;fill-opacity:1;stroke:none;stroke-width:0.264379">
        <path
           d="m 135.37926,127.07899 q 0,0.21687 -0.21068,0.27677 -0.20861,0.0578 -0.32427,-0.12393 l -1.73499,-2.78218 v 2.62934 q -0.0454,0.28916 -0.2933,0.28916 -0.24579,0 -0.28916,-0.28916 v -3.64761 q 0.031,-0.21481 0.21893,-0.28297 0.19003,-0.0682 0.31602,0.12806 l 1.73499,2.78631 v -2.6314 q 0.0392,-0.29536 0.29949,-0.29123 0.26232,0.002 0.28297,0.29123 z"
           style="font-style:normal;font-variant:normal;font-weight:normal;font-stretch:normal;font-size:4.23007px;font-family:'MS 33558';-inkscape-font-specification:'MS 33558, ';fill:#00ff00;stroke-width:0.264379"
           id="path1666" />
        <path
           d="m 138.71912,124.35051 q 0.19002,0.57213 0.14251,1.18764 -0.0454,0.61551 -0.33667,1.12361 -0.18382,0.31602 -0.50191,0.53702 -0.31808,0.22101 -0.70225,0.15491 -0.62584,-0.10947 -0.95838,-0.65268 -0.33254,-0.54322 -0.38211,-1.2083 -0.0475,-0.66714 0.1797,-1.29918 0.22926,-0.63203 0.72911,-0.91913 0.24372,-0.14045 0.51016,-0.14045 0.50811,0 0.83032,0.38418 0.32221,0.38211 0.48952,0.83238 z m -1.30331,-0.62997 q -0.38005,0 -0.57627,0.40896 -0.19415,0.40897 -0.24579,0.69813 -0.0392,0.21068 -0.0289,0.51017 0.0103,0.29949 0.0867,0.59279 0.0764,0.29123 0.22926,0.52669 0.15285,0.2334 0.4007,0.30982 0.28917,0.0909 0.49778,-0.1136 0.21068,-0.20654 0.31808,-0.43788 0.10947,-0.23752 0.14872,-0.62377 0.0413,-0.38624 -0.0186,-0.77041 -0.0578,-0.38625 -0.22927,-0.694 -0.17143,-0.30982 -0.48745,-0.3945 -0.0413,-0.0124 -0.095,-0.0124 z"
           style="font-style:normal;font-variant:normal;font-weight:normal;font-stretch:normal;font-size:4.23007px;font-family:'MS 33558';-inkscape-font-specification:'MS 33558, ';fill:#00ff00;stroke-width:0.264379"
           id="path1668" />
        <path
           d="m 142.02592,126.91582 q 0.13219,0.23339 -0.0744,0.39243 -0.0992,0.0702 -0.22927,0.0475 -0.12806,-0.0227 -0.18796,-0.12806 l -1.01827,-1.609 h -0.51637 v 1.45409 q 0,0.1797 -0.16317,0.26025 -0.16317,0.0785 -0.30569,-0.031 -0.1136,-0.0847 -0.1136,-0.22927 v -3.64967 q 0,-0.1198 0.0826,-0.20448 0.0847,-0.0847 0.20655,-0.0847 h 1.28265 q 0.46266,0 0.80347,0.29536 0.3408,0.2933 0.42342,0.74564 0.0867,0.48538 -0.20655,0.9088 -0.29123,0.42135 -0.77455,0.51223 l -0.0392,0.006 z m -1.03686,-1.87751 q 0.21068,0 0.38831,-0.12806 0.17969,-0.12806 0.24166,-0.3346 0.0971,-0.31809 -0.0888,-0.5742 -0.18589,-0.25819 -0.51223,-0.28504 h -1.01828 v 1.3219 z"
           style="font-style:normal;font-variant:normal;font-weight:normal;font-stretch:normal;font-size:4.23007px;font-family:'MS 33558';-inkscape-font-specification:'MS 33558, ';fill:#00ff00;stroke-width:0.264379"
           id="path1670" />
        <path
           d="m 145.86356,127.07486 q -0.0454,0.28916 -0.2933,0.28916 -0.24579,-0.002 -0.28917,-0.28916 v -2.57977 l -0.70845,1.21243 q -0.1136,0.13632 -0.25405,0.14252 -0.13839,0.006 -0.24786,-0.14252 l -0.70432,-1.20623 0.002,2.57357 q -0.0331,0.2871 -0.2995,0.2871 -0.26438,-0.002 -0.28503,-0.2871 v -3.64761 q 0.0165,-0.23753 0.20861,-0.28297 0.19209,-0.0475 0.33461,0.13012 l 0.99348,1.70814 1.00382,-1.70814 q 0.14252,-0.17763 0.33047,-0.13012 0.19003,0.0475 0.20862,0.28297 z"
           style="font-style:normal;font-variant:normal;font-weight:normal;font-stretch:normal;font-size:4.23007px;font-family:'MS 33558';-inkscape-font-specification:'MS 33558, ';fill:#00ff00;stroke-width:0.264379"
           id="path1672" />
      </g>
      <g
         aria-label="OFF/
reset"
         transform="scale(0.99922789,1.0007727)"
         id="text79-8-4"
         style="font-style:normal;font-variant:normal;font-weight:normal;font-stretch:normal;font-size:4.23007px;line-height:1.25;font-family:'MS 33558';-inkscape-font-specification:'MS 33558, ';text-align:center;letter-spacing:0px;word-spacing:0px;text-anchor:middle;fill:#00ff00;fill-opacity:1;stroke:none;stroke-width:0.264379">
        <path
           d="m 135.7779,141.03109 q 0.19002,0.57213 0.14252,1.18764 -0.0454,0.61551 -0.33667,1.12361 -0.18383,0.31602 -0.50191,0.53702 -0.31808,0.22101 -0.70226,0.15491 -0.62583,-0.10947 -0.95837,-0.65268 -0.33254,-0.54322 -0.38211,-1.2083 -0.0475,-0.66714 0.17969,-1.29918 0.22927,-0.63203 0.72911,-0.91913 0.24372,-0.14045 0.51017,-0.14045 0.5081,0 0.83032,0.38418 0.32221,0.38211 0.48951,0.83238 z m -1.30331,-0.62997 q -0.38004,0 -0.57626,0.40896 -0.19415,0.40897 -0.24579,0.69813 -0.0392,0.21068 -0.0289,0.51017 0.0103,0.29949 0.0868,0.59279 0.0764,0.29123 0.22927,0.52669 0.15284,0.2334 0.4007,0.30982 0.28916,0.0909 0.49777,-0.1136 0.21068,-0.20654 0.31809,-0.43788 0.10947,-0.23752 0.14871,-0.62377 0.0413,-0.38624 -0.0186,-0.77041 -0.0578,-0.38625 -0.22927,-0.694 -0.17143,-0.30982 -0.48745,-0.3945 -0.0413,-0.0124 -0.095,-0.0124 z"
           style="font-style:normal;font-variant:normal;font-weight:normal;font-stretch:normal;font-size:4.23007px;font-family:'MS 33558';-inkscape-font-specification:'MS 33558, ';text-align:center;text-anchor:middle;fill:#00ff00;stroke-width:0.264379"
           id="path1675" />
        <path
           d="m 136.47603,143.75131 v -3.64348 q 0.0372,-0.27264 0.29329,-0.2933 h 1.99937 q 0.2871,0.0227 0.2871,0.2933 0,0.26851 -0.29123,0.2871 h -1.70814 v 1.12981 h 1.33223 q 0.28503,0.0206 0.28916,0.27883 0.004,0.25819 -0.28916,0.30156 h -1.33223 v 1.64618 q -0.0206,0.28503 -0.2809,0.28916 -0.25818,0.004 -0.29949,-0.28916 z"
           style="font-style:normal;font-variant:normal;font-weight:normal;font-stretch:normal;font-size:4.23007px;font-family:'MS 33558';-inkscape-font-specification:'MS 33558, ';text-align:center;text-anchor:middle;fill:#00ff00;stroke-width:0.264379"
           id="path1677" />
        <path
           d="m 139.63412,143.75131 v -3.64348 q 0.0372,-0.27264 0.2933,-0.2933 h 1.99937 q 0.2871,0.0227 0.2871,0.2933 0,0.26851 -0.29123,0.2871 h -1.70814 v 1.12981 h 1.33222 q 0.28504,0.0206 0.28917,0.27883 0.004,0.25819 -0.28917,0.30156 h -1.33222 v 1.64618 q -0.0207,0.28503 -0.28091,0.28916 -0.25818,0.004 -0.29949,-0.28916 z"
           style="font-style:normal;font-variant:normal;font-weight:normal;font-stretch:normal;font-size:4.23007px;font-family:'MS 33558';-inkscape-font-specification:'MS 33558, ';text-align:center;text-anchor:middle;fill:#00ff00;stroke-width:0.264379"
           id="path1679" />
        <path
           d="m 144.78126,139.96531 q 0.062,-0.11153 0.14871,-0.13012 0.0888,-0.0207 0.0991,-0.0207 0.14872,0 0.24579,0.12806 0.0971,0.12806 0.0103,0.30156 l -1.9498,3.65174 q -0.0248,0.0475 -0.0888,0.0991 -0.064,0.0496 -0.16937,0.0496 -0.14871,0 -0.23753,-0.12806 -0.0867,-0.12806 -0.0165,-0.30775 z"
           style="font-style:normal;font-variant:normal;font-weight:normal;font-stretch:normal;font-size:4.23007px;font-family:'MS 33558';-inkscape-font-specification:'MS 33558, ';text-align:center;text-anchor:middle;fill:#00ff00;stroke-width:0.264379"
           id="path1681" />
        <path
           d="m 133.98301,148.88398 q 0.13219,0.2334 -0.0744,0.39244 -0.0992,0.0702 -0.22927,0.0475 -0.12806,-0.0227 -0.18796,-0.12806 l -1.01827,-1.609 h -0.51637 v 1.45409 q 0,0.17969 -0.16317,0.26025 -0.16317,0.0785 -0.30569,-0.031 -0.1136,-0.0847 -0.1136,-0.22927 v -3.64968 q 0,-0.11979 0.0826,-0.20448 0.0847,-0.0847 0.20655,-0.0847 h 1.28265 q 0.46266,0 0.80347,0.29536 0.3408,0.2933 0.42342,0.74563 0.0867,0.48539 -0.20655,0.90881 -0.29123,0.42135 -0.77455,0.51223 l -0.0392,0.006 z m -1.03686,-1.8775 q 0.21068,0 0.38831,-0.12806 0.17969,-0.12806 0.24166,-0.33461 0.0971,-0.31808 -0.0888,-0.5742 -0.18589,-0.25818 -0.51223,-0.28503 h -1.01828 v 1.3219 z"
           style="font-style:normal;font-variant:normal;font-weight:normal;font-stretch:normal;font-size:4.23007px;font-family:'MS 33558';-inkscape-font-specification:'MS 33558, ';text-align:center;text-anchor:middle;fill:#00ff00;stroke-width:0.264379"
           id="path1683" />
        <path
           d="m 137.0337,145.67838 h -1.71227 v 1.12981 h 1.30538 q 0.29329,0.0434 0.29123,0.29536 0,0.24992 -0.29123,0.29123 h -1.30538 v 1.35701 h 1.71227 q 0.29123,0.0434 0.29123,0.29123 0,0.24786 -0.29123,0.28917 h -1.99937 q -0.25818,-0.0331 -0.29329,-0.2933 v -3.64761 q 0.0392,-0.27264 0.29329,-0.28916 h 1.99937 q 0.29123,0.0227 0.28917,0.29123 0,0.26644 -0.28917,0.28503 z"
           style="font-style:normal;font-variant:normal;font-weight:normal;font-stretch:normal;font-size:4.23007px;font-family:'MS 33558';-inkscape-font-specification:'MS 33558, ';text-align:center;text-anchor:middle;fill:#00ff00;stroke-width:0.264379"
           id="path1685" />
        <path
           d="m 139.97699,147.08083 0.0331,0.0145 0.0372,0.0186 0.0331,0.0186 q 0.0145,0.0103 0.031,0.0206 0.0186,0.008 0.0351,0.0186 0.40896,0.26851 0.50604,0.74357 0.0372,0.18589 0.0165,0.38211 -0.0331,0.2809 -0.19829,0.5205 -0.16317,0.23753 -0.41102,0.36765 -0.26645,0.14045 -0.55148,0.14045 -0.47919,0 -0.915,-0.12186 -0.43581,-0.12393 -0.62171,-0.65888 -0.0248,-0.0682 -0.0372,-0.14045 -0.0124,-0.0723 -0.0289,-0.14459 -0.031,-0.14871 0.0723,-0.26231 0.10534,-0.1136 0.26025,-0.0867 0.16317,0.0331 0.2272,0.20242 l 0.006,0.0186 q 0.0991,0.44821 0.34493,0.53496 0.24785,0.0867 0.6878,0.0785 0.40483,0 0.55561,-0.38005 0.0661,-0.16937 0.0207,-0.35113 -0.0454,-0.18382 -0.17969,-0.30569 -0.0599,-0.0516 -0.15698,-0.0971 l -0.95631,-0.41929 -0.031,-0.0165 q -0.46886,-0.24785 -0.58246,-0.70432 -0.13839,-0.52876 0.19209,-0.94805 0.33254,-0.42135 0.87162,-0.42135 l 0.2272,0.006 q 0.11154,0.0207 0.21481,0.0413 0.10328,0.0186 0.20861,0.0661 0.26025,0.12186 0.39864,0.3346 0.13838,0.21275 0.24992,0.4606 0.0103,0.0227 0.0186,0.0537 0.0227,0.1012 -0.0207,0.18382 -0.0248,0.0516 -0.0516,0.0785 -0.0269,0.0268 -0.0434,0.0372 -0.1074,0.0764 -0.23546,0.0454 -0.12806,-0.0289 -0.19622,-0.16524 -0.0537,-0.1198 -0.11567,-0.24372 -0.0599,-0.126 -0.16936,-0.20862 -0.0454,-0.033 -0.0888,-0.0475 -0.0413,-0.0165 -0.0929,-0.0351 l -0.13426,-0.0227 -0.19002,-0.006 q -0.27677,0.004 -0.42342,0.23959 -0.0991,0.15078 -0.0744,0.33667 0.0289,0.22927 0.21481,0.35526 0.008,0.006 0.0186,0.0145 0.0103,0.006 0.0227,0.0124 l 0.0227,0.0103 0.0248,0.0103 z"
           style="font-style:normal;font-variant:normal;font-weight:normal;font-stretch:normal;font-size:4.23007px;font-family:'MS 33558';-inkscape-font-specification:'MS 33558, ';text-align:center;text-anchor:middle;fill:#00ff00;stroke-width:0.264379"
           id="path1687" />
        <path
           d="m 143.48002,145.67838 h -1.71227 v 1.12981 h 1.30537 q 0.2933,0.0434 0.29123,0.29536 0,0.24992 -0.29123,0.29123 h -1.30537 v 1.35701 h 1.71227 q 0.29123,0.0434 0.29123,0.29123 0,0.24786 -0.29123,0.28917 h -1.99937 q -0.25819,-0.0331 -0.2933,-0.2933 v -3.64761 q 0.0392,-0.27264 0.2933,-0.28916 h 1.99937 q 0.29123,0.0227 0.28916,0.29123 0,0.26644 -0.28916,0.28503 z"
           style="font-style:normal;font-variant:normal;font-weight:normal;font-stretch:normal;font-size:4.23007px;font-family:'MS 33558';-inkscape-font-specification:'MS 33558, ';text-align:center;text-anchor:middle;fill:#00ff00;stroke-width:0.264379"
           id="path1689" />
        <path
           d="m 145.39264,149.04302 v -3.35844 h -0.75803 q -0.28916,-0.0227 -0.28916,-0.28917 0.002,-0.26851 0.28916,-0.29329 h 2.09645 q 0.28503,0.0227 0.28503,0.29329 0.002,0.26852 -0.28503,0.28917 h -0.75596 v 3.35844 q -0.0475,0.2933 -0.30569,0.28917 -0.25612,-0.004 -0.27677,-0.28917 z"
           style="font-style:normal;font-variant:normal;font-weight:normal;font-stretch:normal;font-size:4.23007px;font-family:'MS 33558';-inkscape-font-specification:'MS 33558, ';text-align:center;text-anchor:middle;fill:#00ff00;stroke-width:0.264379"
           id="path1691" />
      </g>
      <g
         id="g2172"
         transform="translate(13.609119,-26.233358)">
        <path
           id="rect75-2"
           style="fill:#00ff00;stroke-width:0.0969435;stroke-dasharray:2.32666, 0.0969435"
           transform="rotate(90)"
           d="m 144.35667,-65.35202 h 1.27 v 12.7 h -1.27 z" />
        <g
           aria-label="norm"
           transform="scale(0.99922789,1.0007727)"
           id="text79-8-795-7"
           style="font-style:normal;font-variant:normal;font-weight:normal;font-stretch:normal;font-size:4.23007px;line-height:1.25;font-family:'MS 33558';-inkscape-font-specification:'MS 33558, ';letter-spacing:0px;word-spacing:0px;fill:#00ff00;fill-opacity:1;stroke:none;stroke-width:0.264379">
          <path
             d="m 69.795063,146.70844 q 0,0.21687 -0.210677,0.27677 -0.208612,0.0578 -0.324278,-0.12393 l -1.73499,-2.78218 v 2.62934 q -0.04544,0.28916 -0.293296,0.28916 -0.24579,0 -0.289165,-0.28916 v -3.64761 q 0.03098,-0.21481 0.21894,-0.28297 0.190022,-0.0682 0.316016,0.12806 l 1.734989,2.78631 v -2.6314 q 0.03924,-0.29537 0.299493,-0.29123 0.262314,0.002 0.282968,0.29123 z"
             style="font-style:normal;font-variant:normal;font-weight:normal;font-stretch:normal;font-size:4.23007px;font-family:'MS 33558';-inkscape-font-specification:'MS 33558, ';fill:#00ff00;stroke-width:0.264379"
             id="path1695" />
          <path
             d="m 73.134918,143.97996 q 0.190023,0.57213 0.142517,1.18764 -0.04544,0.61551 -0.33667,1.12361 -0.183827,0.31602 -0.501908,0.53702 -0.318082,0.22101 -0.702258,0.15491 -0.625835,-0.10947 -0.958375,-0.65268 -0.33254,-0.54322 -0.382111,-1.2083 -0.04751,-0.66715 0.179695,-1.29918 0.229267,-0.63203 0.729109,-0.91913 0.243725,-0.14045 0.51017,-0.14045 0.508104,0 0.830316,0.38418 0.322213,0.38211 0.489515,0.83238 z m -1.303307,-0.62997 q -0.380046,0 -0.576265,0.40896 -0.194154,0.40896 -0.24579,0.69813 -0.03924,0.21068 -0.02892,0.51017 0.01033,0.29949 0.08675,0.59279 0.07642,0.29123 0.229266,0.52669 0.152845,0.2334 0.4007,0.30982 0.289165,0.0909 0.497777,-0.1136 0.210677,-0.20655 0.318082,-0.43788 0.109469,-0.23753 0.148713,-0.62377 0.04131,-0.38624 -0.01859,-0.77042 -0.05783,-0.38624 -0.229267,-0.69399 -0.171433,-0.30982 -0.487449,-0.39451 -0.04131,-0.0124 -0.09501,-0.0124 z"
             style="font-style:normal;font-variant:normal;font-weight:normal;font-stretch:normal;font-size:4.23007px;font-family:'MS 33558';-inkscape-font-specification:'MS 33558, ';fill:#00ff00;stroke-width:0.264379"
             id="path1697" />
          <path
             d="m 76.441726,146.54526 q 0.13219,0.2334 -0.07436,0.39244 -0.09914,0.0702 -0.229266,0.0475 -0.128059,-0.0227 -0.187957,-0.12806 l -1.018274,-1.609 h -0.516366 v 1.45409 q 0,0.17969 -0.163172,0.26025 -0.163171,0.0785 -0.305688,-0.031 -0.113601,-0.0847 -0.113601,-0.22927 v -3.64968 q 0,-0.11979 0.08262,-0.20448 0.08468,-0.0847 0.206546,-0.0847 h 1.282653 q 0.462664,0 0.803466,0.29536 0.340801,0.2933 0.42342,0.74563 0.08675,0.48539 -0.206547,0.90881 -0.29123,0.42135 -0.774549,0.51223 l -0.03924,0.006 z m -1.036863,-1.8775 q 0.210677,0 0.388307,-0.12806 0.179696,-0.12806 0.24166,-0.33461 0.09708,-0.31808 -0.08881,-0.5742 -0.185892,-0.25818 -0.512235,-0.28503 h -1.018274 v 1.3219 z"
             style="font-style:normal;font-variant:normal;font-weight:normal;font-stretch:normal;font-size:4.23007px;font-family:'MS 33558';-inkscape-font-specification:'MS 33558, ';fill:#00ff00;stroke-width:0.264379"
             id="path1699" />
          <path
             d="m 80.279358,146.7043 q -0.04544,0.28917 -0.293296,0.28917 -0.24579,-0.002 -0.289165,-0.28917 v -2.57976 l -0.708454,1.21243 q -0.113601,0.13632 -0.254052,0.14251 -0.138386,0.006 -0.247856,-0.14251 l -0.704323,-1.20623 0.0021,2.57356 q -0.03305,0.2871 -0.299492,0.2871 -0.264379,-0.002 -0.285034,-0.2871 v -3.6476 q 0.01652,-0.23753 0.208612,-0.28297 0.192088,-0.0475 0.334605,0.13012 l 0.993488,1.70814 1.003816,-1.70814 q 0.142517,-0.17763 0.330474,-0.13012 0.190022,0.0475 0.208612,0.28297 z"
             style="font-style:normal;font-variant:normal;font-weight:normal;font-stretch:normal;font-size:4.23007px;font-family:'MS 33558';-inkscape-font-specification:'MS 33558, ';fill:#00ff00;stroke-width:0.264379"
             id="path1701" />
        </g>
        <path
           id="rect75-2-6"
           style="fill:#00ff00;stroke-width:0.0969435;stroke-dasharray:2.32666, 0.0969435"
           transform="rotate(90)"
           d="m 144.35667,-94.720833 h 1.27 v 12.7 h -1.27 z" />
      </g>
      <g
         aria-label="OFF/
reset"
         transform="scale(0.99922789,1.0007727)"
         id="text79-8-4-5"
         style="font-style:normal;font-variant:normal;font-weight:normal;font-stretch:normal;font-size:4.23007px;line-height:1.25;font-family:'MS 33558';-inkscape-font-specification:'MS 33558, ';text-align:center;letter-spacing:0px;word-spacing:0px;text-anchor:middle;fill:#00ff00;fill-opacity:1;stroke:none;stroke-width:0.264379">
        <path
           d="m 83.945671,128.34237 q 0.190023,0.57213 0.142517,1.18764 -0.04544,0.61551 -0.33667,1.12361 -0.183827,0.31602 -0.501908,0.53702 -0.318082,0.22101 -0.702258,0.15491 -0.625835,-0.10947 -0.958375,-0.65268 -0.33254,-0.54322 -0.382111,-1.2083 -0.04751,-0.66714 0.179695,-1.29918 0.229267,-0.63203 0.729109,-0.91913 0.243725,-0.14045 0.51017,-0.14045 0.508104,0 0.830316,0.38418 0.322213,0.38211 0.489515,0.83238 z m -1.303307,-0.62997 q -0.380046,0 -0.576265,0.40896 -0.194154,0.40897 -0.24579,0.69813 -0.03924,0.21068 -0.02892,0.51017 0.01033,0.29949 0.08675,0.59279 0.07642,0.29123 0.229266,0.52669 0.152845,0.2334 0.4007,0.30982 0.289165,0.0909 0.497777,-0.1136 0.210678,-0.20655 0.318082,-0.43788 0.109469,-0.23753 0.148713,-0.62377 0.04131,-0.38624 -0.01859,-0.77042 -0.05783,-0.38624 -0.229267,-0.69399 -0.171433,-0.30982 -0.487449,-0.3945 -0.04131,-0.0124 -0.09501,-0.0124 z"
           style="font-style:normal;font-variant:normal;font-weight:normal;font-stretch:normal;font-size:4.23007px;font-family:'MS 33558';-inkscape-font-specification:'MS 33558, ';text-align:center;text-anchor:middle;fill:#00ff00;stroke-width:0.264379"
           id="path1705" />
        <path
           d="m 84.643798,131.06258 v -3.64347 q 0.03718,-0.27264 0.293296,-0.2933 h 1.999369 q 0.287099,0.0227 0.287099,0.2933 0,0.26851 -0.29123,0.2871 h -1.708139 v 1.1298 h 1.332225 q 0.285034,0.0207 0.289165,0.27884 0.0041,0.25819 -0.289165,0.30156 h -1.332225 v 1.64617 q -0.02065,0.28504 -0.280903,0.28917 -0.258183,0.004 -0.299492,-0.28917 z"
           style="font-style:normal;font-variant:normal;font-weight:normal;font-stretch:normal;font-size:4.23007px;font-family:'MS 33558';-inkscape-font-specification:'MS 33558, ';text-align:center;text-anchor:middle;fill:#00ff00;stroke-width:0.264379"
           id="path1707" />
        <path
           d="m 87.801892,131.06258 v -3.64347 q 0.03718,-0.27264 0.293296,-0.2933 h 1.999369 q 0.2871,0.0227 0.2871,0.2933 0,0.26851 -0.291231,0.2871 h -1.708138 v 1.1298 h 1.332224 q 0.285034,0.0207 0.289165,0.27884 0.0041,0.25819 -0.289165,0.30156 h -1.332224 v 1.64617 q -0.02066,0.28504 -0.280903,0.28917 -0.258183,0.004 -0.299493,-0.28917 z"
           style="font-style:normal;font-variant:normal;font-weight:normal;font-stretch:normal;font-size:4.23007px;font-family:'MS 33558';-inkscape-font-specification:'MS 33558, ';text-align:center;text-anchor:middle;fill:#00ff00;stroke-width:0.264379"
           id="path1709" />
        <path
           d="m 92.949029,127.27659 q 0.06196,-0.11154 0.148713,-0.13012 0.08881,-0.0207 0.09914,-0.0207 0.148713,0 0.24579,0.12806 0.09708,0.12806 0.01033,0.30156 l -1.949798,3.65174 q -0.02478,0.0475 -0.08881,0.0991 -0.06403,0.0496 -0.169368,0.0496 -0.148713,0 -0.237528,-0.12806 -0.08675,-0.12806 -0.01652,-0.30775 z"
           style="font-style:normal;font-variant:normal;font-weight:normal;font-stretch:normal;font-size:4.23007px;font-family:'MS 33558';-inkscape-font-specification:'MS 33558, ';text-align:center;text-anchor:middle;fill:#00ff00;stroke-width:0.264379"
           id="path1711" />
        <path
           d="m 82.150783,136.19526 q 0.13219,0.2334 -0.07436,0.39244 -0.09914,0.0702 -0.229266,0.0475 -0.128059,-0.0227 -0.187957,-0.12806 l -1.018274,-1.609 h -0.516366 v 1.45409 q 0,0.17969 -0.163172,0.26025 -0.163171,0.0785 -0.305688,-0.031 -0.113601,-0.0847 -0.113601,-0.22926 v -3.64968 q 0,-0.11979 0.08262,-0.20448 0.08468,-0.0847 0.206546,-0.0847 h 1.282653 q 0.462664,0 0.803466,0.29536 0.340801,0.2933 0.42342,0.74563 0.08675,0.48539 -0.206547,0.90881 -0.29123,0.42135 -0.774549,0.51223 l -0.03924,0.006 z m -1.036863,-1.8775 q 0.210678,0 0.388307,-0.12806 0.179696,-0.12806 0.24166,-0.33461 0.09708,-0.31808 -0.08881,-0.5742 -0.185892,-0.25818 -0.512235,-0.28503 h -1.018274 v 1.3219 z"
           style="font-style:normal;font-variant:normal;font-weight:normal;font-stretch:normal;font-size:4.23007px;font-family:'MS 33558';-inkscape-font-specification:'MS 33558, ';text-align:center;text-anchor:middle;fill:#00ff00;stroke-width:0.264379"
           id="path1713" />
        <path
           d="m 85.201473,132.98966 h -1.712269 v 1.12981 h 1.305373 q 0.293296,0.0434 0.29123,0.29536 0,0.24992 -0.29123,0.29123 h -1.305373 v 1.35701 h 1.712269 q 0.291231,0.0434 0.291231,0.29123 0,0.24786 -0.291231,0.28917 h -1.999369 q -0.258183,-0.0331 -0.293296,-0.2933 v -3.64761 q 0.03924,-0.27264 0.293296,-0.28916 h 1.999369 q 0.291231,0.0227 0.289165,0.29123 0,0.26644 -0.289165,0.28503 z"
           style="font-style:normal;font-variant:normal;font-weight:normal;font-stretch:normal;font-size:4.23007px;font-family:'MS 33558';-inkscape-font-specification:'MS 33558, ';text-align:center;text-anchor:middle;fill:#00ff00;stroke-width:0.264379"
           id="path1715" />
        <path
           d="m 88.144759,134.39211 0.03305,0.0145 0.03718,0.0186 0.03305,0.0186 q 0.01446,0.0103 0.03098,0.0207 0.01859,0.008 0.03511,0.0186 0.408962,0.26851 0.506039,0.74357 0.03718,0.18589 0.01652,0.38211 -0.03305,0.2809 -0.198285,0.5205 -0.163172,0.23753 -0.411027,0.36765 -0.266445,0.14045 -0.551479,0.14045 -0.479188,0 -0.915001,-0.12186 -0.435813,-0.12393 -0.621704,-0.65888 -0.02479,-0.0682 -0.03718,-0.14045 -0.01239,-0.0723 -0.02892,-0.14459 -0.03098,-0.14871 0.07229,-0.26231 0.105339,-0.1136 0.260249,-0.0867 0.163171,0.0331 0.227201,0.20241 l 0.0062,0.0186 q 0.09914,0.44821 0.344932,0.53496 0.247856,0.0868 0.6878,0.0785 0.404831,0 0.55561,-0.38005 0.0661,-0.16937 0.02065,-0.35113 -0.04544,-0.18382 -0.179695,-0.30569 -0.0599,-0.0516 -0.156975,-0.0971 l -0.95631,-0.41929 -0.03098,-0.0165 q -0.46886,-0.24785 -0.582461,-0.70432 -0.138386,-0.52876 0.192088,-0.94805 0.33254,-0.42135 0.871626,-0.42135 l 0.227201,0.006 q 0.111535,0.0207 0.214808,0.0413 0.103274,0.0186 0.208612,0.0661 0.260249,0.12186 0.398635,0.3346 0.138386,0.21275 0.249921,0.4606 0.01033,0.0227 0.01859,0.0537 0.02272,0.10121 -0.02066,0.18383 -0.02478,0.0516 -0.05164,0.0785 -0.02685,0.0268 -0.04337,0.0372 -0.107404,0.0764 -0.235463,0.0454 -0.128059,-0.0289 -0.196219,-0.16524 -0.0537,-0.1198 -0.115666,-0.24372 -0.0599,-0.126 -0.169368,-0.20862 -0.04544,-0.033 -0.08882,-0.0475 -0.04131,-0.0165 -0.09295,-0.0351 l -0.134255,-0.0227 -0.190023,-0.006 q -0.276772,0.004 -0.42342,0.23959 -0.09914,0.15078 -0.07436,0.33667 0.02892,0.22927 0.214808,0.35526 0.0083,0.006 0.01859,0.0145 0.01033,0.006 0.02272,0.0124 l 0.02272,0.0103 0.02479,0.0103 z"
           style="font-style:normal;font-variant:normal;font-weight:normal;font-stretch:normal;font-size:4.23007px;font-family:'MS 33558';-inkscape-font-specification:'MS 33558, ';text-align:center;text-anchor:middle;fill:#00ff00;stroke-width:0.264379"
           id="path1717" />
        <path
           d="m 91.647786,132.98966 h -1.71227 v 1.12981 h 1.305374 q 0.293295,0.0434 0.29123,0.29536 0,0.24992 -0.29123,0.29123 h -1.305374 v 1.35701 h 1.71227 q 0.29123,0.0434 0.29123,0.29123 0,0.24786 -0.29123,0.28917 h -1.999369 q -0.258183,-0.0331 -0.293296,-0.2933 v -3.64761 q 0.03924,-0.27264 0.293296,-0.28916 h 1.999369 q 0.29123,0.0227 0.289165,0.29123 0,0.26644 -0.289165,0.28503 z"
           style="font-style:normal;font-variant:normal;font-weight:normal;font-stretch:normal;font-size:4.23007px;font-family:'MS 33558';-inkscape-font-specification:'MS 33558, ';text-align:center;text-anchor:middle;fill:#00ff00;stroke-width:0.264379"
           id="path1719" />
        <path
           d="m 93.560406,136.3543 v -3.35844 H 92.80238 q -0.289165,-0.0227 -0.289165,-0.28917 0.0021,-0.26851 0.289165,-0.29329 h 2.096446 q 0.285034,0.0227 0.285034,0.29329 0.0021,0.26851 -0.285034,0.28917 h -0.75596 v 3.35844 q -0.04751,0.2933 -0.305688,0.28917 -0.256118,-0.004 -0.276772,-0.28917 z"
           style="font-style:normal;font-variant:normal;font-weight:normal;font-stretch:normal;font-size:4.23007px;font-family:'MS 33558';-inkscape-font-specification:'MS 33558, ';text-align:center;text-anchor:middle;fill:#00ff00;stroke-width:0.264379"
           id="path1721" />
      </g>
      <g
         id="g2509"
         transform="translate(13.675248,-27.291693)">
        <path
           id="rect75-2-4"
           style="fill:#00ff00;stroke-width:0.0969435;stroke-dasharray:2.32666, 0.0969435"
           transform="rotate(90)"
           d="m 172.66708,-65.285896 h 1.27 v 12.7 h -1.27 z" />
        <g
           aria-label="test"
           transform="scale(0.99922789,1.0007727)"
           id="text79-8-795-7-8"
           style="font-style:normal;font-variant:normal;font-weight:normal;font-stretch:normal;font-size:4.23007px;line-height:1.25;font-family:'MS 33558';-inkscape-font-specification:'MS 33558, ';letter-spacing:0px;word-spacing:0px;fill:#00ff00;fill-opacity:1;stroke:none;stroke-width:0.264379">
          <path
             d="m 68.453242,174.99285 v -3.35845 h -0.758025 q -0.289165,-0.0227 -0.289165,-0.28916 0.0021,-0.26851 0.289165,-0.2933 h 2.096445 q 0.285034,0.0227 0.285034,0.2933 0.0021,0.26851 -0.285034,0.28916 h -0.755959 v 3.35845 q -0.04751,0.29329 -0.305689,0.28916 -0.256118,-0.004 -0.276772,-0.28916 z"
             style="font-style:normal;font-variant:normal;font-weight:normal;font-stretch:normal;font-size:4.23007px;font-family:'MS 33558';-inkscape-font-specification:'MS 33558, ';fill:#00ff00;stroke-width:0.264379"
             id="path1725" />
          <path
             d="m 72.986935,171.62821 h -1.71227 v 1.12981 h 1.305374 q 0.293296,0.0434 0.29123,0.29536 0,0.24992 -0.29123,0.29123 h -1.305374 v 1.35701 h 1.71227 q 0.291231,0.0434 0.291231,0.29123 0,0.24785 -0.291231,0.28916 h -1.999369 q -0.258183,-0.033 -0.293296,-0.29329 v -3.64761 q 0.03924,-0.27264 0.293296,-0.28917 h 1.999369 q 0.291231,0.0227 0.289165,0.29123 0,0.26645 -0.289165,0.28504 z"
             style="font-style:normal;font-variant:normal;font-weight:normal;font-stretch:normal;font-size:4.23007px;font-family:'MS 33558';-inkscape-font-specification:'MS 33558, ';fill:#00ff00;stroke-width:0.264379"
             id="path1727" />
          <path
             d="m 75.930221,173.03066 0.03305,0.0145 0.03718,0.0186 0.03305,0.0186 q 0.01446,0.0103 0.03098,0.0207 0.01859,0.008 0.03511,0.0186 0.408962,0.26851 0.506039,0.74356 0.03718,0.1859 0.01652,0.38212 -0.03305,0.2809 -0.198285,0.52049 -0.163172,0.23753 -0.411027,0.36766 -0.266445,0.14045 -0.551479,0.14045 -0.479188,0 -0.915001,-0.12187 -0.435812,-0.12392 -0.621704,-0.65888 -0.02479,-0.0682 -0.03718,-0.14045 -0.01239,-0.0723 -0.02892,-0.14458 -0.03098,-0.14872 0.07229,-0.26232 0.105339,-0.1136 0.260249,-0.0867 0.163171,0.0331 0.227201,0.20242 l 0.0062,0.0186 q 0.09914,0.4482 0.344933,0.53495 0.247855,0.0867 0.687799,0.0785 0.404831,0 0.55561,-0.38004 0.0661,-0.16937 0.02065,-0.35113 -0.04544,-0.18383 -0.179695,-0.30569 -0.0599,-0.0516 -0.156975,-0.0971 l -0.95631,-0.41929 -0.03098,-0.0165 q -0.46886,-0.24786 -0.582461,-0.70432 -0.138386,-0.52876 0.192088,-0.94805 0.33254,-0.42136 0.871626,-0.42136 l 0.227201,0.006 q 0.111535,0.0206 0.214808,0.0413 0.103274,0.0186 0.208612,0.0661 0.260249,0.12187 0.398635,0.33461 0.138386,0.21274 0.249921,0.4606 0.01033,0.0227 0.01859,0.0537 0.02272,0.10121 -0.02065,0.18383 -0.02479,0.0516 -0.05164,0.0785 -0.02685,0.0268 -0.04337,0.0372 -0.107404,0.0764 -0.235463,0.0454 -0.128058,-0.0289 -0.196219,-0.16524 -0.0537,-0.11979 -0.115666,-0.24372 -0.0599,-0.12599 -0.169368,-0.20861 -0.04544,-0.033 -0.08881,-0.0475 -0.04131,-0.0165 -0.09295,-0.0351 l -0.134255,-0.0227 -0.190022,-0.006 q -0.276773,0.004 -0.423421,0.2396 -0.09914,0.15078 -0.07436,0.33667 0.02892,0.22926 0.214808,0.35526 0.0083,0.006 0.01859,0.0145 0.01033,0.006 0.02272,0.0124 l 0.02272,0.0103 0.02479,0.0103 z"
             style="font-style:normal;font-variant:normal;font-weight:normal;font-stretch:normal;font-size:4.23007px;font-family:'MS 33558';-inkscape-font-specification:'MS 33558, ';fill:#00ff00;stroke-width:0.264379"
             id="path1729" />
          <path
             d="m 78.187773,174.99285 v -3.35845 h -0.758025 q -0.289165,-0.0227 -0.289165,-0.28916 0.0021,-0.26851 0.289165,-0.2933 h 2.096446 q 0.285034,0.0227 0.285034,0.2933 0.0021,0.26851 -0.285034,0.28916 h -0.75596 v 3.35845 q -0.04751,0.29329 -0.305689,0.28916 -0.256117,-0.004 -0.276772,-0.28916 z"
             style="font-style:normal;font-variant:normal;font-weight:normal;font-stretch:normal;font-size:4.23007px;font-family:'MS 33558';-inkscape-font-specification:'MS 33558, ';fill:#00ff00;stroke-width:0.264379"
             id="path1731" />
        </g>
        <path
           id="rect75-2-6-4"
           style="fill:#00ff00;stroke-width:0.0969435;stroke-dasharray:2.32666, 0.0969435"
           transform="rotate(90)"
           d="m 172.66708,-94.654701 h 1.27 v 12.7 h -1.27 z" />
      </g>
      <path
         id="path2202-1-5"
         style="fill:#ff0000;stroke:none;stroke-width:0.376296"
         d="m 60.053766,98.385376 a 2.9868519,2.9868519 0 0 1 -2.986852,2.986854 2.9868519,2.9868519 0 0 1 -2.986852,-2.986854 2.9868519,2.9868519 0 0 1 2.986852,-2.986852 2.9868519,2.9868519 0 0 1 2.986852,2.986852 z" />
      <path
         id="path2202-1-3"
         style="fill:#ff0000;stroke:none;stroke-width:0.376296"
         d="m 151.33503,98.385376 a 2.9868519,2.9868519 0 0 1 -2.98685,2.986854 2.9868519,2.9868519 0 0 1 -2.98686,-2.986854 2.9868519,2.9868519 0 0 1 2.98686,-2.986852 2.9868519,2.9868519 0 0 1 2.98685,2.986852 z" />
      <path
         id="path2202-1-2"
         style="fill:#ff0000;stroke:none;stroke-width:0.376296"
         d="m 117.99751,153.68335 a 2.9868519,2.9868519 0 0 1 -2.98685,2.98685 2.9868519,2.9868519 0 0 1 -2.98685,-2.98685 2.9868519,2.9868519 0 0 1 2.98685,-2.98685 2.9868519,2.9868519 0 0 1 2.98685,2.98685 z" />
    </g>
  </g>
</svg>
