<?xml version="1.0" encoding="UTF-8" standalone="no"?>
<svg
   xmlns:dc="http://purl.org/dc/elements/1.1/"
   xmlns:cc="http://creativecommons.org/ns#"
   xmlns:rdf="http://www.w3.org/1999/02/22-rdf-syntax-ns#"
   xmlns:svg="http://www.w3.org/2000/svg"
   xmlns="http://www.w3.org/2000/svg"
   xmlns:sodipodi="http://sodipodi.sourceforge.net/DTD/sodipodi-0.dtd"
   xmlns:inkscape="http://www.inkscape.org/namespaces/inkscape"
   width="210mm"
   height="297mm"
   viewBox="0 0 210 297"
   version="1.1"
   id="svg1835"
   inkscape:version="1.0.2 (e86c870879, 2021-01-15, custom)"
   sodipodi:docname="Master Gen Panel Bottom.svg">
  <defs
     id="defs1829" />
  <sodipodi:namedview
     id="base"
     pagecolor="#ffffff"
     bordercolor="#666666"
     borderopacity="1.0"
     inkscape:pageopacity="0.0"
     inkscape:pageshadow="2"
     inkscape:zoom="0.35"
     inkscape:cx="400"
     inkscape:cy="560"
     inkscape:document-units="mm"
     inkscape:current-layer="layer1"
     inkscape:document-rotation="0"
     showgrid="false"
     inkscape:window-width="1431"
     inkscape:window-height="1208"
     inkscape:window-x="2880"
     inkscape:window-y="135"
     inkscape:window-maximized="0" />
  <metadata
     id="metadata1832">
    <rdf:RDF>
      <cc:Work
         rdf:about="">
        <dc:format>image/svg+xml</dc:format>
        <dc:type
           rdf:resource="http://purl.org/dc/dcmitype/StillImage" />
        <dc:title></dc:title>
      </cc:Work>
    </rdf:RDF>
  </metadata>
  <g
     inkscape:label="Layer 1"
     inkscape:groupmode="layer"
     id="layer1">
    <g
       id="g2472">
      <rect
         style="fill:none;stroke:#000000;stroke-width:0.239347;stroke-miterlimit:4;stroke-dasharray:none;stroke-dashoffset:0;stroke-opacity:1"
         id="rect863-2-0-4-7-4"
         width="171.21062"
         height="69.610657"
         x="-186.90292"
         y="-170.1208"
         transform="scale(-1)" />
      <path
         id="path664-8-1-8-3"
         style="fill:#ff0000;stroke-width:0.322549;stroke-dasharray:7.74117, 0.322549"
         d="m 161.01232,134.29196 a 6.3499999,6.3500185 0 0 1 -6.16923,6.34745 6.3499999,6.3500185 0 0 1 -6.52048,-5.98607 6.3499999,6.3500185 0 0 1 5.79801,-6.68825 6.3499999,6.3500185 0 0 1 6.85057,5.60528" />
      <path
         id="path2202-6"
         style="fill:#ff0000;stroke:none;stroke-width:0.376296"
         d="m 180.02274,110.25642 a 2.9868519,2.9868519 0 0 1 -2.98685,2.98685 2.9868519,2.9868519 0 0 1 -2.98685,-2.98685 2.9868519,2.9868519 0 0 1 2.98685,-2.98686 2.9868519,2.9868519 0 0 1 2.98685,2.98686 z" />
      <path
         id="path2202-5-9"
         style="fill:#ff0000;stroke:none;stroke-width:0.376296"
         d="m 180.02274,160.37456 a 2.9868519,2.9868519 0 0 1 -2.98685,2.98685 2.9868519,2.9868519 0 0 1 -2.98685,-2.98685 2.9868519,2.9868519 0 0 1 2.98685,-2.98685 2.9868519,2.9868519 0 0 1 2.98685,2.98685 z" />
      <path
         id="path2202-1-0"
         style="fill:#ff0000;stroke:none;stroke-width:0.376296"
         d="m 28.531053,109.74161 a 2.9868519,2.9868519 0 0 1 -2.986852,2.98685 2.9868519,2.9868519 0 0 1 -2.986852,-2.98685 2.9868519,2.9868519 0 0 1 2.986852,-2.98685 2.9868519,2.9868519 0 0 1 2.986852,2.98685 z" />
      <path
         id="path2202-5-0-1"
         style="fill:#ff0000;stroke:none;stroke-width:0.376296"
         d="m 28.531053,160.3889 a 2.9868519,2.9868519 0 0 1 -2.986852,2.98685 2.9868519,2.9868519 0 0 1 -2.986852,-2.98685 2.9868519,2.9868519 0 0 1 2.986852,-2.98685 2.9868519,2.9868519 0 0 1 2.986852,2.98685 z" />
      <path
         id="path664-7"
         style="fill:#ff0000;stroke-width:0.322548;stroke-dasharray:7.74117, 0.322548"
         d="m 60.922826,138.45988 a 6.3499999,6.3500185 0 0 1 -6.169235,6.34745 6.3499999,6.3500185 0 0 1 -6.520473,-5.98606 6.3499999,6.3500185 0 0 1 5.798001,-6.68826 6.3499999,6.3500185 0 0 1 6.850574,5.60528" />
      <path
         id="path664-8-1-4"
         style="fill:#ff0000;stroke-width:0.322549;stroke-dasharray:7.74117, 0.322549"
         d="m 100.87498,138.45988 a 6.3499999,6.3500185 0 0 1 -6.169237,6.34745 6.3499999,6.3500185 0 0 1 -6.520473,-5.98606 6.3499999,6.3500185 0 0 1 5.798001,-6.68826 6.3499999,6.3500185 0 0 1 6.850579,5.60528" />
      <path
         id="path2202-1-5-6"
         style="fill:#ff0000;stroke:none;stroke-width:0.376296"
         d="m 47.240999,106.73569 a 2.9868519,2.9868519 0 0 1 -2.986852,2.98685 2.9868519,2.9868519 0 0 1 -2.986852,-2.98685 2.9868519,2.9868519 0 0 1 2.986852,-2.98685 2.9868519,2.9868519 0 0 1 2.986852,2.98685 z" />
      <path
         id="path2202-1-3-7"
         style="fill:#ff0000;stroke:none;stroke-width:0.376296"
         d="m 138.52225,106.73569 a 2.9868519,2.9868519 0 0 1 -2.98685,2.98685 2.9868519,2.9868519 0 0 1 -2.98685,-2.98685 2.9868519,2.9868519 0 0 1 2.98685,-2.98685 2.9868519,2.9868519 0 0 1 2.98685,2.98685 z" />
      <path
         id="path2202-1-2-1"
         style="fill:#ff0000;stroke:none;stroke-width:0.376296"
         d="m 105.18476,162.03368 a 2.9868519,2.9868519 0 0 1 -2.98685,2.98685 2.9868519,2.9868519 0 0 1 -2.986855,-2.98685 2.9868519,2.9868519 0 0 1 2.986855,-2.98686 2.9868519,2.9868519 0 0 1 2.98685,2.98686 z" />
    </g>
  </g>
</svg>
