<?xml version="1.0" encoding="UTF-8" standalone="no"?>
<svg
   xmlns:dc="http://purl.org/dc/elements/1.1/"
   xmlns:cc="http://creativecommons.org/ns#"
   xmlns:rdf="http://www.w3.org/1999/02/22-rdf-syntax-ns#"
   xmlns:svg="http://www.w3.org/2000/svg"
   xmlns="http://www.w3.org/2000/svg"
   xmlns:sodipodi="http://sodipodi.sourceforge.net/DTD/sodipodi-0.dtd"
   xmlns:inkscape="http://www.inkscape.org/namespaces/inkscape"
   width="210mm"
   height="297mm"
   viewBox="0 0 210 297"
   version="1.1"
   id="svg2355"
   inkscape:version="1.0.2 (e86c870879, 2021-01-15, custom)"
   sodipodi:docname="Panel4 ICS Bottom.svg">
  <defs
     id="defs2349" />
  <sodipodi:namedview
     id="base"
     pagecolor="#ffffff"
     bordercolor="#666666"
     borderopacity="1.0"
     inkscape:pageopacity="0.0"
     inkscape:pageshadow="2"
     inkscape:zoom="1.5"
     inkscape:cx="400"
     inkscape:cy="560"
     inkscape:document-units="mm"
     inkscape:current-layer="layer1"
     inkscape:document-rotation="0"
     showgrid="false"
     inkscape:window-width="2560"
     inkscape:window-height="1361"
     inkscape:window-x="2551"
     inkscape:window-y="-9"
     inkscape:window-maximized="1" />
  <metadata
     id="metadata2352">
    <rdf:RDF>
      <cc:Work
         rdf:about="">
        <dc:format>image/svg+xml</dc:format>
        <dc:type
           rdf:resource="http://purl.org/dc/dcmitype/StillImage" />
        <dc:title />
      </cc:Work>
    </rdf:RDF>
  </metadata>
  <g
     inkscape:label="Layer 1"
     inkscape:groupmode="layer"
     id="layer1">
    <rect
       style="fill:none;stroke:#000000;stroke-width:0.249386;stroke-miterlimit:4;stroke-dasharray:none;stroke-opacity:1"
       id="rect2248-4-2-5"
       width="152.15062"
       height="75.950409"
       x="30.513975"
       y="95.828369" />
    <path
       id="path8-1-1-6-3-8"
       style="fill:#ff0000;stroke-width:0.113132"
       d="m 175.85076,108.28743 a 3.1698046,3.1646004 0 0 1 -3.16981,3.1646 3.1698046,3.1646004 0 0 1 -3.1698,-3.1646 3.1698046,3.1646004 0 0 1 3.1698,-3.1646 3.1698046,3.1646004 0 0 1 3.16981,3.1646 z" />
    <path
       id="path8-1-1-6-6-2"
       style="fill:#ff0000;stroke-width:0.113132"
       d="m 43.66742,108.28743 a 3.1698046,3.1646004 0 0 1 -3.169804,3.1646 3.1698046,3.1646004 0 0 1 -3.169805,-3.1646 3.1698046,3.1646004 0 0 1 3.169805,-3.1646 3.1698046,3.1646004 0 0 1 3.169804,3.1646 z" />
    <path
       id="path8-1-1-6-1-6"
       style="fill:#ff0000;stroke-width:0.113132"
       d="m 43.66742,159.31972 a 3.1698046,3.1646004 0 0 1 -3.169804,3.1646 3.1698046,3.1646004 0 0 1 -3.169805,-3.1646 3.1698046,3.1646004 0 0 1 3.169805,-3.1646 3.1698046,3.1646004 0 0 1 3.169804,3.1646 z" />
    <path
       id="path8-1-1-6-8"
       style="fill:#ff0000;stroke-width:0.113132"
       d="m 175.85076,159.31972 a 3.1698046,3.1646004 0 0 1 -3.16981,3.1646 3.1698046,3.1646004 0 0 1 -3.1698,-3.1646 3.1698046,3.1646004 0 0 1 3.1698,-3.1646 3.1698046,3.1646004 0 0 1 3.16981,3.1646 z" />
    <path
       id="path8-6"
       style="fill:#ff0000;stroke-width:0.113132"
       d="m 131.01587,157.66266 a 3.1698046,3.1646004 0 0 1 -3.1698,3.1646 3.1698046,3.1646004 0 0 1 -3.16981,-3.1646 3.1698046,3.1646004 0 0 1 3.16981,-3.1646 3.1698046,3.1646004 0 0 1 3.1698,3.1646 z" />
    <path
       id="path8-2-9"
       style="fill:#ff0000;stroke-width:0.271517"
       d="m 113.94219,134.60426 a 7.6075306,7.5950413 0 0 1 -7.60753,7.59504 7.6075306,7.5950413 0 0 1 -7.607527,-7.59504 7.6075306,7.5950413 0 0 1 7.607527,-7.59504 7.6075306,7.5950413 0 0 1 7.60753,7.59504 z" />
    <path
       id="path8-2-2-2"
       style="fill:#ff0000;stroke-width:0.226264"
       d="m 156.87594,134.60426 a 6.3396091,6.3292007 0 0 1 -6.33961,6.3292 6.3396091,6.3292007 0 0 1 -6.33961,-6.3292 6.3396091,6.3292007 0 0 1 6.33961,-6.3292 6.3396091,6.3292007 0 0 1 6.33961,6.3292 z" />
    <path
       id="path8-04-8"
       style="fill:#ff0000;stroke-width:0.113132"
       d="m 88.751782,157.66266 a 3.1698046,3.1646004 0 0 1 -3.169804,3.1646 3.1698046,3.1646004 0 0 1 -3.169805,-3.1646 3.1698046,3.1646004 0 0 1 3.169805,-3.1646 3.1698046,3.1646004 0 0 1 3.169804,3.1646 z" />
    <path
       id="path8-1-7"
       style="fill:#ff0000;stroke-width:0.113132"
       d="m 65.408032,105.18303 a 3.1698046,3.1646004 0 0 1 -3.169804,3.1646 3.1698046,3.1646004 0 0 1 -3.169805,-3.1646 3.1698046,3.1646004 0 0 1 3.169805,-3.1646 3.1698046,3.1646004 0 0 1 3.169804,3.1646 z" />
    <path
       id="path8-1-5-8"
       style="fill:#ff0000;stroke-width:0.113132"
       d="m 153.10616,105.18303 a 3.1698046,3.1646004 0 0 1 -3.1698,3.1646 3.1698046,3.1646004 0 0 1 -3.16981,-3.1646 3.1698046,3.1646004 0 0 1 3.16981,-3.1646 3.1698046,3.1646004 0 0 1 3.1698,3.1646 z" />
    <path
       id="path8-04-7-4"
       style="fill:#ff0000;stroke-width:0.172386"
       d="m 70.898502,134.68336 a 4.8260002,4.8260002 0 0 1 -4.826,4.82601 4.8260002,4.8260002 0 0 1 -4.826,-4.82601 4.8260002,4.8260002 0 0 1 4.826,-4.826 4.8260002,4.8260002 0 0 1 4.826,4.826 z" />
  </g>
</svg>
