<?xml version="1.0" encoding="UTF-8" standalone="no"?>
<svg
   xmlns:dc="http://purl.org/dc/elements/1.1/"
   xmlns:cc="http://creativecommons.org/ns#"
   xmlns:rdf="http://www.w3.org/1999/02/22-rdf-syntax-ns#"
   xmlns:svg="http://www.w3.org/2000/svg"
   xmlns="http://www.w3.org/2000/svg"
   xmlns:sodipodi="http://sodipodi.sourceforge.net/DTD/sodipodi-0.dtd"
   xmlns:inkscape="http://www.inkscape.org/namespaces/inkscape"
   width="210mm"
   height="297mm"
   viewBox="0 0 210 297"
   version="1.1"
   id="svg1451"
   inkscape:version="1.0.2 (e86c870879, 2021-01-15, custom)"
   sodipodi:docname="Panel4 ICS Top.svg">
  <defs
     id="defs1445" />
  <sodipodi:namedview
     id="base"
     pagecolor="#ffffff"
     bordercolor="#666666"
     borderopacity="1.0"
     inkscape:pageopacity="0.0"
     inkscape:pageshadow="2"
     inkscape:zoom="1"
     inkscape:cx="400"
     inkscape:cy="560"
     inkscape:document-units="mm"
     inkscape:current-layer="layer1"
     inkscape:document-rotation="0"
     showgrid="false"
     inkscape:window-width="2560"
     inkscape:window-height="1361"
     inkscape:window-x="-9"
     inkscape:window-y="-9"
     inkscape:window-maximized="1" />
  <metadata
     id="metadata1448">
    <rdf:RDF>
      <cc:Work
         rdf:about="">
        <dc:format>image/svg+xml</dc:format>
        <dc:type
           rdf:resource="http://purl.org/dc/dcmitype/StillImage" />
        <dc:title />
      </cc:Work>
    </rdf:RDF>
  </metadata>
  <g
     inkscape:label="Layer 1"
     inkscape:groupmode="layer"
     id="layer1">
    <path
       id="rect835"
       style="fill:none;fill-opacity:1;stroke:#000000;stroke-width:0.249386;stroke-miterlimit:4;stroke-dasharray:none;stroke-opacity:1"
       d="m 49.460487,100.1372 v 9.96717 2.49192 2.49193 c 0,5.52186 -4.452602,9.96717 -9.983538,9.96717 -0.007,0 -0.01258,-5.3e-4 -0.01957,-5.3e-4 h -9.963947 v 26.11526 h 9.963937 c 0.007,-2e-5 0.01308,-5.3e-4 0.01957,-5.3e-4 5.530936,0 9.983548,4.44531 9.983548,9.96718 v 2.49193 2.49192 9.96718 H 161.67695 v -9.96718 -2.49192 -2.49193 c 0,-5.52187 4.45261,-9.96718 9.98355,-9.96718 0.007,0 0.0126,5.3e-4 0.0196,5.3e-4 h 9.96397 v -26.11525 h -9.96393 c -0.007,2e-5 -0.0131,5.3e-4 -0.0196,5.3e-4 -5.53094,0 -9.98355,-4.44531 -9.98355,-9.96717 v -2.49192 -2.49193 -9.96717 z" />
    <path
       id="path8"
       style="fill:#ff0000;stroke-width:0.113411"
       d="m 130.03537,162.04997 a 3.175,3.175 0 0 1 -3.175,3.175 3.175,3.175 0 0 1 -3.175,-3.175 3.175,3.175 0 0 1 3.175,-3.175 3.175,3.175 0 0 1 3.175,3.175 z" />
    <path
       id="path8-2"
       style="fill:#ff0000;stroke-width:0.272186"
       d="m 112.93371,138.91583 a 7.6199999,7.6199999 0 0 1 -7.62,7.62 7.6199999,7.6199999 0 0 1 -7.619997,-7.62 7.6199999,7.6199999 0 0 1 7.619997,-7.62 7.6199999,7.6199999 0 0 1 7.62,7.62 z" />
    <path
       id="path8-2-2"
       style="fill:#ff0000;stroke-width:0.226821"
       d="m 155.93783,138.91583 a 6.3499999,6.3499999 0 0 1 -6.35,6.35 6.3499999,6.3499999 0 0 1 -6.35,-6.35 6.3499999,6.3499999 0 0 1 6.35,-6.35 6.3499999,6.3499999 0 0 1 6.35,6.35 z" />
    <g
       aria-label="I"
       id="text86"
       style="font-size:4.93889px;line-height:1.25;font-family:'MS 33558';-inkscape-font-specification:'MS 33558, ';fill:#00ff00;stroke-width:0.264583">
      <path
         d="m 171.27734,132.83597 q -0.0531,0.34003 -0.34486,0.33762 -0.28938,0 -0.34003,-0.33762 v -4.26366 q 0.0506,-0.34003 0.34003,-0.34003 0.2918,-0.002 0.34486,0.34003 z"
         style="font-size:4.93889px;fill:#00ff00;stroke-width:0.264583"
         id="path908" />
    </g>
    <g
       aria-label="C"
       id="text90"
       style="font-size:10.5833px;line-height:1.25;font-family:'MS 33558';-inkscape-font-specification:'MS 33558, ';fill:#00ff00;stroke-width:0.264583">
      <path
         d="m 172.45096,139.93745 -0.0217,0.0313 q -0.007,0.01 -0.0121,0.0169 -0.005,0.007 -0.01,0.0145 -0.33038,0.44614 -0.86816,0.63666 -0.53537,0.1881 -1.05627,-0.0699 -0.6053,-0.30145 -0.88986,-1.0225 -0.28216,-0.72106 -0.24357,-1.49759 0.041,-0.77893 0.40996,-1.43006 0.37138,-0.65112 1.07556,-0.81511 0.40515,-0.0941 0.80788,0.0796 0.40273,0.17123 0.66077,0.48232 0.002,0 0.0121,0.0169 0.11094,0.14469 0.0458,0.31833 -0.0651,0.17122 -0.23874,0.21463 -0.18569,0.0482 -0.34244,-0.11094 -0.32315,-0.3762 -0.62219,-0.36173 -0.29903,0.0145 -0.53537,0.24598 -0.23633,0.23151 -0.39308,0.59324 -0.15675,0.36174 -0.19293,0.67765 -0.0434,0.35209 0.007,0.709 0.0531,0.35451 0.21945,0.66801 0.28939,0.54984 0.72829,0.68971 0.44132,0.13746 0.86093,-0.42203 0.0193,-0.0241 0.0458,-0.0627 0.22669,-0.2508 0.47749,-0.0506 0.25322,0.19775 0.0748,0.44855 z"
         style="font-size:4.93889px;fill:#00ff00;stroke-width:0.264583"
         id="path911" />
    </g>
    <g
       aria-label="S"
       id="text94"
       style="font-size:10.5833px;line-height:1.25;font-family:'MS 33558';-inkscape-font-specification:'MS 33558, ';fill:#00ff00;stroke-width:0.264583">
      <path
         d="m 171.74022,145.62135 0.0386,0.0169 0.0434,0.0217 0.0386,0.0217 q 0.0169,0.0121 0.0362,0.0241 0.0217,0.01 0.041,0.0217 0.47749,0.31351 0.59084,0.86817 0.0434,0.21704 0.0193,0.44614 -0.0386,0.32797 -0.23151,0.60771 -0.19051,0.27733 -0.4799,0.42926 -0.31109,0.16399 -0.64389,0.16399 -0.55948,0 -1.06832,-0.14228 -0.50885,-0.1447 -0.72589,-0.76929 -0.0289,-0.0796 -0.0434,-0.16399 -0.0145,-0.0844 -0.0338,-0.16881 -0.0362,-0.17363 0.0844,-0.30627 0.12299,-0.13263 0.30386,-0.10128 0.19051,0.0386 0.26527,0.23633 l 0.007,0.0217 q 0.11576,0.52331 0.40273,0.6246 0.28939,0.10129 0.80306,0.0916 0.47266,0 0.64871,-0.44373 0.0772,-0.19775 0.0241,-0.40997 -0.0531,-0.21463 -0.2098,-0.35691 -0.0699,-0.0603 -0.18328,-0.11334 l -1.11656,-0.48955 -0.0362,-0.0193 q -0.54743,-0.28939 -0.68006,-0.82235 -0.16158,-0.61736 0.22427,-1.10691 0.38827,-0.49196 1.01768,-0.49196 l 0.26528,0.007 q 0.13022,0.0241 0.2508,0.0482 0.12058,0.0217 0.24357,0.0772 0.30386,0.14228 0.46543,0.39067 0.16158,0.2484 0.2918,0.53778 0.0121,0.0265 0.0217,0.0627 0.0265,0.11817 -0.0241,0.21463 -0.0289,0.0603 -0.0603,0.0916 -0.0314,0.0314 -0.0506,0.0434 -0.12541,0.0892 -0.27492,0.0531 -0.14952,-0.0338 -0.2291,-0.19293 -0.0627,-0.13987 -0.13505,-0.28456 -0.0699,-0.14711 -0.19775,-0.24357 -0.0531,-0.0386 -0.10369,-0.0555 -0.0482,-0.0193 -0.10853,-0.041 l -0.15675,-0.0265 -0.22186,-0.007 q -0.32315,0.005 -0.49437,0.27974 -0.11576,0.17605 -0.0868,0.39309 0.0338,0.26768 0.2508,0.41479 0.01,0.007 0.0217,0.0169 0.0121,0.007 0.0265,0.0145 l 0.0265,0.0121 0.0289,0.0121 z"
         style="font-size:4.93889px;fill:#00ff00;stroke-width:0.264583"
         id="path914" />
    </g>
    <g
       aria-label="Radio"
       id="text106"
       style="font-size:4.23333px;line-height:1.25;font-family:'MS 33558';-inkscape-font-specification:'MS 33558, ';fill:#00ff00;stroke-width:0.264583">
      <path
         d="m 145.80459,120.66577 q 0.11025,0.19464 -0.062,0.32728 -0.0827,0.0586 -0.1912,0.0396 -0.1068,-0.0189 -0.15675,-0.1068 l -0.84922,-1.34187 h -0.43064 v 1.21268 q 0,0.14986 -0.13608,0.21704 -0.13608,0.0655 -0.25494,-0.0258 -0.0947,-0.0706 -0.0947,-0.1912 v -3.04374 q 0,-0.0999 0.0689,-0.17054 0.0706,-0.0706 0.17225,-0.0706 h 1.0697 q 0.38585,0 0.67007,0.24632 0.28422,0.2446 0.35313,0.62184 0.0723,0.4048 -0.17226,0.75792 -0.24288,0.3514 -0.64595,0.4272 l -0.0327,0.005 z m -0.86472,-1.5658 q 0.1757,0 0.32384,-0.1068 0.14986,-0.1068 0.20154,-0.27905 0.081,-0.26528 -0.0741,-0.47887 -0.15503,-0.21532 -0.42719,-0.23771 h -0.84922 v 1.10243 z"
         style="font-size:3.52778px;fill:#00ff00;stroke-width:0.264583"
         id="path917" />
      <path
         d="m 148.30229,119.90784 -0.52366,-1.44694 -0.5271,1.44694 z m -0.52366,-1.44694 0.52366,1.44694 z m -1.3298,2.24621 q 0.2756,-0.75965 0.55121,-1.51757 0.27733,-0.75964 0.55466,-1.51929 0.0568,-0.15675 0.22566,-0.15847 0.16881,-0.002 0.22737,0.15847 l 1.10416,3.04547 q 0.0517,0.24288 -0.14814,0.3135 -0.19982,0.0706 -0.30834,-0.14469 l -0.17742,-0.49265 h -1.40388 l -0.17225,0.48059 q -0.11025,0.21704 -0.31351,0.14297 -0.20326,-0.0758 -0.13952,-0.30833 z"
         style="font-size:3.52778px;fill:#00ff00;stroke-width:0.264583"
         id="path919" />
      <path
         d="m 149.69238,117.51178 h 0.81133 q 0.60461,0 0.90606,0.55121 0.30144,0.55122 0.30144,1.21268 0,0.66146 -0.30317,1.21267 -0.30144,0.55122 -0.90433,0.55122 h -0.81133 0.003 -0.003 q -0.0568,-0.009 -0.062,-0.0103 -0.17914,-0.0431 -0.17742,-0.23426 h -0.002 l 0.002,-3.04202 q -0.002,-0.005 -0.002,-0.0138 0.005,-0.0947 0.0741,-0.16019 0.0706,-0.0672 0.16881,-0.0672 z m 0.81133,3.04202 q 0.003,0 0.007,0 0.003,0 0.009,0 0.003,0 0.005,0 0.003,-0.002 0.009,-0.002 0.003,0 0.007,0 0.005,-0.002 0.0103,-0.002 0.003,0 0.007,0 0.003,-0.002 0.009,-0.002 0.003,0 0.007,0 0.003,-0.002 0.009,-0.002 0.007,-0.003 0.0138,-0.003 0.003,0 0.007,-0.002 0.003,-0.003 0.009,-0.005 0.003,0 0.007,0 0.005,-0.002 0.0103,-0.003 0.003,0 0.007,-0.002 0.003,-0.002 0.009,-0.003 0.0103,-0.003 0.0155,-0.007 0.031,-0.0103 0.0172,-0.007 0.003,0 0.007,-0.002 0.003,-0.003 0.009,-0.005 0.0155,-0.0103 0.0138,-0.009 0.0172,-0.009 0.0172,-0.009 0.003,-0.002 0.007,-0.003 0.003,-0.003 0.009,-0.007 0.0155,-0.0103 0.0155,-0.0103 0.003,-0.002 0.007,-0.003 0.005,-0.003 0.0103,-0.007 0.003,-0.002 0.007,-0.005 0.003,-0.003 0.009,-0.007 0.003,-0.002 0.007,-0.003 0.003,-0.003 0.009,-0.007 0.003,-0.003 0.0172,-0.0138 0.0138,-0.0138 0.0138,-0.0138 0.003,-0.003 0.007,-0.007 0.003,-0.003 0.009,-0.009 0.003,-0.003 0.007,-0.007 0.003,-0.003 0.009,-0.009 0.005,-0.003 0.0155,-0.0138 0.003,-0.003 0.007,-0.007 0.003,-0.003 0.009,-0.009 0.003,-0.003 0.007,-0.007 0.003,-0.005 0.009,-0.0103 0.0207,-0.0276 0.0138,-0.0172 0.0121,-0.0121 0.0155,-0.019 0.0155,-0.0207 0.0138,-0.0189 0.003,-0.005 0.007,-0.009 0.003,-0.005 0.009,-0.0103 0.003,-0.005 0.005,-0.0103 0.003,-0.005 0.009,-0.0103 0.002,-0.005 0.005,-0.0103 0.005,-0.007 0.009,-0.0121 0.0103,-0.0138 0.0138,-0.0207 0.003,-0.005 0.005,-0.0103 0.003,-0.007 0.009,-0.0121 0.003,-0.005 0.005,-0.0103 0.003,-0.007 0.009,-0.0121 0.003,-0.009 0.0103,-0.0224 0.003,-0.005 0.005,-0.0121 0.003,-0.007 0.009,-0.0138 0.003,-0.005 0.005,-0.0103 0.003,-0.007 0.009,-0.0138 0.002,-0.005 0.003,-0.0121 0.003,-0.007 0.007,-0.0138 0.005,-0.009 0.0121,-0.0258 0.0172,-0.0431 0.0121,-0.0276 0.002,-0.005 0.003,-0.0121 0.003,-0.009 0.007,-0.0155 0.002,-0.007 0.003,-0.0138 0.003,-0.007 0.007,-0.0155 0.005,-0.0155 0.009,-0.0276 0.002,-0.007 0.003,-0.0138 0.003,-0.007 0.007,-0.0155 -0.007,0.0172 0.009,-0.0293 0.003,-0.009 0.0103,-0.0293 0,-0.007 0.002,-0.0138 0.003,-0.009 0.005,-0.0172 0.002,-0.007 0.003,-0.0138 0.002,-0.009 0.005,-0.0172 0,-0.005 0.002,-0.0121 0.003,-0.009 0.005,-0.0172 0.002,-0.0121 0.005,-0.0327 0,-0.007 0.002,-0.0138 0.003,-0.009 0.005,-0.0172 0,-0.007 0.002,-0.0138 0.002,-0.009 0.003,-0.0172 0.002,-0.0121 0.005,-0.0327 0,-0.007 0.002,-0.0155 0.003,-0.009 0.005,-0.0172 0,-0.0121 0.003,-0.0327 0,-0.007 0,-0.0138 0.002,-0.009 0.003,-0.0189 0.003,-0.0207 0.003,-0.0327 0.002,-0.0121 0.002,-0.0327 0.002,-0.0121 0.002,-0.0345 0.002,-0.0121 0.002,-0.0327 0,-0.009 0,-0.0155 0.002,-0.009 0.003,-0.0189 0,-0.007 0,-0.0138 0.002,-0.009 0.002,-0.0189 0,-0.007 0,-0.0155 0,-0.009 0,-0.0172 0,-0.009 0,-0.0155 0,-0.009 0,-0.0172 0,-0.009 -0.002,-0.0155 0,-0.009 0,-0.019 0,-0.007 0,-0.0155 0,-0.009 0,-0.0172 0,-0.0103 -0.003,-0.0344 0,-0.0207 -0.002,-0.031 0,-0.0121 -0.003,-0.0362 0,-0.0207 -0.002,-0.031 0,-0.0121 -0.003,-0.0327 -0.002,-0.007 -0.003,-0.0155 0,-0.009 0,-0.0172 -0.003,-0.0207 -0.007,-0.0327 -0.002,-0.007 -0.003,-0.0138 -0.002,-0.009 -0.002,-0.0172 -0.002,-0.012 -0.005,-0.0327 -0.002,-0.0121 -0.005,-0.0327 -0.007,-0.0207 -0.009,-0.031 -0.003,-0.0207 -0.005,-0.0293 -0.003,-0.007 -0.005,-0.0138 -0.002,-0.009 -0.003,-0.0172 -0.002,-0.007 -0.005,-0.0138 -0.003,-0.009 -0.003,-0.0172 -0.0155,-0.0465 -0.009,-0.0293 -0.003,-0.0121 -0.009,-0.0293 -0.003,-0.005 -0.007,-0.0121 -0.002,-0.009 -0.003,-0.0155 -0.002,-0.005 -0.0103,-0.0293 -0.007,-0.0172 -0.0103,-0.0276 -0.003,-0.005 -0.007,-0.0121 -0.002,-0.009 -0.003,-0.0155 -0.003,-0.005 -0.007,-0.0121 -0.003,-0.007 -0.005,-0.0138 -0.007,-0.0172 -0.0121,-0.0258 -0.007,-0.0172 -0.0103,-0.0241 -0.007,-0.0172 -0.0121,-0.0258 -0.003,-0.005 -0.007,-0.0103 -0.003,-0.007 -0.005,-0.0121 -0.0103,-0.0172 -0.0138,-0.0241 -0.0155,-0.0241 -0.0138,-0.0224 -0.005,-0.005 -0.009,-0.0103 -0.002,-0.007 -0.005,-0.0121 -0.003,-0.007 -0.0138,-0.0207 -0.003,-0.005 -0.007,-0.0103 -0.003,-0.005 -0.005,-0.0103 -0.009,-0.0155 -0.0293,-0.0396 -0.003,-0.003 -0.0276,-0.0379 -0.0207,-0.0241 -0.031,-0.0344 -0.0103,-0.0121 -0.031,-0.0327 -0.0138,-0.0155 -0.0293,-0.0293 -0.0121,-0.009 -0.0327,-0.0258 -0.0172,-0.0138 -0.0327,-0.0258 -0.0396,-0.0258 -0.0327,-0.0224 -0.0344,-0.0207 -0.031,-0.019 0,0 -0.031,-0.0155 -0.007,-0.003 -0.0327,-0.0121 -0.0224,-0.009 -0.0327,-0.0121 -0.009,-0.002 -0.0155,-0.003 -0.007,-0.003 -0.0138,-0.007 -0.031,-0.005 -0.031,-0.005 -0.0103,-0.002 -0.031,-0.002 -0.005,0 -0.009,0 -0.003,0 -0.007,0 h -0.56845 v 2.55626 0 z"
         style="font-size:3.52778px;fill:#00ff00;stroke-width:0.264583"
         id="path921" />
      <path
         d="m 152.63967,120.80185 q -0.0379,0.24288 -0.24633,0.24115 -0.2067,0 -0.24288,-0.24115 v -3.04547 q 0.0362,-0.24288 0.24288,-0.24288 0.20843,-0.002 0.24633,0.24288 z"
         style="font-size:3.52778px;fill:#00ff00;stroke-width:0.264583"
         id="path923" />
      <path
         d="m 155.41986,118.52636 q 0.15847,0.47715 0.11886,0.99047 -0.0379,0.51331 -0.28078,0.93706 -0.15331,0.26355 -0.41858,0.44786 -0.26527,0.18432 -0.58567,0.1292 -0.52193,-0.0913 -0.79926,-0.54433 -0.27733,-0.45303 -0.31867,-1.00769 -0.0396,-0.55638 0.14986,-1.08348 0.1912,-0.5271 0.60806,-0.76654 0.20326,-0.11713 0.42547,-0.11713 0.42375,0 0.69247,0.32039 0.26871,0.31867 0.40824,0.69419 z m -1.08693,-0.52538 q -0.31695,0 -0.48059,0.34107 -0.16192,0.34106 -0.20498,0.58222 -0.0327,0.1757 -0.0241,0.42547 0.009,0.24977 0.0724,0.49437 0.0637,0.24288 0.1912,0.43925 0.12747,0.19465 0.33418,0.25838 0.24115,0.0758 0.41513,-0.0947 0.1757,-0.17225 0.26527,-0.36518 0.0913,-0.19809 0.12403,-0.52021 0.0345,-0.32212 -0.0155,-0.64251 -0.0482,-0.32212 -0.1912,-0.57878 -0.14297,-0.25838 -0.40652,-0.329 -0.0344,-0.0103 -0.0792,-0.0103 z"
         style="font-size:3.52778px;fill:#00ff00;stroke-width:0.264583"
         id="path925" />
    </g>
    <g
       aria-label="overide"
       id="text110"
       style="font-size:4.23333px;line-height:1.25;font-family:'MS 33558';-inkscape-font-specification:'MS 33558, ';fill:#00ff00;stroke-width:0.264583">
      <path
         d="m 143.5098,123.81803 q 0.15848,0.47715 0.11886,0.99047 -0.0379,0.51332 -0.28078,0.93706 -0.15331,0.26355 -0.41858,0.44787 -0.26527,0.18431 -0.58566,0.12919 -0.52194,-0.0913 -0.79927,-0.54433 -0.27733,-0.45303 -0.31867,-1.00769 -0.0396,-0.55638 0.14986,-1.08348 0.19121,-0.5271 0.60806,-0.76654 0.20326,-0.11713 0.42547,-0.11713 0.42375,0 0.69247,0.32039 0.26871,0.31868 0.40824,0.69419 z m -1.08693,-0.52538 q -0.31695,0 -0.48059,0.34107 -0.16192,0.34106 -0.20498,0.58222 -0.0327,0.1757 -0.0241,0.42547 0.009,0.24977 0.0724,0.49437 0.0637,0.24288 0.1912,0.43925 0.12747,0.19465 0.33418,0.25838 0.24115,0.0758 0.41513,-0.0947 0.1757,-0.17225 0.26527,-0.36518 0.0913,-0.19809 0.12403,-0.52021 0.0344,-0.32211 -0.0155,-0.64251 -0.0482,-0.32211 -0.1912,-0.57877 -0.14297,-0.25839 -0.40652,-0.32901 -0.0344,-0.0103 -0.0792,-0.0103 z"
         style="font-size:3.52778px;fill:#00ff00;stroke-width:0.264583"
         id="path928" />
      <path
         d="m 144.09547,123.12901 q -0.0327,-0.2446 0.17397,-0.29972 0.20843,-0.0551 0.29628,0.17398 l 0.5805,2.14974 0.58395,-2.17041 q 0.0879,-0.23255 0.30316,-0.16881 0.21532,0.062 0.16537,0.29455 l -0.81993,3.04375 q -0.0689,0.17742 -0.23083,0.17914 -0.16191,0 -0.23598,-0.17225 z"
         style="font-size:3.52778px;fill:#00ff00;stroke-width:0.264583"
         id="path930" />
      <path
         d="m 148.59477,123.28404 h -1.428 v 0.94224 h 1.08865 q 0.2446,0.0362 0.24288,0.24632 0,0.20843 -0.24288,0.24288 h -1.08865 v 1.13171 h 1.428 q 0.24287,0.0362 0.24287,0.24288 0,0.20671 -0.24287,0.24116 h -1.66743 q -0.21532,-0.0276 -0.2446,-0.2446 v -3.04202 q 0.0327,-0.22738 0.2446,-0.24116 h 1.66743 q 0.24287,0.019 0.24115,0.24288 0,0.22221 -0.24115,0.23771 z"
         style="font-size:3.52778px;fill:#00ff00;stroke-width:0.264583"
         id="path932" />
      <path
         d="m 151.49209,125.95744 q 0.11025,0.19465 -0.062,0.32728 -0.0827,0.0586 -0.1912,0.0396 -0.1068,-0.019 -0.15675,-0.1068 l -0.84922,-1.34186 h -0.43064 v 1.21267 q 0,0.14986 -0.13608,0.21704 -0.13608,0.0655 -0.25494,-0.0258 -0.0947,-0.0706 -0.0947,-0.1912 v -3.04374 q 0,-0.0999 0.0689,-0.17054 0.0706,-0.0706 0.17225,-0.0706 h 1.0697 q 0.38585,0 0.67007,0.24632 0.28422,0.24461 0.35313,0.62184 0.0723,0.4048 -0.17226,0.75793 -0.24288,0.3514 -0.64595,0.42719 l -0.0327,0.005 z m -0.86472,-1.5658 q 0.1757,0 0.32384,-0.1068 0.14986,-0.1068 0.20154,-0.27905 0.081,-0.26527 -0.0741,-0.47887 -0.15503,-0.21532 -0.42719,-0.23771 h -0.84922 v 1.10243 z"
         style="font-size:3.52778px;fill:#00ff00;stroke-width:0.264583"
         id="path934" />
      <path
         d="m 152.61347,126.09352 q -0.0379,0.24288 -0.24632,0.24116 -0.20671,0 -0.24288,-0.24116 v -3.04547 q 0.0362,-0.24288 0.24288,-0.24288 0.20843,-0.002 0.24632,0.24288 z"
         style="font-size:3.52778px;fill:#00ff00;stroke-width:0.264583"
         id="path936" />
      <path
         d="m 153.34383,122.80345 h 0.81132 q 0.60462,0 0.90606,0.55122 0.30145,0.55121 0.30145,1.21267 0,0.66146 -0.30317,1.21267 -0.30145,0.55122 -0.90434,0.55122 h -0.81132 0.003 -0.003 q -0.0568,-0.009 -0.062,-0.0103 -0.17914,-0.0431 -0.17742,-0.23426 h -0.002 l 0.002,-3.04202 q -0.002,-0.005 -0.002,-0.0138 0.005,-0.0947 0.0741,-0.1602 0.0706,-0.0672 0.1688,-0.0672 z m 0.81132,3.04202 q 0.003,0 0.007,0 0.003,0 0.009,0 0.003,0 0.005,0 0.003,-0.002 0.009,-0.002 0.003,0 0.007,0 0.005,-0.002 0.0103,-0.002 0.003,0 0.007,0 0.003,-0.002 0.009,-0.002 0.003,0 0.007,0 0.003,-0.002 0.009,-0.002 0.007,-0.003 0.0138,-0.003 0.003,0 0.007,-0.002 0.003,-0.003 0.009,-0.005 0.003,0 0.007,0 0.005,-0.002 0.0103,-0.003 0.003,0 0.007,-0.002 0.003,-0.002 0.009,-0.003 0.0103,-0.003 0.0155,-0.007 0.031,-0.0103 0.0172,-0.007 0.003,0 0.007,-0.002 0.003,-0.003 0.009,-0.005 0.0155,-0.0103 0.0138,-0.009 0.0172,-0.009 0.0172,-0.009 0.003,-0.002 0.007,-0.003 0.003,-0.003 0.009,-0.007 0.0155,-0.0103 0.0155,-0.0103 0.003,-0.002 0.007,-0.003 0.005,-0.003 0.0103,-0.007 0.003,-0.002 0.007,-0.005 0.003,-0.003 0.009,-0.007 0.003,-0.002 0.007,-0.003 0.003,-0.003 0.009,-0.007 0.003,-0.003 0.0172,-0.0138 0.0138,-0.0138 0.0138,-0.0138 0.003,-0.003 0.007,-0.007 0.003,-0.003 0.009,-0.009 0.003,-0.003 0.007,-0.007 0.003,-0.003 0.009,-0.009 0.005,-0.003 0.0155,-0.0138 0.003,-0.003 0.007,-0.007 0.003,-0.003 0.009,-0.009 0.003,-0.003 0.007,-0.007 0.003,-0.005 0.009,-0.0103 0.0207,-0.0276 0.0138,-0.0172 0.0121,-0.0121 0.0155,-0.0189 0.0155,-0.0207 0.0138,-0.019 0.003,-0.005 0.007,-0.009 0.003,-0.005 0.009,-0.0103 0.003,-0.005 0.005,-0.0103 0.003,-0.005 0.009,-0.0103 0.002,-0.005 0.005,-0.0103 0.005,-0.007 0.009,-0.0121 0.0103,-0.0138 0.0138,-0.0207 0.003,-0.005 0.005,-0.0103 0.003,-0.007 0.009,-0.0121 0.003,-0.005 0.005,-0.0103 0.003,-0.007 0.009,-0.0121 0.003,-0.009 0.0103,-0.0224 0.003,-0.005 0.005,-0.0121 0.003,-0.007 0.009,-0.0138 0.003,-0.005 0.005,-0.0103 0.003,-0.007 0.009,-0.0138 0.002,-0.005 0.003,-0.0121 0.003,-0.007 0.007,-0.0138 0.005,-0.009 0.0121,-0.0258 0.0172,-0.0431 0.0121,-0.0276 0.002,-0.005 0.003,-0.0121 0.003,-0.009 0.007,-0.0155 0.002,-0.007 0.003,-0.0138 0.003,-0.007 0.007,-0.0155 0.005,-0.0155 0.009,-0.0276 0.002,-0.007 0.003,-0.0138 0.003,-0.007 0.007,-0.0155 -0.007,0.0172 0.009,-0.0293 0.003,-0.009 0.0103,-0.0293 0,-0.007 0.002,-0.0138 0.003,-0.009 0.005,-0.0172 0.002,-0.007 0.003,-0.0138 0.002,-0.009 0.005,-0.0172 0,-0.005 0.002,-0.0121 0.003,-0.009 0.005,-0.0172 0.002,-0.0121 0.005,-0.0327 0,-0.007 0.002,-0.0138 0.003,-0.009 0.005,-0.0172 0,-0.007 0.002,-0.0138 0.002,-0.009 0.003,-0.0172 0.002,-0.0121 0.005,-0.0327 0,-0.007 0.002,-0.0155 0.003,-0.009 0.005,-0.0172 0,-0.0121 0.003,-0.0327 0,-0.007 0,-0.0138 0.002,-0.009 0.003,-0.019 0.003,-0.0207 0.003,-0.0327 0.002,-0.0121 0.002,-0.0327 0.002,-0.0121 0.002,-0.0345 0.002,-0.0121 0.002,-0.0327 0,-0.009 0,-0.0155 0.002,-0.009 0.003,-0.019 0,-0.007 0,-0.0138 0.002,-0.009 0.002,-0.019 0,-0.007 0,-0.0155 0,-0.009 0,-0.0172 0,-0.009 0,-0.0155 0,-0.009 0,-0.0172 0,-0.009 -0.002,-0.0155 0,-0.009 0,-0.019 0,-0.007 0,-0.0155 0,-0.009 0,-0.0172 0,-0.0103 -0.003,-0.0344 0,-0.0207 -0.002,-0.031 0,-0.0121 -0.003,-0.0362 0,-0.0207 -0.002,-0.031 0,-0.0121 -0.003,-0.0327 -0.002,-0.007 -0.003,-0.0155 0,-0.009 0,-0.0172 -0.003,-0.0207 -0.007,-0.0327 -0.002,-0.007 -0.003,-0.0138 -0.002,-0.009 -0.002,-0.0172 -0.002,-0.0121 -0.005,-0.0327 -0.002,-0.0121 -0.005,-0.0327 -0.007,-0.0207 -0.009,-0.031 -0.003,-0.0207 -0.005,-0.0293 -0.003,-0.007 -0.005,-0.0138 -0.002,-0.009 -0.003,-0.0172 -0.002,-0.007 -0.005,-0.0138 -0.003,-0.009 -0.003,-0.0172 -0.0155,-0.0465 -0.009,-0.0293 -0.003,-0.0121 -0.009,-0.0293 -0.003,-0.005 -0.007,-0.0121 -0.002,-0.009 -0.003,-0.0155 -0.002,-0.005 -0.0103,-0.0293 -0.007,-0.0172 -0.0103,-0.0276 -0.003,-0.005 -0.007,-0.0121 -0.002,-0.009 -0.003,-0.0155 -0.003,-0.005 -0.007,-0.012 -0.003,-0.007 -0.005,-0.0138 -0.007,-0.0172 -0.0121,-0.0258 -0.007,-0.0172 -0.0103,-0.0241 -0.007,-0.0172 -0.0121,-0.0258 -0.003,-0.005 -0.007,-0.0103 -0.003,-0.007 -0.005,-0.0121 -0.0103,-0.0172 -0.0138,-0.0241 -0.0155,-0.0241 -0.0138,-0.0224 -0.005,-0.005 -0.009,-0.0103 -0.002,-0.007 -0.005,-0.0121 -0.003,-0.007 -0.0138,-0.0207 -0.003,-0.005 -0.007,-0.0103 -0.003,-0.005 -0.005,-0.0103 -0.009,-0.0155 -0.0293,-0.0396 -0.003,-0.003 -0.0276,-0.0379 -0.0207,-0.0241 -0.031,-0.0344 -0.0103,-0.0121 -0.031,-0.0327 -0.0138,-0.0155 -0.0293,-0.0293 -0.012,-0.009 -0.0327,-0.0258 -0.0172,-0.0138 -0.0327,-0.0258 -0.0396,-0.0258 -0.0327,-0.0224 -0.0344,-0.0207 -0.031,-0.0189 0,0 -0.031,-0.0155 -0.007,-0.003 -0.0327,-0.0121 -0.0224,-0.009 -0.0327,-0.0121 -0.009,-0.002 -0.0155,-0.003 -0.007,-0.003 -0.0138,-0.007 -0.031,-0.005 -0.031,-0.005 -0.0103,-0.002 -0.031,-0.002 -0.005,0 -0.009,0 -0.003,0 -0.007,0 h -0.56844 v 2.55626 0 z"
         style="font-size:3.52778px;fill:#00ff00;stroke-width:0.264583"
         id="path938" />
      <path
         d="m 157.71394,123.28404 h -1.42799 v 0.94224 h 1.08865 q 0.2446,0.0362 0.24288,0.24632 0,0.20843 -0.24288,0.24288 h -1.08865 v 1.13171 h 1.42799 q 0.24288,0.0362 0.24288,0.24288 0,0.20671 -0.24288,0.24116 h -1.66743 q -0.21532,-0.0276 -0.2446,-0.2446 v -3.04202 q 0.0327,-0.22738 0.2446,-0.24116 h 1.66743 q 0.24288,0.019 0.24116,0.24288 0,0.22221 -0.24116,0.23771 z"
         style="font-size:3.52778px;fill:#00ff00;stroke-width:0.264583"
         id="path940" />
    </g>
    <g
       aria-label="cold"
       id="text114"
       style="font-size:3.52777px;line-height:1.25;font-family:'MS 33558';-inkscape-font-specification:'MS 33558, ';fill:#00ff00;stroke-width:0.264583">
      <path
         d="m 142.42907,153.29666 -0.0155,0.0224 q -0.005,0.007 -0.009,0.0121 -0.003,0.005 -0.007,0.0103 -0.23598,0.31867 -0.62011,0.45475 -0.38241,0.13436 -0.75448,-0.0499 -0.43235,-0.21532 -0.63561,-0.73036 -0.20154,-0.51504 -0.17398,-1.0697 0.0293,-0.55638 0.29283,-1.02147 0.26527,-0.46508 0.76826,-0.58222 0.28938,-0.0672 0.57705,0.0568 0.28766,0.1223 0.47198,0.34451 0.002,0 0.009,0.012 0.0792,0.10336 0.0327,0.22738 -0.0465,0.1223 -0.17054,0.15331 -0.13263,0.0344 -0.2446,-0.0792 -0.23082,-0.26872 -0.44441,-0.25838 -0.2136,0.0103 -0.38241,0.1757 -0.16881,0.16536 -0.28077,0.42374 -0.11197,0.25838 -0.13781,0.48404 -0.031,0.25149 0.005,0.50643 0.0379,0.25321 0.15675,0.47714 0.20671,0.39274 0.52021,0.49265 0.31523,0.0982 0.61495,-0.30145 0.0138,-0.0172 0.0327,-0.0448 0.16192,-0.17915 0.34106,-0.0362 0.18087,0.14125 0.0534,0.3204 z"
         style="fill:#00ff00;stroke-width:0.264583"
         id="path943" />
      <path
         d="m 145.20064,151.33468 q 0.15848,0.47714 0.11886,0.99046 -0.0379,0.51332 -0.28078,0.93706 -0.1533,0.26355 -0.41857,0.44787 -0.26528,0.18431 -0.58567,0.12919 -0.52193,-0.0913 -0.79926,-0.54433 -0.27733,-0.45303 -0.31867,-1.00768 -0.0396,-0.55639 0.14986,-1.08349 0.1912,-0.52709 0.60806,-0.76653 0.20326,-0.11713 0.42547,-0.11713 0.42374,0 0.69246,0.32039 0.26872,0.31867 0.40824,0.69419 z m -1.08692,-0.52538 q -0.31695,0 -0.48059,0.34107 -0.16192,0.34106 -0.20498,0.58222 -0.0327,0.1757 -0.0241,0.42546 0.009,0.24977 0.0724,0.49437 0.0637,0.24288 0.1912,0.43925 0.12747,0.19465 0.33417,0.25838 0.24116,0.0758 0.41514,-0.0947 0.1757,-0.17225 0.26527,-0.36517 0.0913,-0.1981 0.12402,-0.52021 0.0344,-0.32212 -0.0155,-0.64251 -0.0482,-0.32212 -0.1912,-0.57878 -0.14298,-0.25838 -0.40652,-0.329 -0.0345,-0.0103 -0.0792,-0.0103 z"
         style="fill:#00ff00;stroke-width:0.264583"
         id="path945" />
      <path
         d="m 146.02746,153.84959 q -0.21187,-0.0138 -0.2446,-0.23943 v -3.04546 q 0.0362,-0.24805 0.2515,-0.24288 0.21531,0.003 0.23426,0.24288 v 2.8043 l 1.58991,-0.002 q 0.2446,0.0276 0.24116,0.24805 -0.002,0.21876 -0.24288,0.23426 z"
         style="fill:#00ff00;stroke-width:0.264583"
         id="path947" />
      <path
         d="m 148.83177,150.3201 h 0.81131 q 0.60462,0 0.90606,0.55121 0.30145,0.55122 0.30145,1.21267 0,0.66146 -0.30317,1.21268 -0.30144,0.55121 -0.90434,0.55121 h -0.81131 0.003 -0.003 q -0.0568,-0.009 -0.062,-0.0103 -0.17915,-0.0431 -0.17743,-0.23426 h -0.002 l 0.002,-3.04201 q -0.002,-0.005 -0.002,-0.0138 0.005,-0.0947 0.0741,-0.1602 0.0706,-0.0672 0.16881,-0.0672 z m 0.81131,3.04201 q 0.003,0 0.007,0 0.003,0 0.009,0 0.003,0 0.005,0 0.003,-0.002 0.009,-0.002 0.003,0 0.007,0 0.005,-0.002 0.0103,-0.002 0.003,0 0.007,0 0.003,-0.002 0.009,-0.002 0.003,0 0.007,0 0.003,-0.002 0.009,-0.002 0.007,-0.003 0.0138,-0.003 0.003,0 0.007,-0.002 0.003,-0.003 0.009,-0.005 0.003,0 0.007,0 0.005,-0.002 0.0103,-0.003 0.003,0 0.007,-0.002 0.003,-0.002 0.009,-0.003 0.0103,-0.003 0.0155,-0.007 0.031,-0.0103 0.0172,-0.007 0.003,0 0.007,-0.002 0.003,-0.003 0.009,-0.005 0.0155,-0.0103 0.0138,-0.009 0.0172,-0.009 0.0172,-0.009 0.003,-0.002 0.007,-0.003 0.003,-0.003 0.009,-0.007 0.0155,-0.0103 0.0155,-0.0103 0.003,-0.002 0.007,-0.003 0.005,-0.003 0.0103,-0.007 0.003,-0.002 0.007,-0.005 0.003,-0.003 0.009,-0.007 0.003,-0.002 0.007,-0.003 0.003,-0.003 0.009,-0.007 0.003,-0.003 0.0172,-0.0138 0.0138,-0.0138 0.0138,-0.0138 0.003,-0.003 0.007,-0.007 0.003,-0.003 0.009,-0.009 0.003,-0.003 0.007,-0.007 0.003,-0.003 0.009,-0.009 0.005,-0.003 0.0155,-0.0138 0.003,-0.003 0.007,-0.007 0.003,-0.003 0.009,-0.009 0.003,-0.003 0.007,-0.007 0.003,-0.005 0.009,-0.0103 0.0207,-0.0276 0.0138,-0.0172 0.012,-0.0121 0.0155,-0.0189 0.0155,-0.0207 0.0138,-0.019 0.003,-0.005 0.007,-0.009 0.003,-0.005 0.009,-0.0103 0.003,-0.005 0.005,-0.0103 0.003,-0.005 0.009,-0.0103 0.002,-0.005 0.005,-0.0103 0.005,-0.007 0.009,-0.0121 0.0103,-0.0138 0.0138,-0.0207 0.003,-0.005 0.005,-0.0103 0.003,-0.007 0.009,-0.0121 0.003,-0.005 0.005,-0.0103 0.003,-0.007 0.009,-0.0121 0.003,-0.009 0.0103,-0.0224 0.003,-0.005 0.005,-0.0121 0.003,-0.007 0.009,-0.0138 0.003,-0.005 0.005,-0.0103 0.003,-0.007 0.009,-0.0138 0.002,-0.005 0.003,-0.0121 0.003,-0.007 0.007,-0.0138 0.005,-0.009 0.0121,-0.0258 0.0172,-0.0431 0.0121,-0.0276 0.002,-0.005 0.003,-0.0121 0.003,-0.009 0.007,-0.0155 0.002,-0.007 0.003,-0.0138 0.003,-0.007 0.007,-0.0155 0.005,-0.0155 0.009,-0.0276 0.002,-0.007 0.003,-0.0138 0.003,-0.007 0.007,-0.0155 -0.007,0.0172 0.009,-0.0293 0.003,-0.009 0.0103,-0.0293 0,-0.007 0.002,-0.0138 0.003,-0.009 0.005,-0.0172 0.002,-0.007 0.003,-0.0138 0.002,-0.009 0.005,-0.0172 0,-0.005 0.002,-0.012 0.003,-0.009 0.005,-0.0172 0.002,-0.0121 0.005,-0.0327 0,-0.007 0.002,-0.0138 0.003,-0.009 0.005,-0.0172 0,-0.007 0.002,-0.0138 0.002,-0.009 0.003,-0.0172 0.002,-0.0121 0.005,-0.0327 0,-0.007 0.002,-0.0155 0.003,-0.009 0.005,-0.0172 0,-0.012 0.003,-0.0327 0,-0.007 0,-0.0138 0.002,-0.009 0.003,-0.0189 0.003,-0.0207 0.003,-0.0327 0.002,-0.0121 0.002,-0.0327 0.002,-0.0121 0.002,-0.0344 0.002,-0.0121 0.002,-0.0327 0,-0.009 0,-0.0155 0.002,-0.009 0.003,-0.0189 0,-0.007 0,-0.0138 0.002,-0.009 0.002,-0.0189 0,-0.007 0,-0.0155 0,-0.009 0,-0.0172 0,-0.009 0,-0.0155 0,-0.009 0,-0.0172 0,-0.009 -0.002,-0.0155 0,-0.009 0,-0.0189 0,-0.007 0,-0.0155 0,-0.009 0,-0.0172 0,-0.0103 -0.003,-0.0344 0,-0.0207 -0.002,-0.031 0,-0.0121 -0.003,-0.0362 0,-0.0207 -0.002,-0.031 0,-0.0121 -0.003,-0.0327 -0.002,-0.007 -0.003,-0.0155 0,-0.009 0,-0.0172 -0.003,-0.0207 -0.007,-0.0327 -0.002,-0.007 -0.003,-0.0138 -0.002,-0.009 -0.002,-0.0172 -0.002,-0.0121 -0.005,-0.0327 -0.002,-0.0121 -0.005,-0.0327 -0.007,-0.0207 -0.009,-0.031 -0.003,-0.0207 -0.005,-0.0293 -0.003,-0.007 -0.005,-0.0138 -0.002,-0.009 -0.003,-0.0172 -0.002,-0.007 -0.005,-0.0138 -0.003,-0.009 -0.003,-0.0172 -0.0155,-0.0465 -0.009,-0.0293 -0.003,-0.0121 -0.009,-0.0293 -0.003,-0.005 -0.007,-0.0121 -0.002,-0.009 -0.003,-0.0155 -0.002,-0.005 -0.0103,-0.0293 -0.007,-0.0172 -0.0103,-0.0276 -0.003,-0.005 -0.007,-0.0121 -0.002,-0.009 -0.003,-0.0155 -0.003,-0.005 -0.007,-0.0121 -0.003,-0.007 -0.005,-0.0138 -0.007,-0.0172 -0.0121,-0.0258 -0.007,-0.0172 -0.0103,-0.0241 -0.007,-0.0172 -0.0121,-0.0258 -0.003,-0.005 -0.007,-0.0103 -0.003,-0.007 -0.005,-0.0121 -0.0103,-0.0172 -0.0138,-0.0241 -0.0155,-0.0241 -0.0138,-0.0224 -0.005,-0.005 -0.009,-0.0103 -0.002,-0.007 -0.005,-0.012 -0.003,-0.007 -0.0138,-0.0207 -0.003,-0.005 -0.007,-0.0103 -0.003,-0.005 -0.005,-0.0103 -0.009,-0.0155 -0.0293,-0.0396 -0.003,-0.003 -0.0276,-0.0379 -0.0207,-0.0241 -0.031,-0.0344 -0.0103,-0.0121 -0.031,-0.0327 -0.0138,-0.0155 -0.0293,-0.0293 -0.0121,-0.009 -0.0327,-0.0258 -0.0172,-0.0138 -0.0327,-0.0258 -0.0396,-0.0258 -0.0327,-0.0224 -0.0345,-0.0207 -0.031,-0.019 0,0 -0.031,-0.0155 -0.007,-0.003 -0.0327,-0.0121 -0.0224,-0.009 -0.0327,-0.0121 -0.009,-0.002 -0.0155,-0.003 -0.007,-0.003 -0.0138,-0.007 -0.031,-0.005 -0.031,-0.005 -0.0103,-0.002 -0.031,-0.002 -0.005,0 -0.009,0 -0.003,0 -0.007,0 h -0.56843 v 2.55625 0 z"
         style="fill:#00ff00;stroke-width:0.264583"
         id="path949" />
    </g>
    <g
       aria-label="mic"
       id="text118"
       style="font-size:3.52777px;line-height:1.25;font-family:'MS 33558';-inkscape-font-specification:'MS 33558, ';fill:#00ff00;stroke-width:0.264583">
      <path
         d="m 155.30196,153.60671 q -0.0379,0.24116 -0.24461,0.24116 -0.20498,-0.002 -0.24115,-0.24116 v -2.15145 l -0.59083,1.01113 q -0.0947,0.11369 -0.21188,0.11886 -0.11541,0.005 -0.2067,-0.11886 l -0.58739,-1.00597 0.002,2.14629 q -0.0276,0.23944 -0.24977,0.23944 -0.22048,-0.002 -0.23771,-0.23944 v -3.04201 q 0.0138,-0.19809 0.17398,-0.23599 0.1602,-0.0396 0.27905,0.10852 l 0.82855,1.42455 0.83715,-1.42455 q 0.11886,-0.14814 0.27561,-0.10852 0.15847,0.0396 0.17398,0.23599 z"
         style="fill:#00ff00;stroke-width:0.264583"
         id="path952" />
      <path
         d="m 156.20457,153.61016 q -0.0379,0.24288 -0.24633,0.24115 -0.2067,0 -0.24287,-0.24115 v -3.04546 q 0.0362,-0.24288 0.24287,-0.24288 0.20843,-0.002 0.24633,0.24288 z"
         style="fill:#00ff00;stroke-width:0.264583"
         id="path954" />
      <path
         d="m 158.91241,153.29666 -0.0155,0.0224 q -0.005,0.007 -0.009,0.0121 -0.003,0.005 -0.007,0.0103 -0.23599,0.31867 -0.62011,0.45475 -0.38241,0.13436 -0.75448,-0.0499 -0.43236,-0.21532 -0.63562,-0.73036 -0.20153,-0.51504 -0.17397,-1.0697 0.0293,-0.55638 0.29283,-1.02147 0.26527,-0.46508 0.76825,-0.58222 0.28939,-0.0672 0.57706,0.0568 0.28766,0.1223 0.47197,0.34451 0.002,0 0.009,0.012 0.0792,0.10336 0.0327,0.22738 -0.0465,0.1223 -0.17053,0.15331 -0.13263,0.0344 -0.2446,-0.0792 -0.23082,-0.26872 -0.44442,-0.25838 -0.21359,0.0103 -0.3824,0.1757 -0.16881,0.16536 -0.28078,0.42374 -0.11196,0.25838 -0.1378,0.48404 -0.031,0.25149 0.005,0.50643 0.0379,0.25321 0.15675,0.47714 0.20671,0.39274 0.52021,0.49265 0.31522,0.0982 0.61495,-0.30145 0.0138,-0.0172 0.0327,-0.0448 0.16191,-0.17915 0.34106,-0.0362 0.18087,0.14125 0.0534,0.3204 z"
         style="fill:#00ff00;stroke-width:0.264583"
         id="path956" />
    </g>
    <g
       aria-label="hot"
       id="text122"
       style="font-size:3.52777px;line-height:1.25;font-family:'MS 33558';-inkscape-font-specification:'MS 33558, ';fill:#00ff00;stroke-width:0.264583">
      <path
         d="m 124.37522,140.81997 v -3.04546 q 0.0362,-0.24805 0.25149,-0.24288 0.21532,0.003 0.23427,0.24288 v 1.1386 h 1.38665 v -1.1386 q 0.0362,-0.24288 0.24288,-0.24288 0.20842,-0.002 0.24632,0.24288 v 3.04546 q -0.0379,0.24288 -0.24632,0.24115 -0.20671,0 -0.24288,-0.24115 v -1.41766 h -1.38665 v 1.41766 q -0.019,0.23771 -0.23427,0.24115 -0.21532,0.003 -0.25149,-0.24115 z"
         style="fill:#00ff00;stroke-width:0.264583"
         id="path959" />
      <path
         d="m 129.49634,138.54449 q 0.15848,0.47714 0.11886,0.99046 -0.0379,0.51332 -0.28077,0.93706 -0.15331,0.26355 -0.41858,0.44786 -0.26527,0.18432 -0.58567,0.1292 -0.52193,-0.0913 -0.79926,-0.54433 -0.27733,-0.45303 -0.31867,-1.00769 -0.0396,-0.55638 0.14986,-1.08348 0.1912,-0.5271 0.60806,-0.76653 0.20326,-0.11713 0.42547,-0.11713 0.42374,0 0.69246,0.32039 0.26872,0.31867 0.40824,0.69419 z m -1.08692,-0.52538 q -0.31695,0 -0.48059,0.34106 -0.16192,0.34107 -0.20498,0.58222 -0.0327,0.1757 -0.0241,0.42547 0.009,0.24977 0.0724,0.49437 0.0637,0.24288 0.1912,0.43925 0.12747,0.19465 0.33417,0.25838 0.24116,0.0758 0.41514,-0.0947 0.1757,-0.17225 0.26527,-0.36518 0.0913,-0.19809 0.12402,-0.5202 0.0344,-0.32212 -0.0155,-0.64251 -0.0482,-0.32212 -0.1912,-0.57878 -0.14297,-0.25838 -0.40652,-0.329 -0.0345,-0.0103 -0.0792,-0.0103 z"
         style="fill:#00ff00;stroke-width:0.264583"
         id="path961" />
      <path
         d="m 130.95189,140.81652 v -2.80085 h -0.63217 q -0.24116,-0.0189 -0.24116,-0.24116 0.002,-0.22393 0.24116,-0.2446 h 1.74838 q 0.23771,0.0189 0.23771,0.2446 0.002,0.22393 -0.23771,0.24116 h -0.63045 v 2.80085 q -0.0396,0.2446 -0.25494,0.24116 -0.21359,-0.003 -0.23082,-0.24116 z"
         style="fill:#00ff00;stroke-width:0.264583"
         id="path963" />
    </g>
    <g
       aria-label="mic"
       id="text126"
       style="font-size:3.52777px;line-height:1.25;font-family:'MS 33558';-inkscape-font-specification:'MS 33558, ';fill:#00ff00;stroke-width:0.264583">
      <path
         d="m 136.20398,140.81667 q -0.0379,0.24116 -0.2446,0.24116 -0.20499,-0.002 -0.24116,-0.24116 v -2.15145 l -0.59083,1.01113 q -0.0947,0.11369 -0.21187,0.11886 -0.11541,0.005 -0.20671,-0.11886 l -0.58739,-1.00597 0.002,2.14629 q -0.0276,0.23944 -0.24977,0.23944 -0.22049,-0.002 -0.23771,-0.23944 v -3.04201 q 0.0138,-0.19809 0.17397,-0.23599 0.1602,-0.0396 0.27905,0.10852 l 0.82855,1.42455 0.83715,-1.42455 q 0.11886,-0.14814 0.27561,-0.10852 0.15848,0.0396 0.17398,0.23599 z"
         style="fill:#00ff00;stroke-width:0.264583"
         id="path966" />
      <path
         d="m 137.10659,140.82012 q -0.0379,0.24288 -0.24632,0.24116 -0.20671,0 -0.24288,-0.24116 v -3.04546 q 0.0362,-0.24288 0.24288,-0.24288 0.20843,-0.002 0.24632,0.24288 z"
         style="fill:#00ff00;stroke-width:0.264583"
         id="path968" />
      <path
         d="m 139.81443,140.50662 -0.0155,0.0224 q -0.005,0.007 -0.009,0.0121 -0.003,0.005 -0.007,0.0103 -0.23599,0.31867 -0.62012,0.45475 -0.38241,0.13436 -0.75447,-0.0499 -0.43236,-0.21532 -0.63562,-0.73036 -0.20154,-0.51504 -0.17398,-1.0697 0.0293,-0.55638 0.29283,-1.02147 0.26527,-0.46508 0.76826,-0.58222 0.28938,-0.0672 0.57705,0.0568 0.28766,0.1223 0.47198,0.34451 0.002,0 0.009,0.012 0.0792,0.10336 0.0327,0.22738 -0.0465,0.1223 -0.17053,0.15331 -0.13264,0.0344 -0.24461,-0.0792 -0.23082,-0.26872 -0.44441,-0.25838 -0.2136,0.0103 -0.38241,0.1757 -0.16881,0.16536 -0.28077,0.42374 -0.11197,0.25838 -0.13781,0.48404 -0.031,0.25149 0.005,0.50643 0.0379,0.25321 0.15675,0.47714 0.20671,0.39274 0.52021,0.49265 0.31523,0.0982 0.61495,-0.30145 0.0138,-0.0172 0.0327,-0.0448 0.16192,-0.17915 0.34106,-0.0362 0.18087,0.14125 0.0534,0.3204 z"
         style="fill:#00ff00;stroke-width:0.264583"
         id="path970" />
    </g>
    <g
       aria-label="vol"
       id="text122-8"
       style="font-size:3.52777px;line-height:1.25;font-family:'MS 33558';-inkscape-font-specification:'MS 33558, ';fill:#00ff00;stroke-width:0.264583">
      <path
         d="m 61.027729,125.94922 q -0.03273,-0.2446 0.173977,-0.29972 0.208428,-0.0551 0.296278,0.17397 l 0.580497,2.14974 0.583943,-2.17041 q 0.08785,-0.23254 0.303167,-0.16881 0.215318,0.062 0.165365,0.29456 l -0.819931,3.04373 q -0.0689,0.17743 -0.230821,0.17915 -0.161919,0 -0.235989,-0.17226 z"
         style="fill:#00ff00;stroke-width:0.264583"
         id="path973" />
      <path
         d="m 65.905974,126.63824 q 0.158474,0.47714 0.118855,0.99046 -0.03789,0.51332 -0.280774,0.93706 -0.153307,0.26355 -0.418578,0.44786 -0.265272,0.18432 -0.585665,0.1292 -0.521931,-0.0913 -0.799261,-0.54433 -0.277329,-0.45303 -0.31867,-1.00769 -0.03962,-0.55638 0.149861,-1.08348 0.191202,-0.5271 0.608058,-0.76653 0.20326,-0.11713 0.425468,-0.11713 0.423746,0 0.692463,0.32039 0.268717,0.31867 0.408243,0.69419 z m -1.086925,-0.52538 q -0.316948,0 -0.48059,0.34106 -0.161919,0.34107 -0.204983,0.58222 -0.03273,0.1757 -0.02411,0.42547 0.0086,0.24977 0.07235,0.49437 0.06373,0.24288 0.191203,0.43925 0.127468,0.19465 0.334173,0.25838 0.241157,0.0758 0.415133,-0.0947 0.1757,-0.17225 0.265272,-0.36518 0.0913,-0.19809 0.124023,-0.5202 0.03445,-0.32212 -0.0155,-0.64251 -0.04823,-0.32212 -0.191202,-0.57878 -0.142971,-0.25838 -0.40652,-0.329 -0.03445,-0.0103 -0.07924,-0.0103 z"
         style="fill:#00ff00;stroke-width:0.264583"
         id="path975" />
      <path
         d="m 66.732795,129.15315 q -0.211873,-0.0138 -0.244601,-0.23943 v -3.04546 q 0.03617,-0.24805 0.251491,-0.24288 0.215318,0.003 0.234266,0.24288 v 2.8043 l 1.589908,-0.002 q 0.244601,0.0276 0.241156,0.24804 -0.0017,0.21877 -0.242879,0.23427 z"
         style="fill:#00ff00;stroke-width:0.264583"
         id="path977" />
    </g>
    <g
       aria-label="norm"
       id="text122-0"
       style="font-size:3.52777px;line-height:1.25;font-family:'MS 33558';-inkscape-font-specification:'MS 33558, ';fill:#00ff00;stroke-width:0.264583">
      <path
         d="m 102.51131,112.24494 q 0,0.18087 -0.1757,0.23082 -0.17398,0.0482 -0.27044,-0.10335 l -1.44694,-2.32027 v 2.1928 q -0.0379,0.24116 -0.2446,0.24116 -0.20498,0 -0.24115,-0.24116 v -3.04201 q 0.0258,-0.17915 0.18259,-0.23599 0.15847,-0.0568 0.26355,0.1068 l 1.44693,2.32371 v -2.19452 q 0.0327,-0.24633 0.24977,-0.24288 0.21876,0.002 0.23599,0.24288 z"
         style="fill:#00ff00;stroke-width:0.264583"
         id="path980" />
      <path
         d="m 105.29666,109.96946 q 0.15848,0.47714 0.11886,0.99046 -0.0379,0.51332 -0.28078,0.93707 -0.1533,0.26355 -0.41857,0.44786 -0.26528,0.18431 -0.58567,0.12919 -0.52193,-0.0913 -0.79926,-0.54433 -0.27733,-0.45302 -0.31867,-1.00768 -0.0396,-0.55639 0.14986,-1.08348 0.1912,-0.5271 0.60806,-0.76654 0.20326,-0.11713 0.42547,-0.11713 0.42374,0 0.69246,0.32039 0.26872,0.31867 0.40824,0.69419 z m -1.08692,-0.52538 q -0.31695,0 -0.48059,0.34107 -0.16192,0.34106 -0.20498,0.58222 -0.0327,0.1757 -0.0241,0.42547 0.009,0.24976 0.0724,0.49437 0.0637,0.24287 0.1912,0.43924 0.12747,0.19465 0.33417,0.25839 0.24116,0.0758 0.41514,-0.0947 0.1757,-0.17226 0.26527,-0.36518 0.0913,-0.1981 0.12402,-0.52021 0.0345,-0.32212 -0.0155,-0.64251 -0.0482,-0.32212 -0.1912,-0.57878 -0.14298,-0.25838 -0.40652,-0.329 -0.0345,-0.0103 -0.0792,-0.0103 z"
         style="fill:#00ff00;stroke-width:0.264583"
         id="path982" />
      <path
         d="m 108.05446,112.10886 q 0.11024,0.19465 -0.062,0.32728 -0.0827,0.0586 -0.1912,0.0396 -0.1068,-0.0189 -0.15675,-0.1068 l -0.84921,-1.34186 h -0.43064 v 1.21267 q 0,0.14986 -0.13608,0.21704 -0.13608,0.0655 -0.25494,-0.0258 -0.0947,-0.0706 -0.0947,-0.1912 v -3.04373 q 0,-0.0999 0.0689,-0.17053 0.0706,-0.0706 0.17225,-0.0706 h 1.0697 q 0.38585,0 0.67007,0.24632 0.28422,0.24461 0.35312,0.62184 0.0724,0.4048 -0.17225,0.75792 -0.24288,0.3514 -0.64596,0.42719 l -0.0327,0.005 z m -0.86472,-1.56579 q 0.1757,0 0.32384,-0.1068 0.14986,-0.1068 0.20154,-0.27905 0.081,-0.26528 -0.0741,-0.47887 -0.15503,-0.21532 -0.4272,-0.23771 h -0.84921 v 1.10243 z"
         style="fill:#00ff00;stroke-width:0.264583"
         id="path984" />
      <path
         d="m 111.25494,112.24149 q -0.0379,0.24116 -0.2446,0.24116 -0.20498,-0.002 -0.24115,-0.24116 v -2.15145 l -0.59084,1.01113 q -0.0947,0.11369 -0.21187,0.11886 -0.11541,0.005 -0.2067,-0.11886 l -0.58739,-1.00597 0.002,2.14629 q -0.0276,0.23944 -0.24977,0.23944 -0.22048,-0.002 -0.23771,-0.23944 v -3.04201 q 0.0138,-0.19809 0.17398,-0.23599 0.16019,-0.0396 0.27905,0.10852 l 0.82854,1.42455 0.83716,-1.42455 q 0.11885,-0.14814 0.27561,-0.10852 0.15847,0.0396 0.17397,0.23599 z"
         style="fill:#00ff00;stroke-width:0.264583"
         id="path986" />
    </g>
    <path
       id="rect188"
       style="fill:#00ff00;stroke-width:0.151795"
       d="m 105.05872,116.54166 h 1.27 v 10.16 h -1.27 z" />
    <path
       id="path8-04"
       style="fill:#ff0000;stroke-width:0.113411"
       d="m 87.702031,162.04997 a 3.175,3.175 0 0 1 -3.175,3.175 3.175,3.175 0 0 1 -3.175,-3.175 3.175,3.175 0 0 1 3.175,-3.175 3.175,3.175 0 0 1 3.175,3.175 z" />
    <path
       id="path8-1"
       style="fill:#ff0000;stroke-width:0.113411"
       d="m 64.320004,109.3979 a 3.175,3.175 0 0 1 -3.175,3.175 3.175,3.175 0 0 1 -3.175,-3.175 3.175,3.175 0 0 1 3.175,-3.175 3.175,3.175 0 0 1 3.175,3.175 z" />
    <path
       id="path8-1-5"
       style="fill:#ff0000;stroke-width:0.113411"
       d="m 152.16188,109.3979 a 3.175,3.175 0 0 1 -3.175,3.175 3.175,3.175 0 0 1 -3.175,-3.175 3.175,3.175 0 0 1 3.175,-3.175 3.175,3.175 0 0 1 3.175,3.175 z" />
    <path
       id="path8-04-7"
       style="fill:#ff0000;stroke-width:0.172385"
       d="m 69.803661,138.97932 a 4.8260002,4.8260002 0 0 1 -4.826,4.826 4.8260002,4.8260002 0 0 1 -4.826,-4.826 4.8260002,4.8260002 0 0 1 4.826,-4.826 4.8260002,4.8260002 0 0 1 4.826,4.826 z" />
    <g
       aria-label="b/u"
       id="text122-2"
       style="font-size:3.52777px;line-height:1.25;font-family:'MS 33558';-inkscape-font-specification:'MS 33558, ';fill:#00ff00;stroke-width:0.264583">
      <path
         d="m 80.713822,118.87744 q 0.327283,0.0276 0.549491,0.19809 0.223931,0.17054 0.310058,0.41169 0.08613,0.23944 0.02239,0.5116 -0.06201,0.27044 -0.303167,0.49781 0.265271,0.27906 0.330728,0.60289 0.06546,0.32384 -0.04134,0.60634 -0.105075,0.28077 -0.366902,0.47714 -0.261826,0.19637 -0.649399,0.22221 h -0.0052 -0.916394 q -0.211873,-0.0293 -0.244601,-0.23943 v -3.04374 q 0.02928,-0.21359 0.244601,-0.2446 z m -0.153306,3.04029 q 0.292832,-0.0121 0.446138,-0.18948 0.153307,-0.17742 0.158474,-0.39274 0.0069,-0.21704 -0.137803,-0.40652 -0.144694,-0.18948 -0.446139,-0.2291 h -0.694185 v 1.21784 z m 0.153306,-2.55109 h -0.826821 v 0.84922 h 0.831989 q 0.213595,-0.0224 0.316948,-0.15331 0.105075,-0.13263 0.10163,-0.28249 -0.0017,-0.15159 -0.108521,-0.27561 -0.106797,-0.12575 -0.315225,-0.13781 z"
         style="fill:#00ff00;stroke-width:0.264583"
         id="path994" />
      <path
         d="m 83.757557,119.00319 q 0.05168,-0.093 0.124023,-0.10852 0.07407,-0.0172 0.08268,-0.0172 0.124024,0 0.204983,0.1068 0.08096,0.1068 0.0086,0.25149 l -1.626082,3.04546 q -0.02067,0.0396 -0.07407,0.0827 -0.0534,0.0413 -0.141249,0.0413 -0.124023,0 -0.198092,-0.1068 -0.07235,-0.10679 -0.01378,-0.25665 z"
         style="fill:#00ff00;stroke-width:0.264583"
         id="path996" />
      <path
         d="m 87.076899,121.2425 v 0.0344 q -0.0052,0.0861 -0.0069,0.10335 -0.07235,0.5271 -0.432358,0.77859 -0.360012,0.24977 -0.768255,0.23426 -0.408243,-0.0172 -0.747584,-0.298 -0.337619,-0.28077 -0.366902,-0.8182 v -0.0344 -2.1239 q 0,-0.0517 0.01895,-0.093 0.08268,-0.18087 0.273884,-0.14297 0.192925,0.0379 0.192925,0.23599 v 2.1239 q 0.02584,0.39618 0.347954,0.59255 0.323839,0.19637 0.680405,-0.0172 0.160197,-0.0947 0.234266,-0.2446 0.07579,-0.14986 0.08957,-0.33072 v -2.1239 q 0,-0.031 0.0034,-0.0465 0.03962,-0.21187 0.260105,-0.1912 0.220485,0.0207 0.220485,0.23771 z"
         style="fill:#00ff00;stroke-width:0.264583"
         id="path998" />
    </g>
    <path
       id="rect188-5"
       style="fill:#00ff00;stroke-width:0.151795"
       transform="rotate(-45)"
       d="m -25.525206,149.78221 h 1.27 v 10.16 h -1.27 z" />
    <g
       aria-label="emer"
       id="text122-5"
       style="font-size:3.52777px;line-height:1.25;font-family:'MS 33558';-inkscape-font-specification:'MS 33558, ';fill:#00ff00;stroke-width:0.264583">
      <path
         d="m 126.81985,119.09204 h -1.42799 v 0.94223 h 1.08865 q 0.2446,0.0362 0.24288,0.24633 0,0.20842 -0.24288,0.24287 h -1.08865 v 1.13172 h 1.42799 q 0.24288,0.0362 0.24288,0.24288 0,0.2067 -0.24288,0.24115 h -1.66742 q -0.21532,-0.0276 -0.2446,-0.2446 v -3.04201 q 0.0327,-0.22738 0.2446,-0.24116 h 1.66742 q 0.24288,0.0189 0.24116,0.24288 0,0.22221 -0.24116,0.23771 z"
         style="fill:#00ff00;stroke-width:0.264583"
         id="path1002" />
      <path
         d="m 130.10991,121.89807 q -0.0379,0.24115 -0.2446,0.24115 -0.20498,-0.002 -0.24116,-0.24115 v -2.15146 l -0.59083,1.01113 q -0.0947,0.11369 -0.21187,0.11886 -0.11541,0.005 -0.20671,-0.11886 l -0.58738,-1.00596 0.002,2.14629 q -0.0276,0.23943 -0.24977,0.23943 -0.22049,-0.002 -0.23771,-0.23943 v -3.04202 q 0.0138,-0.19809 0.17398,-0.23599 0.16019,-0.0396 0.27905,0.10852 l 0.82854,1.42455 0.83716,-1.42455 q 0.11885,-0.14813 0.27561,-0.10852 0.15847,0.0396 0.17397,0.23599 z"
         style="fill:#00ff00;stroke-width:0.264583"
         id="path1004" />
      <path
         d="m 132.43535,119.09204 h -1.42799 v 0.94223 h 1.08865 q 0.2446,0.0362 0.24287,0.24633 0,0.20842 -0.24287,0.24287 h -1.08865 v 1.13172 h 1.42799 q 0.24288,0.0362 0.24288,0.24288 0,0.2067 -0.24288,0.24115 h -1.66743 q -0.21531,-0.0276 -0.2446,-0.2446 v -3.04201 q 0.0327,-0.22738 0.2446,-0.24116 h 1.66743 q 0.24288,0.0189 0.24115,0.24288 0,0.22221 -0.24115,0.23771 z"
         style="fill:#00ff00;stroke-width:0.264583"
         id="path1006" />
      <path
         d="m 135.33267,121.76543 q 0.11024,0.19465 -0.062,0.32728 -0.0827,0.0586 -0.1912,0.0396 -0.1068,-0.0189 -0.15675,-0.1068 l -0.84921,-1.34186 h -0.43064 v 1.21267 q 0,0.14986 -0.13608,0.21704 -0.13608,0.0655 -0.25494,-0.0258 -0.0947,-0.0706 -0.0947,-0.1912 v -3.04373 q 0,-0.0999 0.0689,-0.17053 0.0706,-0.0706 0.17226,-0.0706 h 1.0697 q 0.38585,0 0.67007,0.24632 0.28422,0.24461 0.35312,0.62184 0.0724,0.4048 -0.17226,0.75792 -0.24287,0.3514 -0.64595,0.42719 l -0.0327,0.005 z m -0.86472,-1.56579 q 0.1757,0 0.32384,-0.1068 0.14986,-0.1068 0.20153,-0.27905 0.081,-0.26527 -0.0741,-0.47887 -0.15502,-0.21532 -0.42719,-0.23771 h -0.84921 v 1.10243 z"
         style="fill:#00ff00;stroke-width:0.264583"
         id="path1008" />
    </g>
    <path
       id="rect188-5-8"
       style="fill:#00ff00;stroke-width:0.151795"
       transform="matrix(-0.70710678,-0.70710678,-0.70710678,0.70710678,0,0)"
       d="m -175.84474,-0.16313276 h 1.27 V 9.9968671 h -1.27 z" />
  </g>
</svg>
