<?xml version="1.0" encoding="UTF-8" standalone="no"?>
<svg
   xmlns:dc="http://purl.org/dc/elements/1.1/"
   xmlns:cc="http://creativecommons.org/ns#"
   xmlns:rdf="http://www.w3.org/1999/02/22-rdf-syntax-ns#"
   xmlns:svg="http://www.w3.org/2000/svg"
   xmlns="http://www.w3.org/2000/svg"
   xmlns:sodipodi="http://sodipodi.sourceforge.net/DTD/sodipodi-0.dtd"
   xmlns:inkscape="http://www.inkscape.org/namespaces/inkscape"
   width="210mm"
   height="297mm"
   viewBox="0 0 210 297"
   version="1.1"
   id="svg981"
   inkscape:version="1.0.2 (e86c870879, 2021-01-15, custom)"
   sodipodi:docname="Air Source Panel Top.svg">
  <defs
     id="defs975" />
  <sodipodi:namedview
     id="base"
     pagecolor="#ffffff"
     bordercolor="#666666"
     borderopacity="1.0"
     inkscape:pageopacity="0.0"
     inkscape:pageshadow="2"
     inkscape:zoom="1"
     inkscape:cx="400"
     inkscape:cy="560"
     inkscape:document-units="mm"
     inkscape:current-layer="layer1"
     inkscape:document-rotation="0"
     showgrid="false"
     inkscape:window-width="2560"
     inkscape:window-height="1361"
     inkscape:window-x="-9"
     inkscape:window-y="-9"
     inkscape:window-maximized="1" />
  <metadata
     id="metadata978">
    <rdf:RDF>
      <cc:Work
         rdf:about="">
        <dc:format>image/svg+xml</dc:format>
        <dc:type
           rdf:resource="http://purl.org/dc/dcmitype/StillImage" />
        <dc:title />
      </cc:Work>
    </rdf:RDF>
  </metadata>
  <g
     inkscape:label="Layer 1"
     inkscape:groupmode="layer"
     id="layer1">
    <g
       id="g1708">
      <path
         id="rect2069"
         style="fill:none;stroke:#000000;stroke-width:0.25;stroke-miterlimit:4;stroke-dasharray:none"
         d="m 42.158637,53.840873 v 9.24802 c 0.0146,0.22105 0.0248,0.44329 0.0248,0.66817 v 5.00021 c 0,5.49127 -4.42078,9.91206 -9.91205,9.91206 -0.0173,0 -0.0344,-0.002 -0.0517,-0.002 v 0.0372 h -9.86399 v 89.711347 h 9.864 v 0.0372 c 0.0173,-9e-5 0.0344,-0.002 0.0517,-0.002 5.49126,0 9.91206,4.42079 9.91206,9.91206 v 5.00021 c 0,0.22488 -0.0102,0.44713 -0.0248,0.66818 v 9.24801 H 173.74133 v -9.24801 c -0.0146,-0.22105 -0.0248,-0.4433 -0.0248,-0.66818 v -5.00021 c 0,-5.49127 4.4208,-9.91206 9.91206,-9.91206 0.0173,0 0.0344,0.002 0.0517,0.002 v -0.0372 h 9.864 V 78.704063 h -9.864 v -0.0372 c -0.0173,9e-5 -0.0344,0.002 -0.0517,0.002 -5.49126,0 -9.91206,-4.42079 -9.91206,-9.91206 v -5.00019 c 0,-0.22488 0.0102,-0.44713 0.0248,-0.66817 v -9.24802 z" />
      <g
         aria-label="air condition"
         id="text2165"
         style="font-size:4.93889px;line-height:1.25;font-family:'MS 33558';-inkscape-font-specification:'MS 33558, ';word-spacing:-2.64583px;fill:#00ff00;stroke-width:0.264583">
        <path
           d="m 89.889735,65.026539 -0.733117,-2.025716 -0.737939,2.025716 z m -0.733117,-2.025716 0.733117,2.025716 z m -1.86173,3.144684 q 0.385851,-1.063502 0.771702,-2.124591 0.388262,-1.063502 0.776525,-2.127003 0.07958,-0.219452 0.315915,-0.221864 0.236334,-0.0024 0.318327,0.221864 l 1.545815,4.263651 q 0.07235,0.340031 -0.207395,0.438906 -0.279742,0.09887 -0.431671,-0.202572 L 90.135715,65.70419 h -1.965428 l -0.241156,0.672827 q -0.154341,0.303857 -0.438906,0.20016 -0.284565,-0.106109 -0.195337,-0.43167 z"
           style="font-size:4.93889px;fill:#00ff00;stroke-width:0.264583"
           id="path1358" />
        <path
           d="m 92.183136,66.278143 q -0.05306,0.340031 -0.344855,0.337619 -0.289388,0 -0.340031,-0.337619 v -4.263651 q 0.05064,-0.340031 0.340031,-0.340031 0.2918,-0.0024 0.344855,0.340031 z"
           style="font-size:4.93889px;fill:#00ff00;stroke-width:0.264583"
           id="path1360" />
        <path
           d="m 95.913831,66.087629 q 0.15434,0.272507 -0.08682,0.458198 -0.115755,0.08199 -0.267684,0.05547 -0.149517,-0.02653 -0.219452,-0.149517 l -1.188903,-1.878611 h -0.602892 v 1.697743 q 0,0.209806 -0.190514,0.303858 -0.190514,0.09164 -0.356912,-0.03617 -0.132636,-0.09887 -0.132636,-0.267684 v -4.26124 q 0,-0.13987 0.09646,-0.238745 0.09887,-0.09887 0.241156,-0.09887 h 1.497584 q 0.540191,0 0.938099,0.344854 0.397909,0.342443 0.494372,0.870576 0.101286,0.566718 -0.241157,1.06109 -0.340031,0.491959 -0.904338,0.598068 l -0.04582,0.0072 z m -1.210607,-2.192115 q 0.24598,0 0.453374,-0.149517 0.209807,-0.149517 0.282154,-0.390674 0.113343,-0.371381 -0.103698,-0.670416 -0.217041,-0.301446 -0.598068,-0.332796 h -1.188903 v 1.543403 z"
           style="font-size:4.93889px;fill:#00ff00;stroke-width:0.264583"
           id="path1362" />
        <path
           d="m 102.19803,65.839237 -0.0217,0.03135 q -0.007,0.0096 -0.0121,0.01688 -0.005,0.0072 -0.01,0.01447 -0.33039,0.44614 -0.86817,0.636654 -0.53537,0.188102 -1.05626,-0.06994 -0.605307,-0.301446 -0.889872,-1.022505 -0.282154,-0.721059 -0.243569,-1.497583 0.041,-0.778937 0.409967,-1.43006 0.371381,-0.651123 1.075554,-0.81511 0.40515,-0.09405 0.80788,0.07958 0.40273,0.171221 0.66077,0.482314 0.002,0 0.0121,0.01688 0.11093,0.144694 0.0458,0.318326 -0.0651,0.171222 -0.23875,0.21463 -0.18569,0.04823 -0.34244,-0.110932 -0.32315,-0.376205 -0.62219,-0.361735 -0.29903,0.01447 -0.53536,0.24598 -0.23634,0.23151 -0.393089,0.593245 -0.156752,0.361735 -0.192925,0.677651 -0.04341,0.352088 0.0072,0.709 0.05305,0.354501 0.219449,0.668005 0.28939,0.549837 0.7283,0.689708 0.44131,0.137459 0.86093,-0.422024 0.0193,-0.02412 0.0458,-0.0627 0.22668,-0.250803 0.47749,-0.05064 0.25321,0.197748 0.0748,0.448551 z"
           style="font-size:4.93889px;fill:#00ff00;stroke-width:0.264583"
           id="path1364" />
        <path
           d="m 106.07825,63.092462 q 0.22186,0.668004 0.16639,1.386651 -0.053,0.718648 -0.39308,1.311893 -0.21463,0.36897 -0.58601,0.627008 -0.37138,0.258037 -0.81993,0.180867 -0.73071,-0.127813 -1.11897,-0.762055 -0.38826,-0.634242 -0.44614,-1.410767 -0.0555,-0.778936 0.2098,-1.516876 0.26769,-0.73794 0.85129,-1.073147 0.28456,-0.163987 0.59566,-0.163987 0.59324,0 0.96945,0.448552 0.3762,0.44614 0.57154,0.971861 z m -1.5217,-0.735528 q -0.44373,0 -0.67283,0.477491 -0.22669,0.47749 -0.28698,0.815109 -0.0458,0.24598 -0.0338,0.595657 0.0121,0.349678 0.10129,0.69212 0.0892,0.340031 0.26768,0.61495 0.17846,0.272507 0.46785,0.361735 0.33762,0.106109 0.58118,-0.132636 0.24598,-0.241157 0.37138,-0.511252 0.12782,-0.277331 0.17364,-0.728294 0.0482,-0.450963 -0.0217,-0.899514 -0.0675,-0.450964 -0.26768,-0.810287 -0.20016,-0.361735 -0.56913,-0.460609 -0.0482,-0.01447 -0.11093,-0.01447 z"
           style="font-size:4.93889px;fill:#00ff00;stroke-width:0.264583"
           id="path1366" />
        <path
           d="m 110.22373,66.278143 q 0,0.253214 -0.24598,0.32315 -0.24357,0.06752 -0.37862,-0.144694 l -2.02571,-3.248382 v 3.069926 q -0.0531,0.337619 -0.34244,0.337619 -0.28698,0 -0.33762,-0.337619 v -4.258828 q 0.0362,-0.250803 0.25562,-0.330385 0.22187,-0.07958 0.36897,0.149517 l 2.02572,3.253205 v -3.072337 q 0.0458,-0.344854 0.34968,-0.340031 0.30627,0.0024 0.33038,0.340031 z"
           style="font-size:4.93889px;fill:#00ff00;stroke-width:0.264583"
           id="path1368" />
        <path
           d="m 111.25347,61.672049 h 1.13585 q 0.84646,0 1.26848,0.771702 0.42203,0.771701 0.42203,1.697743 0,0.926042 -0.42444,1.697743 -0.42202,0.771702 -1.26607,0.771702 h -1.13585 0.005 -0.005 q -0.0796,-0.01206 -0.0868,-0.01447 -0.2508,-0.06029 -0.24839,-0.327974 h -0.002 l 0.002,-4.258828 q -0.002,-0.0072 -0.002,-0.01929 0.007,-0.132636 0.1037,-0.224276 0.0989,-0.09405 0.23633,-0.09405 z m 1.13585,4.258828 q 0.005,0 0.01,0 0.005,0 0.0121,0 0.005,0 0.007,0 0.005,-0.0024 0.0121,-0.0024 0.005,0 0.01,0 0.007,-0.0024 0.0145,-0.0024 0.005,0 0.01,0 0.005,-0.0024 0.0121,-0.0024 0.005,0 0.01,0 0.005,-0.0024 0.0121,-0.0024 0.01,-0.0048 0.0193,-0.0048 0.005,0 0.01,-0.0024 0.005,-0.0048 0.0121,-0.0072 0.005,0 0.01,0 0.007,-0.0024 0.0145,-0.0048 0.005,0 0.01,-0.0024 0.005,-0.0024 0.0121,-0.0048 0.0145,-0.0048 0.0217,-0.0096 0.0434,-0.01447 0.0241,-0.0096 0.005,0 0.01,-0.0024 0.005,-0.0048 0.0121,-0.0072 0.0217,-0.01447 0.0193,-0.01206 0.0241,-0.01206 0.0241,-0.01206 0.005,-0.0024 0.01,-0.0048 0.005,-0.0048 0.0121,-0.0096 0.0217,-0.01447 0.0217,-0.01447 0.005,-0.0024 0.01,-0.0048 0.007,-0.0048 0.0145,-0.0096 0.005,-0.0024 0.01,-0.0072 0.005,-0.0048 0.012,-0.0096 0.005,-0.0024 0.01,-0.0048 0.005,-0.0048 0.0121,-0.0096 0.005,-0.0048 0.0241,-0.01929 0.0193,-0.01929 0.0193,-0.01929 0.005,-0.0048 0.01,-0.0096 0.005,-0.0048 0.0121,-0.01206 0.005,-0.0048 0.01,-0.0096 0.005,-0.0048 0.0121,-0.01206 0.007,-0.0048 0.0217,-0.01929 0.005,-0.0048 0.01,-0.0096 0.005,-0.0048 0.0121,-0.01206 0.005,-0.0048 0.01,-0.0096 0.005,-0.0072 0.0121,-0.01447 0.0289,-0.03858 0.0193,-0.02412 0.0169,-0.01688 0.0217,-0.02653 0.0217,-0.02894 0.0193,-0.02653 0.005,-0.0072 0.01,-0.01206 0.005,-0.0072 0.0121,-0.01447 0.005,-0.0072 0.007,-0.01447 0.005,-0.0072 0.0121,-0.01447 0.002,-0.0072 0.007,-0.01447 0.007,-0.0096 0.0121,-0.01688 0.0145,-0.01929 0.0193,-0.02894 0.005,-0.0072 0.007,-0.01447 0.005,-0.0096 0.0121,-0.01688 0.005,-0.0072 0.007,-0.01447 0.005,-0.0096 0.0121,-0.01688 0.005,-0.01206 0.0145,-0.03135 0.005,-0.0072 0.007,-0.01688 0.005,-0.0096 0.0121,-0.01929 0.005,-0.0072 0.007,-0.01447 0.005,-0.0096 0.0121,-0.01929 0.002,-0.0072 0.005,-0.01688 0.005,-0.0096 0.01,-0.01929 0.007,-0.01206 0.0169,-0.03617 0.0241,-0.06029 0.0169,-0.03859 0.002,-0.0072 0.005,-0.01688 0.005,-0.01206 0.01,-0.0217 0.002,-0.0096 0.005,-0.01929 0.005,-0.0096 0.01,-0.0217 0.007,-0.0217 0.0121,-0.03859 0.002,-0.0096 0.005,-0.01929 0.005,-0.0096 0.01,-0.0217 -0.01,0.02412 0.0121,-0.041 0.005,-0.01206 0.0145,-0.041 0,-0.0096 0.002,-0.01929 0.005,-0.01206 0.007,-0.02412 0.002,-0.0096 0.005,-0.01929 0.002,-0.01206 0.007,-0.02412 0,-0.0072 0.002,-0.01688 0.005,-0.01206 0.007,-0.02412 0.002,-0.01688 0.007,-0.04582 0,-0.0096 0.002,-0.01929 0.005,-0.01206 0.007,-0.02412 0,-0.0096 0.002,-0.01929 0.002,-0.01206 0.005,-0.02411 0.002,-0.01688 0.007,-0.04582 0,-0.0096 0.002,-0.0217 0.005,-0.01206 0.007,-0.02412 0,-0.01688 0.005,-0.04582 0,-0.0096 0,-0.01929 0.002,-0.01206 0.005,-0.02653 0.005,-0.02894 0.005,-0.04582 0.002,-0.01688 0.002,-0.04582 0.002,-0.01688 0.002,-0.04823 0.002,-0.01688 0.002,-0.04582 0,-0.01206 0,-0.0217 0.002,-0.01206 0.005,-0.02653 0,-0.0096 0,-0.01929 0.002,-0.01206 0.002,-0.02653 0,-0.0096 0,-0.0217 0,-0.01206 0,-0.02412 0,-0.01206 0,-0.0217 0,-0.01206 0,-0.02412 0,-0.01206 -0.002,-0.0217 0,-0.01206 0,-0.02653 0,-0.0096 0,-0.0217 0,-0.01206 0,-0.02412 0,-0.01447 -0.005,-0.04823 0,-0.02894 -0.002,-0.04341 0,-0.01688 -0.005,-0.05064 0,-0.02894 -0.002,-0.04341 0,-0.01688 -0.005,-0.04582 -0.002,-0.0096 -0.005,-0.0217 0,-0.01206 0,-0.02412 -0.005,-0.02894 -0.01,-0.04582 -0.002,-0.0096 -0.005,-0.01929 -0.002,-0.01206 -0.002,-0.02412 -0.002,-0.01688 -0.007,-0.04582 -0.002,-0.01688 -0.007,-0.04582 -0.01,-0.02894 -0.0121,-0.04341 -0.005,-0.02894 -0.007,-0.041 -0.005,-0.0096 -0.007,-0.01929 -0.002,-0.01206 -0.005,-0.02412 -0.002,-0.0096 -0.007,-0.01929 -0.005,-0.01206 -0.005,-0.02412 -0.0217,-0.06511 -0.0121,-0.041 -0.005,-0.01688 -0.0121,-0.041 -0.005,-0.0072 -0.01,-0.01688 -0.002,-0.01206 -0.005,-0.0217 -0.002,-0.0072 -0.0145,-0.041 -0.01,-0.02412 -0.0145,-0.03858 -0.005,-0.0072 -0.01,-0.01688 -0.002,-0.01206 -0.005,-0.0217 -0.005,-0.0072 -0.01,-0.01688 -0.005,-0.0096 -0.007,-0.01929 -0.01,-0.02412 -0.0169,-0.03617 -0.01,-0.02412 -0.0145,-0.03376 -0.01,-0.02412 -0.0169,-0.03617 -0.005,-0.0072 -0.01,-0.01447 -0.005,-0.0096 -0.007,-0.01688 -0.0145,-0.02412 -0.0193,-0.03376 -0.0217,-0.03376 -0.0193,-0.03135 -0.007,-0.0072 -0.0121,-0.01447 -0.002,-0.0096 -0.007,-0.01688 -0.005,-0.0096 -0.0193,-0.02894 -0.005,-0.0072 -0.01,-0.01447 -0.005,-0.0072 -0.007,-0.01447 -0.0121,-0.0217 -0.041,-0.05547 -0.005,-0.0048 -0.0386,-0.05306 -0.0289,-0.03376 -0.0434,-0.04823 -0.0145,-0.01688 -0.0434,-0.04582 -0.0193,-0.0217 -0.041,-0.041 -0.0169,-0.01206 -0.0458,-0.03617 -0.0241,-0.01929 -0.0458,-0.03617 -0.0555,-0.03617 -0.0458,-0.03135 -0.0482,-0.02894 -0.0434,-0.02653 0,0 -0.0434,-0.0217 -0.01,-0.0048 -0.0458,-0.01688 -0.0314,-0.01206 -0.0458,-0.01688 -0.0121,-0.0024 -0.0217,-0.0048 -0.01,-0.0048 -0.0193,-0.0096 -0.0434,-0.0072 -0.0434,-0.0072 -0.0145,-0.0024 -0.0434,-0.0024 -0.007,0 -0.0121,0 -0.005,0 -0.01,0 h -0.79582 v 3.578766 0 z"
           style="font-size:4.93889px;fill:#00ff00;stroke-width:0.264583"
           id="path1370" />
        <path
           d="m 115.37966,66.278143 q -0.053,0.340031 -0.34485,0.337619 -0.28939,0 -0.34003,-0.337619 v -4.263651 q 0.0506,-0.340031 0.34003,-0.340031 0.2918,-0.0024 0.34485,0.340031 z"
           style="font-size:4.93889px;fill:#00ff00;stroke-width:0.264583"
           id="path1372" />
        <path
           d="m 117.28721,66.27332 v -3.921209 h -0.88504 q -0.33762,-0.02653 -0.33762,-0.337619 0.002,-0.313504 0.33762,-0.342443 h 2.44774 q 0.33279,0.02653 0.33279,0.342443 0.002,0.313503 -0.33279,0.337619 h -0.88264 v 3.921209 q -0.0555,0.342442 -0.35691,0.337619 -0.29903,-0.0048 -0.32315,-0.337619 z"
           style="font-size:4.93889px;fill:#00ff00;stroke-width:0.264583"
           id="path1374" />
        <path
           d="m 120.58865,66.278143 q -0.0531,0.340031 -0.34486,0.337619 -0.28938,0 -0.34003,-0.337619 v -4.263651 q 0.0506,-0.340031 0.34003,-0.340031 0.2918,-0.0024 0.34486,0.340031 z"
           style="font-size:4.93889px;fill:#00ff00;stroke-width:0.264583"
           id="path1376" />
        <path
           d="m 124.48092,63.092462 q 0.22186,0.668004 0.1664,1.386651 -0.0531,0.718648 -0.39309,1.311893 -0.21463,0.36897 -0.58601,0.627008 -0.37138,0.258037 -0.81993,0.180867 -0.73071,-0.127813 -1.11897,-0.762055 -0.38826,-0.634242 -0.44614,-1.410767 -0.0555,-0.778936 0.20981,-1.516876 0.26768,-0.73794 0.85128,-1.073147 0.28456,-0.163987 0.59566,-0.163987 0.59324,0 0.96945,0.448552 0.3762,0.44614 0.57154,0.971861 z m -1.5217,-0.735528 q -0.44373,0 -0.67283,0.477491 -0.22669,0.47749 -0.28698,0.815109 -0.0458,0.24598 -0.0338,0.595657 0.0121,0.349678 0.10129,0.69212 0.0892,0.340031 0.26768,0.61495 0.17846,0.272507 0.46785,0.361735 0.33762,0.106109 0.58118,-0.132636 0.24598,-0.241157 0.37139,-0.511252 0.12781,-0.277331 0.17363,-0.728294 0.0482,-0.450963 -0.0217,-0.899514 -0.0675,-0.450964 -0.26768,-0.810287 -0.20016,-0.361735 -0.56913,-0.460609 -0.0482,-0.01447 -0.11093,-0.01447 z"
           style="font-size:4.93889px;fill:#00ff00;stroke-width:0.264583"
           id="path1378" />
        <path
           d="m 128.6264,66.278143 q 0,0.253214 -0.24598,0.32315 -0.24357,0.06752 -0.37861,-0.144694 l -2.02572,-3.248382 v 3.069926 q -0.053,0.337619 -0.34244,0.337619 -0.28698,0 -0.33762,-0.337619 v -4.258828 q 0.0362,-0.250803 0.25562,-0.330385 0.22187,-0.07958 0.36897,0.149517 l 2.02572,3.253205 v -3.072337 q 0.0458,-0.344854 0.34968,-0.340031 0.30627,0.0024 0.33038,0.340031 z"
           style="font-size:4.93889px;fill:#00ff00;stroke-width:0.264583"
           id="path1380" />
      </g>
      <g
         aria-label="air source"
         id="text2165-2"
         style="font-size:4.23333px;line-height:1.25;font-family:'MS 33558';-inkscape-font-specification:'MS 33558, ';word-spacing:-2.64583px;fill:#00ff00;stroke-width:0.264583">
        <path
           d="m 145.40543,76.563812 -0.62838,-1.736327 -0.63252,1.736327 z m -0.62838,-1.736327 0.62838,1.736327 z m -1.59577,2.695441 q 0.33073,-0.911572 0.66146,-1.821076 0.33279,-0.911572 0.66559,-1.823143 0.0682,-0.188102 0.27078,-0.190169 0.20257,-0.0021 0.27285,0.190169 l 1.32499,3.654554 q 0.062,0.291455 -0.17777,0.376204 -0.23978,0.08475 -0.37,-0.173633 l -0.21291,-0.591178 h -1.68465 l -0.20671,0.576709 q -0.13229,0.260449 -0.3762,0.171566 -0.24391,-0.09095 -0.16743,-0.370003 z"
           style="font-size:4.23333px;fill:#00ff00;stroke-width:0.264583"
           id="path1383" />
        <path
           d="m 147.3712,77.636614 q -0.0455,0.291455 -0.29559,0.289387 -0.24805,0 -0.29145,-0.289387 v -3.654555 q 0.0434,-0.291454 0.29145,-0.291454 0.25011,-0.0021 0.29559,0.291454 z"
           style="font-size:4.23333px;fill:#00ff00;stroke-width:0.264583"
           id="path1385" />
        <path
           d="m 150.56894,77.473316 q 0.13229,0.233578 -0.0744,0.392741 -0.0992,0.07028 -0.22944,0.04754 -0.12816,-0.02274 -0.1881,-0.128157 l -1.01906,-1.610237 h -0.51677 v 1.455208 q 0,0.179833 -0.16329,0.260449 -0.1633,0.07855 -0.30593,-0.03101 -0.11369,-0.08475 -0.11369,-0.229443 v -3.652488 q 0,-0.119889 0.0827,-0.204638 0.0847,-0.08475 0.2067,-0.08475 h 1.28364 q 0.46302,0 0.80409,0.295589 0.34106,0.293521 0.42374,0.746207 0.0868,0.485758 -0.2067,0.909504 -0.29146,0.421679 -0.77515,0.51263 l -0.0393,0.0062 z m -1.03767,-1.878953 q 0.21084,0 0.38861,-0.128158 0.17983,-0.128157 0.24185,-0.334863 0.0971,-0.318326 -0.0889,-0.574641 -0.18603,-0.258382 -0.51263,-0.285254 h -1.01906 v 1.322916 z"
           style="font-size:4.23333px;fill:#00ff00;stroke-width:0.264583"
           id="path1387" />
        <path
           d="m 154.9945,75.668777 0.0331,0.01447 0.0372,0.0186 0.0331,0.0186 q 0.0145,0.01033 0.031,0.02067 0.0186,0.0083 0.0351,0.0186 0.40928,0.268717 0.50643,0.74414 0.0372,0.186035 0.0165,0.382406 -0.0331,0.281119 -0.19844,0.520898 -0.1633,0.237711 -0.41135,0.367935 -0.26665,0.14056 -0.5519,0.14056 -0.47956,0 -0.9157,-0.121956 -0.43615,-0.124023 -0.62219,-0.659391 -0.0248,-0.06821 -0.0372,-0.14056 -0.0124,-0.07235 -0.0289,-0.144693 -0.031,-0.148828 0.0723,-0.262517 0.10542,-0.113688 0.26045,-0.08682 0.1633,0.03307 0.22738,0.202572 l 0.006,0.0186 q 0.0992,0.448551 0.3452,0.535367 0.24804,0.08682 0.68833,0.07855 0.40514,0 0.55603,-0.380339 0.0661,-0.169498 0.0207,-0.351399 -0.0455,-0.183968 -0.17984,-0.305924 -0.0599,-0.05168 -0.15709,-0.09715 l -0.95705,-0.419612 -0.031,-0.01654 q -0.46922,-0.248046 -0.58291,-0.704866 -0.13849,-0.529166 0.19224,-0.948778 0.3328,-0.421679 0.8723,-0.421679 l 0.22737,0.0062 q 0.11162,0.02067 0.21498,0.04134 0.10335,0.0186 0.20877,0.06615 0.26045,0.121956 0.39894,0.334863 0.13849,0.212906 0.25011,0.460953 0.0103,0.02274 0.0186,0.05374 0.0227,0.101286 -0.0207,0.183968 -0.0248,0.05168 -0.0517,0.07855 -0.0269,0.02687 -0.0434,0.03721 -0.10748,0.07648 -0.23564,0.04547 -0.12816,-0.02894 -0.19637,-0.165365 -0.0537,-0.119889 -0.11576,-0.243912 -0.0599,-0.126091 -0.1695,-0.208773 -0.0455,-0.03307 -0.0889,-0.04754 -0.0413,-0.01654 -0.093,-0.03514 l -0.13435,-0.02274 -0.19017,-0.0062 q -0.27699,0.0041 -0.42375,0.239779 -0.0992,0.150895 -0.0744,0.33693 0.0289,0.229443 0.21497,0.355533 0.008,0.0062 0.0186,0.01447 0.0103,0.0062 0.0227,0.0124 l 0.0227,0.01033 0.0248,0.01033 z"
           style="font-size:4.23333px;fill:#00ff00;stroke-width:0.264583"
           id="path1389" />
        <path
           d="m 158.95498,74.906033 q 0.19017,0.572575 0.14263,1.188557 -0.0455,0.615983 -0.33693,1.124478 -0.18397,0.31626 -0.5023,0.537435 -0.31832,0.221175 -0.7028,0.155029 -0.62631,-0.109554 -0.95911,-0.653189 -0.3328,-0.543636 -0.3824,-1.209228 -0.0476,-0.667659 0.17983,-1.300178 0.22944,-0.632519 0.72967,-0.91984 0.24391,-0.140559 0.51056,-0.140559 0.5085,0 0.83096,0.384472 0.32246,0.382405 0.48989,0.833023 z m -1.30431,-0.630452 q -0.38034,0 -0.57671,0.409277 -0.1943,0.409277 -0.24598,0.698665 -0.0393,0.21084 -0.0289,0.510563 0.0103,0.299723 0.0868,0.593245 0.0765,0.291455 0.22944,0.527099 0.15296,0.233577 0.40101,0.310058 0.28939,0.09095 0.49816,-0.113688 0.21084,-0.206705 0.31833,-0.438216 0.10955,-0.237711 0.14883,-0.62425 0.0413,-0.38654 -0.0186,-0.771012 -0.0579,-0.386539 -0.22944,-0.694531 -0.17157,-0.310058 -0.48783,-0.394807 -0.0413,-0.0124 -0.0951,-0.0124 z"
           style="font-size:4.23333px;fill:#00ff00;stroke-width:0.264583"
           id="path1391" />
        <path
           d="m 162.44004,76.526605 v 0.04134 q -0.006,0.103353 -0.008,0.124023 -0.0868,0.632519 -0.51883,0.934309 -0.43202,0.299723 -0.92191,0.28112 -0.48989,-0.02067 -0.8971,-0.357601 -0.40515,-0.33693 -0.44029,-0.981851 v -0.04134 -2.54868 q 0,-0.06201 0.0227,-0.111621 0.0992,-0.21704 0.32866,-0.171565 0.23151,0.04547 0.23151,0.283186 v 2.54868 q 0.031,0.475423 0.41755,0.711067 0.38861,0.235644 0.81649,-0.02067 0.19223,-0.113688 0.28112,-0.293521 0.0909,-0.179834 0.10748,-0.396875 v -2.54868 q 0,-0.03721 0.004,-0.05581 0.0475,-0.254248 0.31212,-0.229443 0.26459,0.0248 0.26459,0.285253 z"
           style="font-size:4.23333px;fill:#00ff00;stroke-width:0.264583"
           id="path1393" />
        <path
           d="m 165.55509,77.473316 q 0.13229,0.233578 -0.0744,0.392741 -0.0992,0.07028 -0.22944,0.04754 -0.12816,-0.02274 -0.1881,-0.128157 l -1.01906,-1.610237 h -0.51676 v 1.455208 q 0,0.179833 -0.1633,0.260449 -0.1633,0.07855 -0.30592,-0.03101 -0.11369,-0.08475 -0.11369,-0.229443 v -3.652488 q 0,-0.119889 0.0827,-0.204638 0.0847,-0.08475 0.2067,-0.08475 h 1.28365 q 0.46302,0 0.80408,0.295589 0.34107,0.293521 0.42375,0.746207 0.0868,0.485758 -0.20671,0.909504 -0.29145,0.421679 -0.77514,0.51263 l -0.0393,0.0062 z m -1.03766,-1.878953 q 0.21084,0 0.3886,-0.128158 0.17984,-0.128157 0.24185,-0.334863 0.0972,-0.318326 -0.0889,-0.574641 -0.18603,-0.258382 -0.51262,-0.285254 h -1.01906 v 1.322916 z"
           style="font-size:4.23333px;fill:#00ff00;stroke-width:0.264583"
           id="path1395" />
        <path
           d="m 168.97607,77.26041 -0.0186,0.02687 q -0.006,0.0083 -0.0103,0.01447 -0.004,0.0062 -0.008,0.0124 -0.28319,0.382405 -0.74414,0.545703 -0.45889,0.16123 -0.90537,-0.05994 -0.51883,-0.258382 -0.76275,-0.876431 -0.24184,-0.61805 -0.20877,-1.283642 0.0351,-0.667659 0.3514,-1.225764 0.31833,-0.558105 0.92191,-0.698665 0.34726,-0.08061 0.69246,0.06821 0.3452,0.146761 0.56637,0.413411 0.002,0 0.0103,0.01447 0.0951,0.124023 0.0393,0.272851 -0.0558,0.146761 -0.20463,0.183968 -0.15917,0.04134 -0.29353,-0.09508 -0.27698,-0.32246 -0.5333,-0.310058 -0.25631,0.0124 -0.45888,0.21084 -0.20257,0.198437 -0.33693,0.508495 -0.13436,0.310059 -0.16537,0.580843 -0.0372,0.30179 0.006,0.607714 0.0455,0.303857 0.18811,0.572575 0.24804,0.471288 0.62425,0.591178 0.37827,0.117822 0.73794,-0.361735 0.0165,-0.02067 0.0393,-0.05374 0.1943,-0.214973 0.40928,-0.04341 0.21704,0.169499 0.0641,0.384473 z"
           style="font-size:4.23333px;fill:#00ff00;stroke-width:0.264583"
           id="path1397" />
        <path
           d="m 171.84721,74.265246 h -1.71359 v 1.130679 H 171.44 q 0.29352,0.04341 0.29145,0.295589 0,0.250114 -0.29145,0.291455 h -1.30638 v 1.358056 h 1.71359 q 0.29145,0.04341 0.29145,0.291455 0,0.248046 -0.29145,0.289387 h -2.00091 q -0.25839,-0.03307 -0.29353,-0.293522 v -3.65042 q 0.0393,-0.272851 0.29353,-0.289387 h 2.00091 q 0.29145,0.02274 0.28938,0.291454 0,0.266651 -0.28938,0.285254 z"
           style="font-size:4.23333px;fill:#00ff00;stroke-width:0.264583"
           id="path1399" />
      </g>
      <path
         id="path2191"
         style="fill:#ff0000;stroke:none;stroke-width:0.185979"
         d="m 168.82581,177.05971 a 8,8 0 0 1 -8,8 8,8 0 0 1 -8,-8 8,8 0 0 1 8,-8 8,8 0 0 1 8,8 z" />
      <path
         id="path2191-6"
         style="fill:#ff0000;stroke:none;stroke-width:0.185979"
         d="m 168.82581,155.75975 a 8,8 0 0 1 -8,8 8,8 0 0 1 -8,-8 8,8 0 0 1 8,-8 8,8 0 0 1 8,8 z" />
      <path
         id="path2191-3"
         style="fill:#ff0000;stroke:none;stroke-width:0.185979"
         d="m 168.82581,91.859734 a 8,8 0 0 1 -8,8 8,8 0 0 1 -8,-8 8,8 0 0 1 8,-8 8,8 0 0 1 8,8 z" />
      <path
         id="path2191-35"
         style="fill:#ff0000;stroke:none;stroke-width:0.185979"
         d="m 168.82581,113.15972 a 8,8 0 0 1 -8,8 8,8 0 0 1 -8,-8 8,8 0 0 1 8,-8 8,8 0 0 1 8,8 z" />
      <path
         id="path2191-1"
         style="fill:#ff0000;stroke:none;stroke-width:0.185979"
         d="m 168.82581,134.45973 a 8,8 0 0 1 -8,8 8,8 0 0 1 -8,-8 8,8 0 0 1 8,-8 8,8 0 0 1 8,8 z" />
      <path
         id="rect1894"
         style="fill:#ff0000;stroke-width:0.106749;stroke-miterlimit:4;stroke-dasharray:none"
         d="m 54.900364,155.25238 h 44.450001 v 12.7 H 54.900364 Z" />
      <g
         aria-label="temp"
         id="text1898"
         style="font-size:9.87777px;line-height:1.25;font-family:'MS 33558';-inkscape-font-specification:'MS 33558, ';fill:#00ff00;stroke-width:0.264583">
        <path
           d="m 70.858308,138.37147 v -3.92121 h -0.885046 q -0.337619,-0.0265 -0.337619,-0.33762 0.0024,-0.3135 0.337619,-0.34244 h 2.447741 q 0.332797,0.0265 0.332797,0.34244 0.0024,0.31351 -0.332797,0.33762 H 71.53837 v 3.92121 q -0.05547,0.34244 -0.356912,0.33762 -0.299035,-0.005 -0.32315,-0.33762 z"
           style="font-size:4.93889px;fill:#00ff00;stroke-width:0.264583"
           id="path1408" />
        <path
           d="m 76.151698,134.44303 h -1.999189 v 1.31913 h 1.52411 q 0.342443,0.0506 0.340031,0.34485 0,0.2918 -0.340031,0.34003 h -1.52411 v 1.5844 h 1.999189 q 0.340031,0.0506 0.340031,0.34003 0,0.28939 -0.340031,0.33762 h -2.334397 q -0.301446,-0.0386 -0.342443,-0.34244 v -4.25883 q 0.04582,-0.31833 0.342443,-0.33762 h 2.334397 q 0.340031,0.0265 0.33762,0.34003 0,0.31109 -0.33762,0.3328 z"
           style="font-size:4.93889px;fill:#00ff00;stroke-width:0.264583"
           id="path1410" />
        <path
           d="m 80.757792,138.37147 q -0.05306,0.33762 -0.342443,0.33762 -0.286976,-0.002 -0.337619,-0.33762 v -3.01205 l -0.827168,1.41559 q -0.132636,0.15917 -0.296623,0.1664 -0.161575,0.007 -0.289388,-0.1664 l -0.822344,-1.40835 0.0024,3.00481 q -0.03858,0.33521 -0.349677,0.33521 -0.308681,-0.002 -0.332796,-0.33521 v -4.25883 q 0.01929,-0.27733 0.243568,-0.33038 0.224276,-0.0555 0.390674,0.15193 l 1.159964,1.99436 1.172022,-1.99436 q 0.166398,-0.2074 0.38585,-0.15193 0.221865,0.0555 0.243569,0.33038 z"
           style="font-size:4.93889px;fill:#00ff00;stroke-width:0.264583"
           id="path1412" />
        <path
           d="m 83.191063,133.7702 h 0.04582 q 0.308681,0.0217 0.56913,0.13987 0.499194,0.23392 0.706589,0.76929 0.207395,0.53537 -0.0048,1.04421 -0.171221,0.40273 -0.506429,0.63183 -0.335208,0.22669 -0.764467,0.25322 l -0.04582,0.002 h -1.172022 v 1.75803 q -0.04341,0.34003 -0.342442,0.34003 -0.299034,0 -0.340031,-0.34003 v -4.26124 q 0.03617,-0.29903 0.318327,-0.33762 h 0.0217 z m 0,0.68006 h -1.172022 v 1.47829 h 1.172022 q 0.274919,0 0.484725,-0.18328 0.212218,-0.18327 0.248392,-0.45819 0.04341,-0.3328 -0.178456,-0.5836 -0.221865,-0.25322 -0.554661,-0.25322 z"
           style="font-size:4.93889px;fill:#00ff00;stroke-width:0.264583"
           id="path1414" />
      </g>
      <path
         id="path1900"
         style="fill:#00ff00;stroke-width:0.25;stroke-miterlimit:4;stroke-dasharray:none"
         inkscape:transform-center-y="1.190624"
         d="m 77.125366,150.22476 -2.062223,-3.57187 -2.062223,-3.57187 4.124446,0 4.124446,-1e-5 -2.062223,3.57188 z" />
      <g
         aria-label="cool"
         id="text1904"
         style="font-size:9.87777px;line-height:1.25;font-family:'MS 33558';-inkscape-font-specification:'MS 33558, ';fill:#00ff00;stroke-width:0.264583">
        <path
           d="m 46.027636,150.88824 -0.0186,0.0269 q -0.0062,0.008 -0.01034,0.0145 -0.0041,0.006 -0.0083,0.0124 -0.283186,0.38241 -0.74414,0.54571 -0.458886,0.16123 -0.90537,-0.0599 -0.518831,-0.25838 -0.762744,-0.87643 -0.241845,-0.61805 -0.208772,-1.28364 0.03514,-0.66766 0.351399,-1.22577 0.318327,-0.5581 0.921907,-0.69866 0.347265,-0.0806 0.692464,0.0682 0.345198,0.14676 0.566373,0.41341 0.0021,0 0.01033,0.0145 0.09508,0.12403 0.03927,0.27285 -0.05581,0.14677 -0.204638,0.18397 -0.159164,0.0413 -0.293522,-0.0951 -0.276986,-0.32246 -0.533301,-0.31006 -0.256314,0.0124 -0.458886,0.21084 -0.202571,0.19844 -0.33693,0.50849 -0.134359,0.31006 -0.165364,0.58085 -0.03721,0.30179 0.0062,0.60771 0.04548,0.30386 0.188102,0.57258 0.248047,0.47128 0.624251,0.59117 0.378271,0.11783 0.737938,-0.36173 0.01654,-0.0207 0.03928,-0.0537 0.194303,-0.21498 0.409277,-0.0434 0.21704,0.1695 0.06408,0.38447 z"
           style="font-size:4.23333px;fill:#00ff00;stroke-width:0.264583"
           id="path1418" />
        <path
           d="m 49.353529,148.53386 q 0.190169,0.57258 0.142627,1.18856 -0.04548,0.61598 -0.33693,1.12448 -0.183968,0.31626 -0.502295,0.53743 -0.318327,0.22118 -0.702799,0.15503 -0.626318,-0.10955 -0.959114,-0.65319 -0.332796,-0.54363 -0.382405,-1.20922 -0.04754,-0.66766 0.179834,-1.30018 0.229443,-0.63252 0.729671,-0.91984 0.243912,-0.14056 0.510562,-0.14056 0.508496,0 0.830957,0.38447 0.32246,0.38241 0.489892,0.83302 z m -1.304312,-0.63045 q -0.380339,0 -0.576709,0.40928 -0.194303,0.40928 -0.245979,0.69866 -0.03927,0.21084 -0.02894,0.51057 0.01034,0.29972 0.08682,0.59324 0.07648,0.29146 0.229443,0.5271 0.152962,0.23358 0.401009,0.31006 0.289388,0.091 0.49816,-0.11369 0.21084,-0.2067 0.318327,-0.43822 0.109554,-0.23771 0.148828,-0.62425 0.04134,-0.38654 -0.0186,-0.77101 -0.05788,-0.38654 -0.229444,-0.69453 -0.171565,-0.31006 -0.487825,-0.39481 -0.04134,-0.0124 -0.09508,-0.0124 z"
           style="font-size:4.23333px;fill:#00ff00;stroke-width:0.264583"
           id="path1420" />
        <path
           d="m 52.801378,148.53386 q 0.190169,0.57258 0.142626,1.18856 -0.04547,0.61598 -0.33693,1.12448 -0.183968,0.31626 -0.502294,0.53743 -0.318327,0.22118 -0.702799,0.15503 -0.626318,-0.10955 -0.959114,-0.65319 -0.332796,-0.54363 -0.382405,-1.20922 -0.04754,-0.66766 0.179834,-1.30018 0.229443,-0.63252 0.72967,-0.91984 0.243913,-0.14056 0.510563,-0.14056 0.508496,0 0.830956,0.38447 0.322461,0.38241 0.489893,0.83302 z m -1.304313,-0.63045 q -0.380338,0 -0.576708,0.40928 -0.194303,0.40928 -0.24598,0.69866 -0.03927,0.21084 -0.02894,0.51057 0.01033,0.29972 0.08682,0.59324 0.07648,0.29146 0.229443,0.5271 0.152962,0.23358 0.401009,0.31006 0.289388,0.091 0.49816,-0.11369 0.21084,-0.2067 0.318327,-0.43822 0.109554,-0.23771 0.148828,-0.62425 0.04134,-0.38654 -0.0186,-0.77101 -0.05788,-0.38654 -0.229443,-0.69453 -0.171565,-0.31006 -0.487825,-0.39481 -0.04134,-0.0124 -0.09508,-0.0124 z"
           style="font-size:4.23333px;fill:#00ff00;stroke-width:0.264583"
           id="path1422" />
        <path
           d="m 53.793564,151.55176 q -0.254248,-0.0165 -0.293522,-0.28732 v -3.65455 q 0.04341,-0.29766 0.30179,-0.29145 0.258382,0.004 0.28112,0.29145 v 3.36517 l 1.907892,-0.002 q 0.293522,0.0331 0.289388,0.29766 -0.0021,0.26251 -0.291455,0.28111 z"
           style="font-size:4.23333px;fill:#00ff00;stroke-width:0.264583"
           id="path1424" />
      </g>
      <g
         aria-label="warm"
         id="text1904-3"
         style="font-size:9.87777px;line-height:1.25;font-family:'MS 33558';-inkscape-font-specification:'MS 33558, ';fill:#00ff00;stroke-width:0.264583">
        <path
           d="m 99.854387,147.54646 0.723473,2.4722 0.48369,-2.4722 q 0.0868,-0.27905 0.339,-0.22738 0.25424,0.0517 0.23357,0.33693 l -0.7152,3.65042 q -0.0661,0.22945 -0.27078,0.23771 -0.20257,0.008 -0.29353,-0.20877 l -0.781342,-2.6665 -0.775146,2.6665 q -0.09508,0.22324 -0.291455,0.20877 -0.19637,-0.0145 -0.276985,-0.23771 l -0.715201,-3.65042 q 0,-0.29559 0.235644,-0.33899 0.235644,-0.0455 0.343131,0.22944 l 0.47749,2.47633 0.723469,-2.47633 q 0.08888,-0.20464 0.283187,-0.21084 0.19637,-0.006 0.276985,0.21084 z"
           style="font-size:4.23333px;fill:#00ff00;stroke-width:0.264583"
           id="path1427" />
        <path
           d="m 104.27375,150.18609 -0.62838,-1.73633 -0.63252,1.73633 z m -0.62838,-1.73633 0.62838,1.73633 z m -1.59577,2.69544 q 0.33073,-0.91157 0.66146,-1.82107 0.33279,-0.91158 0.66559,-1.82315 0.0682,-0.1881 0.27078,-0.19017 0.20258,-0.002 0.27286,0.19017 l 1.32498,3.65456 q 0.062,0.29145 -0.17777,0.3762 -0.23978,0.0847 -0.37,-0.17363 l -0.21291,-0.59118 h -1.68465 l -0.2067,0.57671 q -0.1323,0.26045 -0.37621,0.17156 -0.24391,-0.0909 -0.16743,-0.37 z"
           style="font-size:4.23333px;fill:#00ff00;stroke-width:0.264583"
           id="path1429" />
        <path
           d="m 108.26317,151.09559 q 0.13229,0.23358 -0.0744,0.39274 -0.0992,0.0703 -0.22945,0.0476 -0.12816,-0.0227 -0.1881,-0.12816 l -1.01906,-1.61024 h -0.51676 v 1.45521 q 0,0.17983 -0.1633,0.26045 -0.1633,0.0786 -0.30592,-0.031 -0.11369,-0.0848 -0.11369,-0.22944 v -3.65249 q 0,-0.11989 0.0827,-0.20464 0.0847,-0.0847 0.20671,-0.0847 h 1.28364 q 0.46302,0 0.80408,0.29559 0.34107,0.29352 0.42375,0.74621 0.0868,0.48576 -0.20671,0.9095 -0.29145,0.42168 -0.77514,0.51263 l -0.0393,0.006 z m -1.03766,-1.87895 q 0.21084,0 0.3886,-0.12816 0.17984,-0.12816 0.24185,-0.33486 0.0971,-0.31833 -0.0889,-0.57464 -0.18604,-0.25838 -0.51263,-0.28526 h -1.01906 v 1.32292 z"
           style="font-size:4.23333px;fill:#00ff00;stroke-width:0.264583"
           id="path1431" />
        <path
           d="m 112.10376,151.25476 q -0.0455,0.28938 -0.29352,0.28938 -0.24598,-0.002 -0.28939,-0.28938 V 148.673 l -0.709,1.21337 q -0.11369,0.13642 -0.25425,0.14262 -0.13849,0.006 -0.24805,-0.14262 l -0.70486,-1.20717 0.002,2.57556 q -0.0331,0.28732 -0.29973,0.28732 -0.26458,-0.002 -0.28525,-0.28732 v -3.65042 q 0.0165,-0.23772 0.20877,-0.28319 0.19224,-0.0475 0.33486,0.13022 l 0.99426,1.70946 1.00459,-1.70946 q 0.14262,-0.17776 0.33073,-0.13022 0.19017,0.0475 0.20877,0.28319 z"
           style="font-size:4.23333px;fill:#00ff00;stroke-width:0.264583"
           id="path1433" />
      </g>
      <g
         aria-label="ram"
         id="text1904-3-7"
         style="font-size:9.87777px;line-height:1.25;font-family:'MS 33558';-inkscape-font-specification:'MS 33558, ';fill:#00ff00;stroke-width:0.264583">
        <path
           d="m 138.17051,93.523594 q 0.13229,0.233577 -0.0744,0.392741 -0.0992,0.07028 -0.22944,0.04754 -0.12816,-0.02274 -0.1881,-0.128158 l -1.01906,-1.610236 h -0.51677 v 1.455207 q 0,0.179834 -0.16329,0.260449 -0.1633,0.07855 -0.30593,-0.03101 -0.11369,-0.08475 -0.11369,-0.229443 v -3.652487 q 0,-0.119889 0.0827,-0.204638 0.0847,-0.08475 0.2067,-0.08475 h 1.28364 q 0.46302,0 0.80409,0.295589 0.34106,0.293522 0.42374,0.746207 0.0868,0.485758 -0.2067,0.909505 -0.29146,0.421679 -0.77515,0.51263 l -0.0393,0.0062 z m -1.03767,-1.878953 q 0.21084,0 0.38861,-0.128158 0.17983,-0.128157 0.24185,-0.334863 0.0971,-0.318326 -0.0889,-0.574641 -0.18603,-0.258382 -0.51263,-0.285254 h -1.01906 v 1.322916 z"
           style="font-size:4.23333px;fill:#00ff00;stroke-width:0.264583"
           id="path1436" />
        <path
           d="m 141.16774,92.61409 -0.62839,-1.736327 -0.63252,1.736327 z m -0.62839,-1.736327 0.62839,1.736327 z m -1.59577,2.69544 q 0.33073,-0.911571 0.66146,-1.821076 0.3328,-0.911571 0.66559,-1.823143 0.0682,-0.188102 0.27079,-0.190169 0.20257,-0.0021 0.27285,0.190169 l 1.32498,3.654555 q 0.062,0.291454 -0.17776,0.376204 -0.23978,0.08475 -0.37001,-0.173633 l -0.2129,-0.591178 h -1.68465 l -0.20671,0.576709 q -0.13229,0.260449 -0.3762,0.171565 -0.24392,-0.09095 -0.16744,-0.370003 z"
           style="font-size:4.23333px;fill:#00ff00;stroke-width:0.264583"
           id="path1438" />
        <path
           d="m 145.62844,93.682757 q -0.0455,0.289388 -0.29352,0.289388 -0.24598,-0.0021 -0.28939,-0.289388 v -2.581752 l -0.709,1.213362 q -0.11369,0.136425 -0.25425,0.142626 -0.13849,0.0062 -0.24804,-0.142626 l -0.70487,-1.207161 0.002,2.575551 q -0.0331,0.287321 -0.29972,0.287321 -0.26459,-0.0021 -0.28526,-0.287321 v -3.65042 q 0.0165,-0.237711 0.20877,-0.283186 0.19224,-0.04754 0.33487,0.130224 l 0.99425,1.709455 1.00459,-1.709455 q 0.14263,-0.177767 0.33073,-0.130224 0.19017,0.04754 0.20877,0.283186 z"
           style="font-size:4.23333px;fill:#00ff00;stroke-width:0.264583"
           id="path1440" />
      </g>
      <g
         aria-label="l eng"
         id="text1904-3-3"
         style="font-size:9.87777px;line-height:1.25;font-family:'MS 33558';-inkscape-font-specification:'MS 33558, ';word-spacing:-2.64583px;fill:#00ff00;stroke-width:0.264583">
        <path
           d="m 133.86174,115.28097 q -0.25424,-0.0165 -0.29352,-0.28732 v -3.65455 q 0.0434,-0.29766 0.30179,-0.29145 0.25838,0.004 0.28112,0.29145 v 3.36517 l 1.90789,-0.002 q 0.29353,0.0331 0.28939,0.29766 -0.002,0.26251 -0.29145,0.28111 z"
           style="font-size:4.23333px;fill:#00ff00;stroke-width:0.264583"
           id="path1443" />
        <path
           d="m 140.81945,111.62229 h -1.71358 v 1.13068 h 1.30637 q 0.29353,0.0434 0.29146,0.29558 0,0.25012 -0.29146,0.29146 h -1.30637 v 1.35806 h 1.71358 q 0.29146,0.0434 0.29146,0.29145 0,0.24805 -0.29146,0.28939 h -2.00091 q -0.25838,-0.0331 -0.29352,-0.29352 v -3.65042 q 0.0393,-0.27286 0.29352,-0.28939 h 2.00091 q 0.29146,0.0227 0.28939,0.29145 0,0.26665 -0.28939,0.28526 z"
           style="font-size:4.23333px;fill:#00ff00;stroke-width:0.264583"
           id="path1445" />
        <path
           d="m 144.54015,114.99365 q 0,0.21704 -0.21084,0.27699 -0.20877,0.0579 -0.32452,-0.12402 l -1.73633,-2.78433 v 2.63136 q -0.0455,0.28939 -0.29352,0.28939 -0.24598,0 -0.28939,-0.28939 v -3.65042 q 0.031,-0.21497 0.21911,-0.28318 0.19017,-0.0682 0.31626,0.12815 l 1.73632,2.78846 v -2.63343 q 0.0393,-0.29558 0.29973,-0.29145 0.26251,0.002 0.28318,0.29145 z"
           style="font-size:4.23333px;fill:#00ff00;stroke-width:0.264583"
           id="path1447" />
        <path
           d="m 146.54727,113.57359 -0.0186,-0.002 q -0.25218,-0.031 -0.25218,-0.28732 0,-0.25632 0.25218,-0.28732 l 0.0186,-0.004 h 0.0186 0.76274 q 0.11989,0 0.20464,0.0868 0.0868,0.0847 0.0868,0.20464 v 1.048 l -0.0248,0.0537 -0.0145,0.0331 -0.0145,0.031 -0.0165,0.031 -0.0165,0.031 -0.0145,0.031 -0.0165,0.031 -0.0186,0.031 q -0.40101,0.68213 -0.99632,0.66766 -0.59531,-0.0165 -1.00045,-0.67386 -0.19224,-0.31213 -0.28526,-0.78135 -0.093,-0.47129 -0.0558,-0.96118 0.0372,-0.49196 0.22738,-0.93431 0.19223,-0.44442 0.57257,-0.70487 0.47542,-0.32246 0.92604,-0.0744 0.45062,0.24598 0.67386,0.69246 l 0.0165,0.0331 0.0124,0.0289 0.0165,0.031 q 0.0703,0.19637 -0.0537,0.32039 -0.11988,0.11783 -0.26044,0.0889 -0.14056,-0.031 -0.21705,-0.16743 -0.24184,-0.59945 -0.62425,-0.52297 -0.38033,0.0765 -0.5705,0.62425 -0.18604,0.52917 -0.14676,1.13895 0.0393,0.60771 0.39687,1.0604 0.24598,0.31626 0.50023,0.20257 0.25425,-0.11369 0.40101,-0.42375 l 0.0227,-0.0455 v -0.63045 z"
           style="font-size:4.23333px;fill:#00ff00;stroke-width:0.264583"
           id="path1449" />
      </g>
      <g
         aria-label="r eng"
         id="text1904-3-3-1"
         style="font-size:9.87777px;line-height:1.25;font-family:'MS 33558';-inkscape-font-specification:'MS 33558, ';word-spacing:-2.64583px;fill:#00ff00;stroke-width:0.264583">
        <path
           d="m 136.17891,136.13034 q 0.13229,0.23357 -0.0744,0.39274 -0.0992,0.0703 -0.22944,0.0475 -0.12816,-0.0227 -0.18811,-0.12816 l -1.01905,-1.61023 h -0.51677 v 1.4552 q 0,0.17984 -0.1633,0.26045 -0.16329,0.0786 -0.30592,-0.031 -0.11369,-0.0847 -0.11369,-0.22945 v -3.65248 q 0,-0.11989 0.0827,-0.20464 0.0847,-0.0847 0.20671,-0.0847 h 1.28364 q 0.46302,0 0.80409,0.29559 0.34106,0.29352 0.42374,0.7462 0.0868,0.48576 -0.2067,0.90951 -0.29146,0.42168 -0.77515,0.51263 l -0.0393,0.006 z m -1.03766,-1.87896 q 0.21084,0 0.38861,-0.12815 0.17983,-0.12816 0.24184,-0.33487 0.0971,-0.31832 -0.0889,-0.57464 -0.18604,-0.25838 -0.51263,-0.28525 h -1.01906 v 1.32291 z"
           style="font-size:4.23333px;fill:#00ff00;stroke-width:0.264583"
           id="path1452" />
        <path
           d="m 140.81945,132.92227 h -1.71358 v 1.13068 h 1.30637 q 0.29353,0.0434 0.29146,0.29558 0,0.25012 -0.29146,0.29146 h -1.30637 v 1.35806 h 1.71358 q 0.29146,0.0434 0.29146,0.29145 0,0.24805 -0.29146,0.28939 h -2.00091 q -0.25838,-0.0331 -0.29352,-0.29352 v -3.65042 q 0.0393,-0.27286 0.29352,-0.28939 h 2.00091 q 0.29146,0.0227 0.28939,0.29145 0,0.26665 -0.28939,0.28526 z"
           style="font-size:4.23333px;fill:#00ff00;stroke-width:0.264583"
           id="path1454" />
        <path
           d="m 144.54015,136.29363 q 0,0.21705 -0.21084,0.27699 -0.20877,0.0579 -0.32452,-0.12402 l -1.73633,-2.78433 v 2.63136 q -0.0455,0.28939 -0.29352,0.28939 -0.24598,0 -0.28939,-0.28939 v -3.65042 q 0.031,-0.21497 0.21911,-0.28318 0.19017,-0.0682 0.31626,0.12815 l 1.73632,2.78846 v -2.63343 q 0.0393,-0.29558 0.29973,-0.29145 0.26251,0.002 0.28318,0.29145 z"
           style="font-size:4.23333px;fill:#00ff00;stroke-width:0.264583"
           id="path1456" />
        <path
           d="m 146.54727,134.87357 -0.0186,-0.002 q -0.25218,-0.031 -0.25218,-0.28732 0,-0.25632 0.25218,-0.28732 l 0.0186,-0.004 h 0.0186 0.76274 q 0.11989,0 0.20464,0.0868 0.0868,0.0848 0.0868,0.20464 v 1.048 l -0.0248,0.0537 -0.0145,0.0331 -0.0145,0.031 -0.0165,0.031 -0.0165,0.031 -0.0145,0.031 -0.0165,0.031 -0.0186,0.031 q -0.40101,0.68213 -0.99632,0.66766 -0.59531,-0.0165 -1.00045,-0.67386 -0.19224,-0.31213 -0.28526,-0.78135 -0.093,-0.47129 -0.0558,-0.96118 0.0372,-0.49196 0.22738,-0.93431 0.19223,-0.44442 0.57257,-0.70487 0.47542,-0.32246 0.92604,-0.0744 0.45062,0.24598 0.67386,0.69246 l 0.0165,0.0331 0.0124,0.0289 0.0165,0.031 q 0.0703,0.19637 -0.0537,0.32039 -0.11988,0.11783 -0.26044,0.0889 -0.14056,-0.031 -0.21705,-0.16743 -0.24184,-0.59945 -0.62425,-0.52297 -0.38033,0.0765 -0.5705,0.62425 -0.18604,0.52917 -0.14676,1.13895 0.0393,0.60771 0.39687,1.0604 0.24598,0.31626 0.50023,0.20257 0.25425,-0.11369 0.40101,-0.42375 l 0.0227,-0.0455 v -0.63045 z"
           style="font-size:4.23333px;fill:#00ff00;stroke-width:0.264583"
           id="path1458" />
      </g>
      <g
         aria-label="both"
         id="text1904-3-3-5"
         style="font-size:9.87777px;line-height:1.25;font-family:'MS 33558';-inkscape-font-specification:'MS 33558, ';word-spacing:-2.64583px;fill:#00ff00;stroke-width:0.264583">
        <path
           d="m 135.7655,153.64065 q 0.39274,0.0331 0.65939,0.23771 0.26872,0.20464 0.37207,0.49403 0.10336,0.28732 0.0269,0.61391 -0.0744,0.32453 -0.36381,0.59738 0.31833,0.33486 0.39688,0.72347 0.0786,0.38861 -0.0496,0.7276 -0.12609,0.33693 -0.44028,0.57258 -0.3142,0.23564 -0.77928,0.26665 h -0.006 -1.09967 q -0.25425,-0.0351 -0.29352,-0.28732 v -3.65249 q 0.0351,-0.25632 0.29352,-0.29352 z m -0.18397,3.64835 q 0.3514,-0.0145 0.53537,-0.22738 0.18397,-0.2129 0.19017,-0.47128 0.008,-0.26045 -0.16536,-0.48783 -0.17364,-0.22738 -0.53537,-0.27492 h -0.83302 v 1.46141 z m 0.18397,-3.06131 h -0.99218 v 1.01906 h 0.99838 q 0.25632,-0.0269 0.38034,-0.18397 0.12609,-0.15916 0.12196,-0.339 -0.002,-0.1819 -0.13023,-0.33072 -0.12815,-0.1509 -0.37827,-0.16537 z"
           style="font-size:4.23333px;fill:#00ff00;stroke-width:0.264583"
           id="path1461" />
        <path
           d="m 140.1766,154.85814 q 0.19017,0.57258 0.14263,1.18856 -0.0455,0.61598 -0.33693,1.12448 -0.18397,0.31626 -0.5023,0.53743 -0.31833,0.22118 -0.7028,0.15503 -0.62632,-0.10955 -0.95911,-0.65319 -0.3328,-0.54363 -0.38241,-1.20922 -0.0475,-0.66766 0.17984,-1.30018 0.22944,-0.63252 0.72967,-0.91984 0.24391,-0.14056 0.51056,-0.14056 0.5085,0 0.83096,0.38447 0.32246,0.38241 0.48989,0.83302 z m -1.30431,-0.63045 q -0.38034,0 -0.57671,0.40928 -0.1943,0.40928 -0.24598,0.69866 -0.0393,0.21084 -0.0289,0.51057 0.0103,0.29972 0.0868,0.59324 0.0765,0.29146 0.22944,0.5271 0.15296,0.23358 0.40101,0.31006 0.28939,0.0909 0.49816,-0.11369 0.21084,-0.20671 0.31833,-0.43822 0.10955,-0.23771 0.14882,-0.62425 0.0413,-0.38654 -0.0186,-0.77101 -0.0579,-0.38654 -0.22944,-0.69453 -0.17157,-0.31006 -0.48783,-0.39481 -0.0413,-0.0124 -0.0951,-0.0124 z"
           style="font-size:4.23333px;fill:#00ff00;stroke-width:0.264583"
           id="path1463" />
        <path
           d="m 141.92326,157.58459 v -3.36103 h -0.75861 q -0.28939,-0.0227 -0.28939,-0.28939 0.002,-0.26872 0.28939,-0.29352 h 2.09806 q 0.28526,0.0227 0.28526,0.29352 0.002,0.26872 -0.28526,0.28939 h -0.75654 v 3.36103 q -0.0475,0.29352 -0.30592,0.28939 -0.25632,-0.004 -0.27699,-0.28939 z"
           style="font-size:4.23333px;fill:#00ff00;stroke-width:0.264583"
           id="path1465" />
        <path
           d="m 144.16602,157.58872 v -3.65455 q 0.0434,-0.29766 0.30179,-0.29146 0.25838,0.004 0.28112,0.29146 v 1.36632 h 1.66398 v -1.36632 q 0.0434,-0.29146 0.29145,-0.29146 0.25011,-0.002 0.29559,0.29146 v 3.65455 q -0.0455,0.29146 -0.29559,0.28939 -0.24805,0 -0.29145,-0.28939 v -1.70118 h -1.66398 v 1.70118 q -0.0227,0.28526 -0.28112,0.28939 -0.25839,0.004 -0.30179,-0.28939 z"
           style="font-size:4.23333px;fill:#00ff00;stroke-width:0.264583"
           id="path1467" />
      </g>
      <g
         aria-label="off"
         id="text1904-3-3-8"
         style="font-size:9.87777px;line-height:1.25;font-family:'MS 33558';-inkscape-font-specification:'MS 33558, ';word-spacing:-2.64583px;fill:#00ff00;stroke-width:0.264583">
        <path
           d="m 138.74821,176.15807 q 0.19017,0.57257 0.14262,1.18856 -0.0455,0.61598 -0.33693,1.12448 -0.18396,0.31626 -0.50229,0.53743 -0.31833,0.22117 -0.7028,0.15503 -0.62632,-0.10955 -0.95911,-0.65319 -0.3328,-0.54364 -0.38241,-1.20923 -0.0475,-0.66766 0.17984,-1.30018 0.22944,-0.63251 0.72967,-0.91984 0.24391,-0.14056 0.51056,-0.14056 0.50849,0 0.83096,0.38448 0.32246,0.3824 0.48989,0.83302 z m -1.30431,-0.63045 q -0.38034,0 -0.57671,0.40928 -0.19431,0.40927 -0.24598,0.69866 -0.0393,0.21084 -0.0289,0.51056 0.0103,0.29973 0.0868,0.59325 0.0765,0.29145 0.22945,0.5271 0.15296,0.23357 0.40101,0.31006 0.28938,0.091 0.49816,-0.11369 0.21084,-0.20671 0.31832,-0.43822 0.10956,-0.23771 0.14883,-0.62425 0.0413,-0.38654 -0.0186,-0.77101 -0.0579,-0.38654 -0.22945,-0.69453 -0.17156,-0.31006 -0.48782,-0.39481 -0.0413,-0.0124 -0.0951,-0.0124 z"
           style="font-size:4.23333px;fill:#00ff00;stroke-width:0.264583"
           id="path1470" />
        <path
           d="m 139.44687,178.88038 v -3.64628 q 0.0372,-0.27285 0.29352,-0.29353 h 2.00091 q 0.28732,0.0227 0.28732,0.29353 0,0.26871 -0.29145,0.28732 h -1.70946 v 1.13068 h 1.33326 q 0.28525,0.0207 0.28938,0.27905 0.004,0.25838 -0.28938,0.30179 h -1.33326 v 1.64744 q -0.0207,0.28526 -0.28111,0.28939 -0.25839,0.004 -0.29973,-0.28939 z"
           style="font-size:4.23333px;fill:#00ff00;stroke-width:0.264583"
           id="path1472" />
        <path
           d="m 142.6074,178.88038 v -3.64628 q 0.0372,-0.27285 0.29352,-0.29353 h 2.00091 q 0.28732,0.0227 0.28732,0.29353 0,0.26871 -0.29145,0.28732 h -1.70946 v 1.13068 h 1.33325 q 0.28526,0.0207 0.28939,0.27905 0.004,0.25838 -0.28939,0.30179 h -1.33325 v 1.64744 q -0.0207,0.28526 -0.28112,0.28939 -0.25838,0.004 -0.29972,-0.28939 z"
           style="font-size:4.23333px;fill:#00ff00;stroke-width:0.264583"
           id="path1474" />
      </g>
      <g
         aria-label="cabin
press"
         id="text2165-2-8"
         style="font-size:4.23333px;line-height:1.25;font-family:'MS 33558';-inkscape-font-specification:'MS 33558, ';text-align:center;word-spacing:-2.64583px;text-anchor:middle;fill:#00ff00;stroke-width:0.264583">
        <path
           d="m 84.008903,92.379001 -0.0186,0.02687 q -0.0062,0.0083 -0.01033,0.01447 -0.0041,0.0062 -0.0083,0.0124 -0.283186,0.382406 -0.74414,0.545703 -0.458886,0.16123 -0.90537,-0.05994 -0.518831,-0.258382 -0.762743,-0.876431 -0.241846,-0.61805 -0.208773,-1.283642 0.03514,-0.667659 0.351399,-1.225764 0.318327,-0.558105 0.921907,-0.698664 0.347265,-0.08062 0.692464,0.06821 0.345198,0.146761 0.566373,0.413412 0.0021,0 0.01033,0.01447 0.09508,0.124023 0.03927,0.272851 -0.05581,0.146761 -0.204638,0.183968 -0.159163,0.04134 -0.293522,-0.09508 -0.276986,-0.322461 -0.5333,-0.310059 -0.256315,0.0124 -0.458887,0.21084 -0.202571,0.198437 -0.33693,0.508496 -0.134358,0.310058 -0.165364,0.580842 -0.03721,0.30179 0.0062,0.607715 0.04547,0.303857 0.188102,0.572574 0.248047,0.471289 0.624251,0.591178 0.378271,0.117822 0.737939,-0.361735 0.01654,-0.02067 0.03927,-0.05374 0.194303,-0.214974 0.409277,-0.04341 0.21704,0.169498 0.06408,0.384472 z"
           style="font-size:4.23333px;text-align:center;text-anchor:middle;fill:#00ff00;stroke-width:0.264583"
           id="path1477" />
        <path
           d="m 86.824233,91.682403 -0.628385,-1.736326 -0.632519,1.736326 z m -0.628385,-1.736326 0.628385,1.736326 z m -1.595767,2.69544 q 0.330729,-0.911572 0.661458,-1.821076 0.332796,-0.911571 0.665592,-1.823143 0.06821,-0.188102 0.270784,-0.190169 0.202572,-0.0021 0.272852,0.190169 l 1.324982,3.654554 q 0.06201,0.291455 -0.177767,0.376204 -0.239778,0.08475 -0.370002,-0.173632 l -0.212907,-0.591178 h -1.68465 l -0.206706,0.576708 q -0.132292,0.260449 -0.376204,0.171566 -0.243913,-0.09095 -0.167432,-0.370003 z"
           style="font-size:4.23333px;text-align:center;text-anchor:middle;fill:#00ff00;stroke-width:0.264583"
           id="path1479" />
        <path
           d="m 89.780123,88.807129 q 0.39274,0.03307 0.65939,0.237711 0.268718,0.204639 0.37207,0.494027 0.103353,0.28732 0.02687,0.613915 -0.07441,0.324528 -0.363802,0.597379 0.318327,0.334863 0.396875,0.72347 0.07855,0.388606 -0.04961,0.727603 -0.126091,0.33693 -0.440283,0.572575 -0.314193,0.235644 -0.77928,0.26665 h -0.0062 -1.099674 q -0.254248,-0.03514 -0.293522,-0.287321 v -3.652487 q 0.03514,-0.256315 0.293522,-0.293522 z m -0.183968,3.648353 q 0.351399,-0.01447 0.535367,-0.227376 0.183968,-0.212907 0.190169,-0.471289 0.0083,-0.260449 -0.165364,-0.487825 -0.173633,-0.227376 -0.535368,-0.274918 h -0.833023 v 1.461408 z m 0.183968,-3.061309 h -0.992187 v 1.019058 h 0.998388 q 0.256315,-0.02687 0.380338,-0.183968 0.12609,-0.159163 0.121956,-0.338997 -0.0021,-0.181901 -0.130224,-0.330729 -0.128158,-0.150895 -0.378271,-0.165364 z"
           style="font-size:4.23333px;text-align:center;text-anchor:middle;fill:#00ff00;stroke-width:0.264583"
           id="path1481" />
        <path
           d="m 92.029079,92.755205 q -0.04548,0.291455 -0.295589,0.289388 -0.248047,0 -0.291455,-0.289388 v -3.654554 q 0.04341,-0.291455 0.291455,-0.291455 0.250113,-0.0021 0.295589,0.291455 z"
           style="font-size:4.23333px;text-align:center;text-anchor:middle;fill:#00ff00;stroke-width:0.264583"
           id="path1483" />
        <path
           d="m 95.470726,92.755205 q 0,0.217041 -0.21084,0.276985 -0.208772,0.05788 -0.324527,-0.124023 l -1.736327,-2.784324 v 2.631362 q -0.04547,0.289388 -0.293522,0.289388 -0.245979,0 -0.289388,-0.289388 v -3.65042 q 0.03101,-0.214974 0.219108,-0.283187 0.190169,-0.06821 0.31626,0.128158 l 1.736326,2.788458 v -2.633429 q 0.03928,-0.295589 0.299724,-0.291455 0.262516,0.0021 0.283186,0.291455 z"
           style="font-size:4.23333px;text-align:center;text-anchor:middle;fill:#00ff00;stroke-width:0.264583"
           id="path1485" />
        <path
           d="m 82.041066,94.098791 h 0.03928 q 0.264583,0.0186 0.487825,0.119889 0.42788,0.200505 0.605647,0.659391 0.177767,0.458886 -0.0041,0.895035 -0.146761,0.345198 -0.434082,0.541569 -0.287321,0.194303 -0.655256,0.217041 l -0.03928,0.0021 h -1.004589 v 1.506883 q -0.03721,0.291455 -0.293521,0.291455 -0.256315,0 -0.291455,-0.291455 v -3.652487 q 0.03101,-0.256315 0.272851,-0.289388 h 0.0186 z m 0,0.58291 h -1.004589 v 1.267105 h 1.004589 q 0.235645,0 0.415479,-0.157096 0.181901,-0.157097 0.212906,-0.392741 0.03721,-0.285254 -0.152962,-0.500227 -0.190169,-0.217041 -0.475423,-0.217041 z"
           style="font-size:4.23333px;text-align:center;text-anchor:middle;fill:#00ff00;stroke-width:0.264583"
           id="path1487" />
        <path
           d="m 86.458364,97.88357 q 0.132292,0.233577 -0.07441,0.39274 -0.09922,0.07028 -0.229443,0.04754 -0.128157,-0.02274 -0.188102,-0.128158 l -1.019058,-1.610236 h -0.516764 v 1.455207 q 0,0.179834 -0.163298,0.260449 -0.163297,0.07855 -0.305924,-0.03101 -0.113688,-0.08475 -0.113688,-0.229443 v -3.652487 q 0,-0.119889 0.08268,-0.204639 0.08475,-0.08475 0.206706,-0.08475 h 1.283641 q 0.463021,0 0.804085,0.295589 0.341064,0.293522 0.423746,0.746207 0.08682,0.485758 -0.206705,0.909505 -0.291455,0.421679 -0.775146,0.512629 l -0.03927,0.0062 z m -1.037662,-1.878954 q 0.21084,0 0.388607,-0.128157 0.179834,-0.128158 0.241845,-0.334863 0.09715,-0.318327 -0.08888,-0.574642 -0.186035,-0.258381 -0.51263,-0.285253 h -1.019058 v 1.322915 z"
           style="font-size:4.23333px;text-align:center;text-anchor:middle;fill:#00ff00;stroke-width:0.264583"
           id="path1489" />
        <path
           d="m 89.511405,94.6755 h -1.713589 v 1.130679 h 1.306379 q 0.293522,0.04341 0.291455,0.295589 0,0.250114 -0.291455,0.291455 h -1.306379 v 1.358055 h 1.713589 q 0.291455,0.04341 0.291455,0.291455 0,0.248047 -0.291455,0.289388 h -2.000909 q -0.258382,-0.03307 -0.293522,-0.293522 v -3.65042 q 0.03927,-0.272851 0.293522,-0.289388 h 2.000909 q 0.291455,0.02274 0.289388,0.291455 0,0.26665 -0.289388,0.285254 z"
           style="font-size:4.23333px;text-align:center;text-anchor:middle;fill:#00ff00;stroke-width:0.264583"
           id="path1491" />
        <path
           d="m 92.456959,96.07903 0.03307,0.01447 0.03721,0.0186 0.03307,0.0186 q 0.01447,0.01033 0.03101,0.02067 0.0186,0.0083 0.03514,0.0186 0.409277,0.268717 0.506428,0.74414 0.03721,0.186035 0.01654,0.382405 -0.03307,0.28112 -0.198437,0.520898 -0.163298,0.237711 -0.411345,0.367936 -0.26665,0.14056 -0.551903,0.14056 -0.479557,0 -0.915706,-0.121957 -0.436149,-0.124023 -0.622184,-0.65939 -0.0248,-0.06821 -0.03721,-0.14056 -0.0124,-0.07235 -0.02894,-0.144694 -0.03101,-0.148828 0.07235,-0.262516 0.10542,-0.113688 0.260449,-0.08682 0.163298,0.03307 0.227377,0.202571 l 0.0062,0.0186 q 0.09922,0.448551 0.345198,0.535367 0.248047,0.08682 0.68833,0.07855 0.405142,0 0.556037,-0.380338 0.06615,-0.169499 0.02067,-0.3514 -0.04547,-0.183967 -0.179834,-0.305924 -0.05994,-0.05168 -0.157096,-0.09715 l -0.957047,-0.419613 -0.03101,-0.01654 q -0.469221,-0.248047 -0.582909,-0.704866 -0.138493,-0.529166 0.192236,-0.948779 0.332796,-0.421679 0.872297,-0.421679 l 0.227376,0.0062 q 0.111621,0.02067 0.214974,0.04134 0.103353,0.0186 0.208773,0.06615 0.260449,0.121956 0.398942,0.334863 0.138492,0.212907 0.250113,0.460954 0.01034,0.02274 0.0186,0.05374 0.02274,0.101286 -0.02067,0.183968 -0.0248,0.05168 -0.05168,0.07855 -0.02687,0.02687 -0.04341,0.03721 -0.107487,0.07648 -0.235645,0.04547 -0.128157,-0.02894 -0.19637,-0.165364 -0.05374,-0.119889 -0.115755,-0.243913 -0.05994,-0.12609 -0.169499,-0.208772 -0.04547,-0.03307 -0.08888,-0.04754 -0.04134,-0.01654 -0.09302,-0.03514 l -0.134359,-0.02274 -0.190169,-0.0062 q -0.276986,0.0041 -0.423747,0.239778 -0.09922,0.150895 -0.07441,0.33693 0.02894,0.229443 0.214974,0.355534 0.0083,0.0062 0.0186,0.01447 0.01033,0.0062 0.02274,0.0124 l 0.02274,0.01034 0.02481,0.01034 z"
           style="font-size:4.23333px;text-align:center;text-anchor:middle;fill:#00ff00;stroke-width:0.264583"
           id="path1493" />
        <path
           d="m 95.747712,96.07903 0.03307,0.01447 0.03721,0.0186 0.03307,0.0186 q 0.01447,0.01033 0.03101,0.02067 0.0186,0.0083 0.03514,0.0186 0.409277,0.268717 0.506429,0.74414 0.03721,0.186035 0.01654,0.382405 -0.03307,0.28112 -0.198437,0.520898 -0.163297,0.237711 -0.411344,0.367936 -0.26665,0.14056 -0.551904,0.14056 -0.479557,0 -0.915706,-0.121957 -0.436148,-0.124023 -0.622183,-0.65939 -0.02481,-0.06821 -0.03721,-0.14056 -0.0124,-0.07235 -0.02894,-0.144694 -0.03101,-0.148828 0.07235,-0.262516 0.10542,-0.113688 0.260449,-0.08682 0.163297,0.03307 0.227376,0.202571 l 0.0062,0.0186 q 0.09922,0.448551 0.345198,0.535367 0.248047,0.08682 0.68833,0.07855 0.405143,0 0.556038,-0.380338 0.06615,-0.169499 0.02067,-0.3514 -0.04547,-0.183967 -0.179833,-0.305924 -0.05994,-0.05168 -0.157097,-0.09715 l -0.957046,-0.419613 -0.03101,-0.01654 q -0.469222,-0.248047 -0.58291,-0.704866 -0.138493,-0.529166 0.192236,-0.948779 0.332796,-0.421679 0.872298,-0.421679 l 0.227376,0.0062 q 0.111621,0.02067 0.214974,0.04134 0.103352,0.0186 0.208772,0.06615 0.260449,0.121956 0.398942,0.334863 0.138493,0.212907 0.250114,0.460954 0.01033,0.02274 0.0186,0.05374 0.02274,0.101286 -0.02067,0.183968 -0.02481,0.05168 -0.05168,0.07855 -0.02687,0.02687 -0.04341,0.03721 -0.107487,0.07648 -0.235644,0.04547 -0.128158,-0.02894 -0.19637,-0.165364 -0.05374,-0.119889 -0.115756,-0.243913 -0.05994,-0.12609 -0.169498,-0.208772 -0.04547,-0.03307 -0.08888,-0.04754 -0.04134,-0.01654 -0.09302,-0.03514 l -0.134359,-0.02274 -0.190169,-0.0062 q -0.276985,0.0041 -0.423746,0.239778 -0.09922,0.150895 -0.07441,0.33693 0.02894,0.229443 0.214974,0.355534 0.0083,0.0062 0.0186,0.01447 0.01033,0.0062 0.02274,0.0124 l 0.02274,0.01034 0.02481,0.01034 z"
           style="font-size:4.23333px;text-align:center;text-anchor:middle;fill:#00ff00;stroke-width:0.264583"
           id="path1495" />
      </g>
      <path
         id="path2534"
         style="fill:#ff0000;stroke:none;stroke-width:0.198101"
         d="m 94.799531,111.96555 a 6.3499999,6.3499999 0 0 1 -6.349999,6.35 6.3499999,6.3499999 0 0 1 -6.35,-6.35 6.3499999,6.3499999 0 0 1 6.35,-6.35 6.3499999,6.3499999 0 0 1 6.349999,6.35 z" />
      <g
         aria-label="ram
air"
         id="text2165-2-8-9"
         style="font-size:4.23333px;line-height:1.25;font-family:'MS 33558';-inkscape-font-specification:'MS 33558, ';text-align:center;word-spacing:-2.64583px;text-anchor:middle;fill:#00ff00;stroke-width:0.264583">
        <path
           d="m 118.99595,92.586994 q 0.13229,0.233578 -0.0744,0.392741 -0.0992,0.07028 -0.22944,0.04754 -0.12816,-0.02274 -0.1881,-0.128157 l -1.01906,-1.610237 h -0.51676 v 1.455208 q 0,0.179833 -0.1633,0.260449 -0.1633,0.07855 -0.30592,-0.03101 -0.11369,-0.08475 -0.11369,-0.229443 v -3.652488 q 0,-0.119889 0.0827,-0.204638 0.0847,-0.08475 0.20671,-0.08475 h 1.28364 q 0.46302,0 0.80408,0.295589 0.34107,0.293521 0.42375,0.746207 0.0868,0.485758 -0.20671,0.909504 -0.29145,0.421679 -0.77514,0.51263 l -0.0393,0.0062 z m -1.03766,-1.878953 q 0.21084,0 0.3886,-0.128158 0.17984,-0.128157 0.24185,-0.334863 0.0971,-0.318326 -0.0889,-0.574641 -0.18604,-0.258382 -0.51263,-0.285254 h -1.01906 v 1.322916 z"
           style="font-size:4.23333px;text-align:center;text-anchor:middle;fill:#00ff00;stroke-width:0.264583"
           id="path1499" />
        <path
           d="m 121.99318,91.67749 -0.62839,-1.736327 -0.63251,1.736327 z m -0.62839,-1.736327 0.62839,1.736327 z m -1.59576,2.695441 q 0.33073,-0.911572 0.66146,-1.821076 0.33279,-0.911572 0.66559,-1.823143 0.0682,-0.188102 0.27078,-0.190169 0.20257,-0.0021 0.27285,0.190169 l 1.32499,3.654554 q 0.062,0.291455 -0.17777,0.376204 -0.23978,0.08475 -0.37,-0.173633 l -0.21291,-0.591178 h -1.68465 l -0.20671,0.576709 q -0.13229,0.260449 -0.3762,0.171566 -0.24391,-0.09095 -0.16743,-0.370003 z"
           style="font-size:4.23333px;text-align:center;text-anchor:middle;fill:#00ff00;stroke-width:0.264583"
           id="path1501" />
        <path
           d="m 126.45388,92.746158 q -0.0455,0.289387 -0.29352,0.289387 -0.24598,-0.0021 -0.28938,-0.289387 v -2.581753 l -0.709,1.213362 q -0.11369,0.136425 -0.25425,0.142627 -0.1385,0.0062 -0.24805,-0.142627 l -0.70487,-1.207161 0.002,2.575552 q -0.0331,0.28732 -0.29972,0.28732 -0.26458,-0.0021 -0.28526,-0.28732 v -3.650421 q 0.0165,-0.237711 0.20878,-0.283186 0.19223,-0.04754 0.33486,0.130224 l 0.99425,1.709455 1.00459,-1.709455 q 0.14263,-0.177766 0.33073,-0.130224 0.19017,0.04754 0.20877,0.283186 z"
           style="font-size:4.23333px;text-align:center;text-anchor:middle;fill:#00ff00;stroke-width:0.264583"
           id="path1503" />
        <path
           d="m 119.82587,96.969152 -0.62838,-1.736327 -0.63252,1.736327 z m -0.62838,-1.736327 0.62838,1.736327 z m -1.59577,2.695441 q 0.33073,-0.911572 0.66146,-1.821076 0.33279,-0.911572 0.66559,-1.823143 0.0682,-0.188102 0.27078,-0.190169 0.20257,-0.0021 0.27285,0.190169 l 1.32499,3.654554 q 0.062,0.291455 -0.17777,0.376204 -0.23978,0.08475 -0.37,-0.173632 l -0.21291,-0.591178 h -1.68465 l -0.2067,0.576708 q -0.1323,0.260449 -0.37621,0.171566 -0.24391,-0.09095 -0.16743,-0.370003 z"
           style="font-size:4.23333px;text-align:center;text-anchor:middle;fill:#00ff00;stroke-width:0.264583"
           id="path1505" />
        <path
           d="m 121.79164,98.041954 q -0.0455,0.291455 -0.29559,0.289388 -0.24804,0 -0.29145,-0.289388 V 94.3874 q 0.0434,-0.291455 0.29145,-0.291455 0.25012,-0.0021 0.29559,0.291455 z"
           style="font-size:4.23333px;text-align:center;text-anchor:middle;fill:#00ff00;stroke-width:0.264583"
           id="path1507" />
        <path
           d="m 124.98938,97.878657 q 0.13229,0.233577 -0.0744,0.39274 -0.0992,0.07028 -0.22944,0.04754 -0.12816,-0.02274 -0.1881,-0.128157 l -1.01906,-1.610236 h -0.51677 v 1.455207 q 0,0.179834 -0.16329,0.260449 -0.1633,0.07855 -0.30593,-0.03101 -0.11369,-0.08475 -0.11369,-0.229443 v -3.652487 q 0,-0.11989 0.0827,-0.204639 0.0847,-0.08475 0.2067,-0.08475 h 1.28364 q 0.46302,0 0.80409,0.295589 0.34106,0.293522 0.42375,0.746207 0.0868,0.485758 -0.20671,0.909504 -0.29146,0.42168 -0.77515,0.51263 l -0.0393,0.0062 z m -1.03767,-1.878954 q 0.21084,0 0.38861,-0.128157 0.17983,-0.128158 0.24185,-0.334863 0.0971,-0.318327 -0.0889,-0.574642 -0.18603,-0.258382 -0.51263,-0.285254 h -1.01906 v 1.322916 z"
           style="font-size:4.23333px;text-align:center;text-anchor:middle;fill:#00ff00;stroke-width:0.264583"
           id="path1509" />
      </g>
      <path
         id="path2534-0"
         style="fill:#ff0000;stroke:none;stroke-width:0.198101"
         d="m 127.76957,111.96555 a 6.3499999,6.3499999 0 0 1 -6.35,6.35 6.3499999,6.3499999 0 0 1 -6.35,-6.35 6.3499999,6.3499999 0 0 1 6.35,-6.35 6.3499999,6.3499999 0 0 1 6.35,6.35 z" />
      <g
         id="g1023"
         transform="translate(2.2777967,51.728523)">
        <g
           aria-label="dump"
           id="text1904-3-7-7"
           style="font-size:9.87777px;line-height:1.25;font-family:'MS 33558';-inkscape-font-specification:'MS 33558, ';fill:#00ff00;stroke-width:0.264583">
          <path
             d="m 63.042985,52.260056 h 0.973583 q 0.725537,0 1.087271,0.661457 0.361735,0.661458 0.361735,1.455207 0,0.79375 -0.363802,1.455208 -0.361734,0.661457 -1.085204,0.661457 h -0.973583 0.0041 -0.0041 q -0.06821,-0.01034 -0.07441,-0.0124 -0.214974,-0.05168 -0.212907,-0.28112 h -0.0021 l 0.0021,-3.65042 q -0.0021,-0.0062 -0.0021,-0.01654 0.0062,-0.113688 0.08888,-0.192236 0.08475,-0.08062 0.202571,-0.08062 z m 0.973583,3.65042 q 0.0041,0 0.0083,0 0.0041,0 0.01034,0 0.0041,0 0.0062,0 0.0041,-0.0021 0.01034,-0.0021 0.0041,0 0.0083,0 0.0062,-0.0021 0.0124,-0.0021 0.0041,0 0.0083,0 0.0041,-0.0021 0.01033,-0.0021 0.0041,0 0.0083,0 0.0041,-0.0021 0.01034,-0.0021 0.0083,-0.0041 0.01654,-0.0041 0.0041,0 0.0083,-0.0021 0.0041,-0.0041 0.01034,-0.0062 0.0041,0 0.0083,0 0.0062,-0.0021 0.0124,-0.0041 0.0041,0 0.0083,-0.0021 0.0041,-0.0021 0.01034,-0.0041 0.0124,-0.0041 0.0186,-0.0083 0.03721,-0.0124 0.02067,-0.0083 0.0041,0 0.0083,-0.0021 0.0041,-0.0041 0.01033,-0.0062 0.0186,-0.0124 0.01654,-0.01033 0.02067,-0.01033 0.02067,-0.01033 0.0041,-0.0021 0.0083,-0.0041 0.0041,-0.0041 0.01034,-0.0083 0.0186,-0.0124 0.0186,-0.0124 0.0041,-0.0021 0.0083,-0.0041 0.0062,-0.0041 0.0124,-0.0083 0.0041,-0.0021 0.0083,-0.0062 0.0041,-0.0041 0.01033,-0.0083 0.0041,-0.0021 0.0083,-0.0041 0.0041,-0.0041 0.01033,-0.0083 0.0041,-0.0041 0.02067,-0.01654 0.01654,-0.01654 0.01654,-0.01654 0.0041,-0.0041 0.0083,-0.0083 0.0041,-0.0041 0.01033,-0.01034 0.0041,-0.0041 0.0083,-0.0083 0.0041,-0.0041 0.01033,-0.01034 0.0062,-0.0041 0.0186,-0.01654 0.0041,-0.0041 0.0083,-0.0083 0.0041,-0.0041 0.01033,-0.01033 0.0041,-0.0041 0.0083,-0.0083 0.0041,-0.0062 0.01033,-0.0124 0.02481,-0.03307 0.01654,-0.02067 0.01447,-0.01447 0.0186,-0.02274 0.0186,-0.0248 0.01654,-0.02274 0.0041,-0.0062 0.0083,-0.01034 0.0041,-0.0062 0.01033,-0.0124 0.0041,-0.0062 0.0062,-0.0124 0.0041,-0.0062 0.01034,-0.0124 0.0021,-0.0062 0.0062,-0.0124 0.0062,-0.0083 0.01034,-0.01447 0.0124,-0.01654 0.01654,-0.02481 0.0041,-0.0062 0.0062,-0.0124 0.0041,-0.0083 0.01033,-0.01447 0.0041,-0.0062 0.0062,-0.0124 0.0041,-0.0083 0.01033,-0.01447 0.0041,-0.01034 0.0124,-0.02687 0.0041,-0.0062 0.0062,-0.01447 0.0041,-0.0083 0.01033,-0.01654 0.0041,-0.0062 0.0062,-0.0124 0.0041,-0.0083 0.01034,-0.01654 0.0021,-0.0062 0.0041,-0.01447 0.0041,-0.0083 0.0083,-0.01654 0.0062,-0.01033 0.01447,-0.03101 0.02067,-0.05168 0.01447,-0.03307 0.0021,-0.0062 0.0041,-0.01447 0.0041,-0.01033 0.0083,-0.0186 0.0021,-0.0083 0.0041,-0.01654 0.0041,-0.0083 0.0083,-0.0186 0.0062,-0.0186 0.01034,-0.03307 0.0021,-0.0083 0.0041,-0.01654 0.0041,-0.0083 0.0083,-0.0186 -0.0083,0.02067 0.01033,-0.03514 0.0041,-0.01033 0.0124,-0.03514 0,-0.0083 0.0021,-0.01654 0.0041,-0.01034 0.0062,-0.02067 0.0021,-0.0083 0.0041,-0.01654 0.0021,-0.01034 0.0062,-0.02067 0,-0.0062 0.0021,-0.01447 0.0041,-0.01034 0.0062,-0.02067 0.0021,-0.01447 0.0062,-0.03927 0,-0.0083 0.0021,-0.01654 0.0041,-0.01034 0.0062,-0.02067 0,-0.0083 0.0021,-0.01654 0.0021,-0.01034 0.0041,-0.02067 0.0021,-0.01447 0.0062,-0.03927 0,-0.0083 0.0021,-0.0186 0.0041,-0.01034 0.0062,-0.02067 0,-0.01447 0.0041,-0.03927 0,-0.0083 0,-0.01654 0.0021,-0.01034 0.0041,-0.02274 0.0041,-0.02481 0.0041,-0.03927 0.0021,-0.01447 0.0021,-0.03927 0.0021,-0.01447 0.0021,-0.04134 0.0021,-0.01447 0.0021,-0.03927 0,-0.01034 0,-0.0186 0.0021,-0.01033 0.0041,-0.02274 0,-0.0083 0,-0.01654 0.0021,-0.01034 0.0021,-0.02274 0,-0.0083 0,-0.0186 0,-0.01033 0,-0.02067 0,-0.01033 0,-0.0186 0,-0.01033 0,-0.02067 0,-0.01033 -0.0021,-0.0186 0,-0.01033 0,-0.02274 0,-0.0083 0,-0.0186 0,-0.01034 0,-0.02067 0,-0.0124 -0.0041,-0.04134 0,-0.02481 -0.0021,-0.03721 0,-0.01447 -0.0041,-0.04341 0,-0.02481 -0.0021,-0.03721 0,-0.01447 -0.0041,-0.03927 -0.0021,-0.0083 -0.0041,-0.0186 0,-0.01034 0,-0.02067 -0.0041,-0.02481 -0.0083,-0.03927 -0.0021,-0.0083 -0.0041,-0.01654 -0.0021,-0.01034 -0.0021,-0.02067 -0.0021,-0.01447 -0.0062,-0.03927 -0.0021,-0.01447 -0.0062,-0.03927 -0.0083,-0.02481 -0.01034,-0.03721 -0.0041,-0.02481 -0.0062,-0.03514 -0.0041,-0.0083 -0.0062,-0.01654 -0.0021,-0.01034 -0.0041,-0.02067 -0.0021,-0.0083 -0.0062,-0.01654 -0.0041,-0.01033 -0.0041,-0.02067 -0.0186,-0.05581 -0.01034,-0.03514 -0.0041,-0.01447 -0.01033,-0.03514 -0.0041,-0.0062 -0.0083,-0.01447 -0.0021,-0.01033 -0.0041,-0.0186 -0.0021,-0.0062 -0.0124,-0.03514 -0.0083,-0.02067 -0.0124,-0.03307 -0.0041,-0.0062 -0.0083,-0.01447 -0.0021,-0.01034 -0.0041,-0.0186 -0.0041,-0.0062 -0.0083,-0.01447 -0.0041,-0.0083 -0.0062,-0.01654 -0.0083,-0.02067 -0.01447,-0.03101 -0.0083,-0.02067 -0.0124,-0.02894 -0.0083,-0.02067 -0.01447,-0.03101 -0.0041,-0.0062 -0.0083,-0.0124 -0.0041,-0.0083 -0.0062,-0.01447 -0.0124,-0.02067 -0.01654,-0.02894 -0.0186,-0.02894 -0.01654,-0.02687 -0.0062,-0.0062 -0.01033,-0.0124 -0.0021,-0.0083 -0.0062,-0.01447 -0.0041,-0.0083 -0.01654,-0.0248 -0.0041,-0.0062 -0.0083,-0.0124 -0.0041,-0.0062 -0.0062,-0.0124 -0.01034,-0.0186 -0.03514,-0.04754 -0.0041,-0.0041 -0.03307,-0.04548 -0.02481,-0.02894 -0.03721,-0.04134 -0.0124,-0.01447 -0.03721,-0.03927 -0.01654,-0.0186 -0.03514,-0.03514 -0.01447,-0.01033 -0.03927,-0.03101 -0.02067,-0.01654 -0.03927,-0.03101 -0.04754,-0.03101 -0.03927,-0.02687 -0.04134,-0.02481 -0.03721,-0.02274 0,0 -0.03721,-0.0186 -0.0083,-0.0041 -0.03927,-0.01447 -0.02687,-0.01033 -0.03927,-0.01447 -0.01034,-0.0021 -0.0186,-0.0041 -0.0083,-0.0041 -0.01654,-0.0083 -0.03721,-0.0062 -0.03721,-0.0062 -0.0124,-0.0021 -0.03721,-0.0021 -0.0062,0 -0.01034,0 -0.0041,0 -0.0083,0 H 63.33444 v 3.067511 0 z"
             style="font-size:4.23333px;fill:#00ff00;stroke-width:0.264583"
             id="path1513" />
          <path
             d="m 68.779064,55.098123 v 0.04134 q -0.0062,0.103353 -0.0083,0.124023 -0.08682,0.632519 -0.518831,0.934309 -0.432014,0.299723 -0.921907,0.28112 -0.489892,-0.02067 -0.897102,-0.357601 -0.405143,-0.33693 -0.440283,-0.981851 v -0.04134 -2.54868 q 0,-0.06201 0.02274,-0.111621 0.09922,-0.217041 0.328662,-0.171565 0.23151,0.04547 0.23151,0.283186 v 2.54868 q 0.03101,0.475423 0.417545,0.711067 0.388607,0.235644 0.816487,-0.02067 0.192236,-0.113688 0.28112,-0.293522 0.09095,-0.179833 0.107487,-0.396874 v -2.54868 q 0,-0.03721 0.0041,-0.05581 0.04754,-0.254248 0.312125,-0.229443 0.264583,0.0248 0.264583,0.285253 z"
             style="font-size:4.23333px;fill:#00ff00;stroke-width:0.264583"
             id="path1515" />
          <path
             d="m 72.365406,56.203998 q -0.04548,0.289387 -0.293522,0.289387 -0.24598,-0.0021 -0.289388,-0.289387 v -2.581753 l -0.709,1.213362 q -0.113688,0.136425 -0.254248,0.142627 -0.138493,0.0062 -0.248047,-0.142627 l -0.704866,-1.207161 0.0021,2.575552 q -0.03307,0.28732 -0.299724,0.28732 -0.264583,-0.0021 -0.285253,-0.28732 v -3.650421 q 0.01654,-0.237711 0.208772,-0.283186 0.192237,-0.04754 0.334863,0.130224 l 0.994254,1.709455 1.004589,-1.709455 q 0.142627,-0.177766 0.330729,-0.130224 0.190169,0.04754 0.208773,0.283186 z"
             style="font-size:4.23333px;fill:#00ff00;stroke-width:0.264583"
             id="path1517" />
          <path
             d="m 74.451065,52.260056 h 0.03927 q 0.264583,0.0186 0.487825,0.119889 0.42788,0.200504 0.605647,0.65939 0.177767,0.458887 -0.0041,0.895036 -0.146761,0.345198 -0.434082,0.541568 -0.287321,0.194303 -0.655256,0.217041 l -0.03927,0.0021 h -1.004589 v 1.506883 q -0.03721,0.291455 -0.293522,0.291455 -0.256315,0 -0.291455,-0.291455 v -3.652487 q 0.03101,-0.256315 0.272851,-0.289387 h 0.0186 z m 0,0.582909 h -1.004589 v 1.267105 h 1.004589 q 0.235644,0 0.415478,-0.157096 0.181901,-0.157096 0.212906,-0.392741 0.03721,-0.285253 -0.152962,-0.500227 -0.190169,-0.217041 -0.475422,-0.217041 z"
             style="font-size:4.23333px;fill:#00ff00;stroke-width:0.264583"
             id="path1519" />
        </g>
        <g
           aria-label="norm"
           id="text1904-3-7-2"
           style="font-size:9.87777px;line-height:1.25;font-family:'MS 33558';-inkscape-font-specification:'MS 33558, ';fill:#00ff00;stroke-width:0.264583">
          <path
             d="m 65.39375,67.924723 q 0,0.21704 -0.21084,0.276985 -0.208772,0.05788 -0.324527,-0.124023 l -1.736327,-2.784324 v 2.631362 q -0.04548,0.289387 -0.293522,0.289387 -0.245979,0 -0.289388,-0.289387 v -3.650421 q 0.03101,-0.214973 0.219108,-0.283186 0.190169,-0.06821 0.31626,0.128157 l 1.736326,2.788458 v -2.633429 q 0.03928,-0.295589 0.299724,-0.291454 0.262516,0.0021 0.283186,0.291454 z"
             style="font-size:4.23333px;fill:#00ff00;stroke-width:0.264583"
             id="path1522" />
          <path
             d="m 68.736179,65.194142 q 0.190169,0.572575 0.142627,1.188557 -0.04548,0.615983 -0.33693,1.124478 -0.183968,0.31626 -0.502295,0.537435 -0.318326,0.221175 -0.702799,0.155029 -0.626318,-0.109554 -0.959114,-0.65319 -0.332795,-0.543635 -0.382405,-1.209227 -0.04754,-0.667659 0.179834,-1.300178 0.229443,-0.632519 0.729671,-0.91984 0.243912,-0.14056 0.510562,-0.14056 0.508496,0 0.830957,0.384473 0.32246,0.382405 0.489892,0.833023 z M 67.431867,64.56369 q -0.380338,0 -0.576709,0.409277 -0.194303,0.409277 -0.245979,0.698665 -0.03927,0.21084 -0.02894,0.510563 0.01033,0.299723 0.08682,0.593245 0.07648,0.291454 0.229443,0.527099 0.152963,0.233577 0.401009,0.310058 0.289388,0.09095 0.498161,-0.113688 0.210839,-0.206705 0.318326,-0.438216 0.109554,-0.237711 0.148828,-0.62425 0.04134,-0.38654 -0.0186,-0.771012 -0.05788,-0.38654 -0.229444,-0.694531 -0.171565,-0.310058 -0.487825,-0.394807 -0.04134,-0.0124 -0.09508,-0.0124 z"
             style="font-size:4.23333px;fill:#00ff00;stroke-width:0.264583"
             id="path1524" />
          <path
             d="m 72.045535,67.761425 q 0.132291,0.233577 -0.07441,0.392741 -0.09922,0.07028 -0.229443,0.04754 -0.128158,-0.02274 -0.188103,-0.128157 l -1.019058,-1.610237 h -0.516764 v 1.455207 q 0,0.179834 -0.163297,0.260449 -0.163298,0.07855 -0.305924,-0.03101 -0.113688,-0.08475 -0.113688,-0.229444 v -3.652487 q 0,-0.119889 0.08268,-0.204638 0.08475,-0.08475 0.206705,-0.08475 h 1.283642 q 0.46302,0 0.804084,0.295589 0.341065,0.293522 0.423747,0.746207 0.08682,0.485758 -0.206706,0.909505 -0.291455,0.421679 -0.775146,0.51263 l -0.03927,0.0062 z m -1.037662,-1.878953 q 0.210839,0 0.388606,-0.128158 0.179834,-0.128157 0.241846,-0.334863 0.09715,-0.318326 -0.08888,-0.574641 -0.186035,-0.258382 -0.512629,-0.285254 h -1.019059 v 1.322916 z"
             style="font-size:4.23333px;fill:#00ff00;stroke-width:0.264583"
             id="path1526" />
          <path
             d="m 75.886124,67.920588 q -0.04547,0.289388 -0.293522,0.289388 -0.24598,-0.0021 -0.289388,-0.289388 v -2.581752 l -0.709,1.213362 q -0.113688,0.136425 -0.254248,0.142626 -0.138493,0.0062 -0.248046,-0.142626 l -0.704866,-1.207161 0.0021,2.575551 q -0.03307,0.287321 -0.299723,0.287321 -0.264584,-0.0021 -0.285254,-0.287321 v -3.65042 q 0.01654,-0.237711 0.208773,-0.283186 0.192236,-0.04754 0.334863,0.130224 l 0.994253,1.709455 1.004589,-1.709455 q 0.142627,-0.177767 0.330729,-0.130224 0.190169,0.04754 0.208773,0.283186 z"
             style="font-size:4.23333px;fill:#00ff00;stroke-width:0.264583"
             id="path1528" />
        </g>
      </g>
      <g
         id="g1029"
         transform="translate(4.6699767,51.730723)">
        <g
           aria-label="incr"
           id="text1904-3-7-8"
           style="font-size:9.87777px;line-height:1.25;font-family:'MS 33558';-inkscape-font-specification:'MS 33558, ';fill:#00ff00;stroke-width:0.264583">
          <path
             d="m 96.070183,56.20587 q -0.04547,0.291454 -0.295589,0.289387 -0.248047,0 -0.291455,-0.289387 v -3.654555 q 0.04341,-0.291455 0.291455,-0.291455 0.250114,-0.0021 0.295589,0.291455 z"
             style="font-size:4.23333px;fill:#00ff00;stroke-width:0.264583"
             id="path1531" />
          <path
             d="m 99.51183,56.20587 q 0,0.21704 -0.210839,0.276985 -0.208773,0.05788 -0.324528,-0.124023 l -1.736327,-2.784324 v 2.631362 q -0.04548,0.289387 -0.293522,0.289387 -0.245979,0 -0.289387,-0.289387 v -3.650421 q 0.031,-0.214973 0.219107,-0.283186 0.19017,-0.06821 0.31626,0.128157 l 1.736327,2.788458 v -2.633429 q 0.03927,-0.295589 0.299723,-0.291454 0.262516,0.0021 0.283186,0.291454 z"
             style="font-size:4.23333px;fill:#00ff00;stroke-width:0.264583"
             id="path1533" />
          <path
             d="m 102.76744,55.829665 -0.0186,0.02687 q -0.006,0.0083 -0.0103,0.01447 -0.004,0.0062 -0.008,0.0124 -0.28319,0.382405 -0.74414,0.545703 -0.45889,0.16123 -0.90537,-0.05995 -0.51884,-0.258382 -0.76275,-0.876432 -0.24184,-0.618049 -0.20877,-1.283641 0.0351,-0.667659 0.3514,-1.225764 0.31832,-0.558105 0.92191,-0.698665 0.34726,-0.08061 0.69246,0.06821 0.3452,0.146761 0.56637,0.413411 0.002,0 0.0103,0.01447 0.0951,0.124024 0.0393,0.272852 -0.0558,0.146761 -0.20464,0.183968 -0.15916,0.04134 -0.29352,-0.09508 -0.27698,-0.32246 -0.5333,-0.310058 -0.25631,0.0124 -0.45889,0.21084 -0.20257,0.198437 -0.33693,0.508495 -0.13435,0.310059 -0.16536,0.580843 -0.0372,0.30179 0.006,0.607714 0.0455,0.303857 0.1881,0.572575 0.24805,0.471288 0.62425,0.591177 0.37827,0.117823 0.73794,-0.361734 0.0165,-0.02067 0.0393,-0.05374 0.1943,-0.214974 0.40927,-0.04341 0.21704,0.169499 0.0641,0.384472 z"
             style="font-size:4.23333px;fill:#00ff00;stroke-width:0.264583"
             id="path1535" />
          <path
             d="m 105.95484,56.042572 q 0.13229,0.233577 -0.0744,0.392741 -0.0992,0.07028 -0.22944,0.04754 -0.12816,-0.02274 -0.18811,-0.128157 l -1.01905,-1.610237 h -0.51677 v 1.455207 q 0,0.179834 -0.1633,0.260449 -0.16329,0.07855 -0.30592,-0.031 -0.11369,-0.08475 -0.11369,-0.229444 v -3.652487 q 0,-0.119889 0.0827,-0.204638 0.0847,-0.08475 0.20671,-0.08475 h 1.28364 q 0.46302,0 0.80409,0.295589 0.34106,0.293522 0.42374,0.746207 0.0868,0.485758 -0.2067,0.909505 -0.29146,0.421679 -0.77515,0.51263 l -0.0393,0.0062 z m -1.03766,-1.878953 q 0.21084,0 0.38861,-0.128158 0.17983,-0.128157 0.24184,-0.334863 0.0971,-0.318326 -0.0889,-0.574641 -0.18604,-0.258382 -0.51263,-0.285254 h -1.01906 v 1.322916 z"
             style="font-size:4.23333px;fill:#00ff00;stroke-width:0.264583"
             id="path1537" />
        </g>
        <g
           aria-label="decr"
           id="text1904-3-7-76"
           style="font-size:9.87777px;line-height:1.25;font-family:'MS 33558';-inkscape-font-specification:'MS 33558, ';fill:#00ff00;stroke-width:0.264583">
          <path
             d="m 94.883695,63.975685 h 0.973583 q 0.725536,0 1.087271,0.661458 0.361735,0.661458 0.361735,1.455207 0,0.793749 -0.363802,1.455207 -0.361735,0.661458 -1.085204,0.661458 h -0.973583 0.0041 -0.0041 q -0.06821,-0.01033 -0.07441,-0.0124 -0.214974,-0.05168 -0.212907,-0.28112 h -0.0021 l 0.0021,-3.65042 q -0.0021,-0.0062 -0.0021,-0.01654 0.0062,-0.113688 0.08888,-0.192236 0.08475,-0.08061 0.202572,-0.08061 z m 0.973583,3.65042 q 0.0041,0 0.0083,0 0.0041,0 0.01034,0 0.0041,0 0.0062,0 0.0041,-0.0021 0.01034,-0.0021 0.0041,0 0.0083,0 0.0062,-0.0021 0.0124,-0.0021 0.0041,0 0.0083,0 0.0041,-0.0021 0.01033,-0.0021 0.0041,0 0.0083,0 0.0041,-0.0021 0.01033,-0.0021 0.0083,-0.0041 0.01654,-0.0041 0.0041,0 0.0083,-0.0021 0.0041,-0.0041 0.01033,-0.0062 0.0041,0 0.0083,0 0.0062,-0.0021 0.0124,-0.0041 0.0041,0 0.0083,-0.0021 0.0041,-0.0021 0.01033,-0.0041 0.0124,-0.0041 0.0186,-0.0083 0.03721,-0.0124 0.02067,-0.0083 0.0041,0 0.0083,-0.0021 0.0041,-0.0041 0.01033,-0.0062 0.0186,-0.0124 0.01654,-0.01034 0.02067,-0.01034 0.02067,-0.01034 0.0041,-0.0021 0.0083,-0.0041 0.0041,-0.0041 0.01033,-0.0083 0.0186,-0.0124 0.0186,-0.0124 0.0041,-0.0021 0.0083,-0.0041 0.0062,-0.0041 0.0124,-0.0083 0.0041,-0.0021 0.0083,-0.0062 0.0041,-0.0041 0.01033,-0.0083 0.0041,-0.0021 0.0083,-0.0041 0.0041,-0.0041 0.01033,-0.0083 0.0041,-0.0041 0.02067,-0.01654 0.01654,-0.01654 0.01654,-0.01654 0.0041,-0.0041 0.0083,-0.0083 0.0041,-0.0041 0.01033,-0.01033 0.0041,-0.0041 0.0083,-0.0083 0.0041,-0.0041 0.01033,-0.01033 0.0062,-0.0041 0.0186,-0.01654 0.0041,-0.0041 0.0083,-0.0083 0.0041,-0.0041 0.01033,-0.01033 0.0041,-0.0041 0.0083,-0.0083 0.0041,-0.0062 0.01033,-0.0124 0.02481,-0.03307 0.01654,-0.02067 0.01447,-0.01447 0.0186,-0.02274 0.0186,-0.02481 0.01654,-0.02274 0.0041,-0.0062 0.0083,-0.01033 0.0041,-0.0062 0.01034,-0.0124 0.0041,-0.0062 0.0062,-0.0124 0.0041,-0.0062 0.01033,-0.0124 0.0021,-0.0062 0.0062,-0.0124 0.0062,-0.0083 0.01034,-0.01447 0.0124,-0.01654 0.01654,-0.0248 0.0041,-0.0062 0.0062,-0.0124 0.0041,-0.0083 0.01034,-0.01447 0.0041,-0.0062 0.0062,-0.0124 0.0041,-0.0083 0.01033,-0.01447 0.0041,-0.01034 0.0124,-0.02687 0.0041,-0.0062 0.0062,-0.01447 0.0041,-0.0083 0.01034,-0.01654 0.0041,-0.0062 0.0062,-0.0124 0.0041,-0.0083 0.01033,-0.01654 0.0021,-0.0062 0.0041,-0.01447 0.0041,-0.0083 0.0083,-0.01654 0.0062,-0.01033 0.01447,-0.03101 0.02067,-0.05168 0.01447,-0.03307 0.0021,-0.0062 0.0041,-0.01447 0.0041,-0.01033 0.0083,-0.0186 0.0021,-0.0083 0.0041,-0.01654 0.0041,-0.0083 0.0083,-0.0186 0.0062,-0.0186 0.01033,-0.03307 0.0021,-0.0083 0.0041,-0.01654 0.0041,-0.0083 0.0083,-0.0186 -0.0083,0.02067 0.01033,-0.03514 0.0041,-0.01034 0.0124,-0.03514 0,-0.0083 0.0021,-0.01654 0.0041,-0.01033 0.0062,-0.02067 0.0021,-0.0083 0.0041,-0.01654 0.0021,-0.01033 0.0062,-0.02067 0,-0.0062 0.0021,-0.01447 0.0041,-0.01033 0.0062,-0.02067 0.0021,-0.01447 0.0062,-0.03927 0,-0.0083 0.0021,-0.01654 0.0041,-0.01033 0.0062,-0.02067 0,-0.0083 0.0021,-0.01654 0.0021,-0.01034 0.0041,-0.02067 0.0021,-0.01447 0.0062,-0.03927 0,-0.0083 0.0021,-0.0186 0.0041,-0.01033 0.0062,-0.02067 0,-0.01447 0.0041,-0.03927 0,-0.0083 0,-0.01654 0.0021,-0.01033 0.0041,-0.02274 0.0041,-0.02481 0.0041,-0.03928 0.0021,-0.01447 0.0021,-0.03927 0.0021,-0.01447 0.0021,-0.04134 0.0021,-0.01447 0.0021,-0.03927 0,-0.01033 0,-0.0186 0.0021,-0.01034 0.0041,-0.02274 0,-0.0083 0,-0.01654 0.0021,-0.01034 0.0021,-0.02274 0,-0.0083 0,-0.0186 0,-0.01034 0,-0.02067 0,-0.01033 0,-0.0186 0,-0.01034 0,-0.02067 0,-0.01033 -0.0021,-0.0186 0,-0.01033 0,-0.02274 0,-0.0083 0,-0.0186 0,-0.01034 0,-0.02067 0,-0.0124 -0.0041,-0.04134 0,-0.02481 -0.0021,-0.03721 0,-0.01447 -0.0041,-0.04341 0,-0.02481 -0.0021,-0.03721 0,-0.01447 -0.0041,-0.03928 -0.0021,-0.0083 -0.0041,-0.0186 0,-0.01033 0,-0.02067 -0.0041,-0.0248 -0.0083,-0.03927 -0.0021,-0.0083 -0.0041,-0.01654 -0.0021,-0.01033 -0.0021,-0.02067 -0.0021,-0.01447 -0.0062,-0.03927 -0.0021,-0.01447 -0.0062,-0.03927 -0.0083,-0.0248 -0.01033,-0.03721 -0.0041,-0.0248 -0.0062,-0.03514 -0.0041,-0.0083 -0.0062,-0.01654 -0.0021,-0.01033 -0.0041,-0.02067 -0.0021,-0.0083 -0.0062,-0.01654 -0.0041,-0.01033 -0.0041,-0.02067 -0.0186,-0.05581 -0.01034,-0.03514 -0.0041,-0.01447 -0.01033,-0.03514 -0.0041,-0.0062 -0.0083,-0.01447 -0.0021,-0.01033 -0.0041,-0.0186 -0.0021,-0.0062 -0.0124,-0.03514 -0.0083,-0.02067 -0.0124,-0.03307 -0.0041,-0.0062 -0.0083,-0.01447 -0.0021,-0.01034 -0.0041,-0.0186 -0.0041,-0.0062 -0.0083,-0.01447 -0.0041,-0.0083 -0.0062,-0.01654 -0.0083,-0.02067 -0.01447,-0.03101 -0.0083,-0.02067 -0.0124,-0.02894 -0.0083,-0.02067 -0.01447,-0.03101 -0.0041,-0.0062 -0.0083,-0.0124 -0.0041,-0.0083 -0.0062,-0.01447 -0.0124,-0.02067 -0.01654,-0.02894 -0.0186,-0.02894 -0.01654,-0.02687 -0.0062,-0.0062 -0.01034,-0.0124 -0.0021,-0.0083 -0.0062,-0.01447 -0.0041,-0.0083 -0.01654,-0.02481 -0.0041,-0.0062 -0.0083,-0.0124 -0.0041,-0.0062 -0.0062,-0.0124 -0.01033,-0.0186 -0.03514,-0.04754 -0.0041,-0.0041 -0.03307,-0.04547 -0.02481,-0.02894 -0.03721,-0.04134 -0.0124,-0.01447 -0.03721,-0.03927 -0.01654,-0.0186 -0.03514,-0.03514 -0.01447,-0.01034 -0.03927,-0.03101 -0.02067,-0.01654 -0.03927,-0.03101 -0.04754,-0.03101 -0.03927,-0.02687 -0.04134,-0.0248 -0.03721,-0.02274 0,0 -0.03721,-0.0186 -0.0083,-0.0041 -0.03927,-0.01447 -0.02687,-0.01034 -0.03927,-0.01447 -0.01033,-0.0021 -0.0186,-0.0041 -0.0083,-0.0041 -0.01654,-0.0083 -0.03721,-0.0062 -0.03721,-0.0062 -0.0124,-0.0021 -0.03721,-0.0021 -0.0062,0 -0.01034,0 -0.0041,0 -0.0083,0 H 95.17515 v 3.06751 0 z"
             style="font-size:4.23333px;fill:#00ff00;stroke-width:0.264583"
             id="path1540" />
          <path
             d="m 100.12781,64.552394 h -1.713584 v 1.130679 h 1.306379 q 0.293525,0.04341 0.291455,0.295589 0,0.250114 -0.291455,0.291455 h -1.306379 v 1.358055 h 1.713584 q 0.29146,0.04341 0.29146,0.291455 0,0.248047 -0.29146,0.289388 h -2.000905 q -0.258382,-0.03307 -0.293522,-0.293522 v -3.65042 q 0.03927,-0.272851 0.293522,-0.289388 h 2.000905 q 0.29146,0.02274 0.28939,0.291455 0,0.26665 -0.28939,0.285254 z"
             style="font-size:4.23333px;fill:#00ff00;stroke-width:0.264583"
             id="path1542" />
          <path
             d="m 103.65628,67.547557 -0.0186,0.02687 q -0.006,0.0083 -0.0103,0.01447 -0.004,0.0062 -0.008,0.0124 -0.28319,0.382405 -0.74414,0.545702 -0.45888,0.161231 -0.90537,-0.05994 -0.51883,-0.258382 -0.76274,-0.876432 -0.24185,-0.61805 -0.20878,-1.283641 0.0351,-0.667659 0.3514,-1.225764 0.31833,-0.558105 0.92191,-0.698665 0.34727,-0.08061 0.69246,0.06821 0.3452,0.146761 0.56638,0.413411 0.002,0 0.0103,0.01447 0.0951,0.124024 0.0393,0.272852 -0.0558,0.14676 -0.20464,0.183967 -0.15916,0.04134 -0.29352,-0.09508 -0.27699,-0.322461 -0.5333,-0.310058 -0.25632,0.0124 -0.45889,0.210839 -0.20257,0.198438 -0.33693,0.508496 -0.13436,0.310058 -0.16536,0.580843 -0.0372,0.30179 0.006,0.607714 0.0455,0.303857 0.1881,0.572574 0.24805,0.471289 0.62425,0.591178 0.37827,0.117822 0.73794,-0.361735 0.0165,-0.02067 0.0393,-0.05374 0.19431,-0.214974 0.40928,-0.04341 0.21704,0.169498 0.0641,0.384472 z"
             style="font-size:4.23333px;fill:#00ff00;stroke-width:0.264583"
             id="path1544" />
          <path
             d="m 106.84368,67.760464 q 0.13229,0.233577 -0.0744,0.39274 -0.0992,0.07028 -0.22944,0.04754 -0.12816,-0.02274 -0.1881,-0.128158 l -1.01906,-1.610236 h -0.51676 v 1.455207 q 0,0.179834 -0.1633,0.260449 -0.1633,0.07855 -0.30592,-0.03101 -0.11369,-0.08475 -0.11369,-0.229443 v -3.652487 q 0,-0.119889 0.0827,-0.204639 0.0847,-0.08475 0.20671,-0.08475 h 1.28364 q 0.46302,0 0.80408,0.295589 0.34107,0.293522 0.42375,0.746207 0.0868,0.485758 -0.20671,0.909505 -0.29145,0.421679 -0.77514,0.512629 l -0.0393,0.0062 z m -1.03766,-1.878954 q 0.21084,0 0.3886,-0.128157 0.17984,-0.128158 0.24185,-0.334863 0.0971,-0.318327 -0.0889,-0.574642 -0.18604,-0.258381 -0.51263,-0.285253 h -1.01906 v 1.322915 z"
             style="font-size:4.23333px;fill:#00ff00;stroke-width:0.264583"
             id="path1546" />
        </g>
      </g>
      <path
         id="path2618"
         style="fill:#ff0000;stroke:none;stroke-width:0.160909"
         d="m 111.12499,185.98199 a 3.175,3.175 0 0 1 -3.175,3.175 3.175,3.175 0 0 1 -3.175,-3.175 3.175,3.175 0 0 1 3.175,-3.175 3.175,3.175 0 0 1 3.175,3.175 z" />
      <path
         id="path2618-3"
         style="fill:#ff0000;stroke:none;stroke-width:0.160909"
         d="m 53.997803,63.429157 a 3.175,3.175 0 0 1 -3.175,3.175 3.175,3.175 0 0 1 -3.174999,-3.175 3.175,3.175 0 0 1 3.174999,-3.175 3.175,3.175 0 0 1 3.175,3.175 z" />
      <path
         id="path2618-2"
         style="fill:#ff0000;stroke:none;stroke-width:0.160909"
         d="m 168.57106,63.429157 a 3.175,3.175 0 0 1 -3.175,3.175 3.175,3.175 0 0 1 -3.175,-3.175 3.175,3.175 0 0 1 3.175,-3.175 3.175,3.175 0 0 1 3.175,3.175 z" />
      <g
         aria-label="temp"
         id="text2165-2-8-1"
         style="font-size:4.23333px;line-height:1.25;font-family:'MS 33558';-inkscape-font-specification:'MS 33558, ';text-align:center;word-spacing:-2.64583px;text-anchor:middle;fill:#00ff00;stroke-width:0.264583">
        <path
           d="M 49.679507,95.396213 V 92.03518 h -0.75861 q -0.289387,-0.02274 -0.289387,-0.289388 0.0021,-0.268717 0.289387,-0.293521 h 2.098062 q 0.285254,0.02274 0.285254,0.293521 0.0021,0.268718 -0.285254,0.289388 h -0.756542 v 3.361033 q -0.04754,0.293521 -0.305925,0.289387 -0.256315,-0.0041 -0.276985,-0.289387 z"
           style="font-size:4.23333px;text-align:center;text-anchor:middle;fill:#00ff00;stroke-width:0.264583"
           id="path1552" />
        <path
           d="m 54.216694,92.028979 h -1.713589 v 1.130679 h 1.306379 q 0.293522,0.04341 0.291455,0.295589 0,0.250114 -0.291455,0.291455 h -1.306379 v 1.358056 h 1.713589 q 0.291455,0.04341 0.291455,0.291455 0,0.248046 -0.291455,0.289387 h -2.00091 q -0.258382,-0.03307 -0.293522,-0.293522 v -3.65042 q 0.03927,-0.272851 0.293522,-0.289387 h 2.00091 q 0.291455,0.02274 0.289388,0.291454 0,0.266651 -0.289388,0.285254 z"
           style="font-size:4.23333px;text-align:center;text-anchor:middle;fill:#00ff00;stroke-width:0.264583"
           id="path1554" />
        <path
           d="M 58.16477,95.396213 Q 58.119295,95.6856 57.871248,95.6856 57.625269,95.683533 57.58186,95.396213 V 92.81446 l -0.709,1.213362 q -0.113688,0.136425 -0.254247,0.142627 -0.138493,0.0062 -0.248047,-0.142627 l -0.704866,-1.207161 0.0021,2.575552 q -0.03307,0.28732 -0.299723,0.28732 -0.264583,-0.0021 -0.285254,-0.28732 v -3.650421 q 0.01654,-0.237711 0.208773,-0.283186 0.192236,-0.04754 0.334863,0.130224 l 0.994254,1.709455 1.004589,-1.709455 q 0.142626,-0.177766 0.330729,-0.130224 0.190169,0.04754 0.208772,0.283186 z"
           style="font-size:4.23333px;text-align:center;text-anchor:middle;fill:#00ff00;stroke-width:0.264583"
           id="path1556" />
        <path
           d="m 60.25043,91.452271 h 0.03927 q 0.264583,0.0186 0.487825,0.119889 0.42788,0.200504 0.605647,0.65939 0.177767,0.458887 -0.0041,0.895036 -0.146761,0.345198 -0.434082,0.541568 -0.287321,0.194303 -0.655256,0.217041 l -0.03927,0.0021 h -1.004589 v 1.506883 q -0.03721,0.291455 -0.293522,0.291455 -0.256315,0 -0.291455,-0.291455 v -3.652487 q 0.03101,-0.256315 0.272851,-0.289387 h 0.0186 z m 0,0.582909 h -1.004589 v 1.267105 h 1.004589 q 0.235644,0 0.415478,-0.157096 0.181901,-0.157096 0.212906,-0.392741 0.03721,-0.285253 -0.152962,-0.500227 Q 60.535683,92.03518 60.25043,92.03518 Z"
           style="font-size:4.23333px;text-align:center;text-anchor:middle;fill:#00ff00;stroke-width:0.264583"
           id="path1558" />
      </g>
      <path
         id="path2534-1"
         style="fill:#ff0000;stroke:none;stroke-width:0.198101"
         d="m 61.401273,111.96555 a 6.3499999,6.3499999 0 0 1 -6.35,6.35 6.3499999,6.3499999 0 0 1 -6.35,-6.35 6.3499999,6.3499999 0 0 1 6.35,-6.35 6.3499999,6.3499999 0 0 1 6.35,6.35 z" />
      <g
         id="g1017"
         transform="translate(3.0136,51.730673)">
        <g
           aria-label="man"
           id="text1904-3-7-7-9"
           style="font-size:9.87777px;line-height:1.25;font-family:'MS 33558';-inkscape-font-specification:'MS 33558, ';fill:#00ff00;stroke-width:0.264583">
          <path
             d="m 34.306158,56.200454 q -0.04548,0.289387 -0.293522,0.289387 -0.245979,-0.0021 -0.289388,-0.289387 v -2.581753 l -0.709,1.213362 q -0.113688,0.136426 -0.254247,0.142627 -0.138493,0.0062 -0.248047,-0.142627 l -0.704866,-1.207161 0.0021,2.575552 q -0.03307,0.28732 -0.299723,0.28732 -0.264583,-0.0021 -0.285254,-0.28732 v -3.65042 q 0.01654,-0.237712 0.208773,-0.283187 0.192236,-0.04754 0.334863,0.130224 l 0.994254,1.709455 1.004589,-1.709455 q 0.142626,-0.177766 0.330729,-0.130224 0.190169,0.04754 0.208772,0.283187 z"
             style="font-size:4.23333px;fill:#00ff00;stroke-width:0.264583"
             id="path1562" />
          <path
             d="m 37.040873,55.131786 -0.628385,-1.736327 -0.632519,1.736327 z m -0.628385,-1.736327 0.628385,1.736327 z M 34.816721,56.0909 q 0.330729,-0.911572 0.661458,-1.821076 0.332796,-0.911572 0.665592,-1.823143 0.06821,-0.188102 0.270784,-0.190169 0.202571,-0.0021 0.272851,0.190169 l 1.324983,3.654554 q 0.06201,0.291455 -0.177767,0.376204 -0.239778,0.08475 -0.370003,-0.173633 l -0.212907,-0.591177 h -1.68465 l -0.206705,0.576708 q -0.132292,0.260449 -0.376205,0.171566 -0.243912,-0.09095 -0.167431,-0.370003 z"
             style="font-size:4.23333px;fill:#00ff00;stroke-width:0.264583"
             id="path1564" />
          <path
             d="m 41.274202,56.204588 q 0,0.217041 -0.210839,0.276985 -0.208773,0.05788 -0.324528,-0.124023 l -1.736327,-2.784324 v 2.631362 q -0.04547,0.289388 -0.293522,0.289388 -0.245979,0 -0.289387,-0.289388 v -3.65042 q 0.03101,-0.214974 0.219107,-0.283187 0.19017,-0.06821 0.31626,0.128158 l 1.736327,2.788457 v -2.633428 q 0.03927,-0.295589 0.299723,-0.291455 0.262516,0.0021 0.283186,0.291455 z"
             style="font-size:4.23333px;fill:#00ff00;stroke-width:0.264583"
             id="path1566" />
        </g>
        <g
           aria-label="auto"
           id="text1904-3-7-2-2"
           style="font-size:9.87777px;line-height:1.25;font-family:'MS 33558';-inkscape-font-specification:'MS 33558, ';fill:#00ff00;stroke-width:0.264583">
          <path
             d="m 31.939619,66.849784 -0.628384,-1.736326 -0.632519,1.736326 z m -0.628384,-1.736326 0.628384,1.736326 z m -1.595767,2.69544 q 0.330729,-0.911571 0.661457,-1.821076 0.332796,-0.911571 0.665592,-1.823143 0.06821,-0.188102 0.270785,-0.190169 0.202571,-0.0021 0.272851,0.190169 l 1.324983,3.654555 q 0.06201,0.291454 -0.177767,0.376204 -0.239779,0.08475 -0.370003,-0.173633 l -0.212907,-0.591178 h -1.68465 l -0.206706,0.576709 q -0.132291,0.260449 -0.376204,0.171565 -0.243912,-0.09095 -0.167431,-0.370003 z"
             style="font-size:4.23333px;fill:#00ff00;stroke-width:0.264583"
             id="path1569" />
          <path
             d="m 36.104736,66.812577 v 0.04134 q -0.0062,0.103352 -0.0083,0.124023 -0.08682,0.632519 -0.518831,0.934309 -0.432014,0.299723 -0.921907,0.28112 -0.489892,-0.02067 -0.897102,-0.357601 -0.405143,-0.33693 -0.440282,-0.981851 v -0.04134 -2.548679 q 0,-0.06201 0.02274,-0.111621 0.09922,-0.217041 0.328662,-0.171566 0.23151,0.04548 0.23151,0.283187 v 2.548679 q 0.03101,0.475423 0.417545,0.711068 0.388607,0.235644 0.816487,-0.02067 0.192237,-0.113688 0.28112,-0.293522 0.09095,-0.179834 0.107487,-0.396875 v -2.548679 q 0,-0.03721 0.0041,-0.05581 0.04754,-0.254247 0.312125,-0.229443 0.264583,0.02481 0.264583,0.285254 z"
             style="font-size:4.23333px;fill:#00ff00;stroke-width:0.264583"
             id="path1571" />
          <path
             d="M 37.657095,67.918452 V 64.55742 h -0.758609 q -0.289388,-0.02274 -0.289388,-0.289388 0.0021,-0.268717 0.289388,-0.293522 h 2.098061 q 0.285254,0.02274 0.285254,0.293522 0.0021,0.268717 -0.285254,0.289388 h -0.756542 v 3.361032 q -0.04754,0.293522 -0.305924,0.289388 -0.256315,-0.0041 -0.276986,-0.289388 z"
             style="font-size:4.23333px;fill:#00ff00;stroke-width:0.264583"
             id="path1573" />
          <path
             d="m 42.649035,65.192006 q 0.190169,0.572574 0.142627,1.188557 -0.04548,0.615982 -0.33693,1.124478 -0.183968,0.31626 -0.502295,0.537435 -0.318327,0.221174 -0.702799,0.155029 -0.626318,-0.109554 -0.959114,-0.65319 -0.332796,-0.543635 -0.382405,-1.209227 -0.04754,-0.667659 0.179834,-1.300178 0.229443,-0.632519 0.729671,-0.91984 0.243912,-0.14056 0.510562,-0.14056 0.508496,0 0.830957,0.384473 0.32246,0.382405 0.489892,0.833023 z m -1.304312,-0.630452 q -0.380339,0 -0.576709,0.409277 -0.194303,0.409277 -0.245979,0.698665 -0.03927,0.210839 -0.02894,0.510562 0.01033,0.299724 0.08682,0.593245 0.07648,0.291455 0.229443,0.5271 0.152962,0.233577 0.401009,0.310058 0.289388,0.09095 0.49816,-0.113688 0.21084,-0.206706 0.318327,-0.438216 0.109554,-0.237711 0.148828,-0.624251 0.04134,-0.386539 -0.0186,-0.771011 -0.05788,-0.38654 -0.229444,-0.694531 -0.171565,-0.310058 -0.487825,-0.394808 -0.04134,-0.0124 -0.09508,-0.0124 z"
             style="font-size:4.23333px;fill:#00ff00;stroke-width:0.264583"
             id="path1575" />
        </g>
      </g>
    </g>
  </g>
</svg>
