<?xml version="1.0" encoding="UTF-8" standalone="no"?>
<svg
   xmlns:dc="http://purl.org/dc/elements/1.1/"
   xmlns:cc="http://creativecommons.org/ns#"
   xmlns:rdf="http://www.w3.org/1999/02/22-rdf-syntax-ns#"
   xmlns:svg="http://www.w3.org/2000/svg"
   xmlns="http://www.w3.org/2000/svg"
   xmlns:sodipodi="http://sodipodi.sourceforge.net/DTD/sodipodi-0.dtd"
   xmlns:inkscape="http://www.inkscape.org/namespaces/inkscape"
   width="210mm"
   height="297mm"
   viewBox="0 0 210 297"
   version="1.1"
   id="svg2434"
   inkscape:version="1.0.2 (e86c870879, 2021-01-15, custom)"
   sodipodi:docname="Air Source Panel Bottom.svg">
  <defs
     id="defs2428" />
  <sodipodi:namedview
     id="base"
     pagecolor="#ffffff"
     bordercolor="#666666"
     borderopacity="1.0"
     inkscape:pageopacity="0.0"
     inkscape:pageshadow="2"
     inkscape:zoom="1"
     inkscape:cx="400"
     inkscape:cy="560"
     inkscape:document-units="mm"
     inkscape:current-layer="layer1"
     inkscape:document-rotation="0"
     showgrid="false"
     inkscape:window-width="2560"
     inkscape:window-height="1361"
     inkscape:window-x="-9"
     inkscape:window-y="-9"
     inkscape:window-maximized="1" />
  <metadata
     id="metadata2431">
    <rdf:RDF>
      <cc:Work
         rdf:about="">
        <dc:format>image/svg+xml</dc:format>
        <dc:type
           rdf:resource="http://purl.org/dc/dcmitype/StillImage" />
        <dc:title />
      </cc:Work>
    </rdf:RDF>
  </metadata>
  <g
     inkscape:label="Layer 1"
     inkscape:groupmode="layer"
     id="layer1">
    <g
       id="g937">
      <path
         id="rect2616-4-8"
         style="fill:none;stroke:#000000;stroke-width:0.25;stroke-miterlimit:4;stroke-dasharray:none;stroke-opacity:1"
         d="M 4.358245,73.1498 H 175.55842 V 212.6002 H 4.358245 Z" />
      <path
         id="path2731-1-8"
         style="fill:#ff0000;stroke:none;stroke-width:0.249595;stroke-miterlimit:4;stroke-dasharray:none;stroke-opacity:1"
         d="m 17.514048,85.62746 a 3.1703737,3.1693274 0 0 1 -3.170374,3.16933 3.1703737,3.1693274 0 0 1 -3.170373,-3.16933 3.1703737,3.1693274 0 0 1 3.170373,-3.16932 3.1703737,3.1693274 0 0 1 3.170374,3.16932 z" />
      <path
         id="path2731-8-5-2"
         style="fill:#ff0000;stroke:none;stroke-width:0.249595;stroke-miterlimit:4;stroke-dasharray:none;stroke-opacity:1"
         d="m 17.514048,200.12255 a 3.1703737,3.1693274 0 0 1 -3.170374,3.16933 3.1703737,3.1693274 0 0 1 -3.170373,-3.16933 3.1703737,3.1693274 0 0 1 3.170373,-3.16932 3.1703737,3.1693274 0 0 1 3.170374,3.16932 z" />
      <path
         id="path2731-8-1-5-3"
         style="fill:#ff0000;stroke:none;stroke-width:0.249595;stroke-miterlimit:4;stroke-dasharray:none;stroke-opacity:1"
         d="m 168.74336,200.12255 a 3.1703737,3.1693274 0 0 1 -3.17037,3.16933 3.1703737,3.1693274 0 0 1 -3.17037,-3.16933 3.1703737,3.1693274 0 0 1 3.17037,-3.16932 3.1703737,3.1693274 0 0 1 3.17037,3.16932 z" />
      <path
         id="path2731-8-19-4-1"
         style="fill:#ff0000;stroke:none;stroke-width:0.249595;stroke-miterlimit:4;stroke-dasharray:none;stroke-opacity:1"
         d="m 168.74336,85.62746 a 3.1703737,3.1693274 0 0 1 -3.17037,3.16933 3.1703737,3.1693274 0 0 1 -3.17037,-3.16933 3.1703737,3.1693274 0 0 1 3.17037,-3.16932 3.1703737,3.1693274 0 0 1 3.17037,3.16932 z" />
      <path
         id="rect1894-4-3-6-7"
         style="fill:#ff0000;stroke-width:0.144351;stroke-miterlimit:4;stroke-dasharray:none"
         d="m 33.858652,170.88175 v 20.32021 h 15.400094 v 14.47094 h 20.00033 v -14.47094 h 15.399576 v -20.32021 z" />
      <path
         id="path2618-3-9-4"
         style="fill:#ff0000;stroke:none;stroke-width:0.160909"
         d="m 36.131284,82.86879 a 3.175,3.175 0 0 1 -3.175,3.175 3.175,3.175 0 0 1 -3.174999,-3.175 3.175,3.175 0 0 1 3.174999,-3.175 3.175,3.175 0 0 1 3.175,3.175 z" />
      <path
         id="path2618-2-9-0"
         style="fill:#ff0000;stroke:none;stroke-width:0.160909"
         d="m 150.70452,82.86879 a 3.175,3.175 0 0 1 -3.175,3.175 3.175,3.175 0 0 1 -3.175,-3.175 3.175,3.175 0 0 1 3.175,-3.175 3.175,3.175 0 0 1 3.175,3.175 z" />
      <path
         id="path2191-12"
         style="fill:#ff0000;stroke:none;stroke-width:0.185979"
         d="m 150.83415,196.37428 a 8,8 0 0 1 -8,8 8,8 0 0 1 -8,-8 8,8 0 0 1 8,-8 8,8 0 0 1 8,8 z" />
      <path
         id="path2191-6-1"
         style="fill:#ff0000;stroke:none;stroke-width:0.185979"
         d="m 150.83415,175.07434 a 8,8 0 0 1 -8,8 8,8 0 0 1 -8,-8 8,8 0 0 1 8,-8 8,8 0 0 1 8,8 z" />
      <path
         id="path2191-3-1"
         style="fill:#ff0000;stroke:none;stroke-width:0.185979"
         d="m 150.83415,111.17432 a 8,8 0 0 1 -8,8 8,8 0 0 1 -8,-8 8,8 0 0 1 8,-8 8,8 0 0 1 8,8 z" />
      <path
         id="path2191-35-2"
         style="fill:#ff0000;stroke:none;stroke-width:0.185979"
         d="m 150.83415,132.4743 a 8,8 0 0 1 -8,8 8,8 0 0 1 -8,-8 8,8 0 0 1 8,-8 8,8 0 0 1 8,8 z" />
      <path
         id="path2191-1-7"
         style="fill:#ff0000;stroke:none;stroke-width:0.185979"
         d="m 150.83415,153.77432 a 8,8 0 0 1 -8,8 8,8 0 0 1 -8,-8 8,8 0 0 1 8,-8 8,8 0 0 1 8,8 z" />
      <path
         id="path2534-7"
         style="fill:#ff0000;stroke:none;stroke-width:0.198101"
         d="m 76.80787,131.28014 a 6.3499999,6.3499999 0 0 1 -6.35,6.35 6.3499999,6.3499999 0 0 1 -6.349999,-6.35 6.3499999,6.3499999 0 0 1 6.349999,-6.35 6.3499999,6.3499999 0 0 1 6.35,6.35 z" />
      <path
         id="path2534-0-3"
         style="fill:#ff0000;stroke:none;stroke-width:0.198101"
         d="m 109.77791,131.28014 a 6.3499999,6.3499999 0 0 1 -6.35,6.35 6.3499999,6.3499999 0 0 1 -6.35,-6.35 6.3499999,6.3499999 0 0 1 6.35,-6.35 6.3499999,6.3499999 0 0 1 6.35,6.35 z" />
      <path
         id="path2618-0"
         style="fill:#ff0000;stroke:none;stroke-width:0.160909"
         d="m 93.133328,205.29655 a 3.175,3.175 0 0 1 -3.175,3.175 3.175,3.175 0 0 1 -3.175,-3.175 3.175,3.175 0 0 1 3.175,-3.175 3.175,3.175 0 0 1 3.175,3.175 z" />
      <path
         id="path2534-1-2"
         style="fill:#ff0000;stroke:none;stroke-width:0.198101"
         d="m 43.409624,131.28014 a 6.3499999,6.3499999 0 0 1 -6.35,6.35 6.3499999,6.3499999 0 0 1 -6.35,-6.35 6.3499999,6.3499999 0 0 1 6.35,-6.35 6.3499999,6.3499999 0 0 1 6.35,6.35 z" />
    </g>
  </g>
</svg>
