<?xml version="1.0" encoding="UTF-8" standalone="no"?>
<svg
   xmlns:dc="http://purl.org/dc/elements/1.1/"
   xmlns:cc="http://creativecommons.org/ns#"
   xmlns:rdf="http://www.w3.org/1999/02/22-rdf-syntax-ns#"
   xmlns:svg="http://www.w3.org/2000/svg"
   xmlns="http://www.w3.org/2000/svg"
   xmlns:sodipodi="http://sodipodi.sourceforge.net/DTD/sodipodi-0.dtd"
   xmlns:inkscape="http://www.inkscape.org/namespaces/inkscape"
   width="210mm"
   height="297mm"
   viewBox="0 0 210 297"
   version="1.1"
   id="svg1655"
   inkscape:version="1.0.1 (3bc2e813f5, 2020-09-07)"
   sodipodi:docname="Panel5 Volume TacanCMD Bottom.svg">
  <defs
     id="defs1649" />
  <sodipodi:namedview
     id="base"
     pagecolor="#ffffff"
     bordercolor="#666666"
     borderopacity="1.0"
     inkscape:pageopacity="0.0"
     inkscape:pageshadow="2"
     inkscape:zoom="1.5"
     inkscape:cx="400"
     inkscape:cy="560"
     inkscape:document-units="mm"
     inkscape:current-layer="layer1"
     inkscape:document-rotation="0"
     showgrid="false"
     inkscape:window-width="3440"
     inkscape:window-height="1377"
     inkscape:window-x="-8"
     inkscape:window-y="-8"
     inkscape:window-maximized="1" />
  <metadata
     id="metadata1652">
    <rdf:RDF>
      <cc:Work
         rdf:about="">
        <dc:format>image/svg+xml</dc:format>
        <dc:type
           rdf:resource="http://purl.org/dc/dcmitype/StillImage" />
        <dc:title />
      </cc:Work>
    </rdf:RDF>
  </metadata>
  <g
     inkscape:label="Layer 1"
     inkscape:groupmode="layer"
     id="layer1">
    <path
       id="rect1697-3"
       style="fill:#ff0000;stroke-width:0.231899"
       d="m 143.16162,115.48296 h 22 v 22 h -22 z" />
    <path
       id="path2097-0-0-4-56-9-7-7-8"
       style="fill:#ff0000;stroke-width:0.635999;stroke-miterlimit:4;stroke-dasharray:none"
       d="m 48.048497,148.31528 a 3.175,3.175 0 0 1 -3.084618,3.17371 3.175,3.175 0 0 1 -3.260236,-2.99302 3.175,3.175 0 0 1 2.899,-3.34412 3.175,3.175 0 0 1 3.425287,2.80263" />
    <path
       id="path2097-0-0-4-5-6-0-8-6-1"
       style="fill:#ff0000;stroke-width:0.635999;stroke-miterlimit:4;stroke-dasharray:none"
       d="m 48.048501,97.115295 a 3.175,3.175 0 0 1 -3.084618,3.173715 3.175,3.175 0 0 1 -3.260236,-2.993023 3.175,3.175 0 0 1 2.899,-3.344117 3.175,3.175 0 0 1 3.425287,2.802629" />
    <path
       id="path2097-0-0-4-0-0-0-0-4-8"
       style="fill:#ff0000;stroke-width:0.635999;stroke-miterlimit:4;stroke-dasharray:none"
       d="m 180.44871,148.31528 a 3.175,3.175 0 0 1 -3.08462,3.17371 3.175,3.175 0 0 1 -3.26023,-2.99302 3.175,3.175 0 0 1 2.899,-3.34412 3.175,3.175 0 0 1 3.42529,2.80263" />
    <path
       id="path2097-0-0-4-9-0-3-5-6-4"
       style="fill:#ff0000;stroke-width:0.635999;stroke-miterlimit:4;stroke-dasharray:none"
       d="m 180.44871,96.586105 a 3.175,3.175 0 0 1 -3.08462,3.173714 3.175,3.175 0 0 1 -3.26023,-2.993023 3.175,3.175 0 0 1 2.899,-3.344116 3.175,3.175 0 0 1 3.42529,2.802629" />
    <g
       id="g990-5-9"
       transform="translate(3.033066,41.889529)">
      <rect
         style="fill:none;stroke:#000000;stroke-width:0.249386;stroke-miterlimit:4;stroke-dasharray:none;stroke-opacity:1"
         id="rect2248-4-6-6-8-7-0"
         width="152.15062"
         height="75.950615"
         x="31.840237"
         y="42.725441" />
    </g>
    <path
       id="path2097-37-2"
       style="fill:#ff0000;stroke-width:0.636;stroke-miterlimit:4;stroke-dasharray:none"
       d="m 66.76616,152.63548 a 3.175,3.175 0 0 1 -3.084618,3.17372 3.175,3.175 0 0 1 -3.260236,-2.99303 3.175,3.175 0 0 1 2.899,-3.34411 3.175,3.175 0 0 1 3.425287,2.80263" />
    <path
       id="path2097-0-9-4"
       style="fill:#ff0000;stroke-width:0.636;stroke-miterlimit:4;stroke-dasharray:none"
       d="m 66.76616,92.971916 a 3.175,3.175 0 0 1 -3.084618,3.173713 3.175,3.175 0 0 1 -3.260236,-2.993022 3.175,3.175 0 0 1 2.899,-3.344117 3.175,3.175 0 0 1 3.425287,2.80263" />
    <path
       id="path2097-3-70-5"
       style="fill:#ff0000;stroke-width:0.636;stroke-miterlimit:4;stroke-dasharray:none"
       d="m 159.37034,152.63548 a 3.175,3.175 0 0 1 -3.08461,3.17372 3.175,3.175 0 0 1 -3.26024,-2.99303 3.175,3.175 0 0 1 2.899,-3.34411 3.175,3.175 0 0 1 3.42529,2.80263" />
    <path
       id="path2097-3-7-4-1"
       style="fill:#ff0000;stroke-width:0.636;stroke-miterlimit:4;stroke-dasharray:none"
       d="m 159.37034,92.971916 a 3.175,3.175 0 0 1 -3.08461,3.173713 3.175,3.175 0 0 1 -3.26024,-2.993022 3.175,3.175 0 0 1 2.899,-3.344117 3.175,3.175 0 0 1 3.42529,2.80263" />
    <path
       id="path1666-6-9"
       style="fill:#ff0000;stroke-width:0.482597"
       d="m 129.51537,126.48296 a 4.8260002,4.8260002 0 0 1 -4.68862,4.82405 4.8260002,4.8260002 0 0 1 -4.95556,-4.5494 4.8260002,4.8260002 0 0 1 4.40648,-5.08305 4.8260002,4.8260002 0 0 1 5.20644,4.25999" />
    <path
       id="path1666-1-3-1"
       style="fill:#ff0000;stroke-width:0.482597"
       transform="scale(1,-1)"
       d="m 73.86269,-126.48296 a 4.8260002,4.8260002 0 0 1 -4.688619,4.82404 4.8260002,4.8260002 0 0 1 -4.95556,-4.54939 4.8260002,4.8260002 0 0 1 4.406481,-5.08306 4.8260002,4.8260002 0 0 1 5.206437,4.26" />
    <path
       id="path1666-1-0-1-5"
       style="fill:#ff0000;stroke-width:0.482597"
       transform="scale(1,-1)"
       d="m 101.68911,-126.48296 a 4.8260002,4.8260002 0 0 1 -4.688623,4.82404 4.8260002,4.8260002 0 0 1 -4.95556,-4.54939 4.8260002,4.8260002 0 0 1 4.406481,-5.08306 4.8260002,4.8260002 0 0 1 5.206432,4.26" />
  </g>
</svg>
