<?xml version="1.0" encoding="UTF-8" standalone="no"?>
<svg
   xmlns:dc="http://purl.org/dc/elements/1.1/"
   xmlns:cc="http://creativecommons.org/ns#"
   xmlns:rdf="http://www.w3.org/1999/02/22-rdf-syntax-ns#"
   xmlns:svg="http://www.w3.org/2000/svg"
   xmlns="http://www.w3.org/2000/svg"
   xmlns:sodipodi="http://sodipodi.sourceforge.net/DTD/sodipodi-0.dtd"
   xmlns:inkscape="http://www.inkscape.org/namespaces/inkscape"
   width="210mm"
   height="297mm"
   viewBox="0 0 210 297"
   version="1.1"
   id="svg919"
   inkscape:version="1.0.1 (3bc2e813f5, 2020-09-07)"
   sodipodi:docname="Panel5 Volume TacanCMD Top.svg">
  <defs
     id="defs913" />
  <sodipodi:namedview
     id="base"
     pagecolor="#ffffff"
     bordercolor="#666666"
     borderopacity="1.0"
     inkscape:pageopacity="0.0"
     inkscape:pageshadow="2"
     inkscape:zoom="1"
     inkscape:cx="244.47623"
     inkscape:cy="560"
     inkscape:document-units="mm"
     inkscape:current-layer="layer1"
     inkscape:document-rotation="0"
     showgrid="false"
     inkscape:window-width="1431"
     inkscape:window-height="1208"
     inkscape:window-x="320"
     inkscape:window-y="135"
     inkscape:window-maximized="0" />
  <metadata
     id="metadata916">
    <rdf:RDF>
      <cc:Work
         rdf:about="">
        <dc:format>image/svg+xml</dc:format>
        <dc:type
           rdf:resource="http://purl.org/dc/dcmitype/StillImage" />
        <dc:title />
      </cc:Work>
    </rdf:RDF>
  </metadata>
  <g
     inkscape:label="Layer 1"
     inkscape:groupmode="layer"
     id="layer1">
    <path
       id="rect1697-5-0-1"
       style="fill:#ff0000;stroke-width:0.216089"
       d="m 129.39734,109.26561 h 20.5 v 20.5 h -20.5 z" />
    <path
       id="rect835"
       style="fill:none;fill-opacity:1;stroke:#000000;stroke-width:0.249386;stroke-miterlimit:4;stroke-dasharray:none;stroke-opacity:1"
       d="m 40.326107,77.64761 v 9.96717 2.49193 2.49193 c 0,5.52186 -4.452608,9.96718 -9.983543,9.96718 -0.0065,0 -0.01263,-5.3e-4 -0.0196,-5.3e-4 h -9.963941 v 26.11526 h 9.963936 c 0.007,-2e-5 0.01313,-5.3e-4 0.0196,-5.3e-4 5.530934,0 9.983543,4.4453 9.983543,9.96718 v 2.49193 2.49192 9.96718 H 152.54254 v -9.96718 -2.49192 -2.49193 c 0,-5.52188 4.45261,-9.96718 9.98354,-9.96718 0.007,0 0.0126,5.3e-4 0.0196,5.3e-4 h 9.96397 V 102.5653 h -9.96393 c -0.007,3e-5 -0.0131,5.3e-4 -0.0196,5.3e-4 -5.53093,0 -9.98354,-4.44532 -9.98354,-9.96718 v -2.49192 -2.49194 -9.96716 z" />
    <g
       aria-label="VOLUME"
       id="text1707"
       style="font-size:4.9389px;line-height:1.25;font-family:'MS 33558';-inkscape-font-specification:'MS 33558, ';fill:#00ff00;stroke-width:0.264583">
      <path
         d="m 70.97194,84.935161 q -0.04582,-0.342443 0.243569,-0.419613 0.2918,-0.07717 0.414791,0.243568 l 0.8127,3.009642 0.817523,-3.038581 q 0.12299,-0.325562 0.424436,-0.236334 0.301447,0.08682 0.231511,0.412379 l -1.147908,4.261248 q -0.09646,0.248392 -0.323151,0.250804 -0.226688,0 -0.330385,-0.241157 z"
         style="font-size:4.9389px;fill:#00ff00;stroke-width:0.264583"
         id="path945" />
      <path
         d="m 77.801513,85.89979 q 0.221865,0.668006 0.166399,1.386654 -0.05306,0.718649 -0.393087,1.311895 -0.21463,0.368971 -0.586012,0.627009 -0.371382,0.258038 -0.819934,0.180868 -0.730707,-0.127813 -1.11897,-0.762057 -0.388263,-0.634243 -0.446141,-1.41077 -0.05547,-0.778937 0.209807,-1.516878 0.267685,-0.737942 0.851285,-1.07315 0.284566,-0.163987 0.595658,-0.163987 0.593247,0 0.969452,0.448552 0.376206,0.446141 0.571543,0.971864 z m -1.521702,-0.73553 q -0.443729,0 -0.672829,0.477492 -0.226688,0.477491 -0.286977,0.815111 -0.04582,0.245981 -0.03376,0.595659 0.01206,0.349678 0.101286,0.692121 0.08923,0.340031 0.267685,0.614951 0.178456,0.272507 0.467845,0.361736 0.33762,0.106109 0.581189,-0.132637 0.24598,-0.241157 0.371382,-0.511253 0.127813,-0.277331 0.173633,-0.728295 0.04823,-0.450964 -0.0217,-0.899517 -0.06752,-0.450964 -0.267685,-0.810288 -0.20016,-0.361736 -0.569131,-0.46061 -0.04823,-0.01447 -0.110932,-0.01447 z"
         style="font-size:4.9389px;fill:#00ff00;stroke-width:0.264583"
         id="path947" />
      <path
         d="m 78.959068,89.420685 q -0.296624,-0.01929 -0.342444,-0.335208 v -4.26366 q 0.05064,-0.347266 0.35209,-0.340031 0.301446,0.0048 0.327974,0.340031 v 3.92604 l 2.225881,-0.0024 q 0.342443,0.03858 0.33762,0.347267 -0.0024,0.306269 -0.340032,0.327973 z"
         style="font-size:4.9389px;fill:#00ff00;stroke-width:0.264583"
         id="path949" />
      <path
         d="m 85.798287,87.790463 v 0.04823 q -0.0072,0.120579 -0.0096,0.144694 -0.101286,0.737942 -0.605304,1.090031 -0.504019,0.349678 -1.075561,0.327974 -0.571543,-0.02412 -1.046623,-0.417202 -0.472668,-0.393086 -0.513665,-1.145497 v -0.04823 -2.973469 q 0,-0.07235 0.02653,-0.130225 0.115755,-0.253215 0.38344,-0.20016 0.270096,0.05305 0.270096,0.330385 v 2.973469 q 0.03617,0.554661 0.487137,0.829581 0.453376,0.274919 0.952571,-0.02412 0.224276,-0.132637 0.327974,-0.342443 0.106109,-0.209807 0.125402,-0.463022 v -2.973469 q 0,-0.04341 0.0048,-0.06511 0.05547,-0.296624 0.364147,-0.267685 0.308682,0.02894 0.308682,0.332797 z"
         style="font-size:4.9389px;fill:#00ff00;stroke-width:0.264583"
         id="path951" />
      <path
         d="m 89.982364,89.080654 q -0.05305,0.33762 -0.342443,0.33762 -0.286977,-0.0024 -0.33762,-0.33762 V 86.0686 l -0.827169,1.415593 q -0.132637,0.159164 -0.296624,0.166398 -0.161575,0.0072 -0.289388,-0.166398 l -0.822346,-1.408358 0.0024,3.004819 q -0.03858,0.335208 -0.349678,0.335208 -0.308681,-0.0024 -0.332797,-0.335208 v -4.258837 q 0.01929,-0.277331 0.243569,-0.330385 0.224276,-0.05547 0.390675,0.151929 l 1.159966,1.99437 1.172024,-1.99437 q 0.166399,-0.207395 0.385852,-0.151929 0.221864,0.05547 0.243568,0.330385 z"
         style="font-size:4.9389px;fill:#00ff00;stroke-width:0.264583"
         id="path953" />
      <path
         d="m 93.237987,85.152203 h -1.999193 v 1.31913 h 1.524113 q 0.342444,0.05064 0.340032,0.344854 0,0.291801 -0.340032,0.340032 h -1.524113 v 1.584403 h 1.999193 q 0.340032,0.05064 0.340032,0.340032 0,0.289388 -0.340032,0.33762 h -2.334402 q -0.301446,-0.03858 -0.342443,-0.342443 v -4.258837 q 0.04582,-0.318327 0.342443,-0.33762 h 2.334402 q 0.340032,0.02653 0.33762,0.340032 0,0.311092 -0.33762,0.332797 z"
         style="font-size:4.9389px;fill:#00ff00;stroke-width:0.264583"
         id="path955" />
    </g>
    <g
       aria-label="ALR-67"
       id="text1711"
       style="font-size:3.52777px;line-height:1.25;font-family:'MS 33558';-inkscape-font-specification:'MS 33558, ';fill:#00ff00;stroke-width:0.264583">
      <path
         d="m 48.909884,103.16657 -0.523654,-1.44694 -0.527098,1.44694 z m -0.523654,-1.44694 0.523654,1.44694 z m -1.329803,2.2462 q 0.275607,-0.75964 0.551214,-1.51756 0.277329,-0.75965 0.554659,-1.51929 0.05684,-0.15675 0.225653,-0.15847 0.168809,-0.002 0.227376,0.15847 l 1.104151,3.04546 q 0.05168,0.24288 -0.148139,0.3135 -0.199815,0.0706 -0.308336,-0.14469 L 49.085583,103.6506 H 47.68171 l -0.172254,0.48059 q -0.110243,0.21704 -0.313503,0.14297 -0.203261,-0.0758 -0.139526,-0.30833 z"
         style="font-size:3.52777px;fill:#00ff00;stroke-width:0.264583"
         id="path958" />
      <path
         d="m 50.303422,104.3 q -0.211873,-0.0138 -0.244601,-0.23943 v -3.04546 q 0.03617,-0.24805 0.251491,-0.24288 0.215318,0.003 0.234266,0.24288 v 2.8043 l 1.589908,-0.002 q 0.244601,0.0276 0.241156,0.24805 -0.0017,0.21876 -0.242878,0.23426 z"
         style="font-size:3.52777px;fill:#00ff00;stroke-width:0.264583"
         id="path960" />
      <path
         d="m 55.042141,103.92449 q 0.110242,0.19464 -0.06201,0.32728 -0.08268,0.0586 -0.191202,0.0396 -0.106798,-0.019 -0.156752,-0.1068 l -0.849214,-1.34186 h -0.430636 v 1.21267 q 0,0.14986 -0.136081,0.21704 -0.136081,0.0655 -0.254936,-0.0258 -0.09474,-0.0706 -0.09474,-0.1912 v -3.04374 q 0,-0.0999 0.0689,-0.17053 0.07062,-0.0706 0.172255,-0.0706 h 1.0697 q 0.385849,0 0.670069,0.24632 0.28422,0.2446 0.353122,0.62184 0.07235,0.4048 -0.172255,0.75792 -0.242878,0.3514 -0.645954,0.42719 l -0.03273,0.005 z m -0.864717,-1.5658 q 0.175699,0 0.323838,-0.10679 0.149861,-0.1068 0.201537,-0.27906 0.08096,-0.26527 -0.07407,-0.47886 -0.155029,-0.21532 -0.427191,-0.23771 h -0.849214 v 1.10242 z"
         style="font-size:3.52777px;fill:#00ff00;stroke-width:0.264583"
         id="path962" />
      <path
         d="m 57.012731,103.33193 h -1.074867 v -0.31178 h 1.074867 z"
         style="font-size:3.52777px;fill:#00ff00;stroke-width:0.264583"
         id="path964" />
      <path
         d="m 57.291782,102.94953 0.0034,-0.0207 q 0.02239,-0.11714 0.04651,-0.23255 0.02584,-0.11541 0.06546,-0.2291 0.05512,-0.17397 0.127468,-0.329 0.18948,-0.4203 0.453029,-0.73036 0.263549,-0.31178 0.621838,-0.5805 l 0.01723,-0.0121 q 0.175699,-0.11713 0.316948,0.0362 0.141249,0.1533 0.01206,0.31695 -0.02239,0.0276 -0.04995,0.0448 -0.201538,0.15159 -0.382405,0.32556 -0.179144,0.17398 -0.316948,0.38585 -0.02756,0.0448 -0.04306,0.0655 l -0.0086,0.0155 -0.01034,0.0172 0.01206,-0.003 0.01206,-0.002 q 0.222208,-0.031 0.391018,-0.0172 0.170532,0.0121 0.382404,0.10679 0.304891,0.13953 0.485758,0.4582 0.18259,0.31695 0.156751,0.64768 -0.0052,0.0517 -0.0052,0.0499 -0.02928,0.17225 -0.08785,0.33073 -0.05684,0.15847 -0.175699,0.29111 -0.449584,0.49781 -1.104151,0.39274 -0.485758,-0.081 -0.738972,-0.48231 -0.251491,-0.40308 -0.180867,-0.84577 z m 0.542602,0.49264 q 0.0534,0.13436 0.201537,0.24116 0.149862,0.10508 0.292833,0.12058 0.260104,0.0276 0.459919,-0.0965 0.306613,-0.19293 0.306613,-0.565 0.0017,-0.37207 -0.306613,-0.56499 -0.30489,-0.18776 -0.625283,-0.0482 -0.26355,0.11713 -0.361735,0.38585 -0.09646,0.26871 0.03273,0.52709 z"
         style="font-size:3.52777px;fill:#00ff00;stroke-width:0.264583"
         id="path966" />
      <path
         d="m 61.019368,104.12947 q -0.01206,0.0379 -0.04306,0.0792 -0.125746,0.15503 -0.304891,0.0586 -0.179144,-0.0965 -0.11541,-0.28766 l 0.866439,-2.72334 h -1.142046 q -0.118856,0 -0.179145,-0.0758 -0.05857,-0.0758 -0.05857,-0.16536 0,-0.0913 0.05857,-0.16709 0.06029,-0.0775 0.179145,-0.0775 h 1.474497 q 0.122301,0 0.198093,0.0999 0.07751,0.0999 0.03617,0.21704 z"
         style="font-size:3.52777px;fill:#00ff00;stroke-width:0.264583"
         id="path968" />
    </g>
    <g
       aria-label="SW"
       id="text1711-4"
       style="font-size:3.52777px;line-height:1.25;font-family:'MS 33558';-inkscape-font-specification:'MS 33558, ';fill:#00ff00;stroke-width:0.264583">
      <path
         d="m 80.993774,102.421 0.02756,0.0121 0.03101,0.0155 0.02756,0.0155 q 0.01206,0.009 0.02584,0.0172 0.0155,0.007 0.02928,0.0155 0.341063,0.22393 0.422023,0.62011 0.03101,0.15503 0.01378,0.31867 -0.02756,0.23427 -0.165364,0.43408 -0.136081,0.1981 -0.342786,0.30662 -0.222208,0.11713 -0.459919,0.11713 -0.399631,0 -0.763087,-0.10163 -0.363457,-0.10335 -0.518486,-0.54949 -0.02067,-0.0568 -0.03101,-0.11714 -0.01033,-0.0603 -0.02412,-0.12057 -0.02584,-0.12403 0.06029,-0.21877 0.08785,-0.0947 0.217041,-0.0723 0.136081,0.0276 0.18948,0.16881 l 0.0052,0.0155 q 0.08268,0.37379 0.287665,0.44614 0.206706,0.0723 0.573607,0.0654 0.337619,0 0.463365,-0.31694 0.05512,-0.14125 0.01723,-0.29284 -0.0379,-0.1533 -0.149861,-0.25493 -0.04995,-0.0431 -0.130913,-0.081 l -0.797538,-0.34968 -0.02584,-0.0138 q -0.391018,-0.2067 -0.485758,-0.58739 -0.11541,-0.44097 0.160197,-0.79064 0.277329,-0.3514 0.726913,-0.3514 l 0.18948,0.005 q 0.09302,0.0172 0.179145,0.0344 0.08613,0.0155 0.173977,0.0551 0.21704,0.10163 0.332451,0.27905 0.11541,0.17742 0.208427,0.38413 0.0086,0.0189 0.0155,0.0448 0.01895,0.0844 -0.01722,0.15331 -0.02067,0.0431 -0.04306,0.0654 -0.02239,0.0224 -0.03617,0.031 -0.08957,0.0637 -0.19637,0.0379 -0.106798,-0.0241 -0.163642,-0.13781 -0.04479,-0.0999 -0.09646,-0.20326 -0.04995,-0.10507 -0.141249,-0.17397 -0.0379,-0.0276 -0.07407,-0.0396 -0.03445,-0.0138 -0.07751,-0.0293 l -0.111965,-0.0189 -0.158474,-0.005 q -0.230821,0.003 -0.353122,0.19981 -0.08268,0.12575 -0.06201,0.28078 0.02412,0.1912 0.179144,0.29628 0.0069,0.005 0.0155,0.0121 0.0086,0.005 0.01895,0.0103 l 0.01895,0.009 0.02067,0.009 z"
         style="font-size:3.52777px;fill:#00ff00;stroke-width:0.264583"
         id="path972" />
      <path
         d="m 83.953105,100.96718 0.60289,2.06016 0.403075,-2.06016 q 0.07235,-0.23255 0.282497,-0.18948 0.211873,0.0431 0.194648,0.28077 l -0.596,3.04201 q -0.05512,0.19121 -0.225654,0.1981 -0.168809,0.007 -0.244601,-0.17398 l -0.651121,-2.22208 -0.645954,2.22208 q -0.07924,0.18603 -0.242879,0.17398 -0.163642,-0.0121 -0.230821,-0.1981 l -0.596,-3.04201 q 0,-0.24632 0.19637,-0.2825 0.19637,-0.0379 0.285942,0.19121 l 0.397908,2.0636 0.60289,-2.0636 q 0.07407,-0.17054 0.235989,-0.1757 0.163641,-0.005 0.230821,0.1757 z"
         style="font-size:3.52777px;fill:#00ff00;stroke-width:0.264583"
         id="path974" />
    </g>
    <g
       aria-label="TACAN"
       id="text1711-5"
       style="font-size:3.52777px;line-height:1.25;font-family:'MS 33558';-inkscape-font-specification:'MS 33558, ';fill:#00ff00;stroke-width:0.264583">
      <path
         d="m 133.59603,98.172952 v -2.800856 h -0.63217 q -0.24116,-0.01895 -0.24116,-0.241157 0.002,-0.22393 0.24116,-0.244601 h 1.74838 q 0.23771,0.01895 0.23771,0.244601 0.002,0.223931 -0.23771,0.241157 h -0.63045 v 2.800856 q -0.0396,0.244601 -0.25494,0.241156 -0.21359,-0.0034 -0.23082,-0.241156 z"
         style="font-size:3.52777px;fill:#00ff00;stroke-width:0.264583"
         id="path984" />
      <path
         d="m 137.33051,97.282397 -0.52366,-1.446937 -0.52709,1.446937 z m -0.52366,-1.446937 0.52366,1.446937 z m -1.3298,2.246197 q 0.27561,-0.759642 0.55121,-1.517561 0.27733,-0.759642 0.55466,-1.519284 0.0568,-0.156751 0.22566,-0.158474 0.16881,-0.0017 0.22737,0.158474 l 1.10415,3.045458 q 0.0517,0.242879 -0.14814,0.313503 -0.19981,0.07062 -0.30833,-0.144694 l -0.17742,-0.492647 h -1.40388 l -0.17225,0.48059 q -0.11024,0.21704 -0.3135,0.142971 -0.20326,-0.07579 -0.13953,-0.308336 z"
         style="font-size:3.52777px;fill:#00ff00;stroke-width:0.264583"
         id="path986" />
      <path
         d="m 140.69808,97.862894 -0.0155,0.02239 q -0.005,0.0069 -0.009,0.01206 -0.003,0.0052 -0.007,0.01033 -0.23598,0.318671 -0.62011,0.454752 -0.38241,0.134358 -0.75448,-0.04995 -0.43235,-0.215318 -0.63561,-0.730358 -0.20154,-0.515041 -0.17398,-1.0697 0.0293,-0.556382 0.29283,-1.021469 0.26527,-0.465087 0.76826,-0.58222 0.28938,-0.06718 0.57705,0.05684 0.28766,0.122301 0.47198,0.344509 0.002,0 0.009,0.01206 0.0792,0.103352 0.0327,0.227376 -0.0465,0.1223 -0.17054,0.153306 -0.13263,0.03445 -0.2446,-0.07924 -0.23082,-0.268717 -0.44441,-0.258382 -0.2136,0.01034 -0.38241,0.1757 -0.16881,0.165364 -0.28077,0.423746 -0.11197,0.258381 -0.13781,0.484035 -0.031,0.251491 0.005,0.506428 0.0379,0.253214 0.15675,0.477144 0.20671,0.39274 0.52021,0.492648 0.31523,0.09819 0.61495,-0.301445 0.0138,-0.01723 0.0327,-0.04479 0.16192,-0.179144 0.34106,-0.03617 0.18087,0.141249 0.0534,0.320393 z"
         style="font-size:3.52777px;fill:#00ff00;stroke-width:0.264583"
         id="path988" />
      <path
         d="m 143.04419,97.282397 -0.52366,-1.446937 -0.5271,1.446937 z m -0.52366,-1.446937 0.52366,1.446937 z m -1.3298,2.246197 q 0.27561,-0.759642 0.55121,-1.517561 0.27733,-0.759642 0.55466,-1.519284 0.0568,-0.156751 0.22566,-0.158474 0.1688,-0.0017 0.22737,0.158474 l 1.10415,3.045458 q 0.0517,0.242879 -0.14814,0.313503 -0.19981,0.07062 -0.30833,-0.144694 l -0.17742,-0.492647 h -1.40388 l -0.17225,0.48059 q -0.11025,0.21704 -0.31351,0.142971 -0.20326,-0.07579 -0.13952,-0.308336 z"
         style="font-size:3.52777px;fill:#00ff00;stroke-width:0.264583"
         id="path990" />
      <path
         d="m 146.57196,98.176397 q 0,0.180867 -0.1757,0.230821 -0.17398,0.04823 -0.27044,-0.103353 l -1.44694,-2.320266 v 2.192798 q -0.0379,0.241156 -0.2446,0.241156 -0.20498,0 -0.24116,-0.241156 v -3.042012 q 0.0258,-0.179145 0.18259,-0.235989 0.15848,-0.05684 0.26355,0.106798 l 1.44694,2.323712 v -2.194521 q 0.0327,-0.246324 0.24977,-0.242879 0.21876,0.0017 0.23599,0.242879 z"
         style="font-size:3.52777px;fill:#00ff00;stroke-width:0.264583"
         id="path992" />
    </g>
    <g
       aria-label="CMD"
       id="text1711-9"
       style="font-size:3.52777px;line-height:1.25;font-family:'MS 33558';-inkscape-font-specification:'MS 33558, ';fill:#00ff00;stroke-width:0.264583">
      <path
         d="m 137.89546,103.74575 -0.0155,0.0224 q -0.005,0.007 -0.009,0.012 -0.003,0.005 -0.007,0.0103 -0.23599,0.31867 -0.62012,0.45475 -0.3824,0.13436 -0.75447,-0.0499 -0.43236,-0.21532 -0.63562,-0.73036 -0.20154,-0.51504 -0.17398,-1.0697 0.0293,-0.55638 0.29284,-1.02147 0.26527,-0.46509 0.76825,-0.58222 0.28939,-0.0672 0.57705,0.0568 0.28767,0.1223 0.47198,0.34451 0.002,0 0.009,0.0121 0.0792,0.10335 0.0327,0.22738 -0.0465,0.1223 -0.17053,0.1533 -0.13264,0.0345 -0.2446,-0.0792 -0.23082,-0.26872 -0.44442,-0.25839 -0.21359,0.0103 -0.3824,0.1757 -0.16881,0.16537 -0.28078,0.42375 -0.11196,0.25838 -0.1378,0.48403 -0.031,0.2515 0.005,0.50643 0.0379,0.25322 0.15675,0.47715 0.2067,0.39274 0.52021,0.49264 0.31522,0.0982 0.61494,-0.30144 0.0138,-0.0172 0.0327,-0.0448 0.16192,-0.17914 0.34107,-0.0362 0.18086,0.14125 0.0534,0.32039 z"
         style="font-size:3.52777px;fill:#00ff00;stroke-width:0.264583"
         id="path977" />
      <path
         d="m 140.94436,104.05581 q -0.0379,0.24116 -0.2446,0.24116 -0.20499,-0.002 -0.24116,-0.24116 v -2.15146 l -0.59083,1.01114 q -0.0947,0.11368 -0.21187,0.11885 -0.11542,0.005 -0.20671,-0.11885 l -0.58739,-1.00597 0.002,2.14629 q -0.0276,0.23943 -0.24977,0.23943 -0.22049,-0.002 -0.23771,-0.23943 v -3.04201 q 0.0138,-0.19809 0.17397,-0.23599 0.1602,-0.0396 0.27905,0.10852 l 0.82855,1.42454 0.83715,-1.42454 q 0.11886,-0.14814 0.27561,-0.10852 0.15848,0.0396 0.17398,0.23599 z"
         style="font-size:3.52777px;fill:#00ff00;stroke-width:0.264583"
         id="path979" />
      <path
         d="m 141.59893,100.7692 h 0.81131 q 0.60462,0 0.90606,0.55121 0.30145,0.55121 0.30145,1.21267 0,0.66146 -0.30317,1.21267 -0.30145,0.55122 -0.90434,0.55122 h -0.81131 0.003 -0.003 q -0.0568,-0.009 -0.062,-0.0103 -0.17914,-0.0431 -0.17742,-0.23426 h -0.002 l 0.002,-3.04202 q -0.002,-0.005 -0.002,-0.0138 0.005,-0.0947 0.0741,-0.16019 0.0706,-0.0672 0.16881,-0.0672 z m 0.81131,3.04201 q 0.003,0 0.007,0 0.003,0 0.009,0 0.003,0 0.005,0 0.003,-0.002 0.009,-0.002 0.003,0 0.007,0 0.005,-0.002 0.0103,-0.002 0.003,0 0.007,0 0.003,-0.002 0.009,-0.002 0.003,0 0.007,0 0.003,-0.002 0.009,-0.002 0.007,-0.003 0.0138,-0.003 0.003,0 0.007,-0.002 0.003,-0.003 0.009,-0.005 0.003,0 0.007,0 0.005,-0.002 0.0103,-0.003 0.003,0 0.007,-0.002 0.003,-0.002 0.009,-0.003 0.0103,-0.003 0.0155,-0.007 0.031,-0.0103 0.0172,-0.007 0.003,0 0.007,-0.002 0.003,-0.003 0.009,-0.005 0.0155,-0.0103 0.0138,-0.009 0.0172,-0.009 0.0172,-0.009 0.003,-0.002 0.007,-0.003 0.003,-0.003 0.009,-0.007 0.0155,-0.0103 0.0155,-0.0103 0.003,-0.002 0.007,-0.003 0.005,-0.003 0.0103,-0.007 0.003,-0.002 0.007,-0.005 0.003,-0.003 0.009,-0.007 0.003,-0.002 0.007,-0.003 0.003,-0.003 0.009,-0.007 0.003,-0.003 0.0172,-0.0138 0.0138,-0.0138 0.0138,-0.0138 0.003,-0.003 0.007,-0.007 0.003,-0.003 0.009,-0.009 0.003,-0.003 0.007,-0.007 0.003,-0.003 0.009,-0.009 0.005,-0.003 0.0155,-0.0138 0.003,-0.003 0.007,-0.007 0.003,-0.003 0.009,-0.009 0.003,-0.003 0.007,-0.007 0.003,-0.005 0.009,-0.0103 0.0207,-0.0276 0.0138,-0.0172 0.0121,-0.0121 0.0155,-0.019 0.0155,-0.0207 0.0138,-0.019 0.003,-0.005 0.007,-0.009 0.003,-0.005 0.009,-0.0103 0.003,-0.005 0.005,-0.0103 0.003,-0.005 0.009,-0.0103 0.002,-0.005 0.005,-0.0103 0.005,-0.007 0.009,-0.0121 0.0103,-0.0138 0.0138,-0.0207 0.003,-0.005 0.005,-0.0103 0.003,-0.007 0.009,-0.0121 0.003,-0.005 0.005,-0.0103 0.003,-0.007 0.009,-0.0121 0.003,-0.009 0.0103,-0.0224 0.003,-0.005 0.005,-0.0121 0.003,-0.007 0.009,-0.0138 0.003,-0.005 0.005,-0.0103 0.003,-0.007 0.009,-0.0138 0.002,-0.005 0.003,-0.012 0.003,-0.007 0.007,-0.0138 0.005,-0.009 0.0121,-0.0258 0.0172,-0.0431 0.0121,-0.0276 0.002,-0.005 0.003,-0.0121 0.003,-0.009 0.007,-0.0155 0.002,-0.007 0.003,-0.0138 0.003,-0.007 0.007,-0.0155 0.005,-0.0155 0.009,-0.0276 0.002,-0.007 0.003,-0.0138 0.003,-0.007 0.007,-0.0155 -0.007,0.0172 0.009,-0.0293 0.003,-0.009 0.0103,-0.0293 0,-0.007 0.002,-0.0138 0.003,-0.009 0.005,-0.0172 0.002,-0.007 0.003,-0.0138 0.002,-0.009 0.005,-0.0172 0,-0.005 0.002,-0.0121 0.003,-0.009 0.005,-0.0172 0.002,-0.0121 0.005,-0.0327 0,-0.007 0.002,-0.0138 0.003,-0.009 0.005,-0.0172 0,-0.007 0.002,-0.0138 0.002,-0.009 0.003,-0.0172 0.002,-0.0121 0.005,-0.0327 0,-0.007 0.002,-0.0155 0.003,-0.009 0.005,-0.0172 0,-0.0121 0.003,-0.0327 0,-0.007 0,-0.0138 0.002,-0.009 0.003,-0.019 0.003,-0.0207 0.003,-0.0327 0.002,-0.0121 0.002,-0.0327 0.002,-0.0121 0.002,-0.0345 0.002,-0.0121 0.002,-0.0327 0,-0.009 0,-0.0155 0.002,-0.009 0.003,-0.019 0,-0.007 0,-0.0138 0.002,-0.009 0.002,-0.019 0,-0.007 0,-0.0155 0,-0.009 0,-0.0172 0,-0.009 0,-0.0155 0,-0.009 0,-0.0172 0,-0.009 -0.002,-0.0155 0,-0.009 0,-0.0189 0,-0.007 0,-0.0155 0,-0.009 0,-0.0172 0,-0.0103 -0.003,-0.0345 0,-0.0207 -0.002,-0.031 0,-0.0121 -0.003,-0.0362 0,-0.0207 -0.002,-0.031 0,-0.0121 -0.003,-0.0327 -0.002,-0.007 -0.003,-0.0155 0,-0.009 0,-0.0172 -0.003,-0.0207 -0.007,-0.0327 -0.002,-0.007 -0.003,-0.0138 -0.002,-0.009 -0.002,-0.0172 -0.002,-0.0121 -0.005,-0.0327 -0.002,-0.0121 -0.005,-0.0327 -0.007,-0.0207 -0.009,-0.031 -0.003,-0.0207 -0.005,-0.0293 -0.003,-0.007 -0.005,-0.0138 -0.002,-0.009 -0.003,-0.0172 -0.002,-0.007 -0.005,-0.0138 -0.003,-0.009 -0.003,-0.0172 -0.0155,-0.0465 -0.009,-0.0293 -0.003,-0.0121 -0.009,-0.0293 -0.003,-0.005 -0.007,-0.0121 -0.002,-0.009 -0.003,-0.0155 -0.002,-0.005 -0.0103,-0.0293 -0.007,-0.0172 -0.0103,-0.0276 -0.003,-0.005 -0.007,-0.0121 -0.002,-0.009 -0.003,-0.0155 -0.003,-0.005 -0.007,-0.0121 -0.003,-0.007 -0.005,-0.0138 -0.007,-0.0172 -0.0121,-0.0258 -0.007,-0.0172 -0.0103,-0.0241 -0.007,-0.0172 -0.0121,-0.0258 -0.003,-0.005 -0.007,-0.0103 -0.003,-0.007 -0.005,-0.0121 -0.0103,-0.0172 -0.0138,-0.0241 -0.0155,-0.0241 -0.0138,-0.0224 -0.005,-0.005 -0.009,-0.0103 -0.002,-0.007 -0.005,-0.0121 -0.003,-0.007 -0.0138,-0.0207 -0.003,-0.005 -0.007,-0.0103 -0.003,-0.005 -0.005,-0.0103 -0.009,-0.0155 -0.0293,-0.0396 -0.003,-0.003 -0.0276,-0.0379 -0.0207,-0.0241 -0.031,-0.0344 -0.0103,-0.0121 -0.031,-0.0327 -0.0138,-0.0155 -0.0293,-0.0293 -0.0121,-0.009 -0.0327,-0.0258 -0.0172,-0.0138 -0.0327,-0.0258 -0.0396,-0.0258 -0.0327,-0.0224 -0.0344,-0.0207 -0.031,-0.0189 0,0 -0.031,-0.0155 -0.007,-0.003 -0.0327,-0.0121 -0.0224,-0.009 -0.0327,-0.0121 -0.009,-0.002 -0.0155,-0.003 -0.007,-0.003 -0.0138,-0.007 -0.031,-0.005 -0.031,-0.005 -0.0103,-0.002 -0.031,-0.002 -0.005,0 -0.009,0 -0.003,0 -0.007,0 h -0.56844 v 2.55626 0 z"
         style="font-size:3.52777px;fill:#00ff00;stroke-width:0.264583"
         id="path981" />
    </g>
    <path
       id="text1711-8"
       style="font-size:3.52778px;line-height:1.25;font-family:'MS 33558';-inkscape-font-specification:'MS 33558, ';word-spacing:-0.0661458px;fill:#00ff00;stroke-width:0.264583"
       d="m 103.17047,100.76789 c -0.0917,0.005 -0.15916,0.0661 -0.20308,0.18241 l -0.58394,2.17042 -0.58085,-2.14974 c -0.0586,-0.15274 -0.15715,-0.2109 -0.2961,-0.17416 -0.1378,0.0367 -0.19597,0.13666 -0.17415,0.29973 l 0.81649,3.02979 c 0.0494,0.11484 0.12821,0.1726 0.23616,0.1726 0.10795,-0.001 0.18506,-0.061 0.23099,-0.17932 l 0.8196,-3.04374 c 0.0333,-0.15503 -0.0218,-0.25322 -0.16538,-0.29456 -0.0359,-0.0106 -0.0692,-0.0152 -0.0997,-0.0134 z m 2.61486,0.003 c -0.006,0 -0.0333,0.006 -0.0827,0.0171 -0.0482,0.0103 -0.0896,0.0465 -0.12402,0.10852 l -1.633,3.03857 c -0.0391,0.0999 -0.0343,0.18564 0.0139,0.25684 0.0494,0.0712 0.11525,0.10697 0.19793,0.10697 0.0586,0 0.10548,-0.0138 0.14107,-0.0413 0.0356,-0.0287 0.0606,-0.0563 0.0744,-0.0827 l 1.62575,-3.04581 c 0.0482,-0.0965 0.0457,-0.17995 -0.008,-0.25115 -0.054,-0.0712 -0.12249,-0.10696 -0.20518,-0.10696 z m 0.99477,0 c -0.082,0.008 -0.14366,0.0579 -0.185,0.14832 -0.0126,0.0275 -0.0191,0.0586 -0.0191,0.093 v 2.1239 0.0341 c 0.0195,0.35829 0.14182,0.63137 0.3669,0.81855 0.22623,0.18719 0.4756,0.28618 0.74776,0.29766 0.27216,0.0103 0.5279,-0.0676 0.76791,-0.23409 0.24001,-0.16767 0.3843,-0.42737 0.43253,-0.77877 0.001,-0.0115 0.003,-0.0459 0.007,-0.10335 v -0.0341 -2.1239 c 0,-0.14469 -0.0731,-0.22393 -0.22014,-0.23771 -0.14699,-0.0138 -0.23403,0.0499 -0.26045,0.1912 -0.002,0.0104 -0.003,0.0258 -0.003,0.0465 v 2.1239 c -0.009,0.12058 -0.0394,0.23083 -0.0899,0.33073 -0.0494,0.0999 -0.1273,0.18127 -0.23409,0.24443 -0.23771,0.1424 -0.46469,0.14797 -0.68058,0.017 -0.21475,-0.13091 -0.33056,-0.32809 -0.34778,-0.59221 v -2.1239 c 0,-0.13206 -0.0641,-0.2109 -0.19276,-0.23616 -0.0319,-0.006 -0.0615,-0.008 -0.0889,-0.005 z m 5.6131,0 c -0.1424,0.0115 -0.22428,0.0928 -0.24495,0.24443 v 3.03858 c 0.023,0.16306 0.10657,0.24362 0.25011,0.24133 0.1447,-0.002 0.22261,-0.0829 0.2341,-0.24133 v -1.37253 h 1.11104 c 0.16307,-0.0241 0.24363,-0.10812 0.24133,-0.25166 -0.002,-0.14355 -0.0829,-0.22106 -0.24133,-0.23255 h -1.11104 v -0.94206 h 1.42472 c 0.16192,-0.0103 0.24288,-0.0905 0.24288,-0.23978 0,-0.15043 -0.0802,-0.2318 -0.23978,-0.24443 z m -2.8236,0.002 c -0.14355,-0.003 -0.22704,0.0775 -0.25115,0.24288 v 3.04581 c 0.0241,0.16306 0.1076,0.24311 0.25115,0.24081 0.14354,-0.002 0.22198,-0.0823 0.23461,-0.24081 v -1.41803 h 1.38647 v 1.418 c 0.0241,0.16077 0.10508,0.24081 0.24288,0.24081 0.13896,0.001 0.22124,-0.0789 0.2465,-0.24081 v -3.04582 c -0.0253,-0.16307 -0.10754,-0.24403 -0.2465,-0.24288 -0.1378,0 -0.21876,0.081 -0.24288,0.24288 v 1.13895 h -1.38647 v -1.13895 c -0.0126,-0.15962 -0.0911,-0.24058 -0.23461,-0.24288 z m 8.21706,0.002 c -0.12947,0.0126 -0.25591,0.0548 -0.37878,0.12661 -0.24461,0.14239 -0.39274,0.35467 -0.44442,0.63717 -0.003,0.0126 -0.007,0.0561 -0.0104,0.13074 -0.002,0.0746 -0.001,0.1173 0.002,0.12764 0.009,0.0758 0.0458,0.13303 0.11007,0.17208 0.0655,0.039 0.13608,0.0469 0.21187,0.0227 0.0494,-0.0149 0.0903,-0.0473 0.12248,-0.0966 0.0322,-0.0505 0.0446,-0.1022 0.0377,-0.15503 0,-0.003 -5.3e-4,-0.007 -0.002,-0.0103 v -0.0119 c -0.007,-0.1757 0.0663,-0.30793 0.22015,-0.39636 0.15388,-0.0884 0.30546,-0.0863 0.45475,0.007 0.12173,0.0781 0.1885,0.18449 0.19999,0.31885 0.0126,0.13435 -0.0274,0.25453 -0.12041,0.36018 -0.0724,0.0781 -0.14389,0.14871 -0.21394,0.21187 -0.0689,0.062 -0.1455,0.12138 -0.23048,0.1788 -0.24,0.16192 -0.44499,0.36995 -0.61495,0.62374 -0.16881,0.25379 -0.28249,0.52118 -0.34106,0.80253 -0.002,0.0103 -0.0101,0.0513 -0.0227,0.12248 -0.0115,0.0701 -0.0171,0.10622 -0.0171,0.10852 0,0.0689 0.0237,0.12706 0.0708,0.17415 0.0482,0.0471 0.10588,0.0703 0.17363,0.0703 h 1.57097 c 0.15503,0 0.23518,-0.0783 0.23978,-0.23565 0.005,-0.15733 -0.0725,-0.24133 -0.231,-0.25166 h -1.27735 c 0,-0.003 0.007,-0.0272 0.0207,-0.0708 0.0149,-0.0436 0.0239,-0.0686 0.0274,-0.0754 0.0425,-0.11598 0.0997,-0.22927 0.17208,-0.33951 0.0735,-0.11025 0.15193,-0.21147 0.23461,-0.30334 0.0724,-0.0792 0.15371,-0.14814 0.24443,-0.20671 0.0919,-0.0586 0.17932,-0.1223 0.262,-0.1912 0.0528,-0.0436 0.10186,-0.0888 0.1478,-0.13591 0.0471,-0.0482 0.0936,-0.0969 0.13952,-0.14624 0.22508,-0.24461 0.30219,-0.53055 0.231,-0.85783 -0.0712,-0.32729 -0.26797,-0.54737 -0.59066,-0.65991 -0.13609,-0.0465 -0.26895,-0.0633 -0.39843,-0.0506 z" />
    <path
       id="rect2095"
       style="fill:#00ff00;stroke-width:0.102926;stroke-miterlimit:4;stroke-dasharray:none"
       d="m 123.33521,80.822929 h 1.27 v 69.850001 h -1.27 z" />
    <path
       id="path2097"
       style="fill:#ff0000;stroke-width:0.636;stroke-miterlimit:4;stroke-dasharray:none"
       d="m 52.251897,145.66814 a 3.175,3.175 0 0 1 -3.084618,3.17371 3.175,3.175 0 0 1 -3.260236,-2.99302 3.175,3.175 0 0 1 2.899,-3.34412 3.175,3.175 0 0 1 3.425287,2.80263" />
    <path
       id="path2097-0"
       style="fill:#ff0000;stroke-width:0.636;stroke-miterlimit:4;stroke-dasharray:none"
       d="m 52.251897,86.004562 a 3.175,3.175 0 0 1 -3.084618,3.173714 3.175,3.175 0 0 1 -3.260236,-2.993023 3.175,3.175 0 0 1 2.899,-3.344116 3.175,3.175 0 0 1 3.425287,2.802629" />
    <path
       id="path2097-3"
       style="fill:#ff0000;stroke-width:0.636;stroke-miterlimit:4;stroke-dasharray:none"
       d="m 144.85609,145.66814 a 3.175,3.175 0 0 1 -3.08462,3.17371 3.175,3.175 0 0 1 -3.26023,-2.99302 3.175,3.175 0 0 1 2.899,-3.34412 3.175,3.175 0 0 1 3.42528,2.80263" />
    <path
       id="path2097-3-7"
       style="fill:#ff0000;stroke-width:0.636;stroke-miterlimit:4;stroke-dasharray:none"
       d="m 144.85609,86.004562 a 3.175,3.175 0 0 1 -3.08462,3.173714 3.175,3.175 0 0 1 -3.26023,-2.993023 3.175,3.175 0 0 1 2.899,-3.344116 3.175,3.175 0 0 1 3.42528,2.802629" />
    <path
       id="rect2095-7"
       style="fill:#00ff00;stroke-width:0.0310335;stroke-miterlimit:4;stroke-dasharray:none"
       transform="rotate(90)"
       d="m 118.8806,-99.094818 h 1.27 v 6.35 h -1.27 z" />
    <path
       id="rect2095-7-5"
       style="fill:#00ff00;stroke-width:0.0310335;stroke-miterlimit:4;stroke-dasharray:none"
       transform="rotate(90)"
       d="m 118.8806,-72.10733 h 1.27 v 6.35 h -1.27 z" />
    <path
       id="path1666"
       style="fill:#ff0000;stroke-width:0.482597"
       d="m 115.0011,119.51559 a 4.8260002,4.8260002 0 0 1 -4.68862,4.82404 4.8260002,4.8260002 0 0 1 -4.95556,-4.54939 4.8260002,4.8260002 0 0 1 4.40648,-5.08306 4.8260002,4.8260002 0 0 1 5.20644,4.26" />
    <path
       id="path1666-1"
       style="fill:#ff0000;stroke-width:0.482597"
       transform="scale(1,-1)"
       d="m 59.348392,-119.51559 a 4.8260002,4.8260002 0 0 1 -4.688619,4.82405 4.8260002,4.8260002 0 0 1 -4.955559,-4.5494 4.8260002,4.8260002 0 0 1 4.406481,-5.08305 4.8260002,4.8260002 0 0 1 5.206436,4.25999" />
    <path
       id="path1666-1-0"
       style="fill:#ff0000;stroke-width:0.482597"
       transform="scale(1,-1)"
       d="m 87.174816,-119.51559 a 4.8260002,4.8260002 0 0 1 -4.688619,4.82405 4.8260002,4.8260002 0 0 1 -4.95556,-4.5494 4.8260002,4.8260002 0 0 1 4.406481,-5.08305 4.8260002,4.8260002 0 0 1 5.206437,4.25999" />
  </g>
</svg>
