<?xml version="1.0" encoding="UTF-8" standalone="no"?>
<svg
   xmlns:dc="http://purl.org/dc/elements/1.1/"
   xmlns:cc="http://creativecommons.org/ns#"
   xmlns:rdf="http://www.w3.org/1999/02/22-rdf-syntax-ns#"
   xmlns:svg="http://www.w3.org/2000/svg"
   xmlns="http://www.w3.org/2000/svg"
   xmlns:sodipodi="http://sodipodi.sourceforge.net/DTD/sodipodi-0.dtd"
   xmlns:inkscape="http://www.inkscape.org/namespaces/inkscape"
   width="210mm"
   height="297mm"
   viewBox="0 0 210 297"
   version="1.1"
   id="svg1024"
   inkscape:version="1.0.2 (e86c870879, 2021-01-15, custom)"
   sodipodi:docname="Spoiler FLR Oride Panel Top.svg">
  <defs
     id="defs1018" />
  <sodipodi:namedview
     id="base"
     pagecolor="#ffffff"
     bordercolor="#666666"
     borderopacity="1.0"
     inkscape:pageopacity="0.0"
     inkscape:pageshadow="2"
     inkscape:zoom="0.35"
     inkscape:cx="400"
     inkscape:cy="560"
     inkscape:document-units="mm"
     inkscape:current-layer="layer1"
     inkscape:document-rotation="0"
     showgrid="false"
     inkscape:window-width="1431"
     inkscape:window-height="1208"
     inkscape:window-x="2720"
     inkscape:window-y="135"
     inkscape:window-maximized="0" />
  <metadata
     id="metadata1021">
    <rdf:RDF>
      <cc:Work
         rdf:about="">
        <dc:format>image/svg+xml</dc:format>
        <dc:type
           rdf:resource="http://purl.org/dc/dcmitype/StillImage" />
        <dc:title />
      </cc:Work>
    </rdf:RDF>
  </metadata>
  <g
     inkscape:label="Layer 1"
     inkscape:groupmode="layer"
     id="layer1">
    <g
       id="g939">
      <path
         id="rect3457"
         style="fill:none;stroke:#000000;stroke-width:0.249467;stroke-miterlimit:4;stroke-dasharray:none;stroke-opacity:1"
         d="m 37.179965,87.210539 v 9.971824 2.493085 2.493082 c 0,5.52444 -4.453424,9.97183 -9.985358,9.97183 h -9.985355 v 38.79071 h 9.985355 c 5.531934,0 9.985358,4.44738 9.985358,9.97182 v 2.49308 2.49309 9.97183 h 22.985258 v -64.81712 h 29.956586 v 64.81712 h 25.375431 v -64.81712 h 29.95658 v 64.81712 h 22.98526 v -9.97183 -2.49309 -2.49308 c 0,-5.52444 4.45342,-9.97182 9.98536,-9.97182 h 9.98535 v -38.79071 h -9.98535 c -5.53194,0 -9.98536,-4.44739 -9.98536,-9.97183 v -2.493082 -2.493085 -9.971824 z" />
      <path
         d="m 74.216923,94.940735 0.03859,0.01688 0.04341,0.0217 0.03858,0.0217 q 0.01688,0.01206 0.03617,0.02412 0.0217,0.0096 0.041,0.0217 0.477491,0.313504 0.590834,0.868164 0.04341,0.217041 0.01929,0.44614 -0.03858,0.327973 -0.231511,0.607715 -0.190514,0.277331 -0.479902,0.429259 -0.311092,0.163987 -0.643888,0.163987 -0.559484,0 -1.068324,-0.142283 -0.508841,-0.144694 -0.725882,-0.76929 -0.02894,-0.07958 -0.04341,-0.163986 -0.01447,-0.0844 -0.03376,-0.16881 -0.03617,-0.173633 0.0844,-0.306269 0.12299,-0.132636 0.303858,-0.101286 0.190514,0.03858 0.265272,0.236334 l 0.0072,0.0217 q 0.115755,0.52331 0.402732,0.624596 0.289388,0.101286 0.803052,0.09164 0.472667,0 0.648711,-0.443728 0.07717,-0.197748 0.02412,-0.409966 -0.05305,-0.21463 -0.209806,-0.356912 -0.06994,-0.06029 -0.183279,-0.113344 l -1.116556,-0.489548 -0.03617,-0.01929 q -0.547425,-0.289388 -0.680062,-0.822344 -0.161575,-0.617361 0.224276,-1.10691 0.388262,-0.491959 1.017682,-0.491959 l 0.265272,0.0072 q 0.130225,0.02412 0.250803,0.04823 0.120578,0.0217 0.243568,0.07717 0.303858,0.142282 0.465433,0.390674 0.161575,0.248391 0.291799,0.537779 0.01206,0.02653 0.0217,0.0627 0.02653,0.118167 -0.02412,0.214629 -0.02894,0.06029 -0.06029,0.09164 -0.03135,0.03135 -0.05064,0.04341 -0.125402,0.08923 -0.274919,0.05306 -0.149517,-0.03376 -0.229099,-0.192926 -0.0627,-0.139871 -0.135048,-0.284565 -0.06994,-0.147105 -0.197748,-0.243568 -0.05306,-0.03858 -0.103697,-0.05547 -0.04823,-0.01929 -0.108521,-0.041 l -0.156752,-0.02653 -0.221864,-0.0072 q -0.32315,0.0048 -0.494371,0.279742 -0.115756,0.176045 -0.08682,0.393086 0.03376,0.267684 0.250803,0.414789 0.0096,0.0072 0.0217,0.01688 0.01206,0.0072 0.02653,0.01447 l 0.02653,0.01206 0.02894,0.01206 z"
         style="font-size:4.93889px;line-height:1.25;font-family:'MS 33558';-inkscape-font-specification:'MS 33558, ';fill:#00ff00;stroke-width:0.264583"
         id="path975" />
      <path
         d="m 77.484597,92.630454 h 0.04582 q 0.308681,0.0217 0.56913,0.13987 0.499195,0.233923 0.706589,0.76929 0.207395,0.535368 -0.0048,1.044209 -0.171221,0.402732 -0.506429,0.631831 -0.335208,0.226687 -0.764467,0.253214 l -0.04582,0.0024 h -1.172022 v 1.758033 q -0.04341,0.340031 -0.342443,0.340031 -0.299034,0 -0.340031,-0.340031 v -4.26124 q 0.03617,-0.299034 0.318327,-0.337619 h 0.0217 z m 0,0.680062 h -1.172022 v 1.47829 h 1.172022 q 0.274918,0 0.484725,-0.183279 0.212217,-0.183279 0.248391,-0.458198 0.04341,-0.332796 -0.178456,-0.583599 -0.221864,-0.253214 -0.55466,-0.253214 z"
         style="font-size:4.93889px;line-height:1.25;font-family:'MS 33558';-inkscape-font-specification:'MS 33558, ';fill:#00ff00;stroke-width:0.264583"
         id="path977" />
      <path
         d="m 82.799691,94.050867 q 0.221864,0.668004 0.166398,1.386651 -0.05306,0.718647 -0.393086,1.311893 -0.214629,0.368969 -0.58601,0.627007 -0.371382,0.258038 -0.819933,0.180868 -0.730705,-0.127813 -1.118968,-0.762056 -0.388262,-0.634242 -0.44614,-1.410766 -0.05547,-0.778937 0.209807,-1.516876 0.267684,-0.73794 0.851283,-1.073148 0.284565,-0.163986 0.595657,-0.163986 0.593246,0 0.96945,0.448551 0.376205,0.44614 0.571542,0.971862 z m -1.521699,-0.735528 q -0.443729,0 -0.672828,0.47749 -0.226687,0.47749 -0.286976,0.81511 -0.04582,0.24598 -0.03376,0.595657 0.01206,0.349677 0.101286,0.69212 0.08923,0.340031 0.267684,0.614949 0.178456,0.272508 0.467844,0.361736 0.337619,0.106109 0.581188,-0.132637 0.245979,-0.241156 0.371381,-0.511252 0.127813,-0.27733 0.173633,-0.728293 0.04823,-0.450963 -0.0217,-0.899515 -0.06752,-0.450963 -0.267684,-0.810287 -0.20016,-0.361735 -0.56913,-0.460609 -0.04823,-0.01447 -0.110932,-0.01447 z"
         style="font-size:4.93889px;line-height:1.25;font-family:'MS 33558';-inkscape-font-specification:'MS 33558, ';fill:#00ff00;stroke-width:0.264583"
         id="path979" />
      <path
         d="m 84.299686,97.236547 q -0.05306,0.340031 -0.344855,0.33762 -0.289388,0 -0.340031,-0.33762 v -4.263651 q 0.05064,-0.340031 0.340031,-0.340031 0.2918,-0.0024 0.344855,0.340031 z"
         style="font-size:4.93889px;line-height:1.25;font-family:'MS 33558';-inkscape-font-specification:'MS 33558, ';fill:#00ff00;stroke-width:0.264583"
         id="path981" />
      <path
         d="m 85.327014,97.571755 q -0.296623,-0.01929 -0.342443,-0.335208 v -4.263651 q 0.05064,-0.347266 0.352089,-0.340031 0.301446,0.0048 0.327973,0.340031 v 3.926032 l 2.225877,-0.0024 q 0.342443,0.03858 0.33762,0.347266 -0.0024,0.306269 -0.340031,0.327973 z"
         style="font-size:4.93889px;line-height:1.25;font-family:'MS 33558';-inkscape-font-specification:'MS 33558, ';fill:#00ff00;stroke-width:0.264583"
         id="path983" />
      <path
         d="m 91.592266,93.303281 h -1.999189 v 1.319127 h 1.52411 q 0.342443,0.05064 0.340031,0.344854 0,0.2918 -0.340031,0.340031 h -1.52411 v 1.5844 h 1.999189 q 0.340031,0.05064 0.340031,0.340031 0,0.289388 -0.340031,0.33762 h -2.334397 q -0.301446,-0.03859 -0.342443,-0.342443 v -4.258828 q 0.04582,-0.318327 0.342443,-0.337619 h 2.334397 q 0.340031,0.02653 0.337619,0.340031 0,0.311092 -0.337619,0.332796 z"
         style="font-size:4.93889px;line-height:1.25;font-family:'MS 33558';-inkscape-font-specification:'MS 33558, ';fill:#00ff00;stroke-width:0.264583"
         id="path985" />
      <path
         d="m 95.648522,97.046033 q 0.154341,0.272508 -0.08682,0.458198 -0.115755,0.08199 -0.267684,0.05547 -0.149517,-0.02653 -0.219453,-0.149517 l -1.188903,-1.878611 h -0.602891 v 1.697744 q 0,0.209806 -0.190514,0.303857 -0.190514,0.09164 -0.356912,-0.03617 -0.132636,-0.09887 -0.132636,-0.267684 v -4.26124 q 0,-0.139871 0.09646,-0.238745 0.09888,-0.09887 0.241157,-0.09887 h 1.497583 q 0.540191,0 0.9381,0.344854 0.397909,0.342442 0.494371,0.870576 0.101286,0.566718 -0.241156,1.061089 -0.340031,0.49196 -0.904338,0.598069 l -0.04582,0.0072 z m -1.210607,-2.192114 q 0.24598,0 0.453375,-0.149517 0.209806,-0.149518 0.282153,-0.390674 0.113344,-0.371382 -0.103697,-0.670416 -0.217041,-0.301446 -0.598069,-0.332796 h -1.188902 v 1.543403 z"
         style="font-size:4.93889px;line-height:1.25;font-family:'MS 33558';-inkscape-font-specification:'MS 33558, ';fill:#00ff00;stroke-width:0.264583"
         id="path987" />
      <path
         d="m 101.47246,97.226901 v -4.254005 q 0.0434,-0.318327 0.34244,-0.342442 h 2.3344 q 0.33521,0.02653 0.33521,0.342442 0,0.313504 -0.34004,0.335208 h -1.99436 v 1.319127 h 1.55546 q 0.3328,0.02412 0.33762,0.325562 0.005,0.301446 -0.33762,0.352089 h -1.55546 v 1.922019 q -0.0241,0.332796 -0.32797,0.337619 -0.30145,0.0048 -0.34968,-0.337619 z"
         style="font-size:4.93889px;line-height:1.25;font-family:'MS 33558';-inkscape-font-specification:'MS 33558, ';fill:#00ff00;stroke-width:0.264583"
         id="path989" />
      <path
         d="m 105.50219,97.571755 q -0.29663,-0.01929 -0.34245,-0.335208 v -4.263651 q 0.0507,-0.347266 0.35209,-0.340031 0.30145,0.0048 0.32798,0.340031 v 3.926032 l 2.22587,-0.0024 q 0.34245,0.03858 0.33762,0.347266 -0.002,0.306269 -0.34003,0.327973 z"
         style="font-size:4.93889px;line-height:1.25;font-family:'MS 33558';-inkscape-font-specification:'MS 33558, ';fill:#00ff00;stroke-width:0.264583"
         id="path991" />
      <path
         d="m 112.13641,97.046033 q 0.15434,0.272508 -0.0868,0.458198 -0.11575,0.08199 -0.26768,0.05547 -0.14952,-0.02653 -0.21945,-0.149517 l -1.18891,-1.878611 h -0.60289 v 1.697744 q 0,0.209806 -0.19051,0.303857 -0.19052,0.09164 -0.35691,-0.03617 -0.13264,-0.09887 -0.13264,-0.267684 v -4.26124 q 0,-0.139871 0.0965,-0.238745 0.0989,-0.09887 0.24116,-0.09887 h 1.49758 q 0.54019,0 0.9381,0.344854 0.39791,0.342442 0.49437,0.870576 0.10129,0.566718 -0.24115,1.061089 -0.34003,0.49196 -0.90434,0.598069 l -0.0458,0.0072 z m -1.21061,-2.192114 q 0.24598,0 0.45338,-0.149517 0.2098,-0.149518 0.28215,-0.390674 0.11334,-0.371382 -0.1037,-0.670416 -0.21704,-0.301446 -0.59807,-0.332796 h -1.1889 v 1.543403 z"
         style="font-size:4.93889px;line-height:1.25;font-family:'MS 33558';-inkscape-font-specification:'MS 33558, ';fill:#00ff00;stroke-width:0.264583"
         id="path993" />
      <path
         d="m 121.16773,94.050867 q 0.22186,0.668004 0.1664,1.386651 -0.0531,0.718647 -0.39309,1.311893 -0.21463,0.368969 -0.58601,0.627007 -0.37138,0.258038 -0.81993,0.180868 -0.73071,-0.127813 -1.11897,-0.762056 -0.38826,-0.634242 -0.44614,-1.410766 -0.0555,-0.778937 0.20981,-1.516876 0.26768,-0.73794 0.85128,-1.073148 0.28456,-0.163986 0.59566,-0.163986 0.59324,0 0.96945,0.448551 0.3762,0.44614 0.57154,0.971862 z m -1.5217,-0.735528 q -0.44373,0 -0.67283,0.47749 -0.22669,0.47749 -0.28698,0.81511 -0.0458,0.24598 -0.0338,0.595657 0.0121,0.349677 0.10129,0.69212 0.0892,0.340031 0.26768,0.614949 0.17846,0.272508 0.46785,0.361736 0.33762,0.106109 0.58118,-0.132637 0.24598,-0.241156 0.37139,-0.511252 0.12781,-0.27733 0.17363,-0.728293 0.0482,-0.450963 -0.0217,-0.899515 -0.0675,-0.450963 -0.26768,-0.810287 -0.20016,-0.361735 -0.56913,-0.460609 -0.0482,-0.01447 -0.11093,-0.01447 z"
         style="font-size:4.93889px;line-height:1.25;font-family:'MS 33558';-inkscape-font-specification:'MS 33558, ';fill:#00ff00;stroke-width:0.264583"
         id="path995" />
      <path
         d="m 125.02865,97.046033 q 0.15434,0.272508 -0.0868,0.458198 -0.11575,0.08199 -0.26768,0.05547 -0.14952,-0.02653 -0.21946,-0.149517 l -1.1889,-1.878611 h -0.60289 v 1.697744 q 0,0.209806 -0.19051,0.303857 -0.19052,0.09164 -0.35692,-0.03617 -0.13263,-0.09887 -0.13263,-0.267684 v -4.26124 q 0,-0.139871 0.0965,-0.238745 0.0989,-0.09887 0.24116,-0.09887 h 1.49758 q 0.54019,0 0.9381,0.344854 0.39791,0.342442 0.49437,0.870576 0.10129,0.566718 -0.24116,1.061089 -0.34003,0.49196 -0.90433,0.598069 l -0.0458,0.0072 z m -1.21061,-2.192114 q 0.24598,0 0.45338,-0.149517 0.2098,-0.149518 0.28215,-0.390674 0.11334,-0.371382 -0.1037,-0.670416 -0.21704,-0.301446 -0.59807,-0.332796 h -1.1889 v 1.543403 z"
         style="font-size:4.93889px;line-height:1.25;font-family:'MS 33558';-inkscape-font-specification:'MS 33558, ';fill:#00ff00;stroke-width:0.264583"
         id="path997" />
      <path
         d="m 126.59858,97.236547 q -0.0531,0.340031 -0.34486,0.33762 -0.28938,0 -0.34003,-0.33762 v -4.263651 q 0.0507,-0.340031 0.34003,-0.340031 0.2918,-0.0024 0.34486,0.340031 z"
         style="font-size:4.93889px;line-height:1.25;font-family:'MS 33558';-inkscape-font-specification:'MS 33558, ';fill:#00ff00;stroke-width:0.264583"
         id="path999" />
      <path
         d="m 127.62108,92.630454 h 1.13585 q 0.84646,0 1.26848,0.771701 0.42203,0.771702 0.42203,1.697744 0,0.926041 -0.42444,1.697743 -0.42202,0.771702 -1.26607,0.771702 h -1.13585 0.005 -0.005 q -0.0796,-0.01206 -0.0868,-0.01447 -0.25081,-0.06029 -0.2484,-0.327973 h -0.002 l 0.002,-4.258828 q -0.002,-0.0072 -0.002,-0.01929 0.007,-0.132636 0.1037,-0.224275 0.0989,-0.09405 0.23633,-0.09405 z m 1.13585,4.258828 q 0.005,0 0.01,0 0.005,0 0.012,0 0.005,0 0.007,0 0.005,-0.0024 0.0121,-0.0024 0.005,0 0.01,0 0.007,-0.0024 0.0145,-0.0024 0.005,0 0.01,0 0.005,-0.0024 0.0121,-0.0024 0.005,0 0.01,0 0.005,-0.0024 0.0121,-0.0024 0.01,-0.0048 0.0193,-0.0048 0.005,0 0.01,-0.0024 0.005,-0.0048 0.0121,-0.0072 0.005,0 0.01,0 0.007,-0.0024 0.0145,-0.0048 0.005,0 0.01,-0.0024 0.005,-0.0024 0.0121,-0.0048 0.0145,-0.0048 0.0217,-0.0096 0.0434,-0.01447 0.0241,-0.0096 0.005,0 0.01,-0.0024 0.005,-0.0048 0.0121,-0.0072 0.0217,-0.01447 0.0193,-0.01206 0.0241,-0.01206 0.0241,-0.01206 0.005,-0.0024 0.01,-0.0048 0.005,-0.0048 0.0121,-0.0096 0.0217,-0.01447 0.0217,-0.01447 0.005,-0.0024 0.01,-0.0048 0.007,-0.0048 0.0145,-0.0096 0.005,-0.0024 0.01,-0.0072 0.005,-0.0048 0.0121,-0.0096 0.005,-0.0024 0.01,-0.0048 0.005,-0.0048 0.0121,-0.0096 0.005,-0.0048 0.0241,-0.01929 0.0193,-0.01929 0.0193,-0.01929 0.005,-0.0048 0.01,-0.0096 0.005,-0.0048 0.012,-0.01206 0.005,-0.0048 0.01,-0.0096 0.005,-0.0048 0.0121,-0.01206 0.007,-0.0048 0.0217,-0.01929 0.005,-0.0048 0.01,-0.0096 0.005,-0.0048 0.0121,-0.01206 0.005,-0.0048 0.01,-0.0096 0.005,-0.0072 0.0121,-0.01447 0.0289,-0.03858 0.0193,-0.02411 0.0169,-0.01688 0.0217,-0.02653 0.0217,-0.02894 0.0193,-0.02653 0.005,-0.0072 0.01,-0.01206 0.005,-0.0072 0.0121,-0.01447 0.005,-0.0072 0.007,-0.01447 0.005,-0.0072 0.0121,-0.01447 0.002,-0.0072 0.007,-0.01447 0.007,-0.0096 0.0121,-0.01688 0.0145,-0.01929 0.0193,-0.02894 0.005,-0.0072 0.007,-0.01447 0.005,-0.0096 0.012,-0.01688 0.005,-0.0072 0.007,-0.01447 0.005,-0.0096 0.0121,-0.01688 0.005,-0.01206 0.0145,-0.03135 0.005,-0.0072 0.007,-0.01688 0.005,-0.0096 0.0121,-0.01929 0.005,-0.0072 0.007,-0.01447 0.005,-0.0096 0.0121,-0.01929 0.002,-0.0072 0.005,-0.01688 0.005,-0.0096 0.01,-0.01929 0.007,-0.01206 0.0169,-0.03617 0.0241,-0.06029 0.0169,-0.03858 0.002,-0.0072 0.005,-0.01688 0.005,-0.01206 0.01,-0.0217 0.002,-0.0096 0.005,-0.01929 0.005,-0.0096 0.01,-0.0217 0.007,-0.02171 0.0121,-0.03859 0.002,-0.0096 0.005,-0.01929 0.005,-0.0096 0.01,-0.0217 -0.01,0.02412 0.0121,-0.041 0.005,-0.01206 0.0145,-0.041 0,-0.0096 0.002,-0.01929 0.005,-0.01206 0.007,-0.02412 0.002,-0.0096 0.005,-0.01929 0.002,-0.01206 0.007,-0.02412 0,-0.0072 0.002,-0.01688 0.005,-0.01206 0.007,-0.02412 0.002,-0.01688 0.007,-0.04582 0,-0.0096 0.002,-0.01929 0.005,-0.01206 0.007,-0.02412 0,-0.0096 0.002,-0.01929 0.002,-0.01206 0.005,-0.02412 0.002,-0.01688 0.007,-0.04582 0,-0.0096 0.002,-0.02171 0.005,-0.01206 0.007,-0.02411 0,-0.01688 0.005,-0.04582 0,-0.0096 0,-0.01929 0.002,-0.01206 0.005,-0.02653 0.005,-0.02894 0.005,-0.04582 0.002,-0.01688 0.002,-0.04582 0.002,-0.01688 0.002,-0.04823 0.002,-0.01688 0.002,-0.04582 0,-0.01206 0,-0.0217 0.002,-0.01206 0.005,-0.02653 0,-0.0096 0,-0.01929 0.002,-0.01206 0.002,-0.02653 0,-0.0096 0,-0.0217 0,-0.01206 0,-0.02412 0,-0.01206 0,-0.0217 0,-0.01206 0,-0.02411 0,-0.01206 -0.002,-0.0217 0,-0.01206 0,-0.02653 0,-0.0096 0,-0.0217 0,-0.01206 0,-0.02412 0,-0.01447 -0.005,-0.04823 0,-0.02894 -0.002,-0.04341 0,-0.01688 -0.005,-0.05064 0,-0.02894 -0.002,-0.04341 0,-0.01688 -0.005,-0.04582 -0.002,-0.0096 -0.005,-0.0217 0,-0.01206 0,-0.02412 -0.005,-0.02894 -0.01,-0.04582 -0.002,-0.0096 -0.005,-0.01929 -0.002,-0.01206 -0.002,-0.02412 -0.002,-0.01688 -0.007,-0.04582 -0.002,-0.01688 -0.007,-0.04582 -0.01,-0.02894 -0.012,-0.04341 -0.005,-0.02894 -0.007,-0.041 -0.005,-0.0096 -0.007,-0.01929 -0.002,-0.01206 -0.005,-0.02412 -0.002,-0.0096 -0.007,-0.01929 -0.005,-0.01206 -0.005,-0.02412 -0.0217,-0.06511 -0.0121,-0.041 -0.005,-0.01688 -0.0121,-0.041 -0.005,-0.0072 -0.01,-0.01688 -0.002,-0.01206 -0.005,-0.0217 -0.002,-0.0072 -0.0145,-0.041 -0.01,-0.02412 -0.0145,-0.03859 -0.005,-0.0072 -0.01,-0.01688 -0.002,-0.01206 -0.005,-0.0217 -0.005,-0.0072 -0.01,-0.01688 -0.005,-0.0096 -0.007,-0.01929 -0.01,-0.02412 -0.0169,-0.03617 -0.01,-0.02411 -0.0145,-0.03376 -0.01,-0.02411 -0.0169,-0.03617 -0.005,-0.0072 -0.01,-0.01447 -0.005,-0.0096 -0.007,-0.01688 -0.0145,-0.02412 -0.0193,-0.03376 -0.0217,-0.03376 -0.0193,-0.03135 -0.007,-0.0072 -0.012,-0.01447 -0.002,-0.0096 -0.007,-0.01688 -0.005,-0.0096 -0.0193,-0.02894 -0.005,-0.0072 -0.01,-0.01447 -0.005,-0.0072 -0.007,-0.01447 -0.0121,-0.0217 -0.041,-0.05547 -0.005,-0.0048 -0.0386,-0.05305 -0.0289,-0.03376 -0.0434,-0.04823 -0.0145,-0.01688 -0.0434,-0.04582 -0.0193,-0.0217 -0.041,-0.041 -0.0169,-0.01206 -0.0458,-0.03617 -0.0241,-0.01929 -0.0458,-0.03617 -0.0555,-0.03617 -0.0458,-0.03135 -0.0482,-0.02894 -0.0434,-0.02653 0,0 -0.0434,-0.0217 -0.01,-0.0048 -0.0458,-0.01688 -0.0314,-0.01206 -0.0458,-0.01688 -0.0121,-0.0024 -0.0217,-0.0048 -0.01,-0.0048 -0.0193,-0.0096 -0.0434,-0.0072 -0.0434,-0.0072 -0.0145,-0.0024 -0.0434,-0.0024 -0.007,0 -0.012,0 -0.005,0 -0.01,0 h -0.79582 v 3.578766 0 z"
         style="font-size:4.93889px;line-height:1.25;font-family:'MS 33558';-inkscape-font-specification:'MS 33558, ';fill:#00ff00;stroke-width:0.264583"
         id="path1001" />
      <path
         d="m 133.73923,93.303281 h -1.99919 v 1.319127 h 1.52411 q 0.34244,0.05064 0.34003,0.344854 0,0.2918 -0.34003,0.340031 h -1.52411 v 1.5844 h 1.99919 q 0.34003,0.05064 0.34003,0.340031 0,0.289388 -0.34003,0.33762 h -2.3344 q -0.30144,-0.03859 -0.34244,-0.342443 v -4.258828 q 0.0458,-0.318327 0.34244,-0.337619 h 2.3344 q 0.34003,0.02653 0.33762,0.340031 0,0.311092 -0.33762,0.332796 z"
         style="font-size:4.93889px;line-height:1.25;font-family:'MS 33558';-inkscape-font-specification:'MS 33558, ';fill:#00ff00;stroke-width:0.264583"
         id="path1003" />
      <g
         id="g881"
         transform="translate(0,-4.2333335)">
        <path
           d="m 46.872658,121.88983 q -0.04548,0.29146 -0.295589,0.28939 -0.248047,0 -0.291455,-0.28939 v -3.65455 q 0.04341,-0.29146 0.291455,-0.29146 0.250114,-0.002 0.295589,0.29146 z"
           style="font-size:4.23333px;line-height:1.25;font-family:'MS 33558';-inkscape-font-specification:'MS 33558, ';fill:#00ff00;stroke-width:0.264583"
           id="path1006" />
        <path
           d="m 50.314305,121.88983 q 0,0.21704 -0.210839,0.27699 -0.208773,0.0579 -0.324528,-0.12402 l -1.736327,-2.78433 v 2.63136 q -0.04548,0.28939 -0.293522,0.28939 -0.245979,0 -0.289387,-0.28939 v -3.65042 q 0.03101,-0.21497 0.219107,-0.28318 0.19017,-0.0682 0.31626,0.12815 l 1.736327,2.78846 v -2.63343 q 0.03927,-0.29559 0.299723,-0.29145 0.262516,0.002 0.283186,0.29145 z"
           style="font-size:4.23333px;line-height:1.25;font-family:'MS 33558';-inkscape-font-specification:'MS 33558, ';fill:#00ff00;stroke-width:0.264583"
           id="path1008" />
        <path
           d="m 51.196938,117.94176 h 0.973583 q 0.725536,0 1.087271,0.66145 0.361735,0.66146 0.361735,1.45521 0,0.79375 -0.363802,1.45521 -0.361735,0.66146 -1.085204,0.66146 h -0.973583 0.0041 -0.0041 q -0.06821,-0.0103 -0.07441,-0.0124 -0.214974,-0.0517 -0.212907,-0.28111 h -0.0021 l 0.0021,-3.65043 q -0.0021,-0.006 -0.0021,-0.0165 0.0062,-0.11369 0.08888,-0.19224 0.08475,-0.0806 0.202572,-0.0806 z m 0.973583,3.65042 q 0.0041,0 0.0083,0 0.0041,0 0.01033,0 0.0041,0 0.0062,0 0.0041,-0.002 0.01034,-0.002 0.0041,0 0.0083,0 0.0062,-0.002 0.0124,-0.002 0.0041,0 0.0083,0 0.0041,-0.002 0.01033,-0.002 0.0041,0 0.0083,0 0.0041,-0.002 0.01033,-0.002 0.0083,-0.004 0.01654,-0.004 0.0041,0 0.0083,-0.002 0.0041,-0.004 0.01034,-0.006 0.0041,0 0.0083,0 0.0062,-0.002 0.0124,-0.004 0.0041,0 0.0083,-0.002 0.0041,-0.002 0.01034,-0.004 0.0124,-0.004 0.0186,-0.008 0.03721,-0.0124 0.02067,-0.008 0.0041,0 0.0083,-0.002 0.0041,-0.004 0.01033,-0.006 0.0186,-0.0124 0.01654,-0.0103 0.02067,-0.0103 0.02067,-0.0103 0.0041,-0.002 0.0083,-0.004 0.0041,-0.004 0.01033,-0.008 0.0186,-0.0124 0.0186,-0.0124 0.0041,-0.002 0.0083,-0.004 0.0062,-0.004 0.0124,-0.008 0.0041,-0.002 0.0083,-0.006 0.0041,-0.004 0.01033,-0.008 0.0041,-0.002 0.0083,-0.004 0.0041,-0.004 0.01033,-0.008 0.0041,-0.004 0.02067,-0.0165 0.01654,-0.0165 0.01654,-0.0165 0.0041,-0.004 0.0083,-0.008 0.0041,-0.004 0.01033,-0.0103 0.0041,-0.004 0.0083,-0.008 0.0041,-0.004 0.01034,-0.0103 0.0062,-0.004 0.0186,-0.0165 0.0041,-0.004 0.0083,-0.008 0.0041,-0.004 0.01033,-0.0103 0.0041,-0.004 0.0083,-0.008 0.0041,-0.006 0.01034,-0.0124 0.02481,-0.0331 0.01654,-0.0207 0.01447,-0.0145 0.0186,-0.0227 0.0186,-0.0248 0.01654,-0.0227 0.0041,-0.006 0.0083,-0.0103 0.0041,-0.006 0.01033,-0.0124 0.0041,-0.006 0.0062,-0.0124 0.0041,-0.006 0.01033,-0.0124 0.0021,-0.006 0.0062,-0.0124 0.0062,-0.008 0.01034,-0.0145 0.0124,-0.0165 0.01654,-0.0248 0.0041,-0.006 0.0062,-0.0124 0.0041,-0.008 0.01034,-0.0145 0.0041,-0.006 0.0062,-0.0124 0.0041,-0.008 0.01033,-0.0145 0.0041,-0.0103 0.0124,-0.0269 0.0041,-0.006 0.0062,-0.0145 0.0041,-0.008 0.01033,-0.0165 0.0041,-0.006 0.0062,-0.0124 0.0041,-0.008 0.01033,-0.0165 0.0021,-0.006 0.0041,-0.0145 0.0041,-0.008 0.0083,-0.0165 0.0062,-0.0103 0.01447,-0.031 0.02067,-0.0517 0.01447,-0.0331 0.0021,-0.006 0.0041,-0.0145 0.0041,-0.0103 0.0083,-0.0186 0.0021,-0.008 0.0041,-0.0165 0.0041,-0.008 0.0083,-0.0186 0.0062,-0.0186 0.01033,-0.0331 0.0021,-0.008 0.0041,-0.0165 0.0041,-0.008 0.0083,-0.0186 -0.0083,0.0207 0.01033,-0.0351 0.0041,-0.0103 0.0124,-0.0351 0,-0.008 0.0021,-0.0165 0.0041,-0.0103 0.0062,-0.0207 0.0021,-0.008 0.0041,-0.0165 0.0021,-0.0103 0.0062,-0.0207 0,-0.006 0.0021,-0.0145 0.0041,-0.0103 0.0062,-0.0207 0.0021,-0.0145 0.0062,-0.0393 0,-0.008 0.0021,-0.0165 0.0041,-0.0103 0.0062,-0.0207 0,-0.008 0.0021,-0.0165 0.0021,-0.0103 0.0041,-0.0207 0.0021,-0.0145 0.0062,-0.0393 0,-0.008 0.0021,-0.0186 0.0041,-0.0103 0.0062,-0.0207 0,-0.0145 0.0041,-0.0393 0,-0.008 0,-0.0165 0.0021,-0.0103 0.0041,-0.0227 0.0041,-0.0248 0.0041,-0.0393 0.0021,-0.0145 0.0021,-0.0393 0.0021,-0.0145 0.0021,-0.0413 0.0021,-0.0145 0.0021,-0.0393 0,-0.0103 0,-0.0186 0.0021,-0.0103 0.0041,-0.0227 0,-0.008 0,-0.0165 0.0021,-0.0103 0.0021,-0.0227 0,-0.008 0,-0.0186 0,-0.0103 0,-0.0207 0,-0.0103 0,-0.0186 0,-0.0103 0,-0.0207 0,-0.0103 -0.0021,-0.0186 0,-0.0103 0,-0.0227 0,-0.008 0,-0.0186 0,-0.0103 0,-0.0207 0,-0.0124 -0.0041,-0.0413 0,-0.0248 -0.0021,-0.0372 0,-0.0145 -0.0041,-0.0434 0,-0.0248 -0.0021,-0.0372 0,-0.0145 -0.0041,-0.0393 -0.0021,-0.008 -0.0041,-0.0186 0,-0.0103 0,-0.0207 -0.0041,-0.0248 -0.0083,-0.0393 -0.0021,-0.008 -0.0041,-0.0165 -0.0021,-0.0103 -0.0021,-0.0207 -0.0021,-0.0145 -0.0062,-0.0393 -0.0021,-0.0145 -0.0062,-0.0393 -0.0083,-0.0248 -0.01034,-0.0372 -0.0041,-0.0248 -0.0062,-0.0351 -0.0041,-0.008 -0.0062,-0.0165 -0.0021,-0.0103 -0.0041,-0.0207 -0.0021,-0.008 -0.0062,-0.0165 -0.0041,-0.0103 -0.0041,-0.0207 -0.0186,-0.0558 -0.01033,-0.0351 -0.0041,-0.0145 -0.01034,-0.0351 -0.0041,-0.006 -0.0083,-0.0145 -0.0021,-0.0103 -0.0041,-0.0186 -0.0021,-0.006 -0.0124,-0.0351 -0.0083,-0.0207 -0.0124,-0.0331 -0.0041,-0.006 -0.0083,-0.0145 -0.0021,-0.0103 -0.0041,-0.0186 -0.0041,-0.006 -0.0083,-0.0145 -0.0041,-0.008 -0.0062,-0.0165 -0.0083,-0.0207 -0.01447,-0.031 -0.0083,-0.0207 -0.0124,-0.0289 -0.0083,-0.0207 -0.01447,-0.031 -0.0041,-0.006 -0.0083,-0.0124 -0.0041,-0.008 -0.0062,-0.0145 -0.0124,-0.0207 -0.01654,-0.0289 -0.0186,-0.0289 -0.01654,-0.0269 -0.0062,-0.006 -0.01034,-0.0124 -0.0021,-0.008 -0.0062,-0.0145 -0.0041,-0.008 -0.01654,-0.0248 -0.0041,-0.006 -0.0083,-0.0124 -0.0041,-0.006 -0.0062,-0.0124 -0.01033,-0.0186 -0.03514,-0.0475 -0.0041,-0.004 -0.03307,-0.0455 -0.0248,-0.0289 -0.03721,-0.0414 -0.0124,-0.0145 -0.03721,-0.0393 -0.01654,-0.0186 -0.03514,-0.0351 -0.01447,-0.0103 -0.03927,-0.031 -0.02067,-0.0165 -0.03927,-0.031 -0.04754,-0.031 -0.03927,-0.0269 -0.04134,-0.0248 -0.03721,-0.0227 0,0 -0.03721,-0.0186 -0.0083,-0.004 -0.03927,-0.0145 -0.02687,-0.0103 -0.03927,-0.0145 -0.01034,-0.002 -0.0186,-0.004 -0.0083,-0.004 -0.01654,-0.008 -0.03721,-0.006 -0.03721,-0.006 -0.0124,-0.002 -0.03721,-0.002 -0.0062,0 -0.01033,0 -0.0041,0 -0.0083,0 h -0.682129 v 3.06751 0 z"
           style="font-size:4.23333px;line-height:1.25;font-family:'MS 33558';-inkscape-font-specification:'MS 33558, ';fill:#00ff00;stroke-width:0.264583"
           id="path1010" />
        <path
           d="m 55.72379,117.94176 q 0.39274,0.0331 0.659391,0.23771 0.268717,0.20464 0.37207,0.49402 0.103352,0.28733 0.02687,0.61392 -0.07441,0.32453 -0.363801,0.59738 0.318326,0.33486 0.396874,0.72347 0.07855,0.38861 -0.04961,0.7276 -0.126091,0.33693 -0.440283,0.57258 -0.314192,0.23564 -0.77928,0.26665 h -0.0062 -1.099674 q -0.254247,-0.0351 -0.293522,-0.28732 v -3.65249 q 0.03514,-0.25632 0.293522,-0.29352 z m -0.183968,3.64835 q 0.351399,-0.0145 0.535367,-0.22738 0.183968,-0.2129 0.190169,-0.47128 0.0083,-0.26045 -0.165364,-0.48783 -0.173633,-0.22738 -0.535367,-0.27492 h -0.833024 v 1.46141 z m 0.183968,-3.06131 h -0.992187 v 1.01906 h 0.998388 q 0.256315,-0.0269 0.380338,-0.18397 0.126091,-0.15916 0.121957,-0.339 -0.0021,-0.1819 -0.130225,-0.33072 -0.128157,-0.1509 -0.378271,-0.16537 z"
           style="font-size:4.23333px;line-height:1.25;font-family:'MS 33558';-inkscape-font-specification:'MS 33558, ';fill:#00ff00;stroke-width:0.264583"
           id="path1012" />
      </g>
      <g
         id="g888"
         transform="translate(0,-4.2333335)">
        <path
           d="m 100.06447,119.15893 q 0.19017,0.57258 0.14263,1.18856 -0.0455,0.61598 -0.336935,1.12448 -0.183968,0.31626 -0.502294,0.53743 -0.318327,0.22118 -0.702799,0.15503 -0.626318,-0.10955 -0.959114,-0.65319 -0.332796,-0.54363 -0.382405,-1.20923 -0.04754,-0.66765 0.179834,-1.30017 0.229443,-0.63252 0.72967,-0.91984 0.243913,-0.14056 0.510563,-0.14056 0.508496,0 0.830956,0.38447 0.322461,0.3824 0.489894,0.83302 z m -1.304313,-0.63045 q -0.380339,0 -0.576709,0.40928 -0.194303,0.40927 -0.24598,0.69866 -0.03927,0.21084 -0.02894,0.51057 0.01033,0.29972 0.08682,0.59324 0.07648,0.29145 0.229443,0.5271 0.152962,0.23358 0.401009,0.31006 0.289388,0.091 0.49816,-0.11369 0.21084,-0.20671 0.318327,-0.43822 0.109554,-0.23771 0.148828,-0.62425 0.04134,-0.38654 -0.0186,-0.77101 -0.05788,-0.38654 -0.229443,-0.69453 -0.171565,-0.31006 -0.487825,-0.39481 -0.04134,-0.0124 -0.09508,-0.0124 z"
           style="font-size:4.23333px;line-height:1.25;font-family:'MS 33558';-inkscape-font-specification:'MS 33558, ';fill:#00ff00;stroke-width:0.264583"
           id="path1015" />
        <path
           d="m 103.54952,120.7795 v 0.0413 q -0.006,0.10335 -0.008,0.12402 -0.0868,0.63252 -0.51883,0.93431 -0.43202,0.29972 -0.92191,0.28112 -0.48989,-0.0207 -0.8971,-0.3576 -0.40515,-0.33693 -0.44029,-0.98185 v -0.0413 -2.54868 q 0,-0.062 0.0227,-0.11162 0.0992,-0.21704 0.32866,-0.17156 0.23151,0.0455 0.23151,0.28318 v 2.54868 q 0.031,0.47543 0.41755,0.71107 0.3886,0.23565 0.81649,-0.0207 0.19223,-0.11369 0.28111,-0.29352 0.091,-0.17984 0.10749,-0.39688 v -2.54868 q 0,-0.0372 0.004,-0.0558 0.0475,-0.25424 0.31212,-0.22944 0.26458,0.0248 0.26458,0.28525 z"
           style="font-size:4.23333px;line-height:1.25;font-family:'MS 33558';-inkscape-font-specification:'MS 33558, ';fill:#00ff00;stroke-width:0.264583"
           id="path1017" />
        <path
           d="m 105.10188,121.88538 v -3.36103 h -0.75861 q -0.28938,-0.0227 -0.28938,-0.28939 0.002,-0.26872 0.28938,-0.29352 h 2.09806 q 0.28526,0.0227 0.28526,0.29352 0.002,0.26872 -0.28526,0.28939 h -0.75654 v 3.36103 q -0.0475,0.29352 -0.30592,0.28939 -0.25632,-0.004 -0.27699,-0.28939 z"
           style="font-size:4.23333px;line-height:1.25;font-family:'MS 33558';-inkscape-font-specification:'MS 33558, ';fill:#00ff00;stroke-width:0.264583"
           id="path1019" />
        <path
           d="m 108.9218,117.94144 q 0.39274,0.0331 0.65939,0.23771 0.26872,0.20464 0.37207,0.49402 0.10335,0.28733 0.0269,0.61392 -0.0744,0.32453 -0.3638,0.59738 0.31833,0.33486 0.39688,0.72347 0.0785,0.3886 -0.0496,0.7276 -0.12609,0.33693 -0.44029,0.57258 -0.31419,0.23564 -0.77928,0.26665 h -0.006 -1.09967 q -0.25425,-0.0351 -0.29352,-0.28732 v -3.65249 q 0.0351,-0.25632 0.29352,-0.29352 z m -0.18397,3.64835 q 0.3514,-0.0145 0.53537,-0.22738 0.18397,-0.2129 0.19017,-0.47128 0.008,-0.26045 -0.16536,-0.48783 -0.17364,-0.22738 -0.53537,-0.27492 h -0.83303 v 1.46141 z m 0.18397,-3.06131 h -0.99219 v 1.01906 h 0.99839 q 0.25632,-0.0269 0.38034,-0.18397 0.12609,-0.15916 0.12196,-0.339 -0.002,-0.1819 -0.13023,-0.33073 -0.12816,-0.15089 -0.37827,-0.16536 z"
           style="font-size:4.23333px;line-height:1.25;font-family:'MS 33558';-inkscape-font-specification:'MS 33558, ';fill:#00ff00;stroke-width:0.264583"
           id="path1021" />
        <path
           d="m 110.8731,117.94144 h 0.97359 q 0.72553,0 1.08727,0.66145 0.36173,0.66146 0.36173,1.45521 0,0.79375 -0.3638,1.45521 -0.36174,0.66146 -1.0852,0.66146 h -0.97359 0.004 -0.004 q -0.0682,-0.0103 -0.0744,-0.0124 -0.21498,-0.0517 -0.21291,-0.28112 h -0.002 l 0.002,-3.65042 q -0.002,-0.006 -0.002,-0.0165 0.006,-0.11369 0.0889,-0.19224 0.0847,-0.0806 0.20257,-0.0806 z m 0.97359,3.65042 q 0.004,0 0.008,0 0.004,0 0.0103,0 0.004,0 0.006,0 0.004,-0.002 0.0103,-0.002 0.004,0 0.008,0 0.006,-0.002 0.0124,-0.002 0.004,0 0.008,0 0.004,-0.002 0.0103,-0.002 0.004,0 0.008,0 0.004,-0.002 0.0103,-0.002 0.008,-0.004 0.0165,-0.004 0.004,0 0.008,-0.002 0.004,-0.004 0.0103,-0.006 0.004,0 0.008,0 0.006,-0.002 0.0124,-0.004 0.004,0 0.008,-0.002 0.004,-0.002 0.0103,-0.004 0.0124,-0.004 0.0186,-0.008 0.0372,-0.0124 0.0207,-0.008 0.004,0 0.008,-0.002 0.004,-0.004 0.0103,-0.006 0.0186,-0.0124 0.0165,-0.0103 0.0207,-0.0103 0.0207,-0.0103 0.004,-0.002 0.008,-0.004 0.004,-0.004 0.0103,-0.008 0.0186,-0.0124 0.0186,-0.0124 0.004,-0.002 0.008,-0.004 0.006,-0.004 0.0124,-0.008 0.004,-0.002 0.008,-0.006 0.004,-0.004 0.0103,-0.008 0.004,-0.002 0.008,-0.004 0.004,-0.004 0.0103,-0.008 0.004,-0.004 0.0207,-0.0165 0.0165,-0.0165 0.0165,-0.0165 0.004,-0.004 0.008,-0.008 0.004,-0.004 0.0103,-0.0103 0.004,-0.004 0.008,-0.008 0.004,-0.004 0.0103,-0.0103 0.006,-0.004 0.0186,-0.0165 0.004,-0.004 0.008,-0.008 0.004,-0.004 0.0103,-0.0103 0.004,-0.004 0.008,-0.008 0.004,-0.006 0.0103,-0.0124 0.0248,-0.0331 0.0165,-0.0207 0.0145,-0.0145 0.0186,-0.0227 0.0186,-0.0248 0.0165,-0.0227 0.004,-0.006 0.008,-0.0103 0.004,-0.006 0.0103,-0.0124 0.004,-0.006 0.006,-0.0124 0.004,-0.006 0.0103,-0.0124 0.002,-0.006 0.006,-0.0124 0.006,-0.008 0.0103,-0.0145 0.0124,-0.0165 0.0165,-0.0248 0.004,-0.006 0.006,-0.0124 0.004,-0.008 0.0103,-0.0145 0.004,-0.006 0.006,-0.0124 0.004,-0.008 0.0103,-0.0145 0.004,-0.0103 0.0124,-0.0269 0.004,-0.006 0.006,-0.0145 0.004,-0.008 0.0103,-0.0165 0.004,-0.006 0.006,-0.0124 0.004,-0.008 0.0103,-0.0165 0.002,-0.006 0.004,-0.0145 0.004,-0.008 0.008,-0.0165 0.006,-0.0103 0.0145,-0.031 0.0207,-0.0517 0.0145,-0.0331 0.002,-0.006 0.004,-0.0145 0.004,-0.0103 0.008,-0.0186 0.002,-0.008 0.004,-0.0165 0.004,-0.008 0.008,-0.0186 0.006,-0.0186 0.0103,-0.0331 0.002,-0.008 0.004,-0.0165 0.004,-0.008 0.008,-0.0186 -0.008,0.0207 0.0103,-0.0351 0.004,-0.0103 0.0124,-0.0351 0,-0.008 0.002,-0.0165 0.004,-0.0103 0.006,-0.0207 0.002,-0.008 0.004,-0.0165 0.002,-0.0103 0.006,-0.0207 0,-0.006 0.002,-0.0145 0.004,-0.0103 0.006,-0.0207 0.002,-0.0145 0.006,-0.0393 0,-0.008 0.002,-0.0165 0.004,-0.0103 0.006,-0.0207 0,-0.008 0.002,-0.0165 0.002,-0.0103 0.004,-0.0207 0.002,-0.0145 0.006,-0.0393 0,-0.008 0.002,-0.0186 0.004,-0.0103 0.006,-0.0207 0,-0.0145 0.004,-0.0393 0,-0.008 0,-0.0165 0.002,-0.0103 0.004,-0.0227 0.004,-0.0248 0.004,-0.0393 0.002,-0.0145 0.002,-0.0393 0.002,-0.0145 0.002,-0.0414 0.002,-0.0145 0.002,-0.0393 0,-0.0103 0,-0.0186 0.002,-0.0103 0.004,-0.0227 0,-0.008 0,-0.0165 0.002,-0.0103 0.002,-0.0227 0,-0.008 0,-0.0186 0,-0.0103 0,-0.0207 0,-0.0103 0,-0.0186 0,-0.0103 0,-0.0207 0,-0.0103 -0.002,-0.0186 0,-0.0103 0,-0.0227 0,-0.008 0,-0.0186 0,-0.0103 0,-0.0207 0,-0.0124 -0.004,-0.0413 0,-0.0248 -0.002,-0.0372 0,-0.0145 -0.004,-0.0434 0,-0.0248 -0.002,-0.0372 0,-0.0145 -0.004,-0.0393 -0.002,-0.008 -0.004,-0.0186 0,-0.0103 0,-0.0207 -0.004,-0.0248 -0.008,-0.0393 -0.002,-0.008 -0.004,-0.0165 -0.002,-0.0103 -0.002,-0.0207 -0.002,-0.0145 -0.006,-0.0393 -0.002,-0.0145 -0.006,-0.0393 -0.008,-0.0248 -0.0103,-0.0372 -0.004,-0.0248 -0.006,-0.0351 -0.004,-0.008 -0.006,-0.0165 -0.002,-0.0103 -0.004,-0.0207 -0.002,-0.008 -0.006,-0.0165 -0.004,-0.0103 -0.004,-0.0207 -0.0186,-0.0558 -0.0103,-0.0351 -0.004,-0.0145 -0.0103,-0.0351 -0.004,-0.006 -0.008,-0.0145 -0.002,-0.0103 -0.004,-0.0186 -0.002,-0.006 -0.0124,-0.0351 -0.008,-0.0207 -0.0124,-0.0331 -0.004,-0.006 -0.008,-0.0145 -0.002,-0.0103 -0.004,-0.0186 -0.004,-0.006 -0.008,-0.0145 -0.004,-0.008 -0.006,-0.0165 -0.008,-0.0207 -0.0145,-0.031 -0.008,-0.0207 -0.0124,-0.0289 -0.008,-0.0207 -0.0145,-0.031 -0.004,-0.006 -0.008,-0.0124 -0.004,-0.008 -0.006,-0.0145 -0.0124,-0.0207 -0.0165,-0.0289 -0.0186,-0.0289 -0.0165,-0.0269 -0.006,-0.006 -0.0103,-0.0124 -0.002,-0.008 -0.006,-0.0145 -0.004,-0.008 -0.0165,-0.0248 -0.004,-0.006 -0.008,-0.0124 -0.004,-0.006 -0.006,-0.0124 -0.0103,-0.0186 -0.0351,-0.0475 -0.004,-0.004 -0.0331,-0.0455 -0.0248,-0.0289 -0.0372,-0.0414 -0.0124,-0.0145 -0.0372,-0.0393 -0.0165,-0.0186 -0.0351,-0.0351 -0.0145,-0.0103 -0.0393,-0.031 -0.0207,-0.0165 -0.0393,-0.031 -0.0475,-0.031 -0.0393,-0.0269 -0.0413,-0.0248 -0.0372,-0.0227 0,0 -0.0372,-0.0186 -0.008,-0.004 -0.0393,-0.0145 -0.0269,-0.0103 -0.0393,-0.0145 -0.0103,-0.002 -0.0186,-0.004 -0.008,-0.004 -0.0165,-0.008 -0.0372,-0.006 -0.0372,-0.006 -0.0124,-0.002 -0.0372,-0.002 -0.006,0 -0.0103,0 -0.004,0 -0.008,0 h -0.68213 v 3.06751 0 z"
           style="font-size:4.23333px;line-height:1.25;font-family:'MS 33558';-inkscape-font-specification:'MS 33558, ';fill:#00ff00;stroke-width:0.264583"
           id="path1023" />
      </g>
      <path
         d="m 47.406391,137.64505 q 0.190169,0.57258 0.142627,1.18856 -0.04547,0.61598 -0.33693,1.12448 -0.183968,0.31626 -0.502294,0.53743 -0.318327,0.22118 -0.702799,0.15503 -0.626318,-0.10955 -0.959114,-0.65319 -0.332796,-0.54363 -0.382405,-1.20922 -0.04754,-0.66766 0.179834,-1.30018 0.229443,-0.63252 0.72967,-0.91984 0.243913,-0.14056 0.510563,-0.14056 0.508496,0 0.830956,0.38447 0.322461,0.38241 0.489892,0.83302 z m -1.304312,-0.63045 q -0.380338,0 -0.576708,0.40928 -0.194303,0.40928 -0.24598,0.69866 -0.03927,0.21084 -0.02894,0.51057 0.01034,0.29972 0.08682,0.59324 0.07648,0.29146 0.229443,0.5271 0.152962,0.23358 0.401009,0.31006 0.289387,0.0909 0.49816,-0.11369 0.21084,-0.2067 0.318327,-0.43821 0.109554,-0.23772 0.148828,-0.62425 0.04134,-0.38654 -0.0186,-0.77102 -0.05788,-0.38654 -0.229443,-0.69453 -0.171566,-0.31006 -0.487825,-0.3948 -0.04134,-0.0124 -0.09508,-0.0124 z"
         style="font-size:4.23333px;line-height:1.25;font-family:'MS 33558';-inkscape-font-specification:'MS 33558, ';fill:#00ff00;stroke-width:0.264583"
         id="path1026" />
      <path
         d="m 50.715747,140.21234 q 0.132292,0.23357 -0.07441,0.39274 -0.09922,0.0703 -0.229443,0.0475 -0.128157,-0.0227 -0.188102,-0.12816 l -1.019058,-1.61023 H 48.68797 v 1.4552 q 0,0.17984 -0.163298,0.26045 -0.163297,0.0785 -0.305924,-0.031 -0.113688,-0.0848 -0.113688,-0.22945 v -3.65248 q 0,-0.11989 0.08268,-0.20464 0.08475,-0.0848 0.206706,-0.0848 h 1.283641 q 0.463021,0 0.804085,0.29559 0.341064,0.29352 0.423746,0.7462 0.08682,0.48576 -0.206705,0.90951 -0.291455,0.42168 -0.775146,0.51263 l -0.03927,0.006 z m -1.037662,-1.87896 q 0.21084,0 0.388607,-0.12815 0.179834,-0.12816 0.241845,-0.33487 0.09715,-0.31832 -0.08888,-0.57464 -0.186035,-0.25838 -0.51263,-0.28525 h -1.019058 v 1.32291 z"
         style="font-size:4.23333px;line-height:1.25;font-family:'MS 33558';-inkscape-font-specification:'MS 33558, ';fill:#00ff00;stroke-width:0.264583"
         id="path1028" />
      <path
         d="m 52.0614,140.37564 q -0.04547,0.29145 -0.295589,0.28938 -0.248046,0 -0.291454,-0.28938 v -3.65456 q 0.04341,-0.29145 0.291454,-0.29145 0.250114,-0.002 0.295589,0.29145 z"
         style="font-size:4.23333px;line-height:1.25;font-family:'MS 33558';-inkscape-font-specification:'MS 33558, ';fill:#00ff00;stroke-width:0.264583"
         id="path1030" />
      <path
         d="m 52.937832,136.42756 h 0.973583 q 0.725537,0 1.087271,0.66146 0.361735,0.66145 0.361735,1.4552 0,0.79375 -0.363802,1.45521 -0.361734,0.66146 -1.085204,0.66146 h -0.973583 0.0041 -0.0041 q -0.06821,-0.0103 -0.07441,-0.0124 -0.214974,-0.0517 -0.212907,-0.28112 h -0.0021 l 0.0021,-3.65042 q -0.0021,-0.006 -0.0021,-0.0165 0.0062,-0.11369 0.08888,-0.19224 0.08475,-0.0806 0.202571,-0.0806 z m 0.973583,3.65042 q 0.0041,0 0.0083,0 0.0041,0 0.01034,0 0.0041,0 0.0062,0 0.0041,-0.002 0.01033,-0.002 0.0041,0 0.0083,0 0.0062,-0.002 0.0124,-0.002 0.0041,0 0.0083,0 0.0041,-0.002 0.01034,-0.002 0.0041,0 0.0083,0 0.0041,-0.002 0.01034,-0.002 0.0083,-0.004 0.01654,-0.004 0.0041,0 0.0083,-0.002 0.0041,-0.004 0.01034,-0.006 0.0041,0 0.0083,0 0.0062,-0.002 0.0124,-0.004 0.0041,0 0.0083,-0.002 0.0041,-0.002 0.01034,-0.004 0.0124,-0.004 0.0186,-0.008 0.03721,-0.0124 0.02067,-0.008 0.0041,0 0.0083,-0.002 0.0041,-0.004 0.01033,-0.006 0.0186,-0.0124 0.01654,-0.0103 0.02067,-0.0103 0.02067,-0.0103 0.0041,-0.002 0.0083,-0.004 0.0041,-0.004 0.01034,-0.008 0.0186,-0.0124 0.0186,-0.0124 0.0041,-0.002 0.0083,-0.004 0.0062,-0.004 0.0124,-0.008 0.0041,-0.002 0.0083,-0.006 0.0041,-0.004 0.01033,-0.008 0.0041,-0.002 0.0083,-0.004 0.0041,-0.004 0.01034,-0.008 0.0041,-0.004 0.02067,-0.0165 0.01654,-0.0165 0.01654,-0.0165 0.0041,-0.004 0.0083,-0.008 0.0041,-0.004 0.01034,-0.0103 0.0041,-0.004 0.0083,-0.008 0.0041,-0.004 0.01034,-0.0103 0.0062,-0.004 0.0186,-0.0165 0.0041,-0.004 0.0083,-0.008 0.0041,-0.004 0.01034,-0.0103 0.0041,-0.004 0.0083,-0.008 0.0041,-0.006 0.01033,-0.0124 0.02481,-0.0331 0.01654,-0.0207 0.01447,-0.0145 0.0186,-0.0227 0.0186,-0.0248 0.01654,-0.0227 0.0041,-0.006 0.0083,-0.0103 0.0041,-0.006 0.01034,-0.0124 0.0041,-0.006 0.0062,-0.0124 0.0041,-0.006 0.01034,-0.0124 0.0021,-0.006 0.0062,-0.0124 0.0062,-0.008 0.01033,-0.0145 0.0124,-0.0165 0.01654,-0.0248 0.0041,-0.006 0.0062,-0.0124 0.0041,-0.008 0.01033,-0.0145 0.0041,-0.006 0.0062,-0.0124 0.0041,-0.008 0.01033,-0.0145 0.0041,-0.0103 0.0124,-0.0269 0.0041,-0.006 0.0062,-0.0145 0.0041,-0.008 0.01034,-0.0165 0.0041,-0.006 0.0062,-0.0124 0.0041,-0.008 0.01034,-0.0165 0.0021,-0.006 0.0041,-0.0145 0.0041,-0.008 0.0083,-0.0165 0.0062,-0.0103 0.01447,-0.031 0.02067,-0.0517 0.01447,-0.0331 0.0021,-0.006 0.0041,-0.0145 0.0041,-0.0103 0.0083,-0.0186 0.0021,-0.008 0.0041,-0.0165 0.0041,-0.008 0.0083,-0.0186 0.0062,-0.0186 0.01034,-0.0331 0.0021,-0.008 0.0041,-0.0165 0.0041,-0.008 0.0083,-0.0186 -0.0083,0.0207 0.01034,-0.0351 0.0041,-0.0103 0.0124,-0.0351 0,-0.008 0.0021,-0.0165 0.0041,-0.0103 0.0062,-0.0207 0.0021,-0.008 0.0041,-0.0165 0.0021,-0.0103 0.0062,-0.0207 0,-0.006 0.0021,-0.0145 0.0041,-0.0103 0.0062,-0.0207 0.0021,-0.0145 0.0062,-0.0393 0,-0.008 0.0021,-0.0165 0.0041,-0.0103 0.0062,-0.0207 0,-0.008 0.0021,-0.0165 0.0021,-0.0103 0.0041,-0.0207 0.0021,-0.0145 0.0062,-0.0393 0,-0.008 0.0021,-0.0186 0.0041,-0.0103 0.0062,-0.0207 0,-0.0145 0.0041,-0.0393 0,-0.008 0,-0.0165 0.0021,-0.0103 0.0041,-0.0227 0.0041,-0.0248 0.0041,-0.0393 0.0021,-0.0145 0.0021,-0.0393 0.0021,-0.0145 0.0021,-0.0413 0.0021,-0.0145 0.0021,-0.0393 0,-0.0103 0,-0.0186 0.0021,-0.0103 0.0041,-0.0227 0,-0.008 0,-0.0165 0.0021,-0.0103 0.0021,-0.0227 0,-0.008 0,-0.0186 0,-0.0103 0,-0.0207 0,-0.0103 0,-0.0186 0,-0.0103 0,-0.0207 0,-0.0103 -0.0021,-0.0186 0,-0.0103 0,-0.0227 0,-0.008 0,-0.0186 0,-0.0103 0,-0.0207 0,-0.0124 -0.0041,-0.0413 0,-0.0248 -0.0021,-0.0372 0,-0.0145 -0.0041,-0.0434 0,-0.0248 -0.0021,-0.0372 0,-0.0145 -0.0041,-0.0393 -0.0021,-0.008 -0.0041,-0.0186 0,-0.0103 0,-0.0207 -0.0041,-0.0248 -0.0083,-0.0393 -0.0021,-0.008 -0.0041,-0.0165 -0.0021,-0.0103 -0.0021,-0.0207 -0.0021,-0.0145 -0.0062,-0.0393 -0.0021,-0.0145 -0.0062,-0.0393 -0.0083,-0.0248 -0.01034,-0.0372 -0.0041,-0.0248 -0.0062,-0.0351 -0.0041,-0.008 -0.0062,-0.0165 -0.0021,-0.0103 -0.0041,-0.0207 -0.0021,-0.008 -0.0062,-0.0165 -0.0041,-0.0103 -0.0041,-0.0207 -0.0186,-0.0558 -0.01034,-0.0351 -0.0041,-0.0145 -0.01033,-0.0351 -0.0041,-0.006 -0.0083,-0.0145 -0.0021,-0.0103 -0.0041,-0.0186 -0.0021,-0.006 -0.0124,-0.0351 -0.0083,-0.0207 -0.0124,-0.0331 -0.0041,-0.006 -0.0083,-0.0145 -0.0021,-0.0103 -0.0041,-0.0186 -0.0041,-0.006 -0.0083,-0.0145 -0.0041,-0.008 -0.0062,-0.0165 -0.0083,-0.0207 -0.01447,-0.031 -0.0083,-0.0207 -0.0124,-0.0289 -0.0083,-0.0207 -0.01447,-0.031 -0.0041,-0.006 -0.0083,-0.0124 -0.0041,-0.008 -0.0062,-0.0145 -0.0124,-0.0207 -0.01654,-0.0289 -0.0186,-0.0289 -0.01654,-0.0269 -0.0062,-0.006 -0.01033,-0.0124 -0.0021,-0.008 -0.0062,-0.0145 -0.0041,-0.008 -0.01654,-0.0248 -0.0041,-0.006 -0.0083,-0.0124 -0.0041,-0.006 -0.0062,-0.0124 -0.01034,-0.0186 -0.03514,-0.0476 -0.0041,-0.004 -0.03307,-0.0455 -0.02481,-0.0289 -0.03721,-0.0413 -0.0124,-0.0145 -0.03721,-0.0393 -0.01654,-0.0186 -0.03514,-0.0351 -0.01447,-0.0103 -0.03927,-0.031 -0.02067,-0.0165 -0.03927,-0.031 -0.04754,-0.031 -0.03927,-0.0269 -0.04134,-0.0248 -0.03721,-0.0227 0,0 -0.03721,-0.0186 -0.0083,-0.004 -0.03927,-0.0145 -0.02687,-0.0103 -0.03927,-0.0145 -0.01034,-0.002 -0.0186,-0.004 -0.0083,-0.004 -0.01654,-0.008 -0.03721,-0.006 -0.03721,-0.006 -0.0124,-0.002 -0.03721,-0.002 -0.0062,0 -0.01034,0 -0.0041,0 -0.0083,0 h -0.682128 v 3.06751 0 z"
         style="font-size:4.23333px;line-height:1.25;font-family:'MS 33558';-inkscape-font-specification:'MS 33558, ';fill:#00ff00;stroke-width:0.264583"
         id="path1032" />
      <path
         d="m 58.181952,137.00427 h -1.71359 v 1.13068 h 1.30638 q 0.293521,0.0434 0.291454,0.29559 0,0.25011 -0.291454,0.29145 h -1.30638 v 1.35806 h 1.71359 q 0.291454,0.0434 0.291454,0.29145 0,0.24805 -0.291454,0.28939 h -2.00091 q -0.258382,-0.0331 -0.293522,-0.29352 v -3.65042 q 0.03927,-0.27285 0.293522,-0.28939 h 2.00091 q 0.291454,0.0227 0.289387,0.29145 0,0.26665 -0.289387,0.28526 z"
         style="font-size:4.23333px;line-height:1.25;font-family:'MS 33558';-inkscape-font-specification:'MS 33558, ';fill:#00ff00;stroke-width:0.264583"
         id="path1034" />
      <path
         d="m 47.746446,157.70635 q 0,0.21704 -0.21084,0.27699 -0.208773,0.0579 -0.324528,-0.12402 l -1.736326,-2.78433 v 2.63136 q -0.04548,0.28939 -0.293522,0.28939 -0.24598,0 -0.289388,-0.28939 v -3.65042 q 0.03101,-0.21497 0.219108,-0.28318 0.190169,-0.0682 0.316259,0.12815 l 1.736327,2.78846 v -2.63343 q 0.03927,-0.29559 0.299723,-0.29145 0.262516,0.002 0.283187,0.29145 z"
         style="font-size:4.23333px;line-height:1.25;font-family:'MS 33558';-inkscape-font-specification:'MS 33558, ';fill:#00ff00;stroke-width:0.264583"
         id="path1037" />
      <path
         d="m 51.088874,154.97577 q 0.190169,0.57258 0.142627,1.18856 -0.04548,0.61598 -0.33693,1.12448 -0.183968,0.31626 -0.502294,0.53743 -0.318327,0.22118 -0.702799,0.15503 -0.626318,-0.10955 -0.959114,-0.65319 -0.332796,-0.54363 -0.382405,-1.20922 -0.04754,-0.66766 0.179834,-1.30018 0.229443,-0.63252 0.72967,-0.91984 0.243913,-0.14056 0.510563,-0.14056 0.508496,0 0.830956,0.38447 0.322461,0.38241 0.489892,0.83302 z m -1.304312,-0.63045 q -0.380338,0 -0.576708,0.40928 -0.194303,0.40928 -0.24598,0.69866 -0.03927,0.21084 -0.02894,0.51057 0.01034,0.29972 0.08682,0.59324 0.07648,0.29146 0.229443,0.5271 0.152962,0.23358 0.401009,0.31006 0.289387,0.091 0.49816,-0.11369 0.21084,-0.2067 0.318327,-0.43822 0.109554,-0.23771 0.148828,-0.62425 0.04134,-0.38654 -0.0186,-0.77101 -0.05788,-0.38654 -0.229443,-0.69453 -0.171566,-0.31006 -0.487825,-0.39481 -0.04134,-0.0124 -0.09508,-0.0124 z"
         style="font-size:4.23333px;line-height:1.25;font-family:'MS 33558';-inkscape-font-specification:'MS 33558, ';fill:#00ff00;stroke-width:0.264583"
         id="path1039" />
      <path
         d="m 54.39823,157.54306 q 0.132292,0.23357 -0.07441,0.39274 -0.09922,0.0703 -0.229443,0.0475 -0.128157,-0.0227 -0.188102,-0.12816 l -1.019058,-1.61023 h -0.516764 v 1.4552 q 0,0.17984 -0.163298,0.26045 -0.163297,0.0786 -0.305924,-0.031 -0.113688,-0.0847 -0.113688,-0.22945 v -3.65248 q 0,-0.11989 0.08268,-0.20464 0.08475,-0.0847 0.206706,-0.0847 h 1.283641 q 0.463021,0 0.804085,0.29559 0.341064,0.29352 0.423746,0.7462 0.08682,0.48576 -0.206705,0.90951 -0.291455,0.42168 -0.775146,0.51263 l -0.03927,0.006 z m -1.037662,-1.87896 q 0.21084,0 0.388607,-0.12815 0.179834,-0.12816 0.241845,-0.33487 0.09715,-0.31832 -0.08888,-0.57464 -0.186035,-0.25838 -0.51263,-0.28525 h -1.019058 v 1.32291 z"
         style="font-size:4.23333px;line-height:1.25;font-family:'MS 33558';-inkscape-font-specification:'MS 33558, ';fill:#00ff00;stroke-width:0.264583"
         id="path1041" />
      <path
         d="m 58.238819,157.70222 q -0.04547,0.28939 -0.293522,0.28939 -0.245979,-0.002 -0.289387,-0.28939 v -2.58175 l -0.709001,1.21336 q -0.113688,0.13642 -0.254247,0.14263 -0.138493,0.006 -0.248047,-0.14263 l -0.704866,-1.20716 0.0021,2.57555 q -0.03307,0.28732 -0.299723,0.28732 -0.264583,-0.002 -0.285254,-0.28732 v -3.65042 q 0.01654,-0.23771 0.208773,-0.28319 0.192236,-0.0475 0.334863,0.13023 l 0.994254,1.70945 1.004589,-1.70945 q 0.142627,-0.17777 0.330729,-0.13023 0.190169,0.0476 0.208772,0.28319 z"
         style="font-size:4.23333px;line-height:1.25;font-family:'MS 33558';-inkscape-font-specification:'MS 33558, ';fill:#00ff00;stroke-width:0.264583"
         id="path1043" />
      <path
         d="m 102.6694,137.64505 q 0.19016,0.57258 0.14262,1.18856 -0.0455,0.61598 -0.33693,1.12448 -0.18397,0.31626 -0.50229,0.53743 -0.31833,0.22118 -0.7028,0.15503 -0.62632,-0.10955 -0.95911,-0.65319 -0.332801,-0.54363 -0.38241,-1.20922 -0.04754,-0.66766 0.17983,-1.30018 0.22945,-0.63252 0.72967,-0.91984 0.24392,-0.14056 0.51057,-0.14056 0.50849,0 0.83095,0.38447 0.32246,0.38241 0.4899,0.83302 z m -1.30432,-0.63045 q -0.38033,0 -0.5767,0.40928 -0.19431,0.40928 -0.24598,0.69866 -0.0393,0.21084 -0.0289,0.51057 0.0103,0.29972 0.0868,0.59324 0.0765,0.29146 0.22945,0.5271 0.15296,0.23358 0.40101,0.31006 0.28938,0.0909 0.49816,-0.11369 0.21084,-0.2067 0.31832,-0.43821 0.10956,-0.23772 0.14883,-0.62425 0.0413,-0.38654 -0.0186,-0.77102 -0.0579,-0.38654 -0.22945,-0.69453 -0.17156,-0.31006 -0.48782,-0.3948 -0.0413,-0.0124 -0.0951,-0.0124 z"
         style="font-size:4.23333px;line-height:1.25;font-family:'MS 33558';-inkscape-font-specification:'MS 33558, ';fill:#00ff00;stroke-width:0.264583"
         id="path1046" />
      <path
         d="m 105.97875,140.21234 q 0.13229,0.23357 -0.0744,0.39274 -0.0992,0.0703 -0.22945,0.0475 -0.12815,-0.0227 -0.1881,-0.12816 l -1.01906,-1.61023 h -0.51676 v 1.4552 q 0,0.17984 -0.1633,0.26045 -0.16329,0.0785 -0.30592,-0.031 -0.11369,-0.0848 -0.11369,-0.22945 v -3.65248 q 0,-0.11989 0.0827,-0.20464 0.0847,-0.0848 0.20671,-0.0848 h 1.28364 q 0.46302,0 0.80408,0.29559 0.34107,0.29352 0.42375,0.7462 0.0868,0.48576 -0.2067,0.90951 -0.29146,0.42168 -0.77515,0.51263 l -0.0393,0.006 z m -1.03766,-1.87896 q 0.21084,0 0.38861,-0.12815 0.17983,-0.12816 0.24184,-0.33487 0.0971,-0.31832 -0.0889,-0.57464 -0.18604,-0.25838 -0.51263,-0.28525 h -1.01906 v 1.32291 z"
         style="font-size:4.23333px;line-height:1.25;font-family:'MS 33558';-inkscape-font-specification:'MS 33558, ';fill:#00ff00;stroke-width:0.264583"
         id="path1048" />
      <path
         d="m 107.3244,140.37564 q -0.0455,0.29145 -0.29558,0.28938 -0.24805,0 -0.29146,-0.28938 v -3.65456 q 0.0434,-0.29145 0.29146,-0.29145 0.25011,-0.002 0.29558,0.29145 z"
         style="font-size:4.23333px;line-height:1.25;font-family:'MS 33558';-inkscape-font-specification:'MS 33558, ';fill:#00ff00;stroke-width:0.264583"
         id="path1050" />
      <path
         d="m 108.20084,136.42756 h 0.97358 q 0.72554,0 1.08727,0.66146 0.36174,0.66145 0.36174,1.4552 0,0.79375 -0.36381,1.45521 -0.36173,0.66146 -1.0852,0.66146 h -0.97358 0.004 -0.004 q -0.0682,-0.0103 -0.0744,-0.0124 -0.21497,-0.0517 -0.2129,-0.28112 h -0.002 l 0.002,-3.65042 q -0.002,-0.006 -0.002,-0.0165 0.006,-0.11369 0.0889,-0.19224 0.0847,-0.0806 0.20257,-0.0806 z m 0.97358,3.65042 q 0.004,0 0.008,0 0.004,0 0.0103,0 0.004,0 0.006,0 0.004,-0.002 0.0103,-0.002 0.004,0 0.008,0 0.006,-0.002 0.0124,-0.002 0.004,0 0.008,0 0.004,-0.002 0.0103,-0.002 0.004,0 0.008,0 0.004,-0.002 0.0103,-0.002 0.008,-0.004 0.0165,-0.004 0.004,0 0.008,-0.002 0.004,-0.004 0.0103,-0.006 0.004,0 0.008,0 0.006,-0.002 0.0124,-0.004 0.004,0 0.008,-0.002 0.004,-0.002 0.0103,-0.004 0.0124,-0.004 0.0186,-0.008 0.0372,-0.0124 0.0207,-0.008 0.004,0 0.008,-0.002 0.004,-0.004 0.0103,-0.006 0.0186,-0.0124 0.0165,-0.0103 0.0207,-0.0103 0.0207,-0.0103 0.004,-0.002 0.008,-0.004 0.004,-0.004 0.0103,-0.008 0.0186,-0.0124 0.0186,-0.0124 0.004,-0.002 0.008,-0.004 0.006,-0.004 0.0124,-0.008 0.004,-0.002 0.008,-0.006 0.004,-0.004 0.0103,-0.008 0.004,-0.002 0.008,-0.004 0.004,-0.004 0.0103,-0.008 0.004,-0.004 0.0207,-0.0165 0.0165,-0.0165 0.0165,-0.0165 0.004,-0.004 0.008,-0.008 0.004,-0.004 0.0103,-0.0103 0.004,-0.004 0.008,-0.008 0.004,-0.004 0.0103,-0.0103 0.006,-0.004 0.0186,-0.0165 0.004,-0.004 0.008,-0.008 0.004,-0.004 0.0103,-0.0103 0.004,-0.004 0.008,-0.008 0.004,-0.006 0.0103,-0.0124 0.0248,-0.0331 0.0165,-0.0207 0.0145,-0.0145 0.0186,-0.0227 0.0186,-0.0248 0.0165,-0.0227 0.004,-0.006 0.008,-0.0103 0.004,-0.006 0.0103,-0.0124 0.004,-0.006 0.006,-0.0124 0.004,-0.006 0.0103,-0.0124 0.002,-0.006 0.006,-0.0124 0.006,-0.008 0.0103,-0.0145 0.0124,-0.0165 0.0165,-0.0248 0.004,-0.006 0.006,-0.0124 0.004,-0.008 0.0103,-0.0145 0.004,-0.006 0.006,-0.0124 0.004,-0.008 0.0103,-0.0145 0.004,-0.0103 0.0124,-0.0269 0.004,-0.006 0.006,-0.0145 0.004,-0.008 0.0103,-0.0165 0.004,-0.006 0.006,-0.0124 0.004,-0.008 0.0103,-0.0165 0.002,-0.006 0.004,-0.0145 0.004,-0.008 0.008,-0.0165 0.006,-0.0103 0.0145,-0.031 0.0207,-0.0517 0.0145,-0.0331 0.002,-0.006 0.004,-0.0145 0.004,-0.0103 0.008,-0.0186 0.002,-0.008 0.004,-0.0165 0.004,-0.008 0.008,-0.0186 0.006,-0.0186 0.0103,-0.0331 0.002,-0.008 0.004,-0.0165 0.004,-0.008 0.008,-0.0186 -0.008,0.0207 0.0103,-0.0351 0.004,-0.0103 0.0124,-0.0351 0,-0.008 0.002,-0.0165 0.004,-0.0103 0.006,-0.0207 0.002,-0.008 0.004,-0.0165 0.002,-0.0103 0.006,-0.0207 0,-0.006 0.002,-0.0145 0.004,-0.0103 0.006,-0.0207 0.002,-0.0145 0.006,-0.0393 0,-0.008 0.002,-0.0165 0.004,-0.0103 0.006,-0.0207 0,-0.008 0.002,-0.0165 0.002,-0.0103 0.004,-0.0207 0.002,-0.0145 0.006,-0.0393 0,-0.008 0.002,-0.0186 0.004,-0.0103 0.006,-0.0207 0,-0.0145 0.004,-0.0393 0,-0.008 0,-0.0165 0.002,-0.0103 0.004,-0.0227 0.004,-0.0248 0.004,-0.0393 0.002,-0.0145 0.002,-0.0393 0.002,-0.0145 0.002,-0.0413 0.002,-0.0145 0.002,-0.0393 0,-0.0103 0,-0.0186 0.002,-0.0103 0.004,-0.0227 0,-0.008 0,-0.0165 0.002,-0.0103 0.002,-0.0227 0,-0.008 0,-0.0186 0,-0.0103 0,-0.0207 0,-0.0103 0,-0.0186 0,-0.0103 0,-0.0207 0,-0.0103 -0.002,-0.0186 0,-0.0103 0,-0.0227 0,-0.008 0,-0.0186 0,-0.0103 0,-0.0207 0,-0.0124 -0.004,-0.0413 0,-0.0248 -0.002,-0.0372 0,-0.0145 -0.004,-0.0434 0,-0.0248 -0.002,-0.0372 0,-0.0145 -0.004,-0.0393 -0.002,-0.008 -0.004,-0.0186 0,-0.0103 0,-0.0207 -0.004,-0.0248 -0.008,-0.0393 -0.002,-0.008 -0.004,-0.0165 -0.002,-0.0103 -0.002,-0.0207 -0.002,-0.0145 -0.006,-0.0393 -0.002,-0.0145 -0.006,-0.0393 -0.008,-0.0248 -0.0103,-0.0372 -0.004,-0.0248 -0.006,-0.0351 -0.004,-0.008 -0.006,-0.0165 -0.002,-0.0103 -0.004,-0.0207 -0.002,-0.008 -0.006,-0.0165 -0.004,-0.0103 -0.004,-0.0207 -0.0186,-0.0558 -0.0103,-0.0351 -0.004,-0.0145 -0.0103,-0.0351 -0.004,-0.006 -0.008,-0.0145 -0.002,-0.0103 -0.004,-0.0186 -0.002,-0.006 -0.0124,-0.0351 -0.008,-0.0207 -0.0124,-0.0331 -0.004,-0.006 -0.008,-0.0145 -0.002,-0.0103 -0.004,-0.0186 -0.004,-0.006 -0.008,-0.0145 -0.004,-0.008 -0.006,-0.0165 -0.008,-0.0207 -0.0145,-0.031 -0.008,-0.0207 -0.0124,-0.0289 -0.008,-0.0207 -0.0145,-0.031 -0.004,-0.006 -0.008,-0.0124 -0.004,-0.008 -0.006,-0.0145 -0.0124,-0.0207 -0.0165,-0.0289 -0.0186,-0.0289 -0.0165,-0.0269 -0.006,-0.006 -0.0103,-0.0124 -0.002,-0.008 -0.006,-0.0145 -0.004,-0.008 -0.0165,-0.0248 -0.004,-0.006 -0.008,-0.0124 -0.004,-0.006 -0.006,-0.0124 -0.0103,-0.0186 -0.0351,-0.0476 -0.004,-0.004 -0.0331,-0.0455 -0.0248,-0.0289 -0.0372,-0.0413 -0.0124,-0.0145 -0.0372,-0.0393 -0.0165,-0.0186 -0.0351,-0.0351 -0.0145,-0.0103 -0.0393,-0.031 -0.0207,-0.0165 -0.0393,-0.031 -0.0475,-0.031 -0.0393,-0.0269 -0.0413,-0.0248 -0.0372,-0.0227 0,0 -0.0372,-0.0186 -0.008,-0.004 -0.0393,-0.0145 -0.0269,-0.0103 -0.0393,-0.0145 -0.0103,-0.002 -0.0186,-0.004 -0.008,-0.004 -0.0165,-0.008 -0.0372,-0.006 -0.0372,-0.006 -0.0124,-0.002 -0.0372,-0.002 -0.006,0 -0.0103,0 -0.004,0 -0.008,0 h -0.68213 v 3.06751 0 z"
         style="font-size:4.23333px;line-height:1.25;font-family:'MS 33558';-inkscape-font-specification:'MS 33558, ';fill:#00ff00;stroke-width:0.264583"
         id="path1052" />
      <path
         d="m 113.44496,137.00427 h -1.71359 v 1.13068 h 1.30638 q 0.29352,0.0434 0.29145,0.29559 0,0.25011 -0.29145,0.29145 h -1.30638 v 1.35806 h 1.71359 q 0.29145,0.0434 0.29145,0.29145 0,0.24805 -0.29145,0.28939 h -2.00091 q -0.25839,-0.0331 -0.29353,-0.29352 v -3.65042 q 0.0393,-0.27285 0.29353,-0.28939 h 2.00091 q 0.29145,0.0227 0.28938,0.29145 0,0.26665 -0.28938,0.28526 z"
         style="font-size:4.23333px;line-height:1.25;font-family:'MS 33558';-inkscape-font-specification:'MS 33558, ';fill:#00ff00;stroke-width:0.264583"
         id="path1054" />
      <path
         d="m 103.00943,157.70635 q 0,0.21704 -0.21084,0.27699 -0.20877,0.0579 -0.32452,-0.12402 l -1.73633,-2.78433 v 2.63136 q -0.0455,0.28939 -0.29352,0.28939 -0.24598,0 -0.28939,-0.28939 v -3.65042 q 0.031,-0.21497 0.21911,-0.28318 0.19017,-0.0682 0.31626,0.12815 l 1.73632,2.78846 v -2.63343 q 0.0393,-0.29559 0.29973,-0.29145 0.26251,0.002 0.28318,0.29145 z"
         style="font-size:4.23333px;line-height:1.25;font-family:'MS 33558';-inkscape-font-specification:'MS 33558, ';fill:#00ff00;stroke-width:0.264583"
         id="path1057" />
      <path
         d="m 106.35186,154.97577 q 0.19017,0.57258 0.14263,1.18856 -0.0455,0.61598 -0.33693,1.12448 -0.18397,0.31626 -0.50229,0.53743 -0.31833,0.22118 -0.7028,0.15503 -0.62632,-0.10955 -0.95912,-0.65319 -0.33279,-0.54363 -0.3824,-1.20922 -0.0475,-0.66766 0.17983,-1.30018 0.22944,-0.63252 0.72967,-0.91984 0.24391,-0.14056 0.51056,-0.14056 0.5085,0 0.83096,0.38447 0.32246,0.38241 0.48989,0.83302 z m -1.30431,-0.63045 q -0.38034,0 -0.57671,0.40928 -0.1943,0.40928 -0.24598,0.69866 -0.0393,0.21084 -0.0289,0.51057 0.0103,0.29972 0.0868,0.59324 0.0765,0.29146 0.22944,0.5271 0.15297,0.23358 0.40101,0.31006 0.28939,0.091 0.49816,-0.11369 0.21084,-0.2067 0.31833,-0.43822 0.10955,-0.23771 0.14883,-0.62425 0.0413,-0.38654 -0.0186,-0.77101 -0.0579,-0.38654 -0.22944,-0.69453 -0.17156,-0.31006 -0.48782,-0.39481 -0.0413,-0.0124 -0.0951,-0.0124 z"
         style="font-size:4.23333px;line-height:1.25;font-family:'MS 33558';-inkscape-font-specification:'MS 33558, ';fill:#00ff00;stroke-width:0.264583"
         id="path1059" />
      <path
         d="m 109.66122,157.54306 q 0.13229,0.23357 -0.0744,0.39274 -0.0992,0.0703 -0.22945,0.0475 -0.12816,-0.0227 -0.1881,-0.12816 l -1.01906,-1.61023 h -0.51676 v 1.4552 q 0,0.17984 -0.1633,0.26045 -0.1633,0.0786 -0.30592,-0.031 -0.11369,-0.0847 -0.11369,-0.22945 v -3.65248 q 0,-0.11989 0.0827,-0.20464 0.0847,-0.0847 0.20671,-0.0847 h 1.28364 q 0.46302,0 0.80408,0.29559 0.34107,0.29352 0.42375,0.7462 0.0868,0.48576 -0.20671,0.90951 -0.29145,0.42168 -0.77514,0.51263 l -0.0393,0.006 z m -1.03766,-1.87896 q 0.21084,0 0.3886,-0.12815 0.17984,-0.12816 0.24185,-0.33487 0.0971,-0.31832 -0.0889,-0.57464 -0.18604,-0.25838 -0.51263,-0.28525 h -1.01906 v 1.32291 z"
         style="font-size:4.23333px;line-height:1.25;font-family:'MS 33558';-inkscape-font-specification:'MS 33558, ';fill:#00ff00;stroke-width:0.264583"
         id="path1061" />
      <path
         d="m 113.50181,157.70222 q -0.0455,0.28939 -0.29352,0.28939 -0.24598,-0.002 -0.28939,-0.28939 v -2.58175 l -0.709,1.21336 q -0.11369,0.13642 -0.25425,0.14263 -0.13849,0.006 -0.24805,-0.14263 l -0.70486,-1.20716 0.002,2.57555 q -0.0331,0.28732 -0.29973,0.28732 -0.26458,-0.002 -0.28525,-0.28732 v -3.65042 q 0.0165,-0.23771 0.20877,-0.28319 0.19224,-0.0475 0.33486,0.13023 l 0.99426,1.70945 1.00459,-1.70945 q 0.14262,-0.17777 0.33073,-0.13023 0.19016,0.0476 0.20877,0.28319 z"
         style="font-size:4.23333px;line-height:1.25;font-family:'MS 33558';-inkscape-font-specification:'MS 33558, ';fill:#00ff00;stroke-width:0.264583"
         id="path1063" />
      <path
         id="path3814"
         style="fill:#ff0000;stroke-width:0.12"
         d="m 52.324178,165.83183 a 3.175,3.175 0 0 1 -3.175,3.175 3.175,3.175 0 0 1 -3.175,-3.175 3.175,3.175 0 0 1 3.175,-3.175 3.175,3.175 0 0 1 3.175,3.175 z" />
      <path
         id="path3814-7"
         style="fill:#ff0000;stroke-width:0.12"
         d="m 160.27418,97.569344 a 3.175,3.175 0 0 1 -3.175,3.174996 3.175,3.175 0 0 1 -3.175,-3.174996 3.175,3.175 0 0 1 3.175,-3.175 3.175,3.175 0 0 1 3.175,3.175 z" />
      <path
         id="path3814-4"
         style="fill:#ff0000;stroke-width:0.12"
         d="m 52.853337,97.569344 a 3.175,3.175 0 0 1 -3.175,3.174996 3.175,3.175 0 0 1 -3.175,-3.174996 3.175,3.175 0 0 1 3.175,-3.175 3.175,3.175 0 0 1 3.175,3.175 z" />
      <path
         id="path3814-7-3"
         style="fill:#ff0000;stroke-width:0.12"
         d="m 160.27418,165.83183 a 3.175,3.175 0 0 1 -3.175,3.175 3.175,3.175 0 0 1 -3.175,-3.175 3.175,3.175 0 0 1 3.175,-3.175 3.175,3.175 0 0 1 3.175,3.175 z" />
    </g>
  </g>
</svg>
