<?xml version="1.0" encoding="UTF-8" standalone="no"?>
<svg
   width="210mm"
   height="297mm"
   viewBox="0 0 210 297"
   version="1.1"
   id="svg3383"
   inkscape:version="1.1 (c68e22c387, 2021-05-23)"
   sodipodi:docname="Panel (Master Light) Bottom.svg"
   xmlns:inkscape="http://www.inkscape.org/namespaces/inkscape"
   xmlns:sodipodi="http://sodipodi.sourceforge.net/DTD/sodipodi-0.dtd"
   xmlns="http://www.w3.org/2000/svg"
   xmlns:svg="http://www.w3.org/2000/svg"
   xmlns:rdf="http://www.w3.org/1999/02/22-rdf-syntax-ns#"
   xmlns:cc="http://creativecommons.org/ns#"
   xmlns:dc="http://purl.org/dc/elements/1.1/">
  <defs
     id="defs3377" />
  <sodipodi:namedview
     id="base"
     pagecolor="#ffffff"
     bordercolor="#666666"
     borderopacity="1.0"
     inkscape:pageopacity="0.0"
     inkscape:pageshadow="2"
     inkscape:zoom="0.35"
     inkscape:cx="401.42857"
     inkscape:cy="558.57143"
     inkscape:document-units="mm"
     inkscape:current-layer="layer1"
     inkscape:document-rotation="0"
     showgrid="false"
     inkscape:window-width="2560"
     inkscape:window-height="1361"
     inkscape:window-x="-9"
     inkscape:window-y="-9"
     inkscape:window-maximized="1"
     inkscape:pagecheckerboard="0" />
  <metadata
     id="metadata3380">
    <rdf:RDF>
      <cc:Work
         rdf:about="">
        <dc:format>image/svg+xml</dc:format>
        <dc:type
           rdf:resource="http://purl.org/dc/dcmitype/StillImage" />
        <dc:title />
      </cc:Work>
    </rdf:RDF>
  </metadata>
  <g
     inkscape:label="Layer 1"
     inkscape:groupmode="layer"
     id="layer1">
    <g
       id="g1116">
      <path
         id="rect140-1-0-9"
         style="fill:none;stroke:#000002;stroke-width:0.25;stroke-miterlimit:4;stroke-dasharray:none;stroke-opacity:1"
         d="M 22.19864,35.805782 H 174.34899 V 251.45612 H 22.19864 Z" />
      <path
         id="path3058-3-1"
         style="fill:#ff0000;stroke-width:0.25"
         d="m 167.64882,48.180958 a 3.175,3.175 0 0 1 -3.175,3.175 3.175,3.175 0 0 1 -3.175,-3.175 3.175,3.175 0 0 1 3.175,-3.175 3.175,3.175 0 0 1 3.175,3.175 z" />
      <path
         id="path3058-3-3-4-3-1"
         style="fill:#ff0000;stroke-width:0.25"
         d="m 35.248826,239.08096 a 3.175,3.175 0 0 1 -3.175,3.175 3.175,3.175 0 0 1 -3.175,-3.175 3.175,3.175 0 0 1 3.175,-3.175 3.175,3.175 0 0 1 3.175,3.175 z" />
      <path
         id="path3058-3-3-4-7"
         style="fill:#ff0000;stroke-width:0.25"
         d="m 167.64882,239.08096 a 3.175,3.175 0 0 1 -3.175,3.175 3.175,3.175 0 0 1 -3.175,-3.175 3.175,3.175 0 0 1 3.175,-3.175 3.175,3.175 0 0 1 3.175,3.175 z" />
      <path
         id="path3058-3-3-6"
         style="fill:#ff0000;stroke-width:0.25"
         d="m 35.248826,48.180954 a 3.175,3.175 0 0 1 -3.175,3.175 3.175,3.175 0 0 1 -3.175,-3.175 3.175,3.175 0 0 1 3.175,-3.175 3.175,3.175 0 0 1 3.175,3.175 z" />
      <path
         id="path3465-5"
         style="fill:#ff0000;stroke-width:0.25"
         d="m 167.64882,143.63097 a 3.175,3.175 0 0 1 -3.175,3.175 3.175,3.175 0 0 1 -3.175,-3.175 3.175,3.175 0 0 1 3.175,-3.175 3.175,3.175 0 0 1 3.175,3.175 z" />
      <path
         id="path3465-7-2"
         style="fill:#ff0000;stroke-width:0.25"
         d="m 35.248826,143.63097 a 3.175,3.175 0 0 1 -3.175,3.175 3.175,3.175 0 0 1 -3.175,-3.175 3.175,3.175 0 0 1 3.175,-3.175 3.175,3.175 0 0 1 3.175,3.175 z" />
      <path
         id="rect1894-4-3-6-7-1"
         style="fill:#ff0000;stroke-width:0.144351;stroke-miterlimit:4;stroke-dasharray:none"
         d="m 74.73593,70.564096 v 20.320206 h 15.40009 v 7.623823 h 20.00033 v -7.623823 h 15.39957 V 70.564096 Z" />
      <path
         id="rect1894-4-3-6-7-1-6"
         style="fill:#ff0000;stroke-width:0.144351;stroke-miterlimit:4;stroke-dasharray:none"
         d="m 74.73593,106.3676 v 20.32021 h 15.40009 v 7.62382 h 20.00033 v -7.62382 h 15.39957 V 106.3676 Z" />
      <path
         id="rect1894-4-3-6-7-1-6-5"
         style="fill:#ff0000;stroke-width:0.144351;stroke-miterlimit:4;stroke-dasharray:none"
         d="m 74.73593,142.17102 v 20.32021 h 15.40009 v 7.62382 h 20.00033 v -7.62382 h 15.39957 v -20.32021 z" />
      <path
         id="path2418-0"
         style="fill:#ff0000;stroke-width:0.210493"
         d="m 61.242185,81.594978 a 6.3499999,6.3499999 0 0 1 -6.35,6.35 6.3499999,6.3499999 0 0 1 -6.35,-6.35 6.3499999,6.3499999 0 0 1 6.35,-6.35 6.3499999,6.3499999 0 0 1 6.35,6.35 z" />
      <path
         id="path2418-1-8"
         style="fill:#ff0000;stroke-width:0.210493"
         d="m 61.242185,112.02205 a 6.3499999,6.3499999 0 0 1 -6.35,6.35 6.3499999,6.3499999 0 0 1 -6.35,-6.35 6.3499999,6.3499999 0 0 1 6.35,-6.35 6.3499999,6.3499999 0 0 1 6.35,6.35 z" />
      <path
         id="path2418-3-1"
         style="fill:#ff0000;stroke-width:0.210493"
         d="m 61.242185,166.26152 a 6.3499999,6.3499999 0 0 1 -6.35,6.35 6.3499999,6.3499999 0 0 1 -6.35,-6.35 6.3499999,6.3499999 0 0 1 6.35,-6.35 6.3499999,6.3499999 0 0 1 6.35,6.35 z" />
      <path
         id="path2418-6-1"
         style="fill:#ff0000;stroke-width:0.210493"
         d="m 61.242185,208.33588 a 6.3499999,6.3499999 0 0 1 -6.35,6.35 6.3499999,6.3499999 0 0 1 -6.35,-6.35 6.3499999,6.3499999 0 0 1 6.35,-6.35 6.3499999,6.3499999 0 0 1 6.35,6.35 z" />
      <path
         id="path2418-1-9-1"
         style="fill:#ff0000;stroke-width:0.210493"
         d="m 150.97335,171.839 a 6.3499999,6.3499999 0 0 1 -6.35,6.35 6.3499999,6.3499999 0 0 1 -6.35,-6.35 6.3499999,6.3499999 0 0 1 6.35,-6.35 6.3499999,6.3499999 0 0 1 6.35,6.35 z" />
      <path
         id="path2418-1-3-8"
         style="fill:#ff0000;stroke-width:0.210493"
         d="m 151.41433,208.33588 a 6.3499999,6.3499999 0 0 1 -6.35,6.35 6.3499999,6.3499999 0 0 1 -6.35,-6.35 6.3499999,6.3499999 0 0 1 6.35,-6.35 6.3499999,6.3499999 0 0 1 6.35,6.35 z" />
      <path
         id="path2418-6-7-3"
         style="fill:#ff0000;stroke-width:0.210493"
         d="m 150.97335,116.85446 a 6.3499999,6.3499999 0 0 1 -6.35,6.35 6.3499999,6.3499999 0 0 1 -6.35,-6.35 6.3499999,6.3499999 0 0 1 6.35,-6.35 6.3499999,6.3499999 0 0 1 6.35,6.35 z" />
      <path
         id="path2418-6-7-5-3"
         style="fill:#ff0000;stroke-width:0.210493"
         d="m 150.73562,80.493179 a 6.3499999,6.3499999 0 0 1 -6.35,6.35 6.3499999,6.3499999 0 0 1 -6.35,-6.35 6.3499999,6.3499999 0 0 1 6.35,-6.35 6.3499999,6.3499999 0 0 1 6.35,6.35 z" />
      <path
         id="path3058-45"
         style="fill:#ff0000;stroke-width:0.211765"
         d="m 146.17335,49.051216 a 3.175,3.175 0 0 1 -3.175,3.175 3.175,3.175 0 0 1 -3.175,-3.175 3.175,3.175 0 0 1 3.175,-3.175 3.175,3.175 0 0 1 3.175,3.175 z" />
      <path
         id="path3058-4-0"
         style="fill:#ff0000;stroke-width:0.211765"
         d="m 56.479676,235.0533 a 3.175,3.175 0 0 1 -3.175,3.175 3.175,3.175 0 0 1 -3.175,-3.175 3.175,3.175 0 0 1 3.175,-3.175 3.175,3.175 0 0 1 3.175,3.175 z" />
      <path
         id="path3058-0-1"
         style="fill:#ff0000;stroke-width:0.211765"
         d="m 146.17335,235.0533 a 3.175,3.175 0 0 1 -3.175,3.175 3.175,3.175 0 0 1 -3.175,-3.175 3.175,3.175 0 0 1 3.175,-3.175 3.175,3.175 0 0 1 3.175,3.175 z" />
      <path
         id="path3058-0-8-0"
         style="fill:#ff0000;stroke-width:0.211765"
         d="m 56.479676,143.63097 a 3.175,3.175 0 0 1 -3.175,3.175 3.175,3.175 0 0 1 -3.175,-3.175 3.175,3.175 0 0 1 3.175,-3.175 3.175,3.175 0 0 1 3.175,3.175 z" />
      <path
         id="path3058-0-8-4-0"
         style="fill:#ff0000;stroke-width:0.211765"
         d="m 146.17335,143.63097 a 3.175,3.175 0 0 1 -3.175,3.175 3.175,3.175 0 0 1 -3.175,-3.175 3.175,3.175 0 0 1 3.175,-3.175 3.175,3.175 0 0 1 3.175,3.175 z" />
      <path
         id="path3058-43-0"
         style="fill:#ff0000;stroke-width:0.211765"
         d="m 56.479676,49.051216 a 3.175,3.175 0 0 1 -3.175,3.175 3.175,3.175 0 0 1 -3.175,-3.175 3.175,3.175 0 0 1 3.175,-3.175 3.175,3.175 0 0 1 3.175,3.175 z" />
      <path
         id="rect1894-4-3-6-7-1-6-0"
         style="fill:#ff0000;stroke-width:0.144351;stroke-miterlimit:4;stroke-dasharray:none"
         d="m 74.73593,177.97443 v 20.32021 h 15.40009 v 7.62382 h 20.00033 v -7.62382 h 15.39957 v -20.32021 z" />
      <path
         id="rect1894-4-3-6-7-1-6-08"
         style="fill:#ff0000;stroke-width:0.144351;stroke-miterlimit:4;stroke-dasharray:none"
         d="m 74.73593,213.77784 v 20.32021 h 15.40009 v 7.62382 h 20.00033 v -7.62382 h 15.39957 v -20.32021 z" />
    </g>
  </g>
</svg>
