<?xml version="1.0" encoding="UTF-8" standalone="no"?>
<svg
   xmlns:dc="http://purl.org/dc/elements/1.1/"
   xmlns:cc="http://creativecommons.org/ns#"
   xmlns:rdf="http://www.w3.org/1999/02/22-rdf-syntax-ns#"
   xmlns:svg="http://www.w3.org/2000/svg"
   xmlns="http://www.w3.org/2000/svg"
   xmlns:sodipodi="http://sodipodi.sourceforge.net/DTD/sodipodi-0.dtd"
   xmlns:inkscape="http://www.inkscape.org/namespaces/inkscape"
   width="210mm"
   height="297mm"
   viewBox="0 0 210 297"
   version="1.1"
   id="svg1404"
   inkscape:version="1.0.2 (e86c870879, 2021-01-15, custom)"
   sodipodi:docname="Panel6 (UHF Radio) Final Top.svg">
  <defs
     id="defs1398" />
  <sodipodi:namedview
     id="base"
     pagecolor="#ffffff"
     bordercolor="#666666"
     borderopacity="1.0"
     inkscape:pageopacity="0.0"
     inkscape:pageshadow="2"
     inkscape:zoom="1"
     inkscape:cx="-26.286452"
     inkscape:cy="560"
     inkscape:document-units="mm"
     inkscape:current-layer="layer1"
     inkscape:document-rotation="0"
     showgrid="false"
     inkscape:window-width="2560"
     inkscape:window-height="1361"
     inkscape:window-x="-9"
     inkscape:window-y="-9"
     inkscape:window-maximized="1" />
  <metadata
     id="metadata1401">
    <rdf:RDF>
      <cc:Work
         rdf:about="">
        <dc:format>image/svg+xml</dc:format>
        <dc:type
           rdf:resource="http://purl.org/dc/dcmitype/StillImage" />
        <dc:title />
      </cc:Work>
    </rdf:RDF>
  </metadata>
  <g
     inkscape:label="Layer 1"
     inkscape:groupmode="layer"
     id="layer1">
    <path
       id="rect1017-6-6"
       style="fill:none;stroke:#000000;stroke-width:0.25;stroke-miterlimit:4;stroke-dasharray:none"
       d="m 38.144652,32.480628 v 8.645467 c 0.006,0.13649 0.0114,0.2733 0.0114,0.411339 v 36.643239 c 0,5.02204 -4.41187,9.06508 -9.89242,9.06508 -0.0302,0 -0.0598,-0.002 -0.0899,-0.002 v 0.0155 h -9.79579 v 36.249977 h 9.79578 v 0.015 c 0.0301,-2.4e-4 0.0592,-0.002 0.0894,-0.002 5.48055,0 9.89294,4.04304 9.89294,9.0651 v 25.96121 h 5.3e-4 18.10949 94.901178 18.63866 5.3e-4 v -25.96121 c 0,-5.02205 4.41187,-9.0651 9.89242,-9.0651 0.0302,0 0.0598,0.002 0.0899,0.002 v -0.0155 h 9.79579 V 87.259293 h -9.79581 v -0.0155 c -0.0301,2.4e-4 -0.0597,0.002 -0.0899,0.002 -5.48055,0 -9.89242,-4.04304 -9.89242,-9.06508 V 41.537424 c 0,-0.13804 0.005,-0.27486 0.0114,-0.41135 v -8.645447 z" />
    <g
       id="g1290-9-0"
       transform="translate(14.209112,22.420778)"
       style="fill:#00ff00">
      <g
         aria-label="chan "
         id="text1172-1-3"
         style="font-size:10.5833px;line-height:1.25;font-family:'MS 33558';-inkscape-font-specification:'MS 33558, ';fill:#00ff00;stroke-width:0.264583">
        <path
           d="m 81.593643,91.523781 -0.0155,0.02239 q -0.0052,0.0069 -0.0086,0.01206 -0.0034,0.0052 -0.0069,0.01034 -0.235989,0.318671 -0.620118,0.454752 -0.382405,0.134359 -0.754476,-0.04995 -0.43236,-0.215319 -0.63562,-0.730361 -0.201539,-0.515042 -0.173978,-1.069703 0.02928,-0.556383 0.292833,-1.021471 0.265273,-0.465089 0.768257,-0.582222 0.289388,-0.06718 0.577054,0.05684 0.287666,0.122301 0.471978,0.34451 0.0017,0 0.0086,0.01206 0.07924,0.103353 0.03273,0.227376 -0.04651,0.122301 -0.170533,0.153307 -0.132636,0.03445 -0.244602,-0.07924 -0.230821,-0.268718 -0.444417,-0.258383 -0.213596,0.01034 -0.382406,0.1757 -0.16881,0.165365 -0.280776,0.423747 -0.111965,0.258383 -0.137803,0.484037 -0.03101,0.251492 0.0052,0.506429 0.0379,0.253215 0.156752,0.477146 0.206706,0.392741 0.52021,0.492649 0.315226,0.09819 0.61495,-0.301446 0.01378,-0.01722 0.03273,-0.04479 0.16192,-0.179145 0.341065,-0.03617 0.180868,0.141249 0.0534,0.320394 z"
           style="font-size:3.52778px;word-spacing:-0.0423333px;fill:#00ff00"
           id="path999-5-6" />
        <path
           d="m 82.074234,91.837285 v -3.045466 q 0.03617,-0.248047 0.251492,-0.24288 0.215319,0.0034 0.234267,0.24288 v 1.138605 h 1.386652 v -1.138605 q 0.03617,-0.24288 0.242879,-0.24288 0.208428,-0.0017 0.246324,0.24288 v 3.045466 q -0.0379,0.24288 -0.246324,0.241157 -0.206706,0 -0.242879,-0.241157 v -1.417658 h -1.386652 v 1.417658 q -0.01895,0.237712 -0.234267,0.241157 -0.215318,0.0034 -0.251492,-0.241157 z"
           style="font-size:3.52778px;fill:#00ff00"
           id="path1001-1-5" />
        <path
           d="m 86.769902,90.943282 -0.523655,-1.446941 -0.5271,1.446941 z m -0.523655,-1.446941 0.523655,1.446941 z m -1.329807,2.246204 q 0.275607,-0.759644 0.551215,-1.517566 0.277331,-0.759644 0.554661,-1.519288 0.05684,-0.156752 0.225654,-0.158474 0.16881,-0.0017 0.227376,0.158474 l 1.104154,3.045467 q 0.05168,0.242879 -0.148139,0.313504 -0.199816,0.07062 -0.308336,-0.144694 L 86.945602,91.427319 H 85.541725 L 85.36947,91.90791 q -0.110243,0.217041 -0.313504,0.142971 -0.203261,-0.07579 -0.139526,-0.308336 z"
           style="font-size:3.52778px;fill:#00ff00"
           id="path1003-2-3" />
        <path
           d="m 90.297682,91.837285 q 0,0.180868 -0.1757,0.230822 -0.173977,0.04823 -0.27044,-0.103353 l -1.446941,-2.320273 v 2.192804 q -0.0379,0.241157 -0.244602,0.241157 -0.204983,0 -0.241157,-0.241157 v -3.042021 q 0.02584,-0.179145 0.18259,-0.235989 0.158475,-0.05684 0.26355,0.106798 l 1.446942,2.323718 v -2.194527 q 0.03273,-0.246325 0.249769,-0.242879 0.218764,0.0017 0.235989,0.242879 z"
           style="font-size:3.52778px;fill:#00ff00"
           id="path1005-6-4" />
      </g>
      <g
         aria-label="sel "
         id="text1172-8-52-0"
         style="font-size:10.5833px;line-height:1.25;font-family:'MS 33558';-inkscape-font-specification:'MS 33558, ';fill:#00ff00;stroke-width:0.264583">
        <path
           d="m 95.953419,90.19909 0.02756,0.01206 0.03101,0.0155 0.02756,0.0155 q 0.01206,0.0086 0.02584,0.01723 0.0155,0.0069 0.02928,0.0155 0.341065,0.223931 0.422025,0.620117 0.03101,0.15503 0.01378,0.318672 -0.02756,0.234266 -0.165364,0.434082 -0.136082,0.198093 -0.342788,0.306614 -0.222208,0.117133 -0.45992,0.117133 -0.399631,0 -0.763089,-0.10163 -0.363458,-0.103353 -0.518488,-0.549493 -0.02067,-0.05684 -0.031,-0.117134 -0.01034,-0.06029 -0.02412,-0.120578 -0.02584,-0.124024 0.06029,-0.218764 0.08785,-0.09474 0.217041,-0.07235 0.136082,0.02756 0.189481,0.16881 l 0.0052,0.0155 q 0.08268,0.373793 0.287666,0.44614 0.206706,0.07235 0.573609,0.06546 0.337619,0 0.463365,-0.316949 0.05512,-0.141249 0.01723,-0.292833 -0.0379,-0.153307 -0.149862,-0.254938 -0.04995,-0.04306 -0.130914,-0.08096 l -0.79754,-0.349678 -0.02584,-0.01378 q -0.391019,-0.206706 -0.485759,-0.587389 -0.11541,-0.440973 0.160197,-0.79065 0.277331,-0.3514 0.726916,-0.3514 l 0.18948,0.0052 q 0.09302,0.01723 0.179145,0.03445 0.08613,0.0155 0.173978,0.05512 0.217041,0.10163 0.332452,0.279053 0.115411,0.177422 0.208428,0.384128 0.0086,0.01895 0.0155,0.04479 0.01895,0.08441 -0.01722,0.153307 -0.02067,0.04306 -0.04306,0.06546 -0.02239,0.02239 -0.03617,0.03101 -0.08957,0.06373 -0.19637,0.0379 -0.106798,-0.02412 -0.163642,-0.137804 -0.04479,-0.09991 -0.09646,-0.203261 -0.04995,-0.105075 -0.141249,-0.173977 -0.0379,-0.02756 -0.07407,-0.03962 -0.03445,-0.01378 -0.07751,-0.02928 l -0.111966,-0.01895 -0.158475,-0.0052 q -0.230821,0.0034 -0.353122,0.199816 -0.08268,0.125746 -0.06201,0.280776 0.02412,0.191202 0.179145,0.296278 0.0069,0.0052 0.0155,0.01206 0.0086,0.0052 0.01895,0.01034 l 0.01895,0.0086 0.02067,0.0086 z"
           style="font-size:3.52778px;fill:#00ff00"
           id="path1008-0-6" />
        <path
           d="m 98.874862,89.029479 h -1.427993 v 0.942234 h 1.088651 q 0.244602,0.03617 0.24288,0.246325 0,0.208428 -0.24288,0.242879 h -1.088651 v 1.131715 h 1.427993 q 0.24288,0.03617 0.24288,0.242879 0,0.206706 -0.24288,0.241157 h -1.667427 q -0.215319,-0.02756 -0.244602,-0.244602 v -3.042021 q 0.03273,-0.227377 0.244602,-0.241157 h 1.667427 q 0.24288,0.01895 0.241157,0.242879 0,0.222209 -0.241157,0.237712 z"
           style="font-size:3.52778px;fill:#00ff00"
           id="path1010-2-4" />
        <path
           d="M 99.841212,92.07839 Q 99.629338,92.06461 99.59661,91.838956 V 88.79349 q 0.03617,-0.248047 0.251492,-0.24288 0.215318,0.0034 0.234268,0.24288 v 2.804309 l 1.58991,-0.0017 q 0.2446,0.02756 0.24116,0.248047 -0.002,0.218763 -0.24288,0.234266 z"
           style="font-size:3.52778px;fill:#00ff00"
           id="path1012-2-4" />
      </g>
    </g>
    <g
       id="g1290-3-6-6"
       transform="translate(-5.150898,55.932394)"
       style="fill:#00ff00">
      <g
         aria-label="preset "
         id="text1172-7-1-9"
         style="font-size:10.5833px;line-height:1.25;font-family:'MS 33558';-inkscape-font-specification:'MS 33558, ';fill:#00ff00;stroke-width:0.264583">
        <path
           d="m 80.69964,88.547217 h 0.03273 q 0.220487,0.0155 0.406522,0.09991 0.356568,0.167087 0.504707,0.549493 0.148139,0.382406 -0.0034,0.745863 -0.122301,0.287666 -0.361736,0.451308 -0.239434,0.16192 -0.546048,0.180868 l -0.03273,0.0017 h -0.837159 v 1.255739 q -0.03101,0.242879 -0.244602,0.242879 -0.213596,0 -0.242879,-0.242879 v -3.043744 q 0.02584,-0.213596 0.227376,-0.241157 h 0.0155 z m 0,0.485759 h -0.837159 v 1.055922 h 0.837159 q 0.196371,0 0.346232,-0.130914 0.151585,-0.130913 0.177423,-0.327284 0.03101,-0.237712 -0.127469,-0.416857 -0.158474,-0.180867 -0.396186,-0.180867 z"
           style="font-size:3.52778px;fill:#00ff00"
           id="path1015-9-9" />
        <path
           d="m 84.380727,91.701204 q 0.110243,0.194648 -0.06201,0.327284 -0.08268,0.05857 -0.191203,0.03962 -0.106798,-0.01895 -0.156752,-0.106798 l -0.849216,-1.341866 h -0.430637 v 1.212675 q 0,0.149861 -0.136082,0.217041 -0.136081,0.06546 -0.254937,-0.02584 -0.09474,-0.07062 -0.09474,-0.191202 v -3.043744 q 0,-0.09991 0.0689,-0.170533 0.07062,-0.07062 0.172255,-0.07062 h 1.069702 q 0.385851,0 0.670072,0.246324 0.28422,0.244602 0.353122,0.621841 0.07235,0.404798 -0.172254,0.757921 -0.24288,0.3514 -0.645956,0.427192 l -0.03273,0.0052 z m -0.86472,-1.565797 q 0.1757,0 0.32384,-0.106798 0.149861,-0.106798 0.201538,-0.279053 0.08096,-0.265273 -0.07407,-0.478869 -0.155029,-0.215318 -0.427192,-0.237711 h -0.849216 v 1.102431 z"
           style="font-size:3.52778px;fill:#00ff00"
           id="path1017-0-8" />
        <path
           d="m 86.924931,89.027808 h -1.427993 v 0.942234 h 1.088651 q 0.244602,0.03617 0.24288,0.246325 0,0.208428 -0.24288,0.242879 h -1.088651 v 1.131715 h 1.427993 q 0.24288,0.03617 0.24288,0.242879 0,0.206706 -0.24288,0.241157 h -1.667427 q -0.215318,-0.02756 -0.244602,-0.244602 v -3.042021 q 0.03273,-0.227377 0.244602,-0.241157 h 1.667427 q 0.24288,0.01895 0.241157,0.242879 0,0.222209 -0.241157,0.237712 z"
           style="font-size:3.52778px;fill:#00ff00"
           id="path1019-1-5" />
        <path
           d="m 89.379563,90.197419 0.02756,0.01206 0.03101,0.0155 0.02756,0.0155 q 0.01206,0.0086 0.02584,0.01723 0.0155,0.0069 0.02928,0.0155 0.341065,0.223931 0.422025,0.620117 0.03101,0.15503 0.01378,0.318672 -0.02756,0.234267 -0.165365,0.434082 -0.136081,0.198093 -0.342787,0.306614 -0.222209,0.117133 -0.459921,0.117133 -0.399631,0 -0.763089,-0.10163 -0.363457,-0.103353 -0.518487,-0.549493 -0.02067,-0.05684 -0.03101,-0.117133 -0.01033,-0.06029 -0.02411,-0.120579 -0.02584,-0.124023 0.06029,-0.218764 0.08785,-0.09474 0.217041,-0.07235 0.136081,0.02756 0.18948,0.16881 l 0.0052,0.0155 q 0.08268,0.373793 0.287666,0.44614 0.206705,0.07235 0.573608,0.06546 0.33762,0 0.463366,-0.316949 0.05512,-0.141249 0.01723,-0.292833 -0.0379,-0.153307 -0.149862,-0.254937 -0.04995,-0.04306 -0.130914,-0.08096 l -0.79754,-0.349678 -0.02584,-0.01378 q -0.391019,-0.206706 -0.485759,-0.587389 -0.115411,-0.440973 0.160197,-0.79065 0.27733,-0.3514 0.726916,-0.3514 l 0.18948,0.0052 q 0.09302,0.01722 0.179145,0.03445 0.08613,0.0155 0.173977,0.05512 0.217042,0.10163 0.332452,0.279053 0.115411,0.177423 0.208429,0.384128 0.0086,0.01895 0.0155,0.04479 0.01895,0.08441 -0.01723,0.153307 -0.02067,0.04306 -0.04306,0.06546 -0.02239,0.02239 -0.03617,0.03101 -0.08957,0.06373 -0.196371,0.0379 -0.106798,-0.02412 -0.163642,-0.137804 -0.04479,-0.09991 -0.09646,-0.20326 -0.04995,-0.105076 -0.141249,-0.173978 -0.0379,-0.02756 -0.07407,-0.03962 -0.03445,-0.01378 -0.07752,-0.02928 l -0.111965,-0.01895 -0.158475,-0.0052 q -0.230821,0.0034 -0.353122,0.199815 -0.08268,0.125746 -0.06201,0.280776 0.02412,0.191203 0.179145,0.296278 0.0069,0.0052 0.0155,0.01206 0.0086,0.0052 0.01895,0.01033 l 0.01895,0.0086 0.02067,0.0086 z"
           style="font-size:3.52778px;fill:#00ff00"
           id="path1021-9-7" />
        <path
           d="m 92.301006,89.027808 h -1.427993 v 0.942234 h 1.088651 q 0.244602,0.03617 0.24288,0.246325 0,0.208428 -0.24288,0.242879 h -1.088651 v 1.131715 h 1.427993 q 0.24288,0.03617 0.24288,0.242879 0,0.206706 -0.24288,0.241157 h -1.667427 q -0.215319,-0.02756 -0.244602,-0.244602 v -3.042021 q 0.03273,-0.227377 0.244602,-0.241157 h 1.667427 q 0.24288,0.01895 0.241157,0.242879 0,0.222209 -0.241157,0.237712 z"
           style="font-size:3.52778px;fill:#00ff00"
           id="path1023-9-8" />
        <path
           d="m 93.896087,91.83384 v -2.800864 h -0.632175 q -0.241157,-0.01895 -0.241157,-0.241157 0.0017,-0.223932 0.241157,-0.244602 h 1.748387 q 0.237711,0.01895 0.237711,0.244602 0.0017,0.223931 -0.237711,0.241157 h -0.630453 v 2.800864 q -0.03962,0.244602 -0.254938,0.241157 -0.213596,-0.0034 -0.230821,-0.241157 z"
           style="font-size:3.52778px;fill:#00ff00"
           id="path1025-8-8" />
      </g>
      <g
         aria-label=" "
         id="text1172-8-5-7-6"
         style="font-size:10.5833px;line-height:1.25;font-family:'MS 33558';-inkscape-font-specification:'MS 33558, ';fill:#00ff00;stroke-width:0.264583" />
    </g>
    <path
       id="rect1292-2-3-2-6-7"
       style="fill:#00ff00;stroke:none;stroke-width:0.0816256"
       d="m 82.214932,151.46695 v 4.80806 h -1.10821 v -4.80806 z" />
    <path
       id="rect1292-4-5"
       style="fill:#00ff00;stroke:none;stroke-width:0.179838"
       d="m 104.25648,116.5713 v 0.0537 H 93.754702 v 1.17384 h 10.501778 v 4.17441 h 0.008 v 0.0123 h 16.50783 v -1.19848 h -15.48078 v -2.98826 h 10.50178 v -1.17385 h -10.50178 v -0.0537 z" />
    <path
       id="rect1292-2-3-0-2"
       style="fill:#00ff00;stroke:none;stroke-width:0.251229"
       d="m 121.15662,109.52935 v 45.54693 h -1.10822 v -45.54693 z" />
    <path
       id="rect1292-2-3-9-0-6"
       style="fill:#00ff00;stroke:none;stroke-width:0.2416"
       d="m 82.214932,155.07628 h 38.941688 v 1.19873 H 82.214932 Z" />
    <path
       id="rect1292-2-3-7-6-6"
       style="fill:#00ff00;stroke:none;stroke-width:0.140121"
       d="m 88.035772,152.70331 h -12.7 v -1.23636 h 12.7 z" />
    <path
       id="rect1292-2-3-2-3-1-8"
       style="fill:#00ff00;stroke:none;stroke-width:0.0903617"
       d="m 125.49578,110.72809 h -5.44738 v -1.19874 h 5.44738 z" />
    <g
       id="g1290-3-1-6-3"
       transform="translate(-4.092518,47.202445)"
       style="fill:#00ff00">
      <g
         aria-label="manual "
         id="text1172-7-4-4-4"
         style="font-size:10.5833px;line-height:1.25;font-family:'MS 33558';-inkscape-font-specification:'MS 33558, ';fill:#00ff00;stroke-width:0.264583">
        <path
           d="m 81.94332,91.83384 q -0.0379,0.241157 -0.244602,0.241157 -0.204983,-0.0017 -0.241156,-0.241157 v -2.151463 l -0.590835,1.011136 q -0.09474,0.113688 -0.211873,0.118856 -0.115411,0.0052 -0.206706,-0.118856 l -0.587389,-1.005969 0.0017,2.146296 q -0.02756,0.239434 -0.249769,0.239434 -0.220487,-0.0017 -0.237712,-0.239434 v -3.042021 q 0.01378,-0.198093 0.173977,-0.235989 0.160197,-0.03962 0.279053,0.10852 l 0.828546,1.424548 0.837159,-1.424548 q 0.118856,-0.148139 0.275608,-0.10852 0.158474,0.03962 0.173977,0.235989 z"
           style="font-size:3.52778px;fill:#00ff00"
           id="path1034-3-5" />
        <path
           d="m 84.222253,90.943282 -0.523655,-1.446941 -0.5271,1.446941 z m -0.523655,-1.446941 0.523655,1.446941 z m -1.329808,2.246204 q 0.275608,-0.759644 0.551216,-1.517566 0.27733,-0.759644 0.55466,-1.519288 0.05684,-0.156752 0.225654,-0.158474 0.16881,-0.0017 0.227377,0.158474 l 1.104154,3.045467 q 0.05168,0.242879 -0.14814,0.313504 -0.199815,0.07062 -0.308336,-0.144694 L 84.397953,91.427319 H 82.994075 L 82.82182,91.90791 q -0.110243,0.217041 -0.313504,0.142971 -0.20326,-0.07579 -0.139526,-0.308336 z"
           style="font-size:3.52778px;fill:#00ff00"
           id="path1036-9-9" />
        <path
           d="m 87.750033,91.837285 q 0,0.180868 -0.1757,0.230822 -0.173978,0.04823 -0.27044,-0.103353 l -1.446941,-2.320273 v 2.192804 q -0.0379,0.241157 -0.244602,0.241157 -0.204984,0 -0.241157,-0.241157 v -3.042021 q 0.02584,-0.179145 0.18259,-0.235989 0.158475,-0.05684 0.26355,0.106798 l 1.446941,2.323718 v -2.194527 q 0.03273,-0.246325 0.24977,-0.242879 0.218763,0.0017 0.235989,0.242879 z"
           style="font-size:3.52778px;fill:#00ff00"
           id="path1038-8-0" />
        <path
           d="m 90.5664,90.912276 v 0.03445 q -0.0052,0.08613 -0.0069,0.103353 -0.07235,0.5271 -0.43236,0.778592 -0.360013,0.24977 -0.768257,0.234267 -0.408244,-0.01722 -0.747586,-0.298001 -0.33762,-0.280775 -0.366903,-0.818211 v -0.03445 -2.123902 q 0,-0.05168 0.01895,-0.09302 0.08268,-0.180868 0.273885,-0.142971 0.192926,0.0379 0.192926,0.235989 v 2.123902 q 0.02584,0.396187 0.347954,0.592557 0.32384,0.196371 0.680407,-0.01723 0.160197,-0.09474 0.234267,-0.244602 0.07579,-0.149862 0.08957,-0.33073 v -2.123902 q 0,-0.03101 0.0034,-0.04651 0.03962,-0.211874 0.260104,-0.191203 0.220487,0.02067 0.220487,0.237712 z"
           style="font-size:3.52778px;fill:#00ff00"
           id="path1040-8-6" />
        <path
           d="m 92.852222,90.943282 -0.523654,-1.446941 -0.5271,1.446941 z m -0.523654,-1.446941 0.523654,1.446941 z m -1.329808,2.246204 q 0.275608,-0.759644 0.551215,-1.517566 0.277331,-0.759644 0.554661,-1.519288 0.05684,-0.156752 0.225654,-0.158474 0.16881,-0.0017 0.227377,0.158474 l 1.104153,3.045467 q 0.05168,0.242879 -0.148139,0.313504 -0.199816,0.07062 -0.308336,-0.144694 L 93.027922,91.427319 H 91.624045 L 91.45179,91.90791 q -0.110243,0.217041 -0.313504,0.142971 -0.203261,-0.07579 -0.139526,-0.308336 z"
           style="font-size:3.52778px;fill:#00ff00"
           id="path1042-8-8" />
        <path
           d="m 94.245764,92.076719 q -0.211873,-0.01378 -0.244601,-0.239434 v -3.045466 q 0.03617,-0.248047 0.251492,-0.24288 0.215318,0.0034 0.234266,0.24288 v 2.804309 l 1.589913,-0.0017 q 0.244602,0.02756 0.241157,0.248047 -0.0017,0.218764 -0.24288,0.234266 z"
           style="font-size:3.52778px;fill:#00ff00"
           id="path1044-3-0" />
      </g>
      <g
         aria-label=" "
         id="text1172-8-5-5-68-5"
         style="font-size:10.5833px;line-height:1.25;font-family:'MS 33558';-inkscape-font-specification:'MS 33558, ';fill:#00ff00;stroke-width:0.264583" />
    </g>
    <g
       id="g1290-3-1-3-4-9"
       transform="translate(-5.412548,38.469925)"
       style="fill:#00ff00">
      <g
         aria-label="guard "
         id="text1172-7-4-9-4-0"
         style="font-size:10.5833px;line-height:1.25;font-family:'MS 33558';-inkscape-font-specification:'MS 33558, ';fill:#00ff00;stroke-width:0.264583">
        <path
           d="m 80.813454,90.653894 -0.0155,-0.0017 q -0.21015,-0.02584 -0.21015,-0.239435 0,-0.213596 0.21015,-0.239434 l 0.0155,-0.0034 h 0.0155 0.635621 q 0.09991,0 0.170532,0.07235 0.07235,0.07062 0.07235,0.170532 v 0.873333 l -0.02067,0.04479 -0.01206,0.02756 -0.01206,0.02584 -0.01378,0.02584 -0.01378,0.02584 -0.01206,0.02584 -0.01378,0.02584 -0.0155,0.02584 q -0.334174,0.568441 -0.830268,0.556383 -0.496095,-0.01378 -0.833714,-0.561551 -0.160197,-0.260105 -0.237712,-0.651123 -0.07752,-0.392741 -0.04651,-0.800985 0.03101,-0.409967 0.189481,-0.778592 0.160197,-0.370348 0.477146,-0.58739 0.396186,-0.268717 0.771702,-0.06201 0.375515,0.204983 0.561551,0.577054 l 0.01378,0.02756 0.01033,0.02412 0.01378,0.02584 q 0.05857,0.163642 -0.04479,0.266995 -0.09991,0.09819 -0.217041,0.07407 -0.117133,-0.02584 -0.180867,-0.139527 -0.201539,-0.499539 -0.52021,-0.435804 -0.316949,0.06373 -0.475424,0.520209 -0.155029,0.440973 -0.122301,0.949125 0.03273,0.506429 0.33073,0.883667 0.204983,0.26355 0.416857,0.16881 0.211873,-0.09474 0.334174,-0.353122 l 0.01895,-0.0379 v -0.525378 z"
           style="font-size:3.52778px;fill:#00ff00"
           id="path1048-4-6" />
        <path
           d="m 84.591004,90.912276 v 0.03445 q -0.0052,0.08613 -0.0069,0.103353 -0.07235,0.5271 -0.43236,0.778592 -0.360013,0.24977 -0.768257,0.234267 -0.408244,-0.01722 -0.747586,-0.298001 -0.33762,-0.280775 -0.366903,-0.818211 v -0.03445 -2.123902 q 0,-0.05168 0.01895,-0.09302 0.08268,-0.180868 0.273885,-0.142971 0.192926,0.0379 0.192926,0.235989 v 2.123902 q 0.02584,0.396187 0.347955,0.592557 0.323839,0.196371 0.680407,-0.01723 0.160197,-0.09474 0.234266,-0.244602 0.07579,-0.149862 0.08957,-0.33073 v -2.123902 q 0,-0.03101 0.0034,-0.04651 0.03962,-0.211874 0.260105,-0.191203 0.220486,0.02067 0.220486,0.237712 z"
           style="font-size:3.52778px;fill:#00ff00"
           id="path1050-6-5" />
        <path
           d="m 86.876826,90.943282 -0.523655,-1.446941 -0.5271,1.446941 z m -0.523655,-1.446941 0.523655,1.446941 z m -1.329807,2.246204 q 0.275607,-0.759644 0.551215,-1.517566 0.277331,-0.759644 0.554661,-1.519288 0.05684,-0.156752 0.225654,-0.158474 0.16881,-0.0017 0.227376,0.158474 l 1.104154,3.045467 q 0.05168,0.242879 -0.148139,0.313504 -0.199816,0.07062 -0.308336,-0.144694 l -0.177423,-0.492649 h -1.403877 l -0.172255,0.480591 q -0.110243,0.217041 -0.313504,0.142971 -0.203261,-0.07579 -0.139526,-0.308336 z"
           style="font-size:3.52778px;fill:#00ff00"
           id="path1052-3-7" />
        <path
           d="m 90.201346,91.701204 q 0.110243,0.194648 -0.06201,0.327284 -0.08268,0.05857 -0.191203,0.03962 -0.106798,-0.01895 -0.156752,-0.106798 l -0.849217,-1.341866 h -0.430637 v 1.212675 q 0,0.149861 -0.136081,0.217041 -0.136082,0.06546 -0.254937,-0.02584 -0.09474,-0.07062 -0.09474,-0.191202 v -3.043744 q 0,-0.09991 0.0689,-0.170533 0.07063,-0.07062 0.172255,-0.07062 h 1.069703 q 0.385851,0 0.670072,0.246324 0.28422,0.244602 0.353122,0.621841 0.07235,0.404798 -0.172255,0.757921 -0.242879,0.3514 -0.645956,0.427192 l -0.03273,0.0052 z m -0.86472,-1.565797 q 0.1757,0 0.323839,-0.106798 0.149862,-0.106798 0.201538,-0.279053 0.08096,-0.265273 -0.07407,-0.478869 -0.15503,-0.215318 -0.427192,-0.237711 h -0.849217 v 1.102431 z"
           style="font-size:3.52778px;fill:#00ff00"
           id="path1054-0-4" />
        <path
           d="m 91.074678,88.547217 h 0.81132 q 0.604615,0 0.906061,0.551216 0.301446,0.551215 0.301446,1.212674 0,0.661459 -0.303169,1.212674 -0.301446,0.551216 -0.904338,0.551216 h -0.81132 0.0034 -0.0034 q -0.05684,-0.0086 -0.06201,-0.01033 -0.179145,-0.04306 -0.177423,-0.234267 h -0.0017 l 0.0017,-3.042021 q -0.0017,-0.0052 -0.0017,-0.01378 0.0052,-0.09474 0.07407,-0.160197 0.07063,-0.06718 0.16881,-0.06718 z m 0.81132,3.042021 q 0.0034,0 0.0069,0 0.0034,0 0.0086,0 0.0034,0 0.0052,0 0.0034,-0.0017 0.0086,-0.0017 0.0034,0 0.0069,0 0.0052,-0.0017 0.01033,-0.0017 0.0034,0 0.0069,0 0.0034,-0.0017 0.0086,-0.0017 0.0034,0 0.0069,0 0.0034,-0.0017 0.0086,-0.0017 0.0069,-0.0034 0.01378,-0.0034 0.0034,0 0.0069,-0.0017 0.0034,-0.0034 0.0086,-0.0052 0.0034,0 0.0069,0 0.0052,-0.0017 0.01034,-0.0034 0.0034,0 0.0069,-0.0017 0.0034,-0.0017 0.0086,-0.0034 0.01033,-0.0034 0.0155,-0.0069 0.03101,-0.01034 0.01722,-0.0069 0.0034,0 0.0069,-0.0017 0.0034,-0.0034 0.0086,-0.0052 0.0155,-0.01033 0.01378,-0.0086 0.01723,-0.0086 0.01723,-0.0086 0.0034,-0.0017 0.0069,-0.0034 0.0034,-0.0034 0.0086,-0.0069 0.0155,-0.01034 0.0155,-0.01034 0.0034,-0.0017 0.0069,-0.0034 0.0052,-0.0034 0.01033,-0.0069 0.0034,-0.0017 0.0069,-0.0052 0.0034,-0.0034 0.0086,-0.0069 0.0034,-0.0017 0.0069,-0.0034 0.0034,-0.0034 0.0086,-0.0069 0.0034,-0.0034 0.01723,-0.01378 0.01378,-0.01378 0.01378,-0.01378 0.0034,-0.0034 0.0069,-0.0069 0.0034,-0.0034 0.0086,-0.0086 0.0034,-0.0034 0.0069,-0.0069 0.0034,-0.0034 0.0086,-0.0086 0.0052,-0.0034 0.0155,-0.01378 0.0034,-0.0034 0.0069,-0.0069 0.0034,-0.0034 0.0086,-0.0086 0.0034,-0.0034 0.0069,-0.0069 0.0034,-0.0052 0.0086,-0.01034 0.02067,-0.02756 0.01378,-0.01722 0.01206,-0.01206 0.0155,-0.01895 0.0155,-0.02067 0.01378,-0.01895 0.0034,-0.0052 0.0069,-0.0086 0.0034,-0.0052 0.0086,-0.01034 0.0034,-0.0052 0.0052,-0.01034 0.0034,-0.0052 0.0086,-0.01033 0.0017,-0.0052 0.0052,-0.01033 0.0052,-0.0069 0.0086,-0.01206 0.01034,-0.01378 0.01378,-0.02067 0.0034,-0.0052 0.0052,-0.01033 0.0034,-0.0069 0.0086,-0.01206 0.0034,-0.0052 0.0052,-0.01034 0.0034,-0.0069 0.0086,-0.01206 0.0034,-0.0086 0.01034,-0.02239 0.0034,-0.0052 0.0052,-0.01206 0.0034,-0.0069 0.0086,-0.01378 0.0034,-0.0052 0.0052,-0.01033 0.0034,-0.0069 0.0086,-0.01378 0.0017,-0.0052 0.0034,-0.01206 0.0034,-0.0069 0.0069,-0.01378 0.0052,-0.0086 0.01206,-0.02584 0.01722,-0.04306 0.01206,-0.02756 0.0017,-0.0052 0.0034,-0.01206 0.0034,-0.0086 0.0069,-0.0155 0.0017,-0.0069 0.0034,-0.01378 0.0034,-0.0069 0.0069,-0.0155 0.0052,-0.0155 0.0086,-0.02756 0.0017,-0.0069 0.0034,-0.01378 0.0034,-0.0069 0.0069,-0.0155 -0.0069,0.01722 0.0086,-0.02928 0.0034,-0.0086 0.01033,-0.02928 0,-0.0069 0.0017,-0.01378 0.0034,-0.0086 0.0052,-0.01723 0.0017,-0.0069 0.0034,-0.01378 0.0017,-0.0086 0.0052,-0.01723 0,-0.0052 0.0017,-0.01206 0.0034,-0.0086 0.0052,-0.01722 0.0017,-0.01206 0.0052,-0.03273 0,-0.0069 0.0017,-0.01378 0.0034,-0.0086 0.0052,-0.01722 0,-0.0069 0.0017,-0.01378 0.0017,-0.0086 0.0034,-0.01722 0.0017,-0.01206 0.0052,-0.03273 0,-0.0069 0.0017,-0.0155 0.0034,-0.0086 0.0052,-0.01722 0,-0.01206 0.0034,-0.03273 0,-0.0069 0,-0.01378 0.0017,-0.0086 0.0034,-0.01895 0.0034,-0.02067 0.0034,-0.03273 0.0017,-0.01206 0.0017,-0.03273 0.0017,-0.01206 0.0017,-0.03445 0.0017,-0.01206 0.0017,-0.03273 0,-0.0086 0,-0.0155 0.0017,-0.0086 0.0034,-0.01895 0,-0.0069 0,-0.01378 0.0017,-0.0086 0.0017,-0.01895 0,-0.0069 0,-0.0155 0,-0.0086 0,-0.01722 0,-0.0086 0,-0.0155 0,-0.0086 0,-0.01723 0,-0.0086 -0.0017,-0.0155 0,-0.0086 0,-0.01895 0,-0.0069 0,-0.0155 0,-0.0086 0,-0.01723 0,-0.01033 -0.0034,-0.03445 0,-0.02067 -0.0017,-0.03101 0,-0.01206 -0.0034,-0.03617 0,-0.02067 -0.0017,-0.03101 0,-0.01206 -0.0034,-0.03273 -0.0017,-0.0069 -0.0034,-0.0155 0,-0.0086 0,-0.01723 -0.0034,-0.02067 -0.0069,-0.03273 -0.0017,-0.0069 -0.0034,-0.01378 -0.0017,-0.0086 -0.0017,-0.01722 -0.0017,-0.01206 -0.0052,-0.03273 -0.0017,-0.01206 -0.0052,-0.03273 -0.0069,-0.02067 -0.0086,-0.03101 -0.0034,-0.02067 -0.0052,-0.02928 -0.0034,-0.0069 -0.0052,-0.01378 -0.0017,-0.0086 -0.0034,-0.01722 -0.0017,-0.0069 -0.0052,-0.01378 -0.0034,-0.0086 -0.0034,-0.01723 -0.0155,-0.04651 -0.0086,-0.02928 -0.0034,-0.01206 -0.0086,-0.02928 -0.0034,-0.0052 -0.0069,-0.01206 -0.0017,-0.0086 -0.0034,-0.0155 -0.0017,-0.0052 -0.01033,-0.02928 -0.0069,-0.01722 -0.01033,-0.02756 -0.0034,-0.0052 -0.0069,-0.01206 -0.0017,-0.0086 -0.0034,-0.0155 -0.0034,-0.0052 -0.0069,-0.01206 -0.0034,-0.0069 -0.0052,-0.01378 -0.0069,-0.01722 -0.01206,-0.02584 -0.0069,-0.01722 -0.01034,-0.02412 -0.0069,-0.01722 -0.01206,-0.02584 -0.0034,-0.0052 -0.0069,-0.01033 -0.0034,-0.0069 -0.0052,-0.01206 -0.01034,-0.01723 -0.01378,-0.02412 -0.0155,-0.02412 -0.01378,-0.02239 -0.0052,-0.0052 -0.0086,-0.01033 -0.0017,-0.0069 -0.0052,-0.01206 -0.0034,-0.0069 -0.01378,-0.02067 -0.0034,-0.0052 -0.0069,-0.01033 -0.0034,-0.0052 -0.0052,-0.01033 -0.0086,-0.0155 -0.02928,-0.03962 -0.0034,-0.0034 -0.02756,-0.0379 -0.02067,-0.02412 -0.03101,-0.03445 -0.01033,-0.01206 -0.03101,-0.03273 -0.01378,-0.0155 -0.02928,-0.02928 -0.01206,-0.0086 -0.03273,-0.02584 -0.01723,-0.01378 -0.03273,-0.02584 -0.03962,-0.02584 -0.03273,-0.02239 -0.03445,-0.02067 -0.03101,-0.01895 0,0 -0.03101,-0.0155 -0.0069,-0.0034 -0.03273,-0.01206 -0.02239,-0.0086 -0.03273,-0.01206 -0.0086,-0.0017 -0.0155,-0.0034 -0.0069,-0.0034 -0.01378,-0.0069 -0.03101,-0.0052 -0.03101,-0.0052 -0.01033,-0.0017 -0.03101,-0.0017 -0.0052,0 -0.0086,0 -0.0034,0 -0.0069,0 h -0.568441 v 2.556262 0 z"
           style="font-size:3.52778px;fill:#00ff00"
           id="path1056-9-5" />
      </g>
      <g
         aria-label=" "
         id="text1172-8-5-5-6-6-8"
         style="font-size:10.5833px;line-height:1.25;font-family:'MS 33558';-inkscape-font-specification:'MS 33558, ';fill:#00ff00;stroke-width:0.264583" />
    </g>
    <path
       id="path1589-4-0"
       style="fill:#ff0000;stroke:none;stroke-width:0.354504"
       d="m 80.566892,110.44159 a 6,6 0 0 1 -5.82919,5.99757 6,6 0 0 1 -6.16107,-5.65611 6,6 0 0 1 5.47842,-6.31959 6,6 0 0 1 6.47298,5.29631" />
    <path
       id="path1589-2-7-7"
       style="fill:#ff0000;stroke:none;stroke-width:0.354504"
       d="m 139.30439,110.44159 a 6,6 0 0 1 -5.8292,5.99757 6,6 0 0 1 -6.16107,-5.65611 6,6 0 0 1 5.47842,-6.31959 6,6 0 0 1 6.47299,5.29631" />
    <g
       id="g1629-4-9"
       transform="translate(17.856482,34.856197)"
       style="fill:#00ff00">
      <g
         aria-label="u"
         id="text1613-4-0"
         style="font-size:4.23333px;line-height:1.25;font-family:'MS 33558';-inkscape-font-specification:'MS 33558, ';fill:#00ff00;stroke-width:0.264583">
        <path
           d="m 9.5570356,64.221406 v 0.04134 q -0.0062,0.103353 -0.00827,0.124024 -0.086816,0.632519 -0.5188309,0.934309 -0.4320146,0.299723 -0.9219068,0.281119 -0.4898922,-0.02067 -0.8971021,-0.3576 -0.4051429,-0.33693 -0.4402828,-0.981852 v -0.04134 -2.548679 q 0,-0.06201 0.022738,-0.111621 Q 6.8926,61.344065 7.1220428,61.38954 7.353553,61.43502 7.353553,61.672727 v 2.548679 q 0.031006,0.475423 0.4175453,0.711067 0.3886064,0.235645 0.8164869,-0.02067 0.1922362,-0.113688 0.2811196,-0.293522 0.09095,-0.179834 0.1074868,-0.396875 v -2.548679 q 0,-0.03721 0.00413,-0.05581 0.047542,-0.254248 0.3121253,-0.229443 0.2645832,0.02481 0.2645832,0.285254 z"
           style="font-size:4.23333px;fill:#00ff00;stroke-width:0.264583"
           id="path1062-4-4" />
      </g>
      <g
         aria-label="h"
         id="text1617-8-8"
         style="font-size:3.52777px;line-height:1.25;font-family:'MS 33558';-inkscape-font-specification:'MS 33558, ';fill:#00ff00;stroke-width:0.264583">
        <path
           d="m 6.7468748,72.20083 v -3.654554 q 0.043408,-0.297656 0.3017901,-0.291455 0.258382,0.0041 0.2811196,0.291455 V 69.9126 h 1.6639797 v -1.366324 q 0.043408,-0.291455 0.2914548,-0.291455 0.2501138,-0.0021 0.295589,0.291455 v 3.654554 q -0.045475,0.291455 -0.295589,0.289388 -0.2480466,0 -0.2914548,-0.289388 V 70.499644 H 7.3297845 v 1.701186 q -0.022738,0.285254 -0.2811196,0.289388 -0.2583819,0.0041 -0.3017901,-0.289388 z"
           style="font-size:4.23333px;fill:#00ff00;stroke-width:0.264583"
           id="path1065-8-3" />
      </g>
      <g
         aria-label="f"
         id="text1621-1-3"
         style="font-size:3.52777px;line-height:1.25;font-family:'MS 33558';-inkscape-font-specification:'MS 33558, ';fill:#00ff00;stroke-width:0.264583">
        <path
           d="M 6.8729653,79.081486 V 75.4352 q 0.037207,-0.272852 0.2935219,-0.293522 H 9.167397 q 0.2873207,0.02274 0.2873207,0.293522 0,0.268717 -0.2914548,0.28732 h -1.709455 v 1.13068 h 1.3332509 q 0.2852536,0.02067 0.2893878,0.279052 0.00413,0.258382 -0.2893878,0.30179 H 7.4538079 v 1.647444 q -0.020671,0.285253 -0.2811195,0.289388 -0.258382,0.0041 -0.2997231,-0.289388 z"
           style="font-size:4.23333px;fill:#00ff00;stroke-width:0.264583"
           id="path1068-3-9" />
      </g>
    </g>
    <path
       id="path1589-5-9-7"
       style="fill:#ff0000;stroke:none;stroke-width:0.177252"
       d="m 77.037732,87.994723 a 3,3 0 0 1 -2.9146,2.99879 3,3 0 0 1 -3.08054,-2.82806 3,3 0 0 1 2.73922,-3.15979 3,3 0 0 1 3.23649,2.64815" />
    <path
       id="path1589-5-7-1-2"
       style="fill:#ff0000;stroke:none;stroke-width:0.177252"
       d="m 95.911342,87.994723 a 3,3 0 0 1 -2.9146,2.99879 3,3 0 0 1 -3.08054,-2.82806 3,3 0 0 1 2.73921,-3.15979 3,3 0 0 1 3.23649,2.64815" />
    <path
       id="path1589-5-2-60-6"
       style="fill:#ff0000;stroke:none;stroke-width:0.177252"
       d="m 119.01828,87.994723 a 3,3 0 0 1 -2.9146,2.99879 3,3 0 0 1 -3.08054,-2.82806 3,3 0 0 1 2.73922,-3.15979 3,3 0 0 1 3.23649,2.64815" />
    <path
       id="path1589-5-8-1-8"
       style="fill:#ff0000;stroke:none;stroke-width:0.177252"
       d="m 136.83356,87.994723 a 3,3 0 0 1 -2.9146,2.99879 3,3 0 0 1 -3.08054,-2.82806 3,3 0 0 1 2.73922,-3.15979 3,3 0 0 1 3.23649,2.64815" />
    <g
       id="g1290-3-1-3-0-0-5"
       transform="translate(45.068262,35.033487)"
       style="fill:#00ff00">
      <g
         aria-label="adf "
         id="text1172-7-4-9-8-58-9"
         style="font-size:10.5833px;line-height:1.25;font-family:'MS 33558';-inkscape-font-specification:'MS 33558, ';fill:#00ff00;stroke-width:0.264583">
        <path
           d="m 87.73859,90.943282 -0.523655,-1.446941 -0.5271,1.446941 z m -0.523655,-1.446941 0.523655,1.446941 z m -1.329807,2.246204 q 0.275607,-0.759644 0.551215,-1.517566 0.277331,-0.759644 0.554661,-1.519288 0.05684,-0.156752 0.225654,-0.158474 0.16881,-0.0017 0.227376,0.158474 l 1.104154,3.045467 q 0.05168,0.242879 -0.148139,0.313504 -0.199816,0.07062 -0.308336,-0.144694 L 87.91429,91.427319 h -1.403877 l -0.172255,0.480591 q -0.110243,0.217041 -0.313504,0.142971 -0.203261,-0.07579 -0.139526,-0.308336 z"
           style="font-size:3.52778px;fill:#00ff00"
           id="path1075-4-3" />
        <path
           d="m 89.128687,88.547217 h 0.811321 q 0.604614,0 0.90606,0.551216 0.301446,0.551215 0.301446,1.212674 0,0.661459 -0.303168,1.212674 -0.301446,0.551216 -0.904338,0.551216 h -0.811321 0.0034 -0.0034 q -0.05684,-0.0086 -0.06201,-0.01033 -0.179145,-0.04306 -0.177422,-0.234267 h -0.0017 l 0.0017,-3.042021 q -0.0017,-0.0052 -0.0017,-0.01378 0.0052,-0.09474 0.07407,-0.160197 0.07062,-0.06718 0.16881,-0.06718 z m 0.811321,3.042021 q 0.0034,0 0.0069,0 0.0034,0 0.0086,0 0.0034,0 0.0052,0 0.0034,-0.0017 0.0086,-0.0017 0.0034,0 0.0069,0 0.0052,-0.0017 0.01033,-0.0017 0.0034,0 0.0069,0 0.0034,-0.0017 0.0086,-0.0017 0.0034,0 0.0069,0 0.0034,-0.0017 0.0086,-0.0017 0.0069,-0.0034 0.01378,-0.0034 0.0034,0 0.0069,-0.0017 0.0034,-0.0034 0.0086,-0.0052 0.0034,0 0.0069,0 0.0052,-0.0017 0.01033,-0.0034 0.0034,0 0.0069,-0.0017 0.0034,-0.0017 0.0086,-0.0034 0.01033,-0.0034 0.0155,-0.0069 0.03101,-0.01034 0.01723,-0.0069 0.0034,0 0.0069,-0.0017 0.0034,-0.0034 0.0086,-0.0052 0.0155,-0.01033 0.01378,-0.0086 0.01722,-0.0086 0.01722,-0.0086 0.0034,-0.0017 0.0069,-0.0034 0.0034,-0.0034 0.0086,-0.0069 0.0155,-0.01034 0.0155,-0.01034 0.0034,-0.0017 0.0069,-0.0034 0.0052,-0.0034 0.01034,-0.0069 0.0034,-0.0017 0.0069,-0.0052 0.0034,-0.0034 0.0086,-0.0069 0.0034,-0.0017 0.0069,-0.0034 0.0034,-0.0034 0.0086,-0.0069 0.0034,-0.0034 0.01722,-0.01378 0.01378,-0.01378 0.01378,-0.01378 0.0034,-0.0034 0.0069,-0.0069 0.0034,-0.0034 0.0086,-0.0086 0.0034,-0.0034 0.0069,-0.0069 0.0034,-0.0034 0.0086,-0.0086 0.0052,-0.0034 0.0155,-0.01378 0.0034,-0.0034 0.0069,-0.0069 0.0034,-0.0034 0.0086,-0.0086 0.0034,-0.0034 0.0069,-0.0069 0.0034,-0.0052 0.0086,-0.01034 0.02067,-0.02756 0.01378,-0.01722 0.01206,-0.01206 0.0155,-0.01895 0.0155,-0.02067 0.01378,-0.01895 0.0034,-0.0052 0.0069,-0.0086 0.0034,-0.0052 0.0086,-0.01034 0.0034,-0.0052 0.0052,-0.01034 0.0034,-0.0052 0.0086,-0.01033 0.0017,-0.0052 0.0052,-0.01033 0.0052,-0.0069 0.0086,-0.01206 0.01033,-0.01378 0.01378,-0.02067 0.0034,-0.0052 0.0052,-0.01033 0.0034,-0.0069 0.0086,-0.01206 0.0034,-0.0052 0.0052,-0.01034 0.0034,-0.0069 0.0086,-0.01206 0.0034,-0.0086 0.01034,-0.02239 0.0034,-0.0052 0.0052,-0.01206 0.0034,-0.0069 0.0086,-0.01378 0.0034,-0.0052 0.0052,-0.01033 0.0034,-0.0069 0.0086,-0.01378 0.0017,-0.0052 0.0034,-0.01206 0.0034,-0.0069 0.0069,-0.01378 0.0052,-0.0086 0.01206,-0.02584 0.01723,-0.04306 0.01206,-0.02756 0.0017,-0.0052 0.0034,-0.01206 0.0034,-0.0086 0.0069,-0.0155 0.0017,-0.0069 0.0034,-0.01378 0.0034,-0.0069 0.0069,-0.0155 0.0052,-0.0155 0.0086,-0.02756 0.0017,-0.0069 0.0034,-0.01378 0.0034,-0.0069 0.0069,-0.0155 -0.0069,0.01722 0.0086,-0.02928 0.0034,-0.0086 0.01034,-0.02928 0,-0.0069 0.0017,-0.01378 0.0034,-0.0086 0.0052,-0.01723 0.0017,-0.0069 0.0034,-0.01378 0.0017,-0.0086 0.0052,-0.01723 0,-0.0052 0.0017,-0.01206 0.0034,-0.0086 0.0052,-0.01722 0.0017,-0.01206 0.0052,-0.03273 0,-0.0069 0.0017,-0.01378 0.0034,-0.0086 0.0052,-0.01722 0,-0.0069 0.0017,-0.01378 0.0017,-0.0086 0.0034,-0.01722 0.0017,-0.01206 0.0052,-0.03273 0,-0.0069 0.0017,-0.0155 0.0034,-0.0086 0.0052,-0.01722 0,-0.01206 0.0034,-0.03273 0,-0.0069 0,-0.01378 0.0017,-0.0086 0.0034,-0.01895 0.0034,-0.02067 0.0034,-0.03273 0.0017,-0.01206 0.0017,-0.03273 0.0017,-0.01206 0.0017,-0.03445 0.0017,-0.01206 0.0017,-0.03273 0,-0.0086 0,-0.0155 0.0017,-0.0086 0.0034,-0.01895 0,-0.0069 0,-0.01378 0.0017,-0.0086 0.0017,-0.01895 0,-0.0069 0,-0.0155 0,-0.0086 0,-0.01722 0,-0.0086 0,-0.0155 0,-0.0086 0,-0.01723 0,-0.0086 -0.0017,-0.0155 0,-0.0086 0,-0.01895 0,-0.0069 0,-0.0155 0,-0.0086 0,-0.01723 0,-0.01033 -0.0034,-0.03445 0,-0.02067 -0.0017,-0.03101 0,-0.01206 -0.0034,-0.03617 0,-0.02067 -0.0017,-0.03101 0,-0.01206 -0.0034,-0.03273 -0.0017,-0.0069 -0.0034,-0.0155 0,-0.0086 0,-0.01723 -0.0034,-0.02067 -0.0069,-0.03273 -0.0017,-0.0069 -0.0034,-0.01378 -0.0017,-0.0086 -0.0017,-0.01722 -0.0017,-0.01206 -0.0052,-0.03273 -0.0017,-0.01206 -0.0052,-0.03273 -0.0069,-0.02067 -0.0086,-0.03101 -0.0034,-0.02067 -0.0052,-0.02928 -0.0034,-0.0069 -0.0052,-0.01378 -0.0017,-0.0086 -0.0034,-0.01722 -0.0017,-0.0069 -0.0052,-0.01378 -0.0034,-0.0086 -0.0034,-0.01723 -0.0155,-0.04651 -0.0086,-0.02928 -0.0034,-0.01206 -0.0086,-0.02928 -0.0034,-0.0052 -0.0069,-0.01206 -0.0017,-0.0086 -0.0034,-0.0155 -0.0017,-0.0052 -0.01034,-0.02928 -0.0069,-0.01722 -0.01033,-0.02756 -0.0034,-0.0052 -0.0069,-0.01206 -0.0017,-0.0086 -0.0034,-0.0155 -0.0034,-0.0052 -0.0069,-0.01206 -0.0034,-0.0069 -0.0052,-0.01378 -0.0069,-0.01722 -0.01206,-0.02584 -0.0069,-0.01722 -0.01033,-0.02412 -0.0069,-0.01722 -0.01206,-0.02584 -0.0034,-0.0052 -0.0069,-0.01033 -0.0034,-0.0069 -0.0052,-0.01206 -0.01034,-0.01723 -0.01378,-0.02412 -0.0155,-0.02412 -0.01378,-0.02239 -0.0052,-0.0052 -0.0086,-0.01033 -0.0017,-0.0069 -0.0052,-0.01206 -0.0034,-0.0069 -0.01378,-0.02067 -0.0034,-0.0052 -0.0069,-0.01033 -0.0034,-0.0052 -0.0052,-0.01033 -0.0086,-0.0155 -0.02928,-0.03962 -0.0034,-0.0034 -0.02756,-0.0379 -0.02067,-0.02412 -0.03101,-0.03445 -0.01034,-0.01206 -0.03101,-0.03273 -0.01378,-0.0155 -0.02928,-0.02928 -0.01206,-0.0086 -0.03273,-0.02584 -0.01723,-0.01378 -0.03273,-0.02584 -0.03962,-0.02584 -0.03273,-0.02239 -0.03445,-0.02067 -0.03101,-0.01895 0,0 -0.03101,-0.0155 -0.0069,-0.0034 -0.03273,-0.01206 -0.02239,-0.0086 -0.03273,-0.01206 -0.0086,-0.0017 -0.0155,-0.0034 -0.0069,-0.0034 -0.01378,-0.0069 -0.03101,-0.0052 -0.03101,-0.0052 -0.01033,-0.0017 -0.031,-0.0017 -0.0052,0 -0.0086,0 -0.0034,0 -0.0069,0 h -0.568441 v 2.556262 0 z"
           style="font-size:3.52778px;fill:#00ff00"
           id="path1077-0-4" />
        <path
           d="m 91.586764,91.830395 v -3.038576 q 0.03101,-0.227377 0.244602,-0.244602 h 1.667428 q 0.239434,0.01895 0.239434,0.244602 0,0.223931 -0.24288,0.239434 h -1.424547 v 0.942234 h 1.111044 q 0.237711,0.01723 0.241156,0.232544 0.0034,0.215319 -0.241156,0.251493 h -1.111044 v 1.372871 q -0.01723,0.237712 -0.234267,0.241157 -0.215319,0.0034 -0.24977,-0.241157 z"
           style="font-size:3.52778px;fill:#00ff00"
           id="path1079-9-4" />
      </g>
      <g
         aria-label=" "
         id="text1172-8-5-5-6-7-0-7"
         style="font-size:10.5833px;line-height:1.25;font-family:'MS 33558';-inkscape-font-specification:'MS 33558, ';fill:#00ff00;stroke-width:0.264583" />
    </g>
    <g
       aria-label="tone "
       id="text1172-7-4-9-8-5-7-1"
       style="font-size:3.52778px;line-height:1.25;font-family:'MS 33558';-inkscape-font-specification:'MS 33558, ';fill:#00ff00;stroke-width:0.264583"
       transform="translate(0.543832,26.389528)">
      <path
         d="m 69.574588,73.488381 v -2.800864 h -0.632175 q -0.241157,-0.01895 -0.241157,-0.241157 0.0017,-0.223932 0.241157,-0.244602 H 70.6908 q 0.237711,0.01895 0.237711,0.244602 0.0017,0.223931 -0.237711,0.241157 h -0.630453 v 2.800864 q -0.03962,0.244602 -0.254937,0.241157 -0.213596,-0.0034 -0.230822,-0.241157 z"
         style="font-size:3.52778px;word-spacing:-0.0423333px;fill:#00ff00"
         id="path1083-3-5" />
      <path
         d="m 73.734544,71.216339 q 0.158474,0.477146 0.118856,0.990466 -0.0379,0.513319 -0.280776,0.937066 -0.153307,0.26355 -0.418579,0.447863 -0.265273,0.184313 -0.585667,0.129191 -0.521932,-0.09129 -0.799263,-0.544325 -0.27733,-0.453031 -0.318671,-1.007691 -0.03962,-0.556384 0.149862,-1.083484 0.191203,-0.527099 0.608059,-0.766534 0.203261,-0.117133 0.42547,-0.117133 0.423747,0 0.692465,0.320394 0.268717,0.318672 0.408244,0.694187 z m -1.086929,-0.525377 q -0.316949,0 -0.480591,0.341064 -0.161919,0.341065 -0.204983,0.582222 -0.03273,0.1757 -0.02412,0.42547 0.0086,0.249769 0.07235,0.494371 0.06373,0.242879 0.191203,0.43925 0.127469,0.194648 0.334175,0.258382 0.241157,0.07579 0.415134,-0.09474 0.1757,-0.172255 0.265272,-0.36518 0.0913,-0.198093 0.124024,-0.52021 0.03445,-0.322117 -0.0155,-0.642511 -0.04823,-0.322116 -0.191203,-0.578776 -0.142971,-0.258382 -0.406521,-0.329007 -0.03445,-0.01033 -0.07924,-0.01033 z"
         style="font-size:3.52778px;word-spacing:-0.0423333px;fill:#00ff00"
         id="path1085-0-7" />
      <path
         d="m 76.695605,73.491826 q 0,0.180868 -0.1757,0.230822 -0.173978,0.04823 -0.27044,-0.103353 l -1.446941,-2.320273 v 2.192804 q -0.0379,0.241157 -0.244602,0.241157 -0.204984,0 -0.241157,-0.241157 v -3.042021 q 0.02584,-0.179145 0.18259,-0.235989 0.158475,-0.05684 0.26355,0.106798 l 1.446941,2.323718 v -2.194527 q 0.03273,-0.246325 0.24977,-0.242879 0.218763,0.0017 0.235989,0.242879 z"
         style="font-size:3.52778px;word-spacing:-0.0423333px;fill:#00ff00"
         id="path1087-9-9" />
      <path
         d="m 79.102006,70.682349 h -1.427993 v 0.942234 h 1.088651 q 0.244602,0.03617 0.242879,0.246325 0,0.208428 -0.242879,0.242879 h -1.088651 v 1.131715 h 1.427993 q 0.242879,0.03617 0.242879,0.242879 0,0.206706 -0.242879,0.241157 h -1.667427 q -0.215319,-0.02756 -0.244602,-0.244602 v -3.042021 q 0.03273,-0.227377 0.244602,-0.241157 h 1.667427 q 0.242879,0.01895 0.241157,0.242879 0,0.222209 -0.241157,0.237712 z"
         style="font-size:3.52778px;word-spacing:-0.0423333px;fill:#00ff00"
         id="path1089-9-7" />
    </g>
    <g
       aria-label="main "
       id="text1172-7-4-9-8-5-9-2-9"
       style="font-size:10.5833px;line-height:1.25;font-family:'MS 33558';-inkscape-font-specification:'MS 33558, ';fill:#00ff00;stroke-width:0.264583"
       transform="translate(-2.781018,29.564532)">
      <path
         d="m 128.22919,113.70403 q -0.0379,0.24116 -0.2446,0.24116 -0.20498,-0.002 -0.24116,-0.24116 v -2.15146 l -0.59083,1.01114 q -0.0947,0.11368 -0.21187,0.11885 -0.11541,0.005 -0.20671,-0.11885 l -0.58739,-1.00597 0.002,2.14629 q -0.0276,0.23944 -0.24976,0.23944 -0.22049,-0.002 -0.23772,-0.23944 v -3.04202 q 0.0138,-0.19809 0.17398,-0.23599 0.1602,-0.0396 0.27905,0.10852 l 0.82855,1.42455 0.83716,-1.42455 q 0.11885,-0.14814 0.27561,-0.10852 0.15847,0.0396 0.17397,0.23599 z"
         style="font-size:3.52778px;fill:#00ff00"
         id="path1092-0-4" />
      <path
         d="m 130.50813,112.81348 -0.52366,-1.44695 -0.5271,1.44695 z m -0.52366,-1.44695 0.52366,1.44695 z m -1.32981,2.24621 q 0.27561,-0.75965 0.55122,-1.51757 0.27733,-0.75964 0.55466,-1.51929 0.0568,-0.15675 0.22565,-0.15847 0.16881,-0.002 0.22738,0.15847 l 1.10415,3.04547 q 0.0517,0.24288 -0.14814,0.31351 -0.19981,0.0706 -0.30833,-0.1447 l -0.17742,-0.49265 h -1.40388 l -0.17226,0.48059 q -0.11024,0.21704 -0.3135,0.14297 -0.20326,-0.0758 -0.13953,-0.30833 z"
         style="font-size:3.52778px;fill:#00ff00"
         id="path1094-1-4" />
      <path
         d="m 132.14627,113.70748 q -0.0379,0.24288 -0.24632,0.24116 -0.20671,0 -0.24288,-0.24116 v -3.04547 q 0.0362,-0.24288 0.24288,-0.24288 0.20842,-0.002 0.24632,0.24288 z"
         style="font-size:3.52778px;fill:#00ff00"
         id="path1096-4-3" />
      <path
         d="m 135.01431,113.70748 q 0,0.18087 -0.1757,0.23082 -0.17397,0.0482 -0.27044,-0.10335 l -1.44694,-2.32028 v 2.19281 q -0.0379,0.24116 -0.2446,0.24116 -0.20498,0 -0.24116,-0.24116 v -3.04202 q 0.0258,-0.17915 0.18259,-0.23599 0.15848,-0.0568 0.26355,0.1068 l 1.44694,2.32371 v -2.19452 q 0.0327,-0.24633 0.24977,-0.24288 0.21877,0.002 0.23599,0.24288 z"
         style="font-size:3.52778px;fill:#00ff00"
         id="path1098-5-8" />
    </g>
    <g
       aria-label="off "
       id="text1172-7-4-9-8-5-9-1-7-0"
       style="font-size:3.52778px;line-height:1.25;font-family:'MS 33558';-inkscape-font-specification:'MS 33558, ';fill:#00ff00;stroke-width:0.264583"
       transform="translate(-0.135168,31.152033)">
      <path
         d="m 132.41091,118.04637 q 0.15847,0.47715 0.11885,0.99047 -0.0379,0.51332 -0.28077,0.93706 -0.15331,0.26355 -0.41858,0.44787 -0.26527,0.18431 -0.58567,0.12919 -0.52193,-0.0913 -0.79926,-0.54433 -0.27733,-0.45303 -0.31867,-1.00769 -0.0396,-0.55638 0.14986,-1.08348 0.1912,-0.5271 0.60806,-0.76654 0.20326,-0.11713 0.42547,-0.11713 0.42375,0 0.69246,0.32039 0.26872,0.31868 0.40825,0.69419 z m -1.08693,-0.52538 q -0.31695,0 -0.48059,0.34107 -0.16192,0.34106 -0.20498,0.58222 -0.0327,0.1757 -0.0241,0.42547 0.009,0.24977 0.0724,0.49437 0.0637,0.24288 0.1912,0.43925 0.12747,0.19465 0.33417,0.25838 0.24116,0.0758 0.41514,-0.0947 0.1757,-0.17225 0.26527,-0.36518 0.0913,-0.19809 0.12403,-0.52021 0.0345,-0.32211 -0.0155,-0.64251 -0.0482,-0.32211 -0.1912,-0.57877 -0.14297,-0.25839 -0.40652,-0.32901 -0.0344,-0.0103 -0.0792,-0.0103 z"
         style="font-size:3.52778px;word-spacing:-0.0423333px;fill:#00ff00"
         id="path1101-0-3" />
      <path
         d="m 132.99313,120.31497 v -3.03858 q 0.031,-0.22737 0.2446,-0.2446 h 1.66743 q 0.23943,0.019 0.23943,0.2446 0,0.22393 -0.24288,0.23944 h -1.42454 v 0.94223 h 1.11104 q 0.23771,0.0172 0.24116,0.23254 0.003,0.21532 -0.24116,0.2515 h -1.11104 v 1.37287 q -0.0172,0.23771 -0.23427,0.24116 -0.21532,0.003 -0.24977,-0.24116 z"
         style="font-size:3.52778px;word-spacing:-0.0423333px;fill:#00ff00"
         id="path1103-8-6" />
      <path
         d="m 135.62691,120.31497 v -3.03858 q 0.031,-0.22737 0.2446,-0.2446 h 1.66743 q 0.23943,0.019 0.23943,0.2446 0,0.22393 -0.24288,0.23944 h -1.42455 v 0.94223 h 1.11105 q 0.23771,0.0172 0.24115,0.23254 0.003,0.21532 -0.24115,0.2515 h -1.11105 v 1.37287 q -0.0172,0.23771 -0.23426,0.24116 -0.21532,0.003 -0.24977,-0.24116 z"
         style="font-size:3.52778px;word-spacing:-0.0423333px;fill:#00ff00"
         id="path1105-0-9" />
    </g>
    <g
       aria-label="both "
       id="text1172-7-4-9-8-5-2-1-2"
       style="font-size:10.5833px;line-height:1.25;font-family:'MS 33558';-inkscape-font-specification:'MS 33558, ';fill:#00ff00;stroke-width:0.264583"
       transform="translate(-3.310178,26.38953)">
      <path
         d="m 126.97518,104.332 q 0.32728,0.0276 0.54949,0.19809 0.22393,0.17053 0.31006,0.41169 0.0861,0.23944 0.0224,0.5116 -0.062,0.27044 -0.30317,0.49782 0.26528,0.27905 0.33073,0.60289 0.0655,0.32384 -0.0413,0.60633 -0.10507,0.28078 -0.3669,0.47715 -0.26183,0.19637 -0.6494,0.22221 h -0.005 -0.91639 q -0.21188,-0.0293 -0.24461,-0.23943 v -3.04375 q 0.0293,-0.21359 0.24461,-0.2446 z m -0.15331,3.0403 q 0.29283,-0.0121 0.44614,-0.18948 0.15331,-0.17742 0.15848,-0.39274 0.007,-0.21704 -0.13781,-0.40653 -0.14469,-0.18948 -0.44614,-0.22909 h -0.69419 v 1.21784 z m 0.15331,-2.5511 h -0.82683 v 0.84922 h 0.832 q 0.21359,-0.0224 0.31694,-0.15331 0.10508,-0.13263 0.10164,-0.2825 -0.002,-0.15158 -0.10853,-0.2756 -0.10679,-0.12575 -0.31522,-0.13781 z"
         style="font-size:3.52778px;fill:#00ff00"
         id="path1108-6-6" />
      <path
         d="m 130.6511,105.34658 q 0.15847,0.47715 0.11885,0.99047 -0.0379,0.51332 -0.28077,0.93706 -0.15331,0.26355 -0.41858,0.44787 -0.26527,0.18431 -0.58567,0.12919 -0.52193,-0.0913 -0.79926,-0.54433 -0.27733,-0.45303 -0.31867,-1.00769 -0.0396,-0.55638 0.14986,-1.08348 0.1912,-0.5271 0.60806,-0.76654 0.20326,-0.11713 0.42547,-0.11713 0.42375,0 0.69246,0.32039 0.26872,0.31867 0.40825,0.69419 z m -1.08693,-0.52538 q -0.31695,0 -0.48059,0.34107 -0.16192,0.34106 -0.20499,0.58222 -0.0327,0.1757 -0.0241,0.42547 0.009,0.24977 0.0724,0.49437 0.0637,0.24288 0.1912,0.43925 0.12747,0.19465 0.33417,0.25838 0.24116,0.0758 0.41514,-0.0947 0.1757,-0.17225 0.26527,-0.36518 0.0913,-0.19809 0.12402,-0.52021 0.0344,-0.32211 -0.0155,-0.64251 -0.0482,-0.32211 -0.1912,-0.57877 -0.14297,-0.25839 -0.40652,-0.32901 -0.0344,-0.0103 -0.0792,-0.0103 z"
         style="font-size:3.52778px;fill:#00ff00"
         id="path1110-1-8" />
      <path
         d="m 132.10665,107.61862 v -2.80086 h -0.63217 q -0.24116,-0.019 -0.24116,-0.24116 0.002,-0.22393 0.24116,-0.2446 h 1.74838 q 0.23771,0.019 0.23771,0.2446 0.002,0.22393 -0.23771,0.24116 h -0.63045 v 2.80086 q -0.0396,0.2446 -0.25494,0.24116 -0.21359,-0.003 -0.23082,-0.24116 z"
         style="font-size:3.52778px;fill:#00ff00"
         id="path1112-5-3" />
      <path
         d="m 133.97562,107.62207 v -3.04547 q 0.0362,-0.24805 0.25149,-0.24288 0.21532,0.003 0.23427,0.24288 v 1.13861 h 1.38665 v -1.13861 q 0.0362,-0.24288 0.24288,-0.24288 0.20842,-0.002 0.24632,0.24288 v 3.04547 q -0.0379,0.24288 -0.24632,0.24115 -0.20671,0 -0.24288,-0.24115 v -1.41766 h -1.38665 v 1.41766 q -0.0189,0.23771 -0.23427,0.24115 -0.21532,0.003 -0.25149,-0.24115 z"
         style="font-size:3.52778px;fill:#00ff00"
         id="path1114-1-7" />
    </g>
    <g
       aria-label="load "
       id="text1172-7-4-9-8-5-93-9-0"
       style="font-size:3.52778px;line-height:1.25;font-family:'MS 33558';-inkscape-font-specification:'MS 33558, ';fill:#00ff00;stroke-width:0.264583"
       transform="translate(0.526522,26.389528)">
      <path
         d="m 127.54477,73.728796 q -0.21188,-0.01378 -0.24461,-0.239434 v -3.045466 q 0.0362,-0.248047 0.2515,-0.24288 0.21531,0.0034 0.23426,0.24288 v 2.804309 l 1.58991,-0.0017 q 0.24461,0.02756 0.24116,0.248047 -0.002,0.218763 -0.24288,0.234266 z"
         style="font-size:3.52778px;word-spacing:-0.0423333px;fill:#00ff00"
         id="path1117-8-0" />
      <path
         d="m 132.39891,71.213875 q 0.15847,0.477146 0.11885,0.990465 -0.0379,0.51332 -0.28077,0.937067 -0.15331,0.26355 -0.41858,0.447863 -0.26527,0.184312 -0.58567,0.129191 -0.52193,-0.0913 -0.79926,-0.544326 -0.27733,-0.45303 -0.31867,-1.007691 -0.0396,-0.556383 0.14986,-1.083483 0.1912,-0.5271 0.60806,-0.766534 0.20326,-0.117133 0.42547,-0.117133 0.42375,0 0.69246,0.320394 0.26872,0.318671 0.40825,0.694187 z m -1.08693,-0.525378 q -0.31695,0 -0.48059,0.341065 -0.16192,0.341065 -0.20499,0.582222 -0.0327,0.1757 -0.0241,0.425469 0.009,0.24977 0.0724,0.494372 0.0637,0.242879 0.1912,0.43925 0.12747,0.194648 0.33417,0.258382 0.24116,0.07579 0.41514,-0.09474 0.1757,-0.172255 0.26527,-0.36518 0.0913,-0.198094 0.12402,-0.52021 0.0345,-0.322117 -0.0155,-0.642511 -0.0482,-0.322117 -0.1912,-0.578776 -0.14297,-0.258383 -0.40652,-0.329007 -0.0344,-0.01034 -0.0792,-0.01034 z"
         style="font-size:3.52778px;word-spacing:-0.0423333px;fill:#00ff00"
         id="path1119-1-8" />
      <path
         d="m 134.84665,72.595359 -0.52366,-1.446941 -0.5271,1.446941 z m -0.52366,-1.446941 0.52366,1.446941 z m -1.3298,2.246204 q 0.2756,-0.759644 0.55121,-1.517566 0.27733,-0.759644 0.55466,-1.519288 0.0568,-0.156752 0.22566,-0.158474 0.16881,-0.0017 0.22737,0.158474 l 1.10416,3.045466 q 0.0517,0.24288 -0.14814,0.313504 -0.19982,0.07062 -0.30834,-0.144694 l -0.17742,-0.492649 h -1.40388 l -0.17225,0.480591 q -0.11025,0.217042 -0.31351,0.142972 -0.20326,-0.07579 -0.13952,-0.308336 z"
         style="font-size:3.52778px;word-spacing:-0.0423333px;fill:#00ff00"
         id="path1121-1-1" />
      <path
         d="m 136.23675,70.199294 h 0.81132 q 0.60461,0 0.90606,0.551215 0.30144,0.551216 0.30144,1.212675 0,0.661458 -0.30316,1.212674 -0.30145,0.551216 -0.90434,0.551216 h -0.81132 0.003 -0.003 q -0.0568,-0.0086 -0.062,-0.01034 -0.17915,-0.04306 -0.17743,-0.234266 h -0.002 l 0.002,-3.042022 q -0.002,-0.0052 -0.002,-0.01378 0.005,-0.09474 0.0741,-0.160197 0.0706,-0.06718 0.16881,-0.06718 z m 0.81132,3.042021 q 0.003,0 0.007,0 0.003,0 0.009,0 0.003,0 0.005,0 0.003,-0.0017 0.009,-0.0017 0.003,0 0.007,0 0.005,-0.0017 0.0103,-0.0017 0.003,0 0.007,0 0.003,-0.0017 0.009,-0.0017 0.003,0 0.007,0 0.003,-0.0017 0.009,-0.0017 0.007,-0.0034 0.0138,-0.0034 0.003,0 0.007,-0.0017 0.003,-0.0034 0.009,-0.0052 0.003,0 0.007,0 0.005,-0.0017 0.0103,-0.0034 0.003,0 0.007,-0.0017 0.003,-0.0017 0.009,-0.0034 0.0103,-0.0034 0.0155,-0.0069 0.031,-0.01033 0.0172,-0.0069 0.003,0 0.007,-0.0017 0.003,-0.0034 0.009,-0.0052 0.0155,-0.01033 0.0138,-0.0086 0.0172,-0.0086 0.0172,-0.0086 0.003,-0.0017 0.007,-0.0034 0.003,-0.0034 0.009,-0.0069 0.0155,-0.01033 0.0155,-0.01033 0.003,-0.0017 0.007,-0.0034 0.005,-0.0034 0.0103,-0.0069 0.003,-0.0017 0.007,-0.0052 0.003,-0.0034 0.009,-0.0069 0.003,-0.0017 0.007,-0.0034 0.003,-0.0034 0.009,-0.0069 0.003,-0.0034 0.0172,-0.01378 0.0138,-0.01378 0.0138,-0.01378 0.003,-0.0034 0.007,-0.0069 0.003,-0.0034 0.009,-0.0086 0.003,-0.0034 0.007,-0.0069 0.003,-0.0034 0.009,-0.0086 0.005,-0.0034 0.0155,-0.01378 0.003,-0.0034 0.007,-0.0069 0.003,-0.0034 0.009,-0.0086 0.003,-0.0034 0.007,-0.0069 0.003,-0.0052 0.009,-0.01034 0.0207,-0.02756 0.0138,-0.01722 0.0121,-0.01206 0.0155,-0.01895 0.0155,-0.02067 0.0138,-0.01895 0.003,-0.0052 0.007,-0.0086 0.003,-0.0052 0.009,-0.01034 0.003,-0.0052 0.005,-0.01033 0.003,-0.0052 0.009,-0.01033 0.002,-0.0052 0.005,-0.01034 0.005,-0.0069 0.009,-0.01206 0.0103,-0.01378 0.0138,-0.02067 0.003,-0.0052 0.005,-0.01034 0.003,-0.0069 0.009,-0.01206 0.003,-0.0052 0.005,-0.01033 0.003,-0.0069 0.009,-0.01206 0.003,-0.0086 0.0103,-0.02239 0.003,-0.0052 0.005,-0.01206 0.003,-0.0069 0.009,-0.01378 0.003,-0.0052 0.005,-0.01034 0.003,-0.0069 0.009,-0.01378 0.002,-0.0052 0.003,-0.01206 0.003,-0.0069 0.007,-0.01378 0.005,-0.0086 0.0121,-0.02584 0.0172,-0.04306 0.0121,-0.02756 0.002,-0.0052 0.003,-0.01206 0.003,-0.0086 0.007,-0.0155 0.002,-0.0069 0.003,-0.01378 0.003,-0.0069 0.007,-0.0155 0.005,-0.0155 0.009,-0.02756 0.002,-0.0069 0.003,-0.01378 0.003,-0.0069 0.007,-0.0155 -0.007,0.01723 0.009,-0.02928 0.003,-0.0086 0.0103,-0.02928 0,-0.0069 0.002,-0.01378 0.003,-0.0086 0.005,-0.01722 0.002,-0.0069 0.003,-0.01378 0.002,-0.0086 0.005,-0.01722 0,-0.0052 0.002,-0.01206 0.003,-0.0086 0.005,-0.01723 0.002,-0.01206 0.005,-0.03273 0,-0.0069 0.002,-0.01378 0.003,-0.0086 0.005,-0.01723 0,-0.0069 0.002,-0.01378 0.002,-0.0086 0.003,-0.01723 0.002,-0.01206 0.005,-0.03273 0,-0.0069 0.002,-0.0155 0.003,-0.0086 0.005,-0.01722 0,-0.01206 0.003,-0.03273 0,-0.0069 0,-0.01378 0.002,-0.0086 0.003,-0.01895 0.003,-0.02067 0.003,-0.03273 0.002,-0.01206 0.002,-0.03273 0.002,-0.01206 0.002,-0.03445 0.002,-0.01206 0.002,-0.03273 0,-0.0086 0,-0.0155 0.002,-0.0086 0.003,-0.01895 0,-0.0069 0,-0.01378 0.002,-0.0086 0.002,-0.01895 0,-0.0069 0,-0.0155 0,-0.0086 0,-0.01722 0,-0.0086 0,-0.0155 0,-0.0086 0,-0.01723 0,-0.0086 -0.002,-0.0155 0,-0.0086 0,-0.01895 0,-0.0069 0,-0.0155 0,-0.0086 0,-0.01722 0,-0.01033 -0.003,-0.03445 0,-0.02067 -0.002,-0.03101 0,-0.01206 -0.003,-0.03617 0,-0.02067 -0.002,-0.03101 0,-0.01206 -0.003,-0.03273 -0.002,-0.0069 -0.003,-0.0155 0,-0.0086 0,-0.01722 -0.003,-0.02067 -0.007,-0.03273 -0.002,-0.0069 -0.003,-0.01378 -0.002,-0.0086 -0.002,-0.01723 -0.002,-0.01206 -0.005,-0.03273 -0.002,-0.01206 -0.005,-0.03273 -0.007,-0.02067 -0.009,-0.03101 -0.003,-0.02067 -0.005,-0.02928 -0.003,-0.0069 -0.005,-0.01378 -0.002,-0.0086 -0.003,-0.01723 -0.002,-0.0069 -0.005,-0.01378 -0.003,-0.0086 -0.003,-0.01722 -0.0155,-0.04651 -0.009,-0.02928 -0.003,-0.01206 -0.009,-0.02928 -0.003,-0.0052 -0.007,-0.01206 -0.002,-0.0086 -0.003,-0.0155 -0.002,-0.0052 -0.0103,-0.02928 -0.007,-0.01723 -0.0103,-0.02756 -0.003,-0.0052 -0.007,-0.01206 -0.002,-0.0086 -0.003,-0.0155 -0.003,-0.0052 -0.007,-0.01206 -0.003,-0.0069 -0.005,-0.01378 -0.007,-0.01723 -0.0121,-0.02584 -0.007,-0.01723 -0.0103,-0.02412 -0.007,-0.01722 -0.012,-0.02584 -0.003,-0.0052 -0.007,-0.01033 -0.003,-0.0069 -0.005,-0.01206 -0.0103,-0.01723 -0.0138,-0.02412 -0.0155,-0.02412 -0.0138,-0.02239 -0.005,-0.0052 -0.009,-0.01033 -0.002,-0.0069 -0.005,-0.01206 -0.003,-0.0069 -0.0138,-0.02067 -0.003,-0.0052 -0.007,-0.01033 -0.003,-0.0052 -0.005,-0.01033 -0.009,-0.0155 -0.0293,-0.03962 -0.003,-0.0034 -0.0276,-0.0379 -0.0207,-0.02412 -0.031,-0.03445 -0.0103,-0.01206 -0.031,-0.03273 -0.0138,-0.0155 -0.0293,-0.02928 -0.0121,-0.0086 -0.0327,-0.02584 -0.0172,-0.01378 -0.0327,-0.02584 -0.0396,-0.02584 -0.0327,-0.02239 -0.0344,-0.02067 -0.031,-0.01895 0,0 -0.031,-0.0155 -0.007,-0.0034 -0.0327,-0.01206 -0.0224,-0.0086 -0.0327,-0.01206 -0.009,-0.0017 -0.0155,-0.0034 -0.007,-0.0034 -0.0138,-0.0069 -0.031,-0.0052 -0.031,-0.0052 -0.0103,-0.0017 -0.031,-0.0017 -0.005,0 -0.009,0 -0.003,0 -0.007,0 h -0.56844 v 2.556263 0 z"
         style="font-size:3.52778px;word-spacing:-0.0423333px;fill:#00ff00"
         id="path1123-1-3" />
    </g>
    <g
       id="g5430-0-7"
       style="fill:#00ff00"
       transform="matrix(1,0,0,0.8620416,9.389822,27.507919)">
      <path
         id="rect1292-2-3-7-5-67-0"
         style="fill:#00ff00;stroke:none;stroke-width:0.116677"
         transform="scale(-1)"
         d="m -81.439949,-51.548912 h 9.525 v 1.143 h -9.525 z" />
      <path
         id="rect1292-2-3-9-2-6-2"
         style="fill:#00ff00;stroke:none;stroke-width:0.162475"
         transform="rotate(-55)"
         d="M -16.101168,91.905792 H 2.9488316 v 1.108216 H -16.101168 Z" />
    </g>
    <g
       id="g5442-2-5"
       style="fill:#00ff00"
       transform="matrix(1,0,0,0.8620416,9.389822,27.507919)">
      <path
         id="rect1292-2-3-7-5-6-2-6"
         style="fill:#00ff00;stroke:none;stroke-width:0.116677"
         transform="scale(1,-1)"
         d="m 107.85362,-51.548912 h 9.525 v 1.143 h -9.525 z" />
      <path
         id="rect1292-2-3-9-2-58-5-6"
         style="fill:#00ff00;stroke:none;stroke-width:0.162475"
         transform="matrix(-0.57357644,-0.81915204,-0.81915204,0.57357644,0,0)"
         d="m -124.76048,-63.275826 h 19.05 v 1.108216 h -19.05 z" />
    </g>
    <g
       id="g5434-8-3"
       style="fill:#00ff00"
       transform="matrix(1,0,0,0.8620416,9.389822,27.507919)">
      <path
         id="rect1292-2-3-9-2-4-3-6"
         style="fill:#00ff00;stroke:none;stroke-width:0.145322"
         transform="rotate(-70)"
         d="m -32.882755,100.8448 h 15.239999 v 1.10822 h -15.239999 z" />
      <path
         id="rect1292-2-3-7-5-6-1-7-5"
         style="fill:#00ff00;stroke:none;stroke-width:0.0952667"
         transform="scale(1,-1)"
         d="m 86.011177,-51.548912 h 6.35 v 1.143 h -6.35 z" />
    </g>
    <g
       id="g5438-1-6"
       style="fill:#00ff00"
       transform="matrix(1,0,0,0.8620416,9.389822,27.507919)">
      <path
         id="rect1292-2-3-7-5-6-1-3-2-2"
         style="fill:#00ff00;stroke:none;stroke-width:0.0952667"
         transform="scale(1,-1)"
         d="m 96.932396,-51.548912 h 6.350004 v 1.143 h -6.350004 z" />
      <path
         id="rect1292-2-3-9-2-4-0-9-6"
         style="fill:#00ff00;stroke:none;stroke-width:0.145322"
         transform="matrix(-0.34202014,-0.93969262,-0.93969262,0.34202014,0,0)"
         d="m -97.687202,-77.203979 h 15.239999 v 1.108215 h -15.239999 z" />
    </g>
    <path
       id="path1589-5-8-3-87-7"
       style="fill:#ff0000;stroke:none;stroke-width:0.177252"
       d="m 163.99609,58.739524 a 3,3 0 0 1 -2.9146,2.99878 3,3 0 0 1 -3.08053,-2.82805 3,3 0 0 1 2.73921,-3.1598 3,3 0 0 1 3.23649,2.64816" />
    <path
       id="path1589-5-8-7-3-8"
       style="fill:#ff0000;stroke:none;stroke-width:0.177252"
       d="m 48.902322,58.739524 a 3,3 0 0 1 -2.9146,2.99878 3,3 0 0 1 -3.08054,-2.82805 3,3 0 0 1 2.73921,-3.1598 3,3 0 0 1 3.23649,2.64816" />
    <g
       aria-label="read "
       id="text1172-7-4-9-8-5-93-5-8-7"
       style="font-size:3.52778px;line-height:1.25;font-family:'MS 33558';-inkscape-font-specification:'MS 33558, ';fill:#00ff00;stroke-width:0.264583"
       transform="translate(13.578162,22.685361)">
      <path
         d="m 144.23547,29.167802 q 0.11024,0.194648 -0.062,0.327285 -0.0827,0.05857 -0.1912,0.03962 -0.1068,-0.01895 -0.15676,-0.106798 l -0.84921,-1.341865 h -0.43064 v 1.212674 q 0,0.149862 -0.13608,0.217041 -0.13608,0.06546 -0.25494,-0.02584 -0.0947,-0.07062 -0.0947,-0.191203 v -3.043744 q 0,-0.09991 0.0689,-0.170532 0.0706,-0.07062 0.17226,-0.07062 h 1.0697 q 0.38585,0 0.67007,0.246325 0.28422,0.244602 0.35312,0.62184 0.0724,0.404799 -0.17225,0.757922 -0.24288,0.351399 -0.64596,0.427192 l -0.0327,0.0052 z m -0.86472,-1.565797 q 0.1757,0 0.32384,-0.106798 0.14986,-0.106798 0.20154,-0.279052 0.081,-0.265273 -0.0741,-0.478869 -0.15503,-0.215319 -0.42719,-0.237712 h -0.84922 v 1.102431 z"
         style="font-size:3.52778px;word-spacing:-0.0423333px;fill:#00ff00"
         id="path1156-6-2" />
      <path
         d="m 146.77967,26.494407 h -1.42799 v 0.942234 h 1.08865 q 0.2446,0.03617 0.24288,0.246324 0,0.208429 -0.24288,0.24288 h -1.08865 v 1.131714 h 1.42799 q 0.24288,0.03617 0.24288,0.24288 0,0.206705 -0.24288,0.241156 h -1.66742 q -0.21532,-0.02756 -0.2446,-0.244601 v -3.042022 q 0.0327,-0.227376 0.2446,-0.241157 h 1.66742 q 0.24288,0.01895 0.24116,0.24288 0,0.222209 -0.24116,0.237712 z"
         style="font-size:3.52778px;word-spacing:-0.0423333px;fill:#00ff00"
         id="path1158-7-5" />
      <path
         d="m 149.36694,28.409881 -0.52365,-1.446941 -0.5271,1.446941 z m -0.52365,-1.446941 0.52365,1.446941 z m -1.32981,2.246204 q 0.27561,-0.759645 0.55122,-1.517566 0.27733,-0.759644 0.55466,-1.519288 0.0568,-0.156752 0.22565,-0.158475 0.16881,-0.0017 0.22738,0.158475 l 1.10415,3.045466 q 0.0517,0.24288 -0.14814,0.313504 -0.19981,0.07062 -0.30833,-0.144694 l -0.17743,-0.492649 h -1.40387 l -0.17226,0.480591 q -0.11024,0.217041 -0.3135,0.142972 -0.20326,-0.07579 -0.13953,-0.308336 z"
         style="font-size:3.52778px;word-spacing:-0.0423333px;fill:#00ff00"
         id="path1160-2-9" />
      <path
         d="m 150.75704,26.013815 h 0.81132 q 0.60461,0 0.90606,0.551216 0.30145,0.551216 0.30145,1.212674 0,0.661459 -0.30317,1.212675 -0.30145,0.551215 -0.90434,0.551215 h -0.81132 0.003 -0.003 q -0.0568,-0.0086 -0.062,-0.01034 -0.17915,-0.04306 -0.17742,-0.234266 h -0.002 l 0.002,-3.042022 q -0.002,-0.0052 -0.002,-0.01378 0.005,-0.09474 0.0741,-0.160197 0.0706,-0.06718 0.16881,-0.06718 z m 0.81132,3.042022 q 0.003,0 0.007,0 0.003,0 0.009,0 0.003,0 0.005,0 0.003,-0.0017 0.009,-0.0017 0.003,0 0.007,0 0.005,-0.0017 0.0103,-0.0017 0.003,0 0.007,0 0.003,-0.0017 0.009,-0.0017 0.003,0 0.007,0 0.003,-0.0017 0.009,-0.0017 0.007,-0.0034 0.0138,-0.0034 0.003,0 0.007,-0.0017 0.003,-0.0034 0.009,-0.0052 0.003,0 0.007,0 0.005,-0.0017 0.0103,-0.0034 0.003,0 0.007,-0.0017 0.003,-0.0017 0.009,-0.0034 0.0103,-0.0034 0.0155,-0.0069 0.031,-0.01034 0.0172,-0.0069 0.003,0 0.007,-0.0017 0.003,-0.0034 0.009,-0.0052 0.0155,-0.01034 0.0138,-0.0086 0.0172,-0.0086 0.0172,-0.0086 0.003,-0.0017 0.007,-0.0034 0.003,-0.0034 0.009,-0.0069 0.0155,-0.01034 0.0155,-0.01034 0.003,-0.0017 0.007,-0.0034 0.005,-0.0034 0.0103,-0.0069 0.003,-0.0017 0.007,-0.0052 0.003,-0.0034 0.009,-0.0069 0.003,-0.0017 0.007,-0.0034 0.003,-0.0034 0.009,-0.0069 0.003,-0.0034 0.0172,-0.01378 0.0138,-0.01378 0.0138,-0.01378 0.003,-0.0034 0.007,-0.0069 0.003,-0.0034 0.009,-0.0086 0.003,-0.0034 0.007,-0.0069 0.003,-0.0034 0.009,-0.0086 0.005,-0.0034 0.0155,-0.01378 0.003,-0.0034 0.007,-0.0069 0.003,-0.0034 0.009,-0.0086 0.003,-0.0034 0.007,-0.0069 0.003,-0.0052 0.009,-0.01033 0.0207,-0.02756 0.0138,-0.01723 0.0121,-0.01206 0.0155,-0.01895 0.0155,-0.02067 0.0138,-0.01895 0.003,-0.0052 0.007,-0.0086 0.003,-0.0052 0.009,-0.01034 0.003,-0.0052 0.005,-0.01033 0.003,-0.0052 0.009,-0.01034 0.002,-0.0052 0.005,-0.01034 0.005,-0.0069 0.009,-0.01206 0.0103,-0.01378 0.0138,-0.02067 0.003,-0.0052 0.005,-0.01034 0.003,-0.0069 0.009,-0.01206 0.003,-0.0052 0.005,-0.01034 0.003,-0.0069 0.009,-0.01206 0.003,-0.0086 0.0103,-0.02239 0.003,-0.0052 0.005,-0.01206 0.003,-0.0069 0.009,-0.01378 0.003,-0.0052 0.005,-0.01034 0.003,-0.0069 0.009,-0.01378 0.002,-0.0052 0.003,-0.01206 0.003,-0.0069 0.007,-0.01378 0.005,-0.0086 0.0121,-0.02584 0.0172,-0.04306 0.0121,-0.02756 0.002,-0.0052 0.003,-0.01206 0.003,-0.0086 0.007,-0.0155 0.002,-0.0069 0.003,-0.01378 0.003,-0.0069 0.007,-0.0155 0.005,-0.0155 0.009,-0.02756 0.002,-0.0069 0.003,-0.01378 0.003,-0.0069 0.007,-0.0155 -0.007,0.01723 0.009,-0.02928 0.003,-0.0086 0.0103,-0.02928 0,-0.0069 0.002,-0.01378 0.003,-0.0086 0.005,-0.01722 0.002,-0.0069 0.003,-0.01378 0.002,-0.0086 0.005,-0.01722 0,-0.0052 0.002,-0.01206 0.003,-0.0086 0.005,-0.01723 0.002,-0.01206 0.005,-0.03273 0,-0.0069 0.002,-0.01378 0.003,-0.0086 0.005,-0.01723 0,-0.0069 0.002,-0.01378 0.002,-0.0086 0.003,-0.01723 0.002,-0.01206 0.005,-0.03273 0,-0.0069 0.002,-0.0155 0.003,-0.0086 0.005,-0.01723 0,-0.01206 0.003,-0.03273 0,-0.0069 0,-0.01378 0.002,-0.0086 0.003,-0.01895 0.003,-0.02067 0.003,-0.03273 0.002,-0.01206 0.002,-0.03273 0.002,-0.01206 0.002,-0.03445 0.002,-0.01206 0.002,-0.03273 0,-0.0086 0,-0.0155 0.002,-0.0086 0.003,-0.01895 0,-0.0069 0,-0.01378 0.002,-0.0086 0.002,-0.01895 0,-0.0069 0,-0.0155 0,-0.0086 0,-0.01723 0,-0.0086 0,-0.0155 0,-0.0086 0,-0.01722 0,-0.0086 -0.002,-0.0155 0,-0.0086 0,-0.01895 0,-0.0069 0,-0.0155 0,-0.0086 0,-0.01722 0,-0.01034 -0.003,-0.03445 0,-0.02067 -0.002,-0.03101 0,-0.01206 -0.003,-0.03617 0,-0.02067 -0.002,-0.03101 0,-0.01206 -0.003,-0.03273 -0.002,-0.0069 -0.003,-0.0155 0,-0.0086 0,-0.01723 -0.003,-0.02067 -0.007,-0.03273 -0.002,-0.0069 -0.003,-0.01378 -0.002,-0.0086 -0.002,-0.01723 -0.002,-0.01206 -0.005,-0.03273 -0.002,-0.01206 -0.005,-0.03273 -0.007,-0.02067 -0.009,-0.03101 -0.003,-0.02067 -0.005,-0.02928 -0.003,-0.0069 -0.005,-0.01378 -0.002,-0.0086 -0.003,-0.01723 -0.002,-0.0069 -0.005,-0.01378 -0.003,-0.0086 -0.003,-0.01723 -0.0155,-0.04651 -0.009,-0.02928 -0.003,-0.01206 -0.009,-0.02928 -0.003,-0.0052 -0.007,-0.01206 -0.002,-0.0086 -0.003,-0.0155 -0.002,-0.0052 -0.0103,-0.02928 -0.007,-0.01723 -0.0103,-0.02756 -0.003,-0.0052 -0.007,-0.01206 -0.002,-0.0086 -0.003,-0.0155 -0.003,-0.0052 -0.007,-0.01206 -0.003,-0.0069 -0.005,-0.01378 -0.007,-0.01723 -0.0121,-0.02584 -0.007,-0.01723 -0.0103,-0.02412 -0.007,-0.01723 -0.0121,-0.02584 -0.003,-0.0052 -0.007,-0.01034 -0.003,-0.0069 -0.005,-0.01206 -0.0103,-0.01722 -0.0138,-0.02411 -0.0155,-0.02412 -0.0138,-0.02239 -0.005,-0.0052 -0.009,-0.01034 -0.002,-0.0069 -0.005,-0.01206 -0.003,-0.0069 -0.0138,-0.02067 -0.003,-0.0052 -0.007,-0.01033 -0.003,-0.0052 -0.005,-0.01034 -0.009,-0.0155 -0.0293,-0.03962 -0.003,-0.0034 -0.0276,-0.0379 -0.0207,-0.02412 -0.031,-0.03445 -0.0103,-0.01206 -0.031,-0.03273 -0.0138,-0.0155 -0.0293,-0.02928 -0.0121,-0.0086 -0.0327,-0.02584 -0.0172,-0.01378 -0.0327,-0.02584 -0.0396,-0.02584 -0.0327,-0.02239 -0.0344,-0.02067 -0.031,-0.01895 0,0 -0.031,-0.0155 -0.007,-0.0034 -0.0327,-0.01206 -0.0224,-0.0086 -0.0327,-0.01206 -0.009,-0.0017 -0.0155,-0.0034 -0.007,-0.0034 -0.0138,-0.0069 -0.031,-0.0052 -0.031,-0.0052 -0.0103,-0.0017 -0.031,-0.0017 -0.005,0 -0.009,0 -0.003,0 -0.007,0 h -0.56844 v 2.556263 0 z"
         style="font-size:3.52778px;word-spacing:-0.0423333px;fill:#00ff00"
         id="path1162-3-6" />
    </g>
    <g
       aria-label="sql "
       id="text1172-7-4-9-8-5-93-2-4-0"
       style="font-size:3.52778px;line-height:1.25;font-family:'MS 33558';-inkscape-font-specification:'MS 33558, ';fill:#00ff00;stroke-width:0.264583"
       transform="translate(-10.473068,22.685373)">
      <path
         d="m 54.033101,27.475678 0.02756,0.01206 0.03101,0.0155 0.02756,0.0155 q 0.01206,0.0086 0.02584,0.01722 0.0155,0.0069 0.02928,0.0155 0.341065,0.223931 0.422024,0.620118 0.03101,0.155029 0.01378,0.318671 -0.02756,0.234267 -0.165365,0.434083 -0.136081,0.198093 -0.342787,0.306613 -0.222209,0.117134 -0.459921,0.117134 -0.399631,0 -0.763089,-0.101631 -0.363458,-0.103353 -0.518487,-0.549493 -0.02067,-0.05684 -0.03101,-0.117133 -0.01034,-0.06029 -0.02412,-0.120579 -0.02584,-0.124023 0.06029,-0.218763 0.08785,-0.09474 0.217041,-0.07235 0.136081,0.02756 0.18948,0.168809 l 0.0052,0.0155 q 0.08268,0.373793 0.287665,0.44614 0.206706,0.07235 0.573609,0.06546 0.33762,0 0.463366,-0.316949 0.05512,-0.141249 0.01722,-0.292833 -0.0379,-0.153307 -0.149861,-0.254937 -0.04995,-0.04306 -0.130914,-0.08096 l -0.79754,-0.349677 -0.02584,-0.01378 q -0.391018,-0.206706 -0.485758,-0.587389 -0.115411,-0.440972 0.160197,-0.79065 0.27733,-0.3514 0.726915,-0.3514 l 0.189481,0.0052 q 0.09302,0.01722 0.179145,0.03445 0.08613,0.0155 0.173977,0.05512 0.217041,0.101631 0.332452,0.279053 0.115411,0.177423 0.208429,0.384129 0.0086,0.01895 0.0155,0.04479 0.01895,0.08441 -0.01723,0.153307 -0.02067,0.04306 -0.04306,0.06546 -0.02239,0.02239 -0.03617,0.03101 -0.08957,0.06373 -0.196371,0.0379 -0.106798,-0.02412 -0.163642,-0.137804 -0.04479,-0.09991 -0.09646,-0.203261 -0.04995,-0.105076 -0.141249,-0.173978 -0.0379,-0.02756 -0.07407,-0.03962 -0.03445,-0.01378 -0.07751,-0.02928 l -0.111966,-0.01895 -0.158474,-0.0052 q -0.230822,0.0034 -0.353123,0.199816 -0.08268,0.125746 -0.06201,0.280775 0.02412,0.191203 0.179145,0.296278 0.0069,0.0052 0.0155,0.01206 0.0086,0.0052 0.01895,0.01034 l 0.01895,0.0086 0.02067,0.0086 z"
         style="font-size:3.52778px;word-spacing:-0.0423333px;fill:#00ff00"
         id="path1165-3-3" />
      <path
         d="m 57.455806,27.668603 q -0.01378,0.61495 -0.306614,1.124825 l 0.516764,0.525377 q 0.08268,0.08096 0.0689,0.194648 -0.01206,0.113688 -0.10852,0.179145 -0.167087,0.110243 -0.306614,-0.03273 l -0.494371,-0.497817 q -0.0069,0.0052 -0.01378,0.01034 -0.0052,0.0034 -0.01033,0.0069 -0.09819,0.07579 -0.208428,0.117133 -0.172255,0.06373 -0.342788,0.05512 -0.02756,0 -0.06029,-0.0052 -0.377238,-0.05168 -0.620117,-0.292833 -0.24288,-0.24288 -0.373794,-0.587389 -0.118855,-0.303169 -0.146416,-0.692465 -0.02756,-0.391019 0.0534,-0.763089 0.08268,-0.373793 0.28422,-0.680407 0.203261,-0.306614 0.549493,-0.44614 0.341065,-0.136082 0.652846,0.02584 0.313504,0.16192 0.502985,0.449585 0.18948,0.291111 0.279053,0.628731 0.08957,0.335897 0.08441,0.680406 z m -1.112767,1.002524 q -0.02067,-0.02067 -0.03101,-0.0379 -0.08613,-0.129191 -0.0069,-0.260105 0.04134,-0.06718 0.103353,-0.09646 0.156752,-0.07235 0.280775,0.04823 l 0.103353,0.106798 q 0.124024,-0.273886 0.148139,-0.575332 0.02412,-0.303168 -0.01895,-0.597724 -0.03962,-0.25666 -0.172255,-0.547771 -0.132636,-0.292833 -0.409966,-0.37896 -0.206706,-0.06201 -0.377238,0.09129 -0.16881,0.153306 -0.24977,0.316949 -0.199816,0.396186 -0.187758,0.902615 0.01206,0.504707 0.237712,0.887113 0.103353,0.179145 0.280775,0.289388 0.179146,0.110243 0.391019,0.01206 0.01723,-0.01033 0.04134,-0.02239 z"
         style="font-size:3.52778px;word-spacing:-0.0423333px;fill:#00ff00"
         id="path1167-4-0" />
      <path
         d="m 58.379092,29.354979 q -0.211874,-0.01378 -0.244602,-0.239435 v -3.045466 q 0.03617,-0.248047 0.251492,-0.242879 0.215319,0.0034 0.234267,0.242879 v 2.80431 l 1.589912,-0.0017 q 0.244602,0.02756 0.241157,0.248047 -0.0017,0.218764 -0.242879,0.234267 z"
         style="font-size:3.52778px;word-spacing:-0.0423333px;fill:#00ff00"
         id="path1169-8-6" />
    </g>
    <g
       aria-label="off "
       id="text1172-7-4-9-8-5-9-1-5-4-0"
       style="font-size:3.52778px;line-height:1.25;font-family:'MS 33558';-inkscape-font-specification:'MS 33558, ';fill:#00ff00;stroke-width:0.264583"
       transform="translate(-10.477348,22.156195)">
      <path
         d="m 54.84142,44.227829 q 0.158475,0.477146 0.118856,0.990466 -0.0379,0.513319 -0.280775,0.937066 -0.153307,0.26355 -0.41858,0.447863 -0.265272,0.184313 -0.585666,0.129191 -0.521933,-0.0913 -0.799263,-0.544325 -0.27733,-0.453031 -0.318672,-1.007691 -0.03962,-0.556384 0.149862,-1.083484 0.191203,-0.5271 0.60806,-0.766534 0.203261,-0.117133 0.42547,-0.117133 0.423747,0 0.692464,0.320394 0.268718,0.318671 0.408244,0.694187 z m -1.086928,-0.525377 q -0.316949,0 -0.480591,0.341064 -0.16192,0.341065 -0.204983,0.582222 -0.03273,0.1757 -0.02412,0.425469 0.0086,0.24977 0.07235,0.494372 0.06373,0.242879 0.191203,0.43925 0.127468,0.194648 0.334174,0.258382 0.241157,0.07579 0.415135,-0.09474 0.1757,-0.172255 0.265272,-0.36518 0.0913,-0.198093 0.124024,-0.52021 0.03445,-0.322117 -0.0155,-0.642511 -0.04823,-0.322116 -0.191203,-0.578776 -0.142972,-0.258383 -0.406522,-0.329007 -0.03445,-0.01033 -0.07924,-0.01033 z"
         style="font-size:3.52778px;word-spacing:-0.0423333px;fill:#00ff00"
         id="path1172-4-9" />
      <path
         d="M 55.423642,46.496426 V 43.45785 q 0.03101,-0.227377 0.244602,-0.244602 h 1.667427 q 0.239434,0.01895 0.239434,0.244602 0,0.223931 -0.242879,0.239434 h -1.424548 v 0.942234 h 1.111044 q 0.237712,0.01723 0.241157,0.232544 0.0034,0.215319 -0.241157,0.251492 h -1.111044 v 1.372872 q -0.01723,0.237712 -0.234267,0.241157 -0.215318,0.0034 -0.249769,-0.241157 z"
         style="font-size:3.52778px;word-spacing:-0.0423333px;fill:#00ff00"
         id="path1174-6-6" />
      <path
         d="M 58.057419,46.496426 V 43.45785 q 0.03101,-0.227377 0.244602,-0.244602 h 1.667427 q 0.239434,0.01895 0.239434,0.244602 0,0.223931 -0.242879,0.239434 h -1.424548 v 0.942234 h 1.111044 q 0.237712,0.01723 0.241157,0.232544 0.0034,0.215319 -0.241157,0.251492 h -1.111044 v 1.372872 q -0.01722,0.237712 -0.234267,0.241157 -0.215318,0.0034 -0.249769,-0.241157 z"
         style="font-size:3.52778px;word-spacing:-0.0423333px;fill:#00ff00"
         id="path1176-1-4" />
    </g>
    <g
       aria-label="vol "
       id="text1172-7-4-9-8-5-9-1-8-4-0"
       style="font-size:3.52778px;line-height:1.25;font-family:'MS 33558';-inkscape-font-specification:'MS 33558, ';fill:#00ff00;stroke-width:0.264583"
       transform="translate(5.401932,22.156194)">
      <path
         d="m 43.493119,51.47631 q -0.03273,-0.244602 0.173977,-0.299724 0.208429,-0.05512 0.296279,0.173977 l 0.580499,2.149741 0.583944,-2.170411 q 0.08785,-0.232544 0.303168,-0.16881 0.215319,0.06201 0.165365,0.294556 l -0.819933,3.043744 q -0.0689,0.177422 -0.230822,0.179145 -0.16192,0 -0.235989,-0.172255 z"
         style="font-size:3.52778px;word-spacing:-0.0423333px;fill:#00ff00"
         id="path1179-5-6" />
      <path
         d="m 48.371377,52.165329 q 0.158475,0.477146 0.118856,0.990466 -0.0379,0.513319 -0.280775,0.937066 -0.153307,0.26355 -0.41858,0.447863 -0.265272,0.184313 -0.585666,0.129191 -0.521933,-0.0913 -0.799263,-0.544325 -0.277331,-0.453031 -0.318672,-1.007691 -0.03962,-0.556384 0.149862,-1.083484 0.191203,-0.5271 0.60806,-0.766534 0.203261,-0.117133 0.425469,-0.117133 0.423747,0 0.692465,0.320394 0.268718,0.318671 0.408244,0.694187 z m -1.086928,-0.525377 q -0.316949,0 -0.480591,0.341064 -0.16192,0.341065 -0.204984,0.582222 -0.03273,0.1757 -0.02412,0.425469 0.0086,0.24977 0.07235,0.494372 0.06373,0.242879 0.191203,0.43925 0.127468,0.194648 0.334174,0.258382 0.241157,0.07579 0.415134,-0.09474 0.1757,-0.172255 0.265273,-0.36518 0.09129,-0.198093 0.124023,-0.52021 0.03445,-0.322117 -0.0155,-0.642511 -0.04823,-0.322116 -0.191202,-0.578776 -0.142972,-0.258383 -0.406522,-0.329007 -0.03445,-0.01033 -0.07924,-0.01033 z"
         style="font-size:3.52778px;word-spacing:-0.0423333px;fill:#00ff00"
         id="path1181-8-6" />
      <path
         d="M 49.1982,54.68025 Q 48.986327,54.66647 48.953598,54.440816 V 51.39535 q 0.03617,-0.248047 0.251493,-0.24288 0.215318,0.0034 0.234266,0.24288 v 2.804309 l 1.589913,-0.0017 q 0.244602,0.02756 0.241157,0.248047 -0.0017,0.218763 -0.24288,0.234266 z"
         style="font-size:3.52778px;word-spacing:-0.0423333px;fill:#00ff00"
         id="path1183-3-1" />
    </g>
    <g
       aria-label="brt "
       id="text1172-7-4-9-8-5-9-1-8-6-28-6"
       style="font-size:3.52778px;line-height:1.25;font-family:'MS 33558';-inkscape-font-specification:'MS 33558, ';fill:#00ff00;stroke-width:0.264583"
       transform="translate(2.778742,22.154114)">
      <path
         d="m 149.84356,51.15243 q 0.32728,0.02756 0.54949,0.198093 0.22393,0.170533 0.31006,0.411689 0.0861,0.239435 0.0224,0.511597 -0.062,0.270441 -0.30317,0.497817 0.26527,0.279053 0.33073,0.602892 0.0655,0.323839 -0.0413,0.606337 -0.10507,0.280776 -0.3669,0.477146 -0.26183,0.196371 -0.6494,0.222209 h -0.005 -0.9164 q -0.21187,-0.02928 -0.2446,-0.239434 v -3.043744 q 0.0293,-0.213596 0.2446,-0.244602 z m -0.15331,3.040299 q 0.29283,-0.01206 0.44614,-0.189481 0.15331,-0.177422 0.15847,-0.392741 0.007,-0.217041 -0.1378,-0.406521 -0.14469,-0.189481 -0.44614,-0.229099 h -0.69419 v 1.217842 z m 0.15331,-2.551095 h -0.82683 v 0.849217 h 0.83199 q 0.2136,-0.02239 0.31695,-0.153307 0.10508,-0.132637 0.10163,-0.282498 -0.002,-0.151585 -0.10852,-0.275608 -0.1068,-0.125746 -0.31522,-0.137804 z"
         style="font-size:3.52778px;word-spacing:-0.0423333px;fill:#00ff00"
         id="path1186-2-9" />
      <path
         d="m 153.40406,54.306417 q 0.11025,0.194648 -0.062,0.327284 -0.0827,0.05857 -0.1912,0.03962 -0.1068,-0.01895 -0.15675,-0.106798 l -0.84922,-1.341866 h -0.43064 v 1.212675 q 0,0.149861 -0.13608,0.217041 -0.13608,0.06546 -0.25493,-0.02584 -0.0947,-0.07062 -0.0947,-0.191203 v -3.043744 q 0,-0.09991 0.0689,-0.170532 0.0706,-0.07062 0.17225,-0.07062 h 1.0697 q 0.38586,0 0.67008,0.246325 0.28422,0.244601 0.35312,0.62184 0.0724,0.404799 -0.17226,0.757921 -0.24288,0.3514 -0.64595,0.427192 l -0.0327,0.0052 z m -0.86472,-1.565797 q 0.1757,0 0.32384,-0.106798 0.14987,-0.106798 0.20154,-0.279053 0.081,-0.265272 -0.0741,-0.478868 -0.15503,-0.215319 -0.42719,-0.237712 h -0.84922 v 1.102431 z"
         style="font-size:3.52778px;word-spacing:-0.0423333px;fill:#00ff00"
         id="path1188-8-0" />
      <path
         d="m 154.90957,54.439053 v -2.800864 h -0.63217 q -0.24116,-0.01895 -0.24116,-0.241157 0.002,-0.223931 0.24116,-0.244602 h 1.74838 q 0.23772,0.01895 0.23772,0.244602 0.002,0.223931 -0.23772,0.241157 h -0.63045 v 2.800864 q -0.0396,0.244602 -0.25494,0.241157 -0.21359,-0.0034 -0.23082,-0.241157 z"
         style="font-size:3.52778px;word-spacing:-0.0423333px;fill:#00ff00"
         id="path1190-4-6" />
    </g>
    <g
       aria-label="test "
       id="text1172-7-4-9-8-5-9-1-8-6-2-2-6"
       style="font-size:3.52778px;line-height:1.25;font-family:'MS 33558';-inkscape-font-specification:'MS 33558, ';fill:#00ff00;stroke-width:0.264583"
       transform="translate(2.510652,24.272862)">
      <path
         d="m 153.91119,74.017831 v -2.800865 h -0.63218 q -0.24115,-0.01895 -0.24115,-0.241157 0.002,-0.223931 0.24115,-0.244602 h 1.74839 q 0.23771,0.01895 0.23771,0.244602 0.002,0.223932 -0.23771,0.241157 h -0.63045 v 2.800865 q -0.0396,0.244602 -0.25494,0.241156 -0.2136,-0.0034 -0.23082,-0.241156 z"
         style="font-size:3.52778px;word-spacing:-0.0423333px;fill:#00ff00"
         id="path1193-9-6" />
      <path
         d="m 157.69218,71.211799 h -1.42799 v 0.942234 h 1.08865 q 0.2446,0.03617 0.24288,0.246324 0,0.208429 -0.24288,0.24288 h -1.08865 v 1.131714 h 1.42799 q 0.24288,0.03617 0.24288,0.24288 0,0.206705 -0.24288,0.241156 h -1.66742 q -0.21532,-0.02756 -0.24461,-0.244602 v -3.042021 q 0.0327,-0.227376 0.24461,-0.241157 h 1.66742 q 0.24288,0.01895 0.24116,0.24288 0,0.222209 -0.24116,0.237712 z"
         style="font-size:3.52778px;word-spacing:-0.0423333px;fill:#00ff00"
         id="path1195-3-2" />
      <path
         d="m 160.14682,72.381409 0.0276,0.01206 0.031,0.0155 0.0276,0.0155 q 0.0121,0.0086 0.0258,0.01722 0.0155,0.0069 0.0293,0.0155 0.34106,0.223932 0.42202,0.620118 0.031,0.155029 0.0138,0.318671 -0.0276,0.234267 -0.16536,0.434083 -0.13609,0.198093 -0.34279,0.306613 -0.22221,0.117134 -0.45992,0.117134 -0.39963,0 -0.76309,-0.101631 -0.36346,-0.103353 -0.51849,-0.549493 -0.0207,-0.05684 -0.031,-0.117133 -0.0103,-0.06029 -0.0241,-0.120578 -0.0258,-0.124024 0.0603,-0.218764 0.0879,-0.09474 0.21704,-0.07235 0.13608,0.02756 0.18948,0.16881 l 0.005,0.0155 q 0.0827,0.373793 0.28766,0.44614 0.20671,0.07235 0.57361,0.06546 0.33762,0 0.46337,-0.316949 0.0551,-0.141249 0.0172,-0.292834 -0.0379,-0.153307 -0.14986,-0.254937 -0.0499,-0.04306 -0.13091,-0.08096 l -0.79754,-0.349677 -0.0258,-0.01378 q -0.39102,-0.206705 -0.48576,-0.587389 -0.11541,-0.440972 0.1602,-0.79065 0.27733,-0.3514 0.72691,-0.3514 l 0.18948,0.0052 q 0.093,0.01723 0.17915,0.03445 0.0861,0.0155 0.17398,0.05512 0.21704,0.10163 0.33245,0.279052 0.11541,0.177423 0.20843,0.384129 0.009,0.01895 0.0155,0.04479 0.0189,0.08441 -0.0172,0.153307 -0.0207,0.04306 -0.0431,0.06546 -0.0224,0.02239 -0.0362,0.03101 -0.0896,0.06373 -0.19637,0.0379 -0.1068,-0.02412 -0.16365,-0.137804 -0.0448,-0.09991 -0.0965,-0.203261 -0.0499,-0.105075 -0.14125,-0.173977 -0.0379,-0.02756 -0.0741,-0.03962 -0.0344,-0.01378 -0.0775,-0.02928 l -0.11197,-0.01895 -0.15847,-0.0052 q -0.23082,0.0034 -0.35312,0.199816 -0.0827,0.125746 -0.062,0.280775 0.0241,0.191203 0.17915,0.296279 0.007,0.0052 0.0155,0.01206 0.009,0.0052 0.019,0.01034 l 0.0189,0.0086 0.0207,0.0086 z"
         style="font-size:3.52778px;word-spacing:-0.0423333px;fill:#00ff00"
         id="path1197-2-2" />
      <path
         d="m 162.02956,74.017831 v -2.800865 h -0.63217 q -0.24116,-0.01895 -0.24116,-0.241157 0.002,-0.223931 0.24116,-0.244602 h 1.74838 q 0.23772,0.01895 0.23772,0.244602 0.002,0.223932 -0.23772,0.241157 h -0.63045 v 2.800865 q -0.0396,0.244602 -0.25494,0.241156 -0.21359,-0.0034 -0.23082,-0.241156 z"
         style="font-size:3.52778px;word-spacing:-0.0423333px;fill:#00ff00"
         id="path1199-2-1" />
    </g>
    <path
       id="path1589-5-8-3-8-6-3"
       style="fill:#ff0000;stroke:none;stroke-width:0.187592"
       d="m 50.929402,111.05619 a 3.175,3.175 0 0 1 -3.08462,3.17371 3.175,3.175 0 0 1 -3.26023,-2.99302 3.175,3.175 0 0 1 2.899,-3.34412 3.175,3.175 0 0 1 3.42528,2.80263" />
    <path
       id="path1589-5-8-3-4-4-9"
       style="fill:#ff0000;stroke:none;stroke-width:0.187592"
       d="m 162.84815,111.05619 a 3.175,3.175 0 0 1 -3.08462,3.17371 3.175,3.175 0 0 1 -3.26023,-2.99302 3.175,3.175 0 0 1 2.899,-3.34412 3.175,3.175 0 0 1 3.42528,2.80263" />
    <path
       id="path8-04-7-1-7"
       style="fill:#ff0000;stroke-width:0.172385"
       d="m 57.607492,85.920773 a 4.8260002,4.8260002 0 0 1 -4.826,4.826 4.8260002,4.8260002 0 0 1 -4.826,-4.826 4.8260002,4.8260002 0 0 1 4.826,-4.826 4.8260002,4.8260002 0 0 1 4.826,4.826 z" />
    <path
       id="path8-04-7-7-8-2"
       style="fill:#ff0000;stroke-width:0.172385"
       d="m 160.00123,85.920773 a 4.8260002,4.8260002 0 0 1 -4.826,4.826 4.8260002,4.8260002 0 0 1 -4.826,-4.826 4.8260002,4.8260002 0 0 1 4.826,-4.826 4.8260002,4.8260002 0 0 1 4.826,4.826 z" />
    <path
       id="path8-2-9-2"
       style="fill:#ff0000;stroke-width:0.1786"
       d="m 66.684521,137.53825 a 5,5 0 0 1 -5,5 5,5 0 0 1 -5,-5 5,5 0 0 1 5,-5 5,5 0 0 1 5,5 z" />
    <path
       id="path8-2-7-7-5"
       style="fill:#ff0000;stroke-width:0.1786"
       d="m 109.85344,138.11903 a 5,5 0 0 1 -5,5 5,5 0 0 1 -5.000001,-5 5,5 0 0 1 5.000001,-5 5,5 0 0 1 5,5 z" />
    <path
       id="path8-2-1-4-3"
       style="fill:#ff0000;stroke-width:0.1786"
       d="m 151.2319,137.53825 a 5,5 0 0 1 -5,5 5,5 0 0 1 -5,-5 5,5 0 0 1 5,-5 5,5 0 0 1 5,5 z" />
    <path
       id="rect1083-0-3-6"
       style="fill:#ff0000;stroke:none;stroke-width:0.194164"
       d="m 56.335064,46.007229 h 88.900006 v 20.32 H 56.335064 Z" />
    <path
       id="path1589-5-8-3-53-0-0-7"
       style="fill:#ff0000;stroke:none;stroke-width:0.187592"
       d="m 62.725262,40.20102 a 3.175,3.175 0 0 1 -3.08461,3.17371 3.175,3.175 0 0 1 -3.26024,-2.99302 3.175,3.175 0 0 1 2.899,-3.34411 3.175,3.175 0 0 1 3.42529,2.80262" />
    <path
       id="path1589-5-8-3-5-9-9-4"
       style="fill:#ff0000;stroke:none;stroke-width:0.187592"
       d="m 151.43089,40.20102 a 3.175,3.175 0 0 1 -3.08462,3.17371 3.175,3.175 0 0 1 -3.26024,-2.99302 3.175,3.175 0 0 1 2.89901,-3.34411 3.175,3.175 0 0 1 3.42528,2.80262" />
  </g>
</svg>
