<?xml version="1.0" encoding="UTF-8" standalone="no"?>
<svg
   xmlns:dc="http://purl.org/dc/elements/1.1/"
   xmlns:cc="http://creativecommons.org/ns#"
   xmlns:rdf="http://www.w3.org/1999/02/22-rdf-syntax-ns#"
   xmlns:svg="http://www.w3.org/2000/svg"
   xmlns="http://www.w3.org/2000/svg"
   xmlns:sodipodi="http://sodipodi.sourceforge.net/DTD/sodipodi-0.dtd"
   xmlns:inkscape="http://www.inkscape.org/namespaces/inkscape"
   width="210mm"
   height="297mm"
   viewBox="0 0 210 297"
   version="1.1"
   id="svg5792"
   inkscape:version="1.0.2 (e86c870879, 2021-01-15, custom)"
   sodipodi:docname="Panel6 (UHF Radio) Final Bezel.svg">
  <defs
     id="defs5786" />
  <sodipodi:namedview
     id="base"
     pagecolor="#ffffff"
     bordercolor="#666666"
     borderopacity="1.0"
     inkscape:pageopacity="0.0"
     inkscape:pageshadow="2"
     inkscape:zoom="0.35"
     inkscape:cx="400"
     inkscape:cy="560"
     inkscape:document-units="mm"
     inkscape:current-layer="layer1"
     inkscape:document-rotation="0"
     showgrid="false"
     inkscape:window-width="2560"
     inkscape:window-height="1361"
     inkscape:window-x="-9"
     inkscape:window-y="-9"
     inkscape:window-maximized="1" />
  <metadata
     id="metadata5789">
    <rdf:RDF>
      <cc:Work
         rdf:about="">
        <dc:format>image/svg+xml</dc:format>
        <dc:type
           rdf:resource="http://purl.org/dc/dcmitype/StillImage" />
        <dc:title />
      </cc:Work>
    </rdf:RDF>
  </metadata>
  <g
     inkscape:label="Layer 1"
     inkscape:groupmode="layer"
     id="layer1">
    <rect
       style="fill:none;stroke:#000000;stroke-width:0.258776;stroke-miterlimit:4;stroke-dasharray:none"
       id="rect1404-9-6-8"
       width="101.32996"
       height="33.741222"
       x="56.680264"
       y="29.242481" />
    <g
       id="g1290-5-6-0-6"
       transform="matrix(0.9999134,0,0,1.0715333,16.75996,-59.888649)"
       style="fill:#00ff00">
      <g
         aria-label="freq / chan "
         id="text1172-73-0-4-3"
         style="font-size:10.5833px;line-height:1.25;font-family:'MS 33558';-inkscape-font-specification:'MS 33558, ';fill:#00ff00;stroke-width:0.264583">
        <path
           d="m 74.157967,91.781475 v -3.646286 q 0.03721,-0.272851 0.293522,-0.293522 h 2.000909 q 0.287321,0.02274 0.287321,0.293522 0,0.268717 -0.291455,0.287321 h -1.709455 v 1.130679 h 1.333251 q 0.285254,0.02067 0.289388,0.279053 0.0041,0.258382 -0.289388,0.30179 h -1.333251 v 1.647443 q -0.02067,0.285254 -0.281119,0.289388 -0.258382,0.0041 -0.299723,-0.289388 z"
           style="word-spacing:-2.64583px;fill:#00ff00"
           id="path1126-8-3-5" />
        <path
           d="m 79.929186,91.626446 q 0.132291,0.233577 -0.07441,0.39274 -0.09922,0.07028 -0.229443,0.04754 -0.128158,-0.02274 -0.188102,-0.128158 l -1.019059,-1.610236 h -0.516764 v 1.455207 q 0,0.179834 -0.163297,0.260449 -0.163298,0.07855 -0.305924,-0.03101 -0.113688,-0.08475 -0.113688,-0.229443 v -3.652487 q 0,-0.119889 0.08268,-0.204639 0.08475,-0.08475 0.206705,-0.08475 h 1.283642 q 0.46302,0 0.804084,0.295589 0.341065,0.293522 0.423747,0.746207 0.08682,0.485758 -0.206706,0.909505 -0.291455,0.421679 -0.775146,0.512629 l -0.03927,0.0062 z m -1.037662,-1.878954 q 0.21084,0 0.388606,-0.128157 0.179834,-0.128157 0.241846,-0.334863 0.09715,-0.318327 -0.08888,-0.574641 -0.186035,-0.258382 -0.512629,-0.285254 h -1.019059 v 1.322915 z"
           style="word-spacing:-2.64583px;fill:#00ff00"
           id="path1128-7-8-1" />
        <path
           d="m 82.982227,88.418376 h -1.713589 v 1.130679 h 1.306379 q 0.293522,0.04341 0.291455,0.295589 0,0.250114 -0.291455,0.291455 h -1.306379 v 1.358055 h 1.713589 q 0.291455,0.04341 0.291455,0.291455 0,0.248047 -0.291455,0.289388 h -2.00091 q -0.258382,-0.03307 -0.293522,-0.293522 v -3.65042 q 0.03927,-0.272851 0.293522,-0.289388 h 2.00091 q 0.291455,0.02274 0.289388,0.291455 0,0.26665 -0.289388,0.285254 z"
           style="word-spacing:-2.64583px;fill:#00ff00"
           id="path1130-9-2-1" />
        <path
           d="m 86.744268,90.053417 q -0.01654,0.737938 -0.367936,1.349787 l 0.620116,0.630452 q 0.09922,0.09715 0.08268,0.233577 -0.01447,0.136426 -0.130225,0.214974 -0.200504,0.132291 -0.367936,-0.03927 l -0.593245,-0.597379 q -0.0083,0.0062 -0.01654,0.0124 -0.0062,0.0041 -0.0124,0.0083 -0.117823,0.09095 -0.250114,0.14056 -0.206706,0.07648 -0.411344,0.06615 -0.03307,0 -0.07235,-0.0062 -0.452685,-0.06201 -0.74414,-0.3514 -0.291455,-0.291455 -0.448551,-0.704866 -0.142627,-0.363801 -0.1757,-0.830956 -0.03307,-0.469222 0.06408,-0.915706 0.09922,-0.448551 0.341064,-0.816487 0.243913,-0.367935 0.659391,-0.535367 0.409277,-0.163297 0.783414,0.03101 0.376204,0.194303 0.60358,0.539501 0.227376,0.349333 0.334863,0.754476 0.107487,0.403076 0.101286,0.816487 z m -1.335318,1.203026 q -0.02481,-0.02481 -0.03721,-0.04548 -0.103353,-0.155029 -0.0083,-0.312126 0.04961,-0.08062 0.124023,-0.115755 0.188102,-0.08682 0.33693,0.05788 l 0.124023,0.128157 q 0.148828,-0.328662 0.177767,-0.690396 0.02894,-0.363802 -0.02274,-0.717269 -0.04754,-0.307991 -0.206705,-0.657323 -0.159163,-0.3514 -0.491959,-0.454752 -0.248047,-0.07441 -0.452685,0.109553 -0.202572,0.183968 -0.299724,0.380339 -0.239778,0.475422 -0.225309,1.083137 0.01447,0.605647 0.285254,1.064533 0.124023,0.214974 0.33693,0.347266 0.214974,0.132291 0.469222,0.01447 0.02067,-0.0124 0.04961,-0.02687 z"
           style="word-spacing:-2.64583px;fill:#00ff00"
           id="path1132-4-3-4" />
        <path
           d="m 91.136762,87.992562 q 0.06201,-0.111621 0.148828,-0.130224 0.08888,-0.02067 0.09922,-0.02067 0.148828,0 0.24598,0.128158 0.09715,0.128157 0.01034,0.30179 l -1.951301,3.654554 q -0.0248,0.04754 -0.08888,0.09922 -0.06408,0.04961 -0.169499,0.04961 -0.148828,0 -0.237711,-0.128157 -0.08682,-0.128158 -0.01654,-0.307992 z"
           style="word-spacing:-2.64583px;fill:#00ff00"
           id="path1134-6-0-1" />
        <path
           d="m 96.583455,91.413539 -0.0186,0.02687 q -0.0062,0.0083 -0.01033,0.01447 -0.0041,0.0062 -0.0083,0.0124 -0.283187,0.382405 -0.74414,0.545702 -0.458887,0.161231 -0.905371,-0.05994 -0.51883,-0.258382 -0.762743,-0.876432 -0.241846,-0.618049 -0.208773,-1.283641 0.03514,-0.667659 0.3514,-1.225764 0.318326,-0.558105 0.921907,-0.698665 0.347265,-0.08061 0.692463,0.06821 0.345198,0.146761 0.566373,0.413411 0.0021,0 0.01034,0.01447 0.09508,0.124024 0.03927,0.272852 -0.05581,0.146761 -0.204639,0.183968 -0.159163,0.04134 -0.293522,-0.09508 -0.276985,-0.322461 -0.5333,-0.310058 -0.256315,0.0124 -0.458886,0.210839 -0.202572,0.198438 -0.33693,0.508496 -0.134359,0.310058 -0.165365,0.580843 -0.03721,0.30179 0.0062,0.607714 0.04548,0.303857 0.188102,0.572574 0.248047,0.471289 0.624251,0.591178 0.378271,0.117822 0.737939,-0.361735 0.01654,-0.02067 0.03927,-0.05374 0.194303,-0.214974 0.409277,-0.04341 0.217041,0.169498 0.06408,0.384472 z"
           style="word-spacing:-2.64583px;fill:#00ff00"
           id="path1136-2-6-3" />
        <path
           d="m 97.160164,91.789743 v -3.654554 q 0.04341,-0.297656 0.30179,-0.291455 0.258382,0.0041 0.28112,0.291455 v 1.366324 h 1.663979 v -1.366324 q 0.04341,-0.291455 0.291455,-0.291455 0.250114,-0.0021 0.295589,0.291455 v 3.654554 q -0.04547,0.291455 -0.295589,0.289388 -0.248047,0 -0.291455,-0.289388 v -1.701186 h -1.663979 v 1.701186 q -0.02274,0.285254 -0.28112,0.289388 -0.258382,0.0041 -0.30179,-0.289388 z"
           style="word-spacing:-2.64583px;fill:#00ff00"
           id="path1138-8-3-9" />
        <path
           d="m 102.79496,90.716941 -0.62839,-1.736326 -0.63252,1.736326 z m -0.62839,-1.736326 0.62839,1.736326 z m -1.59577,2.69544 q 0.33073,-0.911571 0.66146,-1.821076 0.3328,-0.911571 0.66559,-1.823143 0.0682,-0.188102 0.27079,-0.190169 0.20257,-0.0021 0.27285,0.190169 l 1.32498,3.654555 q 0.062,0.291454 -0.17776,0.376204 -0.23978,0.08475 -0.37001,-0.173633 l -0.2129,-0.591178 h -1.68465 l -0.20671,0.576709 q -0.13229,0.260449 -0.3762,0.171565 -0.24392,-0.09095 -0.16744,-0.370003 z"
           style="word-spacing:-2.64583px;fill:#00ff00"
           id="path1140-8-9-6" />
        <path
           d="m 107.02829,91.789743 q 0,0.217041 -0.21084,0.276986 -0.20878,0.05788 -0.32453,-0.124024 l -1.73633,-2.784323 v 2.631361 q -0.0455,0.289388 -0.29352,0.289388 -0.24598,0 -0.28939,-0.289388 v -3.65042 q 0.031,-0.214974 0.21911,-0.283186 0.19017,-0.06821 0.31626,0.128157 l 1.73633,2.788458 v -2.633429 q 0.0393,-0.295589 0.29972,-0.291455 0.26252,0.0021 0.28319,0.291455 z"
           style="word-spacing:-2.64583px;fill:#00ff00"
           id="path1142-4-3-2" />
      </g>
    </g>
    <path
       id="rect1189-6-1"
       style="fill:#ff0000;stroke:none;stroke-width:0.272633"
       d="M 84.32666,43.374686 H 130.3227 V 58.911919 H 84.32666 Z" />
    <path
       id="path1589-5-8-3-53-0-0"
       style="fill:#ff0000;stroke:none;stroke-width:0.194177"
       d="m 66.07227,34.602001 a 3.174725,3.4021182 0 0 1 -3.08435,3.400736 3.174725,3.4021182 0 0 1 -3.25995,-3.207121 3.174725,3.4021182 0 0 1 2.89875,-3.583325 3.174725,3.4021182 0 0 1 3.42499,3.003101" />
    <path
       id="path1589-5-8-3-5-9-9"
       style="fill:#ff0000;stroke:none;stroke-width:0.194177"
       d="m 154.77021,34.602001 a 3.174725,3.4021182 0 0 1 -3.08435,3.400736 3.174725,3.4021182 0 0 1 -3.25996,-3.207121 3.174725,3.4021182 0 0 1 2.89876,-3.583325 3.174725,3.4021182 0 0 1 3.42498,3.003101" />
  </g>
</svg>
