<?xml version="1.0" encoding="UTF-8" standalone="no"?>
<svg
   xmlns:dc="http://purl.org/dc/elements/1.1/"
   xmlns:cc="http://creativecommons.org/ns#"
   xmlns:rdf="http://www.w3.org/1999/02/22-rdf-syntax-ns#"
   xmlns:svg="http://www.w3.org/2000/svg"
   xmlns="http://www.w3.org/2000/svg"
   xmlns:sodipodi="http://sodipodi.sourceforge.net/DTD/sodipodi-0.dtd"
   xmlns:inkscape="http://www.inkscape.org/namespaces/inkscape"
   width="210mm"
   height="297mm"
   viewBox="0 0 210 297"
   version="1.1"
   id="svg6473"
   inkscape:version="1.0.2 (e86c870879, 2021-01-15, custom)"
   sodipodi:docname="Panel6 (UHF Radio) Final Clear.svg">
  <defs
     id="defs6467" />
  <sodipodi:namedview
     id="base"
     pagecolor="#ffffff"
     bordercolor="#666666"
     borderopacity="1.0"
     inkscape:pageopacity="0.0"
     inkscape:pageshadow="2"
     inkscape:zoom="0.35"
     inkscape:cx="400"
     inkscape:cy="560"
     inkscape:document-units="mm"
     inkscape:current-layer="layer1"
     inkscape:document-rotation="0"
     showgrid="false"
     inkscape:window-width="2560"
     inkscape:window-height="1361"
     inkscape:window-x="-9"
     inkscape:window-y="-9"
     inkscape:window-maximized="1" />
  <metadata
     id="metadata6470">
    <rdf:RDF>
      <cc:Work
         rdf:about="">
        <dc:format>image/svg+xml</dc:format>
        <dc:type
           rdf:resource="http://purl.org/dc/dcmitype/StillImage" />
        <dc:title />
      </cc:Work>
    </rdf:RDF>
  </metadata>
  <g
     inkscape:label="Layer 1"
     inkscape:groupmode="layer"
     id="layer1">
    <path
       id="rect1015-2"
       style="fill:none;stroke:#000000;stroke-width:0.333759;stroke-miterlimit:4;stroke-dasharray:none;stroke-opacity:1"
       d="m 39.290949,53.63576 v 19.07991 c 0,0.24637 -0.005,0.49053 -0.01139,0.7341 V 88.862 H 170.8752 V 73.44977 c -0.006,-0.24357 -0.0114,-0.48773 -0.0114,-0.7341 V 53.63576 Z" />
    <path
       id="path1589-5-8-3-8-5-0-8-6-2-9-0-4-1"
       style="fill:#ff0000;stroke:none;stroke-width:0.187592"
       d="m 50.849946,71.248878 a 3.175,3.175 0 0 1 -3.084618,3.173714 3.175,3.175 0 0 1 -3.260236,-2.993022 3.175,3.175 0 0 1 2.899,-3.344117 3.175,3.175 0 0 1 3.425287,2.802629" />
    <path
       id="path1589-5-8-3-8-5-0-7-5-6-1-3-3-8"
       style="fill:#ff0000;stroke:none;stroke-width:0.187592"
       d="m 165.85077,71.248878 a 3.175,3.175 0 0 1 -3.08462,3.173714 3.175,3.175 0 0 1 -3.26024,-2.993022 3.175,3.175 0 0 1 2.899,-3.344117 3.175,3.175 0 0 1 3.42529,2.802629" />
    <path
       id="rect1189-5"
       style="fill:none;stroke:#000000;stroke-width:0.241949;stroke-miterlimit:4;stroke-dasharray:none;stroke-opacity:1"
       d="M 86.202121,29.02066 H 130.96017 V 42.97871 H 86.202121 Z" />
  </g>
</svg>
