<?xml version="1.0" encoding="UTF-8" standalone="no"?>
<svg
   xmlns:dc="http://purl.org/dc/elements/1.1/"
   xmlns:cc="http://creativecommons.org/ns#"
   xmlns:rdf="http://www.w3.org/1999/02/22-rdf-syntax-ns#"
   xmlns:svg="http://www.w3.org/2000/svg"
   xmlns="http://www.w3.org/2000/svg"
   xmlns:sodipodi="http://sodipodi.sourceforge.net/DTD/sodipodi-0.dtd"
   xmlns:inkscape="http://www.inkscape.org/namespaces/inkscape"
   width="210mm"
   height="297mm"
   viewBox="0 0 210 297"
   version="1.1"
   id="svg934"
   inkscape:version="1.0.2 (e86c870879, 2021-01-15, custom)"
   sodipodi:docname="Wing Sweep Both V3.svg">
  <defs
     id="defs928" />
  <sodipodi:namedview
     id="base"
     pagecolor="#ffffff"
     bordercolor="#666666"
     borderopacity="1.0"
     inkscape:pageopacity="0.0"
     inkscape:pageshadow="2"
     inkscape:zoom="1.0606602"
     inkscape:cx="703.43737"
     inkscape:cy="466.1381"
     inkscape:document-units="mm"
     inkscape:current-layer="layer1"
     inkscape:document-rotation="0"
     showgrid="false"
     inkscape:window-width="2560"
     inkscape:window-height="1361"
     inkscape:window-x="2551"
     inkscape:window-y="-9"
     inkscape:window-maximized="1" />
  <metadata
     id="metadata931">
    <rdf:RDF>
      <cc:Work
         rdf:about="">
        <dc:format>image/svg+xml</dc:format>
        <dc:type
           rdf:resource="http://purl.org/dc/dcmitype/StillImage" />
        <dc:title />
      </cc:Work>
    </rdf:RDF>
  </metadata>
  <g
     inkscape:label="Layer 1"
     inkscape:groupmode="layer"
     id="layer1">
    <g
       id="g2173">
      <rect
         style="fill:none;stroke:#000000;stroke-width:0.249457;stroke-miterlimit:4;stroke-dasharray:none;stroke-opacity:1"
         id="rect1497-5"
         width="75.950539"
         height="234.70055"
         x="7.5493612"
         y="17.727478" />
      <circle
         style="fill:#ff0000;stroke-width:0.180579"
         id="path1558-6-5"
         sodipodi:type="arc"
         sodipodi:cx="17.454004"
         sodipodi:cy="243.664"
         sodipodi:rx="3.175"
         sodipodi:ry="3.175"
         sodipodi:start="0"
         sodipodi:end="6.1693026"
         sodipodi:open="true"
         sodipodi:arc-type="arc"
         d="m 20.629004,243.664 a 3.175,3.175 0 0 1 -3.084618,3.17371 3.175,3.175 0 0 1 -3.260236,-2.99302 3.175,3.175 0 0 1 2.899001,-3.34411 3.175,3.175 0 0 1 3.425287,2.80262" />
      <circle
         style="fill:#ff0000;stroke-width:0.180579"
         id="path1558-1-4-4"
         sodipodi:type="arc"
         sodipodi:cx="17.454004"
         sodipodi:cy="216.85284"
         sodipodi:rx="3.175"
         sodipodi:ry="3.175"
         sodipodi:start="0"
         sodipodi:end="6.1693026"
         sodipodi:open="true"
         sodipodi:arc-type="arc"
         d="m 20.629004,216.85284 a 3.175,3.175 0 0 1 -3.084618,3.17372 3.175,3.175 0 0 1 -3.260236,-2.99302 3.175,3.175 0 0 1 2.899001,-3.34412 3.175,3.175 0 0 1 3.425287,2.80263" />
      <circle
         style="fill:#ff0000;stroke-width:0.180579"
         id="path1558-3"
         sodipodi:type="arc"
         sodipodi:cx="17.45402"
         sodipodi:cy="-26.549938"
         sodipodi:rx="3.175"
         sodipodi:ry="3.175"
         sodipodi:start="0"
         sodipodi:end="6.1693026"
         sodipodi:open="true"
         sodipodi:arc-type="arc"
         transform="scale(1,-1)"
         d="m 20.629019,-26.549938 a 3.175,3.175 0 0 1 -3.084617,3.173713 3.175,3.175 0 0 1 -3.260237,-2.993022 3.175,3.175 0 0 1 2.899001,-3.344117 3.175,3.175 0 0 1 3.425287,2.802629" />
      <circle
         style="fill:#ff0000;stroke-width:0.180579"
         id="path1558-1-1"
         sodipodi:type="arc"
         sodipodi:cx="17.45402"
         sodipodi:cy="-53.361057"
         sodipodi:rx="3.175"
         sodipodi:ry="3.175"
         sodipodi:start="0"
         sodipodi:end="6.1693026"
         sodipodi:open="true"
         sodipodi:arc-type="arc"
         transform="scale(1,-1)"
         d="m 20.629019,-53.361057 a 3.175,3.175 0 0 1 -3.084617,3.173713 3.175,3.175 0 0 1 -3.260237,-2.993022 3.175,3.175 0 0 1 2.899001,-3.344117 3.175,3.175 0 0 1 3.425287,2.802629" />
      <path
         id="path879-6-2-7-3"
         style="fill:#ff0000;stroke:none;stroke-width:0.210559;stroke-miterlimit:4;stroke-dasharray:none"
         d="m 77.65632,23.957106 a 3.175,3.175 0 0 1 -3.08462,3.173714 3.175,3.175 0 0 1 -3.26023,-2.993023 3.175,3.175 0 0 1 2.89899,-3.344116 3.175,3.175 0 0 1 3.42529,2.802629" />
      <path
         id="path879-9-7-8-8-9"
         style="fill:#ff0000;stroke:none;stroke-width:0.210559;stroke-miterlimit:4;stroke-dasharray:none"
         d="m 40.61466,23.957106 a 3.175,3.175 0 0 1 -3.08462,3.173714 3.175,3.175 0 0 1 -3.26023,-2.993023 3.175,3.175 0 0 1 2.899,-3.344116 3.175,3.175 0 0 1 3.42528,2.802629" />
      <path
         id="rect837-7-0-7-6-7-4"
         style="fill:#ffff00;stroke:none;stroke-width:0.20017"
         d="M 47.02863,72.024695 H 63.02864 V 200.5247 H 47.02863 Z" />
      <path
         id="rect1031-8-3-4"
         style="fill:#ff0000;stroke:none;stroke-width:0.178618"
         d="m 51.82862,34.892441 h 6.40001 v 19.9 h -6.40001 z" />
    </g>
    <path
       id="rect1497-0-0"
       style="fill:none;stroke:#000000;stroke-width:0.249457;stroke-miterlimit:4;stroke-dasharray:none;stroke-opacity:1"
       d="m 125.51867,21.469256 v 9.989289 12.486739 12.48674 c 0,5.534127 -4.44583,9.989288 -9.96768,9.989288 h -9.96717 V 211.21775 h 9.96717 c 5.52185,0 9.96768,4.45516 9.96768,9.98928 v 12.48675 12.48674 9.98928 h 56.01569 V 21.469256 Z" />
    <g
       aria-label="w i n g  s w e e p"
       id="text998-4-3"
       style="font-size:4.93889px;line-height:1.25;font-family:'MS 33558';-inkscape-font-specification:'MS 33558, ';text-align:center;text-anchor:middle;fill:#00ff00;stroke-width:0.264583"
       transform="translate(-40.258027,41.199971)">
      <path
         d="m 157.09304,67.768913 0.84405,2.884234 0.56431,-2.884234 q 0.10128,-0.325562 0.3955,-0.265272 0.29662,0.06029 0.2725,0.393085 l -0.8344,4.258828 q -0.0772,0.267684 -0.31591,0.27733 -0.23634,0.0096 -0.34245,-0.243568 l -0.91157,-3.110922 -0.90434,3.110922 q -0.11093,0.260449 -0.34003,0.243568 -0.2291,-0.01688 -0.32315,-0.27733 l -0.8344,-4.258828 q 0,-0.344854 0.27492,-0.395497 0.27492,-0.05306 0.40032,0.267684 l 0.55707,2.889058 0.84405,-2.889058 q 0.1037,-0.238745 0.33038,-0.24598 0.2291,-0.0072 0.32315,0.24598 z"
         style="font-size:4.93889px;text-align:center;text-anchor:middle;fill:#00ff00;stroke-width:0.264583"
         id="path1585-5" />
      <path
         d="m 157.0002,78.2737 q -0.0531,0.340031 -0.34486,0.33762 -0.28938,0 -0.34003,-0.33762 v -4.263651 q 0.0506,-0.340031 0.34003,-0.340031 0.2918,-0.0024 0.34486,0.340031 z"
         style="font-size:4.93889px;text-align:center;text-anchor:middle;fill:#00ff00;stroke-width:0.264583"
         id="path1587-0" />
      <path
         d="m 158.31933,84.447313 q 0,0.253214 -0.24598,0.32315 -0.24357,0.06752 -0.37862,-0.144694 l -2.02572,-3.248381 v 3.069925 q -0.053,0.337619 -0.34244,0.337619 -0.28698,0 -0.33762,-0.337619 v -4.258828 q 0.0362,-0.250803 0.25563,-0.330385 0.22186,-0.07958 0.36897,0.149517 l 2.02571,3.253205 v -3.072337 q 0.0458,-0.344854 0.34968,-0.340031 0.30627,0.0024 0.33039,0.340031 z"
         style="font-size:4.93889px;text-align:center;text-anchor:middle;fill:#00ff00;stroke-width:0.264583"
         id="path1589-5" />
      <path
         d="m 156.80607,88.964179 -0.0217,-0.0024 q -0.29421,-0.03617 -0.29421,-0.335208 0,-0.299034 0.29421,-0.335208 l 0.0217,-0.0048 h 0.0217 0.88987 q 0.13987,0 0.23874,0.101286 0.10129,0.09887 0.10129,0.238745 v 1.222665 l -0.0289,0.0627 -0.0169,0.03858 -0.0169,0.03617 -0.0193,0.03617 -0.0193,0.03617 -0.0169,0.03617 -0.0193,0.03617 -0.0217,0.03617 q -0.46785,0.795817 -1.16238,0.778936 -0.69453,-0.01929 -1.1672,-0.786171 -0.22427,-0.364147 -0.33279,-0.911572 -0.10852,-0.549838 -0.0651,-1.121379 0.0434,-0.573953 0.26528,-1.090029 0.22427,-0.518487 0.668,-0.822344 0.55466,-0.376205 1.08038,-0.08682 0.52572,0.286977 0.78617,0.807875 l 0.0193,0.03859 0.0145,0.03376 0.0193,0.03617 q 0.082,0.229099 -0.0627,0.373793 -0.13987,0.137459 -0.30386,0.103697 -0.16399,-0.03617 -0.25321,-0.195337 -0.28216,-0.699354 -0.7283,-0.610126 -0.44373,0.08923 -0.66559,0.728293 -0.21704,0.617361 -0.17122,1.328774 0.0458,0.709001 0.46302,1.237134 0.28698,0.36897 0.5836,0.236333 0.29662,-0.132636 0.46784,-0.494371 l 0.0265,-0.05305 v -0.735528 z"
         style="font-size:4.93889px;text-align:center;text-anchor:middle;fill:#00ff00;stroke-width:0.264583"
         id="path1591-6" />
      <path
         d="m 157.50663,100.67234 0.0386,0.0169 0.0434,0.0217 0.0386,0.0217 q 0.0169,0.0121 0.0362,0.0241 0.0217,0.01 0.041,0.0217 0.47749,0.3135 0.59083,0.86816 0.0434,0.21704 0.0193,0.44614 -0.0386,0.32797 -0.23151,0.60772 -0.19051,0.27733 -0.4799,0.42926 -0.31109,0.16398 -0.64389,0.16398 -0.55948,0 -1.06832,-0.14228 -0.50884,-0.14469 -0.72588,-0.76929 -0.0289,-0.0796 -0.0434,-0.16399 -0.0145,-0.0844 -0.0338,-0.16881 -0.0362,-0.17363 0.0844,-0.30627 0.12299,-0.13263 0.30386,-0.10128 0.19051,0.0386 0.26527,0.23633 l 0.007,0.0217 q 0.11576,0.52331 0.40274,0.62459 0.28938,0.10129 0.80305,0.0916 0.47267,0 0.64871,-0.44373 0.0772,-0.19775 0.0241,-0.40996 -0.0531,-0.21463 -0.20981,-0.35692 -0.0699,-0.0603 -0.18328,-0.11334 l -1.11656,-0.48955 -0.0362,-0.0193 q -0.54742,-0.28939 -0.68006,-0.822344 -0.16158,-0.617361 0.22427,-1.10691 0.38827,-0.491959 1.01769,-0.491959 l 0.26527,0.0072 q 0.13022,0.02412 0.2508,0.04823 0.12058,0.0217 0.24357,0.07717 0.30386,0.142282 0.46543,0.390674 0.16158,0.248391 0.2918,0.537779 0.0121,0.02653 0.0217,0.0627 0.0265,0.118167 -0.0241,0.21463 -0.0289,0.06029 -0.0603,0.09164 -0.0314,0.03135 -0.0506,0.04341 -0.1254,0.08923 -0.27492,0.05305 -0.14952,-0.03376 -0.2291,-0.192926 -0.0627,-0.139871 -0.13505,-0.284565 -0.0699,-0.147105 -0.19775,-0.243568 -0.0531,-0.03858 -0.10369,-0.05547 -0.0482,-0.01929 -0.10852,-0.041 l -0.15676,-0.02653 -0.22186,-0.0072 q -0.32315,0.0048 -0.49437,0.279742 -0.11576,0.176045 -0.0868,0.393086 0.0338,0.267684 0.25081,0.414791 0.01,0.007 0.0217,0.0169 0.0121,0.007 0.0265,0.0145 l 0.0265,0.0121 0.0289,0.0121 z"
         style="font-size:4.93889px;text-align:center;text-anchor:middle;fill:#00ff00;stroke-width:0.264583"
         id="path1593-9" />
      <path
         d="m 157.09304,104.81059 0.84405,2.88423 0.56431,-2.88423 q 0.10128,-0.32556 0.3955,-0.26527 0.29662,0.0603 0.2725,0.39308 l -0.8344,4.25883 q -0.0772,0.26768 -0.31591,0.27733 -0.23634,0.01 -0.34245,-0.24357 l -0.91157,-3.11092 -0.90434,3.11092 q -0.11093,0.26045 -0.34003,0.24357 -0.2291,-0.0169 -0.32315,-0.27733 l -0.8344,-4.25883 q 0,-0.34485 0.27492,-0.3955 0.27492,-0.053 0.40032,0.26769 l 0.55707,2.88906 0.84405,-2.88906 q 0.1037,-0.23875 0.33038,-0.24598 0.2291,-0.007 0.32315,0.24598 z"
         style="font-size:4.93889px;text-align:center;text-anchor:middle;fill:#00ff00;stroke-width:0.264583"
         id="path1595-1" />
      <path
         d="m 157.83339,111.38211 h -1.99918 v 1.31913 h 1.52411 q 0.34244,0.0506 0.34003,0.34485 0,0.2918 -0.34003,0.34003 h -1.52411 v 1.5844 h 1.99918 q 0.34004,0.0506 0.34004,0.34003 0,0.28939 -0.34004,0.33762 H 155.499 q -0.30145,-0.0386 -0.34244,-0.34244 v -4.25883 q 0.0458,-0.31833 0.34244,-0.33762 h 2.33439 q 0.34004,0.0265 0.33762,0.34003 0,0.31109 -0.33762,0.3328 z"
         style="font-size:4.93889px;text-align:center;text-anchor:middle;fill:#00ff00;stroke-width:0.264583"
         id="path1597-9" />
      <path
         d="m 157.83339,117.55572 h -1.99918 v 1.31913 h 1.52411 q 0.34244,0.0506 0.34003,0.34485 0,0.2918 -0.34003,0.34003 h -1.52411 v 1.5844 h 1.99918 q 0.34004,0.0506 0.34004,0.34003 0,0.28939 -0.34004,0.33762 H 155.499 q -0.30145,-0.0386 -0.34244,-0.34244 v -4.25883 q 0.0458,-0.31832 0.34244,-0.33762 h 2.33439 q 0.34004,0.0265 0.33762,0.34004 0,0.31109 -0.33762,0.33279 z"
         style="font-size:4.93889px;text-align:center;text-anchor:middle;fill:#00ff00;stroke-width:0.264583"
         id="path1599-9" />
      <path
         d="m 156.87359,123.05651 h 0.0458 q 0.30868,0.0217 0.56913,0.13987 0.4992,0.23392 0.70659,0.76929 0.20739,0.53537 -0.005,1.04421 -0.17122,0.40273 -0.50643,0.63183 -0.33521,0.22668 -0.76447,0.25321 l -0.0458,0.002 h -1.17202 v 1.75804 q -0.0434,0.34003 -0.34244,0.34003 -0.29904,0 -0.34003,-0.34003 v -4.26124 q 0.0362,-0.29904 0.31832,-0.33762 h 0.0217 z m 0,0.68006 h -1.17202 v 1.47829 h 1.17202 q 0.27492,0 0.48473,-0.18328 0.21221,-0.18328 0.24839,-0.4582 0.0434,-0.33279 -0.17846,-0.5836 -0.22186,-0.25321 -0.55466,-0.25321 z"
         style="font-size:4.93889px;text-align:center;text-anchor:middle;fill:#00ff00;stroke-width:0.264583"
         id="path1601-4" />
    </g>
    <g
       aria-label="oV SW"
       transform="rotate(-90,0.47097135,40.728999)"
       id="text1078-4-5"
       style="font-size:4.93889px;line-height:1.25;font-family:'MS 33558';-inkscape-font-specification:'MS 33558, ';word-spacing:-3.175px;fill:#00ff00;stroke-width:0.264583">
      <path
         d="m -156.85913,206.68212 q 0.22187,0.668 0.1664,1.38665 -0.053,0.71864 -0.39309,1.31189 -0.21463,0.36897 -0.58601,0.62701 -0.37138,0.25803 -0.81993,0.18086 -0.7307,-0.12781 -1.11897,-0.76205 -0.38826,-0.63424 -0.44614,-1.41077 -0.0555,-0.77893 0.20981,-1.51687 0.26768,-0.73794 0.85128,-1.07315 0.28457,-0.16399 0.59566,-0.16399 0.59325,0 0.96945,0.44855 0.3762,0.44614 0.57154,0.97187 z m -1.5217,-0.73553 q -0.44373,0 -0.67282,0.47749 -0.22669,0.47749 -0.28698,0.81511 -0.0458,0.24598 -0.0338,0.59565 0.0121,0.34968 0.10128,0.69212 0.0892,0.34004 0.26769,0.61495 0.17845,0.27251 0.46784,0.36174 0.33762,0.10611 0.58119,-0.13264 0.24598,-0.24115 0.37138,-0.51125 0.12781,-0.27733 0.17363,-0.72829 0.0482,-0.45097 -0.0217,-0.89952 -0.0675,-0.45096 -0.26769,-0.81028 -0.20016,-0.36174 -0.56913,-0.46061 -0.0482,-0.0145 -0.11093,-0.0145 z"
         style="font-size:4.93889px;fill:#00ff00;stroke-width:0.264583"
         id="path1625-6" />
      <path
         d="m -156.0392,205.71749 q -0.0458,-0.34244 0.24357,-0.41961 0.2918,-0.0772 0.41479,0.24356 l 0.8127,3.00964 0.81752,-3.03857 q 0.12299,-0.32557 0.42444,-0.23634 0.30144,0.0868 0.23151,0.41238 l -1.14791,4.26124 q -0.0965,0.24839 -0.32315,0.2508 -0.22669,0 -0.33038,-0.24115 z"
         style="font-size:4.93889px;fill:#00ff00;stroke-width:0.264583"
         id="path1627-3" />
      <path
         d="m -148.22709,207.57198 0.0386,0.0169 0.0434,0.0217 0.0386,0.0217 q 0.0169,0.0121 0.0362,0.0241 0.0217,0.01 0.041,0.0217 0.47749,0.31351 0.59084,0.86817 0.0434,0.21704 0.0193,0.44614 -0.0386,0.32797 -0.23151,0.60771 -0.19051,0.27733 -0.4799,0.42926 -0.31109,0.16399 -0.64389,0.16399 -0.55948,0 -1.06832,-0.14229 -0.50885,-0.14469 -0.72589,-0.76929 -0.0289,-0.0796 -0.0434,-0.16398 -0.0145,-0.0844 -0.0338,-0.16881 -0.0362,-0.17363 0.0844,-0.30627 0.12299,-0.13264 0.30386,-0.10129 0.19051,0.0386 0.26527,0.23634 l 0.007,0.0217 q 0.11576,0.52331 0.40273,0.6246 0.28939,0.10128 0.80306,0.0916 0.47266,0 0.64871,-0.44373 0.0772,-0.19775 0.0241,-0.40997 -0.0531,-0.21463 -0.2098,-0.35691 -0.0699,-0.0603 -0.18328,-0.11334 l -1.11656,-0.48955 -0.0362,-0.0193 q -0.54743,-0.28939 -0.68006,-0.82235 -0.16158,-0.61736 0.22427,-1.10691 0.38827,-0.49196 1.01768,-0.49196 l 0.26528,0.007 q 0.13022,0.0241 0.2508,0.0482 0.12058,0.0217 0.24357,0.0772 0.30386,0.14228 0.46543,0.39067 0.16158,0.24839 0.2918,0.53778 0.0121,0.0265 0.0217,0.0627 0.0265,0.11817 -0.0241,0.21463 -0.0289,0.0603 -0.0603,0.0916 -0.0314,0.0314 -0.0506,0.0434 -0.12541,0.0892 -0.27492,0.053 -0.14952,-0.0338 -0.2291,-0.19292 -0.0627,-0.13987 -0.13505,-0.28457 -0.0699,-0.1471 -0.19775,-0.24356 -0.0531,-0.0386 -0.10369,-0.0555 -0.0482,-0.0193 -0.10853,-0.041 l -0.15675,-0.0265 -0.22186,-0.007 q -0.32315,0.005 -0.49437,0.27974 -0.11576,0.17605 -0.0868,0.39309 0.0338,0.26768 0.2508,0.41479 0.01,0.007 0.0217,0.0169 0.0121,0.007 0.0265,0.0145 l 0.0265,0.0121 0.0289,0.012 z"
         style="font-size:4.93889px;fill:#00ff00;stroke-width:0.264583"
         id="path1629-9" />
      <path
         d="m -144.08402,205.53662 0.84405,2.88424 0.5643,-2.88424 q 0.10129,-0.32556 0.3955,-0.26527 0.29662,0.0603 0.27251,0.39308 l -0.8344,4.25883 q -0.0772,0.26769 -0.31592,0.27733 -0.23633,0.01 -0.34244,-0.24357 l -0.91158,-3.11092 -0.90433,3.11092 q -0.11093,0.26045 -0.34003,0.24357 -0.2291,-0.0169 -0.32315,-0.27733 l -0.83441,-4.25883 q 0,-0.34485 0.27492,-0.39549 0.27492,-0.0531 0.40032,0.26768 l 0.55707,2.88906 0.84405,-2.88906 q 0.1037,-0.23874 0.33039,-0.24598 0.2291,-0.007 0.32315,0.24598 z"
         style="font-size:4.93889px;fill:#00ff00;stroke-width:0.264583"
         id="path1631-9" />
    </g>
    <path
       id="rect837-5-7-5"
       style="fill:#ff0000;stroke:none;stroke-width:0.153561"
       d="m 147.65886,85.11226 h 11 v 110.00001 h -11 z" />
    <path
       id="rect1031-8-2"
       style="fill:#ff0000;stroke:none;stroke-width:0.178618"
       d="m 149.95886,38.730006 h 6.4 v 19.9 h -6.4 z" />
    <path
       id="path879-6-6"
       style="fill:#ff0000;stroke:none;stroke-width:0.210559;stroke-miterlimit:4;stroke-dasharray:none"
       d="m 175.78654,27.794623 a 3.175,3.175 0 0 1 -3.08462,3.173713 3.175,3.175 0 0 1 -3.26024,-2.993022 3.175,3.175 0 0 1 2.899,-3.344117 3.175,3.175 0 0 1 3.42529,2.80263" />
    <path
       id="path879-9-7-0"
       style="fill:#ff0000;stroke:none;stroke-width:0.210559;stroke-miterlimit:4;stroke-dasharray:none"
       d="m 138.74487,27.794623 a 3.175,3.175 0 0 1 -3.08462,3.173713 3.175,3.175 0 0 1 -3.26024,-2.993022 3.175,3.175 0 0 1 2.899,-3.344117 3.175,3.175 0 0 1 3.42529,2.80263" />
    <text
       xml:space="preserve"
       style="font-size:4.93889px;line-height:1.25;font-family:'MS 33558';-inkscape-font-specification:'MS 33558, ';word-spacing:-2.64583px;fill:#00ff00;stroke-width:0.264583"
       x="-91.281097"
       y="169.94528"
       id="text907"
       transform="rotate(-90)"><tspan
         sodipodi:role="line"
         id="tspan905"
         x="-91.281097"
         y="169.94528"
         style="font-size:4.93889px;fill:#00ff00;stroke-width:0.264583">20</tspan></text>
    <text
       xml:space="preserve"
       style="font-size:4.93889px;line-height:1.25;font-family:'MS 33558';-inkscape-font-specification:'MS 33558, ';word-spacing:-2.64583px;fill:#00ff00;stroke-width:0.264583"
       x="-143.48381"
       y="169.94435"
       id="text907-2"
       transform="rotate(-90)"><tspan
         sodipodi:role="line"
         id="tspan905-9"
         x="-143.48381"
         y="169.94435"
         style="font-size:4.93889px;fill:#00ff00;stroke-width:0.264583">55</tspan></text>
    <text
       xml:space="preserve"
       style="font-size:4.93889px;line-height:1.25;font-family:'MS 33558';-inkscape-font-specification:'MS 33558, ';word-spacing:-2.64583px;fill:#00ff00;stroke-width:0.264583"
       x="-166.97823"
       y="169.94638"
       id="text907-2-7"
       transform="rotate(-90)"><tspan
         sodipodi:role="line"
         id="tspan905-9-5"
         x="-166.97823"
         y="169.94638"
         style="font-size:4.93889px;fill:#00ff00;stroke-width:0.264583">68</tspan></text>
  </g>
</svg>
