<?xml version="1.0" encoding="UTF-8" standalone="no"?>
<svg
   xmlns:dc="http://purl.org/dc/elements/1.1/"
   xmlns:cc="http://creativecommons.org/ns#"
   xmlns:rdf="http://www.w3.org/1999/02/22-rdf-syntax-ns#"
   xmlns:svg="http://www.w3.org/2000/svg"
   xmlns="http://www.w3.org/2000/svg"
   xmlns:sodipodi="http://sodipodi.sourceforge.net/DTD/sodipodi-0.dtd"
   xmlns:inkscape="http://www.inkscape.org/namespaces/inkscape"
   width="210mm"
   height="297mm"
   viewBox="0 0 210 297"
   version="1.1"
   id="svg1790"
   inkscape:version="1.0.2 (e86c870879, 2021-01-15, custom)"
   sodipodi:docname="AFCS Top v3.svg">
  <defs
     id="defs1784" />
  <sodipodi:namedview
     id="base"
     pagecolor="#ffffff"
     bordercolor="#666666"
     borderopacity="1.0"
     inkscape:pageopacity="0.0"
     inkscape:pageshadow="2"
     inkscape:zoom="1.5"
     inkscape:cx="400"
     inkscape:cy="560"
     inkscape:document-units="mm"
     inkscape:current-layer="layer1"
     inkscape:document-rotation="0"
     showgrid="false"
     inkscape:window-width="2560"
     inkscape:window-height="1361"
     inkscape:window-x="-9"
     inkscape:window-y="-9"
     inkscape:window-maximized="1" />
  <metadata
     id="metadata1787">
    <rdf:RDF>
      <cc:Work
         rdf:about="">
        <dc:format>image/svg+xml</dc:format>
        <dc:type
           rdf:resource="http://purl.org/dc/dcmitype/StillImage" />
        <dc:title />
      </cc:Work>
    </rdf:RDF>
  </metadata>
  <g
     inkscape:label="Layer 1"
     inkscape:groupmode="layer"
     id="layer1">
    <path
       id="rect2248"
       style="fill:none;stroke:#000002;stroke-width:0.25;stroke-miterlimit:4;stroke-dasharray:none"
       d="m 45.190012,55.309375 v 0.0036 8.922207 0.991185 c 0.0015,0.07282 0.0052,0.145059 0.0052,0.218256 v 4.480711 c 0,5.614785 -4.406878,10.134743 -9.881352,10.134743 -0.02008,0 -0.03982,-0.0014 -0.05986,-0.0015 v 0.04747 h -9.821999 v -0.04747 h -0.20954 v 77.205053 h 0.07793 v -0.0785 h 9.821999 v 0.0474 c 0.02005,-1.2e-4 0.03979,-0.002 0.05986,-0.002 5.474475,0 9.881351,4.51995 9.881351,10.13474 v 0.27914 c 0.08021,0.51141 0.122831,1.0355 0.122831,1.5701 v 2.86625 9.97891 H 157.4362 v -9.95208 -2.86625 c 0,-0.4663 0.0342,-0.92405 0.0955,-1.373 v -0.50307 c 0,-5.61479 4.40689,-10.13474 9.88135,-10.13474 0.0201,0 0.04,0.002 0.0598,0.002 v -0.0474 h 1.97566 c 0.0263,-2.1e-4 0.0521,-0.002 0.0784,-0.002 0.0201,0 0.0398,0.002 0.0599,0.002 v -0.0474 h 7.78597 V 80.183923 h -0.0779 -8.23653 -1.58548 v -0.04747 c -0.0201,1.22e-4 -0.0397,0.0021 -0.0598,0.0021 -5.47446,0 -9.88135,-4.519954 -9.88135,-10.134743 v -0.503076 c -0.0613,-0.448947 -0.0955,-0.9067 -0.0955,-1.373006 v -2.86623 -9.952089 z" />
    <g
       aria-label="afcs"
       id="text2366"
       style="font-size:10.5833px;line-height:1.25;font-family:'MS 33558';-inkscape-font-specification:'MS 33558, ';letter-spacing:0px;word-spacing:0px;fill:#00ff00;stroke-width:0.264583">
      <path
         d="m 95.357294,65.694017 -0.942578,-2.604492 -0.94878,2.604492 z m -0.942578,-2.604492 0.942578,2.604492 z m -2.393653,4.043164 q 0.496094,-1.367358 0.992188,-2.731616 0.499194,-1.367359 0.998388,-2.734717 0.10232,-0.282153 0.406177,-0.285254 0.303858,-0.0031 0.409277,0.285254 l 1.987476,5.481836 q 0.09302,0.437182 -0.26665,0.564306 -0.359668,0.127124 -0.555005,-0.260449 l -0.319361,-0.886767 h -2.526977 l -0.310059,0.865063 q -0.198437,0.390674 -0.564306,0.257349 -0.365869,-0.136426 -0.251148,-0.555005 z"
         style="font-size:6.35px;fill:#00ff00;stroke-width:0.264583"
         id="path2582" />
      <path
         d="m 97.425385,67.290819 v -5.469434 q 0.05581,-0.409277 0.440283,-0.440283 h 3.001362 q 0.43099,0.03411 0.43099,0.440283 0,0.403076 -0.43719,0.430982 h -2.564181 v 1.69602 h 1.999881 q 0.42788,0.03101 0.43408,0.418579 0.006,0.387574 -0.43408,0.452686 h -1.999881 v 2.471167 q -0.03101,0.427881 -0.42168,0.434082 -0.387573,0.0062 -0.449584,-0.434082 z"
         style="font-size:6.35px;fill:#00ff00;stroke-width:0.264583"
         id="path2584" />
      <path
         d="m 106.15973,66.738915 -0.0279,0.04031 q -0.009,0.0124 -0.0155,0.0217 -0.006,0.0093 -0.0124,0.0186 -0.42478,0.573608 -1.11621,0.818554 -0.68833,0.241846 -1.35805,-0.08992 -0.77825,-0.387573 -1.14412,-1.314648 -0.36277,-0.927075 -0.31316,-1.925464 0.0527,-1.001489 0.5271,-1.838647 0.47749,-0.837158 1.38286,-1.047998 0.5209,-0.120923 1.0387,0.102319 0.5178,0.220142 0.84956,0.620117 0.003,0 0.0155,0.0217 0.14263,0.186035 0.0589,0.409278 -0.0837,0.220141 -0.30696,0.275952 -0.23874,0.06201 -0.44028,-0.142627 -0.41548,-0.483692 -0.79995,-0.465088 -0.38447,0.0186 -0.68833,0.31626 -0.30386,0.297656 -0.5054,0.762744 -0.20153,0.465088 -0.24804,0.871264 -0.0558,0.452686 0.009,0.911573 0.0682,0.455786 0.28215,0.858862 0.37207,0.706934 0.93638,0.886768 0.56741,0.176733 1.10691,-0.542603 0.0248,-0.03101 0.0589,-0.08062 0.29146,-0.322461 0.61392,-0.06511 0.32556,0.254248 0.0961,0.576709 z"
         style="font-size:6.35px;fill:#00ff00;stroke-width:0.264583"
         id="path2586" />
      <path
         d="m 110.14399,64.351463 0.0496,0.0217 0.0558,0.02791 0.0496,0.02791 q 0.0217,0.0155 0.0465,0.03101 0.0279,0.0124 0.0527,0.0279 0.61391,0.403076 0.75964,1.116211 0.0558,0.279053 0.0248,0.573608 -0.0496,0.42168 -0.29765,0.781348 -0.24495,0.356567 -0.61702,0.551904 -0.39997,0.21084 -0.82786,0.21084 -0.71933,0 -1.37355,-0.182934 -0.65423,-0.186035 -0.93328,-0.989087 -0.0372,-0.10232 -0.0558,-0.21084 -0.0186,-0.108521 -0.0434,-0.217041 -0.0465,-0.223242 0.10852,-0.393774 0.15813,-0.170533 0.39067,-0.130225 0.24495,0.04961 0.34107,0.303857 l 0.009,0.02791 q 0.14883,0.672827 0.5178,0.803051 0.37207,0.130225 1.03249,0.117823 0.60772,0 0.83406,-0.570508 0.0992,-0.254248 0.031,-0.5271 -0.0682,-0.275952 -0.26975,-0.458887 -0.0899,-0.07751 -0.23565,-0.145727 l -1.43557,-0.629419 -0.0465,-0.02481 q -0.70383,-0.37207 -0.87436,-1.057299 -0.20774,-0.79375 0.28835,-1.423169 0.4992,-0.63252 1.30845,-0.63252 l 0.34106,0.0093 q 0.16743,0.03101 0.32246,0.06201 0.15503,0.02791 0.31316,0.09922 0.39068,0.182935 0.59842,0.502295 0.20773,0.319361 0.37517,0.691431 0.0155,0.03411 0.0279,0.08062 0.0341,0.151929 -0.031,0.275952 -0.0372,0.07751 -0.0775,0.117823 -0.0403,0.04031 -0.0651,0.05581 -0.16123,0.114722 -0.35347,0.06821 -0.19223,-0.04341 -0.29455,-0.248047 -0.0806,-0.179834 -0.17364,-0.365869 -0.0899,-0.189136 -0.25424,-0.313159 -0.0682,-0.04961 -0.13333,-0.07131 -0.062,-0.0248 -0.13953,-0.05271 l -0.20153,-0.03411 -0.28526,-0.0093 q -0.41548,0.0062 -0.63562,0.359668 -0.14883,0.226343 -0.11162,0.505396 0.0434,0.344165 0.32246,0.5333 0.0124,0.0093 0.0279,0.0217 0.0155,0.0093 0.0341,0.0186 l 0.0341,0.0155 0.0372,0.0155 z"
         style="font-size:6.35px;fill:#00ff00;stroke-width:0.264583"
         id="path2588" />
    </g>
    <g
       aria-label="stab aug"
       id="text2370"
       style="font-size:10.5833px;line-height:1.25;font-family:'MS 33558';-inkscape-font-specification:'MS 33558, ';letter-spacing:0px;word-spacing:0px;fill:#00ff00;stroke-width:0.264583">
      <path
         d="m 90.272657,78.178016 0.03307,0.01447 0.03721,0.0186 0.03307,0.0186 q 0.01447,0.01034 0.03101,0.02067 0.0186,0.0083 0.03514,0.0186 0.409277,0.268718 0.506428,0.74414 0.03721,0.186035 0.01654,0.382406 -0.03307,0.281119 -0.198438,0.520898 -0.163297,0.237711 -0.411344,0.367936 -0.26665,0.140559 -0.551904,0.140559 -0.479556,0 -0.915705,-0.121956 -0.436149,-0.124023 -0.622184,-0.659391 -0.02481,-0.06821 -0.03721,-0.140559 -0.0124,-0.07235 -0.02894,-0.144694 -0.03101,-0.148828 0.07235,-0.262516 0.10542,-0.113688 0.260449,-0.08682 0.163298,0.03307 0.227376,0.202572 l 0.0062,0.0186 q 0.09922,0.448551 0.345198,0.535368 0.248046,0.08682 0.688329,0.07855 0.405143,0 0.556038,-0.380338 0.06615,-0.169499 0.02067,-0.3514 -0.04547,-0.183968 -0.179834,-0.305924 -0.05994,-0.05168 -0.157096,-0.09715 l -0.957047,-0.419612 -0.03101,-0.01654 q -0.469221,-0.248047 -0.582909,-0.704866 -0.138493,-0.529167 0.192236,-0.948779 0.332796,-0.421679 0.872297,-0.421679 l 0.227376,0.0062 q 0.111621,0.02067 0.214974,0.04134 0.103353,0.0186 0.208773,0.06615 0.260449,0.121956 0.398941,0.334863 0.138493,0.212907 0.250114,0.460953 0.01033,0.02274 0.0186,0.05374 0.02274,0.101285 -0.02067,0.183968 -0.0248,0.05168 -0.05168,0.07855 -0.02687,0.02687 -0.04341,0.03721 -0.107486,0.07648 -0.235644,0.04548 -0.128157,-0.02894 -0.19637,-0.165364 -0.05374,-0.11989 -0.115755,-0.243913 -0.05994,-0.12609 -0.169499,-0.208773 -0.04548,-0.03307 -0.08888,-0.04754 -0.04134,-0.01654 -0.09302,-0.03514 l -0.134358,-0.02274 -0.190169,-0.0062 q -0.276986,0.0041 -0.423747,0.239779 -0.09922,0.150895 -0.07441,0.33693 0.02894,0.229443 0.214974,0.355533 0.0083,0.0062 0.0186,0.01447 0.01034,0.0062 0.02274,0.0124 l 0.02274,0.01034 0.0248,0.01034 z"
         style="font-size:4.23333px;fill:#00ff00;stroke-width:0.264583"
         id="path2591" />
      <path
         d="m 92.531949,80.141719 v -3.361033 h -0.75861 q -0.289387,-0.02274 -0.289387,-0.289387 0.0021,-0.268718 0.289387,-0.293522 h 2.098062 q 0.285253,0.02274 0.285253,0.293522 0.0021,0.268717 -0.285253,0.289387 h -0.756543 v 3.361033 q -0.04754,0.293522 -0.305924,0.289388 -0.256315,-0.0041 -0.276985,-0.289388 z"
         style="font-size:4.23333px;fill:#00ff00;stroke-width:0.264583"
         id="path2593" />
      <path
         d="m 97.013325,79.073051 -0.628385,-1.736327 -0.632519,1.736327 z m -0.628385,-1.736327 0.628385,1.736327 z m -1.595767,2.695441 q 0.330729,-0.911572 0.661458,-1.821076 0.332796,-0.911572 0.665592,-1.823143 0.06821,-0.188102 0.270784,-0.190169 0.202572,-0.0021 0.272852,0.190169 l 1.324982,3.654554 q 0.06201,0.291455 -0.177767,0.376204 -0.239778,0.08475 -0.370002,-0.173632 l -0.212907,-0.591178 h -1.68465 l -0.206706,0.576708 q -0.132292,0.260449 -0.376204,0.171566 -0.243913,-0.09095 -0.167432,-0.370003 z"
         style="font-size:4.23333px;fill:#00ff00;stroke-width:0.264583"
         id="path2595" />
      <path
         d="m 99.969215,76.197777 q 0.392745,0.03307 0.659395,0.237711 0.26871,0.204639 0.37207,0.494026 0.10335,0.287321 0.0269,0.613916 -0.0744,0.324528 -0.3638,0.597379 0.31832,0.334863 0.39687,0.723469 0.0785,0.388607 -0.0496,0.727604 -0.12609,0.33693 -0.44028,0.572574 -0.31419,0.235645 -0.779282,0.266651 h -0.0062 -1.099673 q -0.254248,-0.03514 -0.293522,-0.287321 v -3.652487 q 0.03514,-0.256315 0.293522,-0.293522 z m -0.183968,3.648353 q 0.351403,-0.01447 0.535363,-0.227376 0.18397,-0.212907 0.19017,-0.471289 0.008,-0.260449 -0.16536,-0.487825 -0.17363,-0.227376 -0.535368,-0.274918 h -0.833024 v 1.461408 z m 0.183968,-3.061309 h -0.992187 v 1.019058 h 0.998388 q 0.256314,-0.02687 0.380334,-0.183968 0.12609,-0.159163 0.12196,-0.338997 -0.002,-0.181901 -0.13022,-0.330729 -0.12816,-0.150895 -0.378275,-0.165364 z"
         style="font-size:4.23333px;fill:#00ff00;stroke-width:0.264583"
         id="path2597" />
      <path
         d="m 108.10308,79.073051 -0.62839,-1.736327 -0.63252,1.736327 z m -0.62839,-1.736327 0.62839,1.736327 z m -1.59576,2.695441 q 0.33072,-0.911572 0.66145,-1.821076 0.3328,-0.911572 0.6656,-1.823143 0.0682,-0.188102 0.27078,-0.190169 0.20257,-0.0021 0.27285,0.190169 l 1.32498,3.654554 q 0.062,0.291455 -0.17776,0.376204 -0.23978,0.08475 -0.37001,-0.173632 l -0.2129,-0.591178 h -1.68465 l -0.20671,0.576708 q -0.13229,0.260449 -0.3762,0.171566 -0.24392,-0.09095 -0.16743,-0.370003 z"
         style="font-size:4.23333px;fill:#00ff00;stroke-width:0.264583"
         id="path2599" />
      <path
         d="m 112.26819,79.035844 v 0.04134 q -0.006,0.103353 -0.008,0.124024 -0.0868,0.632519 -0.51883,0.934309 -0.43202,0.299723 -0.92191,0.281119 -0.48989,-0.02067 -0.8971,-0.3576 -0.40515,-0.33693 -0.44029,-0.981852 v -0.04134 -2.548679 q 0,-0.06201 0.0227,-0.111621 0.0992,-0.217041 0.32866,-0.171566 0.23151,0.04547 0.23151,0.283187 v 2.548679 q 0.031,0.475423 0.41755,0.711067 0.38861,0.235645 0.81649,-0.02067 0.19223,-0.113688 0.28112,-0.293522 0.091,-0.179834 0.10748,-0.396875 v -2.548679 q 0,-0.03721 0.004,-0.05581 0.0475,-0.254248 0.31212,-0.229443 0.26458,0.02481 0.26458,0.285254 z"
         style="font-size:4.23333px;fill:#00ff00;stroke-width:0.264583"
         id="path2601" />
      <path
         d="m 114.18642,78.725786 -0.0186,-0.0021 q -0.25218,-0.03101 -0.25218,-0.287321 0,-0.256315 0.25218,-0.287321 l 0.0186,-0.0041 h 0.0186 0.76274 q 0.11989,0 0.20464,0.08682 0.0868,0.08475 0.0868,0.204639 v 1.047997 l -0.0248,0.05374 -0.0145,0.03307 -0.0145,0.03101 -0.0165,0.03101 -0.0165,0.03101 -0.0145,0.03101 -0.0165,0.03101 -0.0186,0.031 q -0.40101,0.682129 -0.99632,0.667659 -0.59531,-0.01654 -1.00046,-0.67386 -0.19223,-0.312125 -0.28525,-0.781347 -0.093,-0.471288 -0.0558,-0.961181 0.0372,-0.491959 0.22737,-0.934309 0.19224,-0.444417 0.57258,-0.704866 0.47542,-0.32246 0.92604,-0.07441 0.45062,0.24598 0.67386,0.692464 l 0.0165,0.03307 0.0124,0.02894 0.0165,0.03101 q 0.0703,0.19637 -0.0537,0.320393 -0.11989,0.117822 -0.26045,0.08888 -0.14056,-0.03101 -0.21704,-0.167432 -0.24184,-0.599446 -0.62425,-0.522965 -0.38034,0.07648 -0.57051,0.624251 -0.18603,0.529166 -0.14676,1.138947 0.0393,0.607715 0.39688,1.0604 0.24598,0.316259 0.50023,0.202571 0.25424,-0.113688 0.401,-0.423746 l 0.0227,-0.04547 v -0.630452 z"
         style="font-size:4.23333px;fill:#00ff00;stroke-width:0.264583"
         id="path2603" />
    </g>
    <path
       style="fill:#ff0000;stroke:none;stroke-width:0.0533333"
       id="path3035"
       sodipodi:type="arc"
       sodipodi:cx="54.509975"
       sodipodi:cy="101.32969"
       sodipodi:rx="6.3499999"
       sodipodi:ry="6.3499999"
       sodipodi:start="0"
       sodipodi:end="6.1693026"
       sodipodi:open="true"
       sodipodi:arc-type="arc"
       d="m 60.859975,101.32969 a 6.3499999,6.3499999 0 0 1 -6.169235,6.34743 6.3499999,6.3499999 0 0 1 -6.520473,-5.98605 6.3499999,6.3499999 0 0 1 5.798001,-6.688233 6.3499999,6.3499999 0 0 1 6.850574,5.605263" />
    <path
       style="fill:#ff0000;stroke:none;stroke-width:0.0533332"
       id="path3035-1"
       sodipodi:type="arc"
       sodipodi:cx="101.48779"
       sodipodi:cy="100.83091"
       sodipodi:rx="6.3499999"
       sodipodi:ry="6.3499999"
       sodipodi:start="0"
       sodipodi:end="6.1693026"
       sodipodi:open="true"
       sodipodi:arc-type="arc"
       d="m 107.83779,100.83091 a 6.3499999,6.3499999 0 0 1 -6.16923,6.34743 6.3499999,6.3499999 0 0 1 -6.520475,-5.98605 6.3499999,6.3499999 0 0 1 5.798005,-6.688232 6.3499999,6.3499999 0 0 1 6.85057,5.605262" />
    <path
       style="fill:#ff0000;stroke:none;stroke-width:0.0533332"
       id="path3035-2"
       sodipodi:type="arc"
       sodipodi:cx="148.98283"
       sodipodi:cy="101.62467"
       sodipodi:rx="6.3499999"
       sodipodi:ry="6.3499999"
       sodipodi:start="0"
       sodipodi:end="6.1693026"
       sodipodi:open="true"
       sodipodi:arc-type="arc"
       d="m 155.33283,101.62467 a 6.3499999,6.3499999 0 0 1 -6.16923,6.34743 6.3499999,6.3499999 0 0 1 -6.52047,-5.98605 6.3499999,6.3499999 0 0 1 5.798,-6.68823 6.3499999,6.3499999 0 0 1 6.85057,5.60526" />
    <path
       style="fill:#ff0000;stroke:none;stroke-width:0.0533332"
       id="path3035-2-4"
       sodipodi:type="arc"
       sodipodi:cx="55.200809"
       sodipodi:cy="144.22267"
       sodipodi:rx="6.3499999"
       sodipodi:ry="6.3499999"
       sodipodi:start="0"
       sodipodi:end="6.1693026"
       sodipodi:open="true"
       sodipodi:arc-type="arc"
       d="m 61.550809,144.22267 a 6.3499999,6.3499999 0 0 1 -6.169235,6.34743 6.3499999,6.3499999 0 0 1 -6.520473,-5.98605 6.3499999,6.3499999 0 0 1 5.798001,-6.68823 6.3499999,6.3499999 0 0 1 6.850574,5.60526" />
    <g
       aria-label="autopilot"
       id="text2370-9"
       style="font-size:10.5833px;line-height:1.25;font-family:'MS 33558';-inkscape-font-specification:'MS 33558, ';letter-spacing:0px;word-spacing:0px;fill:#00ff00;stroke-width:0.264583">
      <path
         d="m 89.679661,120.87839 -0.628385,-1.73632 -0.632519,1.73632 z m -0.628385,-1.73632 0.628385,1.73632 z m -1.595767,2.69544 q 0.330729,-0.91157 0.661458,-1.82108 0.332796,-0.91157 0.665592,-1.82314 0.06821,-0.1881 0.270784,-0.19017 0.202572,-0.002 0.272852,0.19017 l 1.324982,3.65455 q 0.06201,0.29146 -0.177766,0.37621 -0.239779,0.0847 -0.370003,-0.17363 l -0.212907,-0.59118 h -1.68465 l -0.206706,0.57671 q -0.132292,0.26044 -0.376204,0.17156 -0.243913,-0.0909 -0.167432,-0.37 z"
         style="font-size:4.23333px;fill:#00ff00;stroke-width:0.264583"
         id="path2712" />
      <path
         d="m 93.844778,120.84119 v 0.0413 q -0.0062,0.10335 -0.0083,0.12402 -0.08682,0.63252 -0.518831,0.93431 -0.432015,0.29972 -0.921907,0.28112 -0.489892,-0.0207 -0.897102,-0.3576 -0.405143,-0.33693 -0.440283,-0.98185 v -0.0413 -2.54868 q 0,-0.062 0.02274,-0.11162 0.09922,-0.21704 0.328662,-0.17157 0.23151,0.0455 0.23151,0.28319 v 2.54868 q 0.03101,0.47542 0.417545,0.71106 0.388607,0.23565 0.816487,-0.0207 0.192236,-0.11368 0.28112,-0.29352 0.09095,-0.17983 0.107487,-0.39687 v -2.54868 q 0,-0.0372 0.0041,-0.0558 0.04754,-0.25425 0.312125,-0.22945 0.264583,0.0248 0.264583,0.28526 z"
         style="font-size:4.23333px;fill:#00ff00;stroke-width:0.264583"
         id="path2714" />
      <path
         d="m 95.397137,121.94706 v -3.36103 h -0.75861 q -0.289387,-0.0227 -0.289387,-0.28939 0.0021,-0.26871 0.289387,-0.29352 h 2.098062 q 0.285254,0.0227 0.285254,0.29352 0.0021,0.26872 -0.285254,0.28939 h -0.756542 v 3.36103 q -0.04754,0.29352 -0.305925,0.28939 -0.256315,-0.004 -0.276985,-0.28939 z"
         style="font-size:4.23333px;fill:#00ff00;stroke-width:0.264583"
         id="path2716" />
      <path
         d="m 100.38908,119.22062 q 0.19017,0.57257 0.14262,1.18855 -0.0455,0.61599 -0.33693,1.12448 -0.18396,0.31626 -0.502291,0.53744 -0.318327,0.22117 -0.702799,0.15502 -0.626318,-0.10955 -0.959114,-0.65318 -0.332796,-0.54364 -0.382405,-1.20923 -0.04754,-0.66766 0.179834,-1.30018 0.229443,-0.63252 0.72967,-0.91984 0.243913,-0.14056 0.510563,-0.14056 0.508496,0 0.830956,0.38447 0.322456,0.38241 0.489896,0.83303 z m -1.304316,-0.63046 q -0.380338,0 -0.576708,0.40928 -0.194303,0.40928 -0.24598,0.69867 -0.03927,0.21084 -0.02894,0.51056 0.01033,0.29972 0.08682,0.59324 0.07648,0.29146 0.229443,0.5271 0.152962,0.23358 0.401009,0.31006 0.289388,0.0909 0.49816,-0.11369 0.21084,-0.2067 0.318327,-0.43821 0.109554,-0.23771 0.148828,-0.62425 0.04134,-0.38654 -0.0186,-0.77102 -0.05788,-0.38653 -0.229443,-0.69453 -0.171566,-0.31005 -0.487825,-0.3948 -0.04134,-0.0124 -0.09508,-0.0124 z"
         style="font-size:4.23333px;fill:#00ff00;stroke-width:0.264583"
         id="path2718" />
      <path
         d="m 102.67731,118.00312 h 0.0393 q 0.26458,0.0186 0.48783,0.11989 0.42788,0.2005 0.60564,0.65939 0.17777,0.45889 -0.004,0.89504 -0.14676,0.34519 -0.43408,0.54156 -0.28732,0.19431 -0.65526,0.21704 l -0.0393,0.002 h -1.00459 v 1.50689 q -0.0372,0.29145 -0.29352,0.29145 -0.25632,0 -0.29146,-0.29145 v -3.65249 q 0.031,-0.25632 0.27285,-0.28939 h 0.0186 z m 0,0.58291 h -1.00459 v 1.26711 h 1.00459 q 0.23564,0 0.41547,-0.1571 0.18191,-0.1571 0.21291,-0.39274 0.0372,-0.28526 -0.15296,-0.50023 -0.19017,-0.21704 -0.47542,-0.21704 z"
         style="font-size:4.23333px;fill:#00ff00;stroke-width:0.264583"
         id="path2720" />
      <path
         d="m 105.07096,121.9512 q -0.0455,0.29145 -0.29559,0.28938 -0.24805,0 -0.29146,-0.28938 v -3.65456 q 0.0434,-0.29145 0.29146,-0.29145 0.25011,-0.002 0.29559,0.29145 z"
         style="font-size:4.23333px;fill:#00ff00;stroke-width:0.264583"
         id="path2722" />
      <path
         d="m 105.95152,122.23852 q -0.25424,-0.0165 -0.29352,-0.28732 v -3.65456 q 0.0434,-0.29765 0.30179,-0.29145 0.25838,0.004 0.28112,0.29145 v 3.36517 l 1.90789,-0.002 q 0.29352,0.0331 0.28939,0.29766 -0.002,0.26251 -0.29145,0.28112 z"
         style="font-size:4.23333px;fill:#00ff00;stroke-width:0.264583"
         id="path2724" />
      <path
         d="m 111.77649,119.22062 q 0.19016,0.57257 0.14262,1.18855 -0.0455,0.61599 -0.33693,1.12448 -0.18397,0.31626 -0.50229,0.53744 -0.31833,0.22117 -0.7028,0.15502 -0.62632,-0.10955 -0.95911,-0.65318 -0.3328,-0.54364 -0.38241,-1.20923 -0.0475,-0.66766 0.17983,-1.30018 0.22945,-0.63252 0.72967,-0.91984 0.24392,-0.14056 0.51057,-0.14056 0.50849,0 0.83095,0.38447 0.32246,0.38241 0.4899,0.83303 z m -1.30432,-0.63046 q -0.38033,0 -0.5767,0.40928 -0.19431,0.40928 -0.24598,0.69867 -0.0393,0.21084 -0.0289,0.51056 0.0103,0.29972 0.0868,0.59324 0.0765,0.29146 0.22945,0.5271 0.15296,0.23358 0.40101,0.31006 0.28938,0.0909 0.49816,-0.11369 0.21084,-0.2067 0.31832,-0.43821 0.10956,-0.23771 0.14883,-0.62425 0.0413,-0.38654 -0.0186,-0.77102 -0.0579,-0.38653 -0.22945,-0.69453 -0.17156,-0.31005 -0.48782,-0.3948 -0.0413,-0.0124 -0.0951,-0.0124 z"
         style="font-size:4.23333px;fill:#00ff00;stroke-width:0.264583"
         id="path2726" />
      <path
         d="m 113.52315,121.94706 v -3.36103 h -0.75861 q -0.28939,-0.0227 -0.28939,-0.28939 0.002,-0.26871 0.28939,-0.29352 h 2.09806 q 0.28525,0.0227 0.28525,0.29352 0.002,0.26872 -0.28525,0.28939 h -0.75654 v 3.36103 q -0.0476,0.29352 -0.30593,0.28939 -0.25631,-0.004 -0.27698,-0.28939 z"
         style="font-size:4.23333px;fill:#00ff00;stroke-width:0.264583"
         id="path2728" />
    </g>
    <path
       style="fill:#ff0000;stroke:none;stroke-width:0.0533332"
       id="path3035-2-4-7"
       sodipodi:type="arc"
       sodipodi:cx="85.539665"
       sodipodi:cy="144.22267"
       sodipodi:rx="6.3499999"
       sodipodi:ry="6.3499999"
       sodipodi:start="0"
       sodipodi:end="6.1693026"
       sodipodi:open="true"
       sodipodi:arc-type="arc"
       d="m 91.889665,144.22267 a 6.3499999,6.3499999 0 0 1 -6.169235,6.34743 6.3499999,6.3499999 0 0 1 -6.520473,-5.98605 6.3499999,6.3499999 0 0 1 5.798001,-6.68823 6.3499999,6.3499999 0 0 1 6.850574,5.60526" />
    <path
       style="fill:#ff0000;stroke:none;stroke-width:0.0533332"
       id="path3035-2-4-8"
       sodipodi:type="arc"
       sodipodi:cx="117.466"
       sodipodi:cy="144.22267"
       sodipodi:rx="6.3499999"
       sodipodi:ry="6.3499999"
       sodipodi:start="0"
       sodipodi:end="6.1693026"
       sodipodi:open="true"
       sodipodi:arc-type="arc"
       d="m 123.816,144.22267 a 6.3499999,6.3499999 0 0 1 -6.16923,6.34743 6.3499999,6.3499999 0 0 1 -6.52047,-5.98605 6.3499999,6.3499999 0 0 1 5.798,-6.68823 6.3499999,6.3499999 0 0 1 6.85057,5.60526" />
    <path
       style="fill:#ff0000;stroke:none;stroke-width:0.0533332"
       id="path3035-2-4-1"
       sodipodi:type="arc"
       sodipodi:cx="148.33415"
       sodipodi:cy="144.22267"
       sodipodi:rx="6.3499999"
       sodipodi:ry="6.3499999"
       sodipodi:start="0"
       sodipodi:end="6.1693026"
       sodipodi:open="true"
       sodipodi:arc-type="arc"
       d="m 154.68415,144.22267 a 6.3499999,6.3499999 0 0 1 -6.16923,6.34743 6.3499999,6.3499999 0 0 1 -6.52048,-5.98605 6.3499999,6.3499999 0 0 1 5.79801,-6.68823 6.3499999,6.3499999 0 0 1 6.85057,5.60526" />
    <g
       aria-label="pitch"
       id="text2370-6"
       style="font-size:10.5833px;line-height:1.25;font-family:'MS 33558';-inkscape-font-specification:'MS 33558, ';letter-spacing:0px;word-spacing:0px;fill:#00ff00;stroke-width:0.264583">
      <path
         d="m 49.585408,85.723854 h 0.03927 q 0.264583,0.0186 0.487825,0.119889 0.42788,0.200505 0.605647,0.659391 0.177767,0.458886 -0.0041,0.895035 -0.146761,0.345198 -0.434082,0.541569 -0.28732,0.194303 -0.655256,0.21704 l -0.03927,0.0021 h -1.004589 v 1.506883 q -0.03721,0.291455 -0.293522,0.291455 -0.256315,0 -0.291455,-0.291455 v -3.652487 q 0.03101,-0.256315 0.272851,-0.289388 h 0.0186 z m 0,0.58291 h -1.004589 v 1.267105 h 1.004589 q 0.235644,0 0.415478,-0.157096 0.181901,-0.157097 0.212907,-0.392741 0.03721,-0.285254 -0.152963,-0.500227 -0.190169,-0.217041 -0.475422,-0.217041 z"
         style="font-size:4.23333px;fill:#00ff00;stroke-width:0.264583"
         id="path2608" />
      <path
         d="m 51.979058,89.67193 q -0.04548,0.291455 -0.295589,0.289388 -0.248047,0 -0.291455,-0.289388 v -3.654554 q 0.04341,-0.291455 0.291455,-0.291455 0.250114,-0.0021 0.295589,0.291455 z"
         style="font-size:4.23333px;fill:#00ff00;stroke-width:0.264583"
         id="path2610" />
      <path
         d="M 53.614099,89.667796 V 86.306764 H 52.85549 q -0.289388,-0.02274 -0.289388,-0.289388 0.0021,-0.268717 0.289388,-0.293522 h 2.098061 q 0.285254,0.02274 0.285254,0.293522 0.0021,0.268717 -0.285254,0.289388 h -0.756542 v 3.361032 q -0.04754,0.293522 -0.305924,0.289388 -0.256315,-0.0041 -0.276986,-0.289388 z"
         style="font-size:4.23333px;fill:#00ff00;stroke-width:0.264583"
         id="path2612" />
      <path
         d="m 58.519222,89.295726 -0.0186,0.02687 q -0.0062,0.0083 -0.01034,0.01447 -0.0041,0.0062 -0.0083,0.0124 -0.283187,0.382405 -0.74414,0.545702 -0.458886,0.161231 -0.90537,-0.05994 -0.518831,-0.258382 -0.762744,-0.876432 -0.241845,-0.61805 -0.208772,-1.283641 0.03514,-0.667659 0.351399,-1.225764 0.318327,-0.558105 0.921907,-0.698665 0.347265,-0.08061 0.692463,0.06821 0.345199,0.146761 0.566374,0.413411 0.0021,0 0.01033,0.01447 0.09508,0.124023 0.03927,0.272851 -0.05581,0.146761 -0.204639,0.183968 -0.159163,0.04134 -0.293521,-0.09508 -0.276986,-0.322461 -0.533301,-0.310058 -0.256315,0.0124 -0.458886,0.210839 -0.202572,0.198438 -0.33693,0.508496 -0.134359,0.310058 -0.165365,0.580842 -0.03721,0.301791 0.0062,0.607715 0.04547,0.303857 0.188102,0.572574 0.248046,0.471289 0.62425,0.591178 0.378272,0.117822 0.737939,-0.361735 0.01654,-0.02067 0.03927,-0.05374 0.194303,-0.214974 0.409277,-0.04341 0.217041,0.169498 0.06408,0.384472 z"
         style="font-size:4.23333px;fill:#00ff00;stroke-width:0.264583"
         id="path2614" />
      <path
         d="m 59.09593,89.67193 v -3.654554 q 0.04341,-0.297656 0.30179,-0.291455 0.258382,0.0041 0.28112,0.291455 V 87.3837 h 1.663979 v -1.366324 q 0.04341,-0.291455 0.291455,-0.291455 0.250114,-0.0021 0.295589,0.291455 v 3.654554 q -0.04547,0.291455 -0.295589,0.289388 -0.248046,0 -0.291455,-0.289388 V 87.970743 H 59.67884 v 1.701187 q -0.02274,0.285254 -0.28112,0.289388 -0.258382,0.0041 -0.30179,-0.289388 z"
         style="font-size:4.23333px;fill:#00ff00;stroke-width:0.264583"
         id="path2616" />
    </g>
    <g
       aria-label="roll"
       id="text2370-6-0"
       style="font-size:10.5833px;line-height:1.25;font-family:'MS 33558';-inkscape-font-specification:'MS 33558, ';letter-spacing:0px;word-spacing:0px;fill:#00ff00;stroke-width:0.264583">
      <path
         d="m 97.721058,89.240704 q 0.132292,0.233577 -0.07441,0.39274 -0.09922,0.07028 -0.229443,0.04754 -0.128158,-0.02274 -0.188102,-0.128158 L 96.21004,87.942593 H 95.693276 V 89.3978 q 0,0.179834 -0.163297,0.260449 -0.163297,0.07855 -0.305924,-0.03101 -0.113688,-0.08475 -0.113688,-0.229443 v -3.652487 q 0,-0.119889 0.08268,-0.204639 0.08475,-0.08475 0.206706,-0.08475 h 1.283641 q 0.463021,0 0.804085,0.295589 0.341064,0.293522 0.423746,0.746207 0.08682,0.485758 -0.206705,0.909504 -0.291455,0.42168 -0.775146,0.51263 l -0.03927,0.0062 z M 96.683396,87.36175 q 0.21084,0 0.388607,-0.128157 0.179833,-0.128158 0.241845,-0.334863 0.09715,-0.318327 -0.08888,-0.574642 -0.186035,-0.258382 -0.51263,-0.285253 h -1.019059 v 1.322915 z"
         style="font-size:4.23333px;fill:#00ff00;stroke-width:0.264583"
         id="path2631" />
      <path
         d="m 101.22885,86.673421 q 0.19017,0.572574 0.14263,1.188557 -0.0455,0.615982 -0.33693,1.124478 -0.18397,0.316259 -0.5023,0.537434 -0.31832,0.221175 -0.702795,0.155029 -0.626318,-0.109553 -0.959114,-0.653189 -0.332796,-0.543636 -0.382405,-1.209228 -0.04754,-0.667659 0.179833,-1.300178 0.229444,-0.632519 0.729671,-0.919839 0.243913,-0.14056 0.510563,-0.14056 0.508497,0 0.830957,0.384472 0.32246,0.382406 0.48989,0.833024 z m -1.304311,-0.630452 q -0.380338,0 -0.576708,0.409277 -0.194303,0.409277 -0.24598,0.698665 -0.03927,0.210839 -0.02894,0.510562 0.01034,0.299723 0.08682,0.593245 0.07648,0.291455 0.229443,0.527099 0.152962,0.233578 0.401009,0.310059 0.289389,0.09095 0.498159,-0.113688 0.21084,-0.206706 0.31833,-0.438216 0.10955,-0.237712 0.14883,-0.624251 0.0413,-0.386539 -0.0186,-0.771012 -0.0579,-0.386539 -0.22944,-0.69453 -0.17157,-0.310059 -0.48783,-0.394808 -0.04134,-0.0124 -0.09508,-0.0124 z"
         style="font-size:4.23333px;fill:#00ff00;stroke-width:0.264583"
         id="path2633" />
      <path
         d="m 102.22104,89.691322 q -0.25425,-0.01654 -0.29352,-0.287321 v -3.654554 q 0.0434,-0.297656 0.30179,-0.291455 0.25838,0.0041 0.28112,0.291455 v 3.365166 l 1.90789,-0.0021 q 0.29352,0.03307 0.28939,0.297656 -0.002,0.262516 -0.29146,0.28112 z"
         style="font-size:4.23333px;fill:#00ff00;stroke-width:0.264583"
         id="path2635" />
      <path
         d="m 105.59034,89.691322 q -0.25425,-0.01654 -0.29352,-0.287321 v -3.654554 q 0.0434,-0.297656 0.30179,-0.291455 0.25838,0.0041 0.28112,0.291455 v 3.365166 l 1.90789,-0.0021 q 0.29352,0.03307 0.28939,0.297656 -0.002,0.262516 -0.29146,0.28112 z"
         style="font-size:4.23333px;fill:#00ff00;stroke-width:0.264583"
         id="path2637" />
    </g>
    <g
       aria-label="yaw"
       id="text2370-6-3"
       style="font-size:10.5833px;line-height:1.25;font-family:'MS 33558';-inkscape-font-specification:'MS 33558, ';letter-spacing:0px;word-spacing:0px;fill:#00ff00;stroke-width:0.264583"
       transform="translate(0.14629309)">
      <path
         d="m 145.68304,85.34224 q 0.16123,-0.241845 0.38861,-0.115755 0.22944,0.126091 0.11782,0.394808 l -1.18855,2.122866 v 1.38286 q -0.0186,0.293522 -0.28939,0.293522 -0.26872,0 -0.28732,-0.293522 v -1.38286 l -1.18649,-2.122866 q -0.10956,-0.26665 0.11162,-0.390674 0.22117,-0.12609 0.39481,0.111621 l 0.96944,1.732193 z"
         style="font-size:4.23333px;fill:#00ff00;stroke-width:0.264583"
         id="path2652" />
      <path
         d="m 148.97173,88.066619 -0.62839,-1.736326 -0.63252,1.736326 z m -0.62839,-1.736326 0.62839,1.736326 z m -1.59576,2.69544 q 0.33073,-0.911571 0.66145,-1.821076 0.3328,-0.911571 0.6656,-1.823143 0.0682,-0.188102 0.27078,-0.190169 0.20257,-0.0021 0.27285,0.190169 l 1.32498,3.654555 q 0.062,0.291454 -0.17776,0.376204 -0.23978,0.08475 -0.37,-0.173633 l -0.21291,-0.591178 h -1.68465 l -0.20671,0.576709 q -0.13229,0.260449 -0.3762,0.171565 -0.24391,-0.09095 -0.16743,-0.370003 z"
         style="font-size:4.23333px;fill:#00ff00;stroke-width:0.264583"
         id="path2654" />
      <path
         d="m 152.69036,85.42699 0.72347,2.472198 0.48369,-2.472198 q 0.0868,-0.279053 0.339,-0.227377 0.25425,0.05168 0.23358,0.33693 l -0.7152,3.650421 q -0.0661,0.229443 -0.27079,0.237711 -0.20257,0.0083 -0.29352,-0.208773 l -0.78135,-2.666501 -0.77514,2.666501 q -0.0951,0.223242 -0.29146,0.208773 -0.19637,-0.01447 -0.27698,-0.237711 l -0.71521,-3.650421 q 0,-0.295588 0.23565,-0.338997 0.23564,-0.04547 0.34313,0.229444 l 0.47749,2.476332 0.72347,-2.476332 q 0.0889,-0.204639 0.28319,-0.21084 0.19637,-0.0062 0.27698,0.21084 z"
         style="font-size:4.23333px;fill:#00ff00;stroke-width:0.264583"
         id="path2656" />
    </g>
    <g
       aria-label="on"
       id="text3164"
       style="font-size:4.23333px;line-height:1.25;font-family:'MS 33558';-inkscape-font-specification:'MS 33558, ';letter-spacing:0px;word-spacing:0px;fill:#00ff00;stroke-width:0.264583">
      <path
         d="m 76.973259,92.187299 q 0.190169,0.572574 0.142627,1.188557 -0.04548,0.615982 -0.33693,1.124478 -0.183968,0.316259 -0.502295,0.537434 -0.318326,0.221175 -0.702798,0.155029 -0.626318,-0.109554 -0.959114,-0.653189 -0.332796,-0.543636 -0.382405,-1.209228 -0.04754,-0.667659 0.179833,-1.300178 0.229444,-0.632519 0.729671,-0.919839 0.243913,-0.14056 0.510563,-0.14056 0.508495,0 0.830956,0.384472 0.322461,0.382405 0.489892,0.833024 z m -1.304312,-0.630452 q -0.380338,0 -0.576708,0.409277 -0.194304,0.409277 -0.24598,0.698664 -0.03927,0.21084 -0.02894,0.510563 0.01034,0.299723 0.08682,0.593245 0.07648,0.291455 0.229443,0.527099 0.152962,0.233578 0.401009,0.310059 0.289387,0.09095 0.49816,-0.113688 0.21084,-0.206706 0.318326,-0.438216 0.109554,-0.237712 0.148828,-0.624251 0.04134,-0.386539 -0.0186,-0.771012 -0.05788,-0.386539 -0.229443,-0.69453 -0.171566,-0.310059 -0.487825,-0.394808 -0.04134,-0.0124 -0.09508,-0.0124 z"
         style="font-size:4.23333px;fill:#00ff00;stroke-width:0.264583"
         id="path2619" />
      <path
         d="m 80.526528,94.917879 q 0,0.217041 -0.21084,0.276985 -0.208773,0.05788 -0.324528,-0.124023 l -1.736326,-2.784324 v 2.631362 q -0.04548,0.289388 -0.293522,0.289388 -0.24598,0 -0.289388,-0.289388 v -3.65042 q 0.03101,-0.214974 0.219108,-0.283187 0.190169,-0.06821 0.316259,0.128158 l 1.736327,2.788458 v -2.633429 q 0.03927,-0.295589 0.299723,-0.291455 0.262516,0.0021 0.283187,0.291455 z"
         style="font-size:4.23333px;fill:#00ff00;stroke-width:0.264583"
         id="path2621" />
    </g>
    <g
       aria-label="on"
       id="text3164-6"
       style="font-size:4.23333px;line-height:1.25;font-family:'MS 33558';-inkscape-font-specification:'MS 33558, ';letter-spacing:0px;word-spacing:0px;fill:#00ff00;stroke-width:0.264583">
      <path
         d="m 125.67641,92.187299 q 0.19017,0.572574 0.14262,1.188557 -0.0455,0.615982 -0.33693,1.124478 -0.18396,0.316259 -0.50229,0.537434 -0.31833,0.221175 -0.7028,0.155029 -0.62632,-0.109554 -0.95911,-0.653189 -0.3328,-0.543636 -0.38241,-1.209228 -0.0475,-0.667659 0.17984,-1.300178 0.22944,-0.632519 0.72967,-0.919839 0.24391,-0.14056 0.51056,-0.14056 0.50849,0 0.83095,0.384472 0.32247,0.382405 0.4899,0.833024 z m -1.30431,-0.630452 q -0.38034,0 -0.57671,0.409277 -0.19431,0.409277 -0.24598,0.698664 -0.0393,0.21084 -0.0289,0.510563 0.0103,0.299723 0.0868,0.593245 0.0765,0.291455 0.22945,0.527099 0.15296,0.233578 0.40101,0.310059 0.28938,0.09095 0.49816,-0.113688 0.21084,-0.206706 0.31832,-0.438216 0.10956,-0.237712 0.14883,-0.624251 0.0413,-0.386539 -0.0186,-0.771012 -0.0579,-0.386539 -0.22945,-0.69453 -0.17156,-0.310059 -0.48782,-0.394808 -0.0413,-0.0124 -0.0951,-0.0124 z"
         style="font-size:4.23333px;fill:#00ff00;stroke-width:0.264583"
         id="path2640" />
      <path
         d="m 129.22968,94.917879 q 0,0.217041 -0.21084,0.276985 -0.20878,0.05788 -0.32453,-0.124023 l -1.73633,-2.784324 v 2.631362 q -0.0455,0.289388 -0.29352,0.289388 -0.24598,0 -0.28939,-0.289388 v -3.65042 q 0.031,-0.214974 0.21911,-0.283187 0.19017,-0.06821 0.31626,0.128158 l 1.73633,2.788458 v -2.633429 q 0.0393,-0.295589 0.29972,-0.291455 0.26251,0.0021 0.28319,0.291455 z"
         style="font-size:4.23333px;fill:#00ff00;stroke-width:0.264583"
         id="path2642" />
    </g>
    <g
       aria-label="off"
       id="text3164-67"
       style="font-size:4.23333px;line-height:1.25;font-family:'MS 33558';-inkscape-font-specification:'MS 33558, ';letter-spacing:0px;word-spacing:0px;fill:#00ff00;stroke-width:0.264583">
      <path
         d="m 75.899506,107.09112 q 0.190169,0.57258 0.142627,1.18856 -0.04548,0.61598 -0.33693,1.12448 -0.183968,0.31626 -0.502295,0.53743 -0.318326,0.22118 -0.702799,0.15503 -0.626318,-0.10955 -0.959114,-0.65319 -0.332795,-0.54363 -0.382405,-1.20923 -0.04754,-0.66765 0.179834,-1.30017 0.229443,-0.63252 0.729671,-0.91984 0.243912,-0.14056 0.510562,-0.14056 0.508496,0 0.830957,0.38447 0.32246,0.3824 0.489892,0.83302 z m -1.304312,-0.63045 q -0.380338,0 -0.576709,0.40928 -0.194303,0.40927 -0.245979,0.69866 -0.03927,0.21084 -0.02894,0.51056 0.01033,0.29973 0.08682,0.59325 0.07648,0.29145 0.229443,0.5271 0.152963,0.23358 0.401009,0.31006 0.289388,0.091 0.498161,-0.11369 0.210839,-0.20671 0.318326,-0.43822 0.109554,-0.23771 0.148828,-0.62425 0.04134,-0.38654 -0.0186,-0.77101 -0.05788,-0.38654 -0.229444,-0.69453 -0.171565,-0.31006 -0.487825,-0.39481 -0.04134,-0.0124 -0.09508,-0.0124 z"
         style="font-size:4.23333px;fill:#00ff00;stroke-width:0.264583"
         id="path2624" />
      <path
         d="m 76.598171,109.81343 v -3.64628 q 0.03721,-0.27285 0.293521,-0.29352 h 2.00091 q 0.287321,0.0227 0.287321,0.29352 0,0.26872 -0.291455,0.28732 h -1.709455 v 1.13068 h 1.333251 q 0.285254,0.0207 0.289388,0.27905 0.0041,0.25838 -0.289388,0.30179 h -1.333251 v 1.64744 q -0.02067,0.28526 -0.281119,0.28939 -0.258382,0.004 -0.299723,-0.28939 z"
         style="font-size:4.23333px;fill:#00ff00;stroke-width:0.264583"
         id="path2626" />
      <path
         d="m 79.758698,109.81343 v -3.64628 q 0.03721,-0.27285 0.293522,-0.29352 h 2.00091 q 0.287321,0.0227 0.287321,0.29352 0,0.26872 -0.291455,0.28732 h -1.709455 v 1.13068 h 1.333251 q 0.285254,0.0207 0.289388,0.27905 0.0041,0.25838 -0.289388,0.30179 h -1.333251 v 1.64744 q -0.02067,0.28526 -0.281119,0.28939 -0.258382,0.004 -0.299724,-0.28939 z"
         style="font-size:4.23333px;fill:#00ff00;stroke-width:0.264583"
         id="path2628" />
    </g>
    <g
       aria-label="off"
       id="text3164-67-6"
       style="font-size:4.23333px;line-height:1.25;font-family:'MS 33558';-inkscape-font-specification:'MS 33558, ';letter-spacing:0px;word-spacing:0px;fill:#00ff00;stroke-width:0.264583">
      <path
         d="m 124.8625,107.09112 q 0.19016,0.57258 0.14262,1.18856 -0.0455,0.61598 -0.33693,1.12448 -0.18397,0.31626 -0.50229,0.53743 -0.31833,0.22118 -0.7028,0.15503 -0.62632,-0.10955 -0.95911,-0.65319 -0.3328,-0.54363 -0.38241,-1.20923 -0.0475,-0.66765 0.17983,-1.30017 0.22945,-0.63252 0.72967,-0.91984 0.24392,-0.14056 0.51057,-0.14056 0.50849,0 0.83095,0.38447 0.32246,0.3824 0.4899,0.83302 z m -1.30432,-0.63045 q -0.38033,0 -0.5767,0.40928 -0.19431,0.40927 -0.24598,0.69866 -0.0393,0.21084 -0.0289,0.51056 0.0103,0.29973 0.0868,0.59325 0.0765,0.29145 0.22945,0.5271 0.15296,0.23358 0.401,0.31006 0.28939,0.091 0.49817,-0.11369 0.21084,-0.20671 0.31832,-0.43822 0.10956,-0.23771 0.14883,-0.62425 0.0413,-0.38654 -0.0186,-0.77101 -0.0579,-0.38654 -0.22945,-0.69453 -0.17156,-0.31006 -0.48782,-0.39481 -0.0413,-0.0124 -0.0951,-0.0124 z"
         style="font-size:4.23333px;fill:#00ff00;stroke-width:0.264583"
         id="path2645" />
      <path
         d="m 125.56116,109.81343 v -3.64628 q 0.0372,-0.27285 0.29352,-0.29352 h 2.00091 q 0.28732,0.0227 0.28732,0.29352 0,0.26872 -0.29145,0.28732 H 126.142 v 1.13068 h 1.33325 q 0.28526,0.0207 0.28939,0.27905 0.004,0.25838 -0.28939,0.30179 H 126.142 v 1.64744 q -0.0207,0.28526 -0.28112,0.28939 -0.25838,0.004 -0.29972,-0.28939 z"
         style="font-size:4.23333px;fill:#00ff00;stroke-width:0.264583"
         id="path2647" />
      <path
         d="m 128.72169,109.81343 v -3.64628 q 0.0372,-0.27285 0.29352,-0.29352 h 2.00091 q 0.28732,0.0227 0.28732,0.29352 0,0.26872 -0.29145,0.28732 h -1.70946 v 1.13068 h 1.33325 q 0.28526,0.0207 0.28939,0.27905 0.004,0.25838 -0.28939,0.30179 h -1.33325 v 1.64744 q -0.0207,0.28526 -0.28112,0.28939 -0.25838,0.004 -0.29972,-0.28939 z"
         style="font-size:4.23333px;fill:#00ff00;stroke-width:0.264583"
         id="path2649" />
    </g>
    <g
       aria-label="off"
       id="text3164-67-2"
       style="font-size:4.23333px;line-height:1.25;font-family:'MS 33558';-inkscape-font-specification:'MS 33558, ';letter-spacing:0px;word-spacing:0px;fill:#00ff00;stroke-width:0.264583">
      <path
         d="m 68.485253,142.8978 q 0.190169,0.57258 0.142626,1.18856 -0.04547,0.61598 -0.33693,1.12448 -0.183968,0.31626 -0.502294,0.53743 -0.318327,0.22118 -0.702799,0.15503 -0.626318,-0.10955 -0.959114,-0.65319 -0.332796,-0.54364 -0.382405,-1.20923 -0.04754,-0.66766 0.179834,-1.30018 0.229443,-0.63251 0.72967,-0.91983 0.243913,-0.14056 0.510563,-0.14056 0.508496,0 0.830956,0.38447 0.322461,0.3824 0.489893,0.83302 z m -1.304312,-0.63045 q -0.380339,0 -0.576709,0.40928 -0.194303,0.40927 -0.24598,0.69866 -0.03927,0.21084 -0.02894,0.51056 0.01033,0.29973 0.08682,0.59325 0.07648,0.29145 0.229443,0.5271 0.152962,0.23358 0.401009,0.31006 0.289388,0.0909 0.49816,-0.11369 0.21084,-0.20671 0.318327,-0.43822 0.109554,-0.23771 0.148828,-0.62425 0.04134,-0.38654 -0.0186,-0.77101 -0.05788,-0.38654 -0.229443,-0.69453 -0.171565,-0.31006 -0.487825,-0.39481 -0.04134,-0.0124 -0.09508,-0.0124 z"
         style="font-size:4.23333px;fill:#00ff00;stroke-width:0.264583"
         id="path2748" />
      <path
         d="m 69.183917,145.62011 v -3.64628 q 0.03721,-0.27285 0.293522,-0.29352 h 2.00091 q 0.287321,0.0227 0.287321,0.29352 0,0.26871 -0.291455,0.28732 H 69.76476 v 1.13068 h 1.333251 q 0.285253,0.0207 0.289388,0.27905 0.0041,0.25838 -0.289388,0.30179 H 69.76476 v 1.64744 q -0.02067,0.28526 -0.28112,0.28939 -0.258382,0.004 -0.299723,-0.28939 z"
         style="font-size:4.23333px;fill:#00ff00;stroke-width:0.264583"
         id="path2750" />
      <path
         d="m 72.344445,145.62011 v -3.64628 q 0.03721,-0.27285 0.293522,-0.29352 h 2.00091 q 0.287321,0.0227 0.287321,0.29352 0,0.26871 -0.291455,0.28732 h -1.709455 v 1.13068 h 1.333251 q 0.285253,0.0207 0.289387,0.27905 0.0041,0.25838 -0.289387,0.30179 h -1.333251 v 1.64744 q -0.02067,0.28526 -0.28112,0.28939 -0.258382,0.004 -0.299723,-0.28939 z"
         style="font-size:4.23333px;fill:#00ff00;stroke-width:0.264583"
         id="path2752" />
    </g>
    <g
       aria-label="off"
       id="text3164-67-2-6"
       style="font-size:4.23333px;line-height:1.25;font-family:'MS 33558';-inkscape-font-specification:'MS 33558, ';letter-spacing:0px;word-spacing:0px;fill:#00ff00;stroke-width:0.264583">
      <path
         d="m 100.07077,142.94176 q 0.19017,0.57258 0.14263,1.18856 -0.0455,0.61598 -0.336933,1.12448 -0.183968,0.31626 -0.502294,0.53743 -0.318327,0.22118 -0.702799,0.15503 -0.626318,-0.10955 -0.959114,-0.65319 -0.332796,-0.54363 -0.382405,-1.20923 -0.04754,-0.66766 0.179834,-1.30017 0.229443,-0.63252 0.72967,-0.91984 0.243913,-0.14056 0.510563,-0.14056 0.508496,0 0.830956,0.38447 0.322461,0.3824 0.489892,0.83302 z m -1.304312,-0.63045 q -0.380338,0 -0.576708,0.40928 -0.194303,0.40927 -0.24598,0.69866 -0.03927,0.21084 -0.02894,0.51056 0.01033,0.29973 0.08682,0.59325 0.07648,0.29145 0.229443,0.5271 0.152962,0.23358 0.401009,0.31006 0.289388,0.0909 0.49816,-0.11369 0.21084,-0.20671 0.318327,-0.43822 0.109554,-0.23771 0.148828,-0.62425 0.04134,-0.38654 -0.0186,-0.77101 -0.05788,-0.38654 -0.229443,-0.69453 -0.171566,-0.31006 -0.487825,-0.39481 -0.04134,-0.0124 -0.09508,-0.0124 z"
         style="font-size:4.23333px;fill:#00ff00;stroke-width:0.264583"
         id="path2698" />
      <path
         d="m 100.76944,145.66407 v -3.64628 q 0.0372,-0.27285 0.29352,-0.29352 h 2.00091 q 0.28732,0.0227 0.28732,0.29352 0,0.26872 -0.29146,0.28732 h -1.70945 v 1.13068 h 1.33325 q 0.28525,0.0207 0.28939,0.27905 0.004,0.25838 -0.28939,0.30179 h -1.33325 v 1.64744 q -0.0207,0.28526 -0.28112,0.28939 -0.25838,0.004 -0.29972,-0.28939 z"
         style="font-size:4.23333px;fill:#00ff00;stroke-width:0.264583"
         id="path2700" />
      <path
         d="m 103.92996,145.66407 v -3.64628 q 0.0372,-0.27285 0.29353,-0.29352 h 2.0009 q 0.28733,0.0227 0.28733,0.29352 0,0.26872 -0.29146,0.28732 h -1.70945 v 1.13068 h 1.33325 q 0.28525,0.0207 0.28938,0.27905 0.004,0.25838 -0.28938,0.30179 h -1.33325 v 1.64744 q -0.0207,0.28526 -0.28112,0.28939 -0.25839,0.004 -0.29973,-0.28939 z"
         style="font-size:4.23333px;fill:#00ff00;stroke-width:0.264583"
         id="path2702" />
    </g>
    <g
       aria-label="off"
       id="text3164-67-2-7"
       style="font-size:4.23333px;line-height:1.25;font-family:'MS 33558';-inkscape-font-specification:'MS 33558, ';letter-spacing:0px;word-spacing:0px;fill:#00ff00;stroke-width:0.264583">
      <path
         d="m 131.62872,142.94176 q 0.19016,0.57258 0.14262,1.18856 -0.0455,0.61598 -0.33693,1.12448 -0.18397,0.31626 -0.50229,0.53743 -0.31833,0.22118 -0.7028,0.15503 -0.62632,-0.10955 -0.95911,-0.65319 -0.3328,-0.54363 -0.38241,-1.20923 -0.0475,-0.66766 0.17983,-1.30017 0.22945,-0.63252 0.72967,-0.91984 0.24392,-0.14056 0.51057,-0.14056 0.50849,0 0.83095,0.38447 0.32246,0.3824 0.4899,0.83302 z m -1.30432,-0.63045 q -0.38033,0 -0.5767,0.40928 -0.19431,0.40927 -0.24598,0.69866 -0.0393,0.21084 -0.0289,0.51056 0.0103,0.29973 0.0868,0.59325 0.0765,0.29145 0.22945,0.5271 0.15296,0.23358 0.40101,0.31006 0.28938,0.0909 0.49816,-0.11369 0.21084,-0.20671 0.31832,-0.43822 0.10956,-0.23771 0.14883,-0.62425 0.0413,-0.38654 -0.0186,-0.77101 -0.0579,-0.38654 -0.22945,-0.69453 -0.17156,-0.31006 -0.48782,-0.39481 -0.0413,-0.0124 -0.0951,-0.0124 z"
         style="font-size:4.23333px;fill:#00ff00;stroke-width:0.264583"
         id="path2679" />
      <path
         d="m 132.32738,145.66407 v -3.64628 q 0.0372,-0.27285 0.29352,-0.29352 h 2.00091 q 0.28732,0.0227 0.28732,0.29352 0,0.26872 -0.29145,0.28732 h -1.70946 v 1.13068 h 1.33325 q 0.28526,0.0207 0.28939,0.27905 0.004,0.25838 -0.28939,0.30179 h -1.33325 v 1.64744 q -0.0207,0.28526 -0.28112,0.28939 -0.25838,0.004 -0.29972,-0.28939 z"
         style="font-size:4.23333px;fill:#00ff00;stroke-width:0.264583"
         id="path2681" />
      <path
         d="m 135.48791,145.66407 v -3.64628 q 0.0372,-0.27285 0.29352,-0.29352 h 2.00091 q 0.28732,0.0227 0.28732,0.29352 0,0.26872 -0.29145,0.28732 h -1.70946 v 1.13068 h 1.33325 q 0.28526,0.0207 0.28939,0.27905 0.004,0.25838 -0.28939,0.30179 h -1.33325 v 1.64744 q -0.0207,0.28526 -0.28112,0.28939 -0.25838,0.004 -0.29972,-0.28939 z"
         style="font-size:4.23333px;fill:#00ff00;stroke-width:0.264583"
         id="path2683" />
    </g>
    <g
       aria-label="vec/pcd"
       id="text3164-67-2-9"
       style="font-size:4.23333px;line-height:1.25;font-family:'MS 33558';-inkscape-font-specification:'MS 33558, ';letter-spacing:0px;word-spacing:0px;fill:#00ff00;stroke-width:0.264583">
      <path
         d="m 59.314372,128.83525 q -0.03927,-0.29353 0.208773,-0.35967 0.250113,-0.0662 0.355533,0.20877 l 0.696598,2.57969 0.700732,-2.60449 q 0.10542,-0.27906 0.363801,-0.20258 0.258382,0.0744 0.198438,0.35347 l -0.983919,3.65249 q -0.08268,0.21291 -0.276985,0.21497 -0.194303,0 -0.283187,-0.2067 z"
         style="font-size:4.23333px;fill:#00ff00;stroke-width:0.264583"
         id="path2733" />
      <path
         d="m 64.713521,129.02128 h -1.713589 v 1.13068 h 1.306379 q 0.293522,0.0434 0.291455,0.29559 0,0.25011 -0.291455,0.29145 h -1.306379 v 1.35806 h 1.713589 q 0.291455,0.0434 0.291455,0.29145 0,0.24805 -0.291455,0.28939 h -2.00091 q -0.258382,-0.0331 -0.293522,-0.29352 v -3.65042 q 0.03927,-0.27285 0.293522,-0.28939 h 2.00091 q 0.291455,0.0227 0.289388,0.29146 0,0.26665 -0.289388,0.28525 z"
         style="font-size:4.23333px;fill:#00ff00;stroke-width:0.264583"
         id="path2735" />
      <path
         d="m 68.241985,132.01644 -0.0186,0.0269 q -0.0062,0.008 -0.01034,0.0145 -0.0041,0.006 -0.0083,0.0124 -0.283187,0.3824 -0.74414,0.5457 -0.458886,0.16123 -0.90537,-0.0599 -0.518831,-0.25839 -0.762744,-0.87644 -0.241845,-0.61805 -0.208772,-1.28364 0.03514,-0.66766 0.351399,-1.22576 0.318327,-0.55811 0.921907,-0.69867 0.347265,-0.0806 0.692463,0.0682 0.345199,0.14676 0.566374,0.41341 0.0021,0 0.01034,0.0145 0.09508,0.12402 0.03927,0.27285 -0.05581,0.14676 -0.204639,0.18397 -0.159163,0.0413 -0.293521,-0.0951 -0.276986,-0.32246 -0.533301,-0.31006 -0.256315,0.0124 -0.458886,0.21084 -0.202572,0.19844 -0.33693,0.5085 -0.134359,0.31006 -0.165365,0.58084 -0.03721,0.30179 0.0062,0.60772 0.04547,0.30385 0.188102,0.57257 0.248046,0.47129 0.62425,0.59118 0.378272,0.11782 0.737939,-0.36174 0.01654,-0.0207 0.03927,-0.0537 0.194304,-0.21497 0.409277,-0.0434 0.217041,0.1695 0.06408,0.38447 z"
         style="font-size:4.23333px;fill:#00ff00;stroke-width:0.264583"
         id="path2737" />
      <path
         d="m 70.809268,128.59547 q 0.06201,-0.11162 0.148828,-0.13023 0.08888,-0.0207 0.09922,-0.0207 0.148828,0 0.24598,0.12816 0.09715,0.12816 0.01034,0.30179 l -1.9513,3.65455 q -0.02481,0.0476 -0.08888,0.0992 -0.06408,0.0496 -0.169498,0.0496 -0.148828,0 -0.237712,-0.12816 -0.08682,-0.12815 -0.01654,-0.30799 z"
         style="font-size:4.23333px;fill:#00ff00;stroke-width:0.264583"
         id="path2739" />
      <path
         d="m 73.595659,128.44457 h 0.03927 q 0.264583,0.0186 0.487825,0.11989 0.42788,0.20051 0.605647,0.65939 0.177767,0.45889 -0.0041,0.89504 -0.146761,0.3452 -0.434082,0.54157 -0.28732,0.1943 -0.655256,0.21704 l -0.03927,0.002 H 72.59107 v 1.50689 q -0.03721,0.29145 -0.293522,0.29145 -0.256315,0 -0.291455,-0.29145 v -3.65249 q 0.03101,-0.25631 0.272851,-0.28939 h 0.0186 z m 0,0.58291 H 72.59107 v 1.26711 h 1.004589 q 0.235644,0 0.415478,-0.1571 0.181901,-0.1571 0.212907,-0.39274 0.03721,-0.28525 -0.152962,-0.50023 -0.19017,-0.21704 -0.475423,-0.21704 z"
         style="font-size:4.23333px;fill:#00ff00;stroke-width:0.264583"
         id="path2741" />
      <path
         d="m 78.064633,132.01644 -0.0186,0.0269 q -0.0062,0.008 -0.01034,0.0145 -0.0041,0.006 -0.0083,0.0124 -0.283187,0.3824 -0.74414,0.5457 -0.458886,0.16123 -0.90537,-0.0599 -0.518831,-0.25839 -0.762744,-0.87644 -0.241845,-0.61805 -0.208772,-1.28364 0.03514,-0.66766 0.351399,-1.22576 0.318327,-0.55811 0.921907,-0.69867 0.347265,-0.0806 0.692463,0.0682 0.345199,0.14676 0.566374,0.41341 0.0021,0 0.01033,0.0145 0.09509,0.12402 0.03927,0.27285 -0.05581,0.14676 -0.204638,0.18397 -0.159164,0.0413 -0.293522,-0.0951 -0.276986,-0.32246 -0.533301,-0.31006 -0.256315,0.0124 -0.458886,0.21084 -0.202571,0.19844 -0.33693,0.5085 -0.134359,0.31006 -0.165365,0.58084 -0.03721,0.30179 0.0062,0.60772 0.04547,0.30385 0.188102,0.57257 0.248046,0.47129 0.62425,0.59118 0.378272,0.11782 0.737939,-0.36174 0.01654,-0.0207 0.03927,-0.0537 0.194304,-0.21497 0.409277,-0.0434 0.217041,0.1695 0.06408,0.38447 z"
         style="font-size:4.23333px;fill:#00ff00;stroke-width:0.264583"
         id="path2743" />
      <path
         d="m 78.93073,128.44457 h 0.973583 q 0.725537,0 1.087271,0.66146 0.361735,0.66146 0.361735,1.45521 0,0.79375 -0.363802,1.4552 -0.361734,0.66146 -1.085204,0.66146 h -0.973583 0.0041 -0.0041 q -0.06821,-0.0103 -0.07441,-0.0124 -0.214974,-0.0517 -0.212907,-0.28112 h -0.0021 l 0.0021,-3.65042 q -0.0021,-0.006 -0.0021,-0.0165 0.0062,-0.11368 0.08888,-0.19223 0.08475,-0.0806 0.202571,-0.0806 z m 0.973583,3.65042 q 0.0041,0 0.0083,0 0.0041,0 0.01034,0 0.0041,0 0.0062,0 0.0041,-0.002 0.01033,-0.002 0.0041,0 0.0083,0 0.0062,-0.002 0.0124,-0.002 0.0041,0 0.0083,0 0.0041,-0.002 0.01034,-0.002 0.0041,0 0.0083,0 0.0041,-0.002 0.01034,-0.002 0.0083,-0.004 0.01654,-0.004 0.0041,0 0.0083,-0.002 0.0041,-0.004 0.01034,-0.006 0.0041,0 0.0083,0 0.0062,-0.002 0.0124,-0.004 0.0041,0 0.0083,-0.002 0.0041,-0.002 0.01034,-0.004 0.0124,-0.004 0.0186,-0.008 0.03721,-0.0124 0.02067,-0.008 0.0041,0 0.0083,-0.002 0.0041,-0.004 0.01033,-0.006 0.0186,-0.0124 0.01654,-0.0103 0.02067,-0.0103 0.02067,-0.0103 0.0041,-0.002 0.0083,-0.004 0.0041,-0.004 0.01034,-0.008 0.0186,-0.0124 0.0186,-0.0124 0.0041,-0.002 0.0083,-0.004 0.0062,-0.004 0.0124,-0.008 0.0041,-0.002 0.0083,-0.006 0.0041,-0.004 0.01033,-0.008 0.0041,-0.002 0.0083,-0.004 0.0041,-0.004 0.01034,-0.008 0.0041,-0.004 0.02067,-0.0165 0.01654,-0.0165 0.01654,-0.0165 0.0041,-0.004 0.0083,-0.008 0.0041,-0.004 0.01033,-0.0103 0.0041,-0.004 0.0083,-0.008 0.0041,-0.004 0.01034,-0.0103 0.0062,-0.004 0.0186,-0.0165 0.0041,-0.004 0.0083,-0.008 0.0041,-0.004 0.01034,-0.0103 0.0041,-0.004 0.0083,-0.008 0.0041,-0.006 0.01033,-0.0124 0.02481,-0.0331 0.01654,-0.0207 0.01447,-0.0145 0.0186,-0.0227 0.0186,-0.0248 0.01654,-0.0227 0.0041,-0.006 0.0083,-0.0103 0.0041,-0.006 0.01033,-0.0124 0.0041,-0.006 0.0062,-0.0124 0.0041,-0.006 0.01034,-0.0124 0.0021,-0.006 0.0062,-0.0124 0.0062,-0.008 0.01033,-0.0145 0.0124,-0.0165 0.01654,-0.0248 0.0041,-0.006 0.0062,-0.0124 0.0041,-0.008 0.01033,-0.0145 0.0041,-0.006 0.0062,-0.0124 0.0041,-0.008 0.01034,-0.0145 0.0041,-0.0103 0.0124,-0.0269 0.0041,-0.006 0.0062,-0.0145 0.0041,-0.008 0.01033,-0.0165 0.0041,-0.006 0.0062,-0.0124 0.0041,-0.008 0.01034,-0.0165 0.0021,-0.006 0.0041,-0.0145 0.0041,-0.008 0.0083,-0.0165 0.0062,-0.0103 0.01447,-0.031 0.02067,-0.0517 0.01447,-0.0331 0.0021,-0.006 0.0041,-0.0145 0.0041,-0.0103 0.0083,-0.0186 0.0021,-0.008 0.0041,-0.0165 0.0041,-0.008 0.0083,-0.0186 0.0062,-0.0186 0.01034,-0.0331 0.0021,-0.008 0.0041,-0.0165 0.0041,-0.008 0.0083,-0.0186 -0.0083,0.0207 0.01034,-0.0351 0.0041,-0.0103 0.0124,-0.0351 0,-0.008 0.0021,-0.0165 0.0041,-0.0103 0.0062,-0.0207 0.0021,-0.008 0.0041,-0.0165 0.0021,-0.0103 0.0062,-0.0207 0,-0.006 0.0021,-0.0145 0.0041,-0.0103 0.0062,-0.0207 0.0021,-0.0145 0.0062,-0.0393 0,-0.008 0.0021,-0.0165 0.0041,-0.0103 0.0062,-0.0207 0,-0.008 0.0021,-0.0165 0.0021,-0.0103 0.0041,-0.0207 0.0021,-0.0145 0.0062,-0.0393 0,-0.008 0.0021,-0.0186 0.0041,-0.0103 0.0062,-0.0207 0,-0.0145 0.0041,-0.0393 0,-0.008 0,-0.0165 0.0021,-0.0103 0.0041,-0.0227 0.0041,-0.0248 0.0041,-0.0393 0.0021,-0.0145 0.0021,-0.0393 0.0021,-0.0145 0.0021,-0.0413 0.0021,-0.0145 0.0021,-0.0393 0,-0.0103 0,-0.0186 0.0021,-0.0103 0.0041,-0.0227 0,-0.008 0,-0.0165 0.0021,-0.0103 0.0021,-0.0227 0,-0.008 0,-0.0186 0,-0.0103 0,-0.0207 0,-0.0103 0,-0.0186 0,-0.0103 0,-0.0207 0,-0.0103 -0.0021,-0.0186 0,-0.0103 0,-0.0227 0,-0.008 0,-0.0186 0,-0.0103 0,-0.0207 0,-0.0124 -0.0041,-0.0413 0,-0.0248 -0.0021,-0.0372 0,-0.0145 -0.0041,-0.0434 0,-0.0248 -0.0021,-0.0372 0,-0.0145 -0.0041,-0.0393 -0.0021,-0.008 -0.0041,-0.0186 0,-0.0103 0,-0.0207 -0.0041,-0.0248 -0.0083,-0.0393 -0.0021,-0.008 -0.0041,-0.0165 -0.0021,-0.0103 -0.0021,-0.0207 -0.0021,-0.0145 -0.0062,-0.0393 -0.0021,-0.0145 -0.0062,-0.0393 -0.0083,-0.0248 -0.01034,-0.0372 -0.0041,-0.0248 -0.0062,-0.0351 -0.0041,-0.008 -0.0062,-0.0165 -0.0021,-0.0103 -0.0041,-0.0207 -0.0021,-0.008 -0.0062,-0.0165 -0.0041,-0.0103 -0.0041,-0.0207 -0.0186,-0.0558 -0.01034,-0.0351 -0.0041,-0.0145 -0.01033,-0.0351 -0.0041,-0.006 -0.0083,-0.0145 -0.0021,-0.0103 -0.0041,-0.0186 -0.0021,-0.006 -0.0124,-0.0351 -0.0083,-0.0207 -0.0124,-0.0331 -0.0041,-0.006 -0.0083,-0.0145 -0.0021,-0.0103 -0.0041,-0.0186 -0.0041,-0.006 -0.0083,-0.0145 -0.0041,-0.008 -0.0062,-0.0165 -0.0083,-0.0207 -0.01447,-0.031 -0.0083,-0.0207 -0.0124,-0.0289 -0.0083,-0.0207 -0.01447,-0.031 -0.0041,-0.006 -0.0083,-0.0124 -0.0041,-0.008 -0.0062,-0.0145 -0.0124,-0.0207 -0.01654,-0.0289 -0.0186,-0.0289 -0.01654,-0.0269 -0.0062,-0.006 -0.01033,-0.0124 -0.0021,-0.008 -0.0062,-0.0145 -0.0041,-0.008 -0.01654,-0.0248 -0.0041,-0.006 -0.0083,-0.0124 -0.0041,-0.006 -0.0062,-0.0124 -0.01034,-0.0186 -0.03514,-0.0475 -0.0041,-0.004 -0.03307,-0.0455 -0.02481,-0.0289 -0.03721,-0.0413 -0.0124,-0.0145 -0.03721,-0.0393 -0.01654,-0.0186 -0.03514,-0.0351 -0.01447,-0.0103 -0.03927,-0.031 -0.02067,-0.0165 -0.03927,-0.031 -0.04754,-0.031 -0.03927,-0.0269 -0.04134,-0.0248 -0.03721,-0.0227 0,0 -0.03721,-0.0186 -0.0083,-0.004 -0.03927,-0.0145 -0.02687,-0.0103 -0.03927,-0.0145 -0.01034,-0.002 -0.0186,-0.004 -0.0083,-0.004 -0.01654,-0.008 -0.03721,-0.006 -0.03721,-0.006 -0.0124,-0.002 -0.03721,-0.002 -0.0062,0 -0.01034,0 -0.0041,0 -0.0083,0 h -0.682128 v 3.06751 0 z"
         style="font-size:4.23333px;fill:#00ff00;stroke-width:0.264583"
         id="path2745" />
    </g>
    <g
       aria-label="alt"
       id="text3164-67-2-9-1"
       style="font-size:4.23333px;line-height:1.25;font-family:'MS 33558';-inkscape-font-specification:'MS 33558, ';letter-spacing:0px;word-spacing:0px;fill:#00ff00;stroke-width:0.264583">
      <path
         d="m 99.327519,131.31655 -0.628385,-1.73633 -0.632519,1.73633 z m -0.628385,-1.73633 0.628385,1.73633 z m -1.595767,2.69544 q 0.330729,-0.91157 0.661458,-1.82107 0.332796,-0.91157 0.665592,-1.82314 0.06821,-0.18811 0.270784,-0.19017 0.202571,-0.002 0.272851,0.19017 l 1.324978,3.65455 q 0.062,0.29145 -0.17776,0.3762 -0.23978,0.0847 -0.370005,-0.17363 l -0.212906,-0.59118 h -1.684651 l -0.206705,0.57671 q -0.132292,0.26045 -0.376204,0.17157 -0.243913,-0.0909 -0.167432,-0.37001 z"
         style="font-size:4.23333px;fill:#00ff00;stroke-width:0.264583"
         id="path2705" />
      <path
         d="m 100.99977,132.67667 q -0.25425,-0.0165 -0.29353,-0.28732 v -3.65455 q 0.0434,-0.29766 0.3018,-0.29146 0.25838,0.004 0.28111,0.29146 v 3.36516 l 1.9079,-0.002 q 0.29352,0.0331 0.28938,0.29765 -0.002,0.26252 -0.29145,0.28112 z"
         style="font-size:4.23333px;fill:#00ff00;stroke-width:0.264583"
         id="path2707" />
      <path
         d="m 105.12354,132.38522 v -3.36103 h -0.75861 q -0.28938,-0.0227 -0.28938,-0.28939 0.002,-0.26872 0.28938,-0.29352 h 2.09806 q 0.28526,0.0227 0.28526,0.29352 0.002,0.26872 -0.28526,0.28939 h -0.75654 v 3.36103 q -0.0475,0.29352 -0.30592,0.28939 -0.25632,-0.004 -0.27699,-0.28939 z"
         style="font-size:4.23333px;fill:#00ff00;stroke-width:0.264583"
         id="path2709" />
    </g>
    <g
       aria-label="acl"
       id="text3164-67-2-9-1-9"
       style="font-size:4.23333px;line-height:1.25;font-family:'MS 33558';-inkscape-font-specification:'MS 33558, ';letter-spacing:0px;word-spacing:0px;fill:#00ff00;stroke-width:0.264583">
      <path
         d="m 67.753338,158.04272 -0.628385,-1.73633 -0.632519,1.73633 z m -0.628385,-1.73633 0.628385,1.73633 z m -1.595767,2.69544 q 0.330729,-0.91157 0.661458,-1.82108 0.332796,-0.91157 0.665592,-1.82314 0.06821,-0.1881 0.270784,-0.19017 0.202572,-0.002 0.272852,0.19017 l 1.324982,3.65456 q 0.06201,0.29145 -0.177766,0.3762 -0.239779,0.0847 -0.370003,-0.17363 l -0.212907,-0.59118 h -1.68465 l -0.206706,0.57671 q -0.132291,0.26045 -0.376204,0.17156 -0.243913,-0.0909 -0.167432,-0.37 z"
         style="font-size:4.23333px;fill:#00ff00;stroke-width:0.264583"
         id="path2755" />
      <path
         d="m 71.794432,158.73931 -0.0186,0.0269 q -0.0062,0.008 -0.01033,0.0145 -0.0041,0.006 -0.0083,0.0124 -0.283187,0.3824 -0.74414,0.5457 -0.458886,0.16123 -0.90537,-0.0599 -0.518831,-0.25839 -0.762744,-0.87644 -0.241845,-0.61805 -0.208773,-1.28364 0.03514,-0.66766 0.3514,-1.22576 0.318326,-0.55811 0.921907,-0.69867 0.347265,-0.0806 0.692463,0.0682 0.345199,0.14676 0.566374,0.41341 0.0021,0 0.01033,0.0145 0.09508,0.12402 0.03927,0.27285 -0.05581,0.14676 -0.204639,0.18397 -0.159163,0.0413 -0.293522,-0.0951 -0.276985,-0.32246 -0.5333,-0.31006 -0.256315,0.0124 -0.458886,0.21084 -0.202572,0.19844 -0.33693,0.5085 -0.134359,0.31006 -0.165365,0.58084 -0.03721,0.30179 0.0062,0.60772 0.04548,0.30385 0.188103,0.57257 0.248046,0.47129 0.62425,0.59118 0.378271,0.11782 0.737939,-0.36174 0.01654,-0.0207 0.03927,-0.0537 0.194303,-0.21497 0.409277,-0.0434 0.217041,0.1695 0.06408,0.38447 z"
         style="font-size:4.23333px;fill:#00ff00;stroke-width:0.264583"
         id="path2757" />
      <path
         d="m 72.664662,159.40284 q -0.254247,-0.0165 -0.293522,-0.28732 v -3.65456 q 0.04341,-0.29765 0.301791,-0.29145 0.258382,0.004 0.281119,0.29145 v 3.36517 l 1.907892,-0.002 q 0.293522,0.0331 0.289388,0.29766 -0.0021,0.26252 -0.291455,0.28112 z"
         style="font-size:4.23333px;fill:#00ff00;stroke-width:0.264583"
         id="path2759" />
    </g>
    <g
       aria-label="engage"
       id="text3164-67-2-9-1-5"
       style="font-size:4.23333px;line-height:1.25;font-family:'MS 33558';-inkscape-font-specification:'MS 33558, ';letter-spacing:0px;word-spacing:0px;fill:#00ff00;stroke-width:0.264583">
      <path
         d="m 151.33017,129.02333 h -1.71359 v 1.13068 h 1.30638 q 0.29352,0.0434 0.29145,0.29558 0,0.25012 -0.29145,0.29146 h -1.30638 v 1.35805 h 1.71359 q 0.29145,0.0434 0.29145,0.29146 0,0.24805 -0.29145,0.28939 h -2.00091 q -0.25838,-0.0331 -0.29352,-0.29352 V 128.736 q 0.0393,-0.27285 0.29352,-0.28938 h 2.00091 q 0.29145,0.0227 0.28939,0.29145 0,0.26665 -0.28939,0.28526 z"
         style="font-size:4.23333px;fill:#00ff00;stroke-width:0.264583"
         id="path2659" />
      <path
         d="m 155.05087,132.39469 q 0,0.21704 -0.21084,0.27699 -0.20877,0.0579 -0.32453,-0.12402 l -1.73633,-2.78433 v 2.63136 q -0.0455,0.28939 -0.29352,0.28939 -0.24598,0 -0.28939,-0.28939 v -3.65042 q 0.031,-0.21497 0.21911,-0.28318 0.19017,-0.0682 0.31626,0.12815 l 1.73633,2.78846 v -2.63343 q 0.0393,-0.29559 0.29972,-0.29145 0.26252,0.002 0.28319,0.29145 z"
         style="font-size:4.23333px;fill:#00ff00;stroke-width:0.264583"
         id="path2661" />
      <path
         d="m 157.05798,130.97463 -0.0186,-0.002 q -0.25219,-0.031 -0.25219,-0.28732 0,-0.25632 0.25219,-0.28732 l 0.0186,-0.004 h 0.0186 0.76275 q 0.11988,0 0.20463,0.0868 0.0868,0.0847 0.0868,0.20464 v 1.048 l -0.0248,0.0537 -0.0145,0.0331 -0.0145,0.031 -0.0165,0.031 -0.0165,0.031 -0.0145,0.031 -0.0165,0.031 -0.0186,0.031 q -0.401,0.68213 -0.99632,0.66766 -0.59531,-0.0165 -1.00045,-0.67386 -0.19224,-0.31213 -0.28525,-0.78135 -0.093,-0.47129 -0.0558,-0.96118 0.0372,-0.49196 0.22738,-0.93431 0.19224,-0.44442 0.57258,-0.70487 0.47542,-0.32246 0.92604,-0.0744 0.45061,0.24598 0.67386,0.69246 l 0.0165,0.0331 0.0124,0.0289 0.0165,0.031 q 0.0703,0.19637 -0.0537,0.32039 -0.11989,0.11783 -0.26045,0.0889 -0.14056,-0.031 -0.21704,-0.16743 -0.24185,-0.59945 -0.62425,-0.52297 -0.38034,0.0765 -0.57051,0.62425 -0.18603,0.52917 -0.14676,1.13895 0.0393,0.60771 0.39687,1.0604 0.24598,0.31626 0.50023,0.20257 0.25425,-0.11369 0.40101,-0.42375 l 0.0227,-0.0455 v -0.63045 z"
         style="font-size:4.23333px;fill:#00ff00;stroke-width:0.264583"
         id="path2663" />
      <path
         d="m 161.04326,131.32189 -0.62838,-1.73633 -0.63252,1.73633 z m -0.62838,-1.73633 0.62838,1.73633 z m -1.59577,2.69545 q 0.33073,-0.91158 0.66146,-1.82108 0.33279,-0.91157 0.66559,-1.82314 0.0682,-0.18811 0.27078,-0.19017 0.20258,-0.002 0.27286,0.19017 l 1.32498,3.65455 q 0.062,0.29146 -0.17777,0.3762 -0.23978,0.0847 -0.37,-0.17363 l -0.21291,-0.59118 h -1.68465 l -0.2067,0.57671 q -0.1323,0.26045 -0.37621,0.17157 -0.24391,-0.091 -0.16743,-0.37 z"
         style="font-size:4.23333px;fill:#00ff00;stroke-width:0.264583"
         id="path2665" />
      <path
         d="m 163.83585,130.97463 -0.0186,-0.002 q -0.25218,-0.031 -0.25218,-0.28732 0,-0.25632 0.25218,-0.28732 l 0.0186,-0.004 h 0.0186 0.76274 q 0.11989,0 0.20464,0.0868 0.0868,0.0847 0.0868,0.20464 v 1.048 l -0.0248,0.0537 -0.0145,0.0331 -0.0145,0.031 -0.0165,0.031 -0.0165,0.031 -0.0145,0.031 -0.0165,0.031 -0.0186,0.031 q -0.40101,0.68213 -0.99632,0.66766 -0.59531,-0.0165 -1.00046,-0.67386 -0.19223,-0.31213 -0.28525,-0.78135 -0.093,-0.47129 -0.0558,-0.96118 0.0372,-0.49196 0.22738,-0.93431 0.19223,-0.44442 0.57257,-0.70487 0.47542,-0.32246 0.92604,-0.0744 0.45062,0.24598 0.67386,0.69246 l 0.0165,0.0331 0.0124,0.0289 0.0165,0.031 q 0.0703,0.19637 -0.0537,0.32039 -0.11989,0.11783 -0.26045,0.0889 -0.14056,-0.031 -0.21704,-0.16743 -0.24184,-0.59945 -0.62425,-0.52297 -0.38034,0.0765 -0.5705,0.62425 -0.18604,0.52917 -0.14677,1.13895 0.0393,0.60771 0.39688,1.0604 0.24598,0.31626 0.50023,0.20257 0.25424,-0.11369 0.40101,-0.42375 l 0.0227,-0.0455 v -0.63045 z"
         style="font-size:4.23333px;fill:#00ff00;stroke-width:0.264583"
         id="path2667" />
      <path
         d="m 167.87695,129.02333 h -1.71359 v 1.13068 h 1.30638 q 0.29352,0.0434 0.29145,0.29558 0,0.25012 -0.29145,0.29146 h -1.30638 v 1.35805 h 1.71359 q 0.29145,0.0434 0.29145,0.29146 0,0.24805 -0.29145,0.28939 h -2.00091 q -0.25838,-0.0331 -0.29352,-0.29352 V 128.736 q 0.0393,-0.27285 0.29352,-0.28938 h 2.00091 q 0.29145,0.0227 0.28939,0.29145 0,0.26665 -0.28939,0.28526 z"
         style="font-size:4.23333px;fill:#00ff00;stroke-width:0.264583"
         id="path2669" />
    </g>
    <g
       aria-label="HDG"
       id="text3164-67-2-9-1-96"
       style="font-size:4.23333px;line-height:1.25;font-family:'MS 33558';-inkscape-font-specification:'MS 33558, ';letter-spacing:0px;word-spacing:0px;fill:#00ff00;stroke-width:0.264583">
      <path
         d="m 128.87958,132.39686 v -3.65455 q 0.0434,-0.29766 0.30179,-0.29146 0.25838,0.004 0.28112,0.29146 v 1.36632 h 1.66398 v -1.36632 q 0.0434,-0.29146 0.29145,-0.29146 0.25012,-0.002 0.29559,0.29146 v 3.65455 q -0.0455,0.29145 -0.29559,0.28939 -0.24804,0 -0.29145,-0.28939 v -1.70119 h -1.66398 v 1.70119 q -0.0227,0.28525 -0.28112,0.28939 -0.25838,0.004 -0.30179,-0.28939 z"
         style="font-size:4.23333px;fill:#00ff00;stroke-width:0.264583"
         id="path2672" />
      <path
         d="m 132.56514,128.44878 h 0.97358 q 0.72554,0 1.08727,0.66146 0.36174,0.66146 0.36174,1.45521 0,0.79375 -0.3638,1.45521 -0.36174,0.66145 -1.08521,0.66145 h -0.97358 0.004 -0.004 q -0.0682,-0.0103 -0.0744,-0.0124 -0.21497,-0.0517 -0.2129,-0.28112 h -0.002 l 0.002,-3.65042 q -0.002,-0.006 -0.002,-0.0165 0.006,-0.11369 0.0889,-0.19224 0.0847,-0.0806 0.20257,-0.0806 z m 0.97358,3.65042 q 0.004,0 0.008,0 0.004,0 0.0103,0 0.004,0 0.006,0 0.004,-0.002 0.0103,-0.002 0.004,0 0.008,0 0.006,-0.002 0.0124,-0.002 0.004,0 0.008,0 0.004,-0.002 0.0103,-0.002 0.004,0 0.008,0 0.004,-0.002 0.0103,-0.002 0.008,-0.004 0.0165,-0.004 0.004,0 0.008,-0.002 0.004,-0.004 0.0103,-0.006 0.004,0 0.008,0 0.006,-0.002 0.0124,-0.004 0.004,0 0.008,-0.002 0.004,-0.002 0.0103,-0.004 0.0124,-0.004 0.0186,-0.008 0.0372,-0.0124 0.0207,-0.008 0.004,0 0.008,-0.002 0.004,-0.004 0.0103,-0.006 0.0186,-0.0124 0.0165,-0.0103 0.0207,-0.0103 0.0207,-0.0103 0.004,-0.002 0.008,-0.004 0.004,-0.004 0.0103,-0.008 0.0186,-0.0124 0.0186,-0.0124 0.004,-0.002 0.008,-0.004 0.006,-0.004 0.0124,-0.008 0.004,-0.002 0.008,-0.006 0.004,-0.004 0.0103,-0.008 0.004,-0.002 0.008,-0.004 0.004,-0.004 0.0103,-0.008 0.004,-0.004 0.0207,-0.0165 0.0165,-0.0165 0.0165,-0.0165 0.004,-0.004 0.008,-0.008 0.004,-0.004 0.0103,-0.0103 0.004,-0.004 0.008,-0.008 0.004,-0.004 0.0103,-0.0103 0.006,-0.004 0.0186,-0.0165 0.004,-0.004 0.008,-0.008 0.004,-0.004 0.0103,-0.0103 0.004,-0.004 0.008,-0.008 0.004,-0.006 0.0103,-0.0124 0.0248,-0.0331 0.0165,-0.0207 0.0145,-0.0145 0.0186,-0.0227 0.0186,-0.0248 0.0165,-0.0227 0.004,-0.006 0.008,-0.0103 0.004,-0.006 0.0103,-0.0124 0.004,-0.006 0.006,-0.0124 0.004,-0.006 0.0103,-0.0124 0.002,-0.006 0.006,-0.0124 0.006,-0.008 0.0103,-0.0145 0.0124,-0.0165 0.0165,-0.0248 0.004,-0.006 0.006,-0.0124 0.004,-0.008 0.0103,-0.0145 0.004,-0.006 0.006,-0.0124 0.004,-0.008 0.0103,-0.0145 0.004,-0.0103 0.0124,-0.0269 0.004,-0.006 0.006,-0.0145 0.004,-0.008 0.0103,-0.0165 0.004,-0.006 0.006,-0.0124 0.004,-0.008 0.0103,-0.0165 0.002,-0.006 0.004,-0.0145 0.004,-0.008 0.008,-0.0165 0.006,-0.0103 0.0145,-0.031 0.0207,-0.0517 0.0145,-0.0331 0.002,-0.006 0.004,-0.0145 0.004,-0.0103 0.008,-0.0186 0.002,-0.008 0.004,-0.0165 0.004,-0.008 0.008,-0.0186 0.006,-0.0186 0.0103,-0.0331 0.002,-0.008 0.004,-0.0165 0.004,-0.008 0.008,-0.0186 -0.008,0.0207 0.0103,-0.0351 0.004,-0.0103 0.0124,-0.0351 0,-0.008 0.002,-0.0165 0.004,-0.0103 0.006,-0.0207 0.002,-0.008 0.004,-0.0165 0.002,-0.0103 0.006,-0.0207 0,-0.006 0.002,-0.0145 0.004,-0.0103 0.006,-0.0207 0.002,-0.0145 0.006,-0.0393 0,-0.008 0.002,-0.0165 0.004,-0.0103 0.006,-0.0207 0,-0.008 0.002,-0.0165 0.002,-0.0103 0.004,-0.0207 0.002,-0.0145 0.006,-0.0393 0,-0.008 0.002,-0.0186 0.004,-0.0103 0.006,-0.0207 0,-0.0145 0.004,-0.0393 0,-0.008 0,-0.0165 0.002,-0.0103 0.004,-0.0227 0.004,-0.0248 0.004,-0.0393 0.002,-0.0145 0.002,-0.0393 0.002,-0.0145 0.002,-0.0413 0.002,-0.0145 0.002,-0.0393 0,-0.0103 0,-0.0186 0.002,-0.0103 0.004,-0.0227 0,-0.008 0,-0.0165 0.002,-0.0103 0.002,-0.0227 0,-0.008 0,-0.0186 0,-0.0103 0,-0.0207 0,-0.0103 0,-0.0186 0,-0.0103 0,-0.0207 0,-0.0103 -0.002,-0.0186 0,-0.0103 0,-0.0227 0,-0.008 0,-0.0186 0,-0.0103 0,-0.0207 0,-0.0124 -0.004,-0.0413 0,-0.0248 -0.002,-0.0372 0,-0.0145 -0.004,-0.0434 0,-0.0248 -0.002,-0.0372 0,-0.0145 -0.004,-0.0393 -0.002,-0.008 -0.004,-0.0186 0,-0.0103 0,-0.0207 -0.004,-0.0248 -0.008,-0.0393 -0.002,-0.008 -0.004,-0.0165 -0.002,-0.0103 -0.002,-0.0207 -0.002,-0.0145 -0.006,-0.0393 -0.002,-0.0145 -0.006,-0.0393 -0.008,-0.0248 -0.0103,-0.0372 -0.004,-0.0248 -0.006,-0.0351 -0.004,-0.008 -0.006,-0.0165 -0.002,-0.0103 -0.004,-0.0207 -0.002,-0.008 -0.006,-0.0165 -0.004,-0.0103 -0.004,-0.0207 -0.0186,-0.0558 -0.0103,-0.0351 -0.004,-0.0145 -0.0103,-0.0351 -0.004,-0.006 -0.008,-0.0145 -0.002,-0.0103 -0.004,-0.0186 -0.002,-0.006 -0.0124,-0.0351 -0.008,-0.0207 -0.0124,-0.0331 -0.004,-0.006 -0.008,-0.0145 -0.002,-0.0103 -0.004,-0.0186 -0.004,-0.006 -0.008,-0.0145 -0.004,-0.008 -0.006,-0.0165 -0.008,-0.0207 -0.0145,-0.031 -0.008,-0.0207 -0.0124,-0.0289 -0.008,-0.0207 -0.0145,-0.031 -0.004,-0.006 -0.008,-0.0124 -0.004,-0.008 -0.006,-0.0145 -0.0124,-0.0207 -0.0165,-0.0289 -0.0186,-0.0289 -0.0165,-0.0269 -0.006,-0.006 -0.0103,-0.0124 -0.002,-0.008 -0.006,-0.0145 -0.004,-0.008 -0.0165,-0.0248 -0.004,-0.006 -0.008,-0.0124 -0.004,-0.006 -0.006,-0.0124 -0.0103,-0.0186 -0.0351,-0.0475 -0.004,-0.004 -0.0331,-0.0455 -0.0248,-0.0289 -0.0372,-0.0413 -0.0124,-0.0145 -0.0372,-0.0393 -0.0165,-0.0186 -0.0351,-0.0351 -0.0145,-0.0103 -0.0393,-0.031 -0.0207,-0.0165 -0.0393,-0.031 -0.0475,-0.031 -0.0393,-0.0269 -0.0413,-0.0248 -0.0372,-0.0227 0,0 -0.0372,-0.0186 -0.008,-0.004 -0.0393,-0.0145 -0.0269,-0.0103 -0.0393,-0.0145 -0.0103,-0.002 -0.0186,-0.004 -0.008,-0.004 -0.0165,-0.008 -0.0372,-0.006 -0.0372,-0.006 -0.0124,-0.002 -0.0372,-0.002 -0.006,0 -0.0103,0 -0.004,0 -0.008,0 h -0.68213 v 3.06751 0 z"
         style="font-size:4.23333px;fill:#00ff00;stroke-width:0.264583"
         id="path2674" />
      <path
         d="m 136.92869,130.97679 -0.0186,-0.002 q -0.25218,-0.031 -0.25218,-0.28732 0,-0.25632 0.25218,-0.28733 l 0.0186,-0.004 h 0.0186 0.76274 q 0.11989,0 0.20464,0.0868 0.0868,0.0848 0.0868,0.20464 v 1.04799 l -0.0248,0.0538 -0.0145,0.0331 -0.0145,0.031 -0.0165,0.031 -0.0165,0.031 -0.0145,0.031 -0.0165,0.031 -0.0186,0.031 q -0.40101,0.68213 -0.99632,0.66766 -0.59531,-0.0165 -1.00046,-0.67386 -0.19223,-0.31212 -0.28525,-0.78134 -0.093,-0.47129 -0.0558,-0.96119 0.0372,-0.49195 0.22737,-0.9343 0.19224,-0.44442 0.57258,-0.70487 0.47542,-0.32246 0.92604,-0.0744 0.45062,0.24598 0.67386,0.69246 l 0.0165,0.0331 0.0124,0.0289 0.0165,0.031 q 0.0703,0.19637 -0.0537,0.32039 -0.11989,0.11782 -0.26045,0.0889 -0.14056,-0.031 -0.21704,-0.16743 -0.24184,-0.59944 -0.62425,-0.52296 -0.38034,0.0765 -0.57051,0.62425 -0.18603,0.52916 -0.14676,1.13895 0.0393,0.60771 0.39688,1.06039 0.24598,0.31626 0.50022,0.20258 0.25425,-0.11369 0.40101,-0.42375 l 0.0227,-0.0455 v -0.63045 z"
         style="font-size:4.23333px;fill:#00ff00;stroke-width:0.264583"
         id="path2676" />
    </g>
    <g
       aria-label="gt"
       id="text3164-67-2-9-1-4"
       style="font-size:4.23333px;line-height:1.25;font-family:'MS 33558';-inkscape-font-specification:'MS 33558, ';letter-spacing:0px;word-spacing:0px;fill:#00ff00;stroke-width:0.264583">
      <path
         d="m 130.29167,157.51329 -0.0186,-0.002 q -0.25218,-0.031 -0.25218,-0.28732 0,-0.25631 0.25218,-0.28732 l 0.0186,-0.004 h 0.0186 0.76274 q 0.11989,0 0.20464,0.0868 0.0868,0.0847 0.0868,0.20463 v 1.048 l -0.0248,0.0537 -0.0145,0.0331 -0.0145,0.031 -0.0165,0.031 -0.0165,0.031 -0.0145,0.031 -0.0165,0.031 -0.0186,0.031 q -0.40101,0.68213 -0.99632,0.66766 -0.59531,-0.0165 -1.00046,-0.67386 -0.19223,-0.31212 -0.28525,-0.78135 -0.093,-0.47128 -0.0558,-0.96118 0.0372,-0.49196 0.22738,-0.93431 0.19223,-0.44441 0.57257,-0.70486 0.47542,-0.32246 0.92604,-0.0744 0.45062,0.24598 0.67386,0.69247 l 0.0165,0.0331 0.0124,0.0289 0.0165,0.031 q 0.0703,0.19637 -0.0538,0.32039 -0.11989,0.11782 -0.26045,0.0889 -0.14056,-0.031 -0.21704,-0.16743 -0.24184,-0.59944 -0.62425,-0.52296 -0.38034,0.0765 -0.5705,0.62425 -0.18604,0.52916 -0.14677,1.13894 0.0393,0.60772 0.39688,1.0604 0.24598,0.31626 0.50023,0.20258 0.25424,-0.11369 0.40101,-0.42375 l 0.0227,-0.0455 v -0.63045 z"
         style="font-size:4.23333px;fill:#00ff00;stroke-width:0.264583"
         id="path2686" />
      <path
         d="m 133.08633,158.92922 v -3.36103 h -0.75861 q -0.28938,-0.0227 -0.28938,-0.28939 0.002,-0.26871 0.28938,-0.29352 h 2.09806 q 0.28526,0.0227 0.28526,0.29352 0.002,0.26872 -0.28526,0.28939 h -0.75654 v 3.36103 q -0.0475,0.29353 -0.30592,0.28939 -0.25632,-0.004 -0.27699,-0.28939 z"
         style="font-size:4.23333px;fill:#00ff00;stroke-width:0.264583"
         id="path2688" />
    </g>
    <path
       id="rect3342"
       style="fill:#00ff00;stroke:none;stroke-width:0.0390189"
       d="m 117.09273,77.751122 h 38.04433 v 1.124472 h -38.04433 z" />
    <path
       id="rect3342-3"
       style="fill:#00ff00;stroke:none;stroke-width:0.0390189"
       d="m 48.314415,77.751122 h 38.044331 v 1.124472 H 48.314415 Z" />
    <path
       id="rect3342-2"
       style="fill:#00ff00;stroke:none;stroke-width:0.0420983"
       d="m 118.24029,119.56252 h 44.4079 v 1.1214 h -44.4079 z" />
    <path
       id="rect3342-3-8"
       style="fill:#00ff00;stroke:none;stroke-width:0.0420983"
       d="m 39.936939,119.56252 h 44.407902 v 1.1214 H 39.936939 Z" />
    <path
       style="fill:#ff0000;stroke:none;stroke-width:0.0553847"
       id="path3377"
       sodipodi:type="arc"
       sodipodi:cx="148.18817"
       sodipodi:cy="64.700928"
       sodipodi:rx="3.175"
       sodipodi:ry="3.175"
       sodipodi:start="0"
       sodipodi:end="6.1693026"
       sodipodi:open="true"
       sodipodi:arc-type="arc"
       d="m 151.36317,64.700928 a 3.175,3.175 0 0 1 -3.08462,3.173713 3.175,3.175 0 0 1 -3.26023,-2.993022 3.175,3.175 0 0 1 2.899,-3.344117 3.175,3.175 0 0 1 3.42528,2.802629" />
    <path
       style="fill:#ff0000;stroke:none;stroke-width:0.0553846"
       id="path3377-5"
       sodipodi:type="arc"
       sodipodi:cx="55.054718"
       sodipodi:cy="64.700928"
       sodipodi:rx="3.175"
       sodipodi:ry="3.175"
       sodipodi:start="0"
       sodipodi:end="6.1693026"
       sodipodi:open="true"
       sodipodi:arc-type="arc"
       d="m 58.229718,64.700928 a 3.175,3.175 0 0 1 -3.084618,3.173713 3.175,3.175 0 0 1 -3.260236,-2.993022 3.175,3.175 0 0 1 2.899,-3.344117 3.175,3.175 0 0 1 3.425287,2.802629" />
    <path
       style="fill:#ff0000;stroke:none;stroke-width:0.0553846"
       id="path3377-7"
       sodipodi:type="arc"
       sodipodi:cx="101.62125"
       sodipodi:cy="173.71736"
       sodipodi:rx="3.175"
       sodipodi:ry="3.175"
       sodipodi:start="0"
       sodipodi:end="6.1693026"
       sodipodi:open="true"
       sodipodi:arc-type="arc"
       d="m 104.79625,173.71736 a 3.175,3.175 0 0 1 -3.08462,3.17371 3.175,3.175 0 0 1 -3.260238,-2.99302 3.175,3.175 0 0 1 2.898998,-3.34411 3.175,3.175 0 0 1 3.42529,2.80262" />
    <g
       aria-label="off"
       id="text3164-67-2-7-2"
       style="font-size:4.23333px;line-height:1.25;font-family:'MS 33558';-inkscape-font-specification:'MS 33558, ';letter-spacing:0px;word-spacing:0px;fill:#00ff00;stroke-width:0.264583">
      <path
         d="m 151.78487,156.19501 q 0.19017,0.57258 0.14263,1.18856 -0.0455,0.61598 -0.33693,1.12448 -0.18397,0.31626 -0.50229,0.53743 -0.31833,0.22118 -0.7028,0.15503 -0.62632,-0.10955 -0.95912,-0.65319 -0.33279,-0.54363 -0.3824,-1.20923 -0.0475,-0.66766 0.17983,-1.30017 0.22945,-0.63252 0.72967,-0.91984 0.24392,-0.14056 0.51057,-0.14056 0.50849,0 0.83095,0.38447 0.32246,0.3824 0.48989,0.83302 z m -1.30431,-0.63045 q -0.38034,0 -0.57671,0.40928 -0.1943,0.40927 -0.24598,0.69866 -0.0393,0.21084 -0.0289,0.51056 0.0103,0.29973 0.0868,0.59325 0.0765,0.29145 0.22944,0.5271 0.15297,0.23358 0.40101,0.31006 0.28939,0.0909 0.49816,-0.11369 0.21084,-0.20671 0.31833,-0.43822 0.10955,-0.23771 0.14883,-0.62425 0.0413,-0.38654 -0.0186,-0.77101 -0.0579,-0.38654 -0.22944,-0.69453 -0.17156,-0.31006 -0.48782,-0.39481 -0.0413,-0.0124 -0.0951,-0.0124 z"
         style="font-size:4.23333px;fill:#00ff00;stroke-width:0.264583"
         id="path2691" />
      <path
         d="m 152.48354,158.91732 v -3.64628 q 0.0372,-0.27285 0.29352,-0.29352 h 2.00091 q 0.28732,0.0227 0.28732,0.29352 0,0.26872 -0.29145,0.28732 h -1.70946 v 1.13068 h 1.33325 q 0.28526,0.0207 0.28939,0.27905 0.004,0.25838 -0.28939,0.30179 h -1.33325 v 1.64744 q -0.0207,0.28526 -0.28112,0.28939 -0.25838,0.004 -0.29972,-0.28939 z"
         style="font-size:4.23333px;fill:#00ff00;stroke-width:0.264583"
         id="path2693" />
      <path
         d="m 155.64407,158.91732 v -3.64628 q 0.0372,-0.27285 0.29352,-0.29352 h 2.00091 q 0.28732,0.0227 0.28732,0.29352 0,0.26872 -0.29146,0.28732 h -1.70945 v 1.13068 h 1.33325 q 0.28525,0.0207 0.28939,0.27905 0.004,0.25838 -0.28939,0.30179 h -1.33325 v 1.64744 q -0.0207,0.28526 -0.28112,0.28939 -0.25838,0.004 -0.29972,-0.28939 z"
         style="font-size:4.23333px;fill:#00ff00;stroke-width:0.264583"
         id="path2695" />
    </g>
  </g>
</svg>
