<?xml version="1.0" encoding="UTF-8" standalone="no"?>
<svg
   xmlns:dc="http://purl.org/dc/elements/1.1/"
   xmlns:cc="http://creativecommons.org/ns#"
   xmlns:rdf="http://www.w3.org/1999/02/22-rdf-syntax-ns#"
   xmlns:svg="http://www.w3.org/2000/svg"
   xmlns="http://www.w3.org/2000/svg"
   xmlns:sodipodi="http://sodipodi.sourceforge.net/DTD/sodipodi-0.dtd"
   xmlns:inkscape="http://www.inkscape.org/namespaces/inkscape"
   width="210mm"
   height="297mm"
   viewBox="0 0 210 297"
   version="1.1"
   id="svg987"
   inkscape:version="1.0.2 (e86c870879, 2021-01-15, custom)"
   sodipodi:docname="ASYM Top v3.svg">
  <defs
     id="defs981" />
  <sodipodi:namedview
     id="base"
     pagecolor="#ffffff"
     bordercolor="#666666"
     borderopacity="1.0"
     inkscape:pageopacity="0.0"
     inkscape:pageshadow="2"
     inkscape:zoom="1"
     inkscape:cx="400"
     inkscape:cy="560"
     inkscape:document-units="mm"
     inkscape:current-layer="layer1"
     inkscape:document-rotation="0"
     showgrid="false"
     inkscape:window-width="2560"
     inkscape:window-height="1361"
     inkscape:window-x="-9"
     inkscape:window-y="-9"
     inkscape:window-maximized="1" />
  <metadata
     id="metadata984">
    <rdf:RDF>
      <cc:Work
         rdf:about="">
        <dc:format>image/svg+xml</dc:format>
        <dc:type
           rdf:resource="http://purl.org/dc/dcmitype/StillImage" />
        <dc:title />
      </cc:Work>
    </rdf:RDF>
  </metadata>
  <g
     inkscape:label="Layer 1"
     inkscape:groupmode="layer"
     id="layer1">
    <g
       id="g1786"
       transform="translate(-37.203083,-23.25241)"
       style="fill:none">
      <rect
         style="fill:none;stroke:#000000;stroke-width:0.306243;stroke-miterlimit:4;stroke-dasharray:none;stroke-dashoffset:0;stroke-opacity:1"
         id="rect35"
         width="90.993095"
         height="75.893761"
         x="92.512787"
         y="117.06802" />
    </g>
    <g
       aria-label="ASYM"
       transform="scale(0.99922789,1.0007727)"
       id="text79"
       style="font-style:normal;font-variant:normal;font-weight:normal;font-stretch:normal;font-size:4.23007px;line-height:1.25;font-family:'MS 33558';-inkscape-font-specification:'MS 33558, ';letter-spacing:0px;word-spacing:0px;fill:#00ff00;fill-opacity:1;stroke:none;stroke-width:0.264379">
      <path
         d="m 60.748845,107.67285 -0.627901,-1.73499 -0.632032,1.73499 z m -0.627901,-1.73499 0.627901,1.73499 z m -1.594538,2.69337 q 0.330474,-0.91087 0.660948,-1.81968 0.33254,-0.91087 0.66508,-1.82174 0.06816,-0.18795 0.270575,-0.19002 0.202416,-0.002 0.272642,0.19002 l 1.323962,3.65174 q 0.06196,0.29123 -0.17763,0.37592 -0.239594,0.0847 -0.369718,-0.1735 l -0.212743,-0.59072 h -1.683353 l -0.206546,0.57626 q -0.13219,0.26025 -0.375915,0.17143 -0.243724,-0.0909 -0.167302,-0.36971 z"
         style="font-style:normal;font-variant:normal;font-weight:normal;font-stretch:normal;font-size:4.23007px;font-family:'MS 33558';-inkscape-font-specification:'MS 33558, ';fill:#00ff00;stroke-width:0.264379"
         id="path1072" />
      <path
         d="m 64.204366,106.77851 0.03305,0.0144 0.03718,0.0186 0.03305,0.0186 q 0.01446,0.0103 0.03098,0.0207 0.01859,0.008 0.03511,0.0186 0.408962,0.26851 0.506039,0.74356 0.03718,0.18589 0.01652,0.38211 -0.03305,0.28091 -0.198285,0.5205 -0.163172,0.23753 -0.411027,0.36765 -0.266445,0.14046 -0.551479,0.14046 -0.479188,0 -0.915001,-0.12187 -0.435813,-0.12393 -0.621704,-0.65888 -0.02479,-0.0682 -0.03718,-0.14045 -0.01239,-0.0723 -0.02892,-0.14458 -0.03098,-0.14872 0.07229,-0.26232 0.105339,-0.1136 0.260249,-0.0868 0.163171,0.0331 0.227201,0.20242 l 0.0062,0.0186 q 0.09914,0.4482 0.344932,0.53495 0.247856,0.0868 0.6878,0.0785 0.404831,0 0.55561,-0.38005 0.0661,-0.16936 0.02065,-0.35112 -0.04544,-0.18383 -0.179695,-0.30569 -0.0599,-0.0516 -0.156975,-0.0971 l -0.95631,-0.41929 -0.03098,-0.0165 q -0.46886,-0.24786 -0.582461,-0.70433 -0.138386,-0.52875 0.192088,-0.94804 0.33254,-0.42136 0.871626,-0.42136 l 0.227201,0.006 q 0.111535,0.0207 0.214808,0.0413 0.103274,0.0186 0.208612,0.0661 0.260249,0.12186 0.398635,0.33461 0.138386,0.21274 0.249921,0.4606 0.01033,0.0227 0.01859,0.0537 0.02272,0.10121 -0.02066,0.18382 -0.02478,0.0516 -0.05164,0.0785 -0.02685,0.0269 -0.04337,0.0372 -0.107404,0.0764 -0.235463,0.0454 -0.128059,-0.0289 -0.196219,-0.16524 -0.0537,-0.11979 -0.115666,-0.24372 -0.0599,-0.126 -0.169368,-0.20861 -0.04544,-0.0331 -0.08881,-0.0475 -0.04131,-0.0165 -0.09295,-0.0351 l -0.134255,-0.0227 -0.190023,-0.006 q -0.276772,0.004 -0.42342,0.2396 -0.09914,0.15077 -0.07436,0.33667 0.02892,0.22926 0.214808,0.35526 0.0083,0.006 0.01859,0.0144 0.01033,0.006 0.02272,0.0124 l 0.02272,0.0103 0.02479,0.0103 z"
         style="font-style:normal;font-variant:normal;font-weight:normal;font-stretch:normal;font-size:4.23007px;font-family:'MS 33558';-inkscape-font-specification:'MS 33558, ';fill:#00ff00;stroke-width:0.264379"
         id="path1074" />
      <path
         d="m 67.889154,104.95057 q 0.161106,-0.24166 0.388307,-0.11567 0.229267,0.126 0.117732,0.39451 l -1.187642,2.12123 v 1.38179 q -0.01859,0.2933 -0.289165,0.2933 -0.26851,0 -0.2871,-0.2933 v -1.38179 l -1.185576,-2.12123 q -0.109469,-0.26645 0.111535,-0.39037 0.221005,-0.126 0.394504,0.11153 l 0.968702,1.73086 z"
         style="font-style:normal;font-variant:normal;font-weight:normal;font-stretch:normal;font-size:4.23007px;font-family:'MS 33558';-inkscape-font-specification:'MS 33558, ';fill:#00ff00;stroke-width:0.264379"
         id="path1076" />
      <path
         d="m 72.018017,108.7407 q -0.04544,0.28916 -0.293296,0.28916 -0.245791,-0.002 -0.289165,-0.28916 v -2.57977 l -0.708454,1.21243 q -0.113601,0.13632 -0.254052,0.14252 -0.138387,0.006 -0.247856,-0.14252 l -0.704323,-1.20623 0.0021,2.57357 q -0.03305,0.2871 -0.299492,0.2871 -0.26438,-0.002 -0.285034,-0.2871 v -3.64761 q 0.01652,-0.23753 0.208612,-0.28297 0.192088,-0.0475 0.334605,0.13012 l 0.993488,1.70814 1.003815,-1.70814 q 0.142517,-0.17763 0.330475,-0.13012 0.190022,0.0475 0.208612,0.28297 z"
         style="font-style:normal;font-variant:normal;font-weight:normal;font-stretch:normal;font-size:4.23007px;font-family:'MS 33558';-inkscape-font-specification:'MS 33558, ';fill:#00ff00;stroke-width:0.264379"
         id="path1078" />
    </g>
    <path
       id="rect75"
       style="fill:#00ff00;stroke-width:0.290607;stroke-dasharray:6.9746, 0.290607"
       d="m 77.889351,103.18741 h 2.536086 v 57.15016 h -2.536086 z" />
    <g
       aria-label="LIMITER"
       transform="scale(0.99922789,1.0007727)"
       id="text83"
       style="font-style:normal;font-variant:normal;font-weight:normal;font-stretch:normal;font-size:4.23007px;line-height:1.25;font-family:'MS 33558';-inkscape-font-specification:'MS 33558, ';letter-spacing:0px;word-spacing:0px;fill:#00ff00;fill-opacity:1;stroke:none;stroke-width:0.264379">
      <path
         d="m 57.743941,115.58852 q -0.254052,-0.0165 -0.293296,-0.2871 v -3.65174 q 0.04337,-0.29742 0.301558,-0.29123 0.258183,0.004 0.280903,0.29123 v 3.36258 l 1.906423,-0.002 q 0.293296,0.0331 0.289165,0.29743 -0.0021,0.26231 -0.29123,0.2809 z"
         style="font-style:normal;font-variant:normal;font-weight:normal;font-stretch:normal;font-size:4.23007px;font-family:'MS 33558';-inkscape-font-specification:'MS 33558, ';fill:#00ff00;stroke-width:0.264379"
         id="path1057" />
      <path
         d="m 61.403943,115.30142 q -0.04544,0.29123 -0.295361,0.28917 -0.247856,0 -0.29123,-0.28917 v -3.65174 q 0.04337,-0.29123 0.29123,-0.29123 0.249921,-0.002 0.295361,0.29123 z"
         style="font-style:normal;font-variant:normal;font-weight:normal;font-stretch:normal;font-size:4.23007px;font-family:'MS 33558';-inkscape-font-specification:'MS 33558, ';fill:#00ff00;stroke-width:0.264379"
         id="path1059" />
      <path
         d="m 65.070142,115.29729 q -0.04544,0.28917 -0.293296,0.28917 -0.24579,-0.002 -0.289165,-0.28917 v -2.57976 l -0.708454,1.21242 q -0.1136,0.13632 -0.254052,0.14252 -0.138386,0.006 -0.247856,-0.14252 l -0.704323,-1.20623 0.0021,2.57357 q -0.03305,0.2871 -0.299493,0.2871 -0.264379,-0.002 -0.285034,-0.2871 v -3.64761 q 0.01652,-0.23753 0.208612,-0.28297 0.192088,-0.0475 0.334605,0.13013 l 0.993488,1.70814 1.003816,-1.70814 q 0.142517,-0.17763 0.330474,-0.13013 0.190023,0.0475 0.208612,0.28297 z"
         style="font-style:normal;font-variant:normal;font-weight:normal;font-stretch:normal;font-size:4.23007px;font-family:'MS 33558';-inkscape-font-specification:'MS 33558, ';fill:#00ff00;stroke-width:0.264379"
         id="path1061" />
      <path
         d="m 66.152445,115.30142 q -0.04544,0.29123 -0.295361,0.28917 -0.247856,0 -0.291231,-0.28917 v -3.65174 q 0.04337,-0.29123 0.291231,-0.29123 0.249921,-0.002 0.295361,0.29123 z"
         style="font-style:normal;font-variant:normal;font-weight:normal;font-stretch:normal;font-size:4.23007px;font-family:'MS 33558';-inkscape-font-specification:'MS 33558, ';fill:#00ff00;stroke-width:0.264379"
         id="path1063" />
      <path
         d="m 67.786227,115.29729 v -3.35844 h -0.758025 q -0.289165,-0.0227 -0.289165,-0.28917 0.0021,-0.26851 0.289165,-0.29329 h 2.096445 q 0.285034,0.0227 0.285034,0.29329 0.0021,0.26851 -0.285034,0.28917 h -0.755959 v 3.35844 q -0.04751,0.2933 -0.305689,0.28917 -0.256118,-0.004 -0.276772,-0.28917 z"
         style="font-style:normal;font-variant:normal;font-weight:normal;font-stretch:normal;font-size:4.23007px;font-family:'MS 33558';-inkscape-font-specification:'MS 33558, ';fill:#00ff00;stroke-width:0.264379"
         id="path1065" />
      <path
         d="m 72.31992,111.93265 h -1.71227 v 1.12981 h 1.305374 q 0.293295,0.0434 0.29123,0.29536 0,0.24992 -0.29123,0.29123 H 70.60765 v 1.35701 h 1.71227 q 0.29123,0.0434 0.29123,0.29123 0,0.24786 -0.29123,0.28917 h -1.999369 q -0.258183,-0.0331 -0.293296,-0.2933 v -3.64761 q 0.03924,-0.27264 0.293296,-0.28916 h 1.999369 q 0.29123,0.0227 0.289165,0.29123 0,0.26644 -0.289165,0.28503 z"
         style="font-style:normal;font-variant:normal;font-weight:normal;font-stretch:normal;font-size:4.23007px;font-family:'MS 33558';-inkscape-font-specification:'MS 33558, ';fill:#00ff00;stroke-width:0.264379"
         id="path1067" />
      <path
         d="m 75.79403,115.13825 q 0.13219,0.2334 -0.07436,0.39244 -0.09914,0.0702 -0.229267,0.0475 -0.128059,-0.0227 -0.187957,-0.12805 l -1.018274,-1.609 H 73.76781 v 1.45409 q 0,0.17969 -0.163171,0.26024 -0.163172,0.0785 -0.305689,-0.031 -0.113601,-0.0847 -0.113601,-0.22926 v -3.64968 q 0,-0.1198 0.08262,-0.20448 0.08468,-0.0847 0.206546,-0.0847 h 1.282654 q 0.462663,0 0.803465,0.29536 0.340802,0.29329 0.42342,0.74563 0.08675,0.48538 -0.206546,0.9088 -0.291231,0.42136 -0.774549,0.51224 l -0.03924,0.006 z m -1.036862,-1.87751 q 0.210677,0 0.388307,-0.12805 0.179695,-0.12806 0.241659,-0.33461 0.09708,-0.31808 -0.08881,-0.5742 -0.185892,-0.25818 -0.512235,-0.28503 H 73.76781 v 1.32189 z"
         style="font-style:normal;font-variant:normal;font-weight:normal;font-stretch:normal;font-size:4.23007px;font-family:'MS 33558';-inkscape-font-specification:'MS 33558, ';fill:#00ff00;stroke-width:0.264379"
         id="path1069" />
    </g>
    <g
       aria-label="OFF"
       transform="scale(0.99922789,1.0007727)"
       id="text79-8"
       style="font-style:normal;font-variant:normal;font-weight:normal;font-stretch:normal;font-size:4.23007px;line-height:1.25;font-family:'MS 33558';-inkscape-font-specification:'MS 33558, ';letter-spacing:0px;word-spacing:0px;fill:#00ff00;fill-opacity:1;stroke:none;stroke-width:0.264379">
      <path
         d="m 61.255192,122.51342 q 0.190023,0.57213 0.142517,1.18764 -0.04544,0.61551 -0.33667,1.12361 -0.183827,0.31602 -0.501908,0.53702 -0.318081,0.22101 -0.702258,0.15491 -0.625835,-0.10947 -0.958375,-0.65268 -0.33254,-0.54322 -0.382111,-1.2083 -0.04751,-0.66714 0.179696,-1.29918 0.229266,-0.63203 0.729108,-0.91913 0.243725,-0.14045 0.51017,-0.14045 0.508104,0 0.830316,0.38418 0.322213,0.38211 0.489515,0.83238 z m -1.303307,-0.62997 q -0.380046,0 -0.576265,0.40897 -0.194153,0.40896 -0.24579,0.69812 -0.03924,0.21068 -0.02892,0.51017 0.01033,0.29949 0.08675,0.59279 0.07642,0.29123 0.229266,0.52669 0.152845,0.2334 0.4007,0.30982 0.289165,0.0909 0.497777,-0.1136 0.210678,-0.20654 0.318082,-0.43788 0.109469,-0.23752 0.148713,-0.62377 0.04131,-0.38624 -0.01859,-0.77041 -0.05783,-0.38625 -0.229267,-0.694 -0.171433,-0.30982 -0.487449,-0.3945 -0.04131,-0.0124 -0.09501,-0.0124 z"
         style="font-style:normal;font-variant:normal;font-weight:normal;font-stretch:normal;font-size:4.23007px;font-family:'MS 33558';-inkscape-font-specification:'MS 33558, ';fill:#00ff00;stroke-width:0.264379"
         id="path1050" />
      <path
         d="m 61.953319,125.23364 v -3.64348 q 0.03718,-0.27264 0.293296,-0.2933 h 1.999369 q 0.2871,0.0227 0.2871,0.2933 0,0.26851 -0.291231,0.2871 h -1.708139 v 1.12981 h 1.332225 q 0.285034,0.0207 0.289165,0.27883 0.0041,0.25819 -0.289165,0.30156 h -1.332225 v 1.64618 q -0.02065,0.28503 -0.280903,0.28916 -0.258183,0.004 -0.299492,-0.28916 z"
         style="font-style:normal;font-variant:normal;font-weight:normal;font-stretch:normal;font-size:4.23007px;font-family:'MS 33558';-inkscape-font-specification:'MS 33558, ';fill:#00ff00;stroke-width:0.264379"
         id="path1052" />
      <path
         d="m 65.111413,125.23364 v -3.64348 q 0.03718,-0.27264 0.293296,-0.2933 h 1.999369 q 0.2871,0.0227 0.2871,0.2933 0,0.26851 -0.29123,0.2871 h -1.708139 v 1.12981 h 1.332224 q 0.285034,0.0207 0.289165,0.27883 0.0041,0.25819 -0.289165,0.30156 h -1.332224 v 1.64618 q -0.02066,0.28503 -0.280903,0.28916 -0.258183,0.004 -0.299493,-0.28916 z"
         style="font-style:normal;font-variant:normal;font-weight:normal;font-stretch:normal;font-size:4.23007px;font-family:'MS 33558';-inkscape-font-specification:'MS 33558, ';fill:#00ff00;stroke-width:0.264379"
         id="path1054" />
    </g>
    <g
       aria-label="ON"
       transform="scale(0.99922789,1.0007727)"
       id="text79-5"
       style="font-style:normal;font-variant:normal;font-weight:normal;font-stretch:normal;font-size:4.23007px;line-height:1.25;font-family:'MS 33558';-inkscape-font-specification:'MS 33558, ';letter-spacing:0px;word-spacing:0px;fill:#00ff00;fill-opacity:1;stroke:none;stroke-width:0.264379">
      <path
         d="m 61.255192,139.01072 q 0.190023,0.57213 0.142517,1.18764 -0.04544,0.61551 -0.33667,1.12361 -0.183827,0.31602 -0.501908,0.53702 -0.318081,0.22101 -0.702258,0.15491 -0.625835,-0.10947 -0.958375,-0.65268 -0.33254,-0.54322 -0.382111,-1.2083 -0.04751,-0.66714 0.179696,-1.29918 0.229266,-0.63203 0.729108,-0.91913 0.243725,-0.14045 0.51017,-0.14045 0.508104,0 0.830316,0.38418 0.322213,0.38211 0.489515,0.83238 z m -1.303307,-0.62997 q -0.380046,0 -0.576265,0.40896 -0.194153,0.40897 -0.24579,0.69813 -0.03924,0.21068 -0.02892,0.51017 0.01033,0.29949 0.08675,0.59279 0.07642,0.29123 0.229266,0.52669 0.152845,0.2334 0.4007,0.30982 0.289165,0.0909 0.497777,-0.1136 0.210678,-0.20655 0.318082,-0.43788 0.109469,-0.23753 0.148713,-0.62377 0.04131,-0.38624 -0.01859,-0.77042 -0.05783,-0.38624 -0.229267,-0.69399 -0.171433,-0.30982 -0.487449,-0.3945 -0.04131,-0.0124 -0.09501,-0.0124 z"
         style="font-style:normal;font-variant:normal;font-weight:normal;font-stretch:normal;font-size:4.23007px;font-family:'MS 33558';-inkscape-font-specification:'MS 33558, ';fill:#00ff00;stroke-width:0.264379"
         id="path1045" />
      <path
         d="m 64.805725,141.7392 q 0,0.21687 -0.210678,0.27677 -0.208611,0.0578 -0.324277,-0.12393 l -1.73499,-2.78218 v 2.62934 q -0.04544,0.28916 -0.293296,0.28916 -0.24579,0 -0.289165,-0.28916 v -3.64761 q 0.03098,-0.21481 0.218939,-0.28297 0.190023,-0.0682 0.316016,0.12806 l 1.73499,2.78631 v -2.6314 q 0.03924,-0.29536 0.299492,-0.29123 0.262314,0.002 0.282969,0.29123 z"
         style="font-style:normal;font-variant:normal;font-weight:normal;font-stretch:normal;font-size:4.23007px;font-family:'MS 33558';-inkscape-font-specification:'MS 33558, ';fill:#00ff00;stroke-width:0.264379"
         id="path1047" />
    </g>
    <path
       id="path664"
       style="fill:#ff0000;stroke-width:0.322548;stroke-dasharray:7.74117, 0.322548"
       d="m 99.409395,131.77486 a 6.3499999,6.3500185 0 0 1 -6.169236,6.34744 6.3499999,6.3500185 0 0 1 -6.520472,-5.98606 6.3499999,6.3500185 0 0 1 5.798001,-6.68825 6.3499999,6.3500185 0 0 1 6.850574,5.60527" />
    <g
       aria-label="ENG MODE SELECT"
       transform="scale(0.99922789,1.0007727)"
       id="text79-8-7"
       style="font-style:normal;font-variant:normal;font-weight:normal;font-stretch:normal;font-size:4.23007px;line-height:1.25;font-family:'MS 33558';-inkscape-font-specification:'MS 33558, ';letter-spacing:0px;word-spacing:0px;fill:#00ff00;fill-opacity:1;stroke:none;stroke-width:0.264379">
      <path
         d="m 87.17756,106.43593 h -1.712269 v 1.12981 h 1.305373 q 0.293296,0.0434 0.29123,0.29536 0,0.24992 -0.29123,0.29123 h -1.305373 v 1.35701 h 1.712269 q 0.291231,0.0434 0.291231,0.29123 0,0.24786 -0.291231,0.28917 h -1.999369 q -0.258183,-0.0331 -0.293296,-0.2933 v -3.64761 q 0.03924,-0.27264 0.293296,-0.28916 h 1.999369 q 0.291231,0.0227 0.289165,0.29123 0,0.26644 -0.289165,0.28503 z"
         style="font-style:normal;font-variant:normal;font-weight:normal;font-stretch:normal;font-size:4.23007px;font-family:'MS 33558';-inkscape-font-specification:'MS 33558, ';fill:#00ff00;stroke-width:0.264379"
         id="path1082" />
      <path
         d="m 90.895395,109.8047 q 0,0.21688 -0.210677,0.27678 -0.208612,0.0578 -0.324278,-0.12393 l -1.734989,-2.78218 v 2.62933 q -0.04544,0.28917 -0.293296,0.28917 -0.245791,0 -0.289165,-0.28917 v -3.64761 q 0.03098,-0.2148 0.218939,-0.28296 0.190023,-0.0682 0.316016,0.12805 l 1.73499,2.78631 v -2.6314 q 0.03924,-0.29536 0.299492,-0.29123 0.262314,0.002 0.282968,0.29123 z"
         style="font-style:normal;font-variant:normal;font-weight:normal;font-stretch:normal;font-size:4.23007px;font-family:'MS 33558';-inkscape-font-specification:'MS 33558, ';fill:#00ff00;stroke-width:0.264379"
         id="path1084" />
      <path
         d="m 92.900961,108.38573 -0.01859,-0.002 q -0.251987,-0.031 -0.251987,-0.2871 0,-0.25611 0.251987,-0.2871 l 0.01859,-0.004 h 0.01859 0.762156 q 0.119797,0 0.204481,0.0868 0.08675,0.0847 0.08675,0.20448 v 1.04719 l -0.02479,0.0537 -0.01446,0.033 -0.01446,0.031 -0.01652,0.031 -0.01652,0.031 -0.01446,0.031 -0.01652,0.031 -0.01859,0.031 q -0.4007,0.6816 -0.995554,0.66714 -0.594853,-0.0165 -0.999684,-0.67334 -0.192088,-0.31189 -0.285034,-0.78075 -0.09295,-0.47092 -0.05577,-0.96044 0.03718,-0.49158 0.227201,-0.93359 0.192088,-0.44407 0.572134,-0.70432 0.475057,-0.32221 0.925328,-0.0744 0.450271,0.24579 0.673341,0.69193 l 0.01652,0.0331 0.01239,0.0289 0.01652,0.031 q 0.07023,0.19622 -0.0537,0.32015 -0.119797,0.11773 -0.260248,0.0888 -0.140452,-0.031 -0.216874,-0.1673 -0.241659,-0.59899 -0.62377,-0.52256 -0.380046,0.0764 -0.570068,0.62377 -0.185892,0.52876 -0.146648,1.13807 0.03924,0.60724 0.396569,1.05958 0.24579,0.31602 0.499842,0.20242 0.254052,-0.1136 0.4007,-0.42342 l 0.02272,-0.0454 v -0.62997 z"
         style="font-style:normal;font-variant:normal;font-weight:normal;font-stretch:normal;font-size:4.23007px;font-family:'MS 33558';-inkscape-font-specification:'MS 33558, ';fill:#00ff00;stroke-width:0.264379"
         id="path1086" />
      <path
         d="m 101.95596,109.80057 q -0.0455,0.28917 -0.2933,0.28917 -0.24579,-0.002 -0.28917,-0.28917 v -2.57976 l -0.70845,1.21242 q -0.1136,0.13633 -0.25405,0.14252 -0.13839,0.006 -0.24786,-0.14252 l -0.704321,-1.20623 0.0021,2.57357 q -0.03305,0.2871 -0.299492,0.2871 -0.26438,-0.002 -0.285035,-0.2871 v -3.64761 q 0.01652,-0.23753 0.208612,-0.28297 0.192088,-0.0475 0.334606,0.13013 l 0.993484,1.70814 1.00382,-1.70814 q 0.14252,-0.17763 0.33047,-0.13013 0.19003,0.0475 0.20862,0.28297 z"
         style="font-style:normal;font-variant:normal;font-weight:normal;font-stretch:normal;font-size:4.23007px;font-family:'MS 33558';-inkscape-font-specification:'MS 33558, ';fill:#00ff00;stroke-width:0.264379"
         id="path1088" />
      <path
         d="m 105.19873,107.07623 q 0.19003,0.57213 0.14252,1.18764 -0.0454,0.61551 -0.33667,1.12361 -0.18383,0.31602 -0.50191,0.53702 -0.31808,0.221 -0.70226,0.15491 -0.62583,-0.10947 -0.95837,-0.65269 -0.33254,-0.54321 -0.38211,-1.20829 -0.0475,-0.66715 0.17969,-1.29918 0.22927,-0.63203 0.72911,-0.91913 0.24373,-0.14045 0.51017,-0.14045 0.50811,0 0.83032,0.38417 0.32221,0.38211 0.48951,0.83239 z m -1.3033,-0.62997 q -0.38005,0 -0.57627,0.40896 -0.19415,0.40896 -0.24579,0.69813 -0.0392,0.21067 -0.0289,0.51017 0.0103,0.29949 0.0868,0.59278 0.0764,0.29124 0.22927,0.5267 0.15284,0.2334 0.4007,0.30982 0.28916,0.0909 0.49778,-0.1136 0.21067,-0.20655 0.31808,-0.43788 0.10947,-0.23753 0.14871,-0.62377 0.0413,-0.38624 -0.0186,-0.77042 -0.0578,-0.38624 -0.22926,-0.694 -0.17144,-0.30981 -0.48745,-0.3945 -0.0413,-0.0124 -0.095,-0.0124 z"
         style="font-style:normal;font-variant:normal;font-weight:normal;font-stretch:normal;font-size:4.23007px;font-family:'MS 33558';-inkscape-font-specification:'MS 33558, ';fill:#00ff00;stroke-width:0.264379"
         id="path1090" />
      <path
         d="m 106.18603,105.85967 h 0.97283 q 0.72498,0 1.08643,0.66095 0.36146,0.66094 0.36146,1.45408 0,0.79314 -0.36352,1.45409 -0.36146,0.66095 -1.08437,0.66095 h -0.97283 0.004 -0.004 q -0.0682,-0.0103 -0.0744,-0.0124 -0.21481,-0.0516 -0.21274,-0.2809 h -0.002 l 0.002,-3.64761 q -0.002,-0.006 -0.002,-0.0165 0.006,-0.1136 0.0888,-0.19209 0.0847,-0.0806 0.20241,-0.0806 z m 0.97283,3.64761 q 0.004,0 0.008,0 0.004,0 0.0103,0 0.004,0 0.006,0 0.004,-0.002 0.0103,-0.002 0.004,0 0.008,0 0.006,-0.002 0.0124,-0.002 0.004,0 0.008,0 0.004,-0.002 0.0103,-0.002 0.004,0 0.008,0 0.004,-0.002 0.0103,-0.002 0.008,-0.004 0.0165,-0.004 0.004,0 0.008,-0.002 0.004,-0.004 0.0103,-0.006 0.004,0 0.008,0 0.006,-0.002 0.0124,-0.004 0.004,0 0.008,-0.002 0.004,-0.002 0.0103,-0.004 0.0124,-0.004 0.0186,-0.008 0.0372,-0.0124 0.0206,-0.008 0.004,0 0.008,-0.002 0.004,-0.004 0.0103,-0.006 0.0186,-0.0124 0.0165,-0.0103 0.0207,-0.0103 0.0207,-0.0103 0.004,-0.002 0.008,-0.004 0.004,-0.004 0.0103,-0.008 0.0186,-0.0124 0.0186,-0.0124 0.004,-0.002 0.008,-0.004 0.006,-0.004 0.0124,-0.008 0.004,-0.002 0.008,-0.006 0.004,-0.004 0.0103,-0.008 0.004,-0.002 0.008,-0.004 0.004,-0.004 0.0103,-0.008 0.004,-0.004 0.0207,-0.0165 0.0165,-0.0165 0.0165,-0.0165 0.004,-0.004 0.008,-0.008 0.004,-0.004 0.0103,-0.0103 0.004,-0.004 0.008,-0.008 0.004,-0.004 0.0103,-0.0103 0.006,-0.004 0.0186,-0.0165 0.004,-0.004 0.008,-0.008 0.004,-0.004 0.0103,-0.0103 0.004,-0.004 0.008,-0.008 0.004,-0.006 0.0103,-0.0124 0.0248,-0.0331 0.0165,-0.0207 0.0145,-0.0145 0.0186,-0.0227 0.0186,-0.0248 0.0165,-0.0227 0.004,-0.006 0.008,-0.0103 0.004,-0.006 0.0103,-0.0124 0.004,-0.006 0.006,-0.0124 0.004,-0.006 0.0103,-0.0124 0.002,-0.006 0.006,-0.0124 0.006,-0.008 0.0103,-0.0145 0.0124,-0.0165 0.0165,-0.0248 0.004,-0.006 0.006,-0.0124 0.004,-0.008 0.0103,-0.0145 0.004,-0.006 0.006,-0.0124 0.004,-0.008 0.0103,-0.0145 0.004,-0.0103 0.0124,-0.0268 0.004,-0.006 0.006,-0.0145 0.004,-0.008 0.0103,-0.0165 0.004,-0.006 0.006,-0.0124 0.004,-0.008 0.0103,-0.0165 0.002,-0.006 0.004,-0.0145 0.004,-0.008 0.008,-0.0165 0.006,-0.0103 0.0145,-0.031 0.0207,-0.0516 0.0145,-0.0331 0.002,-0.006 0.004,-0.0145 0.004,-0.0103 0.008,-0.0186 0.002,-0.008 0.004,-0.0165 0.004,-0.008 0.008,-0.0186 0.006,-0.0186 0.0103,-0.0331 0.002,-0.008 0.004,-0.0165 0.004,-0.008 0.008,-0.0186 -0.008,0.0207 0.0103,-0.0351 0.004,-0.0103 0.0124,-0.0351 0,-0.008 0.002,-0.0165 0.004,-0.0103 0.006,-0.0206 0.002,-0.008 0.004,-0.0165 0.002,-0.0103 0.006,-0.0207 0,-0.006 0.002,-0.0145 0.004,-0.0103 0.006,-0.0207 0.002,-0.0145 0.006,-0.0392 0,-0.008 0.002,-0.0165 0.004,-0.0103 0.006,-0.0207 0,-0.008 0.002,-0.0165 0.002,-0.0103 0.004,-0.0207 0.002,-0.0144 0.006,-0.0392 0,-0.008 0.002,-0.0186 0.004,-0.0103 0.006,-0.0207 0,-0.0145 0.004,-0.0393 0,-0.008 0,-0.0165 0.002,-0.0103 0.004,-0.0227 0.004,-0.0248 0.004,-0.0392 0.002,-0.0145 0.002,-0.0392 0.002,-0.0145 0.002,-0.0413 0.002,-0.0145 0.002,-0.0392 0,-0.0103 0,-0.0186 0.002,-0.0103 0.004,-0.0227 0,-0.008 0,-0.0165 0.002,-0.0103 0.002,-0.0227 0,-0.008 0,-0.0186 0,-0.0103 0,-0.0207 0,-0.0103 0,-0.0186 0,-0.0103 0,-0.0206 0,-0.0103 -0.002,-0.0186 0,-0.0103 0,-0.0227 0,-0.008 0,-0.0186 0,-0.0103 0,-0.0207 0,-0.0124 -0.004,-0.0413 0,-0.0248 -0.002,-0.0372 0,-0.0145 -0.004,-0.0434 0,-0.0248 -0.002,-0.0372 0,-0.0144 -0.004,-0.0392 -0.002,-0.008 -0.004,-0.0186 0,-0.0103 0,-0.0207 -0.004,-0.0248 -0.008,-0.0392 -0.002,-0.008 -0.004,-0.0165 -0.002,-0.0103 -0.002,-0.0207 -0.002,-0.0144 -0.006,-0.0392 -0.002,-0.0145 -0.006,-0.0392 -0.008,-0.0248 -0.0103,-0.0372 -0.004,-0.0248 -0.006,-0.0351 -0.004,-0.008 -0.006,-0.0165 -0.002,-0.0103 -0.004,-0.0207 -0.002,-0.008 -0.006,-0.0165 -0.004,-0.0103 -0.004,-0.0207 -0.0186,-0.0558 -0.0103,-0.0351 -0.004,-0.0145 -0.0103,-0.0351 -0.004,-0.006 -0.008,-0.0145 -0.002,-0.0103 -0.004,-0.0186 -0.002,-0.006 -0.0124,-0.0351 -0.008,-0.0207 -0.0124,-0.033 -0.004,-0.006 -0.008,-0.0145 -0.002,-0.0103 -0.004,-0.0186 -0.004,-0.006 -0.008,-0.0145 -0.004,-0.008 -0.006,-0.0165 -0.008,-0.0207 -0.0145,-0.031 -0.008,-0.0206 -0.0124,-0.0289 -0.008,-0.0207 -0.0145,-0.031 -0.004,-0.006 -0.008,-0.0124 -0.004,-0.008 -0.006,-0.0145 -0.0124,-0.0207 -0.0165,-0.0289 -0.0186,-0.0289 -0.0165,-0.0269 -0.006,-0.006 -0.0103,-0.0124 -0.002,-0.008 -0.006,-0.0144 -0.004,-0.008 -0.0165,-0.0248 -0.004,-0.006 -0.008,-0.0124 -0.004,-0.006 -0.006,-0.0124 -0.0103,-0.0186 -0.0351,-0.0475 -0.004,-0.004 -0.0331,-0.0454 -0.0248,-0.0289 -0.0372,-0.0413 -0.0124,-0.0145 -0.0372,-0.0392 -0.0165,-0.0186 -0.0351,-0.0351 -0.0145,-0.0103 -0.0392,-0.031 -0.0207,-0.0165 -0.0392,-0.031 -0.0475,-0.031 -0.0392,-0.0268 -0.0413,-0.0248 -0.0372,-0.0227 0,0 -0.0372,-0.0186 -0.008,-0.004 -0.0392,-0.0145 -0.0268,-0.0103 -0.0392,-0.0145 -0.0103,-0.002 -0.0186,-0.004 -0.008,-0.004 -0.0165,-0.008 -0.0372,-0.006 -0.0372,-0.006 -0.0124,-0.002 -0.0372,-0.002 -0.006,0 -0.0103,0 -0.004,0 -0.008,0 h -0.6816 v 3.06515 0 z"
         style="font-style:normal;font-variant:normal;font-weight:normal;font-stretch:normal;font-size:4.23007px;font-family:'MS 33558';-inkscape-font-specification:'MS 33558, ';fill:#00ff00;stroke-width:0.264379"
         id="path1092" />
      <path
         d="m 111.42611,106.43593 h -1.71227 v 1.12981 h 1.30537 q 0.2933,0.0434 0.29123,0.29536 0,0.24992 -0.29123,0.29123 h -1.30537 v 1.35701 h 1.71227 q 0.29123,0.0434 0.29123,0.29123 0,0.24786 -0.29123,0.28917 h -1.99937 q -0.25819,-0.0331 -0.2933,-0.2933 v -3.64761 q 0.0393,-0.27264 0.2933,-0.28916 h 1.99937 q 0.29123,0.0227 0.28916,0.29123 0,0.26644 -0.28916,0.28503 z"
         style="font-style:normal;font-variant:normal;font-weight:normal;font-stretch:normal;font-size:4.23007px;font-family:'MS 33558';-inkscape-font-specification:'MS 33558, ';fill:#00ff00;stroke-width:0.264379"
         id="path1094" />
      <path
         d="m 118.59946,107.83838 0.0331,0.0145 0.0372,0.0186 0.0331,0.0186 q 0.0144,0.0103 0.031,0.0206 0.0186,0.008 0.0351,0.0186 0.40896,0.26851 0.50604,0.74357 0.0372,0.18589 0.0165,0.38211 -0.033,0.2809 -0.19828,0.5205 -0.16317,0.23752 -0.41103,0.36765 -0.26644,0.14045 -0.55148,0.14045 -0.47918,0 -0.915,-0.12186 -0.43581,-0.12393 -0.6217,-0.65888 -0.0248,-0.0682 -0.0372,-0.14046 -0.0124,-0.0723 -0.0289,-0.14458 -0.031,-0.14871 0.0723,-0.26231 0.10534,-0.1136 0.26025,-0.0867 0.16317,0.0331 0.2272,0.20241 l 0.006,0.0186 q 0.0991,0.44821 0.34493,0.53496 0.24786,0.0867 0.6878,0.0785 0.40483,0 0.55561,-0.38005 0.0661,-0.16937 0.0207,-0.35113 -0.0454,-0.18383 -0.1797,-0.30569 -0.0599,-0.0516 -0.15697,-0.0971 l -0.95631,-0.41929 -0.031,-0.0165 q -0.46886,-0.24785 -0.58246,-0.70432 -0.13838,-0.52876 0.19209,-0.94805 0.33254,-0.42135 0.87163,-0.42135 l 0.2272,0.006 q 0.11153,0.0207 0.21481,0.0413 0.10327,0.0186 0.20861,0.0661 0.26025,0.12186 0.39863,0.3346 0.13839,0.21275 0.24992,0.4606 0.0103,0.0227 0.0186,0.0537 0.0227,0.10121 -0.0207,0.18383 -0.0248,0.0516 -0.0516,0.0785 -0.0269,0.0268 -0.0434,0.0372 -0.10741,0.0764 -0.23547,0.0454 -0.12805,-0.0289 -0.19621,-0.16524 -0.0537,-0.1198 -0.11567,-0.24373 -0.0599,-0.12599 -0.16937,-0.20861 -0.0454,-0.0331 -0.0888,-0.0475 -0.0413,-0.0165 -0.093,-0.0351 l -0.13425,-0.0227 -0.19003,-0.006 q -0.27677,0.004 -0.42342,0.23959 -0.0991,0.15078 -0.0743,0.33667 0.0289,0.22927 0.2148,0.35526 0.008,0.006 0.0186,0.0145 0.0103,0.006 0.0227,0.0124 l 0.0227,0.0103 0.0248,0.0103 z"
         style="font-style:normal;font-variant:normal;font-weight:normal;font-stretch:normal;font-size:4.23007px;font-family:'MS 33558';-inkscape-font-specification:'MS 33558, ';fill:#00ff00;stroke-width:0.264379"
         id="path1096" />
      <path
         d="m 122.10249,106.43593 h -1.71227 v 1.12981 h 1.30537 q 0.2933,0.0434 0.29123,0.29536 0,0.24992 -0.29123,0.29123 h -1.30537 v 1.35701 h 1.71227 q 0.29123,0.0434 0.29123,0.29123 0,0.24786 -0.29123,0.28917 h -1.99937 q -0.25818,-0.0331 -0.29329,-0.2933 v -3.64761 q 0.0392,-0.27264 0.29329,-0.28916 h 1.99937 q 0.29123,0.0227 0.28917,0.29123 0,0.26644 -0.28917,0.28503 z"
         style="font-style:normal;font-variant:normal;font-weight:normal;font-stretch:normal;font-size:4.23007px;font-family:'MS 33558';-inkscape-font-specification:'MS 33558, ';fill:#00ff00;stroke-width:0.264379"
         id="path1098" />
      <path
         d="m 123.26121,110.0918 q -0.25405,-0.0165 -0.29329,-0.2871 v -3.65174 q 0.0434,-0.29742 0.30156,-0.29123 0.25818,0.004 0.2809,0.29123 v 3.36258 l 1.90642,-0.002 q 0.2933,0.0331 0.28917,0.29743 -0.002,0.26231 -0.29123,0.2809 z"
         style="font-style:normal;font-variant:normal;font-weight:normal;font-stretch:normal;font-size:4.23007px;font-family:'MS 33558';-inkscape-font-specification:'MS 33558, ';fill:#00ff00;stroke-width:0.264379"
         id="path1100" />
      <path
         d="m 128.62729,106.43593 h -1.71227 v 1.12981 h 1.30537 q 0.2933,0.0434 0.29123,0.29536 0,0.24992 -0.29123,0.29123 h -1.30537 v 1.35701 h 1.71227 q 0.29123,0.0434 0.29123,0.29123 0,0.24786 -0.29123,0.28917 h -1.99937 q -0.25818,-0.0331 -0.29329,-0.2933 v -3.64761 q 0.0392,-0.27264 0.29329,-0.28916 h 1.99937 q 0.29123,0.0227 0.28917,0.29123 0,0.26644 -0.28917,0.28503 z"
         style="font-style:normal;font-variant:normal;font-weight:normal;font-stretch:normal;font-size:4.23007px;font-family:'MS 33558';-inkscape-font-specification:'MS 33558, ';fill:#00ff00;stroke-width:0.264379"
         id="path1102" />
      <path
         d="m 132.15304,109.42879 -0.0186,0.0268 q -0.006,0.008 -0.0103,0.0145 -0.004,0.006 -0.008,0.0124 -0.28297,0.38211 -0.74357,0.54528 -0.45853,0.16111 -0.90467,-0.0599 -0.51843,-0.25818 -0.76216,-0.87575 -0.24165,-0.61758 -0.20861,-1.28266 0.0351,-0.66714 0.35113,-1.22482 0.31808,-0.55767 0.9212,-0.69812 0.347,-0.0806 0.69193,0.0682 0.34493,0.14665 0.56594,0.41309 0.002,0 0.0103,0.0145 0.095,0.12393 0.0392,0.27264 -0.0558,0.14665 -0.20448,0.18383 -0.15904,0.0413 -0.2933,-0.095 -0.27677,-0.32222 -0.53289,-0.30982 -0.25612,0.0124 -0.45853,0.21067 -0.20242,0.19829 -0.33667,0.50811 -0.13426,0.30982 -0.16524,0.58039 -0.0372,0.30156 0.006,0.60725 0.0454,0.30362 0.18795,0.57213 0.24786,0.47093 0.62377,0.59073 0.37798,0.11773 0.73737,-0.36146 0.0165,-0.0207 0.0392,-0.0537 0.19415,-0.21481 0.40896,-0.0434 0.21687,0.16937 0.064,0.38418 z"
         style="font-style:normal;font-variant:normal;font-weight:normal;font-stretch:normal;font-size:4.23007px;font-family:'MS 33558';-inkscape-font-specification:'MS 33558, ';fill:#00ff00;stroke-width:0.264379"
         id="path1104" />
      <path
         d="m 133.77649,109.80057 v -3.35844 h -0.75802 q -0.28917,-0.0227 -0.28917,-0.28917 0.002,-0.26851 0.28917,-0.29329 h 2.09644 q 0.28504,0.0227 0.28504,0.29329 0.002,0.26851 -0.28504,0.28917 h -0.75596 v 3.35844 q -0.0475,0.2933 -0.30569,0.28917 -0.25611,-0.004 -0.27677,-0.28917 z"
         style="font-style:normal;font-variant:normal;font-weight:normal;font-stretch:normal;font-size:4.23007px;font-family:'MS 33558';-inkscape-font-specification:'MS 33558, ';fill:#00ff00;stroke-width:0.264379"
         id="path1106" />
    </g>
    <g
       aria-label="L ENG"
       transform="scale(0.99922789,1.0007727)"
       id="text79-8-78"
       style="font-style:normal;font-variant:normal;font-weight:normal;font-stretch:normal;font-size:4.23007px;line-height:1.25;font-family:'MS 33558';-inkscape-font-specification:'MS 33558, ';letter-spacing:0px;word-spacing:0px;fill:#00ff00;fill-opacity:1;stroke:none;stroke-width:0.264379">
      <path
         d="m 85.072448,122.35667 q -0.254052,-0.0165 -0.293296,-0.2871 v -3.65174 q 0.04337,-0.29742 0.301558,-0.29123 0.258183,0.004 0.280903,0.29123 v 3.36258 l 1.906423,-0.002 q 0.293296,0.0331 0.289165,0.29743 -0.0021,0.26231 -0.291231,0.2809 z"
         style="font-style:normal;font-variant:normal;font-weight:normal;font-stretch:normal;font-size:4.23007px;font-family:'MS 33558';-inkscape-font-specification:'MS 33558, ';fill:#00ff00;stroke-width:0.264379"
         id="path1109" />
      <path
         d="m 94.668593,118.7008 h -1.71227 v 1.12981 h 1.305373 q 0.293296,0.0434 0.291231,0.29536 0,0.24992 -0.291231,0.29123 h -1.305373 v 1.35701 h 1.71227 q 0.29123,0.0434 0.29123,0.29123 0,0.24786 -0.29123,0.28917 h -1.999369 q -0.258183,-0.033 -0.293296,-0.2933 v -3.64761 q 0.03924,-0.27264 0.293296,-0.28916 h 1.999369 q 0.29123,0.0227 0.289165,0.29123 0,0.26644 -0.289165,0.28503 z"
         style="font-style:normal;font-variant:normal;font-weight:normal;font-stretch:normal;font-size:4.23007px;font-family:'MS 33558';-inkscape-font-specification:'MS 33558, ';fill:#00ff00;stroke-width:0.264379"
         id="path1111" />
      <path
         d="m 98.386428,122.06957 q 0,0.21688 -0.210677,0.27677 -0.208612,0.0578 -0.324278,-0.12392 l -1.73499,-2.78218 v 2.62933 q -0.04544,0.28917 -0.293296,0.28917 -0.24579,0 -0.289165,-0.28917 v -3.64761 q 0.03098,-0.2148 0.21894,-0.28297 0.190022,-0.0682 0.316015,0.12806 l 1.73499,2.78631 v -2.6314 q 0.03924,-0.29536 0.299492,-0.29123 0.262314,0.002 0.282969,0.29123 z"
         style="font-style:normal;font-variant:normal;font-weight:normal;font-stretch:normal;font-size:4.23007px;font-family:'MS 33558';-inkscape-font-specification:'MS 33558, ';fill:#00ff00;stroke-width:0.264379"
         id="path1113" />
      <path
         d="m 100.39199,120.6506 -0.0186,-0.002 q -0.25198,-0.031 -0.25198,-0.2871 0,-0.25611 0.25198,-0.2871 l 0.0186,-0.004 h 0.0186 0.76216 q 0.1198,0 0.20448,0.0867 0.0868,0.0847 0.0868,0.20448 v 1.04719 l -0.0248,0.0537 -0.0144,0.033 -0.0145,0.031 -0.0165,0.031 -0.0165,0.031 -0.0145,0.031 -0.0165,0.031 -0.0186,0.031 q -0.4007,0.6816 -0.99555,0.66714 -0.594858,-0.0165 -0.999689,-0.67334 -0.192088,-0.31189 -0.285034,-0.78075 -0.09295,-0.47092 -0.05577,-0.96044 0.03718,-0.49158 0.227201,-0.93359 0.192089,-0.44407 0.572134,-0.70432 0.475056,-0.32221 0.925326,-0.0744 0.45027,0.24579 0.67334,0.69193 l 0.0165,0.0331 0.0124,0.0289 0.0165,0.031 q 0.0702,0.19622 -0.0537,0.32015 -0.1198,0.11773 -0.26025,0.0888 -0.14045,-0.031 -0.21687,-0.1673 -0.24166,-0.59899 -0.62377,-0.52256 -0.380047,0.0764 -0.570069,0.62377 -0.185892,0.52876 -0.146648,1.13807 0.03924,0.60724 0.396569,1.05958 0.245788,0.31602 0.499838,0.20242 0.25406,-0.1136 0.4007,-0.42342 l 0.0227,-0.0454 v -0.62997 z"
         style="font-style:normal;font-variant:normal;font-weight:normal;font-stretch:normal;font-size:4.23007px;font-family:'MS 33558';-inkscape-font-specification:'MS 33558, ';fill:#00ff00;stroke-width:0.264379"
         id="path1115" />
    </g>
    <g
       aria-label="R ENG"
       transform="scale(0.99922789,1.0007727)"
       id="text79-8-78-8"
       style="font-style:normal;font-variant:normal;font-weight:normal;font-stretch:normal;font-size:4.23007px;line-height:1.25;font-family:'MS 33558';-inkscape-font-specification:'MS 33558, ';letter-spacing:0px;word-spacing:0px;fill:#00ff00;fill-opacity:1;stroke:none;stroke-width:0.264379">
      <path
         d="m 118.59414,121.9064 q 0.13219,0.2334 -0.0744,0.39244 -0.0991,0.0702 -0.22926,0.0475 -0.12806,-0.0227 -0.18796,-0.12805 l -1.01827,-1.609 h -0.51637 v 1.45409 q 0,0.17969 -0.16317,0.26024 -0.16317,0.0785 -0.30569,-0.031 -0.1136,-0.0847 -0.1136,-0.22926 v -3.64968 q 0,-0.1198 0.0826,-0.20448 0.0847,-0.0847 0.20654,-0.0847 h 1.28266 q 0.46266,0 0.80346,0.29536 0.3408,0.29329 0.42342,0.74563 0.0867,0.48538 -0.20654,0.9088 -0.29123,0.42136 -0.77455,0.51224 l -0.0393,0.006 z m -1.03686,-1.87751 q 0.21067,0 0.3883,-0.12805 0.1797,-0.12806 0.24166,-0.33461 0.0971,-0.31808 -0.0888,-0.5742 -0.18589,-0.25818 -0.51224,-0.28503 h -1.01827 v 1.32189 z"
         style="font-style:normal;font-variant:normal;font-weight:normal;font-stretch:normal;font-size:4.23007px;font-family:'MS 33558';-inkscape-font-specification:'MS 33558, ';fill:#00ff00;stroke-width:0.264379"
         id="path1118" />
      <path
         d="m 125.8749,118.7008 h -1.71227 v 1.12981 h 1.30537 q 0.2933,0.0434 0.29123,0.29536 0,0.24992 -0.29123,0.29123 h -1.30537 v 1.35701 h 1.71227 q 0.29123,0.0434 0.29123,0.29123 0,0.24786 -0.29123,0.28917 h -1.99937 q -0.25818,-0.033 -0.2933,-0.2933 v -3.64761 q 0.0393,-0.27264 0.2933,-0.28916 h 1.99937 q 0.29123,0.0227 0.28916,0.29123 0,0.26644 -0.28916,0.28503 z"
         style="font-style:normal;font-variant:normal;font-weight:normal;font-stretch:normal;font-size:4.23007px;font-family:'MS 33558';-inkscape-font-specification:'MS 33558, ';fill:#00ff00;stroke-width:0.264379"
         id="path1120" />
      <path
         d="m 129.59273,122.06957 q 0,0.21688 -0.21067,0.27677 -0.20861,0.0578 -0.32428,-0.12392 l -1.73499,-2.78218 v 2.62933 q -0.0454,0.28917 -0.2933,0.28917 -0.24579,0 -0.28916,-0.28917 v -3.64761 q 0.031,-0.2148 0.21894,-0.28297 0.19002,-0.0682 0.31601,0.12806 l 1.73499,2.78631 v -2.6314 q 0.0393,-0.29536 0.2995,-0.29123 0.26231,0.002 0.28296,0.29123 z"
         style="font-style:normal;font-variant:normal;font-weight:normal;font-stretch:normal;font-size:4.23007px;font-family:'MS 33558';-inkscape-font-specification:'MS 33558, ';fill:#00ff00;stroke-width:0.264379"
         id="path1122" />
      <path
         d="m 131.5983,120.6506 -0.0186,-0.002 q -0.25199,-0.031 -0.25199,-0.2871 0,-0.25611 0.25199,-0.2871 l 0.0186,-0.004 h 0.0186 0.76216 q 0.11979,0 0.20448,0.0867 0.0867,0.0847 0.0867,0.20448 v 1.04719 l -0.0248,0.0537 -0.0145,0.033 -0.0145,0.031 -0.0165,0.031 -0.0165,0.031 -0.0145,0.031 -0.0165,0.031 -0.0186,0.031 q -0.4007,0.6816 -0.99556,0.66714 -0.59485,-0.0165 -0.99968,-0.67334 -0.19209,-0.31189 -0.28504,-0.78075 -0.0929,-0.47092 -0.0558,-0.96044 0.0372,-0.49158 0.2272,-0.93359 0.19208,-0.44407 0.57213,-0.70432 0.47506,-0.32221 0.92533,-0.0744 0.45027,0.24579 0.67334,0.69193 l 0.0165,0.0331 0.0124,0.0289 0.0165,0.031 q 0.0702,0.19622 -0.0537,0.32015 -0.1198,0.11773 -0.26025,0.0888 -0.14045,-0.031 -0.21687,-0.1673 -0.24166,-0.59899 -0.62377,-0.52256 -0.38005,0.0764 -0.57007,0.62377 -0.18589,0.52876 -0.14665,1.13807 0.0392,0.60724 0.39657,1.05958 0.24579,0.31602 0.49984,0.20242 0.25405,-0.1136 0.4007,-0.42342 l 0.0227,-0.0454 v -0.62997 z"
         style="font-style:normal;font-variant:normal;font-weight:normal;font-stretch:normal;font-size:4.23007px;font-family:'MS 33558';-inkscape-font-specification:'MS 33558, ';fill:#00ff00;stroke-width:0.264379"
         id="path1124" />
    </g>
    <path
       id="text79-8-79"
       style="font-style:normal;font-variant:normal;font-weight:normal;font-stretch:normal;font-size:3.52507px;line-height:1.25;font-family:'MS 33558';-inkscape-font-specification:'MS 33558, ';letter-spacing:0px;word-spacing:0px;fill:#00ff00;fill-opacity:1;stroke:none;stroke-width:0.264379"
       d="m 103.79193,127.28 c -0.29926,0 -0.54094,0.11713 -0.72554,0.3514 -0.18345,0.23312 -0.23702,0.49667 -0.16019,0.79065 0.0631,0.25379 0.22496,0.44924 0.48524,0.58704 l 0.0258,0.014 0.79581,0.34985 c 0.0539,0.0253 0.0975,0.0519 0.13074,0.0806 0.0745,0.0678 0.12464,0.15308 0.14987,0.25528 0.0252,0.10106 0.0196,0.19833 -0.0171,0.29249 -0.0837,0.2113 -0.23828,0.3173 -0.46302,0.3173 -0.24422,0.005 -0.43498,-0.0174 -0.57257,-0.0656 -0.13645,-0.0482 -0.23229,-0.19677 -0.28732,-0.44597 l -0.005,-0.0155 c -0.0356,-0.0942 -0.0986,-0.15061 -0.18914,-0.16899 -0.086,-0.0149 -0.15805,0.009 -0.21652,0.0724 -0.0573,0.0632 -0.0777,0.13591 -0.0605,0.21859 0.009,0.0402 0.0174,0.0807 0.0243,0.12092 0.007,0.0402 0.0173,0.0789 0.031,0.11679 0.10319,0.29743 0.27587,0.48094 0.5178,0.54984 0.24193,0.0678 0.4957,0.10129 0.76171,0.10129 0.15823,0 0.31149,-0.0387 0.4594,-0.11679 0.13759,-0.0724 0.25152,-0.1749 0.3421,-0.30696 0.0917,-0.13321 0.14702,-0.2779 0.16536,-0.43408 0.0115,-0.1091 0.007,-0.21497 -0.014,-0.31833 -0.0539,-0.26412 -0.19465,-0.47083 -0.42168,-0.62012 -0.009,-0.006 -0.0186,-0.0109 -0.0289,-0.0155 -0.009,-0.006 -0.0178,-0.0118 -0.0258,-0.0176 l -0.0274,-0.0155 -0.031,-0.0155 -0.0274,-0.0119 -0.79478,-0.3514 -0.0207,-0.009 -0.0191,-0.008 c -0.007,-0.003 -0.0129,-0.007 -0.0186,-0.0103 -0.006,-0.005 -0.0109,-0.009 -0.0155,-0.0124 -0.10319,-0.07 -0.16275,-0.16864 -0.1788,-0.29611 -0.0138,-0.10335 0.007,-0.19677 0.062,-0.2806 0.0814,-0.13091 0.19879,-0.19769 0.35244,-0.19999 l 0.15813,0.005 0.11162,0.0191 c 0.0287,0.0103 0.0546,0.0198 0.0775,0.0289 0.0241,0.008 0.0487,0.0214 0.0739,0.0398 0.0608,0.0459 0.10782,0.1041 0.14108,0.17415 0.0344,0.0689 0.0668,0.13648 0.0966,0.20309 0.0378,0.0758 0.0922,0.1219 0.1633,0.13797 0.0711,0.0172 0.13623,0.004 0.19585,-0.0382 0.009,-0.006 0.0213,-0.0161 0.0362,-0.031 0.0149,-0.0149 0.0291,-0.0364 0.0429,-0.0651 0.0241,-0.0459 0.0297,-0.0972 0.017,-0.15348 -0.005,-0.0172 -0.009,-0.0323 -0.015,-0.045 -0.0619,-0.13781 -0.13144,-0.26567 -0.20826,-0.38396 -0.0768,-0.11828 -0.18781,-0.2113 -0.33228,-0.27905 -0.0585,-0.0264 -0.1163,-0.045 -0.17363,-0.0553 -0.0573,-0.0115 -0.11689,-0.0226 -0.1788,-0.0341 z m 1.8681,0 c -0.14103,0.009 -0.22264,0.0892 -0.24443,0.24081 v 3.0422 c 0.0195,0.14469 0.10111,0.22605 0.24443,0.24443 h 1.6645 c 0.16167,-0.023 0.24236,-0.10301 0.24236,-0.24082 0,-0.1378 -0.0807,-0.21876 -0.24236,-0.24288 h -1.42575 v -1.13171 h 1.08727 c 0.16167,-0.023 0.24236,-0.10393 0.24236,-0.24288 0.001,-0.1401 -0.0795,-0.22238 -0.24236,-0.2465 h -1.08727 v -0.94206 h 1.42575 c 0.16052,-0.0103 0.24081,-0.0896 0.24081,-0.23771 10e-4,-0.14929 -0.0791,-0.23025 -0.24081,-0.24288 z m 3.59255,5.2e-4 c -0.0481,0.003 -0.096,0.0105 -0.14418,0.0217 -0.33481,0.0781 -0.59082,0.27234 -0.76739,0.5824 -0.17543,0.31006 -0.273,0.6502 -0.29249,1.02112 -0.0183,0.36978 0.04,0.72634 0.17415,1.06971 0.1353,0.34336 0.34679,0.58715 0.63458,0.7307 0.24767,0.12288 0.49839,0.13918 0.75293,0.0496 0.25569,-0.0907 0.46252,-0.24231 0.6196,-0.45475 l 0.007,-0.0103 c 0.002,-0.003 0.005,-0.007 0.008,-0.0119 l 0.0155,-0.0222 c 0.0849,-0.11943 0.0672,-0.22623 -0.0532,-0.3204 -0.11924,-0.0953 -0.23277,-0.0833 -0.34054,0.0362 -0.0126,0.0184 -0.0234,0.033 -0.0326,0.0445 -0.19951,0.26642 -0.40409,0.36724 -0.61392,0.30179 -0.20868,-0.0666 -0.38175,-0.23117 -0.51934,-0.493 -0.0791,-0.14929 -0.13136,-0.30816 -0.15659,-0.47697 -0.0241,-0.16996 -0.0258,-0.33877 -0.005,-0.50643 0.0172,-0.15044 0.0629,-0.31195 0.13746,-0.48421 0.0745,-0.17225 0.16823,-0.3135 0.2806,-0.42375 0.11237,-0.11024 0.23971,-0.1688 0.38189,-0.17569 0.14218,-0.007 0.28974,0.0792 0.44338,0.25838 0.0745,0.0758 0.15614,0.10255 0.24443,0.0796 0.0826,-0.0207 0.13906,-0.0719 0.17002,-0.15348 0.0309,-0.0827 0.0202,-0.15847 -0.0326,-0.22738 -0.005,-0.008 -0.008,-0.0119 -0.009,-0.0119 -0.12268,-0.14814 -0.27928,-0.26315 -0.47077,-0.34468 -0.14361,-0.062 -0.28776,-0.0882 -0.43201,-0.0786 z m 2.39158,0.10232 v 1.04593 h -0.89968 v 0.23564 h 0.89968 v 1.04593 h 0.21446 v -1.04593 h 0.89194 v -0.23564 h -0.89194 v -1.04593 z" />
    <path
       id="text79-8-79-9"
       style="font-style:normal;font-variant:normal;font-weight:normal;font-stretch:normal;font-size:3.52507px;line-height:1.25;font-family:'MS 33558';-inkscape-font-specification:'MS 33558, ';letter-spacing:0px;word-spacing:0px;fill:#00ff00;fill-opacity:1;stroke:none;stroke-width:0.264379"
       d="m 134.8505,127.28 c -0.29926,0 -0.54094,0.11713 -0.72554,0.3514 -0.18345,0.23312 -0.23702,0.49667 -0.1602,0.79065 0.0631,0.25379 0.22497,0.44924 0.48525,0.58704 l 0.0258,0.014 0.79634,0.34985 c 0.0539,0.0253 0.0975,0.0519 0.13074,0.0806 0.0745,0.0678 0.12412,0.15308 0.14934,0.25528 0.0252,0.10106 0.0196,0.19833 -0.017,0.29249 -0.0837,0.2113 -0.23777,0.3173 -0.4625,0.3173 -0.24423,0.005 -0.4355,-0.0174 -0.57309,-0.0656 -0.13645,-0.0482 -0.23229,-0.19677 -0.28733,-0.44597 l -0.005,-0.0155 c -0.0355,-0.0942 -0.0991,-0.15061 -0.18965,-0.16899 -0.086,-0.0149 -0.15805,0.009 -0.21652,0.0724 -0.0573,0.0632 -0.0771,0.13591 -0.0599,0.21859 0.009,0.0402 0.0169,0.0807 0.0238,0.12092 0.007,0.0402 0.0173,0.0789 0.031,0.11679 0.10319,0.29743 0.27587,0.48094 0.5178,0.54984 0.24193,0.0678 0.4957,0.10129 0.76171,0.10129 0.15823,0 0.31149,-0.0387 0.4594,-0.11679 0.13759,-0.0724 0.25152,-0.1749 0.3421,-0.30696 0.0917,-0.13321 0.14702,-0.2779 0.16536,-0.43408 0.0115,-0.1091 0.007,-0.21497 -0.0139,-0.31833 -0.0539,-0.26412 -0.19414,-0.47083 -0.42116,-0.62012 -0.009,-0.006 -0.0191,-0.0109 -0.0295,-0.0155 -0.009,-0.006 -0.0178,-0.0118 -0.0258,-0.0176 l -0.0274,-0.0155 -0.031,-0.0155 -0.0274,-0.0119 -0.79478,-0.3514 -0.0207,-0.009 -0.0186,-0.008 c -0.007,-0.003 -0.0134,-0.007 -0.0191,-0.0103 -0.006,-0.005 -0.0109,-0.009 -0.0155,-0.0124 -0.10319,-0.07 -0.16275,-0.16864 -0.1788,-0.29611 -0.0138,-0.10335 0.007,-0.19677 0.062,-0.2806 0.0814,-0.13091 0.19879,-0.19769 0.35244,-0.19999 l 0.15812,0.005 0.11163,0.0191 c 0.0287,0.0103 0.0546,0.0198 0.0775,0.0289 0.0241,0.008 0.0487,0.0214 0.0739,0.0398 0.0608,0.0459 0.10782,0.1041 0.14108,0.17415 0.0344,0.0689 0.0668,0.13648 0.0966,0.20309 0.0378,0.0758 0.0922,0.1219 0.1633,0.13797 0.0711,0.0172 0.13623,0.004 0.19585,-0.0382 0.009,-0.006 0.0213,-0.0161 0.0362,-0.031 0.0149,-0.0149 0.0291,-0.0364 0.0429,-0.0651 0.0241,-0.0459 0.0302,-0.0972 0.0176,-0.15348 -0.005,-0.0172 -0.01,-0.0323 -0.0155,-0.045 -0.0619,-0.13781 -0.13143,-0.26567 -0.20825,-0.38396 -0.0768,-0.11828 -0.18729,-0.2113 -0.33177,-0.27905 -0.0585,-0.0264 -0.11682,-0.045 -0.17414,-0.0553 -0.0573,-0.0115 -0.11689,-0.0226 -0.17881,-0.0341 z m 1.8681,0 c -0.14103,0.009 -0.22264,0.0892 -0.24443,0.24081 v 3.0422 c 0.0195,0.14469 0.10111,0.22605 0.24443,0.24443 h 1.6645 c 0.16167,-0.023 0.24288,-0.10301 0.24288,-0.24082 0,-0.1378 -0.0812,-0.21876 -0.24288,-0.24288 h -1.42575 v -1.13171 h 1.08727 c 0.16167,-0.023 0.24236,-0.10393 0.24236,-0.24288 0.001,-0.1401 -0.0795,-0.22238 -0.24236,-0.2465 h -1.08727 v -0.94206 h 1.42575 c 0.16052,-0.0103 0.24081,-0.0896 0.24081,-0.23771 0.001,-0.14929 -0.0791,-0.23025 -0.24081,-0.24288 z m 3.59255,5.2e-4 c -0.0481,0.003 -0.096,0.0105 -0.14418,0.0217 -0.33481,0.0781 -0.59082,0.27234 -0.76739,0.5824 -0.17543,0.31006 -0.27249,0.6502 -0.29198,1.02112 -0.0183,0.36978 0.0395,0.72634 0.17363,1.06971 0.1353,0.34336 0.3468,0.58715 0.63459,0.7307 0.24767,0.12288 0.4989,0.13918 0.75345,0.0496 0.25569,-0.0907 0.46199,-0.24231 0.61908,-0.45475 l 0.007,-0.0103 c 0.002,-0.003 0.005,-0.007 0.009,-0.0119 l 0.0155,-0.0222 c 0.0848,-0.11943 0.0666,-0.22623 -0.0537,-0.3204 -0.11925,-0.0953 -0.23277,-0.0833 -0.34055,0.0362 -0.0126,0.0184 -0.0234,0.033 -0.0326,0.0445 -0.19951,0.26642 -0.40409,0.36724 -0.61392,0.30179 -0.20868,-0.0666 -0.38175,-0.23117 -0.51935,-0.493 -0.0791,-0.14929 -0.13135,-0.30816 -0.15658,-0.47697 -0.0241,-0.16996 -0.0258,-0.33877 -0.005,-0.50643 0.0172,-0.15044 0.0629,-0.31195 0.13746,-0.48421 0.0745,-0.17225 0.16823,-0.3135 0.2806,-0.42375 0.11237,-0.11024 0.23971,-0.1688 0.38189,-0.17569 0.14217,-0.007 0.28974,0.0792 0.44338,0.25838 0.0745,0.0758 0.15614,0.10255 0.24443,0.0796 0.0825,-0.0207 0.13906,-0.0719 0.17002,-0.15348 0.0309,-0.0827 0.0202,-0.15847 -0.0326,-0.22738 -0.005,-0.008 -0.007,-0.0119 -0.008,-0.0119 -0.12268,-0.14814 -0.2798,-0.26315 -0.47129,-0.34468 -0.14361,-0.062 -0.28776,-0.0882 -0.43201,-0.0786 z m 2.72696,0.10232 v 1.04593 h -0.89968 v 0.23564 h 0.89968 v 1.04593 h 0.21446 v -1.04593 h 0.89193 v -0.23564 h -0.89193 v -1.04593 z" />
    <g
       aria-label="PRI "
       transform="scale(0.99922789,1.0007727)"
       id="text79-8-79-0"
       style="font-style:normal;font-variant:normal;font-weight:normal;font-stretch:normal;font-size:3.52507px;line-height:1.25;font-family:'MS 33558';-inkscape-font-specification:'MS 33558, ';letter-spacing:0px;word-spacing:0px;fill:#00ff00;fill-opacity:1;stroke:none;stroke-width:0.264379">
      <path
         d="m 104.07966,137.6512 h 0.0327 q 0.22032,0.0155 0.40621,0.0998 0.35629,0.16696 0.50432,0.54907 0.14802,0.38211 -0.003,0.74529 -0.1222,0.28745 -0.36145,0.45096 -0.23925,0.1618 -0.54563,0.18073 l -0.0327,0.002 h -0.83651 v 1.25478 q -0.031,0.24269 -0.24441,0.24269 -0.21344,0 -0.2427,-0.24269 v -3.04141 q 0.0258,-0.21343 0.2272,-0.24097 h 0.0155 z m 0,0.48539 h -0.83651 v 1.05511 h 0.83651 q 0.19622,0 0.34597,-0.13082 0.15147,-0.13081 0.17729,-0.32703 0.031,-0.23753 -0.12737,-0.41654 -0.15836,-0.18072 -0.39589,-0.18072 z"
         style="font-style:normal;font-variant:normal;font-weight:normal;font-stretch:normal;font-size:3.52507px;font-family:'MS 33558';-inkscape-font-specification:'MS 33558, ';fill:#00ff00;stroke-width:0.264379"
         id="path1127" />
      <path
         d="m 107.75792,140.80276 q 0.11016,0.1945 -0.062,0.32704 -0.0826,0.0585 -0.19106,0.0396 -0.10671,-0.0189 -0.15663,-0.10671 l -0.84856,-1.34084 h -0.43031 v 1.21175 q 0,0.14974 -0.13598,0.21687 -0.13597,0.0654 -0.25474,-0.0258 -0.0947,-0.0706 -0.0947,-0.19105 v -3.04141 q 0,-0.0998 0.0688,-0.1704 0.0706,-0.0706 0.17212,-0.0706 h 1.06888 q 0.38555,0 0.66956,0.24613 0.284,0.24442 0.35285,0.62137 0.0723,0.40449 -0.17213,0.75734 -0.24269,0.35113 -0.64546,0.42686 l -0.0327,0.005 z m -0.86405,-1.56459 q 0.17556,0 0.32359,-0.10672 0.14975,-0.10671 0.20138,-0.27883 0.0809,-0.26507 -0.074,-0.47851 -0.15491,-0.21515 -0.42686,-0.23752 h -0.84857 v 1.10158 z"
         style="font-style:normal;font-variant:normal;font-weight:normal;font-stretch:normal;font-size:3.52507px;font-family:'MS 33558';-inkscape-font-specification:'MS 33558, ';fill:#00ff00;stroke-width:0.264379"
         id="path1129" />
      <path
         d="m 108.87844,140.93874 q -0.0379,0.24269 -0.24613,0.24097 -0.20655,0 -0.2427,-0.24097 v -3.04313 q 0.0361,-0.24269 0.2427,-0.24269 0.20827,-0.002 0.24613,0.24269 z"
         style="font-style:normal;font-variant:normal;font-weight:normal;font-stretch:normal;font-size:3.52507px;font-family:'MS 33558';-inkscape-font-specification:'MS 33558, ';fill:#00ff00;stroke-width:0.264379"
         id="path1131" />
    </g>
    <g
       aria-label="PRI "
       transform="scale(0.99922789,1.0007727)"
       id="text79-8-79-0-5"
       style="font-style:normal;font-variant:normal;font-weight:normal;font-stretch:normal;font-size:3.52507px;line-height:1.25;font-family:'MS 33558';-inkscape-font-specification:'MS 33558, ';letter-spacing:0px;word-spacing:0px;fill:#00ff00;fill-opacity:1;stroke:none;stroke-width:0.264379">
      <path
         d="m 135.16214,137.6512 h 0.0327 q 0.22032,0.0155 0.40621,0.0998 0.35629,0.16696 0.50432,0.54907 0.14803,0.38211 -0.003,0.74529 -0.12221,0.28745 -0.36146,0.45096 -0.23925,0.1618 -0.54563,0.18073 l -0.0327,0.002 h -0.83652 v 1.25478 q -0.031,0.24269 -0.24441,0.24269 -0.21343,0 -0.24269,-0.24269 v -3.04141 q 0.0258,-0.21343 0.2272,-0.24097 h 0.0155 z m 0,0.48539 h -0.83652 v 1.05511 h 0.83652 q 0.19622,0 0.34597,-0.13082 0.15146,-0.13081 0.17728,-0.32703 0.031,-0.23753 -0.12737,-0.41654 -0.15835,-0.18072 -0.39588,-0.18072 z"
         style="font-style:normal;font-variant:normal;font-weight:normal;font-stretch:normal;font-size:3.52507px;font-family:'MS 33558';-inkscape-font-specification:'MS 33558, ';fill:#00ff00;stroke-width:0.264379"
         id="path1134" />
      <path
         d="m 138.8404,140.80276 q 0.11016,0.1945 -0.062,0.32704 -0.0826,0.0585 -0.19105,0.0396 -0.10672,-0.0189 -0.15663,-0.10671 l -0.84857,-1.34084 h -0.4303 v 1.21175 q 0,0.14974 -0.13598,0.21687 -0.13598,0.0654 -0.25474,-0.0258 -0.0947,-0.0706 -0.0947,-0.19105 v -3.04141 q 0,-0.0998 0.0688,-0.1704 0.0706,-0.0706 0.17212,-0.0706 h 1.06888 q 0.38556,0 0.66956,0.24613 0.284,0.24442 0.35285,0.62137 0.0723,0.40449 -0.17212,0.75734 -0.24269,0.35113 -0.64546,0.42686 l -0.0327,0.005 z m -0.86406,-1.56459 q 0.17557,0 0.32359,-0.10672 0.14975,-0.10671 0.20139,-0.27883 0.0809,-0.26507 -0.074,-0.47851 -0.15491,-0.21515 -0.42686,-0.23752 h -0.84856 v 1.10158 z"
         style="font-style:normal;font-variant:normal;font-weight:normal;font-stretch:normal;font-size:3.52507px;font-family:'MS 33558';-inkscape-font-specification:'MS 33558, ';fill:#00ff00;stroke-width:0.264379"
         id="path1136" />
      <path
         d="m 139.96092,140.93874 q -0.0379,0.24269 -0.24614,0.24097 -0.20655,0 -0.24269,-0.24097 v -3.04313 q 0.0361,-0.24269 0.24269,-0.24269 0.20827,-0.002 0.24614,0.24269 z"
         style="font-style:normal;font-variant:normal;font-weight:normal;font-stretch:normal;font-size:3.52507px;font-family:'MS 33558';-inkscape-font-specification:'MS 33558, ';fill:#00ff00;stroke-width:0.264379"
         id="path1138" />
    </g>
    <path
       id="path664-8-1"
       style="fill:#ff0000;stroke-width:0.322549;stroke-dasharray:7.74117, 0.322549"
       d="m 130.59168,131.77486 a 6.3499999,6.3500185 0 0 1 -6.16924,6.34744 6.3499999,6.3500185 0 0 1 -6.52047,-5.98606 6.3499999,6.3500185 0 0 1 5.798,-6.68825 6.3499999,6.3500185 0 0 1 6.85057,5.60527" />
    <path
       id="path37-7-2-0"
       style="fill:#ff0000;stroke-width:0.387621;stroke-dasharray:9.30292, 0.387621"
       d="m 111.91519,156.52759 a 3.1701081,3.1750093 0 0 1 -3.07987,3.17372 3.1701081,3.1750093 0 0 1 -3.25521,-2.99303 3.1701081,3.1750093 0 0 1 2.89453,-3.34413 3.1701081,3.1750093 0 0 1 3.42001,2.80264" />
    <path
       id="path37-7-2-3-6"
       style="fill:#ff0000;stroke-width:0.387621;stroke-dasharray:9.30292, 0.387621"
       d="m 76.198611,136.68378 a 3.1701081,3.1750093 0 0 1 -3.079865,3.17372 3.1701081,3.1750093 0 0 1 -3.255213,-2.99303 3.1701081,3.1750093 0 0 1 2.894534,-3.34413 3.1701081,3.1750093 0 0 1 3.42001,2.80264" />
    <path
       id="path37-7-2-33-8"
       style="fill:#ff0000;stroke-width:0.387621;stroke-dasharray:9.30292, 0.387621"
       d="m 143.40493,107.63243 a 3.1701081,3.1750093 0 0 1 -3.07987,3.17372 3.1701081,3.1750093 0 0 1 -3.25521,-2.99303 3.1701081,3.1750093 0 0 1 2.89453,-3.34412 3.1701081,3.1750093 0 0 1 3.42001,2.80263" />
  </g>
</svg>
