<?xml version="1.0" encoding="UTF-8" standalone="no"?>
<!-- Created with Inkscape (http://www.inkscape.org/) -->

<svg
   width="210mm"
   height="297mm"
   viewBox="0 0 210 297"
   version="1.1"
   id="svg967"
   inkscape:version="1.1 (c68e22c387, 2021-05-23)"
   sodipodi:docname="Mouse Panel.svg"
   xmlns:inkscape="http://www.inkscape.org/namespaces/inkscape"
   xmlns:sodipodi="http://sodipodi.sourceforge.net/DTD/sodipodi-0.dtd"
   xmlns="http://www.w3.org/2000/svg"
   xmlns:svg="http://www.w3.org/2000/svg">
  <sodipodi:namedview
     id="namedview969"
     pagecolor="#ffffff"
     bordercolor="#666666"
     borderopacity="1.0"
     inkscape:pageshadow="2"
     inkscape:pageopacity="0.0"
     inkscape:pagecheckerboard="0"
     inkscape:document-units="mm"
     showgrid="false"
     inkscape:zoom="0.77771465"
     inkscape:cx="396.67505"
     inkscape:cy="561.25984"
     inkscape:window-width="2560"
     inkscape:window-height="1361"
     inkscape:window-x="-9"
     inkscape:window-y="-9"
     inkscape:window-maximized="1"
     inkscape:current-layer="layer1" />
  <defs
     id="defs964" />
  <g
     inkscape:label="Layer 1"
     inkscape:groupmode="layer"
     id="layer1">
    <rect
       style="fill:none;stroke:#000000;stroke-width:0.249549;stroke-miterlimit:4;stroke-dasharray:none;stroke-opacity:1"
       id="rect1734"
       width="152.15045"
       height="126.75045"
       x="18.036892"
       y="52.510067"
       inkscape:export-xdpi="96"
       inkscape:export-ydpi="96" />
    <path
       id="path1367"
       style="fill:#ff0000;stroke-width:0.266754"
       d="m 30.391495,60.748657 a 3.175,3.175 0 0 1 -3.174999,3.175 3.175,3.175 0 0 1 -3.175,-3.175 3.175,3.175 0 0 1 3.175,-3.175 3.175,3.175 0 0 1 3.174999,3.175 z" />
    <path
       id="path1367-3"
       style="fill:#ff0000;stroke-width:0.266754"
       d="m 30.391495,115.87984 a 3.175,3.175 0 0 1 -3.174999,3.175 3.175,3.175 0 0 1 -3.175,-3.175 3.175,3.175 0 0 1 3.175,-3.175 3.175,3.175 0 0 1 3.174999,3.175 z" />
    <path
       id="path1367-0"
       style="fill:#ff0000;stroke-width:0.266754"
       d="m 30.391495,171.12326 a 3.175,3.175 0 0 1 -3.174999,3.175 3.175,3.175 0 0 1 -3.175,-3.175 3.175,3.175 0 0 1 3.175,-3.175 3.175,3.175 0 0 1 3.174999,3.175 z" />
    <path
       id="path1367-7"
       style="fill:#ff0000;stroke-width:0.266754"
       d="m 163.74255,60.748665 a 3.175,3.175 0 0 1 -3.175,3.175 3.175,3.175 0 0 1 -3.175,-3.175 3.175,3.175 0 0 1 3.175,-3.175 3.175,3.175 0 0 1 3.175,3.175 z" />
    <path
       id="path1367-3-2"
       style="fill:#ff0000;stroke-width:0.266754"
       d="m 163.74255,115.87984 a 3.175,3.175 0 0 1 -3.175,3.175 3.175,3.175 0 0 1 -3.175,-3.175 3.175,3.175 0 0 1 3.175,-3.175 3.175,3.175 0 0 1 3.175,3.175 z" />
    <path
       id="path1367-0-1"
       style="fill:#ff0000;stroke-width:0.266754"
       d="m 163.74255,171.12326 a 3.175,3.175 0 0 1 -3.175,3.175 3.175,3.175 0 0 1 -3.175,-3.175 3.175,3.175 0 0 1 3.175,-3.175 3.175,3.175 0 0 1 3.175,3.175 z" />
  </g>
</svg>
