<?xml version="1.0" encoding="UTF-8" standalone="no"?>
<svg
   width="210mm"
   height="297mm"
   viewBox="0 0 210 297"
   version="1.1"
   id="svg2092"
   inkscape:version="1.1 (c68e22c387, 2021-05-23)"
   sodipodi:docname="Tape Player Panels.svg"
   xmlns:inkscape="http://www.inkscape.org/namespaces/inkscape"
   xmlns:sodipodi="http://sodipodi.sourceforge.net/DTD/sodipodi-0.dtd"
   xmlns="http://www.w3.org/2000/svg"
   xmlns:svg="http://www.w3.org/2000/svg"
   xmlns:rdf="http://www.w3.org/1999/02/22-rdf-syntax-ns#"
   xmlns:cc="http://creativecommons.org/ns#"
   xmlns:dc="http://purl.org/dc/elements/1.1/">
  <defs
     id="defs2086" />
  <sodipodi:namedview
     id="base"
     pagecolor="#ffffff"
     bordercolor="#666666"
     borderopacity="1.0"
     inkscape:pageopacity="0.0"
     inkscape:pageshadow="2"
     inkscape:zoom="0.76"
     inkscape:cx="400.65789"
     inkscape:cy="517.76316"
     inkscape:document-units="mm"
     inkscape:current-layer="layer1"
     inkscape:document-rotation="0"
     showgrid="false"
     inkscape:window-width="1482"
     inkscape:window-height="1091"
     inkscape:window-x="971"
     inkscape:window-y="445"
     inkscape:window-maximized="0"
     inkscape:pagecheckerboard="0" />
  <metadata
     id="metadata2089">
    <rdf:RDF>
      <cc:Work
         rdf:about="">
        <dc:format>image/svg+xml</dc:format>
        <dc:type
           rdf:resource="http://purl.org/dc/dcmitype/StillImage" />
        <dc:title />
      </cc:Work>
    </rdf:RDF>
  </metadata>
  <g
     inkscape:label="Layer 1"
     inkscape:groupmode="layer"
     id="layer1">
    <g
       id="g1034"
       transform="translate(-10.499758,-98.800983)">
      <path
         id="rect876"
         style="fill:none;stroke:#000000;stroke-width:0.250559;stroke-miterlimit:4;stroke-dasharray:none;stop-color:#000000"
         d="m 44.256707,125.53778 v 9.79555 c 9.99e-4,0.0357 0.0026,0.0708 0.0026,0.10642 v 4.99826 c 0,5.4781 -4.41058,9.88853 -9.88946,9.88853 -0.0307,0 -0.0609,-0.002 -0.0915,-0.002 v 0.019 h -9.81144 v 32.68731 h 9.81196 v 0.0196 c 0.0306,-2.9e-4 0.0608,-0.002 0.0914,-0.002 5.47888,0 9.889459,4.41044 9.889459,9.88854 v 4.99826 c 0,0.0357 -0.0016,0.0708 -0.0026,0.10642 v 9.79555 H 175.87647 v -9.79504 c -0.001,-0.0357 -0.003,-0.0708 -0.003,-0.10642 v -4.99825 c 0,-5.4781 4.41059,-9.88855 9.88947,-9.88855 0.0307,0 0.0609,9.9e-4 0.0915,0.002 v -0.0196 h 9.81194 v -32.68679 h -9.81194 v -0.0196 c -0.0306,2.9e-4 -0.0608,0.002 -0.0915,0.002 -5.47891,0 -9.88999,-4.41043 -9.88999,-9.88853 v -4.99826 c 0,-0.0357 0.002,-0.0708 0.003,-0.10642 v -9.79503 z" />
      <g
         id="g961"
         transform="translate(23.716437,-48.11239)"
         style="fill:#00ff00">
        <path
           d="m 66.969111,183.60628 v -3.92121 h -0.885045 q -0.337619,-0.0265 -0.337619,-0.33762 0.0024,-0.3135 0.337619,-0.34244 h 2.447741 q 0.332796,0.0265 0.332796,0.34244 0.0024,0.3135 -0.332796,0.33762 h -0.882634 v 3.92121 q -0.05547,0.34244 -0.356912,0.33762 -0.299034,-0.005 -0.32315,-0.33762 z"
           style="font-size:4.93889px;line-height:1.25;font-family:'MS 33558';-inkscape-font-specification:'MS 33558, ';word-spacing:-2.64583px;fill:#00ff00;stroke-width:0.264583"
           id="path3002" />
        <path
           d="m 72.197389,182.3595 -0.733116,-2.02572 -0.73794,2.02572 z m -0.733116,-2.02572 0.733116,2.02572 z m -1.86173,3.14469 q 0.385851,-1.06351 0.771701,-2.12459 0.388263,-1.06351 0.776525,-2.12701 0.07958,-0.21945 0.315915,-0.22186 0.236334,-0.002 0.318327,0.22186 l 1.545815,4.26365 q 0.07235,0.34003 -0.207395,0.43891 -0.279742,0.0989 -0.43167,-0.20257 l -0.248392,-0.68971 h -1.965427 l -0.241157,0.67283 q -0.15434,0.30385 -0.438905,0.20016 -0.284565,-0.10611 -0.195337,-0.43167 z"
           style="font-size:4.93889px;line-height:1.25;font-family:'MS 33558';-inkscape-font-specification:'MS 33558, ';word-spacing:-2.64583px;fill:#00ff00;stroke-width:0.264583"
           id="path3004" />
        <path
           d="m 75.6604,179.00501 h 0.04582 q 0.308681,0.0217 0.56913,0.13987 0.499195,0.23392 0.70659,0.76929 0.207394,0.53537 -0.0048,1.04421 -0.171221,0.40273 -0.506429,0.63183 -0.335208,0.22669 -0.764467,0.25321 l -0.04582,0.002 h -1.172022 v 1.75804 q -0.04341,0.34003 -0.342443,0.34003 -0.299034,0 -0.340031,-0.34003 v -4.26124 q 0.03617,-0.29904 0.318327,-0.33762 h 0.0217 z m 0,0.68006 h -1.172022 v 1.47829 H 75.6604 q 0.274918,0 0.484725,-0.18328 0.212218,-0.18328 0.248391,-0.4582 0.04341,-0.33279 -0.178456,-0.58359 -0.221864,-0.25322 -0.55466,-0.25322 z"
           style="font-size:4.93889px;line-height:1.25;font-family:'MS 33558';-inkscape-font-specification:'MS 33558, ';word-spacing:-2.64583px;fill:#00ff00;stroke-width:0.264583"
           id="path3006" />
        <path
           d="m 80.444952,179.67784 h -1.99919 v 1.31912 h 1.52411 q 0.34245,0.0506 0.34004,0.34486 0,0.2918 -0.34004,0.34003 h -1.52411 v 1.5844 h 1.99919 q 0.34003,0.0506 0.34003,0.34003 0,0.28939 -0.34003,0.33762 h -2.3344 q -0.30144,-0.0386 -0.34244,-0.34244 v -4.25883 q 0.0458,-0.31833 0.34244,-0.33762 h 2.3344 q 0.34003,0.0265 0.33762,0.34003 0,0.31109 -0.33762,0.3328 z"
           style="font-size:4.93889px;line-height:1.25;font-family:'MS 33558';-inkscape-font-specification:'MS 33558, ';word-spacing:-2.64583px;fill:#00ff00;stroke-width:0.264583"
           id="path3008" />
        <path
           d="m 85.602962,179.00501 h 0.0458 q 0.30869,0.0217 0.56913,0.13987 0.4992,0.23392 0.70659,0.76929 0.2074,0.53537 -0.005,1.04421 -0.17122,0.40273 -0.50643,0.63183 -0.33521,0.22669 -0.76447,0.25321 l -0.0458,0.002 h -1.17203 v 1.75804 q -0.0434,0.34003 -0.34244,0.34003 -0.29903,0 -0.34003,-0.34003 v -4.26124 q 0.0362,-0.29904 0.31833,-0.33762 h 0.0217 z m 0,0.68006 h -1.17203 v 1.47829 h 1.17203 q 0.27491,0 0.48472,-0.18328 0.21222,-0.18328 0.24839,-0.4582 0.0434,-0.33279 -0.17845,-0.58359 -0.22187,-0.25322 -0.55466,-0.25322 z"
           style="font-size:4.93889px;line-height:1.25;font-family:'MS 33558';-inkscape-font-specification:'MS 33558, ';word-spacing:-2.64583px;fill:#00ff00;stroke-width:0.264583"
           id="path3010" />
        <path
           d="m 88.053112,183.94631 q -0.29663,-0.0193 -0.34245,-0.33521 v -4.26365 q 0.0507,-0.34726 0.35209,-0.34003 0.30145,0.005 0.32798,0.34003 v 3.92603 l 2.22587,-0.002 q 0.34245,0.0386 0.33762,0.34727 -0.002,0.30627 -0.34003,0.32797 z"
           style="font-size:4.93889px;line-height:1.25;font-family:'MS 33558';-inkscape-font-specification:'MS 33558, ';word-spacing:-2.64583px;fill:#00ff00;stroke-width:0.264583"
           id="path3012" />
        <path
           d="m 94.253252,182.3595 -0.73312,-2.02572 -0.73794,2.02572 z m -0.73312,-2.02572 0.73312,2.02572 z m -1.86173,3.14469 q 0.38585,-1.06351 0.7717,-2.12459 0.38826,-1.06351 0.77653,-2.12701 0.0796,-0.21945 0.31591,-0.22186 0.23632,-0.002 0.31833,0.22186 l 1.54581,4.26365 q 0.0724,0.34003 -0.20739,0.43891 -0.27974,0.0989 -0.43167,-0.20257 l -0.24839,-0.68971 h -1.96543 l -0.24116,0.67283 q -0.15434,0.30385 -0.4389,0.20016 -0.28457,-0.10611 -0.19534,-0.43167 z"
           style="font-size:4.93889px;line-height:1.25;font-family:'MS 33558';-inkscape-font-specification:'MS 33558, ';word-spacing:-2.64583px;fill:#00ff00;stroke-width:0.264583"
           id="path3014" />
        <path
           d="m 98.750822,179.18105 q 0.1881,-0.28215 0.45337,-0.13504 0.26769,0.1471 0.13746,0.4606 l -1.38665,2.47668 v 1.61334 q -0.0217,0.34245 -0.33762,0.34245 -0.3135,0 -0.3352,-0.34245 v -1.61334 l -1.38424,-2.47668 q -0.12782,-0.31109 0.13021,-0.45578 0.25804,-0.14711 0.46061,0.13022 l 1.13103,2.0209 z"
           style="font-size:4.93889px;line-height:1.25;font-family:'MS 33558';-inkscape-font-specification:'MS 33558, ';word-spacing:-2.64583px;fill:#00ff00;stroke-width:0.264583"
           id="path3016" />
        <path
           d="m 102.65274,179.67784 h -1.99919 v 1.31912 h 1.5241 q 0.34244,0.0506 0.34003,0.34486 0,0.2918 -0.34003,0.34003 h -1.5241 v 1.5844 h 1.99919 q 0.34003,0.0506 0.34003,0.34003 0,0.28939 -0.34003,0.33762 h -2.3344 q -0.30145,-0.0386 -0.342438,-0.34244 v -4.25883 q 0.0458,-0.31833 0.342438,-0.33762 h 2.3344 q 0.34003,0.0265 0.33762,0.34003 0,0.31109 -0.33762,0.3328 z"
           style="font-size:4.93889px;line-height:1.25;font-family:'MS 33558';-inkscape-font-specification:'MS 33558, ';word-spacing:-2.64583px;fill:#00ff00;stroke-width:0.264583"
           id="path3018" />
        <path
           d="m 106.70898,183.42059 q 0.15434,0.27251 -0.0868,0.4582 -0.11576,0.082 -0.26769,0.0555 -0.14951,-0.0265 -0.21944,-0.14952 l -1.18891,-1.87861 h -0.6029 v 1.69774 q 0,0.20981 -0.19051,0.30386 -0.19051,0.0916 -0.35691,-0.0362 -0.13264,-0.0989 -0.13264,-0.26769 v -4.26124 q 0,-0.13987 0.0965,-0.23874 0.0989,-0.0989 0.24115,-0.0989 h 1.49759 q 0.54019,0 0.93808,0.34485 0.39791,0.34245 0.49439,0.87058 0.10128,0.56672 -0.24116,1.06109 -0.34003,0.49196 -0.90434,0.59807 l -0.0458,0.007 z m -1.2106,-2.19212 q 0.24597,0 0.45338,-0.14951 0.20981,-0.14952 0.28215,-0.39068 0.11335,-0.37138 -0.10369,-0.67041 -0.21705,-0.30145 -0.59808,-0.3328 h -1.18891 v 1.5434 z"
           style="font-size:4.93889px;line-height:1.25;font-family:'MS 33558';-inkscape-font-specification:'MS 33558, ';word-spacing:-2.64583px;fill:#00ff00;stroke-width:0.264583"
           id="path3020" />
      </g>
      <g
         id="g932"
         transform="translate(23.728907,-48.11239)"
         style="fill:#00ff00">
        <path
           d="m 27.308349,197.91017 h 0.03273 q 0.220485,0.0155 0.40652,0.0999 0.356567,0.16708 0.504705,0.54949 0.148139,0.3824 -0.0034,0.74586 -0.1223,0.28766 -0.361734,0.45131 -0.239433,0.16191 -0.546046,0.18086 l -0.03273,0.002 h -0.837156 v 1.25573 q -0.03101,0.24288 -0.244601,0.24288 -0.213596,0 -0.242879,-0.24288 v -3.04374 q 0.02584,-0.21359 0.227376,-0.24115 h 0.0155 z m 0,0.48576 h -0.837156 v 1.05592 h 0.837156 q 0.19637,0 0.346232,-0.13092 0.151584,-0.13091 0.177422,-0.32728 0.03101,-0.23771 -0.127468,-0.41686 -0.158475,-0.18086 -0.396186,-0.18086 z"
           style="font-size:3.52777px;line-height:1.25;font-family:'MS 33558';-inkscape-font-specification:'MS 33558, ';word-spacing:-2.64583px;fill:#00ff00;stroke-width:0.264583"
           id="path3027" />
        <path
           d="m 29.058454,201.43966 q -0.211873,-0.0138 -0.244601,-0.23943 v -3.04546 q 0.03617,-0.24805 0.251491,-0.24288 0.215318,0.003 0.234266,0.24288 v 2.8043 l 1.589908,-0.002 q 0.244601,0.0276 0.241156,0.24804 -0.0017,0.21877 -0.242878,0.23427 z"
           style="font-size:3.52777px;line-height:1.25;font-family:'MS 33558';-inkscape-font-specification:'MS 33558, ';word-spacing:-2.64583px;fill:#00ff00;stroke-width:0.264583"
           id="path3029" />
        <path
           d="m 33.487114,200.30623 -0.523653,-1.44694 -0.527099,1.44694 z m -0.523653,-1.44694 0.523653,1.44694 z m -1.329804,2.2462 q 0.275607,-0.75964 0.551214,-1.51756 0.27733,-0.75965 0.554659,-1.51929 0.05684,-0.15675 0.225653,-0.15847 0.16881,-0.002 0.227376,0.15847 l 1.104151,3.04546 q 0.05168,0.24288 -0.148139,0.3135 -0.199815,0.0706 -0.308335,-0.14469 l -0.177422,-0.49265 H 32.25894 l -0.172254,0.48059 q -0.110243,0.21704 -0.313503,0.14297 -0.20326,-0.0758 -0.139526,-0.30833 z"
           style="font-size:3.52777px;line-height:1.25;font-family:'MS 33558';-inkscape-font-specification:'MS 33558, ';word-spacing:-2.64583px;fill:#00ff00;stroke-width:0.264583"
           id="path3031" />
        <path
           d="m 36.699659,198.03591 q 0.134358,-0.20153 0.323838,-0.0965 0.191202,0.10508 0.09819,0.32901 l -0.990463,1.76905 v 1.15238 q -0.0155,0.2446 -0.241156,0.2446 -0.223931,0 -0.239433,-0.2446 v -1.15238 l -0.988741,-1.76905 q -0.09129,-0.22221 0.09302,-0.32556 0.184312,-0.10508 0.329006,0.093 l 0.807873,1.4435 z"
           style="font-size:3.52777px;line-height:1.25;font-family:'MS 33558';-inkscape-font-specification:'MS 33558, ';word-spacing:-2.64583px;fill:#00ff00;stroke-width:0.264583"
           id="path3033" />
      </g>
      <g
         id="g938"
         transform="translate(23.093927,-48.11239)"
         style="fill:#00ff00">
        <path
           d="m 50.499322,199.55852 0.02756,0.0121 0.03101,0.0155 0.02756,0.0155 q 0.01206,0.009 0.02584,0.0172 0.0155,0.007 0.02928,0.0155 0.341064,0.22393 0.422023,0.62012 0.03101,0.15503 0.01378,0.31867 -0.02756,0.23426 -0.165365,0.43408 -0.136081,0.19809 -0.342786,0.30661 -0.222208,0.11713 -0.459919,0.11713 -0.39963,0 -0.763087,-0.10163 -0.363457,-0.10335 -0.518486,-0.54949 -0.02067,-0.0568 -0.03101,-0.11713 -0.01033,-0.0603 -0.02412,-0.12058 -0.02584,-0.12402 0.06029,-0.21876 0.08785,-0.0947 0.21704,-0.0724 0.136081,0.0276 0.18948,0.16881 l 0.0052,0.0155 q 0.08268,0.3738 0.287665,0.44614 0.206705,0.0724 0.573607,0.0655 0.337618,0 0.463364,-0.31695 0.05512,-0.14125 0.01723,-0.29283 -0.0379,-0.15331 -0.149862,-0.25494 -0.04995,-0.0431 -0.130913,-0.081 l -0.797538,-0.34967 -0.02584,-0.0138 q -0.391018,-0.20671 -0.485757,-0.58739 -0.115411,-0.44097 0.160196,-0.79065 0.27733,-0.3514 0.726914,-0.3514 l 0.18948,0.005 q 0.09302,0.0172 0.179144,0.0344 0.08613,0.0155 0.173977,0.0551 0.217041,0.10163 0.332451,0.27905 0.11541,0.17743 0.208428,0.38413 0.0086,0.0189 0.0155,0.0448 0.01895,0.0844 -0.01723,0.1533 -0.02067,0.0431 -0.04306,0.0655 -0.02239,0.0224 -0.03617,0.031 -0.08957,0.0637 -0.19637,0.0379 -0.106797,-0.0241 -0.163641,-0.1378 -0.04479,-0.0999 -0.09646,-0.20326 -0.04995,-0.10508 -0.141248,-0.17398 -0.0379,-0.0276 -0.07407,-0.0396 -0.03445,-0.0138 -0.07751,-0.0293 l -0.111966,-0.019 -0.158474,-0.005 q -0.230821,0.003 -0.353121,0.19982 -0.08268,0.12575 -0.06201,0.28077 0.02412,0.19121 0.179145,0.29628 0.0069,0.005 0.0155,0.0121 0.0086,0.005 0.01895,0.0103 l 0.01895,0.009 0.02067,0.009 z"
           style="font-size:3.52777px;line-height:1.25;font-family:'MS 33558';-inkscape-font-specification:'MS 33558, ';word-spacing:-2.64583px;fill:#00ff00;stroke-width:0.264583"
           id="path3036" />
        <path
           d="m 52.382063,201.19494 v -2.80086 h -0.632174 q -0.241156,-0.0189 -0.241156,-0.24116 0.0017,-0.22393 0.241156,-0.2446 h 1.748382 q 0.237712,0.019 0.237712,0.2446 0.0017,0.22393 -0.237712,0.24116 H 52.86782 v 2.80086 q -0.03962,0.2446 -0.254936,0.24115 -0.213596,-0.003 -0.230821,-0.24115 z"
           style="font-size:3.52777px;line-height:1.25;font-family:'MS 33558';-inkscape-font-specification:'MS 33558, ';word-spacing:-2.64583px;fill:#00ff00;stroke-width:0.264583"
           id="path3038" />
        <path
           d="m 56.542007,198.9229 q 0.158474,0.47715 0.118855,0.99046 -0.0379,0.51332 -0.280774,0.93707 -0.153307,0.26355 -0.418579,0.44786 -0.265271,0.18431 -0.585665,0.12919 -0.52193,-0.0913 -0.79926,-0.54432 -0.27733,-0.45303 -0.318671,-1.00769 -0.03962,-0.55638 0.149862,-1.08348 0.191202,-0.5271 0.608058,-0.76653 0.20326,-0.11714 0.425468,-0.11714 0.423746,0 0.692463,0.3204 0.268717,0.31867 0.408243,0.69418 z m -1.086926,-0.52538 q -0.316948,0 -0.480589,0.34107 -0.161919,0.34106 -0.204983,0.58222 -0.03273,0.1757 -0.02412,0.42547 0.0086,0.24977 0.07235,0.49437 0.06373,0.24288 0.191203,0.43925 0.127468,0.19464 0.334173,0.25838 0.241156,0.0758 0.415133,-0.0947 0.1757,-0.17226 0.265272,-0.36518 0.0913,-0.19809 0.124023,-0.52021 0.03445,-0.32212 -0.0155,-0.64251 -0.04823,-0.32212 -0.191202,-0.57877 -0.142971,-0.25839 -0.406521,-0.32901 -0.03445,-0.0103 -0.07924,-0.0103 z"
           style="font-size:3.52777px;line-height:1.25;font-family:'MS 33558';-inkscape-font-specification:'MS 33558, ';word-spacing:-2.64583px;fill:#00ff00;stroke-width:0.264583"
           id="path3040" />
        <path
           d="m 58.448863,197.90832 h 0.03273 q 0.220486,0.0155 0.406521,0.0999 0.356566,0.16709 0.504705,0.54949 0.148139,0.38241 -0.0034,0.74586 -0.122301,0.28767 -0.361734,0.45131 -0.239434,0.16192 -0.546047,0.18087 l -0.03273,0.002 h -0.837157 v 1.25573 q -0.031,0.24288 -0.244601,0.24288 -0.213595,0 -0.242878,-0.24288 v -3.04373 q 0.02584,-0.2136 0.227375,-0.24116 h 0.0155 z m 0,0.48576 H 57.611706 V 199.45 h 0.837157 q 0.19637,0 0.346231,-0.13091 0.151584,-0.13092 0.177422,-0.32729 0.03101,-0.23771 -0.127468,-0.41685 -0.158474,-0.18087 -0.396185,-0.18087 z"
           style="font-size:3.52777px;line-height:1.25;font-family:'MS 33558';-inkscape-font-specification:'MS 33558, ';word-spacing:-2.64583px;fill:#00ff00;stroke-width:0.264583"
           id="path3042" />
      </g>
      <path
         id="path2776"
         style="fill:#ff0000;stroke-width:0.851152"
         d="m 61.296853,166.68749 a 6,6 0 0 1 -5.829199,5.99757 6,6 0 0 1 -6.161077,-5.6561 6,6 0 0 1 5.478427,-6.31959 6,6 0 0 1 6.472983,5.2963" />
      <path
         id="path2776-2"
         style="fill:#ff0000;stroke-width:0.851152"
         d="m 83.209774,166.68749 a 6,6 0 0 1 -5.829199,5.99757 6,6 0 0 1 -6.161077,-5.6561 6,6 0 0 1 5.478427,-6.31959 6,6 0 0 1 6.472983,5.2963" />
      <path
         id="path2776-6"
         style="fill:#ff0000;stroke-width:0.851152"
         d="m 105.12268,166.68749 a 6,6 0 0 1 -5.82919,5.99757 6,6 0 0 1 -6.161077,-5.6561 6,6 0 0 1 5.478426,-6.31959 6,6 0 0 1 6.472971,5.2963" />
      <path
         id="path2776-9"
         style="fill:#ff0000;stroke-width:0.851152"
         d="m 127.03561,166.68749 a 6,6 0 0 1 -5.8292,5.99757 6,6 0 0 1 -6.16108,-5.6561 6,6 0 0 1 5.47843,-6.31959 6,6 0 0 1 6.47298,5.2963" />
      <path
         id="path2776-4"
         style="fill:#ff0000;stroke-width:0.851152"
         d="m 170.86146,166.68749 a 6,6 0 0 1 -5.8292,5.99757 6,6 0 0 1 -6.16108,-5.6561 6,6 0 0 1 5.47843,-6.31959 6,6 0 0 1 6.47298,5.2963" />
      <path
         id="path2776-5"
         style="fill:#ff0000;stroke-width:0.851152"
         d="m 148.94854,166.68749 a 6,6 0 0 1 -5.8292,5.99757 6,6 0 0 1 -6.16108,-5.6561 6,6 0 0 1 5.47843,-6.31959 6,6 0 0 1 6.47298,5.2963" />
      <g
         id="g944"
         transform="translate(24.363897,-48.11239)"
         style="fill:#00ff00">
        <path
           d="m 116.03044,199.55884 0.0276,0.0121 0.031,0.0155 0.0276,0.0155 q 0.0121,0.009 0.0258,0.0172 0.0155,0.007 0.0293,0.0155 0.34107,0.22393 0.42203,0.62012 0.031,0.15503 0.0138,0.31867 -0.0276,0.23426 -0.16537,0.43408 -0.13608,0.19809 -0.34278,0.30661 -0.22221,0.11713 -0.45992,0.11713 -0.39963,0 -0.76309,-0.10163 -0.36346,-0.10335 -0.51849,-0.54949 -0.0207,-0.0568 -0.031,-0.11713 -0.0103,-0.0603 -0.0241,-0.12058 -0.0258,-0.12402 0.0603,-0.21876 0.0879,-0.0947 0.21704,-0.0724 0.13607,0.0276 0.18948,0.16881 l 0.005,0.0155 q 0.0827,0.3738 0.28765,0.44614 0.20671,0.0724 0.57361,0.0655 0.33762,0 0.46337,-0.31695 0.0551,-0.14125 0.0172,-0.29283 -0.0379,-0.15331 -0.14985,-0.25494 -0.0499,-0.0431 -0.13091,-0.081 l -0.79754,-0.34967 -0.0258,-0.0138 q -0.39102,-0.20671 -0.48576,-0.58739 -0.11541,-0.44097 0.1602,-0.79065 0.27733,-0.3514 0.72691,-0.3514 l 0.18948,0.005 q 0.093,0.0172 0.17915,0.0344 0.0861,0.0155 0.17397,0.0551 0.21704,0.10163 0.33244,0.27905 0.11542,0.17743 0.20843,0.38413 0.009,0.019 0.0155,0.0448 0.0189,0.0844 -0.0172,0.1533 -0.0207,0.0431 -0.0431,0.0655 -0.0224,0.0224 -0.0362,0.031 -0.0896,0.0637 -0.19637,0.0379 -0.10679,-0.0241 -0.16364,-0.1378 -0.0448,-0.0999 -0.0965,-0.20326 -0.0499,-0.10508 -0.14125,-0.17398 -0.0379,-0.0276 -0.0741,-0.0396 -0.0344,-0.0138 -0.0775,-0.0293 l -0.11198,-0.019 -0.15847,-0.005 q -0.23081,0.003 -0.35311,0.19982 -0.0827,0.12575 -0.062,0.28077 0.0241,0.19121 0.17915,0.29628 0.007,0.005 0.0155,0.0121 0.009,0.005 0.019,0.0103 l 0.0189,0.009 0.0207,0.009 z"
           style="font-size:3.52777px;line-height:1.25;font-family:'MS 33558';-inkscape-font-specification:'MS 33558, ';word-spacing:-2.64583px;fill:#00ff00;stroke-width:0.264583"
           id="path3047" />
        <path
           d="m 117.52906,201.1987 q -0.0379,0.24288 -0.24633,0.24116 -0.2067,0 -0.24288,-0.24116 v -3.04546 q 0.0362,-0.24288 0.24288,-0.24288 0.20843,-0.002 0.24633,0.24288 z"
           style="font-size:3.52777px;line-height:1.25;font-family:'MS 33558';-inkscape-font-specification:'MS 33558, ';word-spacing:-2.64583px;fill:#00ff00;stroke-width:0.264583"
           id="path3049" />
        <path
           d="m 118.25942,197.90864 h 0.81131 q 0.60462,0 0.90606,0.55122 0.30145,0.55121 0.30145,1.21267 0,0.66145 -0.30317,1.21267 -0.30145,0.55121 -0.90434,0.55121 h -0.81131 0.003 -0.003 q -0.0568,-0.009 -0.062,-0.0103 -0.17914,-0.0431 -0.17742,-0.23427 h -0.002 l 0.002,-3.04201 q -0.002,-0.005 -0.002,-0.0138 0.005,-0.0947 0.0741,-0.1602 0.0706,-0.0672 0.16881,-0.0672 z m 0.81131,3.04202 q 0.003,0 0.007,0 0.003,0 0.009,0 0.003,0 0.005,0 0.003,-0.002 0.009,-0.002 0.003,0 0.007,0 0.005,-0.002 0.0103,-0.002 0.003,0 0.007,0 0.003,-0.002 0.009,-0.002 0.003,0 0.007,0 0.003,-0.002 0.009,-0.002 0.007,-0.003 0.0138,-0.003 0.003,0 0.007,-0.002 0.003,-0.003 0.009,-0.005 0.003,0 0.007,0 0.005,-0.002 0.0103,-0.003 0.003,0 0.007,-0.002 0.003,-0.002 0.009,-0.003 0.0103,-0.003 0.0155,-0.007 0.031,-0.0103 0.0172,-0.007 0.003,0 0.007,-0.002 0.003,-0.003 0.009,-0.005 0.0155,-0.0103 0.0138,-0.009 0.0172,-0.009 0.0172,-0.009 0.003,-0.002 0.007,-0.003 0.003,-0.003 0.009,-0.007 0.0155,-0.0103 0.0155,-0.0103 0.003,-0.002 0.007,-0.003 0.005,-0.003 0.0103,-0.007 0.003,-0.002 0.007,-0.005 0.003,-0.003 0.009,-0.007 0.003,-0.002 0.007,-0.003 0.003,-0.003 0.009,-0.007 0.003,-0.003 0.0172,-0.0138 0.0138,-0.0138 0.0138,-0.0138 0.003,-0.003 0.007,-0.007 0.003,-0.003 0.009,-0.009 0.003,-0.003 0.007,-0.007 0.003,-0.003 0.009,-0.009 0.005,-0.003 0.0155,-0.0138 0.003,-0.003 0.007,-0.007 0.003,-0.003 0.009,-0.009 0.003,-0.003 0.007,-0.007 0.003,-0.005 0.009,-0.0103 0.0207,-0.0276 0.0138,-0.0172 0.0121,-0.0121 0.0155,-0.019 0.0155,-0.0207 0.0138,-0.0189 0.003,-0.005 0.007,-0.009 0.003,-0.005 0.009,-0.0103 0.003,-0.005 0.005,-0.0103 0.003,-0.005 0.009,-0.0103 0.002,-0.005 0.005,-0.0103 0.005,-0.007 0.009,-0.0121 0.0103,-0.0138 0.0138,-0.0207 0.003,-0.005 0.005,-0.0103 0.003,-0.007 0.009,-0.0121 0.003,-0.005 0.005,-0.0103 0.003,-0.007 0.009,-0.0121 0.003,-0.009 0.0103,-0.0224 0.003,-0.005 0.005,-0.0121 0.003,-0.007 0.009,-0.0138 0.003,-0.005 0.005,-0.0103 0.003,-0.007 0.009,-0.0138 0.002,-0.005 0.003,-0.0121 0.003,-0.007 0.007,-0.0138 0.005,-0.009 0.0121,-0.0258 0.0172,-0.0431 0.0121,-0.0276 0.002,-0.005 0.003,-0.0121 0.003,-0.009 0.007,-0.0155 0.002,-0.007 0.003,-0.0138 0.003,-0.007 0.007,-0.0155 0.005,-0.0155 0.009,-0.0276 0.002,-0.007 0.003,-0.0138 0.003,-0.007 0.007,-0.0155 -0.007,0.0172 0.009,-0.0293 0.003,-0.009 0.0103,-0.0293 0,-0.007 0.002,-0.0138 0.003,-0.009 0.005,-0.0172 0.002,-0.007 0.003,-0.0138 0.002,-0.009 0.005,-0.0172 0,-0.005 0.002,-0.0121 0.003,-0.009 0.005,-0.0172 0.002,-0.0121 0.005,-0.0327 0,-0.007 0.002,-0.0138 0.003,-0.009 0.005,-0.0172 0,-0.007 0.002,-0.0138 0.002,-0.009 0.003,-0.0172 0.002,-0.0121 0.005,-0.0327 0,-0.007 0.002,-0.0155 0.003,-0.009 0.005,-0.0172 0,-0.0121 0.003,-0.0327 0,-0.007 0,-0.0138 0.002,-0.009 0.003,-0.019 0.003,-0.0207 0.003,-0.0327 0.002,-0.0121 0.002,-0.0327 0.002,-0.0121 0.002,-0.0344 0.002,-0.0121 0.002,-0.0327 0,-0.009 0,-0.0155 0.002,-0.009 0.003,-0.019 0,-0.007 0,-0.0138 0.002,-0.009 0.002,-0.0189 0,-0.007 0,-0.0155 0,-0.009 0,-0.0172 0,-0.009 0,-0.0155 0,-0.009 0,-0.0172 0,-0.009 -0.002,-0.0155 0,-0.009 0,-0.0189 0,-0.007 0,-0.0155 0,-0.009 0,-0.0172 0,-0.0103 -0.003,-0.0345 0,-0.0207 -0.002,-0.031 0,-0.0121 -0.003,-0.0362 0,-0.0207 -0.002,-0.031 0,-0.0121 -0.003,-0.0327 -0.002,-0.007 -0.003,-0.0155 0,-0.009 0,-0.0172 -0.003,-0.0207 -0.007,-0.0327 -0.002,-0.007 -0.003,-0.0138 -0.002,-0.009 -0.002,-0.0172 -0.002,-0.0121 -0.005,-0.0327 -0.002,-0.0121 -0.005,-0.0327 -0.007,-0.0207 -0.009,-0.031 -0.003,-0.0207 -0.005,-0.0293 -0.003,-0.007 -0.005,-0.0138 -0.002,-0.009 -0.003,-0.0172 -0.002,-0.007 -0.005,-0.0138 -0.003,-0.009 -0.003,-0.0172 -0.0155,-0.0465 -0.009,-0.0293 -0.003,-0.0121 -0.009,-0.0293 -0.003,-0.005 -0.007,-0.0121 -0.002,-0.009 -0.003,-0.0155 -0.002,-0.005 -0.0103,-0.0293 -0.007,-0.0172 -0.0103,-0.0276 -0.003,-0.005 -0.007,-0.0121 -0.002,-0.009 -0.003,-0.0155 -0.003,-0.005 -0.007,-0.0121 -0.003,-0.007 -0.005,-0.0138 -0.007,-0.0172 -0.0121,-0.0258 -0.007,-0.0172 -0.0103,-0.0241 -0.007,-0.0172 -0.0121,-0.0258 -0.003,-0.005 -0.007,-0.0103 -0.003,-0.007 -0.005,-0.0121 -0.0103,-0.0172 -0.0138,-0.0241 -0.0155,-0.0241 -0.0138,-0.0224 -0.005,-0.005 -0.009,-0.0103 -0.002,-0.007 -0.005,-0.0121 -0.003,-0.007 -0.0138,-0.0207 -0.003,-0.005 -0.007,-0.0103 -0.003,-0.005 -0.005,-0.0103 -0.009,-0.0155 -0.0293,-0.0396 -0.003,-0.003 -0.0276,-0.0379 -0.0207,-0.0241 -0.031,-0.0345 -0.0103,-0.0121 -0.031,-0.0327 -0.0138,-0.0155 -0.0293,-0.0293 -0.0121,-0.009 -0.0327,-0.0258 -0.0172,-0.0138 -0.0327,-0.0258 -0.0396,-0.0258 -0.0327,-0.0224 -0.0344,-0.0207 -0.031,-0.019 0,0 -0.031,-0.0155 -0.007,-0.003 -0.0327,-0.0121 -0.0224,-0.009 -0.0327,-0.012 -0.009,-0.002 -0.0155,-0.003 -0.007,-0.003 -0.0138,-0.007 -0.031,-0.005 -0.031,-0.005 -0.0103,-0.002 -0.031,-0.002 -0.005,0 -0.009,0 -0.003,0 -0.007,0 h -0.56844 v 2.55626 0 z"
           style="font-size:3.52777px;line-height:1.25;font-family:'MS 33558';-inkscape-font-specification:'MS 33558, ';word-spacing:-2.64583px;fill:#00ff00;stroke-width:0.264583"
           id="path3051" />
        <path
           d="m 122.62951,198.38923 h -1.42799 v 0.94223 h 1.08865 q 0.2446,0.0362 0.24289,0.24633 0,0.20843 -0.24289,0.24288 h -1.08865 v 1.13171 h 1.42799 q 0.24288,0.0362 0.24288,0.24288 0,0.2067 -0.24288,0.24115 h -1.66742 q -0.21532,-0.0276 -0.2446,-0.2446 v -3.04201 q 0.0327,-0.22738 0.2446,-0.24116 h 1.66742 q 0.24288,0.019 0.24116,0.24288 0,0.22221 -0.24116,0.23771 z"
           style="font-size:3.52777px;line-height:1.25;font-family:'MS 33558';-inkscape-font-specification:'MS 33558, ';word-spacing:-2.64583px;fill:#00ff00;stroke-width:0.264583"
           id="path3053" />
      </g>
      <g
         id="g949"
         transform="translate(23.728947,-48.11239)"
         style="fill:#00ff00">
        <path
           d="m 137.24608,198.23558 q -0.0327,-0.2446 0.17397,-0.29972 0.20843,-0.0551 0.29628,0.17398 l 0.5805,2.14973 0.58394,-2.1704 q 0.0879,-0.23255 0.30317,-0.16881 0.21532,0.062 0.16536,0.29455 l -0.81993,3.04374 q -0.0689,0.17742 -0.23082,0.17914 -0.16192,0 -0.23599,-0.17225 z"
           style="font-size:3.52777px;line-height:1.25;font-family:'MS 33558';-inkscape-font-specification:'MS 33558, ';word-spacing:-2.64583px;fill:#00ff00;stroke-width:0.264583"
           id="path3056" />
        <path
           d="m 142.12432,198.9246 q 0.15848,0.47715 0.11886,0.99046 -0.0379,0.51332 -0.28077,0.93707 -0.1533,0.26355 -0.41858,0.44786 -0.26527,0.18431 -0.58566,0.12919 -0.52193,-0.0913 -0.79926,-0.54432 -0.27733,-0.45303 -0.31867,-1.00769 -0.0396,-0.55638 0.14986,-1.08348 0.1912,-0.5271 0.60806,-0.76653 0.20326,-0.11714 0.42546,-0.11714 0.42375,0 0.69247,0.3204 0.26872,0.31867 0.40823,0.69418 z m -1.08692,-0.52537 q -0.31695,0 -0.48059,0.34106 -0.16192,0.34106 -0.20499,0.58222 -0.0327,0.1757 -0.0241,0.42547 0.009,0.24977 0.0724,0.49437 0.0637,0.24288 0.1912,0.43925 0.12747,0.19464 0.33417,0.25838 0.24116,0.0758 0.41513,-0.0947 0.1757,-0.17226 0.26528,-0.36518 0.0913,-0.19809 0.12402,-0.52021 0.0345,-0.32212 -0.0155,-0.64251 -0.0482,-0.32211 -0.19121,-0.57877 -0.14297,-0.25838 -0.40652,-0.32901 -0.0344,-0.0103 -0.0792,-0.0103 z"
           style="font-size:3.52777px;line-height:1.25;font-family:'MS 33558';-inkscape-font-specification:'MS 33558, ';word-spacing:-2.64583px;fill:#00ff00;stroke-width:0.264583"
           id="path3058" />
        <path
           d="m 142.95114,201.43952 q -0.21187,-0.0138 -0.2446,-0.23944 v -3.04546 q 0.0362,-0.24804 0.25149,-0.24287 0.21532,0.003 0.23427,0.24287 v 2.80431 l 1.58991,-0.002 q 0.2446,0.0276 0.24115,0.24805 -0.002,0.21876 -0.24288,0.23427 z"
           style="font-size:3.52777px;line-height:1.25;font-family:'MS 33558';-inkscape-font-specification:'MS 33558, ';word-spacing:-2.64583px;fill:#00ff00;stroke-width:0.264583"
           id="path3060" />
      </g>
      <path
         id="path1907"
         style="fill:#00ff00;stroke-width:0.25;stop-color:#000000"
         inkscape:transform-center-x="0.79374939"
         d="m 96.741437,151.56186 2.38125,-1.37481 2.381243,-1.37482 v 2.74963 2.74963 l -2.381243,-1.37481 z" />
      <path
         id="path1907-7"
         style="fill:#00ff00;stroke-width:0.25;stop-color:#000000"
         inkscape:transform-center-x="-0.79374771"
         d="m 123.41685,151.56186 -2.38124,-1.37481 -2.38125,-1.37482 v 2.74963 2.74963 l 2.38125,-1.37481 z" />
      <path
         id="path1009-1-5-6"
         style="fill:#ff0000;stroke:none;stroke-width:0.212611;stroke-miterlimit:4;stroke-dasharray:none;stop-color:#000000"
         d="m 106.89167,197.95511 a 3.175,3.175 0 0 0 3.08463,3.17371 3.175,3.175 0 0 0 3.26022,-2.99302 3.175,3.175 0 0 0 -2.899,-3.34412 3.175,3.175 0 0 0 -3.42529,2.80263" />
    </g>
    <g
       id="g908"
       transform="translate(-0.56696432,73.038918)">
      <rect
         style="fill:none;stroke:#000000;stroke-width:0.250033;stroke-miterlimit:4;stroke-dasharray:none;stop-color:#000000"
         id="rect971-6-1"
         width="171.19997"
         height="82.299973"
         x="14.185731"
         y="69.975021" />
      <path
         id="path1009-0-8"
         style="fill:#ff0000;stroke:none;stroke-width:0.212611;stroke-miterlimit:4;stroke-dasharray:none;stop-color:#000000"
         d="m 27.237175,82.36035 a 3.175,3.175 0 0 1 -3.084617,3.17372 3.175,3.175 0 0 1 -3.260237,-2.99303 3.175,3.175 0 0 1 2.899001,-3.34412 3.175,3.175 0 0 1 3.425287,2.80263" />
      <path
         id="path1009-1-1-5-6"
         style="fill:#ff0000;stroke:none;stroke-width:0.212611;stroke-miterlimit:4;stroke-dasharray:none;stop-color:#000000"
         d="m 27.237175,142.39261 a 3.175,3.175 0 0 0 -3.084617,-3.17371 3.175,3.175 0 0 0 -3.260237,2.99302 3.175,3.175 0 0 0 2.899001,3.34412 3.175,3.175 0 0 0 3.425287,-2.80263" />
      <path
         id="path1009-1-7-1"
         style="fill:#ff0000;stroke:none;stroke-width:0.212611;stroke-miterlimit:4;stroke-dasharray:none;stop-color:#000000"
         d="m 172.31951,142.39261 a 3.175,3.175 0 0 1 3.08462,-3.17371 3.175,3.175 0 0 1 3.26023,2.99302 3.175,3.175 0 0 1 -2.899,3.34412 3.175,3.175 0 0 1 -3.42528,-2.80263" />
      <path
         id="path1009-1-5-61-0"
         style="fill:#ff0000;stroke:none;stroke-width:0.212611;stroke-miterlimit:4;stroke-dasharray:none;stop-color:#000000"
         d="m 172.31949,82.36037 a 3.175,3.175 0 0 0 3.08462,3.17371 3.175,3.175 0 0 0 3.26024,-2.99302 3.175,3.175 0 0 0 -2.899,-3.34412 3.175,3.175 0 0 0 -3.42529,2.80263" />
      <path
         id="path2776-94"
         style="fill:#ff0000;stroke-width:0.851152"
         d="m 51.015902,111.125 a 6,6 0 0 1 -5.829197,5.99757 6,6 0 0 1 -6.161077,-5.6561 6,6 0 0 1 5.478427,-6.31959 6,6 0 0 1 6.472987,5.2963" />
      <path
         id="path2776-2-8"
         style="fill:#ff0000;stroke-width:0.851152"
         d="m 72.928822,111.125 a 6,6 0 0 1 -5.8292,5.99757 6,6 0 0 1 -6.16107,-5.6561 6,6 0 0 1 5.47842,-6.31959 6,6 0 0 1 6.47299,5.2963" />
      <path
         id="path2776-6-5"
         style="fill:#ff0000;stroke-width:0.851152"
         d="m 94.841732,111.125 a 6,6 0 0 1 -5.82919,5.99757 6,6 0 0 1 -6.16108,-5.6561 6,6 0 0 1 5.47843,-6.31959 6,6 0 0 1 6.47297,5.2963" />
      <path
         id="path2776-9-5"
         style="fill:#ff0000;stroke-width:0.851152"
         d="m 116.75466,111.125 a 6,6 0 0 1 -5.8292,5.99757 6,6 0 0 1 -6.16108,-5.6561 6,6 0 0 1 5.47843,-6.31959 6,6 0 0 1 6.47298,5.2963" />
      <path
         id="path2776-4-5"
         style="fill:#ff0000;stroke-width:0.851152"
         d="m 160.58051,111.125 a 6,6 0 0 1 -5.8292,5.99757 6,6 0 0 1 -6.16108,-5.6561 6,6 0 0 1 5.47843,-6.31959 6,6 0 0 1 6.47298,5.2963" />
      <path
         id="path2776-5-3"
         style="fill:#ff0000;stroke-width:0.851152"
         d="m 138.66759,111.125 a 6,6 0 0 1 -5.8292,5.99757 6,6 0 0 1 -6.16108,-5.6561 6,6 0 0 1 5.47843,-6.31959 6,6 0 0 1 6.47298,5.2963" />
      <path
         id="path1009-1-5-6-2"
         style="fill:#ff0000;stroke:none;stroke-width:0.212611;stroke-miterlimit:4;stroke-dasharray:none;stop-color:#000000"
         d="m 96.610722,142.39262 a 3.175,3.175 0 0 0 3.08463,3.17371 3.175,3.175 0 0 0 3.260218,-2.99302 3.175,3.175 0 0 0 -2.899,-3.34412 3.175,3.175 0 0 0 -3.425288,2.80263" />
    </g>
  </g>
</svg>
