<?xml version="1.0" encoding="UTF-8" standalone="no"?>
<!-- Created with Inkscape (http://www.inkscape.org/) -->

<svg
   width="210mm"
   height="297mm"
   viewBox="0 0 210 297"
   version="1.1"
   id="svg27490"
   inkscape:version="1.1 (c68e22c387, 2021-05-23)"
   sodipodi:docname="COMP Inserts.svg"
   xmlns:inkscape="http://www.inkscape.org/namespaces/inkscape"
   xmlns:sodipodi="http://sodipodi.sourceforge.net/DTD/sodipodi-0.dtd"
   xmlns="http://www.w3.org/2000/svg"
   xmlns:svg="http://www.w3.org/2000/svg">
  <sodipodi:namedview
     id="namedview27492"
     pagecolor="#ffffff"
     bordercolor="#666666"
     borderopacity="1.0"
     inkscape:pageshadow="2"
     inkscape:pageopacity="0.0"
     inkscape:pagecheckerboard="0"
     inkscape:document-units="mm"
     showgrid="false"
     inkscape:zoom="1.6612489"
     inkscape:cx="396.99049"
     inkscape:cy="561.32469"
     inkscape:window-width="2560"
     inkscape:window-height="1361"
     inkscape:window-x="-9"
     inkscape:window-y="-9"
     inkscape:window-maximized="1"
     inkscape:current-layer="layer1" />
  <defs
     id="defs27487" />
  <g
     inkscape:label="Layer 1"
     inkscape:groupmode="layer"
     id="layer1">
    <g
       id="g27808"
       transform="translate(-29.305262,-37.587184)">
      <path
         id="path3259-3-7-0-0"
         style="fill:none;fill-opacity:1;stroke:#000000;stroke-width:0.247213;stroke-miterlimit:4;stroke-dasharray:none;stroke-opacity:1"
         d="m 81.828706,106.04322 a 15.863804,15.529064 77.132339 0 0 -0.288701,0.002 15.863804,15.529064 77.132339 0 0 -0.161184,0.004 15.863804,15.529064 77.132339 0 0 -14.635505,12.37286 l 0.03974,0.009 a 15.110672,5.6604206 0 0 0 -0.002,0.0853 15.110672,5.6604206 0 0 0 15.110804,5.66054 15.110672,5.6604206 0 0 0 15.110804,-5.66054 15.110672,5.6604206 0 0 0 -0.08504,-0.59845 l 0.03538,-0.009 A 15.863804,15.529064 77.132339 0 0 81.828706,106.04321 Z" />
      <path
         id="rect936"
         style="fill:#00ff00;stroke-width:0.218394;stop-color:#000000"
         d="m 81.068001,112.86811 h 1.5875 v 10.90324 h -1.5875 z" />
    </g>
    <g
       id="g27804"
       transform="translate(-120.08787,-32.96842)">
      <path
         id="path906-0-7"
         style="fill:none;stroke:#000000;stroke-width:0.246106;stroke-miterlimit:4;stroke-dasharray:none;stroke-opacity:1;stop-color:#000000"
         inkscape:transform-center-y="3.4573467"
         d="m 139.76398,105.67744 c -0.0665,5e-5 -0.13283,5.1e-4 -0.19923,9.8e-4 -0.0436,7.8e-4 -0.0874,0.002 -0.13101,0.003 v -3.7e-4 c -5.80323,0.13354 -10.72211,3.60604 -11.9404,8.4294 l 1.98005,3.32041 h 20.77496 l 1.97961,-3.32041 c -1.50427,-4.76395 -6.68232,-8.43827 -12.46398,-8.43348 z m 0.0109,6.4843 c 0.12925,-7.9e-4 0.25848,9.7e-4 0.38756,0.007 h -0.66184 c 0.0565,-0.002 0.11308,-0.004 0.16966,-0.005 0.0348,-7.1e-4 0.0697,-9.8e-4 0.10462,-9.8e-4 z" />
      <path
         id="rect936-7"
         style="fill:#00ff00;stroke-width:0.174144;stop-color:#000000"
         d="m 139.20166,110.62136 h 1.5875 v 6.93256 h -1.5875 z" />
      <g
         aria-label="30"
         id="text960"
         style="font-size:3.52777px;line-height:1.25;font-family:'MS 33558';-inkscape-font-specification:'MS 33558, ';word-spacing:-2.64583px;fill:#00ff00;stroke-width:0.264583">
        <path
           d="m 132.14254,112.1747 q -0.002,-0.10508 0.003,-0.1912 0.007,-0.0879 -0.0379,-0.19465 -0.11197,-0.25838 -0.34795,-0.37552 -0.23427,-0.11713 -0.50816,-0.0396 -0.003,0.003 -0.0103,0.003 -0.0138,0.007 -0.0327,0.0103 -0.0827,0.0172 -0.15503,-0.0207 -0.0827,-0.0379 -0.12058,-0.13781 -0.005,-0.0121 -0.0121,-0.05 -0.0207,-0.11197 0.0517,-0.18431 l 0.65974,-0.81477 h -0.81477 q -0.11368,0 -0.18775,-0.0844 -0.0741,-0.0861 -0.0534,-0.19982 0.0327,-0.20326 0.23943,-0.20326 h 1.32808 q 0.20499,0 0.24116,0.21015 0.0172,0.11541 -0.0517,0.18604 l -0.64078,0.79065 q 0.0258,0.005 0.0517,0.0138 0.0276,0.007 0.0534,0.0121 0.0155,0.005 0.0189,0.005 0.3514,0.11886 0.56672,0.39619 0.21704,0.27733 0.25321,0.64423 0.0276,0.27561 -0.0861,0.53915 -0.11196,0.26183 -0.31695,0.44098 -0.33072,0.28938 -0.76308,0.28938 -0.43925,0 -0.76481,-0.27044 -0.32384,-0.27044 -0.40824,-0.69763 -0.002,-0.002 -0.003,-0.0362 0,-0.0345 0,-0.0431 0.0431,-0.20671 0.24632,-0.20671 0.0482,0 0.13092,0.0396 0.031,0.0172 0.0672,0.0706 0.0379,0.0517 0.0379,0.0879 0,0.019 0.0241,0.0999 0.0258,0.081 0.0655,0.13781 0.28594,0.42891 0.79237,0.30316 0.14124,-0.0362 0.2756,-0.16192 0.13608,-0.12574 0.17742,-0.26699 0.002,-0.007 0.0155,-0.0534 0.0155,-0.0465 0.0155,-0.0482 z"
           id="path27737" />
        <path
           d="m 134.16825,109.69251 q 0.38585,0 0.63045,0.3204 0.2446,0.32039 0.33934,0.65112 0.0396,0.14469 0.0689,0.30317 0.0879,0.47025 0,1.03008 -0.0861,0.55982 -0.41169,0.92845 -0.26183,0.29455 -0.60634,0.29455 -0.52882,0 -0.79581,-0.55121 -0.26527,-0.55121 -0.26872,-1.21267 -0.002,-0.66146 0.25838,-1.21267 0.26011,-0.55122 0.78548,-0.55122 z m 0.0121,0.48748 q -0.20498,0.0413 -0.32556,0.23427 -0.11886,0.19292 -0.1757,0.43925 -0.0568,0.24632 -0.062,0.49781 -0.005,0.25149 0.0189,0.40825 0.0207,0.14814 0.0982,0.3824 0.0775,0.23254 0.19465,0.40135 0.11885,0.16709 0.27044,0.19293 0.15158,0.0241 0.32211,-0.2446 0.12919,-0.20671 0.19293,-0.52538 0.0637,-0.31867 0.0448,-0.65112 -0.0189,-0.33245 -0.12746,-0.62701 -0.1068,-0.29455 -0.31695,-0.45475 -0.0637,-0.0448 -0.12058,-0.0534 -0.002,0 -0.005,0 -0.002,0 -0.009,0 z"
           id="path27739" />
      </g>
      <g
         aria-label="40"
         id="text964"
         style="font-size:3.52777px;line-height:1.25;font-family:'MS 33558';-inkscape-font-specification:'MS 33558, ';word-spacing:-2.64583px;fill:#00ff00;stroke-width:0.264583">
        <path
           d="m 137.66189,109.41311 q -0.12403,0 -0.19637,-0.0999 -0.0706,-0.0999 -0.0345,-0.21877 l 0.77343,-2.40811 q 0,-0.002 0,-0.005 0.002,-0.003 0.003,-0.007 0.0431,-0.11024 0.14986,-0.14469 0.1068,-0.0345 0.21015,0.0258 0.1602,0.0999 0.0999,0.28078 l -0.67179,2.08944 h 0.84232 v -0.71485 q 0,-0.15503 0.13953,-0.22049 0.13952,-0.0654 0.25838,0.0293 0.0896,0.0723 0.0896,0.1912 v 0.71485 h 0.44614 q 0.11886,0 0.17915,0.0775 0.0603,0.0758 0.0603,0.16709 0,0.0913 -0.0603,0.16708 -0.0603,0.0758 -0.17915,0.0758 h -0.44614 q 0,0.0224 0,0.20499 0,0.18259 0,0.18431 0,0.14986 -0.12747,0.21359 -0.12402,0.0586 -0.24287,-0.007 -0.11714,-0.0655 -0.11541,-0.2067 0,-0.0121 -0.002,-0.18948 0,-0.17742 0,-0.19982 z"
           id="path27742" />
        <path
           d="m 141.48938,106.51752 q 0.38585,0 0.63045,0.32039 0.2446,0.32039 0.33934,0.65112 0.0396,0.1447 0.0689,0.30317 0.0878,0.47026 0,1.03008 -0.0861,0.55983 -0.41169,0.92845 -0.26182,0.29456 -0.60633,0.29456 -0.52882,0 -0.79582,-0.55122 -0.26527,-0.55121 -0.26871,-1.21267 -0.002,-0.66145 0.25838,-1.21267 0.2601,-0.55121 0.78548,-0.55121 z m 0.0121,0.48748 q -0.20499,0.0413 -0.32557,0.23426 -0.11885,0.19293 -0.17569,0.43925 -0.0568,0.24633 -0.062,0.49782 -0.005,0.25149 0.0189,0.40824 0.0207,0.14814 0.0982,0.38241 0.0775,0.23254 0.19464,0.40135 0.11886,0.16709 0.27044,0.19292 0.15159,0.0241 0.32212,-0.2446 0.12919,-0.2067 0.19292,-0.52537 0.0637,-0.31867 0.0448,-0.65113 -0.0189,-0.33245 -0.12747,-0.627 -0.1068,-0.29456 -0.31695,-0.45475 -0.0637,-0.0448 -0.12057,-0.0534 -0.002,0 -0.005,0 -0.002,0 -0.009,0 z"
           id="path27744" />
      </g>
      <g
         aria-label="50"
         id="text968"
         style="font-size:3.52777px;line-height:1.25;font-family:'MS 33558';-inkscape-font-specification:'MS 33558, ';word-spacing:-2.64583px;fill:#00ff00;stroke-width:0.264583">
        <path
           d="m 144.62654,112.73108 q -0.005,-0.005 -0.019,-0.0276 -0.012,-0.0241 -0.0138,-0.031 -0.031,-0.10679 0.0241,-0.20326 0.0224,-0.0396 0.0637,-0.0706 0.0758,-0.0568 0.17743,-0.0379 0.10163,0.0172 0.15503,0.0947 0.25493,0.34107 0.67351,0.27906 0.4203,-0.0637 0.54432,-0.48059 0.0603,-0.20154 -0.0103,-0.42203 -0.0689,-0.22221 -0.25322,-0.33762 -0.19981,-0.12574 -0.39101,-0.12574 -0.19982,0 -0.36863,0.1068 -0.0465,0.031 -0.0879,0.0637 -0.0551,0.0431 -0.11024,0.0517 -0.11024,0.0189 -0.19465,-0.0517 -0.0844,-0.0724 -0.0844,-0.18431 v -1.42455 q 0,-0.0189 0.005,-0.0431 0.005,-0.0258 0.007,-0.0327 0.0534,-0.16192 0.22565,-0.16192 h 1.1231 v 0 q 0.0982,0 0.17053,0.0724 0.11024,0.11197 0.0465,0.25838 -0.062,0.14642 -0.21704,0.14642 h -0.88539 v 0.78203 q 0,0 0.0258,-0.009 0.4513,-0.13953 0.87333,0.0792 0.42202,0.21704 0.57188,0.66662 0.0276,0.0879 0.05,0.2136 0.0431,0.26699 -0.0551,0.53399 -0.0965,0.26527 -0.28421,0.4513 -0.2825,0.2825 -0.69074,0.32384 -0.40825,0.0413 -0.74414,-0.17053 -0.0792,-0.0482 -0.18259,-0.1378 -0.10336,-0.0896 -0.1447,-0.17226 z"
           id="path27747" />
        <path
           d="m 148.28178,109.69251 q 0.38585,0 0.63045,0.3204 0.2446,0.32039 0.33934,0.65112 0.0396,0.14469 0.0689,0.30317 0.0879,0.47025 0,1.03008 -0.0861,0.55982 -0.41168,0.92845 -0.26183,0.29455 -0.60634,0.29455 -0.52882,0 -0.79581,-0.55121 -0.26528,-0.55121 -0.26872,-1.21267 -0.002,-0.66146 0.25838,-1.21267 0.26011,-0.55122 0.78548,-0.55122 z m 0.0121,0.48748 q -0.20498,0.0413 -0.32556,0.23427 -0.11886,0.19292 -0.1757,0.43925 -0.0568,0.24632 -0.062,0.49781 -0.005,0.25149 0.0189,0.40825 0.0207,0.14814 0.0982,0.3824 0.0775,0.23254 0.19465,0.40135 0.11885,0.16709 0.27044,0.19293 0.15158,0.0241 0.32211,-0.2446 0.12919,-0.20671 0.19293,-0.52538 0.0637,-0.31867 0.0448,-0.65112 -0.0189,-0.33245 -0.12746,-0.62701 -0.1068,-0.29455 -0.31695,-0.45475 -0.0637,-0.0448 -0.12058,-0.0534 -0.002,0 -0.005,0 -0.002,0 -0.009,0 z"
           id="path27749" />
      </g>
      <path
         id="rect970-1"
         style="fill:#00ff00;stroke-width:0.150993;stop-color:#000000"
         transform="rotate(45)"
         d="m 183.56827,-23.23098 h 0.79374 v 5.11531 h -0.79374 z" />
      <path
         id="rect970-1-4"
         style="fill:#00ff00;stroke-width:0.150993;stop-color:#000000"
         transform="rotate(-45)"
         d="m 13.787886,174.91891 h 0.793743 v 5.11531 h -0.793743 z" />
    </g>
  </g>
</svg>
