<?xml version="1.0" encoding="UTF-8" standalone="no"?>
<svg
   xmlns:dc="http://purl.org/dc/elements/1.1/"
   xmlns:cc="http://creativecommons.org/ns#"
   xmlns:rdf="http://www.w3.org/1999/02/22-rdf-syntax-ns#"
   xmlns:svg="http://www.w3.org/2000/svg"
   xmlns="http://www.w3.org/2000/svg"
   xmlns:sodipodi="http://sodipodi.sourceforge.net/DTD/sodipodi-0.dtd"
   xmlns:inkscape="http://www.inkscape.org/namespaces/inkscape"
   width="210mm"
   height="297mm"
   viewBox="0 0 210 297"
   version="1.1"
   id="svg1802"
   inkscape:version="1.0.2 (e86c870879, 2021-01-15, custom)"
   sodipodi:docname="HYD Transfer Pump Panel Bottom.svg">
  <defs
     id="defs1796" />
  <sodipodi:namedview
     id="base"
     pagecolor="#ffffff"
     bordercolor="#666666"
     borderopacity="1.0"
     inkscape:pageopacity="0.0"
     inkscape:pageshadow="2"
     inkscape:zoom="0.35"
     inkscape:cx="400"
     inkscape:cy="560"
     inkscape:document-units="mm"
     inkscape:current-layer="layer1"
     inkscape:document-rotation="0"
     showgrid="false"
     inkscape:window-width="1431"
     inkscape:window-height="1208"
     inkscape:window-x="2880"
     inkscape:window-y="135"
     inkscape:window-maximized="0" />
  <metadata
     id="metadata1799">
    <rdf:RDF>
      <cc:Work
         rdf:about="">
        <dc:format>image/svg+xml</dc:format>
        <dc:type
           rdf:resource="http://purl.org/dc/dcmitype/StillImage" />
        <dc:title></dc:title>
      </cc:Work>
    </rdf:RDF>
  </metadata>
  <g
     inkscape:label="Layer 1"
     inkscape:groupmode="layer"
     id="layer1">
    <g
       id="g2587">
      <path
         id="path1196-1"
         style="fill:#ff0000;stroke-width:0.25"
         d="m 52.841134,111.90558 a 3.175,3.175 0 0 1 -3.175,3.175 3.175,3.175 0 0 1 -3.175,-3.175 3.175,3.175 0 0 1 3.175,-3.175 3.175,3.175 0 0 1 3.175,3.175 z" />
      <path
         id="path1196-0-7"
         style="fill:#ff0000;stroke-width:0.25"
         d="m 52.841134,159.53056 a 3.175,3.175 0 0 1 -3.175,3.175 3.175,3.175 0 0 1 -3.175,-3.175 3.175,3.175 0 0 1 3.175,-3.175 3.175,3.175 0 0 1 3.175,3.175 z" />
      <path
         id="path1196-2-8"
         style="fill:#ff0000;stroke-width:0.25"
         d="m 163.17234,111.90558 a 3.175,3.175 0 0 1 -3.175,3.175 3.175,3.175 0 0 1 -3.17499,-3.175 3.175,3.175 0 0 1 3.17499,-3.175 3.175,3.175 0 0 1 3.175,3.175 z" />
      <path
         id="path1196-5-8"
         style="fill:#ff0000;stroke-width:0.25"
         d="m 163.17234,159.53056 a 3.175,3.175 0 0 1 -3.175,3.175 3.175,3.175 0 0 1 -3.17499,-3.175 3.175,3.175 0 0 1 3.17499,-3.175 3.175,3.175 0 0 1 3.175,3.175 z" />
      <rect
         style="fill:none;stroke:#000000;stroke-width:0.249328;stroke-miterlimit:4;stroke-dasharray:none;stroke-opacity:1"
         id="rect892-8-1"
         width="171.20067"
         height="63.250675"
         x="20.233006"
         y="105.20204" />
      <path
         id="path1001-9"
         style="fill:#ff0000;stroke-width:0.333333"
         d="m 33.408343,117.70238 a 3.175,3.175 0 0 1 -3.175,3.175 3.175,3.175 0 0 1 -3.175,-3.175 3.175,3.175 0 0 1 3.175,-3.175 3.175,3.175 0 0 1 3.175,3.175 z" />
      <path
         id="path1001-6-1"
         style="fill:#ff0000;stroke-width:0.333333"
         d="m 33.408343,156.20238 a 3.175,3.175 0 0 1 -3.175,3.175 3.175,3.175 0 0 1 -3.175,-3.175 3.175,3.175 0 0 1 3.175,-3.175 3.175,3.175 0 0 1 3.175,3.175 z" />
      <path
         id="path1001-6-8-4"
         style="fill:#ff0000;stroke-width:0.333333"
         d="m 184.85832,156.20238 a 3.175,3.175 0 0 1 -3.175,3.175 3.175,3.175 0 0 1 -3.175,-3.175 3.175,3.175 0 0 1 3.175,-3.175 3.175,3.175 0 0 1 3.175,3.175 z" />
      <path
         id="path1001-6-0-5"
         style="fill:#ff0000;stroke-width:0.333333"
         d="m 184.85832,117.70238 a 3.175,3.175 0 0 1 -3.175,3.175 3.175,3.175 0 0 1 -3.175,-3.175 3.175,3.175 0 0 1 3.175,-3.175 3.175,3.175 0 0 1 3.175,3.175 z" />
      <path
         id="path997-6"
         style="fill:#ff0000;stroke-width:0.293031"
         d="m 105.95834,143.03777 a 6.3499999,6.3499999 0 0 1 -6.350003,6.35 6.3499999,6.3499999 0 0 1 -6.35,-6.35 6.3499999,6.3499999 0 0 1 6.35,-6.35 6.3499999,6.3499999 0 0 1 6.350003,6.35 z" />
    </g>
  </g>
</svg>
