<?xml version="1.0" encoding="UTF-8" standalone="no"?>
<svg
   xmlns:dc="http://purl.org/dc/elements/1.1/"
   xmlns:cc="http://creativecommons.org/ns#"
   xmlns:rdf="http://www.w3.org/1999/02/22-rdf-syntax-ns#"
   xmlns:svg="http://www.w3.org/2000/svg"
   xmlns="http://www.w3.org/2000/svg"
   xmlns:sodipodi="http://sodipodi.sourceforge.net/DTD/sodipodi-0.dtd"
   xmlns:inkscape="http://www.inkscape.org/namespaces/inkscape"
   width="210mm"
   height="297mm"
   viewBox="0 0 210 297"
   version="1.1"
   id="svg1029"
   inkscape:version="1.0.2 (e86c870879, 2021-01-15, custom)"
   sodipodi:docname="HYD Transfer Pump Panel Top.svg">
  <defs
     id="defs1023" />
  <sodipodi:namedview
     id="base"
     pagecolor="#ffffff"
     bordercolor="#666666"
     borderopacity="1.0"
     inkscape:pageopacity="0.0"
     inkscape:pageshadow="2"
     inkscape:zoom="0.35"
     inkscape:cx="400"
     inkscape:cy="560"
     inkscape:document-units="mm"
     inkscape:current-layer="layer1"
     inkscape:document-rotation="0"
     showgrid="false"
     inkscape:window-width="1431"
     inkscape:window-height="1208"
     inkscape:window-x="2848"
     inkscape:window-y="135"
     inkscape:window-maximized="0" />
  <metadata
     id="metadata1026">
    <rdf:RDF>
      <cc:Work
         rdf:about="">
        <dc:format>image/svg+xml</dc:format>
        <dc:type
           rdf:resource="http://purl.org/dc/dcmitype/StillImage" />
        <dc:title></dc:title>
      </cc:Work>
    </rdf:RDF>
  </metadata>
  <g
     inkscape:label="Layer 1"
     inkscape:groupmode="layer"
     id="layer1">
    <g
       id="g1778">
      <path
         id="rect5154"
         style="fill:none;stroke:#000000;stroke-width:0.25;stroke-miterlimit:4;stroke-dasharray:none"
         d="m 30.281024,100.66259 v 9.93324 2.44585 2.44533 c 0,5.57011 -4.459906,10.05468 -9.999905,10.05468 h -9.879501 v 13.49995 h 9.878981 c 5.540003,0 9.999908,4.48457 9.999908,10.05468 v 2.44533 2.44585 9.93324 H 161.7314 v -9.93324 -2.44585 -2.44533 c 0,-5.57011 4.45991,-10.05468 9.99991,-10.05468 h 9.87898 v -13.49995 h -9.87898 c -5.54,0 -9.99991,-4.48457 -9.99991,-10.05468 v -2.44533 -2.44585 -9.93324 z" />
      <g
         aria-label="hyd"
         id="text896"
         style="font-size:4.23333px;line-height:1.25;font-family:'MS 33558';-inkscape-font-specification:'MS 33558, ';fill:#00ff00;stroke-width:0.264583">
        <path
           d="m 49.261845,108.32277 v -3.04547 q 0.03617,-0.24805 0.251492,-0.24288 0.215318,0.003 0.234266,0.24288 v 1.1386 h 1.386652 v -1.1386 q 0.03617,-0.24288 0.24288,-0.24288 0.208428,-0.002 0.246324,0.24288 v 3.04547 q -0.0379,0.24288 -0.246324,0.24115 -0.206706,0 -0.24288,-0.24115 v -1.41766 h -1.386652 v 1.41766 q -0.01895,0.23771 -0.234266,0.24115 -0.215319,0.003 -0.251492,-0.24115 z"
           style="font-size:3.52778px;fill:#00ff00;stroke-width:0.264583"
           id="path1673" />
        <path
           d="m 54.155606,105.15844 q 0.134359,-0.20153 0.323839,-0.0965 0.191203,0.10508 0.09819,0.32901 l -0.990465,1.76906 v 1.15238 q -0.0155,0.2446 -0.241157,0.2446 -0.223931,0 -0.239434,-0.2446 v -1.15238 l -0.988743,-1.76906 q -0.0913,-0.22221 0.09302,-0.32556 0.184313,-0.10508 0.329007,0.093 l 0.807875,1.4435 z"
           style="font-size:3.52778px;fill:#00ff00;stroke-width:0.264583"
           id="path1675" />
        <path
           d="m 55.271817,105.0327 h 0.811321 q 0.604615,0 0.906061,0.55121 0.301446,0.55122 0.301446,1.21268 0,0.66146 -0.303169,1.21267 -0.301446,0.55122 -0.904338,0.55122 h -0.811321 0.0034 -0.0034 q -0.05684,-0.009 -0.06201,-0.0103 -0.179145,-0.0431 -0.177423,-0.23426 h -0.0017 l 0.0017,-3.04203 q -0.0017,-0.005 -0.0017,-0.0138 0.0052,-0.0947 0.07407,-0.16019 0.07062,-0.0672 0.16881,-0.0672 z m 0.811321,3.04202 q 0.0034,0 0.0069,0 0.0034,0 0.0086,0 0.0034,0 0.0052,0 0.0034,-0.002 0.0086,-0.002 0.0034,0 0.0069,0 0.0052,-0.002 0.01033,-0.002 0.0034,0 0.0069,0 0.0034,-0.002 0.0086,-0.002 0.0034,0 0.0069,0 0.0034,-0.002 0.0086,-0.002 0.0069,-0.003 0.01378,-0.003 0.0034,0 0.0069,-0.002 0.0034,-0.003 0.0086,-0.005 0.0034,0 0.0069,0 0.0052,-0.002 0.01033,-0.003 0.0034,0 0.0069,-0.002 0.0034,-0.002 0.0086,-0.003 0.01034,-0.003 0.0155,-0.007 0.03101,-0.0103 0.01723,-0.007 0.0034,0 0.0069,-0.002 0.0034,-0.003 0.0086,-0.005 0.0155,-0.0103 0.01378,-0.009 0.01723,-0.009 0.01723,-0.009 0.0034,-0.002 0.0069,-0.003 0.0034,-0.003 0.0086,-0.007 0.0155,-0.0103 0.0155,-0.0103 0.0034,-0.002 0.0069,-0.003 0.0052,-0.003 0.01033,-0.007 0.0034,-0.002 0.0069,-0.005 0.0034,-0.003 0.0086,-0.007 0.0034,-0.002 0.0069,-0.003 0.0034,-0.003 0.0086,-0.007 0.0034,-0.003 0.01723,-0.0138 0.01378,-0.0138 0.01378,-0.0138 0.0034,-0.003 0.0069,-0.007 0.0034,-0.003 0.0086,-0.009 0.0034,-0.003 0.0069,-0.007 0.0034,-0.003 0.0086,-0.009 0.0052,-0.003 0.0155,-0.0138 0.0034,-0.003 0.0069,-0.007 0.0034,-0.003 0.0086,-0.009 0.0034,-0.003 0.0069,-0.007 0.0034,-0.005 0.0086,-0.0103 0.02067,-0.0276 0.01378,-0.0172 0.01206,-0.0121 0.0155,-0.019 0.0155,-0.0207 0.01378,-0.019 0.0034,-0.005 0.0069,-0.009 0.0034,-0.005 0.0086,-0.0103 0.0034,-0.005 0.0052,-0.0103 0.0034,-0.005 0.0086,-0.0103 0.0017,-0.005 0.0052,-0.0103 0.0052,-0.007 0.0086,-0.0121 0.01034,-0.0138 0.01378,-0.0207 0.0034,-0.005 0.0052,-0.0103 0.0034,-0.007 0.0086,-0.0121 0.0034,-0.005 0.0052,-0.0103 0.0034,-0.007 0.0086,-0.0121 0.0034,-0.009 0.01033,-0.0224 0.0034,-0.005 0.0052,-0.0121 0.0034,-0.007 0.0086,-0.0138 0.0034,-0.005 0.0052,-0.0103 0.0034,-0.007 0.0086,-0.0138 0.0017,-0.005 0.0034,-0.0121 0.0034,-0.007 0.0069,-0.0138 0.0052,-0.009 0.01206,-0.0258 0.01723,-0.0431 0.01206,-0.0276 0.0017,-0.005 0.0034,-0.0121 0.0034,-0.009 0.0069,-0.0155 0.0017,-0.007 0.0034,-0.0138 0.0034,-0.007 0.0069,-0.0155 0.0052,-0.0155 0.0086,-0.0276 0.0017,-0.007 0.0034,-0.0138 0.0034,-0.007 0.0069,-0.0155 -0.0069,0.0172 0.0086,-0.0293 0.0034,-0.009 0.01033,-0.0293 0,-0.007 0.0017,-0.0138 0.0034,-0.009 0.0052,-0.0172 0.0017,-0.007 0.0034,-0.0138 0.0017,-0.009 0.0052,-0.0172 0,-0.005 0.0017,-0.0121 0.0034,-0.009 0.0052,-0.0172 0.0017,-0.0121 0.0052,-0.0327 0,-0.007 0.0017,-0.0138 0.0034,-0.009 0.0052,-0.0172 0,-0.007 0.0017,-0.0138 0.0017,-0.009 0.0034,-0.0172 0.0017,-0.0121 0.0052,-0.0327 0,-0.007 0.0017,-0.0155 0.0034,-0.009 0.0052,-0.0172 0,-0.0121 0.0034,-0.0327 0,-0.007 0,-0.0138 0.0017,-0.009 0.0034,-0.019 0.0034,-0.0207 0.0034,-0.0327 0.0017,-0.012 0.0017,-0.0327 0.0017,-0.0121 0.0017,-0.0345 0.0017,-0.0121 0.0017,-0.0327 0,-0.009 0,-0.0155 0.0017,-0.009 0.0034,-0.0189 0,-0.007 0,-0.0138 0.0017,-0.009 0.0017,-0.0189 0,-0.007 0,-0.0155 0,-0.009 0,-0.0172 0,-0.009 0,-0.0155 0,-0.009 0,-0.0172 0,-0.009 -0.0017,-0.0155 0,-0.009 0,-0.019 0,-0.007 0,-0.0155 0,-0.009 0,-0.0172 0,-0.0103 -0.0034,-0.0345 0,-0.0207 -0.0017,-0.031 0,-0.0121 -0.0034,-0.0362 0,-0.0207 -0.0017,-0.031 0,-0.0121 -0.0034,-0.0327 -0.0017,-0.007 -0.0034,-0.0155 0,-0.009 0,-0.0172 -0.0034,-0.0207 -0.0069,-0.0327 -0.0017,-0.007 -0.0034,-0.0138 -0.0017,-0.009 -0.0017,-0.0172 -0.0017,-0.0121 -0.0052,-0.0327 -0.0017,-0.0121 -0.0052,-0.0327 -0.0069,-0.0207 -0.0086,-0.031 -0.0034,-0.0207 -0.0052,-0.0293 -0.0034,-0.007 -0.0052,-0.0138 -0.0017,-0.009 -0.0034,-0.0172 -0.0017,-0.007 -0.0052,-0.0138 -0.0034,-0.009 -0.0034,-0.0172 -0.0155,-0.0465 -0.0086,-0.0293 -0.0034,-0.0121 -0.0086,-0.0293 -0.0034,-0.005 -0.0069,-0.0121 -0.0017,-0.009 -0.0034,-0.0155 -0.0017,-0.005 -0.01033,-0.0293 -0.0069,-0.0172 -0.01034,-0.0276 -0.0034,-0.005 -0.0069,-0.012 -0.0017,-0.009 -0.0034,-0.0155 -0.0034,-0.005 -0.0069,-0.0121 -0.0034,-0.007 -0.0052,-0.0138 -0.0069,-0.0172 -0.01206,-0.0258 -0.0069,-0.0172 -0.01034,-0.0241 -0.0069,-0.0172 -0.01206,-0.0258 -0.0034,-0.005 -0.0069,-0.0103 -0.0034,-0.007 -0.0052,-0.0121 -0.01034,-0.0172 -0.01378,-0.0241 -0.0155,-0.0241 -0.01378,-0.0224 -0.0052,-0.005 -0.0086,-0.0103 -0.0017,-0.007 -0.0052,-0.0121 -0.0034,-0.007 -0.01378,-0.0207 -0.0034,-0.005 -0.0069,-0.0103 -0.0034,-0.005 -0.0052,-0.0103 -0.0086,-0.0155 -0.02928,-0.0396 -0.0034,-0.003 -0.02756,-0.0379 -0.02067,-0.0241 -0.03101,-0.0345 -0.01033,-0.0121 -0.03101,-0.0327 -0.01378,-0.0155 -0.02928,-0.0293 -0.01206,-0.009 -0.03273,-0.0258 -0.01722,-0.0138 -0.03273,-0.0258 -0.03962,-0.0258 -0.03273,-0.0224 -0.03445,-0.0207 -0.03101,-0.019 0,0 -0.03101,-0.0155 -0.0069,-0.003 -0.03273,-0.0121 -0.02239,-0.009 -0.03273,-0.0121 -0.0086,-0.002 -0.0155,-0.003 -0.0069,-0.003 -0.01378,-0.007 -0.03101,-0.005 -0.03101,-0.005 -0.01033,-0.002 -0.03101,-0.002 -0.0052,0 -0.0086,0 -0.0034,0 -0.0069,0 h -0.568441 v 2.55626 0 z"
           style="font-size:3.52778px;fill:#00ff00;stroke-width:0.264583"
           id="path1677" />
      </g>
      <g
         aria-label="transfer"
         id="text908"
         style="font-size:4.23333px;line-height:1.25;font-family:'MS 33558';-inkscape-font-specification:'MS 33558, ';fill:#00ff00;stroke-width:0.264583">
        <path
           d="m 50.135177,114.40329 v -2.80086 h -0.632176 q -0.241156,-0.019 -0.241156,-0.24116 0.0017,-0.22393 0.241156,-0.2446 h 1.748388 q 0.237711,0.019 0.237711,0.2446 0.0017,0.22393 -0.237711,0.24116 h -0.630453 v 2.80086 q -0.03962,0.2446 -0.254938,0.24116 -0.213596,-0.003 -0.230821,-0.24116 z"
           style="font-size:3.52778px;fill:#00ff00"
           id="path1680" />
        <path
           d="m 54.179722,114.27065 q 0.110243,0.19465 -0.06201,0.32729 -0.08268,0.0586 -0.191203,0.0396 -0.106798,-0.0189 -0.156752,-0.1068 l -0.849216,-1.34187 h -0.430638 v 1.21268 q 0,0.14986 -0.136081,0.21704 -0.136081,0.0655 -0.254937,-0.0258 -0.09474,-0.0706 -0.09474,-0.1912 v -3.04375 q 0,-0.0999 0.0689,-0.17053 0.07062,-0.0706 0.172255,-0.0706 h 1.069703 q 0.385851,0 0.670072,0.24632 0.28422,0.2446 0.353122,0.62184 0.07235,0.4048 -0.172255,0.75792 -0.242879,0.3514 -0.645955,0.4272 l -0.03273,0.005 z m -0.86472,-1.56579 q 0.1757,0 0.323839,-0.1068 0.149862,-0.1068 0.201539,-0.27905 0.08096,-0.26528 -0.07407,-0.47887 -0.155029,-0.21532 -0.427192,-0.23771 h -0.849217 v 1.10243 z"
           style="font-size:3.52778px;fill:#00ff00"
           id="path1682" />
        <path
           d="m 56.677418,113.51273 -0.523655,-1.44694 -0.5271,1.44694 z m -0.523655,-1.44694 0.523655,1.44694 z m -1.329808,2.24621 q 0.275608,-0.75965 0.551216,-1.51757 0.27733,-0.75964 0.55466,-1.51929 0.05685,-0.15675 0.225654,-0.15847 0.16881,-0.002 0.227377,0.15847 l 1.104154,3.04547 q 0.05168,0.24288 -0.14814,0.3135 -0.199815,0.0706 -0.308336,-0.14469 l -0.177422,-0.49265 H 55.44924 l -0.172255,0.48059 q -0.110243,0.21704 -0.313503,0.14297 -0.203261,-0.0758 -0.139527,-0.30833 z"
           style="font-size:3.52778px;fill:#00ff00"
           id="path1684" />
        <path
           d="m 60.205198,114.40674 q 0,0.18086 -0.1757,0.23082 -0.173978,0.0482 -0.27044,-0.10336 l -1.446941,-2.32027 v 2.19281 q -0.0379,0.24115 -0.244602,0.24115 -0.204984,0 -0.241157,-0.24115 v -3.04203 q 0.02584,-0.17914 0.18259,-0.23598 0.158475,-0.0569 0.26355,0.10679 l 1.446941,2.32372 v -2.19453 q 0.03273,-0.24632 0.24977,-0.24288 0.218763,0.002 0.235989,0.24288 z"
           style="font-size:3.52778px;fill:#00ff00"
           id="path1686" />
        <path
           d="m 62.432453,112.76687 0.02756,0.0121 0.03101,0.0155 0.02756,0.0155 q 0.01206,0.009 0.02584,0.0172 0.0155,0.007 0.02928,0.0155 0.341065,0.22393 0.422024,0.62012 0.03101,0.15503 0.01378,0.31867 -0.02756,0.23427 -0.165365,0.43408 -0.136081,0.1981 -0.342787,0.30662 -0.222209,0.11713 -0.459921,0.11713 -0.399631,0 -0.763089,-0.10163 -0.363458,-0.10335 -0.518487,-0.54949 -0.02067,-0.0568 -0.03101,-0.11714 -0.01034,-0.0603 -0.02412,-0.12058 -0.02584,-0.12402 0.06029,-0.21876 0.08785,-0.0947 0.217041,-0.0724 0.136081,0.0276 0.18948,0.16881 l 0.0052,0.0155 q 0.08268,0.37379 0.287665,0.44614 0.206706,0.0723 0.573609,0.0655 0.33762,0 0.463366,-0.31695 0.05512,-0.14124 0.01723,-0.29283 -0.0379,-0.15331 -0.149861,-0.25494 -0.04995,-0.0431 -0.130914,-0.081 l -0.79754,-0.34967 -0.02584,-0.0138 q -0.391019,-0.20671 -0.485759,-0.58739 -0.115411,-0.44098 0.160197,-0.79065 0.27733,-0.3514 0.726915,-0.3514 l 0.189481,0.005 q 0.09302,0.0172 0.179145,0.0345 0.08613,0.0155 0.173977,0.0551 0.217041,0.10163 0.332452,0.27905 0.115411,0.17742 0.208429,0.38413 0.0086,0.019 0.0155,0.0448 0.01895,0.0844 -0.01723,0.1533 -0.02067,0.0431 -0.04306,0.0655 -0.02239,0.0224 -0.03617,0.031 -0.08957,0.0637 -0.196371,0.0379 -0.106798,-0.0241 -0.163642,-0.1378 -0.04479,-0.0999 -0.09646,-0.20326 -0.04995,-0.10508 -0.141249,-0.17398 -0.0379,-0.0276 -0.07407,-0.0396 -0.03445,-0.0138 -0.07751,-0.0293 l -0.111966,-0.0189 -0.158474,-0.005 q -0.230822,0.003 -0.353123,0.19982 -0.08268,0.12574 -0.06201,0.28077 0.02412,0.19121 0.179145,0.29628 0.0069,0.005 0.0155,0.0121 0.0086,0.005 0.01895,0.0103 l 0.01895,0.009 0.02067,0.009 z"
           style="font-size:3.52778px;fill:#00ff00"
           id="path1688" />
        <path
           d="m 63.441867,114.39985 v -3.03858 q 0.03101,-0.22738 0.244602,-0.2446 h 1.667427 q 0.239434,0.019 0.239434,0.2446 0,0.22393 -0.242879,0.23943 h -1.424548 v 0.94224 h 1.111044 q 0.237712,0.0172 0.241157,0.23254 0.0034,0.21532 -0.241157,0.25149 h -1.111044 v 1.37288 q -0.01722,0.23771 -0.234267,0.24115 -0.215318,0.003 -0.249769,-0.24115 z"
           style="font-size:3.52778px;fill:#00ff00"
           id="path1690" />
        <path
           d="M 67.987673,111.59726 H 66.55968 v 0.94223 h 1.088651 q 0.244602,0.0362 0.242879,0.24633 0,0.20843 -0.242879,0.24288 H 66.55968 v 1.13171 h 1.427993 q 0.242879,0.0362 0.242879,0.24288 0,0.20671 -0.242879,0.24116 h -1.667428 q -0.215318,-0.0276 -0.244601,-0.2446 v -3.04203 q 0.03273,-0.22737 0.244601,-0.24115 h 1.667428 q 0.242879,0.019 0.241157,0.24288 0,0.22221 -0.241157,0.23771 z"
           style="font-size:3.52778px;fill:#00ff00"
           id="path1692" />
        <path
           d="m 70.885,114.27065 q 0.110243,0.19465 -0.06201,0.32729 -0.08268,0.0586 -0.191203,0.0396 -0.106798,-0.0189 -0.156752,-0.1068 l -0.849217,-1.34187 H 69.19518 v 1.21268 q 0,0.14986 -0.136081,0.21704 -0.136082,0.0655 -0.254938,-0.0258 -0.09474,-0.0706 -0.09474,-0.1912 v -3.04375 q 0,-0.0999 0.0689,-0.17053 0.07062,-0.0706 0.172255,-0.0706 h 1.069703 q 0.385851,0 0.670071,0.24632 0.284221,0.2446 0.353123,0.62184 0.07235,0.4048 -0.172255,0.75792 -0.242879,0.3514 -0.645956,0.4272 l -0.03273,0.005 z m -0.864719,-1.56579 q 0.1757,0 0.323839,-0.1068 0.149862,-0.1068 0.201538,-0.27905 0.08096,-0.26528 -0.07407,-0.47887 -0.15503,-0.21532 -0.427192,-0.23771 H 69.19518 v 1.10243 z"
           style="font-size:3.52778px;fill:#00ff00"
           id="path1694" />
      </g>
      <g
         aria-label="pump"
         id="text912"
         style="font-size:3.52778px;line-height:1.25;font-family:'MS 33558';-inkscape-font-specification:'MS 33558, ';fill:#00ff00;stroke-width:0.264583">
        <path
           d="m 50.586485,116.67436 h 0.03273 q 0.220486,0.0155 0.406522,0.0999 0.356567,0.16709 0.504706,0.54949 0.14814,0.38241 -0.0034,0.74587 -0.122301,0.28766 -0.361735,0.4513 -0.239434,0.16192 -0.546048,0.18087 l -0.03273,0.002 h -0.837159 v 1.25574 q -0.03101,0.24288 -0.244602,0.24288 -0.213596,0 -0.242879,-0.24288 v -3.04374 q 0.02584,-0.2136 0.227376,-0.24116 h 0.0155 z m 0,0.48576 h -0.837159 v 1.05592 h 0.837159 q 0.19637,0 0.346232,-0.13091 0.151584,-0.13092 0.177423,-0.32729 0.03101,-0.23771 -0.127469,-0.41685 -0.158475,-0.18087 -0.396186,-0.18087 z"
           style="font-size:3.52778px;fill:#00ff00;stroke-width:0.264583"
           id="path1697" />
        <path
           d="m 54.413988,119.03942 v 0.0344 q -0.0052,0.0861 -0.0069,0.10335 -0.07235,0.5271 -0.43236,0.7786 -0.360012,0.24977 -0.768257,0.23426 -0.408244,-0.0172 -0.747586,-0.298 -0.337619,-0.28077 -0.366903,-0.81821 v -0.0344 -2.1239 q 0,-0.0517 0.01895,-0.093 0.08268,-0.18087 0.273886,-0.14297 0.192925,0.0379 0.192925,0.23599 v 2.1239 q 0.02584,0.39619 0.347955,0.59256 0.323839,0.19637 0.680407,-0.0172 0.160197,-0.0947 0.234266,-0.2446 0.07579,-0.14986 0.08957,-0.33073 v -2.1239 q 0,-0.031 0.0034,-0.0465 0.03962,-0.21187 0.260105,-0.1912 0.220486,0.0207 0.220486,0.23771 z"
           style="font-size:3.52778px;fill:#00ff00;stroke-width:0.264583"
           id="path1699" />
        <path
           d="m 57.402611,119.96098 q -0.0379,0.24116 -0.244602,0.24116 -0.204983,-0.002 -0.241157,-0.24116 v -2.15146 l -0.590834,1.01114 q -0.09474,0.11368 -0.211874,0.11885 -0.11541,0.005 -0.206706,-0.11885 l -0.587389,-1.00597 0.0017,2.14629 q -0.02756,0.23944 -0.24977,0.23944 -0.220486,-0.002 -0.237711,-0.23944 v -3.04202 q 0.01378,-0.19809 0.173977,-0.23599 0.160197,-0.0396 0.279053,0.10852 l 0.828546,1.42455 0.837159,-1.42455 q 0.118855,-0.14814 0.275607,-0.10852 0.158475,0.0396 0.173978,0.23599 z"
           style="font-size:3.52778px;fill:#00ff00;stroke-width:0.264583"
           id="path1701" />
        <path
           d="m 59.140663,116.67436 h 0.03273 q 0.220487,0.0155 0.406522,0.0999 0.356568,0.16709 0.504707,0.54949 0.148139,0.38241 -0.0034,0.74587 -0.122301,0.28766 -0.361736,0.4513 -0.239434,0.16192 -0.546048,0.18087 l -0.03273,0.002 h -0.837159 v 1.25574 q -0.03101,0.24288 -0.244602,0.24288 -0.213596,0 -0.242879,-0.24288 v -3.04374 q 0.02584,-0.2136 0.227376,-0.24116 h 0.0155 z m 0,0.48576 h -0.837159 v 1.05592 h 0.837159 q 0.196371,0 0.346232,-0.13091 0.151585,-0.13092 0.177423,-0.32729 0.03101,-0.23771 -0.127469,-0.41685 -0.158474,-0.18087 -0.396186,-0.18087 z"
           style="font-size:3.52778px;fill:#00ff00;stroke-width:0.264583"
           id="path1703" />
      </g>
      <g
         aria-label="shutoff"
         id="text926"
         style="font-size:9.87777px;line-height:1.25;font-family:'MS 33558';-inkscape-font-specification:'MS 33558, ';fill:#00ff00;stroke-width:0.264583">
        <path
           d="m 56.652882,132.08292 0.02756,0.012 0.03101,0.0155 0.02756,0.0155 q 0.01206,0.009 0.02584,0.0172 0.0155,0.007 0.02928,0.0155 0.341065,0.22393 0.422025,0.62012 0.03101,0.15503 0.01378,0.31867 -0.02756,0.23426 -0.165365,0.43408 -0.136081,0.19809 -0.342787,0.30661 -0.222209,0.11714 -0.45992,0.11714 -0.399632,0 -0.763089,-0.10163 -0.363458,-0.10336 -0.518488,-0.5495 -0.02067,-0.0568 -0.03101,-0.11713 -0.01033,-0.0603 -0.02412,-0.12058 -0.02584,-0.12402 0.06029,-0.21876 0.08785,-0.0947 0.217041,-0.0724 0.136082,0.0276 0.189481,0.16881 l 0.0052,0.0155 q 0.08268,0.3738 0.287666,0.44614 0.206706,0.0724 0.573609,0.0655 0.337619,0 0.463365,-0.31695 0.05512,-0.14125 0.01723,-0.29283 -0.0379,-0.15331 -0.149862,-0.25494 -0.04995,-0.0431 -0.130914,-0.081 l -0.79754,-0.34968 -0.02584,-0.0138 q -0.391019,-0.2067 -0.485759,-0.58739 -0.115411,-0.44097 0.160197,-0.79065 0.277331,-0.3514 0.726916,-0.3514 l 0.18948,0.005 q 0.09302,0.0172 0.179145,0.0344 0.08613,0.0155 0.173978,0.0551 0.217041,0.10163 0.332452,0.27905 0.11541,0.17742 0.208428,0.38413 0.0086,0.0189 0.0155,0.0448 0.01895,0.0844 -0.01723,0.15331 -0.02067,0.0431 -0.04306,0.0655 -0.02239,0.0224 -0.03617,0.031 -0.08957,0.0637 -0.19637,0.0379 -0.106798,-0.0241 -0.163642,-0.13781 -0.04479,-0.0999 -0.09646,-0.20326 -0.04995,-0.10507 -0.141249,-0.17397 -0.0379,-0.0276 -0.07407,-0.0396 -0.03445,-0.0138 -0.07751,-0.0293 l -0.111966,-0.0189 -0.158475,-0.005 q -0.230821,0.003 -0.353122,0.19981 -0.08268,0.12575 -0.06201,0.28078 0.02412,0.1912 0.179145,0.29628 0.0069,0.005 0.0155,0.0121 0.0086,0.005 0.01895,0.0103 l 0.01895,0.009 0.02067,0.009 z"
           style="font-size:3.52778px;fill:#00ff00;stroke-width:0.264583"
           id="path1706" />
        <path
           d="m 57.662296,133.72278 v -3.04546 q 0.03617,-0.24805 0.251492,-0.24288 0.215319,0.003 0.234267,0.24288 v 1.1386 h 1.386652 v -1.1386 q 0.03617,-0.24288 0.242879,-0.24288 0.208428,-0.002 0.246325,0.24288 v 3.04546 q -0.0379,0.24288 -0.246325,0.24116 -0.206706,0 -0.242879,-0.24116 v -1.41765 h -1.386652 v 1.41765 q -0.01895,0.23771 -0.234267,0.24116 -0.215318,0.003 -0.251492,-0.24116 z"
           style="font-size:3.52778px;fill:#00ff00;stroke-width:0.264583"
           id="path1708" />
        <path
           d="m 62.81444,132.79777 v 0.0345 q -0.0052,0.0861 -0.0069,0.10335 -0.07235,0.5271 -0.43236,0.77859 -0.360013,0.24977 -0.768257,0.23427 -0.408244,-0.0172 -0.747586,-0.298 -0.33762,-0.28078 -0.366903,-0.81821 v -0.0345 -2.1239 q 0,-0.0517 0.01895,-0.093 0.08268,-0.18086 0.273885,-0.14297 0.192926,0.0379 0.192926,0.23599 v 2.1239 q 0.02584,0.39619 0.347955,0.59256 0.323839,0.19637 0.680406,-0.0172 0.160198,-0.0947 0.234267,-0.24461 0.07579,-0.14986 0.08957,-0.33073 v -2.1239 q 0,-0.031 0.0034,-0.0465 0.03962,-0.21187 0.260105,-0.1912 0.220486,0.0207 0.220486,0.23771 z"
           style="font-size:3.52778px;fill:#00ff00;stroke-width:0.264583"
           id="path1710" />
        <path
           d="m 64.108073,133.71934 v -2.80087 h -0.632175 q -0.241157,-0.0189 -0.241157,-0.24115 0.0017,-0.22393 0.241157,-0.24461 h 1.748387 q 0.237712,0.019 0.237712,0.24461 0.0017,0.22393 -0.237712,0.24115 h -0.630453 v 2.80087 q -0.03962,0.2446 -0.254937,0.24115 -0.213596,-0.003 -0.230822,-0.24115 z"
           style="font-size:3.52778px;fill:#00ff00;stroke-width:0.264583"
           id="path1712" />
        <path
           d="m 68.268029,131.4473 q 0.158475,0.47714 0.118856,0.99046 -0.0379,0.51332 -0.280775,0.93707 -0.153307,0.26355 -0.41858,0.44786 -0.265272,0.18431 -0.585666,0.12919 -0.521933,-0.0913 -0.799263,-0.54432 -0.27733,-0.45303 -0.318671,-1.00769 -0.03962,-0.55639 0.149861,-1.08349 0.191203,-0.5271 0.60806,-0.76653 0.203261,-0.11714 0.42547,-0.11714 0.423747,0 0.692464,0.3204 0.268718,0.31867 0.408244,0.69419 z m -1.086928,-0.52538 q -0.316949,0 -0.480591,0.34106 -0.16192,0.34107 -0.204983,0.58223 -0.03273,0.17569 -0.02412,0.42546 0.0086,0.24977 0.07235,0.49438 0.06373,0.24288 0.191203,0.43925 0.127468,0.19464 0.334174,0.25838 0.241157,0.0758 0.415135,-0.0947 0.1757,-0.17226 0.265272,-0.36518 0.09129,-0.1981 0.124024,-0.52021 0.03445,-0.32212 -0.0155,-0.64251 -0.04823,-0.32212 -0.191203,-0.57878 -0.142972,-0.25838 -0.406522,-0.32901 -0.03445,-0.0103 -0.07924,-0.0103 z"
           style="font-size:3.52778px;fill:#00ff00;stroke-width:0.264583"
           id="path1714" />
        <path
           d="m 68.850251,133.71589 v -3.03857 q 0.03101,-0.22738 0.244602,-0.24461 h 1.667427 q 0.239435,0.019 0.239435,0.24461 0,0.22393 -0.24288,0.23943 h -1.424548 v 0.94224 h 1.111044 q 0.237712,0.0172 0.241157,0.23254 0.0034,0.21532 -0.241157,0.25149 h -1.111044 v 1.37287 q -0.01722,0.23771 -0.234266,0.24116 -0.215319,0.003 -0.24977,-0.24116 z"
           style="font-size:3.52778px;fill:#00ff00;stroke-width:0.264583"
           id="path1716" />
        <path
           d="m 71.484028,133.71589 v -3.03857 q 0.03101,-0.22738 0.244602,-0.24461 h 1.667427 q 0.239434,0.019 0.239434,0.24461 0,0.22393 -0.242879,0.23943 h -1.424548 v 0.94224 h 1.111044 q 0.237712,0.0172 0.241157,0.23254 0.0034,0.21532 -0.241157,0.25149 h -1.111044 v 1.37287 q -0.01722,0.23771 -0.234267,0.24116 -0.215318,0.003 -0.249769,-0.24116 z"
           style="font-size:3.52778px;fill:#00ff00;stroke-width:0.264583"
           id="path1718" />
      </g>
      <g
         aria-label="normal"
         id="text926-3"
         style="font-size:9.87777px;line-height:1.25;font-family:'MS 33558';-inkscape-font-specification:'MS 33558, ';fill:#00ff00;stroke-width:0.264583">
        <path
           d="m 59.147089,148.7145 q 0,0.18087 -0.1757,0.23082 -0.173977,0.0482 -0.27044,-0.10335 l -1.446941,-2.32028 v 2.19281 q -0.0379,0.24115 -0.244602,0.24115 -0.204983,0 -0.241156,-0.24115 v -3.04202 q 0.02584,-0.17915 0.18259,-0.23599 0.158474,-0.0568 0.26355,0.1068 l 1.446941,2.32371 v -2.19452 q 0.03273,-0.24633 0.249769,-0.24288 0.218764,0.002 0.235989,0.24288 z"
           style="font-size:3.52778px;fill:#00ff00;stroke-width:0.264583"
           id="path1721" />
        <path
           d="m 61.932451,146.43901 q 0.158474,0.47715 0.118856,0.99047 -0.0379,0.51332 -0.280776,0.93706 -0.153307,0.26355 -0.418579,0.44787 -0.265273,0.18431 -0.585667,0.12919 -0.521932,-0.0913 -0.799262,-0.54433 -0.277331,-0.45303 -0.318672,-1.00769 -0.03962,-0.55638 0.149862,-1.08348 0.191203,-0.5271 0.60806,-0.76654 0.20326,-0.11713 0.425469,-0.11713 0.423747,0 0.692465,0.32039 0.268717,0.31868 0.408244,0.69419 z m -1.086928,-0.52538 q -0.316949,0 -0.480592,0.34107 -0.161919,0.34106 -0.204983,0.58222 -0.03273,0.1757 -0.02412,0.42547 0.0086,0.24977 0.07235,0.49437 0.06374,0.24288 0.191203,0.43925 0.127469,0.19465 0.334175,0.25838 0.241157,0.0758 0.415134,-0.0947 0.1757,-0.17225 0.265273,-0.36518 0.0913,-0.19809 0.124023,-0.52021 0.03445,-0.32211 -0.0155,-0.64251 -0.04823,-0.32211 -0.191203,-0.57877 -0.142971,-0.25839 -0.406521,-0.32901 -0.03445,-0.0103 -0.07924,-0.0103 z"
           style="font-size:3.52778px;fill:#00ff00;stroke-width:0.264583"
           id="path1723" />
        <path
           d="m 64.690251,148.57842 q 0.110244,0.19464 -0.06201,0.32728 -0.08268,0.0586 -0.191203,0.0396 -0.106798,-0.019 -0.156752,-0.1068 l -0.849217,-1.34186 h -0.430637 v 1.21267 q 0,0.14986 -0.136081,0.21704 -0.136082,0.0655 -0.254938,-0.0258 -0.09474,-0.0706 -0.09474,-0.1912 v -3.04374 q 0,-0.0999 0.0689,-0.17054 0.07062,-0.0706 0.172255,-0.0706 h 1.069703 q 0.385851,0 0.670071,0.24632 0.284221,0.24461 0.353123,0.62184 0.07235,0.4048 -0.172255,0.75793 -0.242879,0.3514 -0.645956,0.42719 l -0.03273,0.005 z m -0.864719,-1.5658 q 0.1757,0 0.323839,-0.1068 0.149862,-0.1068 0.201538,-0.27905 0.08096,-0.26527 -0.07407,-0.47887 -0.15503,-0.21532 -0.427192,-0.23771 h -0.849217 v 1.10243 z"
           style="font-size:3.52778px;fill:#00ff00;stroke-width:0.264583"
           id="path1725" />
        <path
           d="m 67.890747,148.71105 q -0.0379,0.24116 -0.244602,0.24116 -0.204983,-0.002 -0.241157,-0.24116 v -2.15146 l -0.590834,1.01114 q -0.09474,0.11368 -0.211873,0.11885 -0.115411,0.005 -0.206706,-0.11885 l -0.587389,-1.00597 0.0017,2.14629 q -0.02756,0.23944 -0.249769,0.23944 -0.220487,-0.002 -0.237712,-0.23944 v -3.04202 q 0.01378,-0.19809 0.173977,-0.23599 0.160197,-0.0396 0.279053,0.10852 l 0.828546,1.42455 0.837159,-1.42455 q 0.118856,-0.14814 0.275608,-0.10852 0.158474,0.0396 0.173977,0.23599 z"
           style="font-size:3.52778px;fill:#00ff00;stroke-width:0.264583"
           id="path1727" />
        <path
           d="m 70.16968,147.82049 -0.523655,-1.44694 -0.5271,1.44694 z m -0.523655,-1.44694 0.523655,1.44694 z m -1.329808,2.24621 q 0.275608,-0.75965 0.551216,-1.51757 0.27733,-0.75964 0.55466,-1.51929 0.05684,-0.15675 0.225654,-0.15847 0.16881,-0.002 0.227377,0.15847 l 1.104154,3.04547 q 0.05168,0.24288 -0.14814,0.3135 -0.199815,0.0706 -0.308336,-0.14469 l -0.177422,-0.49265 h -1.403878 l -0.172255,0.48059 q -0.110243,0.21704 -0.313504,0.14297 -0.20326,-0.0758 -0.139526,-0.30833 z"
           style="font-size:3.52778px;fill:#00ff00;stroke-width:0.264583"
           id="path1729" />
        <path
           d="m 71.563222,148.95393 q -0.211874,-0.0138 -0.244602,-0.23943 v -3.04547 q 0.03617,-0.24805 0.251492,-0.24288 0.215318,0.003 0.234267,0.24288 v 2.80431 l 1.589912,-0.002 q 0.244602,0.0276 0.241157,0.24805 -0.0017,0.21876 -0.242879,0.23426 z"
           style="font-size:3.52778px;fill:#00ff00;stroke-width:0.264583"
           id="path1731" />
      </g>
      <path
         id="rect952"
         style="fill:#ff0000;stroke-width:0.272146"
         d="m 78.655952,102.29167 h 21.999998 v 60 H 78.655952 Z" />
      <path
         id="path1196"
         style="fill:#ff0000;stroke-width:0.25"
         d="m 43.013753,107.36986 a 3.175,3.175 0 0 1 -3.175,3.175 3.175,3.175 0 0 1 -3.175,-3.175 3.175,3.175 0 0 1 3.175,-3.175 3.175,3.175 0 0 1 3.175,3.175 z" />
      <path
         id="path1196-0"
         style="fill:#ff0000;stroke-width:0.25"
         d="m 43.013753,154.99484 a 3.175,3.175 0 0 1 -3.175,3.175 3.175,3.175 0 0 1 -3.175,-3.175 3.175,3.175 0 0 1 3.175,-3.175 3.175,3.175 0 0 1 3.175,3.175 z" />
      <path
         id="path1196-2"
         style="fill:#ff0000;stroke-width:0.25"
         d="m 153.34498,107.36986 a 3.175,3.175 0 0 1 -3.175,3.175 3.175,3.175 0 0 1 -3.175,-3.175 3.175,3.175 0 0 1 3.175,-3.175 3.175,3.175 0 0 1 3.175,3.175 z" />
      <path
         id="path1196-5"
         style="fill:#ff0000;stroke-width:0.25"
         d="m 153.34498,154.99486 a 3.175,3.175 0 0 1 -3.175,3.175 3.175,3.175 0 0 1 -3.175,-3.175 3.175,3.175 0 0 1 3.175,-3.175 3.175,3.175 0 0 1 3.175,3.175 z" />
    </g>
  </g>
</svg>
