<?xml version="1.0" encoding="UTF-8" standalone="no"?>
<!-- Created with Inkscape (http://www.inkscape.org/) -->

<svg
   width="210mm"
   height="297mm"
   viewBox="0 0 210 297"
   version="1.1"
   id="svg848"
   inkscape:version="1.1 (c68e22c387, 2021-05-23)"
   sodipodi:docname="VTR Panels.svg"
   xmlns:inkscape="http://www.inkscape.org/namespaces/inkscape"
   xmlns:sodipodi="http://sodipodi.sourceforge.net/DTD/sodipodi-0.dtd"
   xmlns="http://www.w3.org/2000/svg"
   xmlns:svg="http://www.w3.org/2000/svg">
  <sodipodi:namedview
     id="namedview850"
     pagecolor="#ffffff"
     bordercolor="#666666"
     borderopacity="1.0"
     inkscape:pageshadow="2"
     inkscape:pageopacity="0.0"
     inkscape:pagecheckerboard="0"
     inkscape:document-units="mm"
     showgrid="false"
     inkscape:zoom="1"
     inkscape:cx="549.5"
     inkscape:cy="481.5"
     inkscape:window-width="1482"
     inkscape:window-height="1091"
     inkscape:window-x="1037"
     inkscape:window-y="0"
     inkscape:window-maximized="0"
     inkscape:current-layer="layer1" />
  <defs
     id="defs845" />
  <g
     inkscape:label="Layer 1"
     inkscape:groupmode="layer"
     id="layer1">
    <g
       id="g1119"
       transform="translate(-6.87775,36.779079)">
      <rect
         style="fill:none;stroke:#000000;stroke-width:0.249328;stroke-miterlimit:4;stroke-dasharray:none;stroke-opacity:1"
         id="rect60929-7-8"
         width="152.15067"
         height="66.425674"
         x="49.335751"
         y="85.053917" />
      <path
         id="path61051-40-3"
         style="fill:#ff0000;stroke-width:0.186846"
         d="m 62.510995,141.72935 a 3.175,3.175 0 0 1 -3.175,3.175 3.175,3.175 0 0 1 -3.175,-3.175 3.175,3.175 0 0 1 3.175,-3.175 3.175,3.175 0 0 1 3.175,3.175 z" />
      <path
         id="path61051-4-9-2-5"
         style="fill:#ff0000;stroke-width:0.186846"
         transform="scale(1,-1)"
         d="m 62.510995,-95.054153 a 3.175,3.175 0 0 1 -3.175,3.175 3.175,3.175 0 0 1 -3.175,-3.175 3.175,3.175 0 0 1 3.175,-3.175 3.175,3.175 0 0 1 3.175,3.175 z" />
      <path
         id="path61051-4-1-3"
         style="fill:#ff0000;stroke-width:0.186846"
         transform="scale(-1,1)"
         d="m -188.56116,141.72935 a 3.175,3.175 0 0 1 -3.175,3.175 3.175,3.175 0 0 1 -3.175,-3.175 3.175,3.175 0 0 1 3.175,-3.175 3.175,3.175 0 0 1 3.175,3.175 z" />
      <path
         id="path61051-4-2-60-9"
         style="fill:#ff0000;stroke-width:0.186846"
         transform="scale(-1)"
         d="m -188.56116,-95.054146 a 3.175,3.175 0 0 1 -3.175,3.175 3.175,3.175 0 0 1 -3.175,-3.175 3.175,3.175 0 0 1 3.175,-3.175 3.175,3.175 0 0 1 3.175,3.175 z" />
      <path
         id="path14048-4-0"
         style="fill:#ff0000;stroke-width:0.170394"
         d="m 95.106126,115.69341 a 6.3499999,6.3499999 0 0 1 -6.35,6.35 6.3499999,6.3499999 0 0 1 -6.35,-6.35 6.3499999,6.3499999 0 0 1 6.35,-6.35 6.3499999,6.3499999 0 0 1 6.35,6.35 z" />
      <path
         id="path14048-3-4-1"
         style="fill:#ff0000;stroke-width:0.170394"
         d="m 168.66601,115.69341 a 6.3499999,6.3499999 0 0 1 -6.35,6.35 6.3499999,6.3499999 0 0 1 -6.35,-6.35 6.3499999,6.3499999 0 0 1 6.35,-6.35 6.3499999,6.3499999 0 0 1 6.35,6.35 z" />
      <path
         id="path61051-4-2-6-2-2"
         style="fill:#ff0000;stroke-width:0.186846"
         transform="scale(-1)"
         d="m -122.36109,-141.72433 a 3.175,3.175 0 0 1 -3.175,3.175 3.175,3.175 0 0 1 -3.175,-3.175 3.175,3.175 0 0 1 3.175,-3.175 3.175,3.175 0 0 1 3.175,3.175 z" />
      <path
         id="path61051-4-2-6-6-9-5"
         style="fill:#ff0000;stroke-width:0.186846"
         transform="scale(-1)"
         d="m -85.581126,-92.991745 a 3.175,3.175 0 0 1 -3.175,3.175 3.175,3.175 0 0 1 -3.175,-3.175 3.175,3.175 0 0 1 3.175,-3.175 3.175,3.175 0 0 1 3.175,3.175 z" />
      <path
         id="path61051-4-2-6-6-4-9-9"
         style="fill:#ff0000;stroke-width:0.186846"
         transform="scale(-1)"
         d="m -159.14101,-92.991745 a 3.175,3.175 0 0 1 -3.175,3.175 3.175,3.175 0 0 1 -3.175,-3.175 3.175,3.175 0 0 1 3.175,-3.175 3.175,3.175 0 0 1 3.175,3.175 z" />
    </g>
    <g
       id="g1558"
       transform="translate(32.925989,-55.107153)">
      <path
         id="rect2134-1"
         style="fill:none;stroke:#000000;stroke-width:0.249328;stroke-miterlimit:4;stroke-dasharray:none;stroke-opacity:1"
         d="m 34.261598,87.775566 v 9.962515 c 0,5.519289 -4.452612,9.962499 -9.983549,9.962499 h -9.98354 v 26.57564 h 9.98354 c 5.530937,0 9.983549,4.44323 9.983549,9.9625 v 9.96252 H 146.47808 v -9.96252 c 0,-5.51927 4.45262,-9.9625 9.98355,-9.9625 h 9.98355 v -26.57564 h -9.98355 c -5.53093,0 -9.98355,-4.44321 -9.98355,-9.962499 v -9.962515 z" />
      <g
         aria-label="VTR Control Panel"
         id="text3562-5"
         style="font-size:4.23333px;line-height:1.25;font-family:'MS 33558';-inkscape-font-specification:'MS 33558, ';word-spacing:-2.64583px;fill:#00ff00;stroke-width:0.264583">
        <path
           d="m 64.020591,92.144259 q -0.03927,-0.293522 0.208772,-0.359667 0.250114,-0.06615 0.355534,0.208772 l 0.696598,2.579686 0.700731,-2.60449 q 0.10542,-0.279053 0.363802,-0.202572 0.258382,0.07441 0.198438,0.353467 l -0.983919,3.652487 q -0.08268,0.212907 -0.276985,0.214974 -0.194304,0 -0.283187,-0.206706 z"
           id="path1389" />
        <path
           d="m 68.173305,95.697528 v -3.361033 h -0.758609 q -0.289388,-0.02274 -0.289388,-0.289387 0.0021,-0.268718 0.289388,-0.293522 h 2.098061 q 0.285254,0.02274 0.285254,0.293522 0.0021,0.268717 -0.285254,0.289387 h -0.756542 v 3.361033 q -0.04754,0.293522 -0.305924,0.289388 -0.256315,-0.0041 -0.276986,-0.289388 z"
           id="path1391" />
        <path
           d="m 73.026752,95.538365 q 0.132291,0.233577 -0.07441,0.39274 -0.09922,0.07028 -0.229444,0.04754 -0.128157,-0.02274 -0.188102,-0.128157 L 71.515734,94.240254 H 70.99897 v 1.455207 q 0,0.179834 -0.163297,0.260449 Q 70.672375,96.03446 70.529749,95.9249 70.41606,95.84015 70.41606,95.695457 V 92.04297 q 0,-0.11989 0.08268,-0.204639 0.08475,-0.08475 0.206705,-0.08475 h 1.283642 q 0.46302,0 0.804084,0.295589 0.341065,0.293522 0.423747,0.746207 0.08682,0.485758 -0.206706,0.909504 -0.291455,0.42168 -0.775146,0.51263 l -0.03927,0.0062 z M 71.98909,93.659411 q 0.210839,0 0.388606,-0.128157 0.179834,-0.128158 0.241846,-0.334863 0.09715,-0.318327 -0.08888,-0.574642 -0.186035,-0.258382 -0.512629,-0.285254 H 70.99897 v 1.322916 z"
           id="path1393" />
        <path
           d="m 78.035228,95.325458 -0.0186,0.02687 q -0.0062,0.0083 -0.01033,0.01447 -0.0041,0.0062 -0.0083,0.0124 -0.283186,0.382406 -0.74414,0.545703 -0.458886,0.16123 -0.90537,-0.05994 -0.518831,-0.258382 -0.762743,-0.876431 -0.241846,-0.61805 -0.208773,-1.283642 0.03514,-0.667659 0.351399,-1.225764 0.318327,-0.558105 0.921907,-0.698664 0.347266,-0.08062 0.692464,0.06821 0.345198,0.146761 0.566373,0.413411 0.0021,0 0.01033,0.01447 0.09508,0.124023 0.03927,0.272851 -0.05581,0.146761 -0.204638,0.183968 -0.159163,0.04134 -0.293522,-0.09508 -0.276985,-0.322461 -0.5333,-0.310059 -0.256315,0.0124 -0.458887,0.21084 -0.202571,0.198437 -0.33693,0.508496 -0.134358,0.310058 -0.165364,0.580842 -0.03721,0.30179 0.0062,0.607715 0.04547,0.303857 0.188102,0.572574 0.248047,0.471289 0.624251,0.591178 0.378271,0.117822 0.737939,-0.361735 0.01654,-0.02067 0.03927,-0.05374 0.194303,-0.214974 0.409277,-0.04341 0.217041,0.169499 0.06408,0.384473 z"
           id="path1395" />
        <path
           d="m 81.36112,92.971082 q 0.19017,0.572574 0.142627,1.188556 -0.04548,0.615983 -0.33693,1.124479 -0.183968,0.316259 -0.502294,0.537434 -0.318327,0.221175 -0.702799,0.155029 -0.626318,-0.109554 -0.959114,-0.653189 -0.332796,-0.543636 -0.382405,-1.209228 -0.04754,-0.667659 0.179834,-1.300178 0.229443,-0.632519 0.72967,-0.919839 0.243913,-0.14056 0.510563,-0.14056 0.508496,0 0.830956,0.384472 0.322461,0.382405 0.489892,0.833024 z M 80.056808,92.34063 q -0.380338,0 -0.576708,0.409277 -0.194303,0.409277 -0.24598,0.698664 -0.03927,0.21084 -0.02894,0.510563 0.01034,0.299723 0.08682,0.593245 0.07648,0.291455 0.229443,0.527099 0.152962,0.233577 0.401009,0.310059 0.289388,0.09095 0.49816,-0.113689 0.21084,-0.206705 0.318327,-0.438215 0.109554,-0.237712 0.148828,-0.624251 0.04134,-0.386539 -0.0186,-0.771012 -0.05788,-0.386539 -0.229443,-0.69453 -0.171566,-0.310059 -0.487825,-0.394808 -0.04134,-0.0124 -0.09508,-0.0124 z"
           id="path1397" />
        <path
           d="m 84.91439,95.701662 q 0,0.217041 -0.21084,0.276985 -0.208773,0.05788 -0.324528,-0.124023 L 82.642696,93.0703 v 2.631362 q -0.04548,0.289388 -0.293522,0.289388 -0.24598,0 -0.289388,-0.289388 v -3.65042 q 0.03101,-0.214974 0.219108,-0.283187 0.190169,-0.06821 0.316259,0.128158 l 1.736327,2.788458 v -2.633429 q 0.03927,-0.295589 0.299723,-0.291455 0.262516,0.0021 0.283187,0.291455 z"
           id="path1399" />
        <path
           d="m 86.55563,95.697528 v -3.361033 h -0.758609 q -0.289388,-0.02274 -0.289388,-0.289387 0.0021,-0.268718 0.289388,-0.293522 h 2.098061 q 0.285254,0.02274 0.285254,0.293522 0.0021,0.268717 -0.285254,0.289387 H 87.13854 v 3.361033 q -0.04754,0.293522 -0.305924,0.289388 -0.256315,-0.0041 -0.276986,-0.289388 z"
           id="path1401" />
        <path
           d="m 91.409077,95.538365 q 0.132291,0.233577 -0.07441,0.39274 -0.09922,0.07028 -0.229443,0.04754 -0.128158,-0.02274 -0.188102,-0.128157 l -1.019059,-1.610236 h -0.516764 v 1.455207 q 0,0.179834 -0.163297,0.260449 -0.163297,0.07855 -0.305924,-0.03101 -0.113688,-0.08475 -0.113688,-0.229443 v -3.652487 q 0,-0.11989 0.08268,-0.204639 0.08475,-0.08475 0.206705,-0.08475 h 1.283642 q 0.46302,0 0.804085,0.295589 0.341064,0.293522 0.423746,0.746207 0.08682,0.485758 -0.206706,0.909504 -0.291454,0.42168 -0.775145,0.51263 l -0.03928,0.0062 z m -1.037662,-1.878954 q 0.21084,0 0.388606,-0.128157 0.179834,-0.128158 0.241846,-0.334863 0.09715,-0.318327 -0.08888,-0.574642 -0.186035,-0.258382 -0.512629,-0.285254 h -1.019059 v 1.322916 z"
           id="path1403" />
        <path
           d="m 94.91687,92.971082 q 0.190169,0.572574 0.142627,1.188556 -0.04547,0.615983 -0.33693,1.124479 -0.183968,0.316259 -0.502294,0.537434 -0.318327,0.221175 -0.702799,0.155029 -0.626318,-0.109554 -0.959114,-0.653189 -0.332796,-0.543636 -0.382405,-1.209228 -0.04754,-0.667659 0.179834,-1.300178 0.229443,-0.632519 0.72967,-0.919839 0.243913,-0.14056 0.510563,-0.14056 0.508496,0 0.830956,0.384472 0.322461,0.382405 0.489892,0.833024 z M 93.612558,92.34063 q -0.380338,0 -0.576708,0.409277 -0.194303,0.409277 -0.24598,0.698664 -0.03927,0.21084 -0.02894,0.510563 0.01034,0.299723 0.08682,0.593245 0.07648,0.291455 0.229443,0.527099 0.152962,0.233577 0.401009,0.310059 0.289387,0.09095 0.49816,-0.113689 0.21084,-0.206705 0.318327,-0.438215 0.109554,-0.237712 0.148828,-0.624251 0.04134,-0.386539 -0.0186,-0.771012 -0.05788,-0.386539 -0.229443,-0.69453 -0.171566,-0.310059 -0.487825,-0.394808 -0.04134,-0.0124 -0.09508,-0.0124 z"
           id="path1405" />
        <path
           d="m 95.909058,95.988983 q -0.254248,-0.01654 -0.293522,-0.287321 v -3.654554 q 0.04341,-0.297656 0.30179,-0.291455 0.258382,0.0041 0.281119,0.291455 v 3.365166 l 1.907893,-0.0021 q 0.293522,0.03307 0.289387,0.297656 -0.0021,0.262516 -0.291454,0.28112 z"
           id="path1407" />
        <path
           d="m 102.1619,91.753586 h 0.0393 q 0.26459,0.0186 0.48783,0.119889 0.42788,0.200504 0.60565,0.659391 0.17776,0.458886 -0.004,0.895035 -0.14676,0.345198 -0.43408,0.541568 -0.28732,0.194304 -0.65526,0.217041 l -0.0393,0.0021 h -1.00459 v 1.506884 q -0.0372,0.291455 -0.29352,0.291455 -0.25632,0 -0.29146,-0.291455 v -3.652487 q 0.031,-0.256315 0.27286,-0.289388 h 0.0186 z m 0,0.582909 h -1.00459 v 1.267106 h 1.00459 q 0.23564,0 0.41548,-0.157097 0.1819,-0.157096 0.2129,-0.39274 0.0372,-0.285254 -0.15296,-0.500228 -0.19017,-0.217041 -0.47542,-0.217041 z"
           id="path1409" />
        <path
           d="m 106.20713,94.62886 -0.62838,-1.736327 -0.63252,1.736327 z m -0.62838,-1.736327 0.62838,1.736327 z m -1.59577,2.695441 q 0.33073,-0.911572 0.66146,-1.821076 0.33279,-0.911572 0.66559,-1.823143 0.0682,-0.188102 0.27078,-0.190169 0.20257,-0.0021 0.27285,0.190169 l 1.32499,3.654554 q 0.062,0.291455 -0.17777,0.376204 -0.23978,0.08475 -0.37,-0.173632 l -0.21291,-0.591178 h -1.68465 l -0.20671,0.576708 q -0.13229,0.260449 -0.3762,0.171566 -0.24391,-0.09095 -0.16743,-0.370003 z"
           id="path1411" />
        <path
           d="m 110.44046,95.701662 q 0,0.217041 -0.21084,0.276985 -0.20877,0.05788 -0.32453,-0.124023 L 108.16877,93.0703 v 2.631362 q -0.0455,0.289388 -0.29352,0.289388 -0.24598,0 -0.28939,-0.289388 v -3.65042 q 0.031,-0.214974 0.21911,-0.283187 0.19016,-0.06821 0.31625,0.128158 l 1.73633,2.788458 v -2.633429 q 0.0393,-0.295589 0.29972,-0.291455 0.26252,0.0021 0.28319,0.291455 z"
           id="path1413" />
        <path
           d="m 113.32813,92.330294 h -1.71358 v 1.13068 h 1.30637 q 0.29353,0.04341 0.29146,0.295589 0,0.250113 -0.29146,0.291454 h -1.30637 v 1.358056 h 1.71358 q 0.29146,0.04341 0.29146,0.291455 0,0.248046 -0.29146,0.289388 h -2.00091 q -0.25838,-0.03307 -0.29352,-0.293522 v -3.65042 q 0.0393,-0.272852 0.29352,-0.289388 h 2.00091 q 0.29146,0.02274 0.28939,0.291455 0,0.26665 -0.28939,0.285253 z"
           id="path1415" />
        <path
           d="m 114.48775,95.988983 q -0.25424,-0.01654 -0.29352,-0.287321 v -3.654554 q 0.0434,-0.297656 0.30179,-0.291455 0.25838,0.0041 0.28112,0.291455 v 3.365166 l 1.90789,-0.0021 q 0.29353,0.03307 0.28939,0.297656 -0.002,0.262516 -0.29145,0.28112 z"
           id="path1417" />
      </g>
      <g
         aria-label="POWER"
         id="text3562-1-87"
         style="font-size:3.52778px;line-height:1.25;font-family:'MS 33558';-inkscape-font-specification:'MS 33558, ';fill:#00ff00;stroke-width:0.264583">
        <path
           d="m 47.812078,104.0896 h 0.03273 q 0.220486,0.0155 0.406521,0.0999 0.356568,0.16708 0.504707,0.54949 0.148139,0.3824 -0.0034,0.74586 -0.122301,0.28767 -0.361735,0.45131 -0.239435,0.16192 -0.546048,0.18087 l -0.03273,0.002 H 46.97492 v 1.25574 q -0.03101,0.24288 -0.244602,0.24288 -0.213596,0 -0.24288,-0.24288 v -3.04374 q 0.02584,-0.2136 0.227377,-0.24116 h 0.0155 z m 0,0.48576 H 46.97492 v 1.05592 h 0.837158 q 0.196371,0 0.346233,-0.13091 0.151584,-0.13092 0.177422,-0.32729 0.03101,-0.23771 -0.127468,-0.41686 -0.158475,-0.18086 -0.396187,-0.18086 z"
           id="path1420" />
        <path
           d="m 51.608576,105.10418 q 0.158474,0.47715 0.118856,0.99047 -0.0379,0.51331 -0.280776,0.93706 -0.153307,0.26355 -0.418579,0.44786 -0.265273,0.18432 -0.585667,0.1292 -0.521932,-0.0913 -0.799262,-0.54433 -0.277331,-0.45303 -0.318672,-1.00769 -0.03962,-0.55638 0.149862,-1.08348 0.191203,-0.5271 0.60806,-0.76654 0.20326,-0.11713 0.425469,-0.11713 0.423747,0 0.692465,0.32039 0.268717,0.31867 0.408244,0.69419 z m -1.086928,-0.52538 q -0.316949,0 -0.480592,0.34107 -0.161919,0.34106 -0.204983,0.58222 -0.03273,0.1757 -0.02412,0.42547 0.0086,0.24977 0.07235,0.49437 0.06373,0.24288 0.191202,0.43925 0.127469,0.19465 0.334175,0.25838 0.241157,0.0758 0.415134,-0.0947 0.1757,-0.17225 0.265273,-0.36518 0.0913,-0.19809 0.124023,-0.52021 0.03445,-0.32212 -0.0155,-0.64251 -0.04823,-0.32212 -0.191203,-0.57878 -0.142971,-0.25838 -0.406521,-0.329 -0.03445,-0.0103 -0.07924,-0.0103 z"
           id="path1422" />
        <path
           d="m 54.140723,104.28597 0.602892,2.06017 0.403076,-2.06017 q 0.07235,-0.23255 0.282498,-0.18948 0.211874,0.0431 0.194648,0.28077 l -0.596002,3.04203 q -0.05512,0.1912 -0.225654,0.19809 -0.168809,0.007 -0.244602,-0.17398 l -0.651123,-2.22209 -0.645956,2.22209 q -0.07924,0.18604 -0.242879,0.17398 -0.163642,-0.0121 -0.230822,-0.19809 l -0.596002,-3.04203 q 0,-0.24632 0.196371,-0.28249 0.19637,-0.0379 0.285943,0.1912 l 0.397909,2.06361 0.602892,-2.06361 q 0.07407,-0.17053 0.235989,-0.1757 0.163642,-0.005 0.230822,0.1757 z"
           id="path1424" />
        <path
           d="m 57.870041,104.57019 h -1.427993 v 0.94223 h 1.088651 q 0.244602,0.0362 0.242879,0.24633 0,0.20843 -0.242879,0.24288 h -1.088651 v 1.13171 h 1.427993 q 0.242879,0.0362 0.242879,0.24288 0,0.20671 -0.242879,0.24116 h -1.667427 q -0.215319,-0.0276 -0.244602,-0.2446 v -3.04202 q 0.03273,-0.22738 0.244602,-0.24116 h 1.667427 q 0.242879,0.0189 0.241157,0.24288 0,0.22221 -0.241157,0.23771 z"
           id="path1426" />
        <path
           d="m 60.767368,107.24359 q 0.110244,0.19464 -0.06201,0.32728 -0.08268,0.0586 -0.191203,0.0396 -0.106798,-0.019 -0.156752,-0.1068 l -0.849217,-1.34187 h -0.430637 v 1.21268 q 0,0.14986 -0.136081,0.21704 -0.136082,0.0655 -0.254938,-0.0258 -0.09474,-0.0706 -0.09474,-0.1912 v -3.04374 q 0,-0.0999 0.0689,-0.17054 0.07062,-0.0706 0.172255,-0.0706 h 1.069703 q 0.385851,0 0.670071,0.24632 0.284221,0.2446 0.353123,0.62184 0.07235,0.4048 -0.172255,0.75792 -0.242879,0.3514 -0.645956,0.4272 l -0.03273,0.005 z m -0.864719,-1.5658 q 0.1757,0 0.323839,-0.1068 0.149862,-0.1068 0.201538,-0.27905 0.08096,-0.26528 -0.07407,-0.47887 -0.15503,-0.21532 -0.427192,-0.23771 h -0.849217 v 1.10243 z"
           id="path1428" />
      </g>
      <g
         aria-label="MODE"
         id="text3562-1-0-8"
         style="font-size:3.52778px;line-height:1.25;font-family:'MS 33558';-inkscape-font-specification:'MS 33558, ';fill:#00ff00;stroke-width:0.264583">
        <path
           d="m 124.48856,107.37611 q -0.0379,0.24116 -0.2446,0.24116 -0.20498,-0.002 -0.24116,-0.24116 v -2.15146 l -0.59083,1.01114 q -0.0947,0.11369 -0.21187,0.11885 -0.11541,0.005 -0.20671,-0.11885 l -0.58739,-1.00597 0.002,2.14629 q -0.0276,0.23944 -0.24977,0.23944 -0.22048,-0.002 -0.23771,-0.23944 v -3.04202 q 0.0138,-0.19809 0.17398,-0.23599 0.1602,-0.0396 0.27905,0.10852 l 0.82855,1.42455 0.83716,-1.42455 q 0.11885,-0.14813 0.27561,-0.10852 0.15847,0.0396 0.17397,0.23599 z"
           id="path1431" />
        <path
           d="m 127.19296,105.10407 q 0.15848,0.47715 0.11886,0.99047 -0.0379,0.51332 -0.28078,0.93706 -0.1533,0.26355 -0.41857,0.44787 -0.26528,0.18431 -0.58567,0.12919 -0.52193,-0.0913 -0.79926,-0.54433 -0.27733,-0.45303 -0.31868,-1.00769 -0.0396,-0.55638 0.14987,-1.08348 0.1912,-0.5271 0.60806,-0.76654 0.20326,-0.11713 0.42547,-0.11713 0.42374,0 0.69246,0.3204 0.26872,0.31867 0.40824,0.69418 z m -1.08692,-0.52537 q -0.31695,0 -0.4806,0.34106 -0.16191,0.34106 -0.20498,0.58222 -0.0327,0.1757 -0.0241,0.42547 0.009,0.24977 0.0723,0.49437 0.0637,0.24288 0.19121,0.43925 0.12746,0.19465 0.33417,0.25838 0.24116,0.0758 0.41513,-0.0947 0.1757,-0.17225 0.26528,-0.36518 0.0913,-0.19809 0.12402,-0.52021 0.0344,-0.32211 -0.0155,-0.64251 -0.0482,-0.32211 -0.19121,-0.57877 -0.14297,-0.25838 -0.40652,-0.32901 -0.0345,-0.0103 -0.0792,-0.0103 z"
           id="path1433" />
        <path
           d="m 128.01634,104.08949 h 0.81132 q 0.60462,0 0.90606,0.55122 0.30145,0.55121 0.30145,1.21267 0,0.66146 -0.30317,1.21268 -0.30144,0.55121 -0.90434,0.55121 h -0.81132 0.003 -0.003 q -0.0568,-0.009 -0.062,-0.0103 -0.17914,-0.0431 -0.17742,-0.23427 h -0.002 l 0.002,-3.04202 q -0.002,-0.005 -0.002,-0.0138 0.005,-0.0947 0.0741,-0.1602 0.0706,-0.0672 0.1688,-0.0672 z m 0.81132,3.04202 q 0.003,0 0.007,0 0.003,0 0.009,0 0.003,0 0.005,0 0.003,-0.002 0.009,-0.002 0.003,0 0.007,0 0.005,-0.002 0.0103,-0.002 0.003,0 0.007,0 0.003,-0.002 0.009,-0.002 0.003,0 0.007,0 0.003,-0.002 0.009,-0.002 0.007,-0.003 0.0138,-0.003 0.003,0 0.007,-0.002 0.003,-0.003 0.009,-0.005 0.003,0 0.007,0 0.005,-0.002 0.0103,-0.003 0.003,0 0.007,-0.002 0.003,-0.002 0.009,-0.003 0.0103,-0.003 0.0155,-0.007 0.031,-0.0103 0.0172,-0.007 0.003,0 0.007,-0.002 0.003,-0.003 0.009,-0.005 0.0155,-0.0103 0.0138,-0.009 0.0172,-0.009 0.0172,-0.009 0.003,-0.002 0.007,-0.003 0.003,-0.003 0.009,-0.007 0.0155,-0.0103 0.0155,-0.0103 0.003,-0.002 0.007,-0.003 0.005,-0.003 0.0103,-0.007 0.003,-0.002 0.007,-0.005 0.003,-0.003 0.009,-0.007 0.003,-0.002 0.007,-0.003 0.003,-0.003 0.009,-0.007 0.003,-0.003 0.0172,-0.0138 0.0138,-0.0138 0.0138,-0.0138 0.003,-0.003 0.007,-0.007 0.003,-0.003 0.009,-0.009 0.003,-0.003 0.007,-0.007 0.003,-0.003 0.009,-0.009 0.005,-0.003 0.0155,-0.0138 0.003,-0.003 0.007,-0.007 0.003,-0.003 0.009,-0.009 0.003,-0.003 0.007,-0.007 0.003,-0.005 0.009,-0.0103 0.0207,-0.0276 0.0138,-0.0172 0.0121,-0.0121 0.0155,-0.019 0.0155,-0.0207 0.0138,-0.019 0.003,-0.005 0.007,-0.009 0.003,-0.005 0.009,-0.0103 0.003,-0.005 0.005,-0.0103 0.003,-0.005 0.009,-0.0103 0.002,-0.005 0.005,-0.0103 0.005,-0.007 0.009,-0.0121 0.0103,-0.0138 0.0138,-0.0207 0.003,-0.005 0.005,-0.0103 0.003,-0.007 0.009,-0.0121 0.003,-0.005 0.005,-0.0103 0.003,-0.007 0.009,-0.0121 0.003,-0.009 0.0103,-0.0224 0.003,-0.005 0.005,-0.0121 0.003,-0.007 0.009,-0.0138 0.003,-0.005 0.005,-0.0103 0.003,-0.007 0.009,-0.0138 0.002,-0.005 0.003,-0.0121 0.003,-0.007 0.007,-0.0138 0.005,-0.009 0.0121,-0.0258 0.0172,-0.0431 0.0121,-0.0276 0.002,-0.005 0.003,-0.0121 0.003,-0.009 0.007,-0.0155 0.002,-0.007 0.003,-0.0138 0.003,-0.007 0.007,-0.0155 0.005,-0.0155 0.009,-0.0276 0.002,-0.007 0.003,-0.0138 0.003,-0.007 0.007,-0.0155 -0.007,0.0172 0.009,-0.0293 0.003,-0.009 0.0103,-0.0293 0,-0.007 0.002,-0.0138 0.003,-0.009 0.005,-0.0172 0.002,-0.007 0.003,-0.0138 0.002,-0.009 0.005,-0.0172 0,-0.005 0.002,-0.0121 0.003,-0.009 0.005,-0.0172 0.002,-0.0121 0.005,-0.0327 0,-0.007 0.002,-0.0138 0.003,-0.009 0.005,-0.0172 0,-0.007 0.002,-0.0138 0.002,-0.009 0.003,-0.0172 0.002,-0.0121 0.005,-0.0327 0,-0.007 0.002,-0.0155 0.003,-0.009 0.005,-0.0172 0,-0.0121 0.003,-0.0327 0,-0.007 0,-0.0138 0.002,-0.009 0.003,-0.0189 0.003,-0.0207 0.003,-0.0327 0.002,-0.0121 0.002,-0.0327 0.002,-0.0121 0.002,-0.0345 0.002,-0.0121 0.002,-0.0327 0,-0.009 0,-0.0155 0.002,-0.009 0.003,-0.019 0,-0.007 0,-0.0138 0.002,-0.009 0.002,-0.019 0,-0.007 0,-0.0155 0,-0.009 0,-0.0172 0,-0.009 0,-0.0155 0,-0.009 0,-0.0172 0,-0.009 -0.002,-0.0155 0,-0.009 0,-0.019 0,-0.007 0,-0.0155 0,-0.009 0,-0.0172 0,-0.0103 -0.003,-0.0344 0,-0.0207 -0.002,-0.031 0,-0.0121 -0.003,-0.0362 0,-0.0207 -0.002,-0.031 0,-0.0121 -0.003,-0.0327 -0.002,-0.007 -0.003,-0.0155 0,-0.009 0,-0.0172 -0.003,-0.0207 -0.007,-0.0327 -0.002,-0.007 -0.003,-0.0138 -0.002,-0.009 -0.002,-0.0172 -0.002,-0.0121 -0.005,-0.0327 -0.002,-0.0121 -0.005,-0.0327 -0.007,-0.0207 -0.009,-0.031 -0.003,-0.0207 -0.005,-0.0293 -0.003,-0.007 -0.005,-0.0138 -0.002,-0.009 -0.003,-0.0172 -0.002,-0.007 -0.005,-0.0138 -0.003,-0.009 -0.003,-0.0172 -0.0155,-0.0465 -0.009,-0.0293 -0.003,-0.0121 -0.009,-0.0293 -0.003,-0.005 -0.007,-0.0121 -0.002,-0.009 -0.003,-0.0155 -0.002,-0.005 -0.0103,-0.0293 -0.007,-0.0172 -0.0103,-0.0276 -0.003,-0.005 -0.007,-0.0121 -0.002,-0.009 -0.003,-0.0155 -0.003,-0.005 -0.007,-0.0121 -0.003,-0.007 -0.005,-0.0138 -0.007,-0.0172 -0.0121,-0.0258 -0.007,-0.0172 -0.0103,-0.0241 -0.007,-0.0172 -0.0121,-0.0258 -0.003,-0.005 -0.007,-0.0103 -0.003,-0.007 -0.005,-0.0121 -0.0103,-0.0172 -0.0138,-0.0241 -0.0155,-0.0241 -0.0138,-0.0224 -0.005,-0.005 -0.009,-0.0103 -0.002,-0.007 -0.005,-0.0121 -0.003,-0.007 -0.0138,-0.0207 -0.003,-0.005 -0.007,-0.0103 -0.003,-0.005 -0.005,-0.0103 -0.009,-0.0155 -0.0293,-0.0396 -0.003,-0.003 -0.0276,-0.0379 -0.0207,-0.0241 -0.031,-0.0344 -0.0103,-0.0121 -0.031,-0.0327 -0.0138,-0.0155 -0.0293,-0.0293 -0.0121,-0.009 -0.0327,-0.0258 -0.0172,-0.0138 -0.0327,-0.0258 -0.0396,-0.0258 -0.0327,-0.0224 -0.0344,-0.0207 -0.031,-0.0189 0,0 -0.031,-0.0155 -0.007,-0.003 -0.0327,-0.0121 -0.0224,-0.009 -0.0327,-0.0121 -0.009,-0.002 -0.0155,-0.003 -0.007,-0.003 -0.0138,-0.007 -0.031,-0.005 -0.031,-0.005 -0.0103,-0.002 -0.031,-0.002 -0.005,0 -0.009,0 -0.003,0 -0.007,0 h -0.56844 v 2.55626 0 z"
           id="path1435" />
        <path
           d="m 132.38645,104.57008 h -1.42799 v 0.94224 h 1.08865 q 0.2446,0.0362 0.24288,0.24632 0,0.20843 -0.24288,0.24288 h -1.08865 v 1.13172 h 1.42799 q 0.24288,0.0362 0.24288,0.24287 0,0.20671 -0.24288,0.24116 h -1.66743 q -0.21532,-0.0276 -0.2446,-0.2446 v -3.04202 q 0.0327,-0.22738 0.2446,-0.24116 h 1.66743 q 0.24288,0.019 0.24116,0.24288 0,0.22221 -0.24116,0.23771 z"
           id="path1437" />
      </g>
      <g
         aria-label="ON"
         id="text3562-1-5-4"
         style="font-size:3.52778px;line-height:1.25;font-family:'MS 33558';-inkscape-font-specification:'MS 33558, ';fill:#00ff00;stroke-width:0.264583">
        <path
           d="m 67.105886,111.13459 q 0.158474,0.47715 0.118855,0.99047 -0.0379,0.51332 -0.280775,0.93706 -0.153307,0.26355 -0.418579,0.44787 -0.265273,0.18431 -0.585667,0.12919 -0.521932,-0.0913 -0.799263,-0.54433 -0.27733,-0.45303 -0.318671,-1.00769 -0.03962,-0.55638 0.149862,-1.08348 0.191202,-0.5271 0.608059,-0.76654 0.203261,-0.11713 0.42547,-0.11713 0.423747,0 0.692465,0.32039 0.268717,0.31867 0.408244,0.69419 z m -1.086929,-0.52538 q -0.316949,0 -0.480591,0.34107 -0.161919,0.34106 -0.204983,0.58222 -0.03273,0.1757 -0.02412,0.42547 0.0086,0.24977 0.07235,0.49437 0.06373,0.24288 0.191203,0.43925 0.127469,0.19465 0.334175,0.25838 0.241156,0.0758 0.415134,-0.0947 0.1757,-0.17225 0.265272,-0.36518 0.0913,-0.19809 0.124024,-0.52021 0.03445,-0.32211 -0.0155,-0.64251 -0.04823,-0.32212 -0.191203,-0.57878 -0.142971,-0.25838 -0.406521,-0.329 -0.03445,-0.0103 -0.07924,-0.0103 z"
           id="path1440" />
        <path
           d="m 70.066947,113.41008 q 0,0.18086 -0.1757,0.23082 -0.173977,0.0482 -0.27044,-0.10335 l -1.446941,-2.32028 v 2.19281 q -0.0379,0.24115 -0.244602,0.24115 -0.204983,0 -0.241157,-0.24115 v -3.04202 q 0.02584,-0.17915 0.18259,-0.23599 0.158475,-0.0568 0.26355,0.10679 l 1.446941,2.32372 v -2.19452 q 0.03273,-0.24633 0.24977,-0.24288 0.218763,0.002 0.235989,0.24288 z"
           id="path1442" />
      </g>
      <g
         aria-label="OFF"
         id="text3562-1-8-5"
         style="font-size:3.52778px;line-height:1.25;font-family:'MS 33558';-inkscape-font-specification:'MS 33558, ';fill:#00ff00;stroke-width:0.264583">
        <path
           d="m 66.04754,125.77965 q 0.158474,0.47714 0.118856,0.99046 -0.0379,0.51332 -0.280776,0.93707 -0.153307,0.26355 -0.418579,0.44786 -0.265273,0.18432 -0.585667,0.12919 -0.521932,-0.0913 -0.799262,-0.54432 -0.277331,-0.45303 -0.318672,-1.00769 -0.03962,-0.55639 0.149862,-1.08349 0.191203,-0.5271 0.60806,-0.76653 0.20326,-0.11713 0.425469,-0.11713 0.423747,0 0.692465,0.32039 0.268717,0.31867 0.408244,0.69419 z m -1.086929,-0.52538 q -0.316949,0 -0.480591,0.34107 -0.161919,0.34106 -0.204983,0.58222 -0.03273,0.1757 -0.02412,0.42547 0.0086,0.24977 0.07235,0.49437 0.06374,0.24288 0.191203,0.43925 0.127469,0.19465 0.334175,0.25838 0.241157,0.0758 0.415134,-0.0947 0.1757,-0.17226 0.265273,-0.36518 0.0913,-0.19809 0.124023,-0.52021 0.03445,-0.32212 -0.0155,-0.64251 -0.04823,-0.32212 -0.191203,-0.57878 -0.142971,-0.25838 -0.406521,-0.329 -0.03445,-0.0103 -0.07924,-0.0103 z"
           id="path1445" />
        <path
           d="m 66.629761,128.04824 v -3.03857 q 0.03101,-0.22738 0.244602,-0.2446 h 1.667427 q 0.239435,0.0189 0.239435,0.2446 0,0.22393 -0.24288,0.23943 h -1.424548 v 0.94224 h 1.111044 q 0.237712,0.0172 0.241157,0.23254 0.0034,0.21532 -0.241157,0.25149 h -1.111044 v 1.37287 q -0.01723,0.23772 -0.234266,0.24116 -0.215319,0.003 -0.24977,-0.24116 z"
           id="path1447" />
        <path
           d="m 69.263538,128.04824 v -3.03857 q 0.03101,-0.22738 0.244602,-0.2446 h 1.667428 q 0.239434,0.0189 0.239434,0.2446 0,0.22393 -0.24288,0.23943 h -1.424547 v 0.94224 h 1.111044 q 0.237711,0.0172 0.241156,0.23254 0.0034,0.21532 -0.241156,0.25149 h -1.111044 v 1.37287 q -0.01723,0.23772 -0.234267,0.24116 -0.215319,0.003 -0.24977,-0.24116 z"
           id="path1449" />
      </g>
      <path
         id="path14048-6"
         style="fill:#ff0000;stroke-width:0.170394"
         d="m 60.064886,118.41506 a 6.3499999,6.3499999 0 0 1 -6.35,6.35 6.3499999,6.3499999 0 0 1 -6.35,-6.35 6.3499999,6.3499999 0 0 1 6.35,-6.35 6.3499999,6.3499999 0 0 1 6.35,6.35 z" />
      <path
         id="path14048-3-0"
         style="fill:#ff0000;stroke-width:0.170394"
         d="m 133.62478,118.41506 a 6.3499999,6.3499999 0 0 1 -6.35,6.35 6.3499999,6.3499999 0 0 1 -6.35,-6.35 6.3499999,6.3499999 0 0 1 6.35,-6.35 6.3499999,6.3499999 0 0 1 6.35,6.35 z" />
      <g
         aria-label="RECORD"
         id="text3562-1-4-8"
         style="font-size:3.52778px;line-height:1.25;font-family:'MS 33558';-inkscape-font-specification:'MS 33558, ';fill:#00ff00;stroke-width:0.264583">
        <path
           d="m 100.18014,113.27319 q 0.11024,0.19465 -0.062,0.32728 -0.0827,0.0586 -0.191203,0.0396 -0.106798,-0.019 -0.156752,-0.1068 l -0.849217,-1.34186 h -0.430637 v 1.21267 q 0,0.14986 -0.136081,0.21704 -0.136082,0.0655 -0.254937,-0.0258 -0.09474,-0.0706 -0.09474,-0.1912 v -3.04374 q 0,-0.0999 0.0689,-0.17054 0.07062,-0.0706 0.172255,-0.0706 h 1.069703 q 0.385851,0 0.670072,0.24632 0.284217,0.24461 0.353127,0.62184 0.0723,0.4048 -0.17226,0.75793 -0.242879,0.3514 -0.645956,0.42719 l -0.03273,0.005 z m -0.864718,-1.5658 q 0.1757,0 0.323839,-0.1068 0.149862,-0.1068 0.201538,-0.27905 0.08096,-0.26527 -0.07407,-0.47887 -0.15503,-0.21532 -0.427192,-0.23771 H 98.49032 v 1.10243 z"
           id="path1454" />
        <path
           d="m 102.72435,110.59979 h -1.428 v 0.94224 h 1.08865 q 0.24461,0.0362 0.24288,0.24632 0,0.20843 -0.24288,0.24288 h -1.08865 v 1.13171 h 1.428 q 0.24288,0.0362 0.24288,0.24288 0,0.20671 -0.24288,0.24116 h -1.66743 q -0.21532,-0.0276 -0.2446,-0.2446 v -3.04202 q 0.0327,-0.22738 0.2446,-0.24116 h 1.66743 q 0.24288,0.0189 0.24115,0.24288 0,0.22221 -0.24115,0.23771 z"
           id="path1456" />
        <path
           d="m 105.66474,113.09576 -0.0155,0.0224 q -0.005,0.007 -0.009,0.0121 -0.003,0.005 -0.007,0.0103 -0.23599,0.31867 -0.62012,0.45475 -0.3824,0.13436 -0.75447,-0.0499 -0.43236,-0.21532 -0.63562,-0.73036 -0.20154,-0.51504 -0.17398,-1.0697 0.0293,-0.55639 0.29283,-1.02148 0.26527,-0.46508 0.76826,-0.58222 0.28939,-0.0672 0.57705,0.0569 0.28767,0.1223 0.47198,0.34451 0.002,0 0.009,0.0121 0.0792,0.10335 0.0327,0.22737 -0.0465,0.1223 -0.17053,0.15331 -0.13264,0.0345 -0.2446,-0.0792 -0.23082,-0.26872 -0.44442,-0.25838 -0.2136,0.0103 -0.38241,0.1757 -0.1688,0.16536 -0.28077,0.42375 -0.11197,0.25838 -0.1378,0.48403 -0.031,0.25149 0.005,0.50643 0.0379,0.25322 0.15676,0.47715 0.2067,0.39274 0.5202,0.49265 0.31523,0.0982 0.61495,-0.30145 0.0138,-0.0172 0.0327,-0.0448 0.16192,-0.17914 0.34107,-0.0362 0.18087,0.14125 0.0534,0.32039 z"
           id="path1458" />
        <path
           d="m 108.43632,111.13378 q 0.15847,0.47715 0.11885,0.99047 -0.0379,0.51332 -0.28077,0.93706 -0.15331,0.26355 -0.41858,0.44787 -0.26527,0.18431 -0.58567,0.12919 -0.52193,-0.0913 -0.79926,-0.54433 -0.27733,-0.45303 -0.31867,-1.00769 -0.0396,-0.55638 0.14986,-1.08348 0.1912,-0.5271 0.60806,-0.76654 0.20326,-0.11713 0.42547,-0.11713 0.42375,0 0.69246,0.32039 0.26872,0.31868 0.40825,0.69419 z m -1.08693,-0.52538 q -0.31695,0 -0.48059,0.34107 -0.16192,0.34106 -0.20498,0.58222 -0.0327,0.1757 -0.0241,0.42547 0.009,0.24977 0.0724,0.49437 0.0637,0.24288 0.1912,0.43925 0.12747,0.19465 0.33417,0.25838 0.24116,0.0758 0.41514,-0.0947 0.1757,-0.17225 0.26527,-0.36518 0.0913,-0.19809 0.12402,-0.52021 0.0345,-0.32211 -0.0155,-0.64251 -0.0482,-0.32211 -0.1912,-0.57877 -0.14297,-0.25839 -0.40652,-0.32901 -0.0344,-0.0103 -0.0792,-0.0103 z"
           id="path1460" />
        <path
           d="m 111.19412,113.27319 q 0.11024,0.19465 -0.062,0.32728 -0.0827,0.0586 -0.19121,0.0396 -0.10679,-0.019 -0.15675,-0.1068 l -0.84921,-1.34186 h -0.43064 v 1.21267 q 0,0.14986 -0.13608,0.21704 -0.13608,0.0655 -0.25494,-0.0258 -0.0947,-0.0706 -0.0947,-0.1912 v -3.04374 q 0,-0.0999 0.0689,-0.17054 0.0706,-0.0706 0.17226,-0.0706 h 1.0697 q 0.38585,0 0.67007,0.24632 0.28422,0.24461 0.35312,0.62184 0.0724,0.4048 -0.17225,0.75793 -0.24288,0.3514 -0.64596,0.42719 l -0.0327,0.005 z m -0.86472,-1.5658 q 0.1757,0 0.32384,-0.1068 0.14986,-0.1068 0.20154,-0.27905 0.081,-0.26527 -0.0741,-0.47887 -0.15503,-0.21532 -0.4272,-0.23771 h -0.84921 v 1.10243 z"
           id="path1462" />
        <path
           d="m 112.06745,110.1192 h 0.81132 q 0.60462,0 0.90606,0.55122 0.30145,0.55121 0.30145,1.21267 0,0.66146 -0.30317,1.21267 -0.30145,0.55122 -0.90434,0.55122 h -0.81132 0.003 -0.003 q -0.0568,-0.009 -0.062,-0.0103 -0.17915,-0.0431 -0.17742,-0.23426 h -0.002 l 0.002,-3.04202 q -0.002,-0.005 -0.002,-0.0138 0.005,-0.0947 0.0741,-0.1602 0.0706,-0.0672 0.16881,-0.0672 z m 0.81132,3.04202 q 0.003,0 0.007,0 0.003,0 0.009,0 0.003,0 0.005,0 0.003,-0.002 0.009,-0.002 0.003,0 0.007,0 0.005,-0.002 0.0103,-0.002 0.003,0 0.007,0 0.003,-0.002 0.009,-0.002 0.003,0 0.007,0 0.003,-0.002 0.009,-0.002 0.007,-0.003 0.0138,-0.003 0.003,0 0.007,-0.002 0.003,-0.003 0.009,-0.005 0.003,0 0.007,0 0.005,-0.002 0.0103,-0.003 0.003,0 0.007,-0.002 0.003,-0.002 0.009,-0.003 0.0103,-0.003 0.0155,-0.007 0.031,-0.0103 0.0172,-0.007 0.003,0 0.007,-0.002 0.003,-0.003 0.009,-0.005 0.0155,-0.0103 0.0138,-0.009 0.0172,-0.009 0.0172,-0.009 0.003,-0.002 0.007,-0.003 0.003,-0.003 0.009,-0.007 0.0155,-0.0103 0.0155,-0.0103 0.003,-0.002 0.007,-0.003 0.005,-0.003 0.0103,-0.007 0.003,-0.002 0.007,-0.005 0.003,-0.003 0.009,-0.007 0.003,-0.002 0.007,-0.003 0.003,-0.003 0.009,-0.007 0.003,-0.003 0.0172,-0.0138 0.0138,-0.0138 0.0138,-0.0138 0.003,-0.003 0.007,-0.007 0.003,-0.003 0.009,-0.009 0.003,-0.003 0.007,-0.007 0.003,-0.003 0.009,-0.009 0.005,-0.003 0.0155,-0.0138 0.003,-0.003 0.007,-0.007 0.003,-0.003 0.009,-0.009 0.003,-0.003 0.007,-0.007 0.003,-0.005 0.009,-0.0103 0.0207,-0.0276 0.0138,-0.0172 0.0121,-0.0121 0.0155,-0.019 0.0155,-0.0207 0.0138,-0.019 0.003,-0.005 0.007,-0.009 0.003,-0.005 0.009,-0.0103 0.003,-0.005 0.005,-0.0103 0.003,-0.005 0.009,-0.0103 0.002,-0.005 0.005,-0.0103 0.005,-0.007 0.009,-0.0121 0.0103,-0.0138 0.0138,-0.0207 0.003,-0.005 0.005,-0.0103 0.003,-0.007 0.009,-0.0121 0.003,-0.005 0.005,-0.0103 0.003,-0.007 0.009,-0.0121 0.003,-0.009 0.0103,-0.0224 0.003,-0.005 0.005,-0.0121 0.003,-0.007 0.009,-0.0138 0.003,-0.005 0.005,-0.0103 0.003,-0.007 0.009,-0.0138 0.002,-0.005 0.003,-0.0121 0.003,-0.007 0.007,-0.0138 0.005,-0.009 0.0121,-0.0258 0.0172,-0.0431 0.0121,-0.0276 0.002,-0.005 0.003,-0.0121 0.003,-0.009 0.007,-0.0155 0.002,-0.007 0.003,-0.0138 0.003,-0.007 0.007,-0.0155 0.005,-0.0155 0.009,-0.0276 0.002,-0.007 0.003,-0.0138 0.003,-0.007 0.007,-0.0155 -0.007,0.0172 0.009,-0.0293 0.003,-0.009 0.0103,-0.0293 0,-0.007 0.002,-0.0138 0.003,-0.009 0.005,-0.0172 0.002,-0.007 0.003,-0.0138 0.002,-0.009 0.005,-0.0172 0,-0.005 0.002,-0.0121 0.003,-0.009 0.005,-0.0172 0.002,-0.0121 0.005,-0.0327 0,-0.007 0.002,-0.0138 0.003,-0.009 0.005,-0.0172 0,-0.007 0.002,-0.0138 0.002,-0.009 0.003,-0.0172 0.002,-0.0121 0.005,-0.0327 0,-0.007 0.002,-0.0155 0.003,-0.009 0.005,-0.0172 0,-0.0121 0.003,-0.0327 0,-0.007 0,-0.0138 0.002,-0.009 0.003,-0.019 0.003,-0.0207 0.003,-0.0327 0.002,-0.0121 0.002,-0.0327 0.002,-0.0121 0.002,-0.0344 0.002,-0.0121 0.002,-0.0327 0,-0.009 0,-0.0155 0.002,-0.009 0.003,-0.019 0,-0.007 0,-0.0138 0.002,-0.009 0.002,-0.019 0,-0.007 0,-0.0155 0,-0.009 0,-0.0172 0,-0.009 0,-0.0155 0,-0.009 0,-0.0172 0,-0.009 -0.002,-0.0155 0,-0.009 0,-0.019 0,-0.007 0,-0.0155 0,-0.009 0,-0.0172 0,-0.0103 -0.003,-0.0345 0,-0.0207 -0.002,-0.031 0,-0.0121 -0.003,-0.0362 0,-0.0207 -0.002,-0.031 0,-0.0121 -0.003,-0.0327 -0.002,-0.007 -0.003,-0.0155 0,-0.009 0,-0.0172 -0.003,-0.0207 -0.007,-0.0327 -0.002,-0.007 -0.003,-0.0138 -0.002,-0.009 -0.002,-0.0172 -0.002,-0.0121 -0.005,-0.0327 -0.002,-0.0121 -0.005,-0.0327 -0.007,-0.0207 -0.009,-0.031 -0.003,-0.0207 -0.005,-0.0293 -0.003,-0.007 -0.005,-0.0138 -0.002,-0.009 -0.003,-0.0172 -0.002,-0.007 -0.005,-0.0138 -0.003,-0.009 -0.003,-0.0172 -0.0155,-0.0465 -0.009,-0.0293 -0.003,-0.0121 -0.009,-0.0293 -0.003,-0.005 -0.007,-0.0121 -0.002,-0.009 -0.003,-0.0155 -0.002,-0.005 -0.0103,-0.0293 -0.007,-0.0172 -0.0103,-0.0276 -0.003,-0.005 -0.007,-0.0121 -0.002,-0.009 -0.003,-0.0155 -0.003,-0.005 -0.007,-0.0121 -0.003,-0.007 -0.005,-0.0138 -0.007,-0.0172 -0.0121,-0.0258 -0.007,-0.0172 -0.0103,-0.0241 -0.007,-0.0172 -0.0121,-0.0258 -0.003,-0.005 -0.007,-0.0103 -0.003,-0.007 -0.005,-0.0121 -0.0103,-0.0172 -0.0138,-0.0241 -0.0155,-0.0241 -0.0138,-0.0224 -0.005,-0.005 -0.009,-0.0103 -0.002,-0.007 -0.005,-0.0121 -0.003,-0.007 -0.0138,-0.0207 -0.003,-0.005 -0.007,-0.0103 -0.003,-0.005 -0.005,-0.0103 -0.009,-0.0155 -0.0293,-0.0396 -0.003,-0.003 -0.0276,-0.0379 -0.0207,-0.0241 -0.031,-0.0345 -0.0103,-0.0121 -0.031,-0.0327 -0.0138,-0.0155 -0.0293,-0.0293 -0.0121,-0.009 -0.0327,-0.0258 -0.0172,-0.0138 -0.0327,-0.0258 -0.0396,-0.0258 -0.0327,-0.0224 -0.0344,-0.0207 -0.031,-0.019 0,0 -0.031,-0.0155 -0.007,-0.003 -0.0327,-0.0121 -0.0224,-0.009 -0.0327,-0.0121 -0.009,-0.002 -0.0155,-0.003 -0.007,-0.003 -0.0138,-0.007 -0.031,-0.005 -0.031,-0.005 -0.0103,-0.002 -0.031,-0.002 -0.005,0 -0.009,0 -0.003,0 -0.007,0 h -0.56844 v 2.55626 0 z"
           id="path1464" />
      </g>
      <g
         aria-label="STANDBY"
         id="text3562-1-57-5"
         style="font-size:3.52778px;line-height:1.25;font-family:'MS 33558';-inkscape-font-specification:'MS 33558, ';fill:#00ff00;stroke-width:0.264583">
        <path
           d="m 99.73824,126.42198 0.02756,0.0121 0.03101,0.0155 0.02756,0.0155 q 0.01206,0.009 0.02584,0.0172 0.0155,0.007 0.02928,0.0155 0.34106,0.22394 0.42202,0.62012 0.031,0.15503 0.0138,0.31867 -0.0276,0.23427 -0.16536,0.43409 -0.13608,0.19809 -0.342787,0.30661 -0.222209,0.11713 -0.459921,0.11713 -0.399631,0 -0.763089,-0.10163 -0.363458,-0.10335 -0.518487,-0.54949 -0.02067,-0.0568 -0.03101,-0.11713 -0.01033,-0.0603 -0.02412,-0.12058 -0.02584,-0.12403 0.06029,-0.21877 0.08785,-0.0947 0.217041,-0.0723 0.136081,0.0276 0.18948,0.16881 l 0.0052,0.0155 q 0.08268,0.37379 0.287666,0.44614 0.206705,0.0724 0.573608,0.0655 0.33762,0 0.463366,-0.31695 0.05512,-0.14125 0.01722,-0.29284 -0.0379,-0.1533 -0.149861,-0.25493 -0.04995,-0.0431 -0.130914,-0.081 l -0.79754,-0.34968 -0.02584,-0.0138 q -0.391019,-0.20671 -0.485759,-0.58739 -0.115411,-0.44097 0.160197,-0.79065 0.27733,-0.3514 0.726915,-0.3514 l 0.189481,0.005 q 0.09302,0.0172 0.179145,0.0345 0.08613,0.0155 0.173977,0.0551 0.217042,0.10163 0.332452,0.27905 0.11541,0.17743 0.20843,0.38413 0.009,0.0189 0.0155,0.0448 0.019,0.0844 -0.0172,0.15331 -0.0207,0.0431 -0.0431,0.0654 -0.0224,0.0224 -0.0362,0.031 -0.0896,0.0637 -0.196372,0.0379 -0.106798,-0.0241 -0.163642,-0.1378 -0.04479,-0.0999 -0.09646,-0.20326 -0.04995,-0.10508 -0.141249,-0.17398 -0.0379,-0.0276 -0.07407,-0.0396 -0.03445,-0.0138 -0.07752,-0.0293 l -0.111966,-0.019 -0.158474,-0.005 q -0.230822,0.003 -0.353123,0.19982 -0.08268,0.12575 -0.06201,0.28078 0.02412,0.1912 0.179145,0.29627 0.0069,0.005 0.0155,0.0121 0.0086,0.005 0.01895,0.0103 l 0.01895,0.009 0.02067,0.009 z"
           id="path1467" />
        <path
           d="m 101.62099,128.0584 v -2.80086 h -0.63218 q -0.24116,-0.019 -0.24116,-0.24116 0.002,-0.22393 0.24116,-0.2446 h 1.74839 q 0.23771,0.0189 0.23771,0.2446 0.002,0.22393 -0.23771,0.24116 h -0.63046 v 2.80086 q -0.0396,0.24461 -0.25493,0.24116 -0.2136,-0.003 -0.23082,-0.24116 z"
           id="path1469" />
        <path
           d="m 105.35547,127.16785 -0.52365,-1.44695 -0.5271,1.44695 z m -0.52365,-1.44695 0.52365,1.44695 z m -1.32981,2.24621 q 0.27561,-0.75965 0.55122,-1.51757 0.27733,-0.75964 0.55466,-1.51929 0.0568,-0.15675 0.22565,-0.15847 0.16881,-0.002 0.22738,0.15847 l 1.10415,3.04547 q 0.0517,0.24288 -0.14814,0.31351 -0.19981,0.0706 -0.30834,-0.1447 l -0.17742,-0.49265 h -1.40388 l -0.17225,0.48059 q -0.11024,0.21704 -0.3135,0.14297 -0.20326,-0.0758 -0.13953,-0.30833 z"
           id="path1471" />
        <path
           d="m 108.88325,128.06185 q 0,0.18087 -0.1757,0.23082 -0.17398,0.0482 -0.27044,-0.10335 l -1.44694,-2.32028 v 2.19281 q -0.0379,0.24116 -0.2446,0.24116 -0.20498,0 -0.24116,-0.24116 v -3.04202 q 0.0258,-0.17915 0.18259,-0.23599 0.15848,-0.0568 0.26355,0.1068 l 1.44694,2.32371 v -2.19452 q 0.0327,-0.24633 0.24977,-0.24288 0.21877,0.002 0.23599,0.24288 z"
           id="path1473" />
        <path
           d="m 109.61878,124.77178 h 0.81132 q 0.60462,0 0.90606,0.55122 0.30145,0.55121 0.30145,1.21267 0,0.66146 -0.30317,1.21267 -0.30145,0.55122 -0.90434,0.55122 h -0.81132 0.003 -0.003 q -0.0568,-0.009 -0.062,-0.0103 -0.17915,-0.0431 -0.17742,-0.23427 h -0.002 l 0.002,-3.04202 q -0.002,-0.005 -0.002,-0.0138 0.005,-0.0947 0.0741,-0.1602 0.0706,-0.0672 0.16881,-0.0672 z m 0.81132,3.04202 q 0.003,0 0.007,0 0.003,0 0.009,0 0.003,0 0.005,0 0.003,-0.002 0.009,-0.002 0.003,0 0.007,0 0.005,-0.002 0.0103,-0.002 0.003,0 0.007,0 0.003,-0.002 0.009,-0.002 0.003,0 0.007,0 0.003,-0.002 0.009,-0.002 0.007,-0.003 0.0138,-0.003 0.003,0 0.007,-0.002 0.003,-0.003 0.009,-0.005 0.003,0 0.007,0 0.005,-0.002 0.0103,-0.003 0.003,0 0.007,-0.002 0.003,-0.002 0.009,-0.003 0.0103,-0.003 0.0155,-0.007 0.031,-0.0103 0.0172,-0.007 0.003,0 0.007,-0.002 0.003,-0.003 0.009,-0.005 0.0155,-0.0103 0.0138,-0.009 0.0172,-0.009 0.0172,-0.009 0.003,-0.002 0.007,-0.003 0.003,-0.003 0.009,-0.007 0.0155,-0.0103 0.0155,-0.0103 0.003,-0.002 0.007,-0.003 0.005,-0.003 0.0103,-0.007 0.003,-0.002 0.007,-0.005 0.003,-0.003 0.009,-0.007 0.003,-0.002 0.007,-0.003 0.003,-0.003 0.009,-0.007 0.003,-0.003 0.0172,-0.0138 0.0138,-0.0138 0.0138,-0.0138 0.003,-0.003 0.007,-0.007 0.003,-0.003 0.009,-0.009 0.003,-0.003 0.007,-0.007 0.003,-0.003 0.009,-0.009 0.005,-0.003 0.0155,-0.0138 0.003,-0.003 0.007,-0.007 0.003,-0.003 0.009,-0.009 0.003,-0.003 0.007,-0.007 0.003,-0.005 0.009,-0.0103 0.0207,-0.0276 0.0138,-0.0172 0.0121,-0.0121 0.0155,-0.019 0.0155,-0.0207 0.0138,-0.019 0.003,-0.005 0.007,-0.009 0.003,-0.005 0.009,-0.0103 0.003,-0.005 0.005,-0.0103 0.003,-0.005 0.009,-0.0103 0.002,-0.005 0.005,-0.0103 0.005,-0.007 0.009,-0.0121 0.0103,-0.0138 0.0138,-0.0207 0.003,-0.005 0.005,-0.0103 0.003,-0.007 0.009,-0.0121 0.003,-0.005 0.005,-0.0103 0.003,-0.007 0.009,-0.0121 0.003,-0.009 0.0103,-0.0224 0.003,-0.005 0.005,-0.0121 0.003,-0.007 0.009,-0.0138 0.003,-0.005 0.005,-0.0103 0.003,-0.007 0.009,-0.0138 0.002,-0.005 0.003,-0.0121 0.003,-0.007 0.007,-0.0138 0.005,-0.009 0.0121,-0.0258 0.0172,-0.0431 0.0121,-0.0276 0.002,-0.005 0.003,-0.0121 0.003,-0.009 0.007,-0.0155 0.002,-0.007 0.003,-0.0138 0.003,-0.007 0.007,-0.0155 0.005,-0.0155 0.009,-0.0276 0.002,-0.007 0.003,-0.0138 0.003,-0.007 0.007,-0.0155 -0.007,0.0172 0.009,-0.0293 0.003,-0.009 0.0103,-0.0293 0,-0.007 0.002,-0.0138 0.003,-0.009 0.005,-0.0172 0.002,-0.007 0.003,-0.0138 0.002,-0.009 0.005,-0.0172 0,-0.005 0.002,-0.0121 0.003,-0.009 0.005,-0.0172 0.002,-0.0121 0.005,-0.0327 0,-0.007 0.002,-0.0138 0.003,-0.009 0.005,-0.0172 0,-0.007 0.002,-0.0138 0.002,-0.009 0.003,-0.0172 0.002,-0.0121 0.005,-0.0327 0,-0.007 0.002,-0.0155 0.003,-0.009 0.005,-0.0172 0,-0.0121 0.003,-0.0327 0,-0.007 0,-0.0138 0.002,-0.009 0.003,-0.019 0.003,-0.0207 0.003,-0.0327 0.002,-0.0121 0.002,-0.0327 0.002,-0.0121 0.002,-0.0344 0.002,-0.0121 0.002,-0.0327 0,-0.009 0,-0.0155 0.002,-0.009 0.003,-0.019 0,-0.007 0,-0.0138 0.002,-0.009 0.002,-0.019 0,-0.007 0,-0.0155 0,-0.009 0,-0.0172 0,-0.009 0,-0.0155 0,-0.009 0,-0.0172 0,-0.009 -0.002,-0.0155 0,-0.009 0,-0.019 0,-0.007 0,-0.0155 0,-0.009 0,-0.0172 0,-0.0103 -0.003,-0.0345 0,-0.0207 -0.002,-0.031 0,-0.0121 -0.003,-0.0362 0,-0.0207 -0.002,-0.031 0,-0.0121 -0.003,-0.0327 -0.002,-0.007 -0.003,-0.0155 0,-0.009 0,-0.0172 -0.003,-0.0207 -0.007,-0.0327 -0.002,-0.007 -0.003,-0.0138 -0.002,-0.009 -0.002,-0.0172 -0.002,-0.0121 -0.005,-0.0327 -0.002,-0.0121 -0.005,-0.0327 -0.007,-0.0207 -0.009,-0.031 -0.003,-0.0207 -0.005,-0.0293 -0.003,-0.007 -0.005,-0.0138 -0.002,-0.009 -0.003,-0.0172 -0.002,-0.007 -0.005,-0.0138 -0.003,-0.009 -0.003,-0.0172 -0.0155,-0.0465 -0.009,-0.0293 -0.003,-0.0121 -0.009,-0.0293 -0.003,-0.005 -0.007,-0.0121 -0.002,-0.009 -0.003,-0.0155 -0.002,-0.005 -0.0103,-0.0293 -0.007,-0.0172 -0.0103,-0.0276 -0.003,-0.005 -0.007,-0.0121 -0.002,-0.009 -0.003,-0.0155 -0.003,-0.005 -0.007,-0.0121 -0.003,-0.007 -0.005,-0.0138 -0.007,-0.0172 -0.0121,-0.0258 -0.007,-0.0172 -0.0103,-0.0241 -0.007,-0.0172 -0.0121,-0.0258 -0.003,-0.005 -0.007,-0.0103 -0.003,-0.007 -0.005,-0.0121 -0.0103,-0.0172 -0.0138,-0.0241 -0.0155,-0.0241 -0.0138,-0.0224 -0.005,-0.005 -0.009,-0.0103 -0.002,-0.007 -0.005,-0.0121 -0.003,-0.007 -0.0138,-0.0207 -0.003,-0.005 -0.007,-0.0103 -0.003,-0.005 -0.005,-0.0103 -0.009,-0.0155 -0.0293,-0.0396 -0.003,-0.003 -0.0276,-0.0379 -0.0207,-0.0241 -0.031,-0.0345 -0.0103,-0.0121 -0.031,-0.0327 -0.0138,-0.0155 -0.0293,-0.0293 -0.0121,-0.009 -0.0327,-0.0258 -0.0172,-0.0138 -0.0327,-0.0258 -0.0396,-0.0258 -0.0327,-0.0224 -0.0345,-0.0207 -0.031,-0.019 0,0 -0.031,-0.0155 -0.007,-0.003 -0.0327,-0.0121 -0.0224,-0.009 -0.0327,-0.0121 -0.009,-0.002 -0.0155,-0.003 -0.007,-0.003 -0.0138,-0.007 -0.031,-0.005 -0.031,-0.005 -0.0103,-0.002 -0.031,-0.002 -0.005,0 -0.009,0 -0.003,0 -0.007,0 h -0.56844 v 2.55626 0 z"
           id="path1475" />
        <path
           d="m 113.39116,124.77178 q 0.32729,0.0276 0.5495,0.19809 0.22393,0.17054 0.31005,0.41169 0.0861,0.23944 0.0224,0.5116 -0.062,0.27044 -0.30317,0.49782 0.26527,0.27905 0.33073,0.60289 0.0654,0.32384 -0.0413,0.60634 -0.10508,0.28077 -0.36691,0.47714 -0.26182,0.19637 -0.6494,0.22221 h -0.005 -0.9164 q -0.21187,-0.0293 -0.2446,-0.23943 v -3.04375 q 0.0293,-0.21359 0.2446,-0.2446 z m -0.1533,3.0403 q 0.29283,-0.0121 0.44614,-0.18948 0.1533,-0.17742 0.15847,-0.39274 0.007,-0.21704 -0.1378,-0.40652 -0.1447,-0.18948 -0.44614,-0.2291 h -0.69419 v 1.21784 z m 0.1533,-2.5511 h -0.82682 v 0.84922 h 0.83199 q 0.2136,-0.0224 0.31695,-0.15331 0.10507,-0.13263 0.10163,-0.28249 -0.002,-0.15159 -0.10852,-0.27561 -0.1068,-0.12575 -0.31523,-0.13781 z"
           id="path1477" />
        <path
           d="m 116.83971,124.89753 q 0.13435,-0.20154 0.32384,-0.0965 0.1912,0.10508 0.0982,0.32901 l -0.99047,1.76906 v 1.15238 q -0.0155,0.24461 -0.24115,0.24461 -0.22393,0 -0.23944,-0.24461 v -1.15238 l -0.98874,-1.76906 q -0.0913,-0.22221 0.093,-0.32556 0.18431,-0.10508 0.32901,0.093 l 0.80787,1.44349 z"
           id="path1479" />
      </g>
      <path
         id="path61051-4-2-6-7"
         style="fill:#ff0000;stroke-width:0.186846"
         transform="scale(-1)"
         d="m -87.319843,-144.446 a 3.175,3.175 0 0 1 -3.175,3.175 3.175,3.175 0 0 1 -3.174999,-3.175 3.175,3.175 0 0 1 3.174999,-3.175 3.175,3.175 0 0 1 3.175,3.175 z" />
      <path
         id="path61051-4-2-6-6-6"
         style="fill:#ff0000;stroke-width:0.186846"
         transform="scale(-1)"
         d="m -50.539886,-95.713402 a 3.175,3.175 0 0 1 -3.175,3.175 3.175,3.175 0 0 1 -3.175,-3.175 3.175,3.175 0 0 1 3.175,-3.175 3.175,3.175 0 0 1 3.175,3.175 z" />
      <path
         id="path61051-4-2-6-6-4-1"
         style="fill:#ff0000;stroke-width:0.186846"
         transform="scale(-1)"
         d="m -124.09978,-95.713402 a 3.175,3.175 0 0 1 -3.175,3.175 3.175,3.175 0 0 1 -3.175,-3.175 3.175,3.175 0 0 1 3.175,-3.175 3.175,3.175 0 0 1 3.175,3.175 z" />
    </g>
  </g>
</svg>
