<?xml version="1.0" encoding="UTF-8" standalone="no"?>
<!-- Created with Inkscape (http://www.inkscape.org/) -->

<svg
   width="210mm"
   height="297mm"
   viewBox="0 0 210 297"
   version="1.1"
   id="svg882"
   inkscape:version="1.1 (c68e22c387, 2021-05-23)"
   sodipodi:docname="VTR Panel Bottom.svg"
   xmlns:inkscape="http://www.inkscape.org/namespaces/inkscape"
   xmlns:sodipodi="http://sodipodi.sourceforge.net/DTD/sodipodi-0.dtd"
   xmlns="http://www.w3.org/2000/svg"
   xmlns:svg="http://www.w3.org/2000/svg">
  <sodipodi:namedview
     id="namedview884"
     pagecolor="#ffffff"
     bordercolor="#666666"
     borderopacity="1.0"
     inkscape:pageshadow="2"
     inkscape:pageopacity="0.0"
     inkscape:pagecheckerboard="0"
     inkscape:document-units="mm"
     showgrid="false"
     inkscape:zoom="0.77771465"
     inkscape:cx="396.67505"
     inkscape:cy="561.25984"
     inkscape:window-width="2560"
     inkscape:window-height="1361"
     inkscape:window-x="-9"
     inkscape:window-y="-9"
     inkscape:window-maximized="1"
     inkscape:current-layer="layer1" />
  <defs
     id="defs879" />
  <g
     inkscape:label="Layer 1"
     inkscape:groupmode="layer"
     id="layer1">
    <g
       id="g1119"
       transform="translate(-15.649485,-14.969072)">
      <rect
         style="fill:none;stroke:#000000;stroke-width:0.249328;stroke-miterlimit:4;stroke-dasharray:none;stroke-opacity:1"
         id="rect60929-7"
         width="152.15067"
         height="66.425674"
         x="49.335751"
         y="85.053917" />
      <path
         id="path61051-40"
         style="fill:#ff0000;stroke-width:0.186846"
         d="m 62.510995,141.72935 a 3.175,3.175 0 0 1 -3.175,3.175 3.175,3.175 0 0 1 -3.175,-3.175 3.175,3.175 0 0 1 3.175,-3.175 3.175,3.175 0 0 1 3.175,3.175 z" />
      <path
         id="path61051-4-9-2"
         style="fill:#ff0000;stroke-width:0.186846"
         transform="scale(1,-1)"
         d="m 62.510995,-95.054153 a 3.175,3.175 0 0 1 -3.175,3.175 3.175,3.175 0 0 1 -3.175,-3.175 3.175,3.175 0 0 1 3.175,-3.175 3.175,3.175 0 0 1 3.175,3.175 z" />
      <path
         id="path61051-4-1"
         style="fill:#ff0000;stroke-width:0.186846"
         transform="scale(-1,1)"
         d="m -188.56116,141.72935 a 3.175,3.175 0 0 1 -3.175,3.175 3.175,3.175 0 0 1 -3.175,-3.175 3.175,3.175 0 0 1 3.175,-3.175 3.175,3.175 0 0 1 3.175,3.175 z" />
      <path
         id="path61051-4-2-60"
         style="fill:#ff0000;stroke-width:0.186846"
         transform="scale(-1)"
         d="m -188.56116,-95.054146 a 3.175,3.175 0 0 1 -3.175,3.175 3.175,3.175 0 0 1 -3.175,-3.175 3.175,3.175 0 0 1 3.175,-3.175 3.175,3.175 0 0 1 3.175,3.175 z" />
      <path
         id="path14048-4"
         style="fill:#ff0000;stroke-width:0.170394"
         d="m 95.106126,115.69341 a 6.3499999,6.3499999 0 0 1 -6.35,6.35 6.3499999,6.3499999 0 0 1 -6.35,-6.35 6.3499999,6.3499999 0 0 1 6.35,-6.35 6.3499999,6.3499999 0 0 1 6.35,6.35 z" />
      <path
         id="path14048-3-4"
         style="fill:#ff0000;stroke-width:0.170394"
         d="m 168.66601,115.69341 a 6.3499999,6.3499999 0 0 1 -6.35,6.35 6.3499999,6.3499999 0 0 1 -6.35,-6.35 6.3499999,6.3499999 0 0 1 6.35,-6.35 6.3499999,6.3499999 0 0 1 6.35,6.35 z" />
      <path
         id="path61051-4-2-6-2"
         style="fill:#ff0000;stroke-width:0.186846"
         transform="scale(-1)"
         d="m -122.36109,-141.72433 a 3.175,3.175 0 0 1 -3.175,3.175 3.175,3.175 0 0 1 -3.175,-3.175 3.175,3.175 0 0 1 3.175,-3.175 3.175,3.175 0 0 1 3.175,3.175 z" />
      <path
         id="path61051-4-2-6-6-9"
         style="fill:#ff0000;stroke-width:0.186846"
         transform="scale(-1)"
         d="m -85.581126,-92.991745 a 3.175,3.175 0 0 1 -3.175,3.175 3.175,3.175 0 0 1 -3.175,-3.175 3.175,3.175 0 0 1 3.175,-3.175 3.175,3.175 0 0 1 3.175,3.175 z" />
      <path
         id="path61051-4-2-6-6-4-9"
         style="fill:#ff0000;stroke-width:0.186846"
         transform="scale(-1)"
         d="m -159.14101,-92.991745 a 3.175,3.175 0 0 1 -3.175,3.175 3.175,3.175 0 0 1 -3.175,-3.175 3.175,3.175 0 0 1 3.175,-3.175 3.175,3.175 0 0 1 3.175,3.175 z" />
    </g>
  </g>
</svg>
