<?xml version="1.0" encoding="UTF-8" standalone="no"?>
<svg
   xmlns:dc="http://purl.org/dc/elements/1.1/"
   xmlns:cc="http://creativecommons.org/ns#"
   xmlns:rdf="http://www.w3.org/1999/02/22-rdf-syntax-ns#"
   xmlns:svg="http://www.w3.org/2000/svg"
   xmlns="http://www.w3.org/2000/svg"
   xmlns:sodipodi="http://sodipodi.sourceforge.net/DTD/sodipodi-0.dtd"
   xmlns:inkscape="http://www.inkscape.org/namespaces/inkscape"
   width="210mm"
   height="297mm"
   viewBox="0 0 210 297"
   version="1.1"
   id="svg7055"
   inkscape:version="1.0.1 (3bc2e813f5, 2020-09-07)"
   sodipodi:docname="Top Plate.svg">
  <defs
     id="defs7049" />
  <sodipodi:namedview
     id="base"
     pagecolor="#ffffff"
     bordercolor="#666666"
     borderopacity="1.0"
     inkscape:pageopacity="0.0"
     inkscape:pageshadow="2"
     inkscape:zoom="1"
     inkscape:cx="400"
     inkscape:cy="560"
     inkscape:document-units="mm"
     inkscape:current-layer="layer1"
     inkscape:document-rotation="0"
     showgrid="false"
     inkscape:window-width="3440"
     inkscape:window-height="1377"
     inkscape:window-x="-8"
     inkscape:window-y="-8"
     inkscape:window-maximized="1" />
  <metadata
     id="metadata7052">
    <rdf:RDF>
      <cc:Work
         rdf:about="">
        <dc:format>image/svg+xml</dc:format>
        <dc:type
           rdf:resource="http://purl.org/dc/dcmitype/StillImage" />
        <dc:title />
      </cc:Work>
    </rdf:RDF>
  </metadata>
  <g
     inkscape:label="Layer 1"
     inkscape:groupmode="layer"
     id="layer1">
    <g
       id="g1029">
      <path
         id="rect1621-1-5"
         style="fill:none;fill-opacity:1;stroke:#050000;stroke-width:0.249961;stroke-miterlimit:4;stroke-dasharray:none;stroke-opacity:1"
         d="M 21.731741,51.818643 H 192.93178 V 229.36868 H 21.731741 Z" />
      <path
         id="path1830-6-8"
         style="fill:#ff0000;fill-opacity:1;stroke:none;stroke-width:0.0526391;stroke-miterlimit:4;stroke-dasharray:none;stroke-opacity:1"
         d="m 34.78508,57.893332 a 3.175436,3.1749963 0 0 1 -3.174539,3.17501 3.175436,3.1749963 0 0 1 -3.17633,-3.17323 3.175436,3.1749963 0 0 1 3.172769,-3.17677 3.175436,3.1749963 0 0 1 3.1781,3.17145" />
      <path
         id="path1830-4-9-5"
         style="fill:#ff0000;fill-opacity:1;stroke:none;stroke-width:0.0526394;stroke-miterlimit:4;stroke-dasharray:none;stroke-opacity:1"
         d="m 179.77976,57.844232 a 3.175436,3.1750029 0 0 0 3.17455,3.175 3.175436,3.1750029 0 0 0 3.17633,-3.17322 3.175436,3.1750029 0 0 0 -3.17278,-3.17678 3.175436,3.1750029 0 0 0 -3.1781,3.17145" />
      <path
         id="path1830-8-4-2"
         style="fill:#ff0000;fill-opacity:1;stroke:none;stroke-width:0.0526394;stroke-miterlimit:4;stroke-dasharray:none;stroke-opacity:1"
         d="m 34.7856,223.98315 a 3.175436,3.1750029 0 0 0 -3.17454,-3.17499 3.175436,3.1750029 0 0 0 -3.17633,3.17322 3.175436,3.1750029 0 0 0 3.172771,3.17678 3.175436,3.1750029 0 0 0 3.178099,-3.17146" />
      <path
         id="path1830-7-8-4"
         style="fill:#ff0000;fill-opacity:1;stroke:none;stroke-width:0.0526391;stroke-miterlimit:4;stroke-dasharray:none;stroke-opacity:1"
         d="m 179.78607,223.98819 a 3.175436,3.1749963 0 0 1 3.17456,-3.17499 3.175436,3.1749963 0 0 1 3.17632,3.17321 3.175436,3.1749963 0 0 1 -3.17276,3.17679 3.175436,3.1749963 0 0 1 -3.17811,-3.17145" />
      <rect
         style="fill:#ff0000;stroke-width:0.254083"
         id="rect4943"
         width="142.24001"
         height="137.16"
         x="36.225243"
         y="72.027145" />
      <path
         d="m 27.126677,67.163019 v -2.800857 h -0.632173 q -0.241157,-0.01895 -0.241157,-0.241156 0.0017,-0.223931 0.241157,-0.244601 h 1.748382 q 0.237711,0.01895 0.237711,0.244601 0.0017,0.223931 -0.237711,0.241156 h -0.630451 v 2.800857 q -0.03962,0.244601 -0.254937,0.241156 -0.213595,-0.0034 -0.230821,-0.241156 z"
         style="font-size:3.52777px;line-height:1.25;font-family:'MS 33558';-inkscape-font-specification:'MS 33558, ';text-align:center;word-spacing:-2.64583px;text-anchor:middle;fill:#00ff00;stroke-width:0.264583"
         id="path1564" />
      <path
         d="m 28.478874,69.300696 q 0.158474,0.477144 0.118856,0.990462 -0.0379,0.513318 -0.280775,0.937064 -0.153306,0.26355 -0.418578,0.447862 -0.265272,0.184312 -0.585665,0.129191 -0.521931,-0.09129 -0.79926,-0.544324 -0.27733,-0.453029 -0.318671,-1.007689 -0.03962,-0.556381 0.149861,-1.08348 0.191203,-0.527098 0.608058,-0.766532 0.20326,-0.117133 0.425469,-0.117133 0.423745,0 0.692462,0.320393 0.268717,0.318671 0.408243,0.694186 z M 27.391949,68.77532 q -0.316948,0 -0.48059,0.341063 -0.161919,0.341064 -0.204982,0.58222 -0.03273,0.1757 -0.02412,0.425469 0.0086,0.249768 0.07235,0.49437 0.06373,0.242878 0.191202,0.439248 0.127468,0.194648 0.334174,0.258382 0.241156,0.07579 0.415133,-0.09474 0.175699,-0.172254 0.265272,-0.365179 0.09129,-0.198093 0.124023,-0.520208 0.03445,-0.322116 -0.0155,-0.642509 -0.04823,-0.322116 -0.191203,-0.578775 -0.142971,-0.258382 -0.40652,-0.329006 -0.03445,-0.01033 -0.07924,-0.01033 z"
         style="font-size:3.52777px;line-height:1.25;font-family:'MS 33558';-inkscape-font-specification:'MS 33558, ';text-align:center;word-spacing:-2.64583px;text-anchor:middle;fill:#00ff00;stroke-width:0.264583"
         id="path1566" />
      <path
         d="m 28.396192,80.25952 q 0.110243,0.194648 -0.06201,0.327284 -0.08268,0.05857 -0.191203,0.03962 -0.106798,-0.01895 -0.156751,-0.106798 l -0.849215,-1.341861 h -0.430635 v 1.212671 q 0,0.149861 -0.136081,0.21704 -0.136081,0.06546 -0.254937,-0.02584 -0.09474,-0.07062 -0.09474,-0.191202 v -3.043736 q 0,-0.09991 0.0689,-0.170531 0.07062,-0.07063 0.172254,-0.07063 h 1.0697 q 0.38585,0 0.67007,0.246324 0.284219,0.244601 0.353121,0.621838 0.07235,0.404798 -0.172254,0.75792 -0.242879,0.351399 -0.645954,0.427191 l -0.03273,0.0052 z m -0.864717,-1.565792 q 0.1757,0 0.323838,-0.106798 0.149862,-0.106798 0.201538,-0.279052 0.08096,-0.265272 -0.07407,-0.478867 Q 27.827752,77.613693 27.55559,77.5913 h -0.849214 v 1.102428 z"
         style="font-size:3.52777px;line-height:1.25;font-family:'MS 33558';-inkscape-font-specification:'MS 33558, ';text-align:center;word-spacing:-2.64583px;text-anchor:middle;fill:#00ff00;stroke-width:0.264583"
         id="path1568" />
      <path
         d="m 28.219631,81.995845 h -1.427989 v 0.942231 h 1.088648 q 0.244601,0.03617 0.242879,0.246324 0,0.208428 -0.242879,0.242879 h -1.088648 v 1.131711 h 1.427989 q 0.242879,0.03617 0.242879,0.242879 0,0.206705 -0.242879,0.241156 h -1.667422 q -0.215318,-0.02756 -0.244601,-0.244601 v -3.042013 q 0.03273,-0.227376 0.244601,-0.241156 h 1.667422 q 0.242879,0.01895 0.241157,0.242879 0,0.222208 -0.241157,0.237711 z"
         style="font-size:3.52777px;line-height:1.25;font-family:'MS 33558';-inkscape-font-specification:'MS 33558, ';text-align:center;word-spacing:-2.64583px;text-anchor:middle;fill:#00ff00;stroke-width:0.264583"
         id="path1570" />
      <path
         d="m 26.46522,89.45446 q -0.211873,-0.01378 -0.244601,-0.239434 v -3.045457 q 0.03617,-0.248047 0.251492,-0.242879 0.215318,0.0034 0.234266,0.242879 v 2.804301 l 1.589908,-0.0017 q 0.244601,0.02756 0.241156,0.248046 -0.0017,0.218763 -0.242879,0.234266 z"
         style="font-size:3.52777px;line-height:1.25;font-family:'MS 33558';-inkscape-font-specification:'MS 33558, ';text-align:center;word-spacing:-2.64583px;text-anchor:middle;fill:#00ff00;stroke-width:0.264583"
         id="path1572" />
      <path
         d="m 27.982782,92.730739 -0.523654,-1.446937 -0.527098,1.446937 z m -0.523654,-1.446937 0.523654,1.446937 z m -1.329804,2.246197 q 0.275607,-0.759642 0.551214,-1.517561 0.27733,-0.759642 0.55466,-1.519284 0.05684,-0.156752 0.225653,-0.158474 0.168809,-0.0017 0.227376,0.158474 l 1.10415,3.045458 q 0.05168,0.242878 -0.148139,0.313503 -0.199815,0.07062 -0.308335,-0.144694 l -0.177422,-0.492648 h -1.403873 l -0.172255,0.48059 q -0.110242,0.217041 -0.313503,0.142971 -0.20326,-0.07579 -0.139526,-0.308335 z"
         style="font-size:3.52777px;line-height:1.25;font-family:'MS 33558';-inkscape-font-specification:'MS 33558, ';text-align:center;word-spacing:-2.64583px;text-anchor:middle;fill:#00ff00;stroke-width:0.264583"
         id="path1574" />
      <path
         d="m 28.701944,98.031005 q -0.0379,0.24116 -0.244602,0.24116 -0.204982,-0.002 -0.241156,-0.24116 v -2.151456 l -0.590832,1.011136 q -0.09474,0.11369 -0.211873,0.11885 -0.115411,0.005 -0.206705,-0.11885 l -0.587388,-1.005968 0.0017,2.146288 q -0.02756,0.23943 -0.249769,0.23943 -0.220486,-0.002 -0.237711,-0.23943 v -3.042011 q 0.01378,-0.198093 0.173977,-0.235989 0.160196,-0.03962 0.279052,0.10852 l 0.828543,1.424544 0.837157,-1.424544 q 0.118855,-0.148138 0.275607,-0.10852 0.158474,0.03962 0.173977,0.235989 z"
         style="font-size:3.52777px;line-height:1.25;font-family:'MS 33558';-inkscape-font-specification:'MS 33558, ';text-align:center;word-spacing:-2.64583px;text-anchor:middle;fill:#00ff00;stroke-width:0.264583"
         id="path1576" />
      <path
         d="m 27.534059,99.154105 h 0.03273 q 0.220486,0.0155 0.406521,0.0999 0.356566,0.16708 0.504705,0.54949 0.148139,0.382405 -0.0034,0.745865 -0.122301,0.28767 -0.361734,0.45131 -0.239434,0.16192 -0.546047,0.18086 l -0.03273,0.002 h -0.837156 v 1.25573 q -0.03101,0.24288 -0.244602,0.24288 -0.213595,0 -0.242878,-0.24288 v -3.043735 q 0.02584,-0.2136 0.227375,-0.24116 h 0.0155 z m 0,0.48576 h -0.837156 v 1.055925 h 0.837156 q 0.19637,0 0.346231,-0.13093 0.151584,-0.13091 0.177422,-0.32728 0.03101,-0.237705 -0.127468,-0.416855 -0.158474,-0.18086 -0.396185,-0.18086 z"
         style="font-size:3.52777px;line-height:1.25;font-family:'MS 33558';-inkscape-font-specification:'MS 33558, ';text-align:center;word-spacing:-2.64583px;text-anchor:middle;fill:#00ff00;stroke-width:0.264583"
         id="path1578" />
      <path
         d="m 26.516035,107.97353 h 0.811319 q 0.604613,0 0.906058,0.55121 0.301445,0.55121 0.301445,1.21268 0,0.66146 -0.303168,1.21267 -0.301445,0.55122 -0.904335,0.55122 h -0.811319 0.0034 -0.0034 q -0.05684,-0.009 -0.06201,-0.0103 -0.179145,-0.0431 -0.177422,-0.23427 h -0.0017 l 0.0017,-3.04201 q -0.0017,-0.005 -0.0017,-0.0138 0.0052,-0.0947 0.07407,-0.1602 0.07062,-0.0672 0.168809,-0.0672 z m 0.811319,3.04202 q 0.0034,0 0.0069,0 0.0034,0 0.0086,0 0.0034,0 0.0052,0 0.0034,-0.002 0.0086,-0.002 0.0034,0 0.0069,0 0.0052,-0.002 0.01033,-0.002 0.0034,0 0.0069,0 0.0034,-0.002 0.0086,-0.002 0.0034,0 0.0069,0 0.0034,-0.002 0.0086,-0.002 0.0069,-0.003 0.01378,-0.003 0.0034,0 0.0069,-0.002 0.0034,-0.003 0.0086,-0.005 0.0034,0 0.0069,0 0.0052,-0.002 0.01034,-0.003 0.0034,0 0.0069,-0.002 0.0034,-0.002 0.0086,-0.003 0.01034,-0.003 0.0155,-0.007 0.03101,-0.0103 0.01722,-0.007 0.0034,0 0.0069,-0.002 0.0034,-0.003 0.0086,-0.005 0.0155,-0.0103 0.01378,-0.009 0.01723,-0.009 0.01723,-0.009 0.0034,-0.002 0.0069,-0.003 0.0034,-0.003 0.0086,-0.007 0.0155,-0.0103 0.0155,-0.0103 0.0034,-0.002 0.0069,-0.003 0.0052,-0.003 0.01034,-0.007 0.0034,-0.002 0.0069,-0.005 0.0034,-0.003 0.0086,-0.007 0.0034,-0.002 0.0069,-0.003 0.0034,-0.003 0.0086,-0.007 0.0034,-0.003 0.01722,-0.0138 0.01378,-0.0138 0.01378,-0.0138 0.0034,-0.003 0.0069,-0.007 0.0034,-0.003 0.0086,-0.009 0.0034,-0.003 0.0069,-0.007 0.0034,-0.003 0.0086,-0.009 0.0052,-0.003 0.0155,-0.0138 0.0034,-0.003 0.0069,-0.007 0.0034,-0.003 0.0086,-0.009 0.0034,-0.003 0.0069,-0.007 0.0034,-0.005 0.0086,-0.0103 0.02067,-0.0276 0.01378,-0.0172 0.01206,-0.0121 0.0155,-0.0189 0.0155,-0.0207 0.01378,-0.019 0.0034,-0.005 0.0069,-0.009 0.0034,-0.005 0.0086,-0.0103 0.0034,-0.005 0.0052,-0.0103 0.0034,-0.005 0.0086,-0.0103 0.0017,-0.005 0.0052,-0.0103 0.0052,-0.007 0.0086,-0.0121 0.01033,-0.0138 0.01378,-0.0207 0.0034,-0.005 0.0052,-0.0103 0.0034,-0.007 0.0086,-0.0121 0.0034,-0.005 0.0052,-0.0103 0.0034,-0.007 0.0086,-0.0121 0.0034,-0.009 0.01034,-0.0224 0.0034,-0.005 0.0052,-0.0121 0.0034,-0.007 0.0086,-0.0138 0.0034,-0.005 0.0052,-0.0103 0.0034,-0.007 0.0086,-0.0138 0.0017,-0.005 0.0034,-0.012 0.0034,-0.007 0.0069,-0.0138 0.0052,-0.009 0.01206,-0.0258 0.01723,-0.0431 0.01206,-0.0276 0.0017,-0.005 0.0034,-0.0121 0.0034,-0.009 0.0069,-0.0155 0.0017,-0.007 0.0034,-0.0138 0.0034,-0.007 0.0069,-0.0155 0.0052,-0.0155 0.0086,-0.0276 0.0017,-0.007 0.0034,-0.0138 0.0034,-0.007 0.0069,-0.0155 -0.0069,0.0172 0.0086,-0.0293 0.0034,-0.009 0.01034,-0.0293 0,-0.007 0.0017,-0.0138 0.0034,-0.009 0.0052,-0.0172 0.0017,-0.007 0.0034,-0.0138 0.0017,-0.009 0.0052,-0.0172 0,-0.005 0.0017,-0.0121 0.0034,-0.009 0.0052,-0.0172 0.0017,-0.0121 0.0052,-0.0327 0,-0.007 0.0017,-0.0138 0.0034,-0.009 0.0052,-0.0172 0,-0.007 0.0017,-0.0138 0.0017,-0.009 0.0034,-0.0172 0.0017,-0.0121 0.0052,-0.0327 0,-0.007 0.0017,-0.0155 0.0034,-0.009 0.0052,-0.0172 0,-0.0121 0.0034,-0.0327 0,-0.007 0,-0.0138 0.0017,-0.009 0.0034,-0.019 0.0034,-0.0207 0.0034,-0.0327 0.0017,-0.0121 0.0017,-0.0327 0.0017,-0.0121 0.0017,-0.0344 0.0017,-0.0121 0.0017,-0.0327 0,-0.009 0,-0.0155 0.0017,-0.009 0.0034,-0.0189 0,-0.007 0,-0.0138 0.0017,-0.009 0.0017,-0.019 0,-0.007 0,-0.0155 0,-0.009 0,-0.0172 0,-0.009 0,-0.0155 0,-0.009 0,-0.0172 0,-0.009 -0.0017,-0.0155 0,-0.009 0,-0.0189 0,-0.007 0,-0.0155 0,-0.009 0,-0.0172 0,-0.0103 -0.0034,-0.0345 0,-0.0207 -0.0017,-0.031 0,-0.0121 -0.0034,-0.0362 0,-0.0207 -0.0017,-0.031 0,-0.0121 -0.0034,-0.0327 -0.0017,-0.007 -0.0034,-0.0155 0,-0.009 0,-0.0172 -0.0034,-0.0207 -0.0069,-0.0327 -0.0017,-0.007 -0.0034,-0.0138 -0.0017,-0.009 -0.0017,-0.0172 -0.0017,-0.0121 -0.0052,-0.0327 -0.0017,-0.0121 -0.0052,-0.0327 -0.0069,-0.0207 -0.0086,-0.031 -0.0034,-0.0207 -0.0052,-0.0293 -0.0034,-0.007 -0.0052,-0.0138 -0.0017,-0.009 -0.0034,-0.0172 -0.0017,-0.007 -0.0052,-0.0138 -0.0034,-0.009 -0.0034,-0.0172 -0.0155,-0.0465 -0.0086,-0.0293 -0.0034,-0.0121 -0.0086,-0.0293 -0.0034,-0.005 -0.0069,-0.0121 -0.0017,-0.009 -0.0034,-0.0155 -0.0017,-0.005 -0.01033,-0.0293 -0.0069,-0.0172 -0.01034,-0.0276 -0.0034,-0.005 -0.0069,-0.0121 -0.0017,-0.009 -0.0034,-0.0155 -0.0034,-0.005 -0.0069,-0.0121 -0.0034,-0.007 -0.0052,-0.0138 -0.0069,-0.0172 -0.01206,-0.0258 -0.0069,-0.0172 -0.01034,-0.0241 -0.0069,-0.0172 -0.01206,-0.0258 -0.0034,-0.005 -0.0069,-0.0103 -0.0034,-0.007 -0.0052,-0.0121 -0.01034,-0.0172 -0.01378,-0.0241 -0.0155,-0.0241 -0.01378,-0.0224 -0.0052,-0.005 -0.0086,-0.0103 -0.0017,-0.007 -0.0052,-0.0121 -0.0034,-0.007 -0.01378,-0.0207 -0.0034,-0.005 -0.0069,-0.0103 -0.0034,-0.005 -0.0052,-0.0103 -0.0086,-0.0155 -0.02928,-0.0396 -0.0034,-0.003 -0.02756,-0.0379 -0.02067,-0.0241 -0.03101,-0.0344 -0.01034,-0.0121 -0.03101,-0.0327 -0.01378,-0.0155 -0.02928,-0.0293 -0.01206,-0.009 -0.03273,-0.0258 -0.01722,-0.0138 -0.03273,-0.0258 -0.03962,-0.0258 -0.03273,-0.0224 -0.03445,-0.0207 -0.03101,-0.0189 0,0 -0.03101,-0.0155 -0.0069,-0.003 -0.03273,-0.0121 -0.02239,-0.009 -0.03273,-0.0121 -0.0086,-0.002 -0.0155,-0.003 -0.0069,-0.003 -0.01378,-0.007 -0.03101,-0.005 -0.03101,-0.005 -0.01033,-0.002 -0.03101,-0.002 -0.0052,0 -0.0086,0 -0.0034,0 -0.0069,0 h -0.56844 v 2.55626 0 z"
         style="font-size:3.52777px;line-height:1.25;font-family:'MS 33558';-inkscape-font-specification:'MS 33558, ';text-align:center;word-spacing:-2.64583px;text-anchor:middle;fill:#00ff00;stroke-width:0.264583"
         id="path1580" />
      <path
         d="m 28.219631,112.86383 h -1.427989 v 0.94223 h 1.088648 q 0.244601,0.0362 0.242879,0.24632 0,0.20843 -0.242879,0.24288 h -1.088648 v 1.13171 h 1.427989 q 0.242879,0.0362 0.242879,0.24288 0,0.20671 -0.242879,0.24116 h -1.667422 q -0.215318,-0.0276 -0.244601,-0.2446 v -3.04202 q 0.03273,-0.22737 0.244601,-0.24115 h 1.667422 q 0.242879,0.019 0.241157,0.24288 0,0.2222 -0.241157,0.23771 z"
         style="font-size:3.52777px;line-height:1.25;font-family:'MS 33558';-inkscape-font-specification:'MS 33558, ';text-align:center;word-spacing:-2.64583px;text-anchor:middle;fill:#00ff00;stroke-width:0.264583"
         id="path1582" />
      <path
         d="m 27.534059,116.79296 h 0.03273 q 0.220486,0.0155 0.406521,0.0999 0.356566,0.16708 0.504705,0.54949 0.148139,0.3824 -0.0034,0.74586 -0.122301,0.28767 -0.361734,0.45131 -0.239434,0.16192 -0.546047,0.18086 l -0.03273,0.002 h -0.837156 v 1.25573 q -0.03101,0.24288 -0.244602,0.24288 -0.213595,0 -0.242878,-0.24288 v -3.04373 q 0.02584,-0.2136 0.227375,-0.24116 h 0.0155 z m 0,0.48576 h -0.837156 v 1.05592 h 0.837156 q 0.19637,0 0.346231,-0.13092 0.151584,-0.13091 0.177422,-0.32728 0.03101,-0.23772 -0.127468,-0.41686 -0.158474,-0.18086 -0.396185,-0.18086 z"
         style="font-size:3.52777px;line-height:1.25;font-family:'MS 33558';-inkscape-font-specification:'MS 33558, ';text-align:center;word-spacing:-2.64583px;text-anchor:middle;fill:#00ff00;stroke-width:0.264583"
         id="path1584" />
      <path
         d="m 28.396192,124.35665 q 0.110243,0.19465 -0.06201,0.32727 -0.08268,0.0586 -0.191203,0.0396 -0.106798,-0.0189 -0.156751,-0.10679 l -0.849215,-1.34186 h -0.430635 v 1.21267 q 0,0.14987 -0.136081,0.21704 -0.136081,0.0655 -0.254937,-0.0258 -0.09474,-0.0706 -0.09474,-0.19122 v -3.04373 q 0,-0.0999 0.0689,-0.17053 0.07062,-0.0706 0.172254,-0.0706 h 1.0697 q 0.38585,0 0.67007,0.24633 0.284219,0.2446 0.353121,0.62183 0.07235,0.4048 -0.172254,0.75792 -0.242879,0.3514 -0.645954,0.4272 l -0.03273,0.005 z m -0.864717,-1.5658 q 0.1757,0 0.323838,-0.1068 0.149862,-0.1068 0.201538,-0.27905 0.08096,-0.26527 -0.07407,-0.47887 -0.155029,-0.21532 -0.427191,-0.23771 h -0.849214 v 1.10243 z"
         style="font-size:3.52777px;line-height:1.25;font-family:'MS 33558';-inkscape-font-specification:'MS 33558, ';text-align:center;word-spacing:-2.64583px;text-anchor:middle;fill:#00ff00;stroke-width:0.264583"
         id="path1586" />
      <path
         d="m 28.219631,126.09297 h -1.427989 v 0.94223 h 1.088648 q 0.244601,0.0362 0.242879,0.24632 0,0.20843 -0.242879,0.24289 h -1.088648 v 1.1317 h 1.427989 q 0.242879,0.0362 0.242879,0.24289 0,0.2067 -0.242879,0.24116 h -1.667422 q -0.215318,-0.0276 -0.244601,-0.24461 v -3.04201 q 0.03273,-0.22737 0.244601,-0.24115 h 1.667422 q 0.242879,0.0189 0.241157,0.24287 0,0.22221 -0.241157,0.23771 z"
         style="font-size:3.52777px;line-height:1.25;font-family:'MS 33558';-inkscape-font-specification:'MS 33558, ';text-align:center;word-spacing:-2.64583px;text-anchor:middle;fill:#00ff00;stroke-width:0.264583"
         id="path1588" />
      <path
         d="m 27.986227,131.67229 0.02756,0.0121 0.03101,0.0155 0.02756,0.0155 q 0.01206,0.009 0.02584,0.0172 0.0155,0.007 0.02928,0.0155 0.341064,0.22393 0.422024,0.62012 0.03101,0.15503 0.01378,0.31867 -0.02756,0.23427 -0.165364,0.43407 -0.136081,0.19811 -0.342787,0.30663 -0.222208,0.11713 -0.459919,0.11713 -0.39963,0 -0.763087,-0.10163 -0.363457,-0.10335 -0.518486,-0.54949 -0.02067,-0.0568 -0.03101,-0.11713 -0.01034,-0.0603 -0.02412,-0.12058 -0.02584,-0.12403 0.06029,-0.21877 0.08785,-0.0947 0.217041,-0.0723 0.136081,0.0276 0.189479,0.16881 l 0.0052,0.0155 q 0.08268,0.37379 0.287665,0.44614 0.206705,0.0724 0.573607,0.0655 0.337619,0 0.463364,-0.31695 0.05512,-0.14125 0.01723,-0.29284 -0.0379,-0.1533 -0.149861,-0.25493 -0.04995,-0.0431 -0.130914,-0.081 l -0.797538,-0.34968 -0.02584,-0.0138 q -0.391017,-0.20671 -0.485757,-0.58739 -0.115411,-0.44097 0.160196,-0.79064 0.27733,-0.3514 0.726914,-0.3514 l 0.18948,0.005 q 0.09302,0.0172 0.179144,0.0344 0.08613,0.0155 0.173977,0.0551 0.217041,0.10163 0.332451,0.27905 0.115411,0.17742 0.208428,0.38413 0.0086,0.019 0.0155,0.0448 0.01895,0.0844 -0.01722,0.15331 -0.02067,0.0431 -0.04306,0.0655 -0.02239,0.0224 -0.03617,0.031 -0.08957,0.0637 -0.19637,0.0379 -0.106798,-0.0241 -0.163642,-0.13781 -0.04479,-0.0999 -0.09646,-0.20326 -0.04995,-0.10507 -0.141248,-0.17397 -0.0379,-0.0276 -0.07407,-0.0396 -0.03445,-0.0138 -0.07751,-0.0293 l -0.111965,-0.0189 -0.158475,-0.005 q -0.23082,0.003 -0.353121,0.19982 -0.08268,0.12574 -0.06201,0.28077 0.02412,0.1912 0.179145,0.29628 0.0069,0.005 0.0155,0.0121 0.0086,0.005 0.01895,0.0103 l 0.01895,0.009 0.02067,0.009 z"
         style="font-size:3.52777px;line-height:1.25;font-family:'MS 33558';-inkscape-font-specification:'MS 33558, ';text-align:center;word-spacing:-2.64583px;text-anchor:middle;fill:#00ff00;stroke-width:0.264583"
         id="path1590" />
      <path
         d="m 27.986227,136.082 0.02756,0.0121 0.03101,0.0155 0.02756,0.0155 q 0.01206,0.009 0.02584,0.0172 0.0155,0.007 0.02928,0.0155 0.341064,0.22393 0.422024,0.62012 0.03101,0.15502 0.01378,0.31867 -0.02756,0.23426 -0.165364,0.43408 -0.136081,0.19809 -0.342787,0.30661 -0.222208,0.11713 -0.459919,0.11713 -0.39963,0 -0.763087,-0.10163 -0.363457,-0.10335 -0.518486,-0.54949 -0.02067,-0.0568 -0.03101,-0.11713 -0.01034,-0.0603 -0.02412,-0.12058 -0.02584,-0.12402 0.06029,-0.21876 0.08785,-0.0947 0.217041,-0.0724 0.136081,0.0276 0.189479,0.16881 l 0.0052,0.0155 q 0.08268,0.37379 0.287665,0.44614 0.206705,0.0724 0.573607,0.0655 0.337619,0 0.463364,-0.31695 0.05512,-0.14125 0.01723,-0.29283 -0.0379,-0.15331 -0.149861,-0.25494 -0.04995,-0.0431 -0.130914,-0.081 l -0.797538,-0.34968 -0.02584,-0.0138 q -0.391017,-0.2067 -0.485757,-0.58738 -0.115411,-0.44097 0.160196,-0.79065 0.27733,-0.3514 0.726914,-0.3514 l 0.18948,0.005 q 0.09302,0.0172 0.179144,0.0345 0.08613,0.0155 0.173977,0.0551 0.217041,0.10163 0.332451,0.27905 0.115411,0.17742 0.208428,0.38413 0.0086,0.0189 0.0155,0.0448 0.01895,0.0844 -0.01722,0.1533 -0.02067,0.0431 -0.04306,0.0655 -0.02239,0.0224 -0.03617,0.031 -0.08957,0.0637 -0.19637,0.0379 -0.106798,-0.0241 -0.163642,-0.1378 -0.04479,-0.0999 -0.09646,-0.20326 -0.04995,-0.10508 -0.141248,-0.17398 -0.0379,-0.0276 -0.07407,-0.0396 -0.03445,-0.0138 -0.07751,-0.0293 l -0.111965,-0.0189 -0.158475,-0.005 q -0.23082,0.003 -0.353121,0.19982 -0.08268,0.12574 -0.06201,0.28077 0.02412,0.1912 0.179145,0.29628 0.0069,0.005 0.0155,0.0121 0.0086,0.005 0.01895,0.0103 l 0.01895,0.009 0.02067,0.009 z"
         style="font-size:3.52777px;line-height:1.25;font-family:'MS 33558';-inkscape-font-specification:'MS 33558, ';text-align:center;word-spacing:-2.64583px;text-anchor:middle;fill:#00ff00;stroke-width:0.264583"
         id="path1592" />
      <path
         d="m 28.701944,146.53784 q -0.0379,0.24116 -0.244602,0.24116 -0.204982,-0.002 -0.241156,-0.24116 v -2.15145 l -0.590832,1.01114 q -0.09474,0.11368 -0.211873,0.11885 -0.115411,0.005 -0.206705,-0.11885 l -0.587388,-1.00597 0.0017,2.14629 q -0.02756,0.23943 -0.249769,0.23943 -0.220486,-0.002 -0.237711,-0.23943 v -3.04201 q 0.01378,-0.1981 0.173977,-0.23599 0.160196,-0.0396 0.279052,0.10852 l 0.828543,1.42454 0.837157,-1.42454 q 0.118855,-0.14814 0.275607,-0.10852 0.158474,0.0396 0.173977,0.23599 z"
         style="font-size:3.52777px;line-height:1.25;font-family:'MS 33558';-inkscape-font-specification:'MS 33558, ';text-align:center;word-spacing:-2.64583px;text-anchor:middle;fill:#00ff00;stroke-width:0.264583"
         id="path1594" />
      <path
         d="m 28.478874,148.67552 q 0.158474,0.47714 0.118856,0.99046 -0.0379,0.51332 -0.280775,0.93706 -0.153306,0.26356 -0.418578,0.44786 -0.265272,0.18433 -0.585665,0.1292 -0.521931,-0.0913 -0.79926,-0.54433 -0.27733,-0.45303 -0.318671,-1.00769 -0.03962,-0.55638 0.149861,-1.08348 0.191203,-0.5271 0.608058,-0.76653 0.20326,-0.11713 0.425469,-0.11713 0.423745,0 0.692462,0.32039 0.268717,0.31867 0.408243,0.69419 z m -1.086925,-0.52538 q -0.316948,0 -0.48059,0.34106 -0.161919,0.34107 -0.204982,0.58222 -0.03273,0.1757 -0.02412,0.42547 0.0086,0.24977 0.07235,0.49437 0.06373,0.24288 0.191202,0.43925 0.127468,0.19465 0.334174,0.25838 0.241156,0.0758 0.415133,-0.0947 0.175699,-0.17225 0.265272,-0.36518 0.09129,-0.19809 0.124023,-0.5202 0.03445,-0.32212 -0.0155,-0.64251 -0.04823,-0.32212 -0.191203,-0.57878 -0.142971,-0.25838 -0.40652,-0.329 -0.03445,-0.0103 -0.07924,-0.0103 z"
         style="font-size:3.52777px;line-height:1.25;font-family:'MS 33558';-inkscape-font-specification:'MS 33558, ';text-align:center;word-spacing:-2.64583px;text-anchor:middle;fill:#00ff00;stroke-width:0.264583"
         id="path1596" />
      <path
         d="m 26.516035,152.07065 h 0.811319 q 0.604613,0 0.906058,0.55121 0.301445,0.55122 0.301445,1.21268 0,0.66145 -0.303168,1.21267 -0.301445,0.55121 -0.904335,0.55121 h -0.811319 0.0034 -0.0034 q -0.05684,-0.009 -0.06201,-0.0103 -0.179145,-0.0431 -0.177422,-0.23427 h -0.0017 l 0.0017,-3.04201 q -0.0017,-0.005 -0.0017,-0.0138 0.0052,-0.0947 0.07407,-0.1602 0.07062,-0.0672 0.168809,-0.0672 z m 0.811319,3.04201 q 0.0034,0 0.0069,0 0.0034,0 0.0086,0 0.0034,0 0.0052,0 0.0034,-0.002 0.0086,-0.002 0.0034,0 0.0069,0 0.0052,-0.002 0.01033,-0.002 0.0034,0 0.0069,0 0.0034,-0.002 0.0086,-0.002 0.0034,0 0.0069,0 0.0034,-0.002 0.0086,-0.002 0.0069,-0.003 0.01378,-0.003 0.0034,0 0.0069,-0.002 0.0034,-0.003 0.0086,-0.005 0.0034,0 0.0069,0 0.0052,-0.002 0.01034,-0.003 0.0034,0 0.0069,-0.002 0.0034,-0.002 0.0086,-0.003 0.01034,-0.003 0.0155,-0.007 0.03101,-0.0103 0.01722,-0.007 0.0034,0 0.0069,-0.002 0.0034,-0.003 0.0086,-0.005 0.0155,-0.0103 0.01378,-0.009 0.01723,-0.009 0.01723,-0.009 0.0034,-0.002 0.0069,-0.003 0.0034,-0.003 0.0086,-0.007 0.0155,-0.0103 0.0155,-0.0103 0.0034,-0.002 0.0069,-0.003 0.0052,-0.003 0.01034,-0.007 0.0034,-0.002 0.0069,-0.005 0.0034,-0.003 0.0086,-0.007 0.0034,-0.002 0.0069,-0.003 0.0034,-0.003 0.0086,-0.007 0.0034,-0.003 0.01722,-0.0138 0.01378,-0.0138 0.01378,-0.0138 0.0034,-0.003 0.0069,-0.007 0.0034,-0.003 0.0086,-0.009 0.0034,-0.003 0.0069,-0.007 0.0034,-0.003 0.0086,-0.009 0.0052,-0.003 0.0155,-0.0138 0.0034,-0.003 0.0069,-0.007 0.0034,-0.003 0.0086,-0.009 0.0034,-0.003 0.0069,-0.007 0.0034,-0.005 0.0086,-0.0103 0.02067,-0.0276 0.01378,-0.0172 0.01206,-0.0121 0.0155,-0.0189 0.0155,-0.0207 0.01378,-0.0189 0.0034,-0.005 0.0069,-0.009 0.0034,-0.005 0.0086,-0.0103 0.0034,-0.005 0.0052,-0.0103 0.0034,-0.005 0.0086,-0.0103 0.0017,-0.005 0.0052,-0.0103 0.0052,-0.007 0.0086,-0.0121 0.01033,-0.0138 0.01378,-0.0207 0.0034,-0.005 0.0052,-0.0103 0.0034,-0.007 0.0086,-0.0121 0.0034,-0.005 0.0052,-0.0103 0.0034,-0.007 0.0086,-0.012 0.0034,-0.009 0.01034,-0.0224 0.0034,-0.005 0.0052,-0.0121 0.0034,-0.007 0.0086,-0.0138 0.0034,-0.005 0.0052,-0.0103 0.0034,-0.007 0.0086,-0.0138 0.0017,-0.005 0.0034,-0.0121 0.0034,-0.007 0.0069,-0.0138 0.0052,-0.009 0.01206,-0.0258 0.01723,-0.0431 0.01206,-0.0276 0.0017,-0.005 0.0034,-0.0121 0.0034,-0.009 0.0069,-0.0155 0.0017,-0.007 0.0034,-0.0138 0.0034,-0.007 0.0069,-0.0155 0.0052,-0.0155 0.0086,-0.0276 0.0017,-0.007 0.0034,-0.0138 0.0034,-0.007 0.0069,-0.0155 -0.0069,0.0172 0.0086,-0.0293 0.0034,-0.009 0.01034,-0.0293 0,-0.007 0.0017,-0.0138 0.0034,-0.009 0.0052,-0.0172 0.0017,-0.007 0.0034,-0.0138 0.0017,-0.009 0.0052,-0.0172 0,-0.005 0.0017,-0.0121 0.0034,-0.009 0.0052,-0.0172 0.0017,-0.0121 0.0052,-0.0327 0,-0.007 0.0017,-0.0138 0.0034,-0.009 0.0052,-0.0172 0,-0.007 0.0017,-0.0138 0.0017,-0.009 0.0034,-0.0172 0.0017,-0.0121 0.0052,-0.0327 0,-0.007 0.0017,-0.0155 0.0034,-0.009 0.0052,-0.0172 0,-0.0121 0.0034,-0.0327 0,-0.007 0,-0.0138 0.0017,-0.009 0.0034,-0.019 0.0034,-0.0207 0.0034,-0.0327 0.0017,-0.0121 0.0017,-0.0327 0.0017,-0.0121 0.0017,-0.0344 0.0017,-0.0121 0.0017,-0.0327 0,-0.009 0,-0.0155 0.0017,-0.009 0.0034,-0.019 0,-0.007 0,-0.0138 0.0017,-0.009 0.0017,-0.0189 0,-0.007 0,-0.0155 0,-0.009 0,-0.0172 0,-0.009 0,-0.0155 0,-0.009 0,-0.0172 0,-0.009 -0.0017,-0.0155 0,-0.009 0,-0.0189 0,-0.007 0,-0.0155 0,-0.009 0,-0.0172 0,-0.0103 -0.0034,-0.0344 0,-0.0207 -0.0017,-0.031 0,-0.0121 -0.0034,-0.0362 0,-0.0207 -0.0017,-0.031 0,-0.0121 -0.0034,-0.0327 -0.0017,-0.007 -0.0034,-0.0155 0,-0.009 0,-0.0172 -0.0034,-0.0207 -0.0069,-0.0327 -0.0017,-0.007 -0.0034,-0.0138 -0.0017,-0.009 -0.0017,-0.0172 -0.0017,-0.0121 -0.0052,-0.0327 -0.0017,-0.0121 -0.0052,-0.0327 -0.0069,-0.0207 -0.0086,-0.031 -0.0034,-0.0207 -0.0052,-0.0293 -0.0034,-0.007 -0.0052,-0.0138 -0.0017,-0.009 -0.0034,-0.0172 -0.0017,-0.007 -0.0052,-0.0138 -0.0034,-0.009 -0.0034,-0.0172 -0.0155,-0.0465 -0.0086,-0.0293 -0.0034,-0.0121 -0.0086,-0.0293 -0.0034,-0.005 -0.0069,-0.0121 -0.0017,-0.009 -0.0034,-0.0155 -0.0017,-0.005 -0.01033,-0.0293 -0.0069,-0.0172 -0.01034,-0.0276 -0.0034,-0.005 -0.0069,-0.0121 -0.0017,-0.009 -0.0034,-0.0155 -0.0034,-0.005 -0.0069,-0.0121 -0.0034,-0.007 -0.0052,-0.0138 -0.0069,-0.0172 -0.01206,-0.0258 -0.0069,-0.0172 -0.01034,-0.0241 -0.0069,-0.0172 -0.01206,-0.0258 -0.0034,-0.005 -0.0069,-0.0103 -0.0034,-0.007 -0.0052,-0.0121 -0.01034,-0.0172 -0.01378,-0.0241 -0.0155,-0.0241 -0.01378,-0.0224 -0.0052,-0.005 -0.0086,-0.0103 -0.0017,-0.007 -0.0052,-0.0121 -0.0034,-0.007 -0.01378,-0.0207 -0.0034,-0.005 -0.0069,-0.0103 -0.0034,-0.005 -0.0052,-0.0103 -0.0086,-0.0155 -0.02928,-0.0396 -0.0034,-0.003 -0.02756,-0.0379 -0.02067,-0.0241 -0.03101,-0.0345 -0.01034,-0.0121 -0.03101,-0.0327 -0.01378,-0.0155 -0.02928,-0.0293 -0.01206,-0.009 -0.03273,-0.0258 -0.01722,-0.0138 -0.03273,-0.0258 -0.03962,-0.0258 -0.03273,-0.0224 -0.03445,-0.0207 -0.03101,-0.0189 0,0 -0.03101,-0.0155 -0.0069,-0.003 -0.03273,-0.0121 -0.02239,-0.009 -0.03273,-0.0121 -0.0086,-0.002 -0.0155,-0.003 -0.0069,-0.003 -0.01378,-0.007 -0.03101,-0.005 -0.03101,-0.005 -0.01033,-0.002 -0.03101,-0.002 -0.0052,0 -0.0086,0 -0.0034,0 -0.0069,0 h -0.56844 v 2.55625 0 z"
         style="font-size:3.52777px;line-height:1.25;font-family:'MS 33558';-inkscape-font-specification:'MS 33558, ';text-align:center;word-spacing:-2.64583px;text-anchor:middle;fill:#00ff00;stroke-width:0.264583"
         id="path1598" />
      <path
         d="m 28.575337,158.84542 v 0.0344 q -0.0052,0.0861 -0.0069,0.10336 -0.07235,0.52709 -0.432359,0.77859 -0.360012,0.24977 -0.768255,0.23427 -0.408243,-0.0172 -0.747584,-0.298 -0.337618,-0.28078 -0.366902,-0.81821 v -0.0344 -2.1239 q 0,-0.0517 0.01895,-0.093 0.08268,-0.18087 0.273885,-0.14297 0.192925,0.0379 0.192925,0.23599 v 2.1239 q 0.02584,0.39618 0.347954,0.59255 0.323838,0.19637 0.680405,-0.0172 0.160196,-0.0947 0.234266,-0.24461 0.07579,-0.14986 0.08957,-0.33072 v -2.1239 q 0,-0.031 0.0034,-0.0465 0.03962,-0.21187 0.260104,-0.19121 0.220486,0.0207 0.220486,0.23771 z"
         style="font-size:3.52777px;line-height:1.25;font-family:'MS 33558';-inkscape-font-specification:'MS 33558, ';text-align:center;word-spacing:-2.64583px;text-anchor:middle;fill:#00ff00;stroke-width:0.264583"
         id="path1600" />
      <path
         d="m 26.46522,164.41957 q -0.211873,-0.0138 -0.244601,-0.23944 v -3.04544 q 0.03617,-0.24806 0.251492,-0.24289 0.215318,0.003 0.234266,0.24289 v 2.8043 l 1.589908,-0.002 q 0.244601,0.0276 0.241156,0.24804 -0.0017,0.21877 -0.242879,0.23427 z"
         style="font-size:3.52777px;line-height:1.25;font-family:'MS 33558';-inkscape-font-specification:'MS 33558, ';text-align:center;word-spacing:-2.64583px;text-anchor:middle;fill:#00ff00;stroke-width:0.264583"
         id="path1602" />
      <path
         d="m 28.219631,165.78038 h -1.427989 v 0.94223 h 1.088648 q 0.244601,0.0362 0.242879,0.24632 0,0.20843 -0.242879,0.24288 h -1.088648 v 1.13171 h 1.427989 q 0.242879,0.0362 0.242879,0.24289 0,0.2067 -0.242879,0.24116 h -1.667422 q -0.215318,-0.0276 -0.244601,-0.2446 v -3.04202 q 0.03273,-0.22737 0.244601,-0.24115 h 1.667422 q 0.242879,0.019 0.241157,0.24288 0,0.22221 -0.241157,0.2377 z"
         style="font-size:3.52777px;line-height:1.25;font-family:'MS 33558';-inkscape-font-specification:'MS 33558, ';text-align:center;word-spacing:-2.64583px;text-anchor:middle;fill:#00ff00;stroke-width:0.264583"
         id="path1604" />
      <path
         d="m 26.46522,177.64871 q -0.211873,-0.0138 -0.244601,-0.23944 v -3.04545 q 0.03617,-0.24804 0.251492,-0.24288 0.215318,0.003 0.234266,0.24288 v 2.8043 l 1.589908,-0.002 q 0.244601,0.0276 0.241156,0.24805 -0.0017,0.21876 -0.242879,0.23427 z"
         style="font-size:3.52777px;line-height:1.25;font-family:'MS 33558';-inkscape-font-specification:'MS 33558, ';text-align:center;word-spacing:-2.64583px;text-anchor:middle;fill:#00ff00;stroke-width:0.264583"
         id="path1606" />
      <path
         d="m 27.624492,181.81898 q -0.0379,0.24288 -0.246323,0.24116 -0.206706,0 -0.242879,-0.24116 v -3.04545 q 0.03617,-0.24288 0.242879,-0.24288 0.208427,-0.002 0.246323,0.24288 z"
         style="font-size:3.52777px;line-height:1.25;font-family:'MS 33558';-inkscape-font-specification:'MS 33558, ';text-align:center;word-spacing:-2.64583px;text-anchor:middle;fill:#00ff00;stroke-width:0.264583"
         id="path1608" />
      <path
         d="m 26.307608,186.22181 v -3.03857 q 0.031,-0.22738 0.244601,-0.2446 h 1.667422 q 0.239434,0.0189 0.239434,0.2446 0,0.22393 -0.242879,0.23943 h -1.424544 v 0.94223 h 1.111041 q 0.237711,0.0172 0.241156,0.23255 0.0034,0.21532 -0.241156,0.25149 h -1.111041 v 1.37287 q -0.01722,0.23771 -0.234266,0.24115 -0.215318,0.003 -0.249768,-0.24115 z"
         style="font-size:3.52777px;line-height:1.25;font-family:'MS 33558';-inkscape-font-specification:'MS 33558, ';text-align:center;word-spacing:-2.64583px;text-anchor:middle;fill:#00ff00;stroke-width:0.264583"
         id="path1610" />
      <path
         d="m 27.126677,190.63496 v -2.80085 h -0.632173 q -0.241157,-0.0189 -0.241157,-0.24116 0.0017,-0.22393 0.241157,-0.2446 h 1.748382 q 0.237711,0.0189 0.237711,0.2446 0.0017,0.22393 -0.237711,0.24116 h -0.630451 v 2.80085 q -0.03962,0.24461 -0.254937,0.24116 -0.213595,-0.003 -0.230821,-0.24116 z"
         style="font-size:3.52777px;line-height:1.25;font-family:'MS 33558';-inkscape-font-specification:'MS 33558, ';text-align:center;word-spacing:-2.64583px;text-anchor:middle;fill:#00ff00;stroke-width:0.264583"
         id="path1612" />
      <path
         d="m 26.46522,199.69727 q -0.211873,-0.0138 -0.244601,-0.23943 v -3.04546 q 0.03617,-0.24805 0.251492,-0.24288 0.215318,0.003 0.234266,0.24288 v 2.8043 l 1.589908,-0.002 q 0.244601,0.0276 0.241156,0.24804 -0.0017,0.21877 -0.242879,0.23428 z"
         style="font-size:3.52777px;line-height:1.25;font-family:'MS 33558';-inkscape-font-specification:'MS 33558, ';text-align:center;word-spacing:-2.64583px;text-anchor:middle;fill:#00ff00;stroke-width:0.264583"
         id="path1614" />
      <path
         d="m 27.982782,202.97355 -0.523654,-1.44694 -0.527098,1.44694 z m -0.523654,-1.44694 0.523654,1.44694 z m -1.329804,2.2462 q 0.275607,-0.75964 0.551214,-1.51756 0.27733,-0.75965 0.55466,-1.51929 0.05684,-0.15675 0.225653,-0.15847 0.168809,-0.002 0.227376,0.15847 l 1.10415,3.04546 q 0.05168,0.24288 -0.148139,0.3135 -0.199815,0.0706 -0.308335,-0.14469 l -0.177422,-0.49265 h -1.403873 l -0.172255,0.48059 q -0.110242,0.21704 -0.313503,0.14297 -0.20326,-0.0758 -0.139526,-0.30833 z"
         style="font-size:3.52777px;line-height:1.25;font-family:'MS 33558';-inkscape-font-specification:'MS 33558, ';text-align:center;word-spacing:-2.64583px;text-anchor:middle;fill:#00ff00;stroke-width:0.264583"
         id="path1616" />
      <path
         d="m 27.126677,208.27382 v -2.80086 h -0.632173 q -0.241157,-0.0189 -0.241157,-0.24116 0.0017,-0.22393 0.241157,-0.2446 h 1.748382 q 0.237711,0.019 0.237711,0.2446 0.0017,0.22393 -0.237711,0.24116 h -0.630451 v 2.80086 q -0.03962,0.2446 -0.254937,0.24115 -0.213595,-0.003 -0.230821,-0.24115 z"
         style="font-size:3.52777px;line-height:1.25;font-family:'MS 33558';-inkscape-font-specification:'MS 33558, ';text-align:center;word-spacing:-2.64583px;text-anchor:middle;fill:#00ff00;stroke-width:0.264583"
         id="path1618" />
      <path
         d="m 28.493516,212.37348 -0.0155,0.0224 q -0.0052,0.007 -0.0086,0.0121 -0.0034,0.005 -0.0069,0.0103 -0.235988,0.31867 -0.620116,0.45474 -0.382405,0.13436 -0.754474,-0.05 -0.432359,-0.2153 -0.635619,-0.73034 -0.201537,-0.51506 -0.173977,-1.06971 0.02928,-0.55639 0.292833,-1.02147 0.265272,-0.46509 0.768254,-0.58222 0.289388,-0.0672 0.577053,0.0568 0.287664,0.1223 0.471977,0.34452 0.0017,0 0.0086,0.0121 0.07924,0.10335 0.03273,0.22737 -0.04651,0.1223 -0.170532,0.15331 -0.132636,0.0344 -0.244601,-0.0792 -0.230821,-0.26871 -0.444417,-0.25838 -0.213595,0.0103 -0.382404,0.1757 -0.16881,0.16536 -0.280775,0.42375 -0.111965,0.25838 -0.137804,0.48403 -0.031,0.25149 0.0052,0.50643 0.0379,0.25321 0.156751,0.47714 0.206706,0.39274 0.520209,0.49265 0.315225,0.0982 0.614948,-0.30144 0.01378,-0.0172 0.03273,-0.0448 0.161919,-0.17914 0.341064,-0.0362 0.180867,0.14125 0.0534,0.32039 z"
         style="font-size:3.52777px;line-height:1.25;font-family:'MS 33558';-inkscape-font-specification:'MS 33558, ';text-align:center;word-spacing:-2.64583px;text-anchor:middle;fill:#00ff00;stroke-width:0.264583"
         id="path1620" />
      <path
         d="m 26.209423,217.09669 v -3.04545 q 0.03617,-0.24805 0.251491,-0.24289 0.215318,0.003 0.234266,0.24289 v 1.1386 h 1.386648 v -1.1386 q 0.03617,-0.24289 0.242879,-0.24289 0.208427,-0.002 0.246323,0.24289 v 3.04545 q -0.0379,0.24288 -0.246323,0.24116 -0.206706,0 -0.242879,-0.24116 v -1.41766 H 26.69518 v 1.41766 q -0.01895,0.23771 -0.234266,0.24116 -0.215318,0.003 -0.251491,-0.24116 z"
         style="font-size:3.52777px;line-height:1.25;font-family:'MS 33558';-inkscape-font-specification:'MS 33558, ';text-align:center;word-spacing:-2.64583px;text-anchor:middle;fill:#00ff00;stroke-width:0.264583"
         id="path1622" />
      <path
         d="m 186.67044,67.163019 v -2.800857 h -0.63217 q -0.24116,-0.01895 -0.24116,-0.241156 0.002,-0.223931 0.24116,-0.244601 h 1.74838 q 0.23771,0.01895 0.23771,0.244601 0.002,0.223931 -0.23771,0.241156 h -0.63045 v 2.800857 q -0.0396,0.244601 -0.25494,0.241156 -0.21359,-0.0034 -0.23082,-0.241156 z"
         style="font-size:3.52777px;line-height:1.25;font-family:'MS 33558';-inkscape-font-specification:'MS 33558, ';text-align:center;word-spacing:-2.64583px;text-anchor:middle;fill:#00ff00;stroke-width:0.264583"
         id="path1564-8" />
      <path
         d="m 188.02264,69.300696 q 0.15847,0.477144 0.11885,0.990462 -0.0379,0.513318 -0.28077,0.937064 -0.15331,0.26355 -0.41858,0.447862 -0.26527,0.184312 -0.58566,0.129191 -0.52193,-0.09129 -0.79926,-0.544324 -0.27733,-0.453029 -0.31867,-1.007689 -0.0396,-0.556381 0.14986,-1.08348 0.1912,-0.527098 0.60805,-0.766532 0.20326,-0.117133 0.42547,-0.117133 0.42375,0 0.69247,0.320393 0.26871,0.318671 0.40824,0.694186 z m -1.08693,-0.525376 q -0.31694,0 -0.48059,0.341063 -0.16192,0.341064 -0.20498,0.58222 -0.0327,0.1757 -0.0241,0.425469 0.009,0.249768 0.0724,0.49437 0.0637,0.242878 0.1912,0.439248 0.12747,0.194648 0.33418,0.258382 0.24115,0.07579 0.41513,-0.09474 0.1757,-0.172254 0.26527,-0.365179 0.0913,-0.198093 0.12403,-0.520208 0.0345,-0.322116 -0.0155,-0.642509 -0.0482,-0.322116 -0.19121,-0.578775 -0.14297,-0.258382 -0.40652,-0.329006 -0.0344,-0.01033 -0.0792,-0.01033 z"
         style="font-size:3.52777px;line-height:1.25;font-family:'MS 33558';-inkscape-font-specification:'MS 33558, ';text-align:center;word-spacing:-2.64583px;text-anchor:middle;fill:#00ff00;stroke-width:0.264583"
         id="path1566-7" />
      <path
         d="m 187.93996,80.25952 q 0.11024,0.194648 -0.062,0.327284 -0.0827,0.05857 -0.19121,0.03962 -0.10679,-0.01895 -0.15675,-0.106798 l -0.84921,-1.341861 h -0.43064 v 1.212671 q 0,0.149861 -0.13608,0.21704 -0.13608,0.06546 -0.25494,-0.02584 -0.0947,-0.07062 -0.0947,-0.191202 v -3.043736 q 0,-0.09991 0.0689,-0.170531 0.0706,-0.07063 0.17226,-0.07063 h 1.0697 q 0.38585,0 0.67007,0.246324 0.28422,0.244601 0.35312,0.621838 0.0724,0.404798 -0.17225,0.75792 -0.24288,0.351399 -0.64596,0.427191 l -0.0327,0.0052 z m -0.86472,-1.565792 q 0.1757,0 0.32384,-0.106798 0.14986,-0.106798 0.20154,-0.279052 0.081,-0.265272 -0.0741,-0.478867 -0.15503,-0.215318 -0.4272,-0.237711 h -0.84921 v 1.102428 z"
         style="font-size:3.52777px;line-height:1.25;font-family:'MS 33558';-inkscape-font-specification:'MS 33558, ';text-align:center;word-spacing:-2.64583px;text-anchor:middle;fill:#00ff00;stroke-width:0.264583"
         id="path1568-9" />
      <path
         d="m 187.7634,81.995845 h -1.42799 v 0.942231 h 1.08864 q 0.24461,0.03617 0.24288,0.246324 0,0.208428 -0.24288,0.242879 h -1.08864 v 1.131711 h 1.42799 q 0.24287,0.03617 0.24287,0.242879 0,0.206705 -0.24287,0.241156 h -1.66743 q -0.21531,-0.02756 -0.2446,-0.244601 v -3.042013 q 0.0327,-0.227376 0.2446,-0.241156 h 1.66743 q 0.24287,0.01895 0.24115,0.242879 0,0.222208 -0.24115,0.237711 z"
         style="font-size:3.52777px;line-height:1.25;font-family:'MS 33558';-inkscape-font-specification:'MS 33558, ';text-align:center;word-spacing:-2.64583px;text-anchor:middle;fill:#00ff00;stroke-width:0.264583"
         id="path1570-6" />
      <path
         d="m 186.00898,89.45446 q -0.21187,-0.01378 -0.2446,-0.239434 v -3.045457 q 0.0362,-0.248047 0.2515,-0.242879 0.21531,0.0034 0.23426,0.242879 v 2.804301 l 1.58991,-0.0017 q 0.2446,0.02756 0.24116,0.248046 -0.002,0.218763 -0.24288,0.234266 z"
         style="font-size:3.52777px;line-height:1.25;font-family:'MS 33558';-inkscape-font-specification:'MS 33558, ';text-align:center;word-spacing:-2.64583px;text-anchor:middle;fill:#00ff00;stroke-width:0.264583"
         id="path1572-4" />
      <path
         d="m 187.52655,92.730739 -0.52366,-1.446937 -0.5271,1.446937 z m -0.52366,-1.446937 0.52366,1.446937 z m -1.3298,2.246197 q 0.27561,-0.759642 0.55121,-1.517561 0.27733,-0.759642 0.55466,-1.519284 0.0568,-0.156752 0.22566,-0.158474 0.1688,-0.0017 0.22737,0.158474 l 1.10415,3.045458 q 0.0517,0.242878 -0.14814,0.313503 -0.19981,0.07062 -0.30833,-0.144694 l -0.17742,-0.492648 h -1.40388 l -0.17225,0.48059 q -0.11024,0.217041 -0.31351,0.142971 -0.20326,-0.07579 -0.13952,-0.308335 z"
         style="font-size:3.52777px;line-height:1.25;font-family:'MS 33558';-inkscape-font-specification:'MS 33558, ';text-align:center;word-spacing:-2.64583px;text-anchor:middle;fill:#00ff00;stroke-width:0.264583"
         id="path1574-0" />
      <path
         d="m 188.24571,98.031005 q -0.0379,0.24116 -0.2446,0.24116 -0.20499,-0.002 -0.24116,-0.24116 v -2.151456 l -0.59083,1.011136 q -0.0947,0.11369 -0.21187,0.11885 -0.11542,0.005 -0.20671,-0.11885 l -0.58739,-1.005968 0.002,2.146288 q -0.0276,0.23943 -0.24977,0.23943 -0.22048,-0.002 -0.23771,-0.23943 v -3.042011 q 0.0138,-0.198093 0.17398,-0.235989 0.1602,-0.03962 0.27905,0.10852 l 0.82854,1.424544 0.83716,-1.424544 q 0.11886,-0.148138 0.27561,-0.10852 0.15847,0.03962 0.17398,0.235989 z"
         style="font-size:3.52777px;line-height:1.25;font-family:'MS 33558';-inkscape-font-specification:'MS 33558, ';text-align:center;word-spacing:-2.64583px;text-anchor:middle;fill:#00ff00;stroke-width:0.264583"
         id="path1576-4" />
      <path
         d="m 187.07782,99.154105 h 0.0327 q 0.22049,0.0155 0.40652,0.0999 0.35657,0.16708 0.50471,0.54949 0.14814,0.382405 -0.003,0.745865 -0.1223,0.28767 -0.36173,0.45131 -0.23944,0.16192 -0.54605,0.18086 l -0.0327,0.002 h -0.83716 v 1.25573 q -0.031,0.24288 -0.2446,0.24288 -0.21359,0 -0.24288,-0.24288 v -3.043735 q 0.0258,-0.2136 0.22738,-0.24116 h 0.0155 z m 0,0.48576 h -0.83715 v 1.055925 h 0.83715 q 0.19637,0 0.34623,-0.13093 0.15159,-0.13091 0.17743,-0.32728 0.031,-0.237705 -0.12747,-0.416855 -0.15848,-0.18086 -0.39619,-0.18086 z"
         style="font-size:3.52777px;line-height:1.25;font-family:'MS 33558';-inkscape-font-specification:'MS 33558, ';text-align:center;word-spacing:-2.64583px;text-anchor:middle;fill:#00ff00;stroke-width:0.264583"
         id="path1578-0" />
      <path
         d="m 186.0598,107.97353 h 0.81132 q 0.60461,0 0.90606,0.55121 0.30144,0.55121 0.30144,1.21268 0,0.66146 -0.30317,1.21267 -0.30144,0.55122 -0.90433,0.55122 h -0.81132 0.003 -0.003 q -0.0568,-0.009 -0.062,-0.0103 -0.17915,-0.0431 -0.17742,-0.23427 h -0.002 l 0.002,-3.04201 q -0.002,-0.005 -0.002,-0.0138 0.005,-0.0947 0.0741,-0.1602 0.0706,-0.0672 0.16881,-0.0672 z m 0.81132,3.04202 q 0.003,0 0.007,0 0.003,0 0.009,0 0.003,0 0.005,0 0.003,-0.002 0.009,-0.002 0.003,0 0.007,0 0.005,-0.002 0.0103,-0.002 0.003,0 0.007,0 0.003,-0.002 0.009,-0.002 0.003,0 0.007,0 0.003,-0.002 0.009,-0.002 0.007,-0.003 0.0138,-0.003 0.003,0 0.007,-0.002 0.003,-0.003 0.009,-0.005 0.003,0 0.007,0 0.005,-0.002 0.0103,-0.003 0.003,0 0.007,-0.002 0.003,-0.002 0.009,-0.003 0.0103,-0.003 0.0155,-0.007 0.031,-0.0103 0.0172,-0.007 0.003,0 0.007,-0.002 0.003,-0.003 0.009,-0.005 0.0155,-0.0103 0.0138,-0.009 0.0172,-0.009 0.0172,-0.009 0.003,-0.002 0.007,-0.003 0.003,-0.003 0.009,-0.007 0.0155,-0.0103 0.0155,-0.0103 0.003,-0.002 0.007,-0.003 0.005,-0.003 0.0103,-0.007 0.003,-0.002 0.007,-0.005 0.003,-0.003 0.009,-0.007 0.003,-0.002 0.007,-0.003 0.003,-0.003 0.009,-0.007 0.003,-0.003 0.0172,-0.0138 0.0138,-0.0138 0.0138,-0.0138 0.003,-0.003 0.007,-0.007 0.003,-0.003 0.009,-0.009 0.003,-0.003 0.007,-0.007 0.003,-0.003 0.009,-0.009 0.005,-0.003 0.0155,-0.0138 0.003,-0.003 0.007,-0.007 0.003,-0.003 0.009,-0.009 0.003,-0.003 0.007,-0.007 0.003,-0.005 0.009,-0.0103 0.0207,-0.0276 0.0138,-0.0172 0.0121,-0.0121 0.0155,-0.0189 0.0155,-0.0207 0.0138,-0.019 0.003,-0.005 0.007,-0.009 0.003,-0.005 0.009,-0.0103 0.003,-0.005 0.005,-0.0103 0.003,-0.005 0.009,-0.0103 0.002,-0.005 0.005,-0.0103 0.005,-0.007 0.009,-0.0121 0.0103,-0.0138 0.0138,-0.0207 0.003,-0.005 0.005,-0.0103 0.003,-0.007 0.009,-0.0121 0.003,-0.005 0.005,-0.0103 0.003,-0.007 0.009,-0.0121 0.003,-0.009 0.0103,-0.0224 0.003,-0.005 0.005,-0.0121 0.003,-0.007 0.009,-0.0138 0.003,-0.005 0.005,-0.0103 0.003,-0.007 0.009,-0.0138 0.002,-0.005 0.003,-0.012 0.003,-0.007 0.007,-0.0138 0.005,-0.009 0.0121,-0.0258 0.0172,-0.0431 0.0121,-0.0276 0.002,-0.005 0.003,-0.0121 0.003,-0.009 0.007,-0.0155 0.002,-0.007 0.003,-0.0138 0.003,-0.007 0.007,-0.0155 0.005,-0.0155 0.009,-0.0276 0.002,-0.007 0.003,-0.0138 0.003,-0.007 0.007,-0.0155 -0.007,0.0172 0.009,-0.0293 0.003,-0.009 0.0103,-0.0293 0,-0.007 0.002,-0.0138 0.003,-0.009 0.005,-0.0172 0.002,-0.007 0.003,-0.0138 0.002,-0.009 0.005,-0.0172 0,-0.005 0.002,-0.0121 0.003,-0.009 0.005,-0.0172 0.002,-0.0121 0.005,-0.0327 0,-0.007 0.002,-0.0138 0.003,-0.009 0.005,-0.0172 0,-0.007 0.002,-0.0138 0.002,-0.009 0.003,-0.0172 0.002,-0.0121 0.005,-0.0327 0,-0.007 0.002,-0.0155 0.003,-0.009 0.005,-0.0172 0,-0.0121 0.003,-0.0327 0,-0.007 0,-0.0138 0.002,-0.009 0.003,-0.019 0.003,-0.0207 0.003,-0.0327 0.002,-0.0121 0.002,-0.0327 0.002,-0.0121 0.002,-0.0344 0.002,-0.0121 0.002,-0.0327 0,-0.009 0,-0.0155 0.002,-0.009 0.003,-0.0189 0,-0.007 0,-0.0138 0.002,-0.009 0.002,-0.019 0,-0.007 0,-0.0155 0,-0.009 0,-0.0172 0,-0.009 0,-0.0155 0,-0.009 0,-0.0172 0,-0.009 -0.002,-0.0155 0,-0.009 0,-0.0189 0,-0.007 0,-0.0155 0,-0.009 0,-0.0172 0,-0.0103 -0.003,-0.0345 0,-0.0207 -0.002,-0.031 0,-0.0121 -0.003,-0.0362 0,-0.0207 -0.002,-0.031 0,-0.0121 -0.003,-0.0327 -0.002,-0.007 -0.003,-0.0155 0,-0.009 0,-0.0172 -0.003,-0.0207 -0.007,-0.0327 -0.002,-0.007 -0.003,-0.0138 -0.002,-0.009 -0.002,-0.0172 -0.002,-0.0121 -0.005,-0.0327 -0.002,-0.0121 -0.005,-0.0327 -0.007,-0.0207 -0.009,-0.031 -0.003,-0.0207 -0.005,-0.0293 -0.003,-0.007 -0.005,-0.0138 -0.002,-0.009 -0.003,-0.0172 -0.002,-0.007 -0.005,-0.0138 -0.003,-0.009 -0.003,-0.0172 -0.0155,-0.0465 -0.009,-0.0293 -0.003,-0.0121 -0.009,-0.0293 -0.003,-0.005 -0.007,-0.0121 -0.002,-0.009 -0.003,-0.0155 -0.002,-0.005 -0.0103,-0.0293 -0.007,-0.0172 -0.0103,-0.0276 -0.003,-0.005 -0.007,-0.0121 -0.002,-0.009 -0.003,-0.0155 -0.003,-0.005 -0.007,-0.0121 -0.003,-0.007 -0.005,-0.0138 -0.007,-0.0172 -0.0121,-0.0258 -0.007,-0.0172 -0.0103,-0.0241 -0.007,-0.0172 -0.0121,-0.0258 -0.003,-0.005 -0.007,-0.0103 -0.003,-0.007 -0.005,-0.0121 -0.0103,-0.0172 -0.0138,-0.0241 -0.0155,-0.0241 -0.0138,-0.0224 -0.005,-0.005 -0.009,-0.0103 -0.002,-0.007 -0.005,-0.0121 -0.003,-0.007 -0.0138,-0.0207 -0.003,-0.005 -0.007,-0.0103 -0.003,-0.005 -0.005,-0.0103 -0.009,-0.0155 -0.0293,-0.0396 -0.003,-0.003 -0.0276,-0.0379 -0.0207,-0.0241 -0.031,-0.0344 -0.0103,-0.0121 -0.031,-0.0327 -0.0138,-0.0155 -0.0293,-0.0293 -0.0121,-0.009 -0.0327,-0.0258 -0.0172,-0.0138 -0.0327,-0.0258 -0.0396,-0.0258 -0.0327,-0.0224 -0.0344,-0.0207 -0.031,-0.0189 0,0 -0.031,-0.0155 -0.007,-0.003 -0.0327,-0.0121 -0.0224,-0.009 -0.0327,-0.0121 -0.009,-0.002 -0.0155,-0.003 -0.007,-0.003 -0.0138,-0.007 -0.031,-0.005 -0.031,-0.005 -0.0103,-0.002 -0.031,-0.002 -0.005,0 -0.009,0 -0.003,0 -0.007,0 h -0.56844 v 2.55626 0 z"
         style="font-size:3.52777px;line-height:1.25;font-family:'MS 33558';-inkscape-font-specification:'MS 33558, ';text-align:center;word-spacing:-2.64583px;text-anchor:middle;fill:#00ff00;stroke-width:0.264583"
         id="path1580-4" />
      <path
         d="m 187.7634,112.86383 h -1.42799 v 0.94223 h 1.08864 q 0.24461,0.0362 0.24288,0.24632 0,0.20843 -0.24288,0.24288 h -1.08864 v 1.13171 h 1.42799 q 0.24287,0.0362 0.24287,0.24288 0,0.20671 -0.24287,0.24116 h -1.66743 q -0.21531,-0.0276 -0.2446,-0.2446 v -3.04202 q 0.0327,-0.22737 0.2446,-0.24115 h 1.66743 q 0.24287,0.019 0.24115,0.24288 0,0.2222 -0.24115,0.23771 z"
         style="font-size:3.52777px;line-height:1.25;font-family:'MS 33558';-inkscape-font-specification:'MS 33558, ';text-align:center;word-spacing:-2.64583px;text-anchor:middle;fill:#00ff00;stroke-width:0.264583"
         id="path1582-2" />
      <path
         d="m 187.07782,116.79296 h 0.0327 q 0.22049,0.0155 0.40652,0.0999 0.35657,0.16708 0.50471,0.54949 0.14814,0.3824 -0.003,0.74586 -0.1223,0.28767 -0.36173,0.45131 -0.23944,0.16192 -0.54605,0.18086 l -0.0327,0.002 h -0.83716 v 1.25573 q -0.031,0.24288 -0.2446,0.24288 -0.21359,0 -0.24288,-0.24288 v -3.04373 q 0.0258,-0.2136 0.22738,-0.24116 h 0.0155 z m 0,0.48576 h -0.83715 v 1.05592 h 0.83715 q 0.19637,0 0.34623,-0.13092 0.15159,-0.13091 0.17743,-0.32728 0.031,-0.23772 -0.12747,-0.41686 -0.15848,-0.18086 -0.39619,-0.18086 z"
         style="font-size:3.52777px;line-height:1.25;font-family:'MS 33558';-inkscape-font-specification:'MS 33558, ';text-align:center;word-spacing:-2.64583px;text-anchor:middle;fill:#00ff00;stroke-width:0.264583"
         id="path1584-3" />
      <path
         d="m 187.93996,124.35665 q 0.11024,0.19465 -0.062,0.32727 -0.0827,0.0586 -0.19121,0.0396 -0.10679,-0.0189 -0.15675,-0.10679 l -0.84921,-1.34186 h -0.43064 v 1.21267 q 0,0.14987 -0.13608,0.21704 -0.13608,0.0655 -0.25494,-0.0258 -0.0947,-0.0706 -0.0947,-0.19122 v -3.04373 q 0,-0.0999 0.0689,-0.17053 0.0706,-0.0706 0.17226,-0.0706 h 1.0697 q 0.38585,0 0.67007,0.24633 0.28422,0.2446 0.35312,0.62183 0.0724,0.4048 -0.17225,0.75792 -0.24288,0.3514 -0.64596,0.4272 l -0.0327,0.005 z m -0.86472,-1.5658 q 0.1757,0 0.32384,-0.1068 0.14986,-0.1068 0.20154,-0.27905 0.081,-0.26527 -0.0741,-0.47887 -0.15503,-0.21532 -0.4272,-0.23771 h -0.84921 v 1.10243 z"
         style="font-size:3.52777px;line-height:1.25;font-family:'MS 33558';-inkscape-font-specification:'MS 33558, ';text-align:center;word-spacing:-2.64583px;text-anchor:middle;fill:#00ff00;stroke-width:0.264583"
         id="path1586-0" />
      <path
         d="m 187.7634,126.09297 h -1.42799 v 0.94223 h 1.08864 q 0.24461,0.0362 0.24288,0.24632 0,0.20843 -0.24288,0.24289 h -1.08864 v 1.1317 h 1.42799 q 0.24287,0.0362 0.24287,0.24289 0,0.2067 -0.24287,0.24116 h -1.66743 q -0.21531,-0.0276 -0.2446,-0.24461 v -3.04201 q 0.0327,-0.22737 0.2446,-0.24115 h 1.66743 q 0.24287,0.0189 0.24115,0.24287 0,0.22221 -0.24115,0.23771 z"
         style="font-size:3.52777px;line-height:1.25;font-family:'MS 33558';-inkscape-font-specification:'MS 33558, ';text-align:center;word-spacing:-2.64583px;text-anchor:middle;fill:#00ff00;stroke-width:0.264583"
         id="path1588-1" />
      <path
         d="m 187.52999,131.67229 0.0276,0.0121 0.031,0.0155 0.0276,0.0155 q 0.0121,0.009 0.0258,0.0172 0.0155,0.007 0.0293,0.0155 0.34107,0.22393 0.42203,0.62012 0.031,0.15503 0.0138,0.31867 -0.0276,0.23427 -0.16537,0.43407 -0.13608,0.19811 -0.34279,0.30663 -0.2222,0.11713 -0.45991,0.11713 -0.39963,0 -0.76309,-0.10163 -0.36346,-0.10335 -0.51849,-0.54949 -0.0207,-0.0568 -0.031,-0.11713 -0.0103,-0.0603 -0.0241,-0.12058 -0.0258,-0.12403 0.0603,-0.21877 0.0879,-0.0947 0.21704,-0.0723 0.13608,0.0276 0.18948,0.16881 l 0.005,0.0155 q 0.0827,0.37379 0.28767,0.44614 0.2067,0.0724 0.5736,0.0655 0.33762,0 0.46337,-0.31695 0.0551,-0.14125 0.0172,-0.29284 -0.0379,-0.1533 -0.14986,-0.25493 -0.0499,-0.0431 -0.13092,-0.081 l -0.79753,-0.34968 -0.0258,-0.0138 q -0.39102,-0.20671 -0.48576,-0.58739 -0.11541,-0.44097 0.16019,-0.79064 0.27733,-0.3514 0.72692,-0.3514 l 0.18948,0.005 q 0.093,0.0172 0.17914,0.0344 0.0861,0.0155 0.17398,0.0551 0.21704,0.10163 0.33245,0.27905 0.11541,0.17742 0.20843,0.38413 0.009,0.019 0.0155,0.0448 0.019,0.0844 -0.0172,0.15331 -0.0207,0.0431 -0.0431,0.0655 -0.0224,0.0224 -0.0362,0.031 -0.0896,0.0637 -0.19637,0.0379 -0.1068,-0.0241 -0.16364,-0.13781 -0.0448,-0.0999 -0.0965,-0.20326 -0.0499,-0.10507 -0.14125,-0.17397 -0.0379,-0.0276 -0.0741,-0.0396 -0.0344,-0.0138 -0.0775,-0.0293 l -0.11197,-0.0189 -0.15847,-0.005 q -0.23082,0.003 -0.35312,0.19982 -0.0827,0.12574 -0.062,0.28077 0.0241,0.1912 0.17914,0.29628 0.007,0.005 0.0155,0.0121 0.009,0.005 0.019,0.0103 l 0.0189,0.009 0.0207,0.009 z"
         style="font-size:3.52777px;line-height:1.25;font-family:'MS 33558';-inkscape-font-specification:'MS 33558, ';text-align:center;word-spacing:-2.64583px;text-anchor:middle;fill:#00ff00;stroke-width:0.264583"
         id="path1590-8" />
      <path
         d="m 187.52999,136.082 0.0276,0.0121 0.031,0.0155 0.0276,0.0155 q 0.0121,0.009 0.0258,0.0172 0.0155,0.007 0.0293,0.0155 0.34107,0.22393 0.42203,0.62012 0.031,0.15502 0.0138,0.31867 -0.0276,0.23426 -0.16537,0.43408 -0.13608,0.19809 -0.34279,0.30661 -0.2222,0.11713 -0.45991,0.11713 -0.39963,0 -0.76309,-0.10163 -0.36346,-0.10335 -0.51849,-0.54949 -0.0207,-0.0568 -0.031,-0.11713 -0.0103,-0.0603 -0.0241,-0.12058 -0.0258,-0.12402 0.0603,-0.21876 0.0879,-0.0947 0.21704,-0.0724 0.13608,0.0276 0.18948,0.16881 l 0.005,0.0155 q 0.0827,0.37379 0.28767,0.44614 0.2067,0.0724 0.5736,0.0655 0.33762,0 0.46337,-0.31695 0.0551,-0.14125 0.0172,-0.29283 -0.0379,-0.15331 -0.14986,-0.25494 -0.0499,-0.0431 -0.13092,-0.081 l -0.79753,-0.34968 -0.0258,-0.0138 q -0.39102,-0.2067 -0.48576,-0.58738 -0.11541,-0.44097 0.16019,-0.79065 0.27733,-0.3514 0.72692,-0.3514 l 0.18948,0.005 q 0.093,0.0172 0.17914,0.0345 0.0861,0.0155 0.17398,0.0551 0.21704,0.10163 0.33245,0.27905 0.11541,0.17742 0.20843,0.38413 0.009,0.0189 0.0155,0.0448 0.019,0.0844 -0.0172,0.1533 -0.0207,0.0431 -0.0431,0.0655 -0.0224,0.0224 -0.0362,0.031 -0.0896,0.0637 -0.19637,0.0379 -0.1068,-0.0241 -0.16364,-0.1378 -0.0448,-0.0999 -0.0965,-0.20326 -0.0499,-0.10508 -0.14125,-0.17398 -0.0379,-0.0276 -0.0741,-0.0396 -0.0344,-0.0138 -0.0775,-0.0293 l -0.11197,-0.0189 -0.15847,-0.005 q -0.23082,0.003 -0.35312,0.19982 -0.0827,0.12574 -0.062,0.28077 0.0241,0.1912 0.17914,0.29628 0.007,0.005 0.0155,0.0121 0.009,0.005 0.019,0.0103 l 0.0189,0.009 0.0207,0.009 z"
         style="font-size:3.52777px;line-height:1.25;font-family:'MS 33558';-inkscape-font-specification:'MS 33558, ';text-align:center;word-spacing:-2.64583px;text-anchor:middle;fill:#00ff00;stroke-width:0.264583"
         id="path1592-4" />
      <path
         d="m 188.24571,146.53784 q -0.0379,0.24116 -0.2446,0.24116 -0.20499,-0.002 -0.24116,-0.24116 v -2.15145 l -0.59083,1.01114 q -0.0947,0.11368 -0.21187,0.11885 -0.11542,0.005 -0.20671,-0.11885 l -0.58739,-1.00597 0.002,2.14629 q -0.0276,0.23943 -0.24977,0.23943 -0.22048,-0.002 -0.23771,-0.23943 v -3.04201 q 0.0138,-0.1981 0.17398,-0.23599 0.1602,-0.0396 0.27905,0.10852 l 0.82854,1.42454 0.83716,-1.42454 q 0.11886,-0.14814 0.27561,-0.10852 0.15847,0.0396 0.17398,0.23599 z"
         style="font-size:3.52777px;line-height:1.25;font-family:'MS 33558';-inkscape-font-specification:'MS 33558, ';text-align:center;word-spacing:-2.64583px;text-anchor:middle;fill:#00ff00;stroke-width:0.264583"
         id="path1594-9" />
      <path
         d="m 188.02264,148.67552 q 0.15847,0.47714 0.11885,0.99046 -0.0379,0.51332 -0.28077,0.93706 -0.15331,0.26356 -0.41858,0.44786 -0.26527,0.18433 -0.58566,0.1292 -0.52193,-0.0913 -0.79926,-0.54433 -0.27733,-0.45303 -0.31867,-1.00769 -0.0396,-0.55638 0.14986,-1.08348 0.1912,-0.5271 0.60805,-0.76653 0.20326,-0.11713 0.42547,-0.11713 0.42375,0 0.69247,0.32039 0.26871,0.31867 0.40824,0.69419 z m -1.08693,-0.52538 q -0.31694,0 -0.48059,0.34106 -0.16192,0.34107 -0.20498,0.58222 -0.0327,0.1757 -0.0241,0.42547 0.009,0.24977 0.0724,0.49437 0.0637,0.24288 0.1912,0.43925 0.12747,0.19465 0.33418,0.25838 0.24115,0.0758 0.41513,-0.0947 0.1757,-0.17225 0.26527,-0.36518 0.0913,-0.19809 0.12403,-0.5202 0.0345,-0.32212 -0.0155,-0.64251 -0.0482,-0.32212 -0.19121,-0.57878 -0.14297,-0.25838 -0.40652,-0.329 -0.0344,-0.0103 -0.0792,-0.0103 z"
         style="font-size:3.52777px;line-height:1.25;font-family:'MS 33558';-inkscape-font-specification:'MS 33558, ';text-align:center;word-spacing:-2.64583px;text-anchor:middle;fill:#00ff00;stroke-width:0.264583"
         id="path1596-0" />
      <path
         d="m 186.0598,152.07065 h 0.81132 q 0.60461,0 0.90606,0.55121 0.30144,0.55122 0.30144,1.21268 0,0.66145 -0.30317,1.21267 -0.30144,0.55121 -0.90433,0.55121 h -0.81132 0.003 -0.003 q -0.0568,-0.009 -0.062,-0.0103 -0.17915,-0.0431 -0.17742,-0.23427 h -0.002 l 0.002,-3.04201 q -0.002,-0.005 -0.002,-0.0138 0.005,-0.0947 0.0741,-0.1602 0.0706,-0.0672 0.16881,-0.0672 z m 0.81132,3.04201 q 0.003,0 0.007,0 0.003,0 0.009,0 0.003,0 0.005,0 0.003,-0.002 0.009,-0.002 0.003,0 0.007,0 0.005,-0.002 0.0103,-0.002 0.003,0 0.007,0 0.003,-0.002 0.009,-0.002 0.003,0 0.007,0 0.003,-0.002 0.009,-0.002 0.007,-0.003 0.0138,-0.003 0.003,0 0.007,-0.002 0.003,-0.003 0.009,-0.005 0.003,0 0.007,0 0.005,-0.002 0.0103,-0.003 0.003,0 0.007,-0.002 0.003,-0.002 0.009,-0.003 0.0103,-0.003 0.0155,-0.007 0.031,-0.0103 0.0172,-0.007 0.003,0 0.007,-0.002 0.003,-0.003 0.009,-0.005 0.0155,-0.0103 0.0138,-0.009 0.0172,-0.009 0.0172,-0.009 0.003,-0.002 0.007,-0.003 0.003,-0.003 0.009,-0.007 0.0155,-0.0103 0.0155,-0.0103 0.003,-0.002 0.007,-0.003 0.005,-0.003 0.0103,-0.007 0.003,-0.002 0.007,-0.005 0.003,-0.003 0.009,-0.007 0.003,-0.002 0.007,-0.003 0.003,-0.003 0.009,-0.007 0.003,-0.003 0.0172,-0.0138 0.0138,-0.0138 0.0138,-0.0138 0.003,-0.003 0.007,-0.007 0.003,-0.003 0.009,-0.009 0.003,-0.003 0.007,-0.007 0.003,-0.003 0.009,-0.009 0.005,-0.003 0.0155,-0.0138 0.003,-0.003 0.007,-0.007 0.003,-0.003 0.009,-0.009 0.003,-0.003 0.007,-0.007 0.003,-0.005 0.009,-0.0103 0.0207,-0.0276 0.0138,-0.0172 0.0121,-0.0121 0.0155,-0.0189 0.0155,-0.0207 0.0138,-0.0189 0.003,-0.005 0.007,-0.009 0.003,-0.005 0.009,-0.0103 0.003,-0.005 0.005,-0.0103 0.003,-0.005 0.009,-0.0103 0.002,-0.005 0.005,-0.0103 0.005,-0.007 0.009,-0.0121 0.0103,-0.0138 0.0138,-0.0207 0.003,-0.005 0.005,-0.0103 0.003,-0.007 0.009,-0.0121 0.003,-0.005 0.005,-0.0103 0.003,-0.007 0.009,-0.012 0.003,-0.009 0.0103,-0.0224 0.003,-0.005 0.005,-0.0121 0.003,-0.007 0.009,-0.0138 0.003,-0.005 0.005,-0.0103 0.003,-0.007 0.009,-0.0138 0.002,-0.005 0.003,-0.0121 0.003,-0.007 0.007,-0.0138 0.005,-0.009 0.0121,-0.0258 0.0172,-0.0431 0.0121,-0.0276 0.002,-0.005 0.003,-0.0121 0.003,-0.009 0.007,-0.0155 0.002,-0.007 0.003,-0.0138 0.003,-0.007 0.007,-0.0155 0.005,-0.0155 0.009,-0.0276 0.002,-0.007 0.003,-0.0138 0.003,-0.007 0.007,-0.0155 -0.007,0.0172 0.009,-0.0293 0.003,-0.009 0.0103,-0.0293 0,-0.007 0.002,-0.0138 0.003,-0.009 0.005,-0.0172 0.002,-0.007 0.003,-0.0138 0.002,-0.009 0.005,-0.0172 0,-0.005 0.002,-0.0121 0.003,-0.009 0.005,-0.0172 0.002,-0.0121 0.005,-0.0327 0,-0.007 0.002,-0.0138 0.003,-0.009 0.005,-0.0172 0,-0.007 0.002,-0.0138 0.002,-0.009 0.003,-0.0172 0.002,-0.0121 0.005,-0.0327 0,-0.007 0.002,-0.0155 0.003,-0.009 0.005,-0.0172 0,-0.0121 0.003,-0.0327 0,-0.007 0,-0.0138 0.002,-0.009 0.003,-0.019 0.003,-0.0207 0.003,-0.0327 0.002,-0.0121 0.002,-0.0327 0.002,-0.0121 0.002,-0.0344 0.002,-0.0121 0.002,-0.0327 0,-0.009 0,-0.0155 0.002,-0.009 0.003,-0.019 0,-0.007 0,-0.0138 0.002,-0.009 0.002,-0.0189 0,-0.007 0,-0.0155 0,-0.009 0,-0.0172 0,-0.009 0,-0.0155 0,-0.009 0,-0.0172 0,-0.009 -0.002,-0.0155 0,-0.009 0,-0.0189 0,-0.007 0,-0.0155 0,-0.009 0,-0.0172 0,-0.0103 -0.003,-0.0344 0,-0.0207 -0.002,-0.031 0,-0.0121 -0.003,-0.0362 0,-0.0207 -0.002,-0.031 0,-0.0121 -0.003,-0.0327 -0.002,-0.007 -0.003,-0.0155 0,-0.009 0,-0.0172 -0.003,-0.0207 -0.007,-0.0327 -0.002,-0.007 -0.003,-0.0138 -0.002,-0.009 -0.002,-0.0172 -0.002,-0.0121 -0.005,-0.0327 -0.002,-0.0121 -0.005,-0.0327 -0.007,-0.0207 -0.009,-0.031 -0.003,-0.0207 -0.005,-0.0293 -0.003,-0.007 -0.005,-0.0138 -0.002,-0.009 -0.003,-0.0172 -0.002,-0.007 -0.005,-0.0138 -0.003,-0.009 -0.003,-0.0172 -0.0155,-0.0465 -0.009,-0.0293 -0.003,-0.0121 -0.009,-0.0293 -0.003,-0.005 -0.007,-0.0121 -0.002,-0.009 -0.003,-0.0155 -0.002,-0.005 -0.0103,-0.0293 -0.007,-0.0172 -0.0103,-0.0276 -0.003,-0.005 -0.007,-0.0121 -0.002,-0.009 -0.003,-0.0155 -0.003,-0.005 -0.007,-0.0121 -0.003,-0.007 -0.005,-0.0138 -0.007,-0.0172 -0.0121,-0.0258 -0.007,-0.0172 -0.0103,-0.0241 -0.007,-0.0172 -0.0121,-0.0258 -0.003,-0.005 -0.007,-0.0103 -0.003,-0.007 -0.005,-0.0121 -0.0103,-0.0172 -0.0138,-0.0241 -0.0155,-0.0241 -0.0138,-0.0224 -0.005,-0.005 -0.009,-0.0103 -0.002,-0.007 -0.005,-0.0121 -0.003,-0.007 -0.0138,-0.0207 -0.003,-0.005 -0.007,-0.0103 -0.003,-0.005 -0.005,-0.0103 -0.009,-0.0155 -0.0293,-0.0396 -0.003,-0.003 -0.0276,-0.0379 -0.0207,-0.0241 -0.031,-0.0345 -0.0103,-0.0121 -0.031,-0.0327 -0.0138,-0.0155 -0.0293,-0.0293 -0.0121,-0.009 -0.0327,-0.0258 -0.0172,-0.0138 -0.0327,-0.0258 -0.0396,-0.0258 -0.0327,-0.0224 -0.0344,-0.0207 -0.031,-0.0189 0,0 -0.031,-0.0155 -0.007,-0.003 -0.0327,-0.0121 -0.0224,-0.009 -0.0327,-0.0121 -0.009,-0.002 -0.0155,-0.003 -0.007,-0.003 -0.0138,-0.007 -0.031,-0.005 -0.031,-0.005 -0.0103,-0.002 -0.031,-0.002 -0.005,0 -0.009,0 -0.003,0 -0.007,0 h -0.56844 v 2.55625 0 z"
         style="font-size:3.52777px;line-height:1.25;font-family:'MS 33558';-inkscape-font-specification:'MS 33558, ';text-align:center;word-spacing:-2.64583px;text-anchor:middle;fill:#00ff00;stroke-width:0.264583"
         id="path1598-7" />
      <path
         d="m 188.1191,158.84542 v 0.0344 q -0.005,0.0861 -0.007,0.10336 -0.0724,0.52709 -0.43236,0.77859 -0.36001,0.24977 -0.76825,0.23427 -0.40825,-0.0172 -0.74759,-0.298 -0.33761,-0.28078 -0.3669,-0.81821 v -0.0344 -2.1239 q 0,-0.0517 0.0189,-0.093 0.0827,-0.18087 0.27389,-0.14297 0.19292,0.0379 0.19292,0.23599 v 2.1239 q 0.0258,0.39618 0.34796,0.59255 0.32383,0.19637 0.6804,-0.0172 0.1602,-0.0947 0.23427,-0.24461 0.0758,-0.14986 0.0896,-0.33072 v -2.1239 q 0,-0.031 0.003,-0.0465 0.0396,-0.21187 0.2601,-0.19121 0.22049,0.0207 0.22049,0.23771 z"
         style="font-size:3.52777px;line-height:1.25;font-family:'MS 33558';-inkscape-font-specification:'MS 33558, ';text-align:center;word-spacing:-2.64583px;text-anchor:middle;fill:#00ff00;stroke-width:0.264583"
         id="path1600-6" />
      <path
         d="m 186.00898,164.41957 q -0.21187,-0.0138 -0.2446,-0.23944 v -3.04544 q 0.0362,-0.24806 0.2515,-0.24289 0.21531,0.003 0.23426,0.24289 v 2.8043 l 1.58991,-0.002 q 0.2446,0.0276 0.24116,0.24804 -0.002,0.21877 -0.24288,0.23427 z"
         style="font-size:3.52777px;line-height:1.25;font-family:'MS 33558';-inkscape-font-specification:'MS 33558, ';text-align:center;word-spacing:-2.64583px;text-anchor:middle;fill:#00ff00;stroke-width:0.264583"
         id="path1602-1" />
      <path
         d="m 187.7634,165.78038 h -1.42799 v 0.94223 h 1.08864 q 0.24461,0.0362 0.24288,0.24632 0,0.20843 -0.24288,0.24288 h -1.08864 v 1.13171 h 1.42799 q 0.24287,0.0362 0.24287,0.24289 0,0.2067 -0.24287,0.24116 h -1.66743 q -0.21531,-0.0276 -0.2446,-0.2446 v -3.04202 q 0.0327,-0.22737 0.2446,-0.24115 h 1.66743 q 0.24287,0.019 0.24115,0.24288 0,0.22221 -0.24115,0.2377 z"
         style="font-size:3.52777px;line-height:1.25;font-family:'MS 33558';-inkscape-font-specification:'MS 33558, ';text-align:center;word-spacing:-2.64583px;text-anchor:middle;fill:#00ff00;stroke-width:0.264583"
         id="path1604-1" />
      <path
         d="m 186.00898,177.64871 q -0.21187,-0.0138 -0.2446,-0.23944 v -3.04545 q 0.0362,-0.24804 0.2515,-0.24288 0.21531,0.003 0.23426,0.24288 v 2.8043 l 1.58991,-0.002 q 0.2446,0.0276 0.24116,0.24805 -0.002,0.21876 -0.24288,0.23427 z"
         style="font-size:3.52777px;line-height:1.25;font-family:'MS 33558';-inkscape-font-specification:'MS 33558, ';text-align:center;word-spacing:-2.64583px;text-anchor:middle;fill:#00ff00;stroke-width:0.264583"
         id="path1606-4" />
      <path
         d="m 187.16826,181.81898 q -0.0379,0.24288 -0.24633,0.24116 -0.2067,0 -0.24288,-0.24116 v -3.04545 q 0.0362,-0.24288 0.24288,-0.24288 0.20843,-0.002 0.24633,0.24288 z"
         style="font-size:3.52777px;line-height:1.25;font-family:'MS 33558';-inkscape-font-specification:'MS 33558, ';text-align:center;word-spacing:-2.64583px;text-anchor:middle;fill:#00ff00;stroke-width:0.264583"
         id="path1608-8" />
      <path
         d="m 185.85137,186.22181 v -3.03857 q 0.031,-0.22738 0.2446,-0.2446 h 1.66743 q 0.23943,0.0189 0.23943,0.2446 0,0.22393 -0.24288,0.23943 h -1.42454 v 0.94223 h 1.11104 q 0.23771,0.0172 0.24115,0.23255 0.003,0.21532 -0.24115,0.25149 h -1.11104 v 1.37287 q -0.0172,0.23771 -0.23427,0.24115 -0.21532,0.003 -0.24977,-0.24115 z"
         style="font-size:3.52777px;line-height:1.25;font-family:'MS 33558';-inkscape-font-specification:'MS 33558, ';text-align:center;word-spacing:-2.64583px;text-anchor:middle;fill:#00ff00;stroke-width:0.264583"
         id="path1610-0" />
      <path
         d="m 186.67044,190.63496 v -2.80085 h -0.63217 q -0.24116,-0.0189 -0.24116,-0.24116 0.002,-0.22393 0.24116,-0.2446 h 1.74838 q 0.23771,0.0189 0.23771,0.2446 0.002,0.22393 -0.23771,0.24116 h -0.63045 v 2.80085 q -0.0396,0.24461 -0.25494,0.24116 -0.21359,-0.003 -0.23082,-0.24116 z"
         style="font-size:3.52777px;line-height:1.25;font-family:'MS 33558';-inkscape-font-specification:'MS 33558, ';text-align:center;word-spacing:-2.64583px;text-anchor:middle;fill:#00ff00;stroke-width:0.264583"
         id="path1612-6" />
      <path
         d="m 186.00898,199.69727 q -0.21187,-0.0138 -0.2446,-0.23943 v -3.04546 q 0.0362,-0.24805 0.2515,-0.24288 0.21531,0.003 0.23426,0.24288 v 2.8043 l 1.58991,-0.002 q 0.2446,0.0276 0.24116,0.24804 -0.002,0.21877 -0.24288,0.23428 z"
         style="font-size:3.52777px;line-height:1.25;font-family:'MS 33558';-inkscape-font-specification:'MS 33558, ';text-align:center;word-spacing:-2.64583px;text-anchor:middle;fill:#00ff00;stroke-width:0.264583"
         id="path1614-1" />
      <path
         d="m 187.52655,202.97355 -0.52366,-1.44694 -0.5271,1.44694 z m -0.52366,-1.44694 0.52366,1.44694 z m -1.3298,2.2462 q 0.27561,-0.75964 0.55121,-1.51756 0.27733,-0.75965 0.55466,-1.51929 0.0568,-0.15675 0.22566,-0.15847 0.1688,-0.002 0.22737,0.15847 l 1.10415,3.04546 q 0.0517,0.24288 -0.14814,0.3135 -0.19981,0.0706 -0.30833,-0.14469 l -0.17742,-0.49265 h -1.40388 l -0.17225,0.48059 q -0.11024,0.21704 -0.31351,0.14297 -0.20326,-0.0758 -0.13952,-0.30833 z"
         style="font-size:3.52777px;line-height:1.25;font-family:'MS 33558';-inkscape-font-specification:'MS 33558, ';text-align:center;word-spacing:-2.64583px;text-anchor:middle;fill:#00ff00;stroke-width:0.264583"
         id="path1616-0" />
      <path
         d="m 186.67044,208.27382 v -2.80086 h -0.63217 q -0.24116,-0.0189 -0.24116,-0.24116 0.002,-0.22393 0.24116,-0.2446 h 1.74838 q 0.23771,0.019 0.23771,0.2446 0.002,0.22393 -0.23771,0.24116 h -0.63045 v 2.80086 q -0.0396,0.2446 -0.25494,0.24115 -0.21359,-0.003 -0.23082,-0.24115 z"
         style="font-size:3.52777px;line-height:1.25;font-family:'MS 33558';-inkscape-font-specification:'MS 33558, ';text-align:center;word-spacing:-2.64583px;text-anchor:middle;fill:#00ff00;stroke-width:0.264583"
         id="path1618-5" />
      <path
         d="m 188.03728,212.37348 -0.0155,0.0224 q -0.005,0.007 -0.009,0.0121 -0.003,0.005 -0.007,0.0103 -0.23599,0.31867 -0.62012,0.45474 -0.3824,0.13436 -0.75447,-0.05 -0.43236,-0.2153 -0.63562,-0.73034 -0.20154,-0.51506 -0.17398,-1.06971 0.0293,-0.55639 0.29284,-1.02147 0.26527,-0.46509 0.76825,-0.58222 0.28939,-0.0672 0.57705,0.0568 0.28767,0.1223 0.47198,0.34452 0.002,0 0.009,0.0121 0.0792,0.10335 0.0327,0.22737 -0.0465,0.1223 -0.17053,0.15331 -0.13264,0.0344 -0.2446,-0.0792 -0.23082,-0.26871 -0.44442,-0.25838 -0.21359,0.0103 -0.3824,0.1757 -0.16881,0.16536 -0.28078,0.42375 -0.11196,0.25838 -0.1378,0.48403 -0.031,0.25149 0.005,0.50643 0.0379,0.25321 0.15675,0.47714 0.20671,0.39274 0.52021,0.49265 0.31522,0.0982 0.61495,-0.30144 0.0138,-0.0172 0.0327,-0.0448 0.16192,-0.17914 0.34106,-0.0362 0.18087,0.14125 0.0534,0.32039 z"
         style="font-size:3.52777px;line-height:1.25;font-family:'MS 33558';-inkscape-font-specification:'MS 33558, ';text-align:center;word-spacing:-2.64583px;text-anchor:middle;fill:#00ff00;stroke-width:0.264583"
         id="path1620-2" />
      <path
         d="m 185.75319,217.09669 v -3.04545 q 0.0362,-0.24805 0.25149,-0.24289 0.21532,0.003 0.23426,0.24289 v 1.1386 h 1.38665 v -1.1386 q 0.0362,-0.24289 0.24288,-0.24289 0.20843,-0.002 0.24632,0.24289 v 3.04545 q -0.0379,0.24288 -0.24632,0.24116 -0.2067,0 -0.24288,-0.24116 v -1.41766 h -1.38665 v 1.41766 q -0.019,0.23771 -0.23426,0.24116 -0.21532,0.003 -0.25149,-0.24116 z"
         style="font-size:3.52777px;line-height:1.25;font-family:'MS 33558';-inkscape-font-specification:'MS 33558, ';text-align:center;word-spacing:-2.64583px;text-anchor:middle;fill:#00ff00;stroke-width:0.264583"
         id="path1622-3" />
    </g>
  </g>
</svg>
