<?xml version="1.0" encoding="UTF-8" standalone="no"?>
<!-- Created with Inkscape (http://www.inkscape.org/) -->

<svg
   width="210mm"
   height="297mm"
   viewBox="0 0 210 297"
   version="1.1"
   id="svg61780"
   inkscape:version="1.1 (c68e22c387, 2021-05-23)"
   sodipodi:docname="HUD Camera Panels.svg"
   xmlns:inkscape="http://www.inkscape.org/namespaces/inkscape"
   xmlns:sodipodi="http://sodipodi.sourceforge.net/DTD/sodipodi-0.dtd"
   xmlns="http://www.w3.org/2000/svg"
   xmlns:svg="http://www.w3.org/2000/svg">
  <sodipodi:namedview
     id="namedview61782"
     pagecolor="#ffffff"
     bordercolor="#666666"
     borderopacity="1.0"
     inkscape:pageshadow="2"
     inkscape:pageopacity="0.0"
     inkscape:pagecheckerboard="0"
     inkscape:document-units="mm"
     showgrid="false"
     inkscape:zoom="0.77771465"
     inkscape:cx="396.67505"
     inkscape:cy="561.25984"
     inkscape:window-width="2560"
     inkscape:window-height="1361"
     inkscape:window-x="-9"
     inkscape:window-y="-9"
     inkscape:window-maximized="1"
     inkscape:current-layer="layer1" />
  <defs
     id="defs61777" />
  <g
     inkscape:label="Layer 1"
     inkscape:groupmode="layer"
     id="layer1">
    <g
       id="g1116"
       transform="translate(-9.7409782,58.640451)">
      <rect
         style="fill:none;stroke:#000000;stroke-width:0.249328;stroke-miterlimit:4;stroke-dasharray:none;stroke-opacity:1"
         id="rect60929-0-3"
         width="152.15067"
         height="66.425674"
         x="40.150181"
         y="75.868355" />
      <path
         id="path61051-0-1"
         style="fill:#ff0000;stroke-width:0.186846"
         d="m 53.325425,132.54379 a 3.175,3.175 0 0 1 -3.175,3.175 3.175,3.175 0 0 1 -3.175,-3.175 3.175,3.175 0 0 1 3.175,-3.175 3.175,3.175 0 0 1 3.175,3.175 z" />
      <path
         id="path61051-4-9-6-8"
         style="fill:#ff0000;stroke-width:0.186846"
         transform="scale(1,-1)"
         d="m 53.325425,-85.868584 a 3.175,3.175 0 0 1 -3.175,3.175 3.175,3.175 0 0 1 -3.175,-3.175 3.175,3.175 0 0 1 3.175,-3.175 3.175,3.175 0 0 1 3.175,3.175 z" />
      <path
         id="path61051-4-26-0"
         style="fill:#ff0000;stroke-width:0.186846"
         transform="scale(-1,1)"
         d="m -179.37558,132.54379 a 3.175,3.175 0 0 1 -3.175,3.175 3.175,3.175 0 0 1 -3.175,-3.175 3.175,3.175 0 0 1 3.175,-3.175 3.175,3.175 0 0 1 3.175,3.175 z" />
      <path
         id="path61051-4-2-3-4"
         style="fill:#ff0000;stroke-width:0.186846"
         transform="scale(-1)"
         d="m -179.37558,-85.868576 a 3.175,3.175 0 0 1 -3.175,3.175 3.175,3.175 0 0 1 -3.175,-3.175 3.175,3.175 0 0 1 3.175,-3.175 3.175,3.175 0 0 1 3.175,3.175 z" />
      <path
         id="path61051-4-2-1-9-6"
         style="fill:#ff0000;stroke-width:0.186846"
         transform="scale(-1)"
         d="m -155.92794,-134.00308 a 3.175,3.175 0 0 1 -3.175,3.175 3.175,3.175 0 0 1 -3.175,-3.175 3.175,3.175 0 0 1 3.175,-3.175 3.175,3.175 0 0 1 3.175,3.175 z" />
      <path
         id="path61051-4-2-1-5-7-0"
         style="fill:#ff0000;stroke-width:0.186846"
         transform="scale(-1)"
         d="m -155.92794,-84.522758 a 3.175,3.175 0 0 1 -3.175,3.174999 3.175,3.175 0 0 1 -3.175,-3.174999 3.175,3.175 0 0 1 3.175,-3.175 3.175,3.175 0 0 1 3.175,3.175 z" />
      <path
         id="path61051-4-2-1-5-0-8-2"
         style="fill:#ff0000;stroke-width:0.186846"
         transform="scale(-1)"
         d="m -70.498882,-84.522751 a 3.175,3.175 0 0 1 -3.175,3.175 3.175,3.175 0 0 1 -3.174999,-3.175 3.175,3.175 0 0 1 3.174999,-3.175 3.175,3.175 0 0 1 3.175,3.175 z" />
      <path
         id="path61051-4-2-1-4-1-1"
         style="fill:#ff0000;stroke-width:0.186846"
         transform="scale(-1)"
         d="m -70.498882,-134.00308 a 3.175,3.175 0 0 1 -3.175,3.175 3.175,3.175 0 0 1 -3.174999,-3.175 3.175,3.175 0 0 1 3.174999,-3.175 3.175,3.175 0 0 1 3.175,3.175 z" />
      <path
         id="path14048-8-3"
         style="fill:#ff0000;stroke-width:0.170394"
         d="m 122.70053,109.20618 a 6.3499999,6.3499999 0 0 1 -6.35,6.35 6.3499999,6.3499999 0 0 1 -6.35,-6.35 6.3499999,6.3499999 0 0 1 6.35,-6.35 6.3499999,6.3499999 0 0 1 6.35,6.35 z" />
    </g>
    <g
       id="g1480"
       transform="translate(-18.246131,-44.782215)">
      <path
         id="rect2134-5"
         style="fill:none;stroke:#000000;stroke-width:0.249328;stroke-miterlimit:4;stroke-dasharray:none;stroke-opacity:1"
         d="m 69.64304,87.095154 v 9.962516 c 0,5.51929 -4.452613,9.96251 -9.98355,9.96251 h -9.98354 v 26.57562 h 9.98354 c 5.530937,0 9.98355,4.44323 9.98355,9.96251 v 9.96251 h 112.21648 v -9.96251 c 0,-5.51928 4.45262,-9.96251 9.98355,-9.96251 h 9.98355 v -26.57562 h -9.98355 c -5.53093,0 -9.98355,-4.44322 -9.98355,-9.96251 v -9.962516 z" />
      <path
         id="path61051-4-2-1-53"
         style="fill:#ff0000;stroke-width:0.186846"
         transform="scale(-1)"
         d="m -165.45371,-145.22989 a 3.175,3.175 0 0 1 -3.175,3.175 3.175,3.175 0 0 1 -3.175,-3.175 3.175,3.175 0 0 1 3.175,-3.175 3.175,3.175 0 0 1 3.175,3.175 z" />
      <path
         id="path61051-4-2-1-5-3"
         style="fill:#ff0000;stroke-width:0.186846"
         transform="scale(-1)"
         d="m -165.45371,-95.749557 a 3.175,3.175 0 0 1 -3.175,3.174999 3.175,3.175 0 0 1 -3.175,-3.174999 3.175,3.175 0 0 1 3.175,-3.175 3.175,3.175 0 0 1 3.175,3.175 z" />
      <path
         id="path61051-4-2-1-5-0-1"
         style="fill:#ff0000;stroke-width:0.186846"
         transform="scale(-1)"
         d="m -80.024646,-95.74955 a 3.175,3.175 0 0 1 -3.175,3.175 3.175,3.175 0 0 1 -3.175,-3.175 3.175,3.175 0 0 1 3.175,-3.175 3.175,3.175 0 0 1 3.175,3.175 z" />
      <path
         id="path61051-4-2-1-4-2"
         style="fill:#ff0000;stroke-width:0.186846"
         transform="scale(-1)"
         d="m -80.024646,-145.22989 a 3.175,3.175 0 0 1 -3.175,3.175 3.175,3.175 0 0 1 -3.175,-3.175 3.175,3.175 0 0 1 3.175,-3.175 3.175,3.175 0 0 1 3.175,3.175 z" />
      <g
         aria-label="hUD Camera"
         id="text3562-6"
         style="font-size:4.23333px;line-height:1.25;font-family:'MS 33558';-inkscape-font-specification:'MS 33558, ';fill:#00ff00;stroke-width:0.264583">
        <path
           d="m 108.70303,96.608728 v -3.654554 q 0.0434,-0.297656 0.30179,-0.291455 0.25839,0.0041 0.28112,0.291455 v 1.366324 h 1.66398 v -1.366324 q 0.0434,-0.291455 0.29146,-0.291455 0.25011,-0.0021 0.29559,0.291455 v 3.654554 q -0.0455,0.291455 -0.29559,0.289388 -0.24805,0 -0.29146,-0.289388 v -1.701186 h -1.66398 v 1.701186 q -0.0227,0.285254 -0.28112,0.289388 -0.25838,0.0041 -0.30179,-0.289388 z"
           id="path1373" />
        <path
           d="m 114.8856,95.498719 v 0.04134 q -0.006,0.103352 -0.008,0.124023 -0.0868,0.632519 -0.51883,0.934309 -0.43202,0.299723 -0.92191,0.28112 -0.48989,-0.02067 -0.8971,-0.357601 -0.40514,-0.33693 -0.44028,-0.981851 v -0.04134 -2.548679 q 0,-0.06201 0.0227,-0.111621 0.0992,-0.217041 0.32867,-0.171566 0.23151,0.04548 0.23151,0.283187 v 2.548679 q 0.031,0.475423 0.41754,0.711068 0.38861,0.235644 0.81649,-0.02067 0.19223,-0.113688 0.28112,-0.293522 0.0909,-0.179834 0.10748,-0.396875 v -2.54868 q 0,-0.03721 0.004,-0.05581 0.0475,-0.254247 0.31212,-0.229443 0.26459,0.0248 0.26459,0.285254 z"
           id="path1375" />
        <path
           d="m 115.67935,92.660652 h 0.97358 q 0.72554,0 1.08727,0.661458 0.36174,0.661458 0.36174,1.455207 0,0.793749 -0.36381,1.455207 -0.36173,0.661458 -1.0852,0.661458 h -0.97358 0.004 -0.004 q -0.0682,-0.01033 -0.0744,-0.0124 -0.21497,-0.05168 -0.2129,-0.28112 h -0.002 l 0.002,-3.65042 q -0.002,-0.0062 -0.002,-0.01654 0.006,-0.113688 0.0889,-0.192236 0.0847,-0.08061 0.20257,-0.08061 z m 0.97358,3.65042 q 0.004,0 0.008,0 0.004,0 0.0103,0 0.004,0 0.006,0 0.004,-0.0021 0.0103,-0.0021 0.004,0 0.008,0 0.006,-0.0021 0.0124,-0.0021 0.004,0 0.008,0 0.004,-0.0021 0.0103,-0.0021 0.004,0 0.008,0 0.004,-0.0021 0.0103,-0.0021 0.008,-0.0041 0.0165,-0.0041 0.004,0 0.008,-0.0021 0.004,-0.0041 0.0103,-0.0062 0.004,0 0.008,0 0.006,-0.0021 0.0124,-0.0041 0.004,0 0.008,-0.0021 0.004,-0.0021 0.0103,-0.0041 0.0124,-0.0041 0.0186,-0.0083 0.0372,-0.0124 0.0207,-0.0083 0.004,0 0.008,-0.0021 0.004,-0.0041 0.0103,-0.0062 0.0186,-0.0124 0.0165,-0.01034 0.0207,-0.01034 0.0207,-0.01034 0.004,-0.0021 0.008,-0.0041 0.004,-0.0041 0.0103,-0.0083 0.0186,-0.0124 0.0186,-0.0124 0.004,-0.0021 0.008,-0.0041 0.006,-0.0041 0.0124,-0.0083 0.004,-0.0021 0.008,-0.0062 0.004,-0.0041 0.0103,-0.0083 0.004,-0.0021 0.008,-0.0041 0.004,-0.0041 0.0103,-0.0083 0.004,-0.0041 0.0207,-0.01654 0.0165,-0.01654 0.0165,-0.01654 0.004,-0.0041 0.008,-0.0083 0.004,-0.0041 0.0103,-0.01033 0.004,-0.0041 0.008,-0.0083 0.004,-0.0041 0.0103,-0.01033 0.006,-0.0041 0.0186,-0.01654 0.004,-0.0041 0.008,-0.0083 0.004,-0.0041 0.0103,-0.01033 0.004,-0.0041 0.008,-0.0083 0.004,-0.0062 0.0103,-0.0124 0.0248,-0.03307 0.0165,-0.02067 0.0145,-0.01447 0.0186,-0.02274 0.0186,-0.02481 0.0165,-0.02274 0.004,-0.0062 0.008,-0.01033 0.004,-0.0062 0.0103,-0.0124 0.004,-0.0062 0.006,-0.0124 0.004,-0.0062 0.0103,-0.0124 0.002,-0.0062 0.006,-0.0124 0.006,-0.0083 0.0103,-0.01447 0.0124,-0.01654 0.0165,-0.0248 0.004,-0.0062 0.006,-0.0124 0.004,-0.0083 0.0103,-0.01447 0.004,-0.0062 0.006,-0.0124 0.004,-0.0083 0.0103,-0.01447 0.004,-0.01034 0.0124,-0.02687 0.004,-0.0062 0.006,-0.01447 0.004,-0.0083 0.0103,-0.01654 0.004,-0.0062 0.006,-0.0124 0.004,-0.0083 0.0103,-0.01654 0.002,-0.0062 0.004,-0.01447 0.004,-0.0083 0.008,-0.01654 0.006,-0.01033 0.0145,-0.03101 0.0207,-0.05168 0.0145,-0.03307 0.002,-0.0062 0.004,-0.01447 0.004,-0.01033 0.008,-0.0186 0.002,-0.0083 0.004,-0.01654 0.004,-0.0083 0.008,-0.0186 0.006,-0.0186 0.0103,-0.03307 0.002,-0.0083 0.004,-0.01654 0.004,-0.0083 0.008,-0.0186 -0.008,0.02067 0.0103,-0.03514 0.004,-0.01034 0.0124,-0.03514 0,-0.0083 0.002,-0.01654 0.004,-0.01033 0.006,-0.02067 0.002,-0.0083 0.004,-0.01654 0.002,-0.01033 0.006,-0.02067 0,-0.0062 0.002,-0.01447 0.004,-0.01033 0.006,-0.02067 0.002,-0.01447 0.006,-0.03927 0,-0.0083 0.002,-0.01654 0.004,-0.01033 0.006,-0.02067 0,-0.0083 0.002,-0.01654 0.002,-0.01034 0.004,-0.02067 0.002,-0.01447 0.006,-0.03927 0,-0.0083 0.002,-0.0186 0.004,-0.01033 0.006,-0.02067 0,-0.01447 0.004,-0.03927 0,-0.0083 0,-0.01654 0.002,-0.01033 0.004,-0.02274 0.004,-0.02481 0.004,-0.03928 0.002,-0.01447 0.002,-0.03927 0.002,-0.01447 0.002,-0.04134 0.002,-0.01447 0.002,-0.03927 0,-0.01033 0,-0.0186 0.002,-0.01034 0.004,-0.02274 0,-0.0083 0,-0.01654 0.002,-0.01034 0.002,-0.02274 0,-0.0083 0,-0.0186 0,-0.01034 0,-0.02067 0,-0.01033 0,-0.0186 0,-0.01034 0,-0.02067 0,-0.01033 -0.002,-0.0186 0,-0.01033 0,-0.02274 0,-0.0083 0,-0.0186 0,-0.01034 0,-0.02067 0,-0.0124 -0.004,-0.04134 0,-0.0248 -0.002,-0.03721 0,-0.01447 -0.004,-0.04341 0,-0.02481 -0.002,-0.03721 0,-0.01447 -0.004,-0.03928 -0.002,-0.0083 -0.004,-0.0186 0,-0.01033 0,-0.02067 -0.004,-0.0248 -0.008,-0.03927 -0.002,-0.0083 -0.004,-0.01654 -0.002,-0.01033 -0.002,-0.02067 -0.002,-0.01447 -0.006,-0.03927 -0.002,-0.01447 -0.006,-0.03927 -0.008,-0.0248 -0.0103,-0.03721 -0.004,-0.0248 -0.006,-0.03514 -0.004,-0.0083 -0.006,-0.01654 -0.002,-0.01033 -0.004,-0.02067 -0.002,-0.0083 -0.006,-0.01654 -0.004,-0.01033 -0.004,-0.02067 -0.0186,-0.05581 -0.0103,-0.03514 -0.004,-0.01447 -0.0103,-0.03514 -0.004,-0.0062 -0.008,-0.01447 -0.002,-0.01033 -0.004,-0.0186 -0.002,-0.0062 -0.0124,-0.03514 -0.008,-0.02067 -0.0124,-0.03307 -0.004,-0.0062 -0.008,-0.01447 -0.002,-0.01033 -0.004,-0.0186 -0.004,-0.0062 -0.008,-0.01447 -0.004,-0.0083 -0.006,-0.01654 -0.008,-0.02067 -0.0145,-0.03101 -0.008,-0.02067 -0.0124,-0.02894 -0.008,-0.02067 -0.0145,-0.03101 -0.004,-0.0062 -0.008,-0.0124 -0.004,-0.0083 -0.006,-0.01447 -0.0124,-0.02067 -0.0165,-0.02894 -0.0186,-0.02894 -0.0165,-0.02687 -0.006,-0.0062 -0.0103,-0.0124 -0.002,-0.0083 -0.006,-0.01447 -0.004,-0.0083 -0.0165,-0.02481 -0.004,-0.0062 -0.008,-0.0124 -0.004,-0.0062 -0.006,-0.0124 -0.0103,-0.0186 -0.0351,-0.04754 -0.004,-0.0041 -0.0331,-0.04547 -0.0248,-0.02894 -0.0372,-0.04134 -0.0124,-0.01447 -0.0372,-0.03927 -0.0165,-0.0186 -0.0351,-0.03514 -0.0145,-0.01034 -0.0393,-0.03101 -0.0207,-0.01654 -0.0393,-0.03101 -0.0475,-0.03101 -0.0393,-0.02687 -0.0413,-0.0248 -0.0372,-0.02274 0,0 -0.0372,-0.0186 -0.008,-0.0041 -0.0393,-0.01447 -0.0269,-0.01034 -0.0393,-0.01447 -0.0103,-0.0021 -0.0186,-0.0041 -0.008,-0.0041 -0.0165,-0.0083 -0.0372,-0.0062 -0.0372,-0.0062 -0.0124,-0.0021 -0.0372,-0.0021 -0.006,0 -0.0103,0 -0.004,0 -0.008,0 h -0.68213 v 3.06751 0 z"
           id="path1377" />
        <path
           d="m 125.52473,96.232524 -0.0186,0.02687 q -0.006,0.0083 -0.0103,0.01447 -0.004,0.0062 -0.008,0.0124 -0.28318,0.382405 -0.74414,0.545702 -0.45888,0.161231 -0.90537,-0.05994 -0.51883,-0.258382 -0.76274,-0.876432 -0.24184,-0.61805 -0.20877,-1.283641 0.0351,-0.667659 0.3514,-1.225764 0.31832,-0.558105 0.9219,-0.698665 0.34727,-0.08061 0.69247,0.06821 0.3452,0.146761 0.56637,0.413411 0.002,0 0.0103,0.01447 0.0951,0.124024 0.0393,0.272852 -0.0558,0.14676 -0.20464,0.183967 -0.15916,0.04134 -0.29352,-0.09508 -0.27699,-0.322461 -0.5333,-0.310058 -0.25632,0.0124 -0.45889,0.210839 -0.20257,0.198438 -0.33693,0.508496 -0.13436,0.310058 -0.16536,0.580843 -0.0372,0.30179 0.006,0.607714 0.0455,0.303857 0.1881,0.572574 0.24805,0.471289 0.62425,0.591178 0.37827,0.117822 0.73794,-0.361735 0.0165,-0.02067 0.0393,-0.05374 0.1943,-0.214974 0.40927,-0.04341 0.21704,0.169498 0.0641,0.384472 z"
           id="path1379" />
        <path
           d="m 128.34006,95.535926 -0.62838,-1.736326 -0.63252,1.736326 z m -0.62838,-1.736326 0.62838,1.736326 z m -1.59577,2.69544 q 0.33073,-0.911571 0.66146,-1.821076 0.33279,-0.911571 0.66559,-1.823143 0.0682,-0.188102 0.27078,-0.190169 0.20258,-0.0021 0.27286,0.190169 l 1.32498,3.654554 q 0.062,0.291455 -0.17777,0.376205 -0.23978,0.08475 -0.37,-0.173633 l -0.21291,-0.591178 h -1.68465 l -0.2067,0.576709 q -0.1323,0.260449 -0.37621,0.171565 -0.24391,-0.09095 -0.16743,-0.370003 z"
           id="path1381" />
        <path
           d="m 132.80077,96.604594 q -0.0455,0.289388 -0.29352,0.289388 -0.24598,-0.0021 -0.28939,-0.289388 v -2.581752 l -0.709,1.213361 q -0.11369,0.136426 -0.25425,0.142627 -0.13849,0.0062 -0.24805,-0.142627 l -0.70486,-1.20716 0.002,2.575551 q -0.0331,0.287321 -0.29972,0.287321 -0.26458,-0.0021 -0.28525,-0.287321 v -3.65042 q 0.0165,-0.237711 0.20877,-0.283187 0.19224,-0.04754 0.33486,0.130225 l 0.99426,1.709455 1.00459,-1.709455 q 0.14262,-0.177767 0.33073,-0.130225 0.19016,0.04754 0.20877,0.283187 z"
           id="path1383" />
        <path
           d="m 135.59129,93.237361 h -1.71359 v 1.130679 h 1.30638 q 0.29352,0.04341 0.29146,0.295589 0,0.250114 -0.29146,0.291455 h -1.30638 v 1.358055 h 1.71359 q 0.29146,0.04341 0.29146,0.291455 0,0.248047 -0.29146,0.289388 h -2.00091 q -0.25838,-0.03307 -0.29352,-0.293522 v -3.65042 q 0.0393,-0.272851 0.29352,-0.289388 h 2.00091 q 0.29146,0.02274 0.28939,0.291455 0,0.26665 -0.28939,0.285254 z"
           id="path1385" />
        <path
           d="m 139.06808,96.445431 q 0.13229,0.233577 -0.0744,0.39274 -0.0992,0.07028 -0.22945,0.04754 -0.12816,-0.02274 -0.1881,-0.128158 l -1.01906,-1.610236 h -0.51676 v 1.455207 q 0,0.179834 -0.1633,0.260449 -0.1633,0.07855 -0.30592,-0.03101 -0.11369,-0.08475 -0.11369,-0.229443 v -3.65248 q 0,-0.119889 0.0827,-0.204639 0.0848,-0.08475 0.20671,-0.08475 h 1.28364 q 0.46302,0 0.80408,0.295589 0.34107,0.293522 0.42375,0.746207 0.0868,0.485758 -0.20671,0.909505 -0.29145,0.421679 -0.77514,0.512629 l -0.0393,0.0062 z m -1.03766,-1.878954 q 0.21084,0 0.3886,-0.128157 0.17984,-0.128158 0.24185,-0.334863 0.0971,-0.318327 -0.0889,-0.574642 -0.18604,-0.258381 -0.51263,-0.285253 h -1.01906 v 1.322915 z"
           id="path1387" />
        <path
           d="m 142.06531,95.535926 -0.62838,-1.736326 -0.63252,1.736326 z m -0.62838,-1.736326 0.62838,1.736326 z m -1.59577,2.69544 q 0.33073,-0.911571 0.66146,-1.821076 0.33279,-0.911571 0.66559,-1.823143 0.0682,-0.188102 0.27078,-0.190169 0.20257,-0.0021 0.27285,0.190169 l 1.32499,3.654554 q 0.062,0.291455 -0.17777,0.376205 -0.23978,0.08475 -0.37,-0.173633 l -0.21291,-0.591178 h -1.68465 l -0.20671,0.576709 q -0.13229,0.260449 -0.3762,0.171565 -0.24391,-0.09095 -0.16743,-0.370003 z"
           id="path1389" />
      </g>
      <g
         aria-label="TRG"
         id="text3562-1-3"
         style="font-size:3.52778px;line-height:1.25;font-family:'MS 33558';-inkscape-font-specification:'MS 33558, ';fill:#00ff00;stroke-width:0.264583">
        <path
           d="m 103.04631,130.35854 v -2.80086 h -0.63217 q -0.24116,-0.019 -0.24116,-0.24116 0.002,-0.22393 0.24116,-0.2446 h 1.74839 q 0.23771,0.0189 0.23771,0.2446 0.002,0.22393 -0.23771,0.24116 h -0.63046 v 2.80086 q -0.0396,0.24461 -0.25493,0.24116 -0.2136,-0.003 -0.23083,-0.24116 z"
           id="path1392" />
        <path
           d="m 107.09086,130.22591 q 0.11024,0.19465 -0.062,0.32728 -0.0827,0.0586 -0.19121,0.0396 -0.10679,-0.0189 -0.15675,-0.1068 l -0.84921,-1.34186 h -0.43064 v 1.21267 q 0,0.14986 -0.13608,0.21704 -0.13608,0.0655 -0.25494,-0.0258 -0.0947,-0.0706 -0.0947,-0.1912 v -3.04374 q 0,-0.0999 0.0689,-0.17053 0.0706,-0.0706 0.17226,-0.0706 h 1.0697 q 0.38585,0 0.67007,0.24633 0.28422,0.2446 0.35312,0.62184 0.0724,0.40479 -0.17225,0.75792 -0.24288,0.3514 -0.64596,0.42719 l -0.0327,0.005 z m -0.86472,-1.5658 q 0.1757,0 0.32384,-0.1068 0.14986,-0.1068 0.20154,-0.27905 0.081,-0.26527 -0.0741,-0.47887 -0.15503,-0.21532 -0.4272,-0.23771 h -0.84921 v 1.10243 z"
           id="path1394" />
        <path
           d="m 108.90126,129.1786 -0.0155,-0.002 q -0.21015,-0.0258 -0.21015,-0.23944 0,-0.21359 0.21015,-0.23943 l 0.0155,-0.003 h 0.0155 0.63562 q 0.0999,0 0.17053,0.0724 0.0724,0.0706 0.0724,0.17053 v 0.87333 l -0.0207,0.0448 -0.0121,0.0276 -0.0121,0.0258 -0.0138,0.0258 -0.0138,0.0258 -0.0121,0.0258 -0.0138,0.0258 -0.0155,0.0258 q -0.33417,0.56844 -0.83027,0.55638 -0.49609,-0.0138 -0.83371,-0.56155 -0.1602,-0.2601 -0.23771,-0.65112 -0.0775,-0.39274 -0.0465,-0.80099 0.031,-0.40996 0.18948,-0.77859 0.1602,-0.37035 0.47715,-0.58739 0.39618,-0.26872 0.7717,-0.062 0.37551,0.20498 0.56155,0.57705 l 0.0138,0.0276 0.0103,0.0241 0.0138,0.0258 q 0.0586,0.16364 -0.0448,0.26699 -0.0999,0.0982 -0.21704,0.0741 -0.11714,-0.0258 -0.18087,-0.13952 -0.20154,-0.49954 -0.52021,-0.43581 -0.31695,0.0637 -0.47542,0.52021 -0.15503,0.44097 -0.1223,0.94913 0.0327,0.50643 0.33072,0.88366 0.20499,0.26355 0.41686,0.16881 0.21187,-0.0947 0.33418,-0.35312 l 0.0189,-0.0379 v -0.52538 z"
           id="path1396" />
      </g>
      <g
         aria-label="OFF"
         id="text3562-1-8-1"
         style="font-size:3.52778px;line-height:1.25;font-family:'MS 33558';-inkscape-font-specification:'MS 33558, ';fill:#00ff00;stroke-width:0.264583">
        <path
           d="m 124.33803,106.84123 q 0.15848,0.47715 0.11886,0.99047 -0.0379,0.51332 -0.28078,0.93706 -0.1533,0.26355 -0.41858,0.44787 -0.26527,0.18431 -0.58566,0.12919 -0.52194,-0.0913 -0.79927,-0.54433 -0.27733,-0.45303 -0.31867,-1.00769 -0.0396,-0.55638 0.14986,-1.08348 0.19121,-0.5271 0.60806,-0.76654 0.20327,-0.11713 0.42547,-0.11713 0.42375,0 0.69247,0.3204 0.26872,0.31867 0.40824,0.69418 z m -1.08693,-0.52538 q -0.31694,0 -0.48059,0.34107 -0.16192,0.34106 -0.20498,0.58222 -0.0327,0.1757 -0.0241,0.42547 0.009,0.24977 0.0724,0.49437 0.0637,0.24288 0.1912,0.43925 0.12747,0.19465 0.33418,0.25838 0.24116,0.0758 0.41513,-0.0947 0.1757,-0.17225 0.26528,-0.36518 0.0913,-0.19809 0.12402,-0.52021 0.0345,-0.32211 -0.0155,-0.64251 -0.0482,-0.32211 -0.19121,-0.57877 -0.14297,-0.25839 -0.40652,-0.32901 -0.0345,-0.0103 -0.0792,-0.0103 z"
           id="path1399" />
        <path
           d="m 124.92025,109.10983 v -3.03858 q 0.031,-0.22737 0.24461,-0.2446 h 1.66742 q 0.23944,0.019 0.23944,0.2446 0,0.22393 -0.24288,0.23944 h -1.42455 v 0.94223 h 1.11104 q 0.23772,0.0172 0.24116,0.23255 0.003,0.21531 -0.24116,0.25149 h -1.11104 v 1.37287 q -0.0172,0.23771 -0.23427,0.24116 -0.21531,0.003 -0.24977,-0.24116 z"
           id="path1401" />
        <path
           d="m 127.55403,109.10983 v -3.03858 q 0.031,-0.22737 0.2446,-0.2446 h 1.66743 q 0.23943,0.019 0.23943,0.2446 0,0.22393 -0.24287,0.23944 h -1.42455 v 0.94223 h 1.11104 q 0.23771,0.0172 0.24116,0.23255 0.003,0.21531 -0.24116,0.25149 h -1.11104 v 1.37287 q -0.0172,0.23771 -0.23427,0.24116 -0.21532,0.003 -0.24977,-0.24116 z"
           id="path1403" />
      </g>
      <g
         aria-label="normal"
         id="text3562-1-5-2"
         style="font-size:3.52778px;line-height:1.25;font-family:'MS 33558';-inkscape-font-specification:'MS 33558, ';fill:#00ff00;stroke-width:0.264583">
        <path
           d="m 99.929339,121.9569 q 0,0.18087 -0.1757,0.23082 -0.173977,0.0482 -0.27044,-0.10335 l -1.446941,-2.32028 v 2.19281 q -0.0379,0.24116 -0.244602,0.24116 -0.204984,0 -0.241157,-0.24116 v -3.04202 q 0.02584,-0.17915 0.18259,-0.23599 0.158475,-0.0568 0.26355,0.1068 l 1.446941,2.32371 v -2.19452 q 0.03273,-0.24633 0.24977,-0.24288 0.218763,0.002 0.235989,0.24288 z"
           id="path1406" />
        <path
           d="m 102.7147,119.68141 q 0.15847,0.47715 0.11886,0.99047 -0.0379,0.51332 -0.28078,0.93706 -0.15331,0.26355 -0.41858,0.44787 -0.26527,0.18431 -0.58567,0.12919 -0.52193,-0.0913 -0.79926,-0.54433 -0.27733,-0.45303 -0.31867,-1.00769 -0.0396,-0.55638 0.14986,-1.08348 0.19121,-0.5271 0.60806,-0.76654 0.20326,-0.11713 0.42547,-0.11713 0.42375,0 0.69247,0.32039 0.26871,0.31868 0.40824,0.69419 z m -1.08693,-0.52538 q -0.31695,0 -0.48059,0.34107 -0.16192,0.34106 -0.20498,0.58222 -0.0327,0.1757 -0.0241,0.42547 0.009,0.24977 0.0724,0.49437 0.0637,0.24288 0.1912,0.43925 0.12747,0.19465 0.33418,0.25838 0.24115,0.0758 0.41513,-0.0947 0.1757,-0.17225 0.26527,-0.36518 0.0913,-0.19809 0.12403,-0.52021 0.0345,-0.32211 -0.0155,-0.64251 -0.0482,-0.32211 -0.1912,-0.57877 -0.14297,-0.25839 -0.40652,-0.32901 -0.0344,-0.0103 -0.0792,-0.0103 z"
           id="path1408" />
        <path
           d="m 105.4725,121.82082 q 0.11024,0.19465 -0.062,0.32728 -0.0827,0.0586 -0.1912,0.0396 -0.1068,-0.019 -0.15676,-0.1068 l -0.84921,-1.34186 h -0.43064 v 1.21267 q 0,0.14986 -0.13608,0.21704 -0.13608,0.0655 -0.25494,-0.0258 -0.0947,-0.0706 -0.0947,-0.1912 v -3.04374 q 0,-0.0999 0.0689,-0.17053 0.0706,-0.0706 0.17226,-0.0706 h 1.0697 q 0.38585,0 0.67007,0.24633 0.28422,0.2446 0.35313,0.62184 0.0723,0.40479 -0.17226,0.75792 -0.24288,0.3514 -0.64596,0.42719 l -0.0327,0.005 z m -0.86472,-1.5658 q 0.1757,0 0.32384,-0.1068 0.14986,-0.1068 0.20154,-0.27905 0.081,-0.26527 -0.0741,-0.47887 -0.15503,-0.21532 -0.42719,-0.23771 h -0.84922 v 1.10243 z"
           id="path1410" />
        <path
           d="m 108.673,121.95345 q -0.0379,0.24116 -0.24461,0.24116 -0.20498,-0.002 -0.24115,-0.24116 v -2.15146 l -0.59084,1.01114 q -0.0947,0.11368 -0.21187,0.11885 -0.11541,0.005 -0.20671,-0.11885 l -0.58738,-1.00597 0.002,2.14629 q -0.0276,0.23944 -0.24977,0.23944 -0.22049,-0.002 -0.23771,-0.23944 v -3.04202 q 0.0138,-0.19809 0.17397,-0.23599 0.1602,-0.0396 0.27906,0.10852 l 0.82854,1.42455 0.83716,-1.42455 q 0.11886,-0.14814 0.27561,-0.10852 0.15847,0.0396 0.17398,0.23599 z"
           id="path1412" />
        <path
           d="m 110.95193,121.0629 -0.52366,-1.44695 -0.5271,1.44695 z m -0.52366,-1.44695 0.52366,1.44695 z m -1.3298,2.24621 q 0.2756,-0.75965 0.55121,-1.51757 0.27733,-0.75964 0.55466,-1.51928 0.0568,-0.15676 0.22566,-0.15848 0.16881,-0.002 0.22737,0.15848 l 1.10416,3.04546 q 0.0517,0.24288 -0.14814,0.31351 -0.19982,0.0706 -0.30834,-0.1447 l -0.17742,-0.49265 h -1.40388 l -0.17225,0.48059 q -0.11025,0.21704 -0.31351,0.14297 -0.20326,-0.0758 -0.13952,-0.30833 z"
           id="path1414" />
        <path
           d="m 112.34547,122.19633 q -0.21187,-0.0138 -0.2446,-0.23943 v -3.04547 q 0.0362,-0.24804 0.25149,-0.24288 0.21532,0.003 0.23427,0.24288 v 2.80431 l 1.58991,-0.002 q 0.2446,0.0276 0.24116,0.24805 -0.002,0.21876 -0.24288,0.23426 z"
           id="path1416" />
      </g>
      <path
         id="path14048-5"
         style="fill:#ff0000;stroke-width:0.170394"
         d="m 132.22629,120.43298 a 6.3499999,6.3499999 0 0 1 -6.35,6.35 6.3499999,6.3499999 0 0 1 -6.35,-6.35 6.3499999,6.3499999 0 0 1 6.35,-6.35 6.3499999,6.3499999 0 0 1 6.35,6.35 z" />
      <g
         aria-label="run"
         id="text3562-1-4-7"
         style="font-size:3.52778px;line-height:1.25;font-family:'MS 33558';-inkscape-font-specification:'MS 33558, ';fill:#00ff00;stroke-width:0.264583">
        <path
           d="m 138.96363,121.82201 q 0.11025,0.19465 -0.062,0.32728 -0.0827,0.0586 -0.1912,0.0396 -0.1068,-0.019 -0.15675,-0.1068 l -0.84922,-1.34186 h -0.43064 v 1.21267 q 0,0.14986 -0.13608,0.21704 -0.13608,0.0655 -0.25493,-0.0258 -0.0947,-0.0706 -0.0947,-0.1912 v -3.04374 q 0,-0.0999 0.0689,-0.17053 0.0706,-0.0706 0.17225,-0.0706 h 1.06971 q 0.38585,0 0.67007,0.24633 0.28422,0.2446 0.35312,0.62184 0.0724,0.40479 -0.17226,0.75792 -0.24288,0.3514 -0.64595,0.42719 l -0.0327,0.005 z m -0.86471,-1.5658 q 0.1757,0 0.32383,-0.1068 0.14987,-0.1068 0.20154,-0.27905 0.081,-0.26527 -0.0741,-0.47887 -0.15503,-0.21532 -0.42719,-0.23771 h -0.84922 v 1.10243 z"
           id="path1420" />
        <path
           d="m 141.91781,121.03308 v 0.0345 q -0.005,0.0861 -0.007,0.10335 -0.0724,0.5271 -0.43236,0.7786 -0.36002,0.24977 -0.76826,0.23426 -0.40825,-0.0172 -0.74759,-0.298 -0.33762,-0.28077 -0.3669,-0.81821 v -0.0345 -2.1239 q 0,-0.0517 0.0189,-0.093 0.0827,-0.18087 0.27388,-0.14297 0.19293,0.0379 0.19293,0.23599 v 2.1239 q 0.0258,0.39619 0.34795,0.59256 0.32384,0.19637 0.68041,-0.0172 0.1602,-0.0947 0.23427,-0.2446 0.0758,-0.14986 0.0896,-0.33073 v -2.1239 q 0,-0.031 0.003,-0.0465 0.0396,-0.21187 0.26011,-0.1912 0.22049,0.0207 0.22049,0.23771 z"
           id="path1422" />
        <path
           d="m 144.71695,121.95809 q 0,0.18087 -0.1757,0.23082 -0.17398,0.0482 -0.27044,-0.10335 l -1.44694,-2.32028 v 2.19281 q -0.0379,0.24116 -0.24461,0.24116 -0.20498,0 -0.24115,-0.24116 v -3.04202 q 0.0258,-0.17915 0.18259,-0.23599 0.15847,-0.0568 0.26355,0.1068 l 1.44694,2.32372 v -2.19453 q 0.0327,-0.24633 0.24977,-0.24288 0.21876,0.002 0.23599,0.24288 z"
           id="path1424" />
      </g>
    </g>
  </g>
</svg>
